<?xml version="1.0" encoding="utf-8"?>
<!-- Generator: Adobe Illustrator 19.0.0, SVG Export Plug-In . SVG Version: 6.00 Build 0)  -->
<svg version="1.1" id="Livello_1" xmlns="http://www.w3.org/2000/svg" xmlns:xlink="http://www.w3.org/1999/xlink" x="0px" y="0px"
	 width="1076.9px" height="361.5px" viewBox="2099.9 -165.5 1076.9 361.5"
	 style="enable-background:new 2099.9 -165.5 1076.9 361.5;" xml:space="preserve">
<style type="text/css">
	.st0{fill:#CE9171;stroke:#CE9171;stroke-width:3;stroke-miterlimit:10;stroke-opacity:0.5;}
	.st1{enable-background:new    ;}
	.st2{fill:#FFFFFF;}
	.st3{fill:#9B6562;stroke:#9B6562;stroke-width:3;stroke-miterlimit:10;stroke-opacity:0.5;}
	.st4{fill:#C1CE92;stroke:#B1BA76;stroke-width:3;stroke-miterlimit:10;stroke-opacity:0.5;}
	.st5{fill:#4D4A5D;stroke:#4D4A5E;stroke-width:3;stroke-miterlimit:10;stroke-opacity:0.5;}
	.st6{fill:#91A7B3;stroke:#99A7CB;stroke-width:3;stroke-miterlimit:10;stroke-opacity:0.5;}
	.st7{fill:none;stroke:url(#SVGID_1_);stroke-miterlimit:10;stroke-dasharray:12,12;}
	.st8{fill:url(#SVGID_2_);}
	.st9{fill:url(#SVGID_3_);}
	.st10{fill:none;stroke:#989998;stroke-miterlimit:10;}
	.st11{fill:#989998;}
	.st12{fill:#FFFFFF;stroke:#989998;stroke-miterlimit:10;}
	.st13{fill:#88888A;}
	.st14{fill:#0D7D8E;}
	.st15{fill:none;stroke:#FFFFFF;stroke-miterlimit:10;}
	.st16{fill:none;stroke:#FFFFFF;stroke-miterlimit:10;stroke-dasharray:12.9849,12.9849;}
	.st17{fill:none;stroke:#FFFFFF;stroke-miterlimit:10;stroke-dasharray:11.8895,11.8895;}
	.st18{fill:none;stroke:#FFFFFF;stroke-miterlimit:10;stroke-dasharray:12.0498,12.0498;}
</style>
<g>
	<circle class="st0" cx="863.6" cy="-12.1" r="54.6"/>
	<g class="st1">
		<path class="st2" d="M846.8,9.9h-2.6V2.4h2.6c1.2,0,2,0.3,2.4,0.9c0.4,0.6,0.6,1.5,0.6,2.8c0,0.6,0,1.2-0.1,1.6
			c-0.1,0.4-0.2,0.8-0.4,1.2C848.8,9.6,848,9.9,846.8,9.9z M848.6,6c0-0.9-0.1-1.6-0.3-2c-0.2-0.4-0.7-0.6-1.4-0.6h-1.4v5.4h1.4
			c0.7,0,1.2-0.3,1.5-0.8c0.1-0.3,0.2-0.6,0.2-0.9C848.6,6.9,848.6,6.5,848.6,6z"/>
		<path class="st2" d="M851.3,9.9V2.4h1.2v7.5H851.3z"/>
		<path class="st2" d="M856.4,3.3c-0.9,0-1.4,0.3-1.4,1c0,0.3,0.1,0.6,0.3,0.7c0.2,0.1,0.7,0.3,1.5,0.5c0.8,0.2,1.3,0.5,1.6,0.7
			s0.5,0.7,0.5,1.4c0,0.8-0.2,1.4-0.7,1.8c-0.5,0.4-1.1,0.6-1.8,0.6c-0.6,0-1.3-0.1-2.1-0.2l-0.4-0.1l0.1-1c1,0.1,1.7,0.2,2.3,0.2
			c0.9,0,1.4-0.4,1.4-1.2c0-0.3-0.1-0.5-0.3-0.7c-0.2-0.1-0.7-0.3-1.4-0.5s-1.3-0.4-1.6-0.7c-0.4-0.3-0.5-0.8-0.5-1.5
			c0-0.7,0.2-1.2,0.7-1.5c0.4-0.3,1.1-0.5,1.8-0.5c0.6,0,1.2,0.1,2,0.2l0.4,0.1l-0.1,1C857.6,3.4,856.9,3.3,856.4,3.3z"/>
		<path class="st2" d="M860.2,9.9V2.4h4.8v1.1h-3.5v2.1h2.9v1.1h-2.9v2.2h3.5v1.1H860.2z"/>
		<path class="st2" d="M866.3,9.9V2.4h2.1l2.3,6.5h0.2V2.4h1.2v7.5H870l-2.3-6.5h-0.2v6.5H866.3z M870.6,1.1
			c-0.2,0.1-0.4,0.2-0.6,0.2c-0.2,0-0.5-0.1-1-0.3c-0.5-0.2-0.7-0.3-0.8-0.3c-0.2,0-0.4,0.1-0.7,0.4l-0.1,0.1l-0.3-0.9
			c0-0.1,0.1-0.1,0.2-0.2c0.1-0.1,0.2-0.2,0.4-0.3s0.4-0.2,0.6-0.2c0.2,0,0.5,0.1,1,0.3c0.5,0.2,0.7,0.3,0.8,0.3
			c0.2,0,0.4-0.1,0.7-0.4l0.1-0.1l0.3,0.9C871,0.8,870.9,1,870.6,1.1z"/>
		<path class="st2" d="M878.9,9.1c-0.5,0.6-1.2,0.9-2.4,0.9c-1.1,0-1.9-0.3-2.4-0.9c-0.5-0.6-0.7-1.6-0.7-2.9c0-1.3,0.2-2.3,0.7-3
			c0.5-0.6,1.3-1,2.4-1c1.1,0,1.9,0.3,2.4,1s0.7,1.6,0.7,3C879.6,7.5,879.4,8.5,878.9,9.1z M875.1,8.3c0.2,0.4,0.7,0.6,1.4,0.6
			s1.2-0.2,1.4-0.6c0.2-0.4,0.4-1.1,0.4-2.1S878.2,4.5,878,4c-0.3-0.5-0.7-0.7-1.4-0.7c-0.7,0-1.2,0.2-1.4,0.7
			c-0.3,0.5-0.4,1.2-0.4,2.2S874.9,7.9,875.1,8.3z"/>
	</g>
	<g>
		<g>
			<path class="st2" d="M841.7-37.7L841.7-37.7C841.7-37.7,841.7-37.7,841.7-37.7L841.7-37.7l9.5,9.1v23.9h25.4v-35.5h-25.4v4.1
				l-5.8-5.5l0,0c-0.2-0.1-1.3-0.5-2.8,1.1C841.1-38.9,841.6-37.9,841.7-37.7L841.7-37.7z M868-15.6h5.4v7.6H868V-15.6z M868-29.9
				h1.5h0.8h2.1h0.9h0.1v13.7H868L868-29.9L868-29.9z M868-37.1h0.9v6.5H868V-37.1z M870.9-37.1h0.9v6.5h-0.9V-37.1z M873.5-30.6
				h-0.1h-0.9v-6.5h1L873.5-30.6L873.5-30.6z M870.3-30.6h-0.8v-6.5h0.8V-30.6z M867.4-30.6h-0.8v-6.5h0.8V-30.6z M865.1-37.1h0.9
				v6.5h-0.9V-37.1z M854.3-37.1h10.1v6.5h-3.3v0.6h3.3h2.1h0.8v13.7v0.6v7.6h-4.2v-1.5H862v1.5h-7.6v-11.7h1v-1.3h-1v-4.7l0.6,0.5
				c0.1-0.7,0.6-1.6,1.3-2.3c0.8-0.9,1.7-1.5,2.4-1.7l-4.2-4L854.3-37.1L854.3-37.1z"/>
			<path class="st2" d="M856.5-27.2c-0.9,1-1.2,1.9-1.2,2.4c0,0.1,0.3,0.3,0.4,0.3h0l0.7,0.1l0.5,0.1l2.5,0.3c0,0,0,0,0,0
				c0-0.2,0.1-0.4,0.2-0.6c0.1-0.1,0.3-0.3,0.5-0.3l-0.7-2.4l-0.2-0.5l-0.2-0.6c0-0.1-0.2-0.3-0.2-0.3
				C858.4-28.8,857.4-28.3,856.5-27.2z M858.5-28.1l0.1,0.4l0.1,0.5l0.5,1.9c-0.1,0.1-0.2,0.2-0.3,0.2c-0.1,0.1-0.2,0.2-0.2,0.3
				l-1.9-0.2l-0.5-0.1l-0.5-0.1c0.1-0.4,0.4-1,1-1.7C857.6-27.5,858.1-27.9,858.5-28.1z"/>
			<path class="st2" d="M859.7-24L859.7-24l0.6,0.5c0,0,0.2,0.1,0.3,0.1c0.1,0,0.2,0,0.2-0.1c0.1-0.1,0-0.4-0.1-0.5l-0.6-0.5
				c0,0,0,0-0.1,0c0,0,0,0,0,0c-0.1,0-0.2,0.1-0.3,0.2C859.7-24.2,859.7-24.1,859.7-24z"/>
			<polygon class="st2" points="862,-18.9 863.2,-18.9 863.2,-20.9 861.1,-20.9 861.1,-19.7 862,-19.7 			"/>
			<rect x="857.3" y="-20.9" class="st2" width="1.8" height="1.3"/>
			<rect x="862" y="-17" class="st2" width="1.3" height="1.8"/>
			<rect x="862" y="-13.2" class="st2" width="1.3" height="1.8"/>
		</g>
	</g>
</g>
<g>
	<circle class="st3" cx="1471.8" cy="-12.9" r="54.6"/>
	<g class="st1">
		<path class="st2" d="M1439.3,9.4l-4.2,0l0-7.5l1.2,0l0,6.4l3,0L1439.3,9.4z"/>
		<path class="st2" d="M1439.7,9.4l1.9-7.5l2.4,0l1.9,7.5l-1.2,0l-0.4-1.6l-2.9,0l-0.4,1.6L1439.7,9.4z M1442.5,2.9l-0.9,3.8l2.4,0
			l-0.9-3.8L1442.5,2.9z"/>
		<path class="st2" d="M1446.9,9.4l0-7.5l2.1,0l2.3,6.5h0.2l0-6.5l1.2,0l0,7.5l-2.1,0l-2.3-6.5h-0.2l0,6.5L1446.9,9.4z"/>
		<path class="st2" d="M1454.1,2.9l0-1.1l4.9,0l0,1.2l-3.5,5.1v0.2l3.5,0l0,1.1l-4.9,0l0-1.2l3.5-5.1V2.9L1454.1,2.9z"/>
		<path class="st2" d="M1459.7,9.4l1.9-7.5l2.4,0l1.9,7.5l-1.2,0l-0.4-1.6l-2.9,0l-0.4,1.6L1459.7,9.4z M1462.5,2.9l-0.9,3.8l2.4,0
			l-0.9-3.8L1462.5,2.9z"/>
		<path class="st2" d="M1466.9,9.4l0-7.5l2.1,0l1.7,5.9l1.7-5.9l2.1,0l0,7.5l-1.2,0l0-6.2l-0.2,0l-1.8,5.9l-1.3,0l-1.8-5.9h-0.2
			l0,6.2L1466.9,9.4z"/>
		<path class="st2" d="M1476.3,9.4l0-7.5l1.2,0l0,7.5L1476.3,9.4z"/>
		<path class="st2" d="M1479.2,9.4l0-7.5l4.8,0l0,1.1l-3.5,0l0,2.1l2.9,0l0,1.1l-2.9,0l0,2.2l3.5,0l0,1.1L1479.2,9.4z"/>
		<path class="st2" d="M1485.3,9.5l0-7.5l2.1,0l2.3,6.5l0.2,0l0-6.5l1.2,0l0,7.5l-2.1,0l-2.3-6.5h-0.2l0,6.5L1485.3,9.5z"/>
		<path class="st2" d="M1492.2,3l0-1.1l5.5,0l0,1.1l-2.1,0l0,6.4l-1.2,0l0-6.4L1492.2,3z"/>
		<path class="st2" d="M1503.6,8.7c-0.5,0.6-1.2,0.9-2.4,0.9c-1.1,0-1.9-0.3-2.4-0.9c-0.5-0.6-0.7-1.6-0.7-2.9c0-1.3,0.2-2.3,0.7-3
			c0.5-0.6,1.3-1,2.4-1c1.1,0,1.9,0.3,2.4,1c0.5,0.6,0.7,1.6,0.7,3C1504.3,7.1,1504.1,8.1,1503.6,8.7z M1499.8,7.9
			c0.2,0.4,0.7,0.6,1.4,0.7c0.7,0,1.2-0.2,1.4-0.6c0.2-0.4,0.4-1.1,0.4-2.1c0-1-0.1-1.7-0.4-2.2c-0.3-0.5-0.7-0.7-1.4-0.7
			c-0.7,0-1.2,0.2-1.4,0.7s-0.4,1.2-0.4,2.2S1499.6,7.5,1499.8,7.9z"/>
	</g>
	<g>
		<path class="st2" d="M1456-19.6c2.9-4.1,4.5-6.7,5.8-8.7c-4.7,0.4-9.2,6.2-9.2,6.2l3.1,3.1C1455.7-19.2,1455.8-19.4,1456-19.6z"/>
		<path class="st2" d="M1468.1-6.5l3.1,3.1c0,0,5.9-4.5,6.3-9.2c-2,1.2-4.6,2.9-8.7,5.7C1468.5-6.7,1468.3-6.6,1468.1-6.5z"/>
		<path class="st2" d="M1463.4-8.1c-0.5,0.2-1.1,0.4-1.6,0.6c-1.5,0.5-3,0.8-4.5,1c-0.6,0.1-1.3,0.2-1.9,0.2c0-0.1,0-0.2,0-0.2
			c0.1-1.6,0.4-3.1,0.8-4.6c0.2-0.7,0.4-1.4,0.7-2.1c0.2-0.4,0.4-0.9,0.6-1.3l-0.3-0.3c-0.8,0.5-1.4,1.2-2,1.9
			c-0.8,1.1-1.5,2.3-1.9,3.6c-0.5,1.4-0.8,2.8-0.8,4.3c0,0.2,0,0.4,0,0.6c0,0.3,0.2,0.5,0.3,0.7c0.2,0.2,0.4,0.4,0.6,0.4
			c0.2,0.1,0.4,0.1,0.6,0.1c1.3,0,2.7-0.2,3.9-0.6c2.3-0.7,4.7-2,6-4l-0.3-0.3C1463.5-8.2,1463.4-8.1,1463.4-8.1z"/>
		<path class="st2" d="M1489.3-40L1489.3-40c-0.2-0.2-0.6-0.4-0.9-0.4c0,0,0,0,0,0c-4.1,0.1-14.4,0.8-19.8,6.2
			c-2.5,2.5-3.3,3.7-5,6.6c-1.3,2-3,4.8-6.2,9.3c-0.4,0.5-0.3,1.2,0.1,1.6l8.3,8.3c0.2,0.2,0.6,0.4,0.9,0.4c0.3,0,0.5-0.1,0.7-0.2
			c4.6-3.2,7.3-4.9,9.4-6.1c2.8-1.8,4.1-2.5,6.6-5c5.5-5.4,6.2-15.6,6.3-19.8C1489.6-39.4,1489.5-39.8,1489.3-40z M1479.6-24.4
			c-1.7,1.7-4.4,1.7-6.1,0c-1.7-1.7-1.7-4.4,0-6.1c1.7-1.7,4.4-1.7,6.1,0C1481.3-28.8,1481.3-26,1479.6-24.4z"/>
	</g>
</g>
<g>
	<circle class="st4" cx="1269.1" cy="-11.2" r="54.6"/>
	<g class="st1">
		<path class="st2" d="M1237.9,9.9l1.9-7.5l2.4,0l1.9,7.5l-1.2,0l-0.4-1.6l-2.9,0l-0.4,1.6L1237.9,9.9z M1240.8,3.4l-0.9,3.8l2.4,0
			l-0.9-3.8L1240.8,3.4z"/>
		<path class="st2" d="M1247.6,10.1c-1.1,0-1.8-0.3-2.2-0.9c-0.4-0.6-0.6-1.6-0.6-3c0-1.4,0.2-2.4,0.6-3c0.4-0.6,1.1-0.9,2.2-0.9
			c0.7,0,1.4,0.1,2.2,0.3l0,1c-0.7-0.1-1.3-0.2-2-0.2s-1.1,0.2-1.3,0.6c-0.2,0.4-0.4,1.1-0.4,2.2c0,1.1,0.1,1.8,0.3,2.2
			c0.2,0.4,0.7,0.6,1.3,0.6s1.3-0.1,2-0.2l0,1C1249,10,1248.3,10.1,1247.6,10.1z"/>
		<path class="st2" d="M1251.1,10l0-7.5l4.8,0l0,1.1l-3.5,0l0,2.1l2.9,0l0,1.1l-2.9,0l0,2.2l3.5,0l0,1.1L1251.1,10z"/>
		<path class="st2" d="M1259.9,7.6l-1.5,0l0,2.3l-1.2,0l0-7.5l2.8,0c1.7,0,2.6,0.8,2.6,2.5c0,0.9-0.2,1.5-0.6,2
			C1261.4,7.4,1260.8,7.6,1259.9,7.6z M1258.4,6.6l1.5,0c0.9,0,1.3-0.5,1.3-1.6c0-0.5-0.1-0.9-0.3-1.1c-0.2-0.2-0.5-0.4-1-0.4
			l-1.5,0L1258.4,6.6z"/>
		<path class="st2" d="M1262.9,3.5l0-1.1l5.5,0l0,1.1l-2.1,0l0,6.4l-1.2,0l0-6.4L1262.9,3.5z"/>
		<path class="st2" d="M1268.3,10l1.9-7.5l2.4,0l1.9,7.5l-1.2,0l-0.4-1.6l-2.9,0l-0.4,1.6L1268.3,10z M1271.1,3.5l-0.9,3.8l2.4,0
			l-0.9-3.8L1271.1,3.5z"/>
		<path class="st2" d="M1278,10.1c-1.1,0-1.8-0.3-2.2-0.9c-0.4-0.6-0.6-1.6-0.6-3c0-1.4,0.2-2.4,0.6-3c0.4-0.6,1.1-0.9,2.2-0.9
			c0.7,0,1.4,0.1,2.2,0.3l0,1c-0.7-0.1-1.3-0.2-2-0.2c-0.7,0-1.1,0.2-1.3,0.6c-0.2,0.4-0.4,1.1-0.4,2.2c0,1.1,0.1,1.8,0.3,2.2
			c0.2,0.4,0.7,0.6,1.3,0.6c0.7,0,1.3-0.1,2-0.2l0,1C1279.4,10.1,1278.7,10.1,1278,10.1z"/>
		<path class="st2" d="M1281.4,10l0-7.5l1.2,0l0,7.5L1281.4,10z"/>
		<path class="st2" d="M1289.5,9.2c-0.5,0.6-1.2,0.9-2.4,0.9c-1.1,0-1.9-0.3-2.4-0.9c-0.5-0.6-0.7-1.6-0.7-2.9c0-1.3,0.2-2.3,0.7-3
			c0.5-0.6,1.3-1,2.4-1c1.1,0,1.9,0.3,2.4,1c0.5,0.6,0.7,1.6,0.7,3C1290.2,7.6,1290,8.6,1289.5,9.2z M1285.7,8.4
			c0.2,0.4,0.7,0.6,1.4,0.7c0.7,0,1.2-0.2,1.4-0.6c0.2-0.4,0.4-1.1,0.4-2.1c0-1-0.1-1.7-0.4-2.2c-0.3-0.5-0.7-0.7-1.4-0.7
			c-0.7,0-1.2,0.2-1.4,0.7c-0.3,0.5-0.4,1.2-0.4,2.2S1285.5,8,1285.7,8.4z M1285.5,0.8l2.6-1.1l0.4,1.1l-2.7,0.9L1285.5,0.8z"/>
		<path class="st2" d="M1291.6,10l0-7.5l2.1,0L1296,9h0.2l0-6.5l1.2,0l0,7.5l-2.1,0l-2.3-6.5l-0.2,0l0,6.5L1291.6,10z"/>
	</g>
	<g>
		<g>
			<path class="st2" d="M1278.3-43.7l-5.1,0l0-0.9c0-1-0.8-1.8-1.8-1.8l-4.1,0c-1,0-1.8,0.8-1.8,1.8l0,0.9l-5.1,0
				c-2.3,0-4.2,1.9-4.2,4.2l-0.1,27.3c0,2.3,1.9,4.2,4.2,4.2l18,0c2.3,0,4.2-1.9,4.2-4.2l0.1-27.3
				C1282.5-41.8,1280.6-43.7,1278.3-43.7z M1269.3-45.6c0.5,0,0.9,0.4,0.9,0.9c0,0.5-0.4,0.9-0.9,0.9c-0.5,0-0.9-0.4-0.9-0.9
				C1268.4-45.2,1268.8-45.6,1269.3-45.6z M1264.4-41.2l9.8,0l0,3.8l-9.8,0L1264.4-41.2z M1278.2-10.4l-18,0c-1,0-1.8-0.8-1.8-1.8
				l0.1-27.3c0-1,0.8-1.8,1.8-1.8l1.7,0l0,4.3c0,1.2,0.9,2.1,2.1,2.1l10.4,0c1.1,0,2.1-0.9,2.1-2.1l0-4.3l1.7,0c1,0,1.8,0.8,1.8,1.8
				l-0.1,27.3h0C1280-11.2,1279.2-10.4,1278.2-10.4z"/>
			<path class="st2" d="M1265.1-30.9l-0.4,0.5c-0.1-0.4-0.5-0.6-0.9-0.6l-2.8,0c-0.5,0-1,0.4-1,1l0,3.1c0,0.5,0.4,1,1,1l2.8,0
				c0.5,0,1-0.4,1-1l0-1.6l1.3-1.5c0.2-0.3,0.2-0.6-0.1-0.8C1265.7-31.2,1265.4-31.2,1265.1-30.9z M1264.1-27L1264.1-27
				c0,0.2-0.1,0.3-0.3,0.3l-2.8,0c-0.2,0-0.3-0.1-0.3-0.3l0-3.1c0-0.2,0.1-0.3,0.3-0.3l2.8,0c0.2,0,0.3,0.1,0.3,0.3l0,0.3l-0.8,1
				c-0.2,0.3-0.6,0.3-0.8,0l-0.5-0.5c-0.2-0.2-0.6-0.2-0.8,0s-0.2,0.6,0,0.9l1.4,1.3c0.1,0.1,0.3,0.2,0.4,0.2c0,0,0,0,0,0
				c0.2,0,0.3-0.1,0.4-0.2l0.7-0.8L1264.1-27z"/>
			<path class="st2" d="M1265.1-24.4l-0.5,0.6c-0.2-0.3-0.5-0.5-0.9-0.5l-2.8,0c-0.5,0-1,0.4-1,1l0,3.1c0,0.5,0.4,1,1,1l2.8,0
				c0.5,0,1-0.4,1-1l0-1.8l1.3-1.5c0.2-0.3,0.2-0.6-0.1-0.8C1265.7-24.7,1265.3-24.7,1265.1-24.4z M1264.1-20.3L1264.1-20.3
				c0,0.2-0.1,0.3-0.3,0.3l-2.8,0c-0.2,0-0.3-0.1-0.3-0.3l0-3.1c0-0.2,0.1-0.3,0.3-0.3l2.8,0c0.2,0,0.3,0.1,0.3,0.3l0,0.2l-0.8,1
				c-0.2,0.3-0.6,0.3-0.8,0l-0.5-0.5c-0.2-0.2-0.6-0.2-0.8,0c-0.2,0.2-0.2,0.6,0,0.8l1.4,1.3c0.1,0.1,0.3,0.2,0.4,0.2c0,0,0,0,0,0
				c0.2,0,0.3-0.1,0.4-0.2l0.7-0.8L1264.1-20.3z"/>
			<path class="st2" d="M1265.1-17.9l-0.5,0.6c-0.2-0.3-0.5-0.5-0.8-0.5l-2.8,0c-0.5,0-1,0.4-1,1l0,3.1c0,0.5,0.4,1,1,1l2.8,0
				c0.5,0,1-0.4,1-1l0-1.8l1.3-1.5c0.2-0.3,0.2-0.6-0.1-0.8C1265.7-18.1,1265.3-18.1,1265.1-17.9z M1264.1-13.7L1264.1-13.7
				c0,0.2-0.1,0.3-0.3,0.3l-2.8,0c-0.2,0-0.3-0.1-0.3-0.3l0-3.1c0-0.2,0.1-0.3,0.3-0.3l2.8,0c0.2,0,0.3,0.1,0.3,0.3v0.1l-0.8,1
				c-0.2,0.3-0.6,0.3-0.8,0l-0.5-0.5c-0.2-0.2-0.6-0.2-0.8,0c-0.2,0.2-0.2,0.6,0,0.8l1.4,1.3c0.1,0.1,0.3,0.2,0.4,0.2c0,0,0,0,0,0
				c0.2,0,0.3-0.1,0.4-0.2l0.7-0.8L1264.1-13.7z"/>
			<path class="st2" d="M1278.1-28.9l-9.7,0c-0.3,0-0.6,0.3-0.6,0.6c0,0.3,0.3,0.6,0.6,0.6l9.7,0c0.3,0,0.6-0.3,0.6-0.6
				C1278.7-28.7,1278.4-28.9,1278.1-28.9z"/>
			<path class="st2" d="M1278.1-23l-9.7,0c-0.3,0-0.6,0.3-0.6,0.6c0,0.3,0.3,0.6,0.6,0.6l9.7,0c0.3,0,0.6-0.3,0.6-0.6
				C1278.7-22.8,1278.4-23,1278.1-23z"/>
			<path class="st2" d="M1278.1-17.2l-9.7,0c-0.3,0-0.6,0.3-0.6,0.6c0,0.3,0.3,0.6,0.6,0.6l9.7,0c0.3,0,0.6-0.3,0.6-0.6
				C1278.7-16.9,1278.4-17.2,1278.1-17.2z"/>
		</g>
	</g>
</g>
<g>
	<circle class="st5" cx="1066.4" cy="-13.1" r="54.6"/>
	<g class="st1">
		<path class="st2" d="M1020.2,10V2.5h1.2V10H1020.2z"/>
		<path class="st2" d="M1023.1,10V2.5h2.1l1.7,5.9l1.7-5.9h2.1V10h-1.2V3.8h-0.2l-1.8,5.9h-1.3l-1.8-5.9h-0.2V10H1023.1z"/>
		<path class="st2" d="M1035.2,7.7h-1.5V10h-1.2V2.5h2.8c1.7,0,2.6,0.8,2.6,2.5c0,0.9-0.2,1.5-0.6,2
			C1036.7,7.4,1036.1,7.7,1035.2,7.7z M1033.7,6.6h1.5c0.9,0,1.3-0.5,1.3-1.6c0-0.5-0.1-0.9-0.3-1.1c-0.2-0.2-0.5-0.4-1-0.4h-1.5
			L1033.7,6.6L1033.7,6.6z"/>
		<path class="st2" d="M1043.2,10h-4.2V2.5h1.2v6.4h3V10z"/>
		<path class="st2" d="M1044.2,10V2.5h4.8v1.1h-3.5v2.1h2.9v1.1h-2.9v2.2h3.5V10H1044.2z"/>
		<path class="st2" d="M1050.3,10V2.5h2.1l1.7,5.9l1.7-5.9h2.1V10h-1.2V3.8h-0.2l-1.8,5.9h-1.3l-1.8-5.9h-0.2V10H1050.3z"/>
		<path class="st2" d="M1059.6,10V2.5h4.8v1.1h-3.5v2.1h2.9v1.1h-2.9v2.2h3.5V10H1059.6z"/>
		<path class="st2" d="M1065.7,10V2.5h2.1l2.3,6.5h0.2V2.5h1.2V10h-2.1l-2.3-6.5h-0.2V10H1065.7z"/>
		<path class="st2" d="M1072.5,3.6V2.5h5.5v1.1h-2.1V10h-1.2V3.6H1072.5z"/>
		<path class="st2" d="M1078,10l1.9-7.5h2.4l1.9,7.5h-1.2l-0.4-1.6h-2.9l-0.4,1.6H1078z M1080.8,3.5l-0.9,3.8h2.4l-0.9-3.8H1080.8z"
			/>
		<path class="st2" d="M1087.6,10.1c-1.1,0-1.8-0.3-2.2-0.9c-0.4-0.6-0.6-1.6-0.6-3s0.2-2.4,0.6-3c0.4-0.6,1.1-0.9,2.2-0.9
			c0.7,0,1.4,0.1,2.2,0.3l0,1c-0.7-0.1-1.3-0.2-2-0.2c-0.7,0-1.1,0.2-1.3,0.6s-0.4,1.1-0.4,2.2c0,1.1,0.1,1.8,0.3,2.2
			c0.2,0.4,0.7,0.6,1.3,0.6c0.7,0,1.3-0.1,2-0.2l0,1C1089,10,1088.3,10.1,1087.6,10.1z"/>
		<path class="st2" d="M1091.1,10V2.5h1.2V10H1091.1z"/>
		<path class="st2" d="M1099.2,9.2c-0.5,0.6-1.2,0.9-2.4,0.9s-1.9-0.3-2.4-0.9c-0.5-0.6-0.7-1.6-0.7-2.9c0-1.3,0.2-2.3,0.7-3
			c0.5-0.6,1.3-1,2.4-1c1.1,0,1.9,0.3,2.4,1c0.5,0.6,0.7,1.6,0.7,3C1099.8,7.6,1099.6,8.6,1099.2,9.2z M1095.3,8.4
			c0.2,0.4,0.7,0.6,1.4,0.6c0.7,0,1.2-0.2,1.4-0.6c0.2-0.4,0.4-1.1,0.4-2.1s-0.1-1.7-0.4-2.2c-0.3-0.5-0.7-0.7-1.4-0.7
			s-1.2,0.2-1.4,0.7c-0.3,0.5-0.4,1.2-0.4,2.2S1095.1,8,1095.3,8.4z M1095.2,0.8l2.6-1.1l0.4,1.1l-2.7,0.9L1095.2,0.8z"/>
		<path class="st2" d="M1101.2,10V2.5h2.1l2.3,6.5h0.2V2.5h1.2V10h-2.1l-2.3-6.5h-0.2V10H1101.2z"/>
	</g>
	<g>
		<g>
			<g>
				<path class="st2" d="M1073.1-25.5l2.4-2.4l-2.5-2.4l-2.4,2.4c-1-0.7-2.2-1.2-3.4-1.4v-3.4h-3.5v3.4c-1.2,0.2-2.4,0.7-3.4,1.4
					l-2.4-2.4l-2.4,2.4l2.4,2.4c-0.7,1-1.1,2.1-1.4,3.4h-3.4v3.5h3.4c0.2,1.2,0.7,2.4,1.4,3.4l-2.4,2.4l2.4,2.4l2.4-2.4
					c1,0.7,2.1,1.2,3.4,1.4V-8h3.5v-3.4c1.2-0.2,2.4-0.7,3.4-1.4l2.4,2.4l2.5-2.4l-2.4-2.4c0.7-1,1.2-2.1,1.4-3.4h3.4v-3.5h-3.4
					C1074.3-23.4,1073.8-24.5,1073.1-25.5z M1065.6-16.6c-2.1,0-3.8-1.7-3.8-3.8c0-2.1,1.7-3.8,3.8-3.8c2.1,0,3.8,1.7,3.8,3.8
					C1069.4-18.3,1067.7-16.6,1065.6-16.6z"/>
				<path class="st2" d="M1076.5-37.1c-3-1.9-6.6-3.1-10.5-3.1c-10.8,0-19.5,8.7-19.5,19.5c0,4.5,1.5,8.6,4.1,11.9l2.4-2.4
					c-1.9-2.7-3.1-5.9-3.1-9.5c0-8.9,7.2-16.1,16.1-16.1c3,0,5.7,0.9,8.1,2.3l-1.9,2l7.6,0.7l-0.8-8L1076.5-37.1z"/>
				<polygon class="st2" points="1091.4,-20.3 1086.6,-25.1 1086.6,-22.4 1080.3,-22.4 1080.3,-18.2 1086.6,-18.2 1086.6,-15.6 				
					"/>
			</g>
		</g>
	</g>
</g>
<g>
	<circle class="st6" cx="660.9" cy="-19.6" r="54.6"/>
	<g class="st1">
		<path class="st2" d="M638.2,10l1.9-7.5h2.4l1.9,7.5h-1.2l-0.4-1.6h-2.9l-0.4,1.6H638.2z M641,3.5l-0.9,3.8h2.4l-0.9-3.8H641z"/>
		<path class="st2" d="M645.5,10V2.5h2.1l2.3,6.5h0.2V2.5h1.2V10h-2.1l-2.3-6.5h-0.2V10H645.5z"/>
		<path class="st2" d="M652.4,10l1.9-7.5h2.4l1.9,7.5h-1.2l-0.4-1.6H654l-0.4,1.6H652.4z M654,0.8l2.6-1.1l0.4,1.1l-2.7,0.9L654,0.8
			z M655.2,3.5l-0.9,3.8h2.4l-0.9-3.8H655.2z"/>
		<path class="st2" d="M663.8,10h-4.2V2.5h1.2v6.4h3V10z"/>
		<path class="st2" d="M664.8,10V2.5h1.2V10H664.8z"/>
		<path class="st2" d="M670,3.4c-0.9,0-1.4,0.3-1.4,1c0,0.3,0.1,0.6,0.3,0.7c0.2,0.1,0.7,0.3,1.5,0.5c0.8,0.2,1.3,0.5,1.6,0.7
			s0.5,0.7,0.5,1.4c0,0.8-0.2,1.4-0.7,1.8c-0.5,0.4-1.1,0.6-1.8,0.6c-0.6,0-1.3-0.1-2.1-0.2l-0.4-0.1l0.1-1c1,0.1,1.7,0.2,2.3,0.2
			c0.9,0,1.4-0.4,1.4-1.2c0-0.3-0.1-0.5-0.3-0.7c-0.2-0.1-0.7-0.3-1.4-0.5s-1.3-0.4-1.6-0.7c-0.4-0.3-0.5-0.8-0.5-1.5
			c0-0.7,0.2-1.2,0.7-1.5c0.4-0.3,1.1-0.5,1.8-0.5c0.6,0,1.2,0.1,2,0.2l0.4,0.1l-0.1,1C671.1,3.5,670.4,3.4,670,3.4z"/>
		<path class="st2" d="M673.7,10V2.5h1.2V10H673.7z"/>
		<path class="st2" d="M678.9,3.4c-0.9,0-1.4,0.3-1.4,1c0,0.3,0.1,0.6,0.3,0.7c0.2,0.1,0.7,0.3,1.5,0.5c0.8,0.2,1.3,0.5,1.6,0.7
			c0.3,0.3,0.5,0.7,0.5,1.4c0,0.8-0.2,1.4-0.7,1.8c-0.5,0.4-1.1,0.6-1.8,0.6c-0.6,0-1.3-0.1-2.1-0.2l-0.4-0.1l0.1-1
			c1,0.1,1.7,0.2,2.3,0.2c0.9,0,1.4-0.4,1.4-1.2c0-0.3-0.1-0.5-0.3-0.7c-0.2-0.1-0.7-0.3-1.4-0.5s-1.3-0.4-1.6-0.7
			c-0.4-0.3-0.5-0.8-0.5-1.5c0-0.7,0.2-1.2,0.7-1.5s1.1-0.5,1.8-0.5c0.6,0,1.2,0.1,2,0.2l0.4,0.1l-0.1,1
			C680.1,3.5,679.3,3.4,678.9,3.4z"/>
	</g>
	<g>
		<path class="st2" d="M669.2-39.2l1.3,2.9l-1.6,0.2l-0.2-2.1l-0.6,1.5l-2.4-1.1l-0.2-2.5c0,0,1.9-0.1,1.9,0.1
			c0,0.1,0.2,2.6,0.2,2.6l0.6-2.1L669.2-39.2z M665.1-38.3l-0.1-1.8l-1.7,2.9l0.6,1.4L665.1-38.3z M666.4-29l-1.3-2.1l-0.1-2.6l-1,0
			l-0.4,1.8l-0.6-0.1l0.3-1.4l0.6-2.2l-0.5-0.8l-1.3,0.1l-0.7,1.4l-0.2,2.4l0.1,0.8l0.4,1l0.2,0l1.5,0.6l0.9-1l0.1,2.5l-1-1l0.1,1.3
			l0.7,1.6l-0.8,1.2l0.2,2.5l2.1,0l-0.3-2.7l-0.6-0.2l-0.3,1l0-1.4l1.2,0.4l0.4,3.1l1.8-1.5l-1.7-2.2L666.4-29z M661.7-30.2
			l-0.5,0.8l0.4,3.4l1.5-0.2l-0.3-3.7L661.7-30.2z M668.6-29.9l-1.7,0.1l-0.2,0.8l1.6,1l2.8-0.2l0.1-2.2l-2.2-1.4L668.6-29.9z
			 M668.5-27.3l-0.8-0.6l-1,0.1l0.1,1.2l1.7,2l1.8-2.3l-0.5-0.5L668.5-27.3z M665.6-33.5l0.4,2.6l1.1,0.3l1.2-0.1l0.4-2.1l0.9,0.6
			l1.2,0.7l0.4-1.4l-0.2-2.8l-2.3,0.2l-1,2.3l-0.3-0.6l0.5-2.3l-0.7-0.3l-0.3,0.6l-0.6-0.1l0.2-1.1l-1.2-0.6l-1,1.9l0.6,1.3l1.4,0.4
			l-0.2,0.5L665.6-33.5z M652.6-35.9l0.2-2.1l0.6,1.5l2.4-1.1l0.2-2.5c0,0-1.9-0.1-1.9,0.1c0,0.1-0.2,2.6-0.2,2.6l-0.6-2.1l-1,0.5
			l-1.3,2.9L652.6-35.9z M659.1-40.7l0.9-1.9l0.1,1.6l2.6-0.2l1-2.3c0,0-1.8-0.7-1.8-0.6c-0.1,0.1-1.1,2.4-1.1,2.4l0.1-2.2l-1.1,0.2
			l-2.2,2.3L659.1-40.7z M658.2-37.1l-1.7-2.9l-0.1,1.8l1.2,2.5L658.2-37.1z M655.8-40.6l2.2-1.7l-1.5,0.1l-1.9,1.3L655.8-40.6z
			 M665.6-40.6l1.2-0.4l-1.9-1.3l-1.5-0.1L665.6-40.6z M656.3-25.7l-0.3,2.7l2.1,0l0.2-2.5l-0.8-1.2l0.7-1.6l0.1-1.3l-1,1l0.1-2.5
			l0.9,1l1.5-0.6l-0.1,0l0.5-0.7l0.2-0.9l-0.2-2.5l-0.8-1.4l-1.3-0.1l-0.5,0.8l0.6,2.2l0.3,1.4l-0.6,0.1l-0.4-1.8l-1,0l-0.1,2.6
			l-1.3,2.1l0.4,2.3l-1.7,2.2l1.8,1.5l0.4-3.1l1.2-0.4l0,1.4l-0.3-1L656.3-25.7z M659.8-30l-1,0.4l-0.3,3.7l1.5,0.1l0.6-3.8
			L659.8-30z M654.7-28.9l-0.2-0.8l-1.7-0.1l-0.4-1.9l-2.2,1.4l0.1,2.2l2.8,0.2L654.7-28.9z M659.1-38l0.7,1.6l0.5-0.5l-0.4-3.3
			l-2.2-0.4l-0.5,0.8l1.2,2.6L659.1-38z M661.4-40.4l-0.4,3.3l0.5,0.5l0.7-1.6l0.6,0.7l1.2-2.6l-0.5-0.8L661.4-40.4z M654.8-27.6
			l-1-0.1l-0.8,0.6l-1.3-0.2l-0.5,0.5l1.8,2.3l1.7-2L654.8-27.6z M658.7-23.8l-0.2,1.1l-1,0.9l0,0.8l2.7,0l-0.1-2.8l-0.7-0.9
			L658.7-23.8z M662-24.6l-0.7,0.9l-0.1,2.8l2.7,0l0-0.8l-1-0.9l-0.2-1.1L662-24.6z M657.2-35.4l-1-1.9l-1.2,0.6l0.2,1.1l-0.6,0.1
			l-0.3-0.6l-0.7,0.3l0.5,2.3l-0.3,0.6l-1-2.3l-2.3-0.2l-0.2,2.8l0.4,1.4l1.2-0.7l0.9-0.6l0.4,2.1l1.2,0.1l1.1-0.3l0.4-2.6l-0.4,0
			l-0.2-0.5l1.4-0.3L657.2-35.4z M663-19.4L663-19.4c-0.1,0-0.4,0-0.7,0l0,0l0.1-1h-0.7l-0.1,1.1l-0.9,0.1l-0.2,0l-0.2-1.2h-0.7
			l0.2,1.3l-0.8,0.1c-0.1,0-0.2,0-0.4,0v-1.3H657v1.5c0,0.6,0.2,0.9,0.4,1.1v1l6.7-0.7l0-0.8l0.3-0.2v-1.9H663L663-19.4L663-19.4
			L663-19.4z M657.5-15.7L657.5-15.7c-0.1,0.3,0,0.6,0.1,0.8l0.1,0.3l6.2-0.7l0.3-0.1l0-0.3c0-0.1,0-0.3,0-0.9V-17l-6.7,0.7
			L657.5-15.7L657.5-15.7z M658.1-13.6c0.6,0.7,1.5,1,2.8,1h0c2.1,0,2.9-0.9,3.1-1.7l0.1-0.5l-6.5,0.7L658.1-13.6z M661.4-52.4h-1.3
			v6.9h1.3V-52.4z M669.3-51.2l-1.2-0.5l-2.6,6.4l1.2,0.5L669.3-51.2z M675.2-47.7l-4.9,4.9l0.9,0.9l4.9-4.9L675.2-47.7z
			 M679.7-41.3l-6.5,2.4l0.4,1.2l6.5-2.4L679.7-41.3z M674-34.1l-0.3,1.3l6.8,1.4l0.3-1.3L674-34.1z M656.3-44.8l-2.6-6.4l-1.2,0.5
			l2.6,6.4L656.3-44.8z M651.5-42.3l-4.9-4.9l-0.9,0.9l4.9,4.9L651.5-42.3z M641.7-39.6l6.5,2.4l0.4-1.2l-6.5-2.4L641.7-39.6z
			 M641.1-32.3l0.3,1.3l6.8-1.4l-0.3-1.3L641.1-32.3z"/>
	</g>
</g>
<g>
	<g>
		
			<linearGradient id="SVGID_1_" gradientUnits="userSpaceOnUse" x1="341.3459" y1="-362.3661" x2="1308.3499" y2="-362.3661" gradientTransform="matrix(1 0 0 1 244 426.5381)">
			<stop  offset="0" style="stop-color:#91A7B3"/>
			<stop  offset="1" style="stop-color:#892C2D"/>
		</linearGradient>
		<polyline class="st7" points="1535,-14.9 1551.8,-14.8 1551.8,143.3 585.8,143.3 585.8,-8.9 592.7,-8.3 		"/>
		<g>
			
				<linearGradient id="SVGID_2_" gradientUnits="userSpaceOnUse" x1="341.3466" y1="-441.4796" x2="1308.3505" y2="-441.4796" gradientTransform="matrix(1 0 0 1 244 426.5381)">
				<stop  offset="0" style="stop-color:#91A7B3"/>
				<stop  offset="1" style="stop-color:#892C2D"/>
			</linearGradient>
			<polygon class="st8" points="1531.8,-11.7 1531.9,-18.3 1538.5,-18.2 1538.4,-11.6 			"/>
		</g>
		<g>
			
				<linearGradient id="SVGID_3_" gradientUnits="userSpaceOnUse" x1="341.3461" y1="-434.9481" x2="1308.35" y2="-434.9481" gradientTransform="matrix(1 0 0 1 244 426.5381)">
				<stop  offset="0" style="stop-color:#91A7B3"/>
				<stop  offset="1" style="stop-color:#892C2D"/>
			</linearGradient>
			<polygon class="st9" points="592.4,-14.8 595.8,-8 591.2,-2 591.2,-2 592.3,-14.8 			"/>
		</g>
	</g>
</g>
<g>
	<g>
		<path class="st10" d="M832.6-76.2c-40-41.4-105.4-45.3-150.1-8.6"/>
		<g>
			<path class="st11" d="M836.6-71.7c-1.2-2.8-2.2-6.6-2.3-9.5l-2.3,4.5l-4.7,2C830.2-74.4,833.9-73.1,836.6-71.7z"/>
		</g>
		<g>
			
				<rect x="679.3" y="-88.1" transform="matrix(-0.6367 -0.7711 0.7711 -0.6367 1182.6067 387.5463)" class="st11" width="6.6" height="6.6"/>
		</g>
	</g>
</g>
<g>
	<g>
		<path class="st10" d="M1030.6,45.5c-40,41.4-105.4,45.3-150.1,8.6"/>
		<g>
			<path class="st11" d="M1034.6,41.1c-2.7,1.4-6.4,2.7-9.3,3l4.7,2l2.3,4.5C1032.4,47.7,1033.5,43.9,1034.6,41.1z"/>
		</g>
		<g>
			
				<rect x="877.3" y="50.8" transform="matrix(0.6367 -0.7711 0.7711 0.6367 278.1724 698.6932)" class="st11" width="6.6" height="6.6"/>
		</g>
	</g>
</g>
<g>
	<g>
		<path class="st10" d="M1237.6-73.2c-40-41.4-105.4-45.3-150.1-8.6"/>
		<g>
			<path class="st11" d="M1241.6-68.7c-1.2-2.8-2.2-6.6-2.3-9.5l-2.3,4.5l-4.7,2C1235.2-71.4,1238.9-70.1,1241.6-68.7z"/>
		</g>
		<g>
			
				<rect x="1084.3" y="-85.1" transform="matrix(-0.6367 -0.7711 0.7711 -0.6367 1843.1589 704.7545)" class="st11" width="6.6" height="6.6"/>
		</g>
	</g>
</g>
<g>
	<g>
		<path class="st10" d="M1447.6,50.5c-40,41.4-105.4,45.3-150.1,8.6"/>
		<g>
			<path class="st11" d="M1451.6,46.1c-2.7,1.4-6.4,2.7-9.3,3l4.7,2l2.3,4.5C1449.4,52.7,1450.5,48.9,1451.6,46.1z"/>
		</g>
		<g>
			
				<rect x="1294.3" y="55.9" transform="matrix(0.6367 -0.7711 0.7711 0.6367 425.7977 1022.0757)" class="st11" width="6.6" height="6.6"/>
		</g>
	</g>
</g>
<path class="st10" d="M1551.8,4.8"/>
<rect x="997.3" y="123.2" class="st12" width="139" height="40"/>
<g class="st1">
	<path class="st13" d="M1018.1,148.2v-12.5h2.2l5.2,11.5h0.4v-11.5h1.1v12.5h-2.2l-5.3-11.5h-0.4v11.5H1018.1z"/>
	<path class="st13" d="M1035.6,139.2h1.1v9h-1.1v-0.7c-0.9,0.6-1.8,0.8-2.8,0.8c-1.2,0-2-0.3-2.4-0.9c-0.4-0.6-0.6-1.8-0.6-3.5v-4.7
		h1.1v4.7c0,1.4,0.1,2.3,0.4,2.8c0.3,0.5,0.8,0.7,1.7,0.7c0.4,0,0.9-0.1,1.3-0.2c0.4-0.1,0.8-0.3,1-0.4l0.3-0.2V139.2z"/>
	<path class="st13" d="M1045.3,147.3l0.5-0.1l0,0.9c-1.4,0.2-2.5,0.3-3.4,0.3c-1.3,0-2.2-0.4-2.7-1.2c-0.5-0.8-0.8-1.9-0.8-3.5
		c0-3.1,1.2-4.7,3.7-4.7c1.2,0,2.1,0.3,2.7,1c0.6,0.7,0.9,1.8,0.9,3.2l0,0.9h-6.1c0,1.1,0.2,1.9,0.6,2.5s1,0.8,1.9,0.8
		S1044.4,147.4,1045.3,147.3z M1040.1,143.2h5.1c0-1.2-0.2-2-0.6-2.5c-0.4-0.5-1-0.8-1.9-0.8s-1.5,0.3-2,0.8
		C1040.3,141.2,1040.1,142.1,1040.1,143.2z"/>
	<path class="st13" d="M1047.4,139.2h1.2l2.2,8.1h0.7l2.3-8.1h1.1l-2.6,9h-2.4L1047.4,139.2z"/>
	<path class="st13" d="M1056.4,143.7c0-1.7,0.3-2.9,0.9-3.6s1.5-1.1,2.9-1.1s2.3,0.4,2.9,1.1s0.9,1.9,0.9,3.6c0,1.7-0.3,2.9-0.8,3.6
		c-0.5,0.7-1.5,1.1-3,1.1c-1.5,0-2.5-0.4-3-1.1C1056.6,146.6,1056.4,145.4,1056.4,143.7z M1057.5,143.6c0,1.4,0.2,2.4,0.5,3
		s1,0.8,2.2,0.8c1.1,0,1.8-0.3,2.2-0.8c0.3-0.6,0.5-1.5,0.5-2.9s-0.2-2.4-0.6-2.9c-0.4-0.5-1.1-0.8-2.1-0.8c-1,0-1.7,0.3-2.1,0.8
		C1057.7,141.3,1057.5,142.2,1057.5,143.6z"/>
	<path class="st13" d="M1073.8,136.5c-1.9,0-2.9,0.7-2.9,2.2c0,0.9,0.2,1.4,0.7,1.7s1.3,0.6,2.6,0.8c1.3,0.3,2.2,0.6,2.7,1
		c0.5,0.4,0.8,1.2,0.8,2.2c0,1.3-0.3,2.3-1,2.9s-1.6,0.9-2.9,0.9c-0.9,0-2-0.1-3.3-0.3l-0.6-0.1l0.1-1c1.6,0.2,2.9,0.3,3.8,0.3
		c0.9,0,1.6-0.2,2.1-0.7c0.5-0.4,0.7-1.1,0.7-1.9c0-0.8-0.2-1.4-0.6-1.7c-0.4-0.3-1.1-0.5-2-0.7c-0.9-0.2-1.6-0.3-2-0.5
		c-0.4-0.1-0.8-0.3-1.2-0.6c-0.4-0.3-0.6-0.6-0.8-1c-0.2-0.4-0.2-0.9-0.2-1.5c0-2.2,1.3-3.3,4-3.3c0.8,0,1.8,0.1,3.1,0.3l0.6,0.1
		l-0.1,1C1075.7,136.6,1074.5,136.5,1073.8,136.5z"/>
	<path class="st13" d="M1079.9,152.2v-13h1.1v0.7c0.9-0.6,1.9-0.9,3-0.9s1.8,0.4,2.3,1.1c0.5,0.7,0.8,1.9,0.8,3.6
		c0,1.6-0.3,2.8-0.9,3.6c-0.6,0.7-1.6,1.1-3,1.1c-0.7,0-1.5-0.1-2.2-0.2v4.1L1079.9,152.2L1079.9,152.2z M1083.7,140
		c-0.4,0-0.8,0.1-1.3,0.2c-0.5,0.1-0.8,0.3-1.1,0.4l-0.4,0.2v6.4c0.8,0.1,1.5,0.2,2.1,0.2c1,0,1.8-0.3,2.2-0.9
		c0.4-0.6,0.6-1.5,0.6-2.9c0-1.3-0.2-2.3-0.5-2.8S1084.4,140,1083.7,140z"/>
	<path class="st13" d="M1089.3,148.2v-9h1.1v1.3c0.4-0.3,1-0.6,1.6-0.9c0.6-0.3,1.2-0.5,1.8-0.6v1.1c-0.5,0.1-1.1,0.3-1.6,0.5
		c-0.6,0.2-1,0.4-1.3,0.6l-0.5,0.3v6.8L1089.3,148.2L1089.3,148.2z"/>
	<path class="st13" d="M1095.4,136.9v-1.4h1.1v1.4H1095.4z M1095.4,148.2v-9h1.1v9H1095.4z"/>
	<path class="st13" d="M1100.3,148.2h-1.1v-9h1.1v0.7c1-0.6,2-0.8,2.9-0.8c1.2,0,2,0.3,2.4,1c0.4,0.6,0.6,1.8,0.6,3.5v4.7h-1.1v-4.7
		c0-1.4-0.1-2.3-0.4-2.8c-0.3-0.5-0.8-0.7-1.7-0.7c-0.4,0-0.9,0.1-1.3,0.2c-0.5,0.1-0.8,0.3-1.1,0.4l-0.4,0.2L1100.3,148.2
		L1100.3,148.2z"/>
	<path class="st13" d="M1113.3,140.1h-3v4.4c0,1.2,0.1,1.9,0.3,2.3c0.2,0.4,0.6,0.5,1.2,0.5l1.7-0.1l0.1,0.9
		c-0.8,0.1-1.4,0.2-1.8,0.2c-0.9,0-1.5-0.2-1.9-0.7c-0.4-0.5-0.5-1.3-0.5-2.6v-5h-1.3v-1h1.3v-2.8h1.1v2.8h3L1113.3,140.1
		L1113.3,140.1z"/>
</g>
<rect x="2099.9" y="-165.5" class="st14" width="1076.9" height="361.5"/>
<rect id="XMLID_43_" x="2099.9" y="220.5" class="st14" width="1076.9" height="361.5"/>
<g>
	<g>
		<path class="st2" d="M2428.7-53.5L2428.7-53.5C2428.7-53.4,2428.7-53.4,2428.7-53.5L2428.7-53.5l10.2,9.8v25.6h27.3v-38.1h-27.3
			v4.5l-6.2-5.9l0,0c-0.2-0.1-1.4-0.5-3,1.2C2428.1-54.8,2428.6-53.7,2428.7-53.5L2428.7-53.5z M2457-29.7h5.8v8.2h-5.8V-29.7z
			 M2457-45.1h1.6h0.8h2.3h0.9h0.2v14.7h-5.8L2457-45.1L2457-45.1z M2457-52.8h0.9v7h-0.9V-52.8z M2460.1-52.8h0.9v7h-0.9V-52.8z
			 M2462.8-45.8h-0.2h-0.9v-7h1.1L2462.8-45.8L2462.8-45.8z M2459.4-45.8h-0.8v-7h0.8V-45.8z M2456.3-45.8h-0.8v-7h0.8V-45.8z
			 M2453.9-52.8h0.9v7h-0.9V-52.8z M2442.3-52.8h10.9v7h-3.6v0.7h3.6h2.3h0.8v14.7v0.7v8.2h-4.5V-23h-1.4v1.6h-8.2v-12.6h1.1v-1.4
			h-1.1v-5l0.6,0.6c0.2-0.7,0.7-1.7,1.4-2.5c0.8-1,1.8-1.6,2.5-1.8l-4.5-4.3L2442.3-52.8L2442.3-52.8z"/>
		<path class="st2" d="M2444.6-42.2c-1,1.1-1.3,2.1-1.3,2.5c0,0.1,0.3,0.3,0.4,0.3h0l0.8,0.1l0.6,0.1l2.6,0.3c0,0,0,0,0,0
			c0-0.2,0.1-0.4,0.2-0.6c0.1-0.1,0.3-0.3,0.6-0.3l-0.8-2.6l-0.2-0.6l-0.2-0.7c0-0.2-0.2-0.3-0.2-0.3
			C2446.6-43.9,2445.6-43.3,2444.6-42.2z M2446.8-43.1l0.1,0.4l0.2,0.6l0.6,2c-0.1,0.1-0.2,0.2-0.3,0.3c-0.1,0.1-0.2,0.2-0.2,0.3
			l-2.1-0.2l-0.6-0.1l-0.5-0.1c0.1-0.4,0.5-1.1,1.1-1.8C2445.8-42.5,2446.4-42.9,2446.8-43.1z"/>
		<path class="st2" d="M2448.1-38.8L2448.1-38.8l0.6,0.5c0,0,0.2,0.1,0.3,0.1c0.1,0,0.2,0,0.2-0.1c0.1-0.1,0-0.5-0.1-0.5l-0.6-0.5
			c0,0,0,0-0.1,0c0,0,0,0,0,0c-0.1,0-0.2,0.1-0.3,0.2C2448.1-39,2448-38.9,2448.1-38.8z"/>
		<polygon class="st2" points="2450.5,-33.3 2451.8,-33.3 2451.8,-35.5 2449.5,-35.5 2449.5,-34.1 2450.5,-34.1 		"/>
		<rect x="2445.5" y="-35.5" class="st2" width="2" height="1.4"/>
		<rect x="2450.5" y="-31.2" class="st2" width="1.4" height="2"/>
		<rect x="2450.5" y="-27.1" class="st2" width="1.4" height="2"/>
	</g>
</g>
<g>
	<path class="st2" d="M3043-35.7c2.9-4.1,4.5-6.7,5.8-8.7c-4.7,0.4-9.2,6.2-9.2,6.2l3.1,3.1C3042.7-35.3,3042.8-35.5,3043-35.7z"/>
	<path class="st2" d="M3055.1-22.5l3.1,3.1c0,0,5.9-4.5,6.3-9.2c-2,1.2-4.6,2.9-8.7,5.7C3055.5-22.8,3055.3-22.6,3055.1-22.5z"/>
	<path class="st2" d="M3050.4-24.2c-0.5,0.2-1.1,0.4-1.6,0.6c-1.5,0.5-3,0.8-4.5,1c-0.6,0.1-1.3,0.2-1.9,0.2c0-0.1,0-0.2,0-0.2
		c0.1-1.6,0.4-3.1,0.8-4.6c0.2-0.7,0.4-1.4,0.7-2.1c0.2-0.4,0.4-0.9,0.6-1.3l-0.3-0.3c-0.8,0.5-1.4,1.2-2,1.9
		c-0.8,1.1-1.5,2.3-1.9,3.6c-0.5,1.4-0.8,2.8-0.8,4.3c0,0.2,0,0.4,0,0.6c0,0.3,0.2,0.5,0.3,0.7c0.2,0.2,0.4,0.4,0.6,0.4
		c0.2,0.1,0.4,0.1,0.6,0.1c1.3,0,2.7-0.2,3.9-0.6c2.3-0.7,4.7-2,6-4l-0.3-0.3C3050.5-24.2,3050.4-24.2,3050.4-24.2z"/>
	<path class="st2" d="M3076.3-56.1L3076.3-56.1c-0.2-0.2-0.6-0.4-0.9-0.4c0,0,0,0,0,0c-4.1,0.1-14.4,0.8-19.8,6.2
		c-2.5,2.5-3.3,3.7-5,6.6c-1.3,2-3,4.8-6.2,9.3c-0.4,0.5-0.3,1.2,0.1,1.6l8.3,8.3c0.2,0.2,0.6,0.4,0.9,0.4c0.3,0,0.5-0.1,0.7-0.2
		c4.6-3.2,7.3-4.9,9.4-6.1c2.8-1.8,4.1-2.5,6.6-5c5.5-5.4,6.2-15.6,6.3-19.8C3076.6-55.5,3076.5-55.8,3076.3-56.1z M3066.6-40.4
		c-1.7,1.7-4.4,1.7-6.1,0c-1.7-1.7-1.7-4.4,0-6.1c1.7-1.7,4.4-1.7,6.1,0C3068.3-44.8,3068.3-42.1,3066.6-40.4z"/>
</g>
<g>
	<g>
		<path class="st2" d="M2865.3-53.8l-5.1,0l0-0.9c0-1-0.8-1.8-1.8-1.8l-4.1,0c-1,0-1.8,0.8-1.8,1.8l0,0.9l-5.1,0
			c-2.3,0-4.2,1.9-4.2,4.2l-0.1,27.3c0,2.3,1.9,4.2,4.2,4.2l18,0c2.3,0,4.2-1.9,4.2-4.2l0.1-27.3
			C2869.5-51.9,2867.6-53.8,2865.3-53.8z M2856.3-55.7c0.5,0,0.9,0.4,0.9,0.9c0,0.5-0.4,0.9-0.9,0.9c-0.5,0-0.9-0.4-0.9-0.9
			C2855.4-55.3,2855.8-55.7,2856.3-55.7z M2851.4-51.2l9.8,0l0,3.8l-9.8,0L2851.4-51.2z M2865.2-20.5l-18,0c-1,0-1.8-0.8-1.8-1.8
			l0.1-27.3c0-1,0.8-1.8,1.8-1.8l1.7,0l0,4.3c0,1.2,0.9,2.1,2.1,2.1l10.4,0c1.1,0,2.1-0.9,2.1-2.1l0-4.3l1.7,0c1,0,1.8,0.8,1.8,1.8
			l-0.1,27.3h0C2867-21.3,2866.2-20.5,2865.2-20.5z"/>
		<path class="st2" d="M2852.1-41l-0.4,0.5c-0.1-0.4-0.5-0.6-0.9-0.6l-2.8,0c-0.5,0-1,0.4-1,1l0,3.1c0,0.5,0.4,1,1,1l2.8,0
			c0.5,0,1-0.4,1-1l0-1.6l1.3-1.5c0.2-0.3,0.2-0.6-0.1-0.8C2852.7-41.3,2852.4-41.2,2852.1-41z M2851.1-37.1L2851.1-37.1
			c0,0.2-0.1,0.3-0.3,0.3l-2.8,0c-0.2,0-0.3-0.1-0.3-0.3l0-3.1c0-0.2,0.1-0.3,0.3-0.3l2.8,0c0.2,0,0.3,0.1,0.3,0.3l0,0.3l-0.8,1
			c-0.2,0.3-0.6,0.3-0.8,0l-0.5-0.5c-0.2-0.2-0.6-0.2-0.8,0s-0.2,0.6,0,0.9l1.4,1.3c0.1,0.1,0.3,0.2,0.4,0.2c0,0,0,0,0,0
			c0.2,0,0.3-0.1,0.4-0.2l0.7-0.8L2851.1-37.1z"/>
		<path class="st2" d="M2852.1-34.5l-0.5,0.6c-0.2-0.3-0.5-0.5-0.9-0.5l-2.8,0c-0.5,0-1,0.4-1,1l0,3.1c0,0.5,0.4,1,1,1l2.8,0
			c0.5,0,1-0.4,1-1l0-1.8l1.3-1.5c0.2-0.3,0.2-0.6-0.1-0.8C2852.7-34.8,2852.3-34.7,2852.1-34.5z M2851.1-30.4L2851.1-30.4
			c0,0.2-0.1,0.3-0.3,0.3l-2.8,0c-0.2,0-0.3-0.1-0.3-0.3l0-3.1c0-0.2,0.1-0.3,0.3-0.3l2.8,0c0.2,0,0.3,0.1,0.3,0.3l0,0.2l-0.8,1
			c-0.2,0.3-0.6,0.3-0.8,0l-0.5-0.5c-0.2-0.2-0.6-0.2-0.8,0c-0.2,0.2-0.2,0.6,0,0.8l1.4,1.3c0.1,0.1,0.3,0.2,0.4,0.2c0,0,0,0,0,0
			c0.2,0,0.3-0.1,0.4-0.2l0.7-0.8L2851.1-30.4z"/>
		<path class="st2" d="M2852.1-27.9l-0.5,0.6c-0.2-0.3-0.5-0.5-0.8-0.5l-2.8,0c-0.5,0-1,0.4-1,1l0,3.1c0,0.5,0.4,1,1,1l2.8,0
			c0.5,0,1-0.4,1-1l0-1.8l1.3-1.5c0.2-0.3,0.2-0.6-0.1-0.8C2852.7-28.2,2852.3-28.2,2852.1-27.9z M2851.1-23.8L2851.1-23.8
			c0,0.2-0.1,0.3-0.3,0.3l-2.8,0c-0.2,0-0.3-0.1-0.3-0.3l0-3.1c0-0.2,0.1-0.3,0.3-0.3l2.8,0c0.2,0,0.3,0.1,0.3,0.3v0.1l-0.8,1
			c-0.2,0.3-0.6,0.3-0.8,0l-0.5-0.5c-0.2-0.2-0.6-0.2-0.8,0c-0.2,0.2-0.2,0.6,0,0.8l1.4,1.3c0.1,0.1,0.3,0.2,0.4,0.2c0,0,0,0,0,0
			c0.2,0,0.3-0.1,0.4-0.2l0.7-0.8L2851.1-23.8z"/>
		<path class="st2" d="M2865.1-39l-9.7,0c-0.3,0-0.6,0.3-0.6,0.6c0,0.3,0.3,0.6,0.6,0.6l9.7,0c0.3,0,0.6-0.3,0.6-0.6
			C2865.7-38.7,2865.4-39,2865.1-39z"/>
		<path class="st2" d="M2865.1-33.1l-9.7,0c-0.3,0-0.6,0.3-0.6,0.6c0,0.3,0.3,0.6,0.6,0.6l9.7,0c0.3,0,0.6-0.3,0.6-0.6
			C2865.7-32.8,2865.4-33.1,2865.1-33.1z"/>
		<path class="st2" d="M2865.1-27.2l-9.7,0c-0.3,0-0.6,0.3-0.6,0.6c0,0.3,0.3,0.6,0.6,0.6l9.7,0c0.3,0,0.6-0.3,0.6-0.6
			C2865.7-27,2865.4-27.2,2865.1-27.2z"/>
	</g>
</g>
<g>
	<g>
		<g>
			<path class="st2" d="M2657.5-39.4l2.8-2.7l-2.8-2.8l-2.8,2.8c-1.2-0.8-2.5-1.3-3.9-1.6v-3.9h-4v3.9c-1.4,0.3-2.7,0.8-3.9,1.6
				l-2.8-2.8l-2.8,2.8l2.7,2.7c-0.8,1.2-1.3,2.5-1.6,3.9h-3.9v4h3.9c0.3,1.4,0.8,2.7,1.6,3.9l-2.7,2.8l2.8,2.8l2.8-2.8
				c1.1,0.8,2.5,1.3,3.9,1.6v3.9h4v-3.9c1.4-0.3,2.7-0.8,3.9-1.6l2.8,2.7l2.8-2.8l-2.8-2.8c0.8-1.2,1.3-2.5,1.6-3.9h3.9v-4h-3.9
				C2658.8-36.9,2658.3-38.3,2657.5-39.4z M2648.8-29.2c-2.4,0-4.3-1.9-4.3-4.3c0-2.4,1.9-4.3,4.3-4.3c2.4,0,4.3,1.9,4.3,4.3
				C2653.1-31.2,2651.2-29.2,2648.8-29.2z"/>
			<path class="st2" d="M2661.3-52.8c-3.5-2.2-7.6-3.5-12-3.5c-12.3,0-22.3,10-22.3,22.3c0,5.2,1.8,9.9,4.7,13.7l2.8-2.8
				c-2.2-3-3.6-6.8-3.6-10.8c0-10.2,8.2-18.4,18.4-18.4c3.4,0,6.5,1,9.2,2.6l-2.2,2.3l8.7,0.8l-0.9-9.1L2661.3-52.8z"/>
			<polygon class="st2" points="2678.4,-33.5 2672.9,-39 2672.9,-35.9 2665.7,-35.9 2665.7,-31.1 2672.9,-31.1 2672.9,-28 			"/>
		</g>
	</g>
</g>
<g>
	<path class="st2" d="M2256.2-46.3l1.3,2.9l-1.6,0.2l-0.2-2.1l-0.6,1.5l-2.4-1.1l-0.2-2.5c0,0,1.9-0.1,1.9,0.1
		c0,0.1,0.2,2.6,0.2,2.6l0.6-2.1L2256.2-46.3z M2252.1-45.4l-0.1-1.8l-1.7,2.9l0.6,1.4L2252.1-45.4z M2253.4-36.1l-1.3-2.1l-0.1-2.6
		l-1,0l-0.4,1.8l-0.6-0.1l0.3-1.4l0.6-2.2l-0.5-0.8l-1.3,0.1l-0.7,1.4l-0.2,2.4l0.1,0.8l0.4,1l0.2,0l1.5,0.6l0.9-1l0.1,2.5l-1-1
		l0.1,1.3l0.7,1.6l-0.8,1.2l0.2,2.5l2.1,0l-0.3-2.7l-0.6-0.2l-0.3,1l0-1.4l1.2,0.4l0.4,3.1l1.8-1.5l-1.7-2.2L2253.4-36.1z
		 M2248.7-37.2l-0.5,0.8l0.4,3.4l1.5-0.2l-0.3-3.7L2248.7-37.2z M2255.6-37l-1.7,0.1l-0.2,0.8l1.6,1l2.8-0.2l0.1-2.2l-2.2-1.4
		L2255.6-37z M2255.5-34.4l-0.8-0.6l-1,0.1l0.1,1.2l1.7,2l1.8-2.3l-0.5-0.5L2255.5-34.4z M2252.6-40.5l0.4,2.6l1.1,0.3l1.2-0.1
		l0.4-2.1l0.9,0.6l1.2,0.7l0.4-1.4l-0.2-2.8l-2.3,0.2l-1,2.3l-0.3-0.6l0.5-2.3l-0.7-0.3l-0.3,0.6l-0.6-0.1l0.2-1.1l-1.2-0.6l-1,1.9
		l0.6,1.3l1.4,0.4l-0.2,0.5L2252.6-40.5z M2239.6-43l0.2-2.1l0.6,1.5l2.4-1.1l0.2-2.5c0,0-1.9-0.1-1.9,0.1c0,0.1-0.2,2.6-0.2,2.6
		l-0.6-2.1l-1,0.5l-1.3,2.9L2239.6-43z M2246.1-47.7l0.9-1.9l0.1,1.6l2.6-0.2l1-2.3c0,0-1.8-0.7-1.8-0.6c-0.1,0.1-1.1,2.4-1.1,2.4
		l0.1-2.2l-1.1,0.2l-2.2,2.3L2246.1-47.7z M2245.2-44.1l-1.7-2.9l-0.1,1.8l1.2,2.5L2245.2-44.1z M2242.8-47.6l2.2-1.7l-1.5,0.1
		l-1.9,1.3L2242.8-47.6z M2252.6-47.6l1.2-0.4l-1.9-1.3l-1.5-0.1L2252.6-47.6z M2243.3-32.7L2243-30l2.1,0l0.2-2.5l-0.8-1.2l0.7-1.6
		l0.1-1.3l-1,1l0.1-2.5l0.9,1l1.5-0.6l-0.1,0l0.5-0.7l0.2-0.9l-0.2-2.5l-0.8-1.4l-1.3-0.1l-0.5,0.8l0.6,2.2l0.3,1.4l-0.6,0.1
		l-0.4-1.8l-1,0l-0.1,2.6l-1.3,2.1l0.4,2.3l-1.7,2.2l1.8,1.5l0.4-3.1l1.2-0.4l0,1.4l-0.3-1L2243.3-32.7z M2246.8-37l-1,0.4l-0.3,3.7
		l1.5,0.1l0.6-3.8L2246.8-37z M2241.7-35.9l-0.2-0.8l-1.7-0.1l-0.4-1.9l-2.2,1.4l0.1,2.2l2.8,0.2L2241.7-35.9z M2246.1-45.1l0.7,1.6
		l0.5-0.5l-0.4-3.3l-2.2-0.4l-0.6,0.8l1.2,2.6L2246.1-45.1z M2248.4-47.4l-0.4,3.3l0.5,0.5l0.7-1.6l0.6,0.7l1.2-2.6l-0.5-0.8
		L2248.4-47.4z M2241.8-34.7l-1-0.1l-0.8,0.6l-1.3-0.2l-0.5,0.5l1.8,2.3l1.7-2L2241.8-34.7z M2245.7-30.9l-0.2,1.1l-1,0.9l0,0.8
		l2.7,0l-0.1-2.8l-0.7-0.9L2245.7-30.9z M2249-31.7l-0.7,0.9l-0.1,2.8l2.7,0l0-0.8l-1-0.9l-0.2-1.1L2249-31.7z M2244.2-42.5l-1-1.9
		l-1.2,0.6l0.2,1.1l-0.6,0.1l-0.3-0.6l-0.7,0.3l0.5,2.3l-0.3,0.6l-1-2.3l-2.3-0.2l-0.2,2.8l0.4,1.4l1.2-0.7l0.9-0.6l0.4,2.1l1.2,0.1
		l1.1-0.3l0.4-2.6l-0.4,0l-0.2-0.5l1.4-0.3L2244.2-42.5z M2250-26.4L2250-26.4c-0.1,0-0.4,0-0.7,0l0,0l0.1-1h-0.7l-0.1,1.1l-0.9,0.1
		l-0.2,0l-0.2-1.2h-0.7l0.2,1.3l-0.8,0.1c-0.1,0-0.2,0-0.4,0v-1.3h-1.4v1.5c0,0.6,0.2,0.9,0.4,1.1v1l6.7-0.7l0-0.8l0.3-0.2v-1.9
		h-1.4L2250-26.4L2250-26.4L2250-26.4z M2244.5-22.8L2244.5-22.8c-0.1,0.3,0,0.6,0.1,0.8l0.1,0.3l6.2-0.7l0.3-0.1l0-0.3
		c0-0.1,0-0.3,0-0.9V-24l-6.7,0.7L2244.5-22.8L2244.5-22.8z M2245.1-20.6c0.6,0.7,1.5,1,2.8,1h0c2.1,0,2.9-0.9,3.1-1.7l0.1-0.5
		l-6.5,0.7L2245.1-20.6z M2248.4-59.5h-1.3v6.9h1.3V-59.5z M2256.3-58.2l-1.2-0.5l-2.6,6.4l1.2,0.5L2256.3-58.2z M2262.2-54.7
		l-4.9,4.9l0.9,0.9l4.9-4.9L2262.2-54.7z M2266.7-48.3l-6.5,2.4l0.4,1.2l6.5-2.4L2266.7-48.3z M2261-41.2l-0.3,1.3l6.8,1.4l0.3-1.3
		L2261-41.2z M2243.3-51.8l-2.6-6.4l-1.2,0.5l2.6,6.4L2243.3-51.8z M2238.5-49.4l-4.9-4.9l-0.9,0.9l4.9,4.9L2238.5-49.4z
		 M2228.7-46.6l6.5,2.4l0.4-1.2l-6.5-2.4L2228.7-46.6z M2228.1-39.3l0.3,1.3l6.8-1.4l-0.3-1.3L2228.1-39.3z"/>
</g>
<g id="XMLID_16_">
	<g id="XMLID_46_">
		<line id="XMLID_57_" class="st15" x1="3055.1" y1="9.9" x2="3055.1" y2="15.9"/>
		<line id="XMLID_56_" class="st16" x1="3055.1" y1="28.9" x2="3055.1" y2="126.3"/>
		<polyline id="XMLID_55_" class="st15" points="3055.1,132.8 3055.1,138.8 3049.1,138.8 		"/>
		<line id="XMLID_54_" class="st17" x1="3037.2" y1="138.8" x2="2258.4" y2="138.8"/>
		<polyline id="XMLID_53_" class="st15" points="2252.5,138.8 2246.5,138.8 2246.5,132.8 		"/>
		<line id="XMLID_52_" class="st18" x1="2246.5" y1="120.7" x2="2246.5" y2="30.4"/>
		<line id="XMLID_51_" class="st15" x1="2246.5" y1="24.3" x2="2246.5" y2="18.3"/>
		<g id="XMLID_49_">
			<rect id="XMLID_50_" x="3051.8" y="6.8" class="st2" width="6.6" height="6.6"/>
		</g>
		<g id="XMLID_47_">
			<polygon id="XMLID_48_" class="st2" points="2240,19.3 2246.5,15.2 2252.9,19.3 2252.9,19.3 2240,19.3 			"/>
		</g>
	</g>
</g>
<g id="XMLID_15_">
	<g id="XMLID_18_">
		<line id="XMLID_41_" class="st15" x1="3023.1" y1="317.6" x2="3023.1" y2="323.6"/>
		<line id="XMLID_40_" class="st16" x1="3023.1" y1="336.6" x2="3023.1" y2="434"/>
		<polyline id="XMLID_39_" class="st15" points="3023.1,440.5 3023.1,446.5 3017.1,446.5 		"/>
		<line id="XMLID_38_" class="st17" x1="3005.2" y1="446.5" x2="2226.4" y2="446.5"/>
		<polyline id="XMLID_37_" class="st15" points="2220.5,446.5 2214.5,446.5 2214.5,440.5 		"/>
		<line id="XMLID_36_" class="st18" x1="2214.5" y1="428.4" x2="2214.5" y2="338"/>
		<line id="XMLID_35_" class="st15" x1="2214.5" y1="332" x2="2214.5" y2="326"/>
		<g id="XMLID_21_">
			<rect id="XMLID_34_" x="3019.8" y="314.5" class="st2" width="6.6" height="6.6"/>
		</g>
		<g id="XMLID_19_">
			<polygon id="XMLID_20_" class="st2" points="2208,327 2214.5,322.9 2220.9,327 2220.9,327 2208,327 			"/>
		</g>
	</g>
</g>
</svg>
