<?xml version="1.0" encoding="utf-8"?>
<!-- Generator: Adobe Illustrator 16.0.0, SVG Export Plug-In . SVG Version: 6.00 Build 0)  -->
<!DOCTYPE svg PUBLIC "-//W3C//DTD SVG 1.1//EN" "http://www.w3.org/Graphics/SVG/1.1/DTD/svg11.dtd">
<svg version="1.1" xmlns="http://www.w3.org/2000/svg" xmlns:xlink="http://www.w3.org/1999/xlink" x="0px" y="0px" width="100px"
	 height="100px" viewBox="0 0 100 100" enable-background="new 0 0 100 100" xml:space="preserve">
<g id="circle-outer">
	<path fill="#453656" d="M50,99.056c-27.05,0-49.056-22.007-49.056-49.057C0.944,22.95,22.95,0.944,50,0.944
		S99.056,22.95,99.056,49.999C99.056,77.049,77.05,99.056,50,99.056z M50,1.944c-26.498,0-48.056,21.557-48.056,48.055
		S23.502,98.056,50,98.056s48.056-21.559,48.056-48.057S76.498,1.944,50,1.944z"/>
</g>
<g id="circle">
	<circle fill="#453656" cx="50" cy="49.999" r="44.556"/>
</g>
<g id="body_1_">
	<g id="body">
		<path fill="#FFFFFF" d="M72.551,38.05v-0.954c0-1.598-0.418-3.234-1.257-4.91c-0.373-0.838-1.04-1.707-2.001-2.605
			c-2.156-2.281-5.136-3.422-8.936-3.422h-1.165H38.809h-1.165c-3.801,0-6.78,1.141-8.937,3.422
			c-0.961,0.898-1.629,1.768-2.001,2.605c-0.839,1.676-1.257,3.312-1.257,4.91v0.954c0,2.45,1.062,4.849,3.188,7.19
			c1.364,1.303,2.605,2.141,3.724,2.514c-2.824,3.01-4.234,6.987-4.234,11.937h6.771v-0.512c0-3.66,1.481-6.57,4.444-8.726
			c1.691-1.194,3.901-1.792,6.633-1.792h0.669v-0.032h5.241v0.032h0.141c2.731,0,4.941,0.598,6.633,1.792
			c2.963,2.155,4.445,5.065,4.445,8.726v0.512h6.771c0-4.949-1.411-8.927-4.234-11.937c1.117-0.373,2.358-1.21,3.723-2.514
			C71.488,42.898,72.551,40.5,72.551,38.05z M65.663,38.632c-0.854,2.374-2.483,3.56-4.887,3.56h-1.584h-3.882h-3.426h-5.241h-0.685
			h-7.15h-1.584c-2.404,0-4.033-1.187-4.887-3.56c-0.094-0.481-0.156-0.884-0.188-1.21c0-1.318,0.551-2.514,1.653-3.584
			c0.946-0.744,1.955-1.117,3.025-1.117c0-0.062,0.326-0.094,0.978-0.094l21.386,0.002h1.002c0.651,0,0.978,0.029,0.978,0.092
			c1.07,0,2.078,0.373,3.024,1.117c1.102,1.07,1.652,2.266,1.652,3.584C65.818,37.748,65.756,38.15,65.663,38.632z"/>
	</g>
</g>
<g id="eyes-left">
	<g id="left_eyes">
		<circle fill="#FFFFFF" cx="36.431" cy="37.405" r="2.377"/>
	</g>
</g>
<g id="eyes-right">
	<g id="right_eye">
		<circle fill="#FFFFFF" cx="61.684" cy="37.405" r="2.377"/>
	</g>
</g>
<g id="rockandror">
	<g>
		<path fill="#FFFFFF" d="M25.722,66.908c0-1.941-1.04-2.908-3.12-2.908H19v9h2v-3h1.693l1.026,3h1.963l-1.261-3.461
			C25.288,68.992,25.722,68.061,25.722,66.908z M23.577,67.775C23.369,68.037,23.053,68,22.628,68H21v-2h1.602
			c0.416,0,0.735-0.111,0.956,0.139c0.221,0.252,0.331,0.389,0.331,0.814C23.889,67.377,23.785,67.516,23.577,67.775z"/>
		<path fill="#FFFFFF" d="M30.312,63.835c-1.344,0-2.29,0.379-2.841,1.139c-0.551,0.758-0.825,1.916-0.825,3.477
			s0.274,2.707,0.825,3.439s1.497,1.098,2.841,1.098c1.343,0,2.29-0.365,2.84-1.098c0.551-0.732,0.826-1.879,0.826-3.439
			s-0.275-2.719-0.826-3.477C32.602,64.214,31.654,63.835,30.312,63.835z M31.748,70.745c-0.256,0.455-0.734,0.682-1.437,0.682
			s-1.182-0.227-1.437-0.682c-0.256-0.455-0.384-1.219-0.384-2.289s0.13-1.848,0.39-2.332c0.261-0.486,0.737-0.729,1.431-0.729
			s1.17,0.242,1.43,0.729c0.26,0.484,0.39,1.262,0.39,2.332S32.003,70.29,31.748,70.745z"/>
		<path fill="#FFFFFF" d="M37.525,65.649c0.242-0.152,0.647-0.229,1.216-0.229c0.567,0,1.28,0.064,2.139,0.195l0.052-1.43
			c-0.979-0.234-1.842-0.352-2.587-0.352c-1.292,0-2.178,0.336-2.659,1.008c-0.48,0.672-0.721,1.861-0.721,3.568
			c0,0.814,0.047,1.49,0.143,2.027c0.096,0.539,0.269,1.006,0.521,1.404c0.251,0.398,0.598,0.689,1.04,0.871
			c0.441,0.182,1.031,0.273,1.768,0.273s1.564-0.1,2.483-0.299L40.88,71.22c-0.807,0.121-1.566,0.182-2.282,0.182
			c-0.715,0-1.191-0.197-1.43-0.592s-0.357-1.102-0.357-2.125s0.059-1.746,0.176-2.172C37.103,66.089,37.283,65.8,37.525,65.649z"/>
		<polygon fill="#FFFFFF" points="48.667,64 46.626,64 45.183,67.754 44,67.878 44,64 42,64 42,73 44,73 44,69.438 45.183,69.393 
			46.651,73 48.719,73 46.743,68.514 		"/>
		<path fill="#FFFFFF" d="M56.922,67.942l-1.69-0.037c-0.009,0.232-0.039,0.537-0.091,0.908c-0.052,0.373-0.104,0.625-0.156,0.754
			l-1.274-1.273c0.668-0.467,1.132-0.879,1.392-1.234s0.39-0.846,0.39-1.469c0-0.625-0.229-1.117-0.688-1.477
			c-0.46-0.359-1.104-0.539-1.931-0.539c-0.828,0-1.484,0.176-1.97,0.527c-0.485,0.35-0.728,0.83-0.728,1.436
			c0,0.434,0.054,0.785,0.162,1.053c0.108,0.27,0.34,0.621,0.695,1.053c-0.642,0.252-1.109,0.58-1.403,0.982
			c-0.295,0.402-0.442,0.955-0.442,1.658c0,0.893,0.267,1.566,0.8,2.021c0.532,0.455,1.432,0.682,2.697,0.682
			c0.528,0,1.029-0.105,1.501-0.318c0.473-0.213,0.86-0.482,1.164-0.812l1.378,1.131l0.988-1.131l-1.456-1.273
			C56.57,69.829,56.791,68.948,56.922,67.942z M52.833,65.058c0.594,0,0.891,0.273,0.891,0.818c0,0.287-0.074,0.531-0.221,0.734
			c-0.148,0.205-0.399,0.436-0.755,0.695l-0.221-0.232c-0.39-0.416-0.585-0.799-0.585-1.145
			C51.942,65.349,52.239,65.058,52.833,65.058z M53.477,71.284c-0.329,0.096-0.668,0.143-1.014,0.143
			c-1.006,0-1.509-0.428-1.509-1.287c0-0.676,0.321-1.17,0.962-1.48l2.249,2.248C54.035,71.063,53.806,71.188,53.477,71.284z"/>
		<path fill="#FFFFFF" d="M65.163,66.908c0-1.941-1.04-2.908-3.12-2.908H59v9h1v-3h2.135l1.026,3h1.963l-1.261-3.461
			C64.729,68.992,65.163,68.061,65.163,66.908z M63.019,67.775C62.811,68.037,62.494,68,62.069,68H60v-2h2.043
			c0.416,0,0.735-0.111,0.956,0.139c0.221,0.252,0.331,0.389,0.331,0.814C63.33,67.377,63.227,67.516,63.019,67.775z"/>
		<path fill="#FFFFFF" d="M69.753,63.835c-1.344,0-2.29,0.379-2.841,1.139c-0.551,0.758-0.825,1.916-0.825,3.477
			s0.274,2.707,0.825,3.439s1.497,1.098,2.841,1.098c1.343,0,2.29-0.365,2.84-1.098c0.551-0.732,0.826-1.879,0.826-3.439
			s-0.275-2.719-0.826-3.477C72.043,64.214,71.096,63.835,69.753,63.835z M71.189,70.745c-0.256,0.455-0.734,0.682-1.437,0.682
			s-1.182-0.227-1.437-0.682c-0.256-0.455-0.384-1.219-0.384-2.289s0.13-1.848,0.39-2.332c0.261-0.486,0.737-0.729,1.431-0.729
			s1.17,0.242,1.43,0.729c0.26,0.484,0.39,1.262,0.39,2.332S71.444,70.29,71.189,70.745z"/>
		<path fill="#FFFFFF" d="M81.309,66.908c0-1.941-1.04-2.908-3.12-2.908H75v9h2v-3h1.28l1.026,3h1.963l-1.261-3.461
			C80.875,68.992,81.309,68.061,81.309,66.908z M79.164,67.775C78.956,68.037,78.64,68,78.215,68H77v-2h1.188
			c0.416,0,0.735-0.111,0.956,0.139c0.221,0.252,0.331,0.389,0.331,0.814C79.476,67.377,79.372,67.516,79.164,67.775z"/>
	</g>
</g>
</svg>
