<!-- Generator: Adobe Illustrator 19.0.0, SVG Export Plug-In  -->
<svg version="1.1"
   xmlns="http://www.w3.org/2000/svg" xmlns:xlink="http://www.w3.org/1999/xlink" xmlns:a="http://ns.adobe.com/AdobeSVGViewerExtensions/3.0/"
   x="0px" y="0px" width="19.2px" height="27.9px" viewBox="0 0 19.2 27.9" style="enable-background:new 0 0 19.2 27.9;"
   xml:space="preserve" id="acceptance">
<g id="XMLID_15_">
  <g id="XMLID_16_">
    <path id="XMLID_29_" class="st0" d="M16.2,2l-3.7,0l0-0.6c0-0.7-0.6-1.3-1.3-1.3l-3,0C7.4,0,6.8,0.6,6.8,1.3l0,0.6l-3.7,0
      C1.4,1.9,0,3.3,0,5l0,19.8c0,1.7,1.4,3.1,3,3.1l13.1,0c1.7,0,3.1-1.4,3.1-3l0-19.8C19.2,3.3,17.8,2,16.2,2z M9.6,0.6
      c0.4,0,0.7,0.3,0.7,0.7c0,0.4-0.3,0.7-0.7,0.7C9.3,1.9,9,1.6,9,1.3C9,0.9,9.3,0.6,9.6,0.6z M6.1,3.8l7.1,0l0,2.8l-7.1,0L6.1,3.8z
       M16.1,26.1L3,26.1c-0.7,0-1.3-0.6-1.3-1.3L1.8,5c0-0.7,0.6-1.3,1.3-1.3l1.2,0l0,3.1c0,0.8,0.7,1.5,1.5,1.5l7.5,0
      c0.8,0,1.5-0.7,1.5-1.5l0-3.1l1.2,0c0.7,0,1.3,0.6,1.3,1.3l0,19.8h0C17.4,25.6,16.8,26.1,16.1,26.1z"/>
    <path id="XMLID_26_" class="st0" d="M6.6,11.3l-0.3,0.4c-0.1-0.3-0.4-0.4-0.7-0.4l-2,0c-0.4,0-0.7,0.3-0.7,0.7l0,2.2
      c0,0.4,0.3,0.7,0.7,0.7l2,0c0.4,0,0.7-0.3,0.7-0.7l0-1.2l0.9-1.1c0.2-0.2,0.1-0.5,0-0.6C7,11,6.8,11.1,6.6,11.3z M5.9,14.1
      L5.9,14.1c0,0.1-0.1,0.2-0.2,0.2l-2,0c-0.1,0-0.2-0.1-0.2-0.2l0-2.2c0-0.1,0.1-0.2,0.2-0.2l2,0c0.1,0,0.2,0.1,0.2,0.2l0,0.2
      l-0.6,0.7c-0.2,0.2-0.4,0.2-0.6,0l-0.4-0.3c-0.2-0.2-0.5-0.2-0.6,0c-0.2,0.2-0.2,0.5,0,0.6l1,0.9c0.1,0.1,0.2,0.1,0.3,0.1
      c0,0,0,0,0,0c0.1,0,0.2-0.1,0.3-0.2l0.5-0.6L5.9,14.1z"/>
    <path id="XMLID_23_" class="st0" d="M6.6,16l-0.3,0.4C6.1,16.2,5.9,16,5.6,16l-2,0c-0.4,0-0.7,0.3-0.7,0.7l0,2.2
      c0,0.4,0.3,0.7,0.7,0.7l2,0c0.4,0,0.7-0.3,0.7-0.7l0-1.3l0.9-1.1c0.2-0.2,0.1-0.5-0.1-0.6C7,15.8,6.7,15.8,6.6,16z M5.9,18.9
      L5.9,18.9c0,0.1-0.1,0.2-0.2,0.2l-2,0c-0.1,0-0.2-0.1-0.2-0.2l0-2.2c0-0.1,0.1-0.2,0.2-0.2l2,0c0.1,0,0.2,0.1,0.2,0.2l0,0.1
      l-0.6,0.7c-0.2,0.2-0.4,0.2-0.6,0l-0.4-0.3c-0.2-0.2-0.5-0.2-0.6,0c-0.2,0.2-0.2,0.5,0,0.6l1,0.9C4.8,18.9,4.9,19,5,19
      c0,0,0,0,0,0c0.1,0,0.2-0.1,0.3-0.2l0.5-0.6L5.9,18.9z"/>
    <path id="XMLID_20_" class="st0" d="M6.6,20.8l-0.4,0.4c-0.1-0.2-0.3-0.4-0.6-0.4l-2,0c-0.4,0-0.7,0.3-0.7,0.7l0,2.2
      c0,0.4,0.3,0.7,0.7,0.7l2,0c0.4,0,0.7-0.3,0.7-0.7l0-1.3l0.9-1.1c0.2-0.2,0.1-0.5-0.1-0.6C7,20.5,6.7,20.6,6.6,20.8z M5.9,23.7
      L5.9,23.7c0,0.1-0.1,0.2-0.2,0.2l-2,0c-0.1,0-0.2-0.1-0.2-0.2l0-2.2c0-0.1,0.1-0.2,0.2-0.2l2,0c0.1,0,0.2,0.1,0.2,0.2v0.1
      l-0.6,0.7c-0.2,0.2-0.4,0.2-0.6,0L4.3,22c-0.2-0.2-0.5-0.2-0.6,0c-0.2,0.2-0.2,0.5,0,0.6l1,0.9c0.1,0.1,0.2,0.1,0.3,0.1
      c0,0,0,0,0,0c0.1,0,0.2-0.1,0.3-0.2L5.9,23L5.9,23.7z"/>
    <path id="XMLID_19_" class="st0" d="M16,12.7l-7,0c-0.2,0-0.4,0.2-0.4,0.4c0,0.2,0.2,0.4,0.4,0.4l7,0c0.2,0,0.4-0.2,0.4-0.4
      C16.4,12.9,16.3,12.7,16,12.7z"/>
    <path id="XMLID_18_" class="st0" d="M16,17l-7,0c-0.2,0-0.4,0.2-0.4,0.4c0,0.2,0.2,0.4,0.4,0.4l7,0c0.2,0,0.4-0.2,0.4-0.4
      C16.4,17.2,16.2,17,16,17z"/>
    <path id="XMLID_17_" class="st0" d="M16,21.2l-7,0c-0.2,0-0.4,0.2-0.4,0.4c0,0.2,0.2,0.4,0.4,0.4l7,0c0.2,0,0.4-0.2,0.4-0.4
      C16.4,21.4,16.2,21.2,16,21.2z"/>
  </g>
</g>
</svg>
