<?xml version="1.0" encoding="utf-8"?>
<!-- Generator: Adobe Illustrator 16.0.0, SVG Export Plug-In . SVG Version: 6.00 Build 0)  -->
<!DOCTYPE svg PUBLIC "-//W3C//DTD SVG 1.1//EN" "http://www.w3.org/Graphics/SVG/1.1/DTD/svg11.dtd">
<svg version="1.1" id="Livello_1" xmlns="http://www.w3.org/2000/svg" xmlns:xlink="http://www.w3.org/1999/xlink" x="0px" y="0px"
	 width="346.154px" height="346.153px" viewBox="0 0 346.154 346.153" enable-background="new 0 0 346.154 346.153"
	 xml:space="preserve">
<g>
	<g>
		<g>
			<g>
				
					<rect x="144.045" y="100.998" transform="matrix(-0.7071 -0.7071 0.7071 -0.7071 349.6911 355.9726)" fill="#F6AE3F" width="209.05" height="9.129"/>
			</g>
			<g>
				
					<rect x="2.029" y="100.358" transform="matrix(-0.7071 0.7071 -0.7071 -0.7071 256.0893 103.7669)" fill="#E12924" width="209.05" height="9.126"/>
			</g>
			<g>
				
					<rect x="144.041" y="242.37" transform="matrix(-0.7071 0.7071 -0.7071 -0.7071 598.9393 245.7796)" fill="#36B4B7" width="209.051" height="9.131"/>
			</g>
			<g>
				
					<rect x="144.041" y="242.37" transform="matrix(-0.7071 0.7071 -0.7071 -0.7071 598.9393 245.7796)" fill="#36B4B7" width="209.051" height="9.131"/>
			</g>
			<g>
				
					<rect x="1.897" y="242.045" transform="matrix(-0.7071 -0.7071 0.7071 -0.7071 8.075 496.5635)" fill="#8DBC44" width="209.964" height="9.129"/>
			</g>
		</g>
		<g>
			<g>
				<g>
					<g>
						<defs>
							<circle id="SVGID_1_" cx="140.228" cy="161.988" r="7.146"/>
						</defs>
						<clipPath id="SVGID_2_">
							<use xlink:href="#SVGID_1_"  overflow="visible"/>
						</clipPath>
						<g clip-path="url(#SVGID_2_)">
							<rect x="0.577" y="93.33" fill="none" width="176.493" height="176.492"/>
							<g>
								<polygon fill="none" points="0.577,93.33 177.07,93.33 177.07,269.822 0.577,269.822 								"/>
								<polygon points="150.194,134.645 150.193,134.645 61.947,222.891 15.016,269.822 17.359,269.822 47.356,239.824 
									135.602,151.579 135.602,151.579 177.07,110.112 177.07,107.769 								"/>
								<polygon points="105.605,93.33 103.263,93.33 61.947,134.645 0.577,196.015 0.577,198.358 47.356,151.579 								"/>
								<polygon points="127.697,93.33 126.286,93.33 69.721,149.896 69.72,149.896 0.577,219.04 0.577,220.449 54.664,166.363 
																	"/>
								<polygon points="40.384,141.137 88.193,93.33 80.837,93.33 52.47,121.697 52.469,121.697 0.577,173.588 0.577,180.944 
																	"/>
								<polygon points="48.705,162.92 118.296,93.33 114.09,93.33 62.365,145.054 62.365,145.054 0.577,206.842 0.577,211.048 
																	"/>
								<polygon points="15.016,93.33 0.577,107.769 0.577,110.112 17.359,93.33 								"/>
								<polygon points="38.041,93.33 0.577,130.792 0.577,132.205 39.451,93.33 								"/>
								<polygon points="25.844,93.33 0.577,118.596 0.577,122.802 30.049,93.33 								"/>
								<polygon points="114.291,131.378 130.055,115.616 152.339,93.33 138.197,93.33 122.983,108.544 122.982,108.544 
									34.737,196.791 0.577,230.949 0.577,245.093 26.045,219.625 								"/>
								<polygon points="69.721,238.141 69.72,238.141 38.041,269.822 39.451,269.822 54.664,254.608 142.91,166.363 
									142.911,166.363 177.07,132.205 177.07,130.792 157.968,149.896 								"/>
								<polygon points="40.384,229.382 128.632,141.137 176.438,93.33 169.083,93.33 140.717,121.697 52.47,209.942 
									52.469,209.942 0.577,261.835 0.577,269.191 								"/>
								<polygon points="62.365,233.3 62.365,233.3 25.844,269.822 30.049,269.822 48.705,251.166 48.705,251.166 136.951,162.92 
									177.07,122.802 177.07,118.596 150.612,145.054 								"/>
								<polygon points="41.809,115.616 64.094,93.33 49.952,93.33 34.737,108.544 0.577,142.704 0.577,156.847 26.045,131.378 
																	"/>
								<polygon points="152.339,269.822 177.07,245.093 177.07,230.949 138.197,269.822 								"/>
								<polygon points="176.438,269.822 177.07,269.191 177.07,261.835 169.083,269.822 								"/>
								<polygon points="122.982,196.791 49.952,269.822 64.094,269.822 114.291,219.625 177.07,156.847 177.07,142.704 
									122.983,196.791 								"/>
								<polygon points="150.193,222.891 103.263,269.822 105.605,269.822 135.602,239.824 135.602,239.824 177.07,198.358 
									177.07,196.015 150.194,222.891 								"/>
								<polygon points="126.286,269.822 127.697,269.822 142.91,254.608 142.911,254.608 177.07,220.449 177.07,219.04 
									157.968,238.141 								"/>
								<polygon points="80.837,269.822 88.193,269.822 128.632,229.382 177.07,180.944 177.07,173.588 140.717,209.942 								"/>
								<polygon points="114.09,269.822 118.296,269.822 136.951,251.166 177.07,211.048 177.07,206.842 150.612,233.3 								"/>
							</g>
						</g>
					</g>
				</g>
				<g>
					<g>
						<defs>
							<circle id="SVGID_3_" cx="216.129" cy="161.988" r="7.146"/>
						</defs>
						<clipPath id="SVGID_4_">
							<use xlink:href="#SVGID_3_"  overflow="visible"/>
						</clipPath>
						<g clip-path="url(#SVGID_4_)">
							<rect x="177.071" y="93.33" fill="none" width="176.493" height="176.492"/>
							<g>
								<polygon fill="none" points="177.071,93.33 353.564,93.33 353.564,269.822 177.071,269.822 								"/>
								<polygon points="326.688,134.645 326.687,134.645 238.44,222.891 191.51,269.822 193.853,269.822 223.85,239.824 
									312.095,151.579 312.095,151.579 353.564,110.112 353.564,107.769 								"/>
								<polygon points="282.099,93.33 279.757,93.33 238.44,134.645 177.071,196.015 177.071,198.358 223.85,151.579 								"/>
								<polygon points="304.191,93.33 302.78,93.33 246.216,149.896 246.214,149.896 177.071,219.04 177.071,220.449 
									231.159,166.363 								"/>
								<polygon points="216.879,141.137 264.687,93.33 257.331,93.33 228.965,121.697 228.964,121.697 177.071,173.588 
									177.071,180.944 								"/>
								<polygon points="225.199,162.92 294.79,93.33 290.584,93.33 238.859,145.054 238.859,145.054 177.071,206.842 
									177.071,211.048 								"/>
								<polygon points="191.51,93.33 177.071,107.769 177.071,110.112 193.853,93.33 								"/>
								<polygon points="214.535,93.33 177.071,130.792 177.071,132.205 215.945,93.33 								"/>
								<polygon points="202.338,93.33 177.071,118.596 177.071,122.802 206.544,93.33 								"/>
								<polygon points="290.785,131.378 306.55,115.616 328.834,93.33 314.691,93.33 299.477,108.544 299.476,108.544 
									211.231,196.791 177.071,230.949 177.071,245.093 202.539,219.625 								"/>
								<polygon points="246.216,238.141 246.214,238.141 214.535,269.822 215.945,269.822 231.159,254.608 319.404,166.363 
									319.405,166.363 353.564,132.205 353.564,130.792 334.462,149.896 								"/>
								<polygon points="216.879,229.382 305.126,141.137 352.932,93.33 345.577,93.33 317.211,121.697 228.965,209.942 
									228.964,209.942 177.071,261.835 177.071,269.191 								"/>
								<polygon points="238.859,233.3 238.859,233.3 202.338,269.822 206.544,269.822 225.199,251.166 225.199,251.166 
									313.446,162.92 353.564,122.802 353.564,118.596 327.106,145.054 								"/>
								<polygon points="218.302,115.616 240.588,93.33 226.446,93.33 211.231,108.544 177.071,142.704 177.071,156.847 
									202.539,131.378 								"/>
								<polygon points="328.834,269.822 353.564,245.093 353.564,230.949 314.691,269.822 								"/>
								<polygon points="352.932,269.822 353.564,269.191 353.564,261.835 345.577,269.822 								"/>
								<polygon points="299.476,196.791 226.446,269.822 240.588,269.822 290.785,219.625 353.564,156.847 353.564,142.704 
									299.477,196.791 								"/>
								<polygon points="326.687,222.891 279.757,269.822 282.099,269.822 312.095,239.824 312.095,239.824 353.564,198.358 
									353.564,196.015 326.688,222.891 								"/>
								<polygon points="302.78,269.822 304.191,269.822 319.404,254.608 319.405,254.608 353.564,220.449 353.564,219.04 
									334.462,238.141 								"/>
								<polygon points="257.331,269.822 264.687,269.822 305.126,229.382 353.564,180.944 353.564,173.588 317.211,209.942 
																	"/>
								<polygon points="290.584,269.822 294.79,269.822 313.446,251.166 353.564,211.048 353.564,206.842 327.106,233.3 								
									"/>
							</g>
						</g>
					</g>
				</g>
				<g>
					<g>
						<defs>
							<path id="SVGID_5_" d="M248.794,163.926v-2.87c0-4.8-1.257-9.722-3.778-14.754c-1.12-2.52-3.126-5.13-6.015-7.835
								c-6.48-6.856-15.436-10.283-26.856-10.283h-3.501h-61.27h-3.501c-11.423,0-20.38,3.427-26.859,10.283
								c-2.89,2.702-4.896,5.315-6.015,7.835c-2.521,5.032-3.778,9.954-3.778,14.754v2.87c0,7.368,3.192,14.571,9.585,21.616
								c4.101,3.916,7.829,6.434,11.191,7.551c-8.489,9.048-12.729,21.007-12.729,35.886h20.352v-1.546
								c0-10.999,4.454-19.744,13.357-26.227c5.084-3.588,11.727-5.386,19.937-5.386h2.012v-0.101h15.758v0.101h0.42
								c8.209,0,14.852,1.798,19.937,5.386c8.905,6.481,13.358,15.228,13.358,26.227v1.546h20.35
								c0-14.879-4.239-26.838-12.725-35.886c3.354-1.117,7.088-3.635,11.188-7.551C245.6,178.497,248.794,171.294,248.794,163.926z
								 M228.09,165.676c-2.563,7.133-7.463,10.702-14.687,10.702h-4.761h-11.668h-10.293h-15.758h-2.057h-21.494h-4.76
								c-7.228,0-12.123-3.568-14.688-10.702c-0.28-1.444-0.466-2.659-0.56-3.64c0-3.962,1.654-7.553,4.965-10.772
								c2.847-2.236,5.878-3.353,9.097-3.353c0-0.189,0.979-0.281,2.938-0.281h64.278h3.011c1.958,0,2.938,0.092,2.938,0.281
								c3.221,0,6.245,1.116,9.092,3.353c3.311,3.22,4.966,6.811,4.966,10.772C228.559,163.017,228.37,164.231,228.09,165.676z"/>
						</defs>
						<clipPath id="SVGID_6_">
							<use xlink:href="#SVGID_5_"  overflow="visible"/>
						</clipPath>
						<g clip-path="url(#SVGID_6_)">
							<rect x="177.07" y="93.33" fill="none" width="176.493" height="176.492"/>
							<g>
								<polygon fill="none" points="177.07,93.33 353.563,93.33 353.563,269.822 177.07,269.822 								"/>
								<polygon points="326.687,134.645 326.686,134.645 238.439,222.891 191.51,269.822 193.852,269.822 223.849,239.824 
									312.094,151.579 312.094,151.579 353.563,110.112 353.563,107.769 								"/>
								<polygon points="282.098,93.33 279.756,93.33 238.439,134.645 177.07,196.015 177.07,198.358 223.849,151.579 								"/>
								<polygon points="304.19,93.33 302.779,93.33 246.215,149.896 246.213,149.896 177.07,219.04 177.07,220.449 
									231.158,166.363 								"/>
								<polygon points="216.878,141.137 264.686,93.33 257.33,93.33 228.964,121.697 228.963,121.697 177.07,173.588 
									177.07,180.944 								"/>
								<polygon points="225.198,162.92 294.789,93.33 290.583,93.33 238.858,145.054 238.858,145.054 177.07,206.842 
									177.07,211.048 								"/>
								<polygon points="191.51,93.33 177.07,107.769 177.07,110.112 193.852,93.33 								"/>
								<polygon points="214.534,93.33 177.07,130.792 177.07,132.205 215.944,93.33 								"/>
								<polygon points="202.337,93.33 177.07,118.596 177.07,122.802 206.543,93.33 								"/>
								<polygon points="290.784,131.378 306.549,115.616 328.833,93.33 314.69,93.33 299.476,108.544 299.475,108.544 
									211.23,196.791 177.07,230.949 177.07,245.093 202.538,219.625 								"/>
								<polygon points="246.215,238.141 246.213,238.141 214.534,269.822 215.944,269.822 231.158,254.608 319.403,166.363 
									319.404,166.363 353.563,132.205 353.563,130.792 334.461,149.896 								"/>
								<polygon points="216.878,229.382 305.125,141.137 352.931,93.33 345.576,93.33 317.21,121.697 228.964,209.942 
									228.963,209.942 177.07,261.835 177.07,269.191 								"/>
								<polygon points="238.858,233.3 238.858,233.3 202.337,269.822 206.543,269.822 225.198,251.166 225.198,251.166 
									313.445,162.92 353.563,122.802 353.563,118.596 327.105,145.054 								"/>
								<polygon points="218.302,115.616 240.587,93.33 226.445,93.33 211.23,108.544 177.07,142.704 177.07,156.847 
									202.538,131.378 								"/>
								<polygon points="328.833,269.822 353.563,245.093 353.563,230.949 314.69,269.822 								"/>
								<polygon points="352.931,269.822 353.563,269.191 353.563,261.835 345.576,269.822 								"/>
								<polygon points="299.475,196.791 226.445,269.822 240.587,269.822 290.784,219.625 353.563,156.847 353.563,142.704 
									299.476,196.791 								"/>
								<polygon points="326.686,222.891 279.756,269.822 282.098,269.822 312.094,239.824 312.094,239.824 353.563,198.358 
									353.563,196.015 326.687,222.891 								"/>
								<polygon points="302.779,269.822 304.19,269.822 319.403,254.608 319.404,254.608 353.563,220.449 353.563,219.04 
									334.461,238.141 								"/>
								<polygon points="257.33,269.822 264.686,269.822 305.125,229.382 353.563,180.944 353.563,173.588 317.21,209.942 								
									"/>
								<polygon points="290.583,269.822 294.789,269.822 313.445,251.166 353.563,211.048 353.563,206.842 327.105,233.3 								
									"/>
							</g>
						</g>
						<g clip-path="url(#SVGID_6_)">
							<rect x="0.577" y="93.33" fill="none" width="176.493" height="176.492"/>
							<g>
								<polygon fill="none" points="0.577,93.33 177.07,93.33 177.07,269.822 0.577,269.822 								"/>
								<polygon points="150.194,134.645 150.193,134.645 61.947,222.891 15.016,269.822 17.359,269.822 47.356,239.824 
									135.602,151.579 135.602,151.579 177.07,110.112 177.07,107.769 								"/>
								<polygon points="105.605,93.33 103.263,93.33 61.947,134.645 0.577,196.015 0.577,198.358 47.356,151.579 								"/>
								<polygon points="127.697,93.33 126.286,93.33 69.721,149.896 69.72,149.896 0.577,219.04 0.577,220.449 54.664,166.363 
																	"/>
								<polygon points="40.384,141.137 88.193,93.33 80.837,93.33 52.47,121.697 52.469,121.697 0.577,173.588 0.577,180.944 
																	"/>
								<polygon points="48.705,162.92 118.296,93.33 114.09,93.33 62.365,145.054 62.365,145.054 0.577,206.842 0.577,211.048 
																	"/>
								<polygon points="15.016,93.33 0.577,107.769 0.577,110.112 17.359,93.33 								"/>
								<polygon points="38.041,93.33 0.577,130.792 0.577,132.205 39.451,93.33 								"/>
								<polygon points="25.844,93.33 0.577,118.596 0.577,122.802 30.049,93.33 								"/>
								<polygon points="114.291,131.378 130.055,115.616 152.339,93.33 138.197,93.33 122.983,108.544 122.982,108.544 
									34.737,196.791 0.577,230.949 0.577,245.093 26.045,219.625 								"/>
								<polygon points="69.721,238.141 69.72,238.141 38.041,269.822 39.451,269.822 54.664,254.608 142.91,166.363 
									142.911,166.363 177.07,132.205 177.07,130.792 157.968,149.896 								"/>
								<polygon points="40.384,229.382 128.632,141.137 176.438,93.33 169.083,93.33 140.717,121.697 52.47,209.942 
									52.469,209.942 0.577,261.835 0.577,269.191 								"/>
								<polygon points="62.365,233.3 62.365,233.3 25.844,269.822 30.049,269.822 48.705,251.166 48.705,251.166 136.951,162.92 
									177.07,122.802 177.07,118.596 150.612,145.054 								"/>
								<polygon points="41.809,115.616 64.094,93.33 49.952,93.33 34.737,108.544 0.577,142.704 0.577,156.847 26.045,131.378 
																	"/>
								<polygon points="152.339,269.822 177.07,245.093 177.07,230.949 138.197,269.822 								"/>
								<polygon points="176.438,269.822 177.07,269.191 177.07,261.835 169.083,269.822 								"/>
								<polygon points="122.982,196.791 49.952,269.822 64.094,269.822 114.291,219.625 177.07,156.847 177.07,142.704 
									122.983,196.791 								"/>
								<polygon points="150.193,222.891 103.263,269.822 105.605,269.822 135.602,239.824 135.602,239.824 177.07,198.358 
									177.07,196.015 150.194,222.891 								"/>
								<polygon points="126.286,269.822 127.697,269.822 142.91,254.608 142.911,254.608 177.07,220.449 177.07,219.04 
									157.968,238.141 								"/>
								<polygon points="80.837,269.822 88.193,269.822 128.632,229.382 177.07,180.944 177.07,173.588 140.717,209.942 								"/>
								<polygon points="114.09,269.822 118.296,269.822 136.951,251.166 177.07,211.048 177.07,206.842 150.612,233.3 								"/>
							</g>
						</g>
						<g clip-path="url(#SVGID_6_)">
							<rect x="177.07" y="93.33" fill="none" width="176.493" height="176.492"/>
							<g>
								<polygon fill="none" points="177.07,93.33 353.563,93.33 353.563,269.822 177.07,269.822 								"/>
								<polygon points="326.687,134.645 326.686,134.645 238.439,222.891 191.51,269.822 193.852,269.822 223.849,239.824 
									312.094,151.579 312.094,151.579 353.563,110.112 353.563,107.769 								"/>
								<polygon points="282.098,93.33 279.756,93.33 238.439,134.645 177.07,196.015 177.07,198.358 223.849,151.579 								"/>
								<polygon points="304.19,93.33 302.779,93.33 246.215,149.896 246.213,149.896 177.07,219.04 177.07,220.449 
									231.158,166.363 								"/>
								<polygon points="216.878,141.137 264.686,93.33 257.33,93.33 228.964,121.697 228.963,121.697 177.07,173.588 
									177.07,180.944 								"/>
								<polygon points="225.198,162.92 294.789,93.33 290.583,93.33 238.858,145.054 238.858,145.054 177.07,206.842 
									177.07,211.048 								"/>
								<polygon points="191.51,93.33 177.07,107.769 177.07,110.112 193.852,93.33 								"/>
								<polygon points="214.534,93.33 177.07,130.792 177.07,132.205 215.944,93.33 								"/>
								<polygon points="202.337,93.33 177.07,118.596 177.07,122.802 206.543,93.33 								"/>
								<polygon points="290.784,131.378 306.549,115.616 328.833,93.33 314.69,93.33 299.476,108.544 299.475,108.544 
									211.23,196.791 177.07,230.949 177.07,245.093 202.538,219.625 								"/>
								<polygon points="246.215,238.141 246.213,238.141 214.534,269.822 215.944,269.822 231.158,254.608 319.403,166.363 
									319.404,166.363 353.563,132.205 353.563,130.792 334.461,149.896 								"/>
								<polygon points="216.878,229.382 305.125,141.137 352.931,93.33 345.576,93.33 317.21,121.697 228.964,209.942 
									228.963,209.942 177.07,261.835 177.07,269.191 								"/>
								<polygon points="238.858,233.3 238.858,233.3 202.337,269.822 206.543,269.822 225.198,251.166 225.198,251.166 
									313.445,162.92 353.563,122.802 353.563,118.596 327.105,145.054 								"/>
								<polygon points="218.302,115.616 240.587,93.33 226.445,93.33 211.23,108.544 177.07,142.704 177.07,156.847 
									202.538,131.378 								"/>
								<polygon points="328.833,269.822 353.563,245.093 353.563,230.949 314.69,269.822 								"/>
								<polygon points="352.931,269.822 353.563,269.191 353.563,261.835 345.576,269.822 								"/>
								<polygon points="299.475,196.791 226.445,269.822 240.587,269.822 290.784,219.625 353.563,156.847 353.563,142.704 
									299.476,196.791 								"/>
								<polygon points="326.686,222.891 279.756,269.822 282.098,269.822 312.094,239.824 312.094,239.824 353.563,198.358 
									353.563,196.015 326.687,222.891 								"/>
								<polygon points="302.779,269.822 304.19,269.822 319.403,254.608 319.404,254.608 353.563,220.449 353.563,219.04 
									334.461,238.141 								"/>
								<polygon points="257.33,269.822 264.686,269.822 305.125,229.382 353.563,180.944 353.563,173.588 317.21,209.942 								
									"/>
								<polygon points="290.583,269.822 294.789,269.822 313.445,251.166 353.563,211.048 353.563,206.842 327.105,233.3 								
									"/>
							</g>
						</g>
						<g clip-path="url(#SVGID_6_)">
							<rect x="0.577" y="93.33" fill="none" width="176.493" height="176.492"/>
							<g>
								<polygon fill="none" points="0.577,93.33 177.07,93.33 177.07,269.822 0.577,269.822 								"/>
								<polygon points="150.194,134.645 150.193,134.645 61.947,222.891 15.016,269.822 17.359,269.822 47.356,239.824 
									135.602,151.579 135.602,151.579 177.07,110.112 177.07,107.769 								"/>
								<polygon points="105.605,93.33 103.263,93.33 61.947,134.645 0.577,196.015 0.577,198.358 47.356,151.579 								"/>
								<polygon points="127.697,93.33 126.286,93.33 69.721,149.896 69.72,149.896 0.577,219.04 0.577,220.449 54.664,166.363 
																	"/>
								<polygon points="40.384,141.137 88.193,93.33 80.837,93.33 52.47,121.697 52.469,121.697 0.577,173.588 0.577,180.944 
																	"/>
								<polygon points="48.705,162.92 118.296,93.33 114.09,93.33 62.365,145.054 62.365,145.054 0.577,206.842 0.577,211.048 
																	"/>
								<polygon points="15.016,93.33 0.577,107.769 0.577,110.112 17.359,93.33 								"/>
								<polygon points="38.041,93.33 0.577,130.792 0.577,132.205 39.451,93.33 								"/>
								<polygon points="25.844,93.33 0.577,118.596 0.577,122.802 30.049,93.33 								"/>
								<polygon points="114.291,131.378 130.055,115.616 152.339,93.33 138.197,93.33 122.983,108.544 122.982,108.544 
									34.737,196.791 0.577,230.949 0.577,245.093 26.045,219.625 								"/>
								<polygon points="69.721,238.141 69.72,238.141 38.041,269.822 39.451,269.822 54.664,254.608 142.91,166.363 
									142.911,166.363 177.07,132.205 177.07,130.792 157.968,149.896 								"/>
								<polygon points="40.384,229.382 128.632,141.137 176.438,93.33 169.083,93.33 140.717,121.697 52.47,209.942 
									52.469,209.942 0.577,261.835 0.577,269.191 								"/>
								<polygon points="62.365,233.3 62.365,233.3 25.844,269.822 30.049,269.822 48.705,251.166 48.705,251.166 136.951,162.92 
									177.07,122.802 177.07,118.596 150.612,145.054 								"/>
								<polygon points="41.809,115.616 64.094,93.33 49.952,93.33 34.737,108.544 0.577,142.704 0.577,156.847 26.045,131.378 
																	"/>
								<polygon points="152.339,269.822 177.07,245.093 177.07,230.949 138.197,269.822 								"/>
								<polygon points="176.438,269.822 177.07,269.191 177.07,261.835 169.083,269.822 								"/>
								<polygon points="122.982,196.791 49.952,269.822 64.094,269.822 114.291,219.625 177.07,156.847 177.07,142.704 
									122.983,196.791 								"/>
								<polygon points="150.193,222.891 103.263,269.822 105.605,269.822 135.602,239.824 135.602,239.824 177.07,198.358 
									177.07,196.015 150.194,222.891 								"/>
								<polygon points="126.286,269.822 127.697,269.822 142.91,254.608 142.911,254.608 177.07,220.449 177.07,219.04 
									157.968,238.141 								"/>
								<polygon points="80.837,269.822 88.193,269.822 128.632,229.382 177.07,180.944 177.07,173.588 140.717,209.942 								"/>
								<polygon points="114.09,269.822 118.296,269.822 136.951,251.166 177.07,211.048 177.07,206.842 150.612,233.3 								"/>
							</g>
						</g>
					</g>
				</g>
			</g>
		</g>
	</g>
	<g enable-background="new    ">
		<path fill="#F6AE3F" d="M238.377,59.186l-5.296,5.295c-0.469,0.553-0.373,1.256,0.29,2.11l-1.283,1.159
			c-1.089-1.09-1.634-2.187-1.634-3.289c-1.793-0.689-3.311-1.654-4.551-2.896c-0.952-0.951-1.406-1.945-1.365-2.979
			s0.565-2.054,1.572-3.061c1.006-1.007,2.003-1.493,2.988-1.458c0.986,0.034,2.079,0.541,3.279,1.52l3.559,2.938l0.889-0.889
			c0.703-0.703,1.055-1.359,1.055-1.967c0-0.605-0.262-1.172-0.785-1.695c-1.104-1.104-2.316-2.18-3.641-3.227l-0.704-0.579
			l1.118-1.241c1.819,1.213,3.316,2.406,4.488,3.578s1.754,2.293,1.748,3.361C240.096,56.934,239.52,58.042,238.377,59.186z
			 M227.786,57.035c-1.27,1.269-1.38,2.427-0.332,3.476c0.938,0.938,2.021,1.703,3.248,2.295l0.642,0.312l3.413-3.413l-3.352-2.773
			c-0.675-0.564-1.303-0.833-1.882-0.806C228.944,56.153,228.364,56.456,227.786,57.035z"/>
		<path fill="#F6AE3F" d="M235.77,71.018l-1.551-1.551l10.342-10.344l1.531,1.531l-0.725,0.723c1.737,0.498,3.117,1.256,4.138,2.276
			c1.379,1.379,1.935,2.679,1.665,3.899s-1.355,2.781-3.258,4.685l-5.461,5.462l-1.531-1.531l5.42-5.42
			c1.434-1.434,2.275-2.557,2.523-3.371c0.248-0.813-0.09-1.684-1.014-2.607c-0.441-0.441-0.973-0.84-1.592-1.199
			c-0.621-0.357-1.125-0.607-1.511-0.744l-0.579-0.207L235.77,71.018z"/>
		<path fill="#F6AE3F" d="M259.848,80.657l-5.296,5.296c-0.469,0.552-0.373,1.256,0.29,2.11l-1.283,1.158
			c-1.09-1.089-1.635-2.186-1.634-3.289c-1.793-0.689-3.311-1.654-4.552-2.896c-0.951-0.952-1.406-1.945-1.365-2.979
			c0.042-1.034,0.566-2.055,1.572-3.061c1.007-1.007,2.004-1.494,2.989-1.459s2.079,0.541,3.278,1.521l3.559,2.937l0.89-0.889
			c0.703-0.703,1.055-1.358,1.055-1.966c0-0.606-0.262-1.172-0.786-1.696c-1.104-1.104-2.316-2.179-3.641-3.227l-0.703-0.578
			l1.117-1.242c1.82,1.213,3.316,2.406,4.488,3.578s1.754,2.293,1.748,3.361C261.568,78.406,260.992,79.513,259.848,80.657z
			 M249.257,78.506c-1.269,1.269-1.379,2.426-0.331,3.475c0.938,0.938,2.021,1.703,3.249,2.297l0.641,0.311l3.412-3.414
			l-3.351-2.772c-0.675-0.565-1.304-0.833-1.882-0.806C250.415,77.624,249.836,77.927,249.257,78.506z"/>
		<path fill="#F6AE3F" d="M255.814,91.062l14.853-14.853l1.551,1.551l-14.852,14.854L255.814,91.062z"/>
		<path fill="#F6AE3F" d="M260.468,95.715l10.344-10.342l1.551,1.551l-10.343,10.343L260.468,95.715z M273.148,83.036l1.8-1.8
			l1.551,1.552l-1.799,1.799L273.148,83.036z"/>
		<path fill="#F6AE3F" d="M277.41,94.33c-1.503-1.503-2.778-1.729-3.827-0.682c-0.482,0.482-0.652,0.997-0.508,1.54
			c0.145,0.545,0.725,1.538,1.738,2.979c1.014,1.44,1.582,2.61,1.707,3.507c0.124,0.896-0.346,1.875-1.407,2.937
			s-2.182,1.5-3.36,1.313c-1.18-0.187-2.425-0.934-3.734-2.244c-0.855-0.855-1.766-1.958-2.73-3.31l-0.518-0.726l1.428-1.261
			c1.338,1.808,2.406,3.109,3.207,3.909c0.799,0.8,1.537,1.283,2.213,1.448c0.675,0.166,1.312-0.052,1.913-0.651
			s0.827-1.186,0.683-1.758s-0.729-1.562-1.748-2.969s-1.6-2.551-1.738-3.434c-0.137-0.883,0.297-1.828,1.304-2.834
			c1.007-1.007,2.106-1.396,3.3-1.168c1.192,0.227,2.32,0.871,3.382,1.933c0.841,0.841,1.8,1.993,2.875,3.455l0.477,0.683
			l-1.366,1.283C279.388,96.53,278.293,95.212,277.41,94.33z"/>
		<path fill="#F6AE3F" d="M274.617,109.865l10.343-10.343l1.551,1.551l-10.342,10.344L274.617,109.865z M287.298,97.184l1.799-1.799
			l1.552,1.551l-1.8,1.8L287.298,97.184z"/>
		<path fill="#F6AE3F" d="M291.559,108.479c-1.504-1.504-2.779-1.73-3.828-0.682c-0.482,0.482-0.651,0.996-0.507,1.54
			c0.145,0.545,0.724,1.538,1.737,2.979c1.015,1.44,1.583,2.609,1.707,3.506c0.125,0.896-0.345,1.875-1.406,2.938
			c-1.062,1.062-2.182,1.5-3.361,1.313s-2.425-0.935-3.734-2.244c-0.855-0.855-1.766-1.958-2.73-3.31l-0.517-0.726l1.427-1.261
			c1.338,1.807,2.406,3.109,3.207,3.909c0.799,0.8,1.537,1.283,2.213,1.448c0.676,0.166,1.313-0.052,1.914-0.652
			c0.6-0.6,0.827-1.186,0.682-1.758c-0.145-0.572-0.728-1.562-1.748-2.969c-1.02-1.406-1.6-2.551-1.737-3.433
			c-0.138-0.884,0.297-1.828,1.304-2.835c1.006-1.006,2.105-1.396,3.299-1.168c1.193,0.227,2.32,0.871,3.383,1.934
			c0.841,0.841,1.799,1.992,2.875,3.455l0.477,0.682l-1.366,1.283C293.538,110.678,292.441,109.361,291.559,108.479z"/>
	</g>
	<g enable-background="new    ">
		<path fill="#8DBC44" d="M120.502,303.904l-1.551-1.552l10.343-10.342l1.551,1.551l-0.724,0.724
			c1.654,0.414,2.986,1.124,3.993,2.13c1.407,1.407,1.976,2.707,1.707,3.9c-0.269,1.192-1.389,2.775-3.362,4.748l-5.399,5.398
			l-1.552-1.552l5.378-5.378c1.503-1.504,2.379-2.641,2.627-3.414c0.249-0.771-0.089-1.619-1.014-2.543
			c-0.455-0.455-0.982-0.853-1.583-1.19c-0.599-0.337-1.086-0.568-1.458-0.692l-0.559-0.187L120.502,303.904z"/>
		<path fill="#8DBC44" d="M117.007,300.409l-1.696-1.697l1.531-6.577l-6.578,1.53l-1.696-1.696l8.42-1.841l1.944-8.48l1.696,1.695
			l-1.53,6.537l6.557-1.51l1.696,1.695l-8.419,1.924L117.007,300.409z"/>
		<path fill="#8DBC44" d="M113.035,276.165l-20.271,8.605l-0.869-1.903l20.251-8.584L113.035,276.165z"/>
		<path fill="#8DBC44" d="M76.546,268.967l14.853-14.853l1.53,1.53l-0.704,0.703c1.67,0.455,3.021,1.199,4.056,2.234
			c0.552,0.551,0.964,1.104,1.24,1.654c0.276,0.551,0.415,1.187,0.415,1.903c0,1.489-1.004,3.237-3.011,5.244
			s-3.788,3.12-5.347,3.341c-1.558,0.221-3.11-0.441-4.654-1.985c-0.8-0.8-1.558-1.737-2.275-2.814l-4.572,4.572L76.546,268.967z
			 M95.453,260.817c-0.151-0.346-0.424-0.714-0.817-1.107c-0.393-0.393-0.899-0.769-1.52-1.127
			c-0.621-0.359-1.131-0.613-1.531-0.766l-0.6-0.228l-7.012,7.013c0.717,1.049,1.455,1.951,2.213,2.71
			c1.048,1.048,2.113,1.444,3.196,1.19c1.083-0.256,2.327-1.088,3.734-2.494c1.6-1.6,2.435-2.916,2.503-3.951
			C95.66,261.575,95.605,261.162,95.453,260.817z"/>
		<path fill="#8DBC44" d="M80.084,245.364l-0.662-0.537l1.179-1.262c1.792,1.352,3.248,2.585,4.365,3.702
			c1.489,1.489,2.113,2.976,1.872,4.458c-0.241,1.482-1.272,3.135-3.092,4.954c-3.627,3.627-6.882,4-9.764,1.118
			c-1.393-1.393-2.044-2.824-1.955-4.293c0.09-1.469,0.969-3.037,2.638-4.706l1.262-1.097l6.826,6.826
			c1.144-1.144,1.786-2.199,1.923-3.164c0.138-0.966-0.307-1.961-1.334-2.988S81.229,246.343,80.084,245.364z M76.153,250.413
			c-1.268,1.268-1.961,2.367-2.078,3.299s0.282,1.855,1.199,2.771c0.917,0.918,1.882,1.331,2.896,1.241
			c1.014-0.089,2.135-0.734,3.361-1.934L76.153,250.413z"/>
		<path fill="#8DBC44" d="M65.541,246.585c1.503,1.503,2.779,1.729,3.827,0.682c0.482-0.482,0.652-0.996,0.507-1.54
			c-0.145-0.545-0.724-1.538-1.738-2.979c-1.014-1.44-1.582-2.609-1.707-3.507c-0.125-0.896,0.345-1.875,1.407-2.937
			s2.182-1.5,3.361-1.313s2.425,0.934,3.735,2.244c0.855,0.855,1.765,1.958,2.73,3.311l0.517,0.725l-1.427,1.261
			c-1.337-1.808-2.406-3.109-3.206-3.909s-1.537-1.283-2.214-1.448c-0.675-0.166-1.313,0.052-1.913,0.651s-0.827,1.187-0.682,1.758
			c0.145,0.572,0.728,1.562,1.748,2.969s1.6,2.551,1.738,3.434c0.137,0.883-0.297,1.828-1.304,2.834
			c-1.007,1.007-2.106,1.396-3.299,1.168c-1.193-0.227-2.32-0.871-3.382-1.933c-0.841-0.841-1.8-1.993-2.875-3.455l-0.477-0.683
			l1.366-1.283C63.563,244.385,64.659,245.704,65.541,246.585z"/>
		<path fill="#8DBC44" d="M55.654,243.731l-1.8,1.799l-1.551-1.551l1.8-1.8L55.654,243.731z M68.334,231.05l-10.343,10.343
			l-1.551-1.551l10.343-10.344L68.334,231.05z"/>
		<path fill="#8DBC44" d="M64.673,217.667c1.655,1.654,2.586,3.034,2.792,4.137c0.207,1.104-0.283,2.248-1.469,3.435
			c-0.565,0.565-1.148,0.899-1.748,1.003s-1.417,0.079-2.451-0.072c0.125,0.648-0.158,1.316-0.848,2.006
			c-0.235,0.235-0.841,0.497-1.821,0.787l-0.517,0.145c0.592,1.586,0.097,3.171-1.49,4.758c-2.358,2.357-4.827,2.248-7.406-0.331
			c-0.662-0.662-1.206-1.345-1.634-2.048l-0.248-0.373l-3.145-2.979l1.324-1.324l1.924,2.008c0-0.91,0.462-1.828,1.386-2.752
			c1.296-1.297,2.523-1.883,3.682-1.758c1.158,0.123,2.427,0.875,3.806,2.254c0.372,0.373,0.684,0.738,0.931,1.097
			c0.856-0.358,1.372-0.628,1.551-0.808c0.427-0.427,0.562-0.823,0.403-1.188c-0.159-0.366-0.9-1.211-2.224-2.535
			c-1.324-1.324-2.068-2.482-2.233-3.475c-0.166-0.994,0.351-2.09,1.551-3.289C58.985,214.17,61.612,214.605,64.673,217.667z
			 M55.572,232.312c0.813-0.813,1.21-1.576,1.189-2.286c-0.02-0.71-0.452-1.485-1.293-2.326c-0.841-0.842-1.613-1.27-2.316-1.283
			c-0.703-0.014-1.465,0.39-2.286,1.21s-1.224,1.583-1.21,2.286c0.014,0.703,0.442,1.476,1.283,2.316
			c0.841,0.842,1.621,1.27,2.337,1.283C53.992,233.525,54.758,233.125,55.572,232.312z M64.342,223.831
			c0.731-0.73,1.035-1.441,0.91-2.131c-0.123-0.689-0.733-1.582-1.83-2.679c-1.097-1.097-2.034-1.73-2.814-1.902
			c-0.779-0.173-1.523,0.097-2.233,0.806c-0.711,0.711-0.997,1.342-0.858,1.893c0.137,0.553,0.709,1.332,1.716,2.339l2.13,2.337
			c0.787,0.124,1.383,0.143,1.79,0.051C63.559,224.456,63.955,224.217,64.342,223.831z"/>
		<path fill="#8DBC44" d="M51.62,214.336l1.551,1.551l-10.343,10.344l-1.531-1.531l0.724-0.724
			c-1.737-0.497-3.116-1.255-4.137-2.275c-1.379-1.379-1.935-2.679-1.665-3.899c0.269-1.221,1.354-2.782,3.257-4.686l5.461-5.461
			l1.531,1.531l-5.42,5.42c-1.434,1.434-2.274,2.557-2.523,3.371c-0.248,0.813,0.089,1.684,1.013,2.606
			c0.442,0.442,0.973,0.841,1.593,1.2c0.621,0.357,1.124,0.607,1.51,0.744l0.58,0.207L51.62,214.336z"/>
	</g>
	<g enable-background="new    ">
		<path fill="#E12924" d="M45.184,116.881l14.853,14.853l-1.53,1.531l-0.704-0.704c-0.454,1.67-1.198,3.021-2.233,4.055
			c-0.551,0.552-1.104,0.965-1.655,1.241c-0.551,0.276-1.186,0.414-1.902,0.414c-1.489,0-3.237-1.003-5.245-3.01
			c-2.006-2.007-3.119-3.789-3.34-5.348c-0.221-1.558,0.441-3.109,1.985-4.654c0.8-0.8,1.737-1.558,2.813-2.275l-4.572-4.572
			L45.184,116.881z M53.335,135.789c0.346-0.152,0.714-0.425,1.106-0.817c0.394-0.393,0.77-0.899,1.128-1.52
			s0.613-1.131,0.766-1.531l0.227-0.6l-7.012-7.012c-1.049,0.717-1.952,1.455-2.71,2.213c-1.048,1.048-1.444,2.113-1.19,3.196
			c0.256,1.083,1.087,2.328,2.494,3.734c1.6,1.6,2.916,2.434,3.951,2.503C52.577,135.996,52.99,135.94,53.335,135.789z"/>
		<path fill="#E12924" d="M68.787,120.419l0.538-0.662l1.262,1.179c-1.352,1.792-2.586,3.248-3.703,4.365
			c-1.488,1.489-2.975,2.113-4.457,1.871c-1.483-0.241-3.135-1.272-4.954-3.092c-3.627-3.627-4.001-6.881-1.118-9.764
			c1.393-1.393,2.824-2.044,4.293-1.955c1.469,0.09,3.037,0.969,4.706,2.637l1.097,1.262l-6.826,6.826
			c1.144,1.144,2.199,1.787,3.164,1.923c0.965,0.138,1.961-0.307,2.988-1.334C66.803,122.65,67.807,121.564,68.787,120.419z
			 M63.739,116.488c-1.268-1.268-2.367-1.961-3.299-2.078s-1.855,0.283-2.772,1.2s-1.331,1.882-1.241,2.896
			c0.09,1.014,0.734,2.135,1.935,3.361L63.739,116.488z"/>
		<path fill="#E12924" d="M67.565,105.877c-1.502,1.503-1.729,2.779-0.682,3.827c0.482,0.482,0.997,0.652,1.541,0.507
			c0.545-0.144,1.537-0.724,2.979-1.737c1.441-1.014,2.61-1.583,3.508-1.707c0.895-0.124,1.875,0.345,2.937,1.407
			s1.499,2.182,1.313,3.361c-0.188,1.179-0.934,2.424-2.244,3.734c-0.855,0.855-1.959,1.765-3.311,2.73l-0.725,0.517l-1.262-1.427
			c1.809-1.338,3.11-2.407,3.91-3.207s1.283-1.537,1.447-2.213c0.166-0.675-0.051-1.313-0.65-1.914s-1.187-0.827-1.758-0.682
			c-0.573,0.145-1.562,0.728-2.969,1.748c-1.407,1.021-2.552,1.601-3.434,1.738c-0.883,0.137-1.828-0.297-2.834-1.303
			c-1.008-1.007-1.396-2.106-1.168-3.3c0.227-1.192,0.871-2.32,1.933-3.382c0.841-0.841,1.993-1.799,3.455-2.875l0.683-0.476
			l1.282,1.366C69.766,103.898,68.448,104.994,67.565,105.877z"/>
		<path fill="#E12924" d="M83.184,94.148l5.295,5.295c0.552,0.469,1.256,0.373,2.109-0.29l1.16,1.283
			c-1.09,1.089-2.188,1.634-3.29,1.633c-0.689,1.793-1.654,3.311-2.896,4.552c-0.951,0.952-1.945,1.406-2.979,1.364
			c-1.034-0.041-2.054-0.565-3.062-1.572c-1.006-1.006-1.492-2.003-1.458-2.989s0.542-2.079,1.521-3.278l2.938-3.559l-0.89-0.889
			c-0.703-0.703-1.358-1.055-1.966-1.055c-0.606,0-1.172,0.262-1.695,0.786c-1.104,1.104-2.18,2.317-3.228,3.641l-0.579,0.704
			l-1.241-1.118c1.214-1.82,2.406-3.316,3.579-4.489c1.172-1.172,2.293-1.754,3.361-1.748C80.932,92.428,82.04,93.004,83.184,94.148
			z M81.032,104.739c1.27,1.269,2.428,1.379,3.476,0.332c0.938-0.938,1.704-2.02,2.296-3.249l0.311-0.641l-3.412-3.413l-2.773,3.351
			c-0.564,0.675-0.834,1.303-0.807,1.882C80.15,103.582,80.454,104.161,81.032,104.739z"/>
		<path fill="#E12924" d="M93.465,98.306L83.122,87.963l1.53-1.53l1.407,1.407c0.373-2.027,1.09-3.834,2.15-5.42l1.572,1.572
			c-0.469,0.689-0.9,1.465-1.293,2.327s-0.664,1.548-0.816,2.058l-0.248,0.786l7.592,7.591L93.465,98.306z"/>
		<path fill="#E12924" d="M100.622,91.149L90.279,80.806l1.53-1.531l1.407,1.407c0.372-2.027,1.089-3.833,2.151-5.419l1.572,1.572
			c-0.469,0.689-0.9,1.465-1.293,2.327c-0.393,0.863-0.666,1.548-0.817,2.059l-0.248,0.786l7.591,7.591L100.622,91.149z"/>
		<path fill="#E12924" d="M101.925,79.462c-1.889-1.889-2.916-3.592-3.082-5.109c-0.165-1.517,0.555-3.079,2.162-4.686
			c1.605-1.606,3.165-2.323,4.675-2.151c1.511,0.172,3.21,1.203,5.099,3.092c1.89,1.889,2.944,3.579,3.165,5.068
			c0.222,1.49-0.51,3.076-2.192,4.758c-1.683,1.683-3.269,2.414-4.758,2.192C105.503,82.406,103.814,81.351,101.925,79.462z
			 M103.487,77.838c1.51,1.51,2.751,2.386,3.723,2.627c0.973,0.242,2.041-0.22,3.207-1.386c1.164-1.165,1.627-2.227,1.385-3.186
			c-0.24-0.958-1.119-2.196-2.637-3.713c-1.517-1.517-2.762-2.361-3.733-2.534c-0.973-0.173-2,0.282-3.083,1.365
			c-1.082,1.083-1.541,2.114-1.375,3.093C101.139,75.084,101.976,76.328,103.487,77.838z"/>
		<path fill="#E12924" d="M118.618,73.153L103.765,58.3l1.552-1.552l14.853,14.853L118.618,73.153z"/>
		<path fill="#E12924" d="M123.396,68.375l-14.853-14.853l1.552-1.552l14.853,14.853L123.396,68.375z"/>
		<path fill="#E12924" d="M122.403,58.983c-1.889-1.889-2.916-3.592-3.082-5.109c-0.165-1.516,0.555-3.079,2.162-4.686
			c1.605-1.606,3.165-2.323,4.676-2.151c1.51,0.173,3.209,1.204,5.098,3.093c1.89,1.889,2.944,3.579,3.165,5.068
			c0.222,1.49-0.509,3.076-2.192,4.758c-1.682,1.683-3.269,2.414-4.758,2.192C125.981,61.928,124.293,60.873,122.403,58.983z
			 M123.966,57.359c1.51,1.51,2.751,2.386,3.723,2.627c0.973,0.242,2.041-0.22,3.207-1.386c1.165-1.166,1.627-2.227,1.385-3.186
			c-0.24-0.958-1.119-2.196-2.637-3.713c-1.517-1.517-2.762-2.361-3.732-2.534c-0.974-0.172-2.001,0.283-3.084,1.365
			c-1.082,1.083-1.541,2.113-1.375,3.093C121.618,54.605,122.455,55.849,123.966,57.359z"/>
	</g>
	<g enable-background="new    ">
		<path fill="#36B4B7" d="M252.693,271.519l-3.288,3.288l4.943,4.945c1.186,1.186,2.051,1.878,2.596,2.078s1.141-0.024,1.789-0.673
			l1.717-1.964l1.387,1.178c-0.773,1.076-1.4,1.855-1.883,2.338c-1.075,1.076-2.082,1.559-3.02,1.447
			c-0.938-0.109-2.145-0.902-3.621-2.378l-5.439-5.44l-1.469,1.469l-1.345-1.345l1.468-1.468l-3.164-3.166l1.531-1.531l3.164,3.166
			l3.289-3.289L252.693,271.519z"/>
		<path fill="#36B4B7" d="M269.345,270.298l0.538-0.662l1.262,1.179c-1.353,1.793-2.586,3.248-3.703,4.365
			c-1.488,1.49-2.975,2.113-4.458,1.872c-1.482-0.241-3.134-1.272-4.954-3.093c-3.627-3.627-4-6.881-1.117-9.764
			c1.393-1.393,2.824-2.044,4.293-1.955c1.469,0.09,3.037,0.97,4.705,2.639l1.097,1.262l-6.826,6.826
			c1.144,1.145,2.2,1.786,3.165,1.924c0.965,0.137,1.961-0.308,2.988-1.335S268.366,271.444,269.345,270.298z M264.298,266.368
			c-1.268-1.268-2.368-1.961-3.299-2.078c-0.932-0.117-1.855,0.282-2.772,1.199s-1.331,1.883-1.241,2.896s0.734,2.135,1.934,3.361
			L264.298,266.368z"/>
		<path fill="#36B4B7" d="M268.124,255.756c-1.503,1.503-1.729,2.778-0.682,3.826c0.482,0.482,0.996,0.652,1.541,0.508
			s1.537-0.725,2.979-1.738s2.609-1.582,3.507-1.706c0.896-0.124,1.875,0.345,2.937,1.407c1.062,1.062,1.5,2.182,1.314,3.36
			c-0.188,1.179-0.935,2.425-2.244,3.734c-0.855,0.855-1.959,1.765-3.311,2.729l-0.725,0.518l-1.262-1.428
			c1.808-1.337,3.109-2.406,3.91-3.206c0.799-0.8,1.283-1.536,1.447-2.214c0.166-0.674-0.051-1.312-0.65-1.912
			c-0.601-0.601-1.188-0.828-1.759-0.683c-0.572,0.145-1.562,0.728-2.968,1.747c-1.407,1.021-2.552,1.601-3.434,1.738
			c-0.884,0.138-1.828-0.297-2.834-1.303c-1.008-1.008-1.396-2.107-1.169-3.3s0.871-2.32,1.933-3.382
			c0.842-0.842,1.994-1.801,3.455-2.875l0.684-0.477l1.282,1.365C270.325,253.778,269.007,254.874,268.124,255.756z"/>
		<path fill="#36B4B7" d="M280.018,244.194l-3.289,3.289l4.945,4.943c1.186,1.186,2.05,1.879,2.596,2.079
			c0.545,0.2,1.141-0.024,1.789-0.673l1.717-1.965l1.386,1.179c-0.772,1.076-1.399,1.855-1.882,2.339
			c-1.076,1.074-2.083,1.558-3.021,1.447c-0.938-0.111-2.144-0.903-3.619-2.379l-5.44-5.44l-1.468,1.468l-1.346-1.344l1.469-1.469
			l-3.165-3.165l1.53-1.53l3.166,3.164l3.289-3.289L280.018,244.194z"/>
	</g>
</g>
</svg>
