<!-- Generator: Adobe Illustrator 19.0.0, SVG Export Plug-In  -->
<svg version="1.1"
	 xmlns="http://www.w3.org/2000/svg" xmlns:xlink="http://www.w3.org/1999/xlink" xmlns:a="http://ns.adobe.com/AdobeSVGViewerExtensions/3.0/"
	 x="0px" y="0px" width="387.5px" height="43.3px" viewBox="0 0 387.5 43.3" style="enable-background:new 0 0 387.5 43.3;"
	 xml:space="preserve">
<defs>
</defs>
<g id="XMLID_91_">
	<path id="XMLID_144_" class="st0" d="M58.6,38.1c-0.1,0.6-0.2,1.2-0.4,1.6c-0.2,0.5-0.5,0.9-0.8,1.2c-0.7,0.7-1.6,1-2.6,1
		c-1.2,0-2.2-0.5-2.9-1.4c-0.7-0.8-1-1.8-1-3.1c0-1.3,0.3-2.4,1-3.2c0.8-0.9,1.8-1.4,3-1.4c0.9,0,1.6,0.3,2.3,0.8
		c0.8,0.6,1.2,1.4,1.2,2.4h-0.7c-0.1-0.8-0.4-1.4-0.9-1.8c-0.5-0.4-1.2-0.6-1.8-0.6c-1,0-1.8,0.4-2.5,1.2c-0.6,0.7-0.9,1.6-0.9,2.7
		c0,1,0.3,1.9,0.9,2.6c0.6,0.8,1.4,1.1,2.4,1.1c0.9,0,1.6-0.3,2.1-0.8c0.3-0.3,0.5-0.6,0.6-1s0.3-0.8,0.3-1.4H58.6z"/>
	<path id="XMLID_141_" class="st0" d="M69.9,41.8l-1.7-3.8h-3.1v3.8h-0.7v-8.7H68c1.8,0,2.7,0.8,2.7,2.3c0,1.2-0.6,2-1.8,2.4
		c0.3,0.6,0.6,1.3,0.9,2c0.3,0.7,0.6,1.4,0.9,2H69.9z M70,35.4c0-1.1-0.7-1.6-2-1.6h-2.9v3.4h2.8c0.6,0,1.1-0.2,1.5-0.5l0,0
		C69.8,36.5,70,36,70,35.4z"/>
	<path id="XMLID_139_" class="st0" d="M82.4,41.8h-5.9v-8.7h5.8v0.7h-5.2v3.1h4.9v0.7h-4.9v3.5h5.2V41.8z"/>
	<path id="XMLID_136_" class="st0" d="M94.9,41.8h-0.7l-1.1-2.7h-3.8c-0.2,0.4-0.4,0.9-0.6,1.4c-0.2,0.5-0.4,0.9-0.5,1.3h-0.8
		l3.5-8.7h0.6L94.9,41.8z M92.9,38.4c-0.1-0.4-0.3-0.7-0.4-1.1c-0.1-0.3-0.3-0.7-0.4-1c-0.1-0.3-0.3-0.7-0.4-1s-0.3-0.7-0.4-1.1
		c-0.3,0.7-0.6,1.4-0.8,2.1s-0.5,1.4-0.8,2.1H92.9z"/>
	<path id="XMLID_134_" class="st0" d="M108.6,41.8h-0.7l0-7.1c-0.5,1.2-1,2.4-1.5,3.5c-0.5,1.2-1,2.4-1.5,3.5h-0.6l-3.1-7v7h-0.7
		v-8.7h0.7l3.3,7.6c0.5-1.2,1.1-2.5,1.7-3.8c0.6-1.3,1.1-2.5,1.6-3.8h0.7V41.8z"/>
	<path id="XMLID_131_" class="st0" d="M122.5,37.4c0,1.3-0.3,2.3-1,3.1c-0.8,0.9-1.7,1.4-3,1.4c-1.2,0-2.2-0.5-3-1.4
		c-0.7-0.8-1-1.9-1-3.1c0-1.3,0.3-2.3,1-3.1c0.8-0.9,1.7-1.4,3-1.4c1.2,0,2.2,0.5,3,1.4C122.1,35.1,122.5,36.2,122.5,37.4z
		 M121.8,37.4c0-1.1-0.3-2-0.8-2.7c-0.6-0.8-1.4-1.1-2.4-1.1c-1,0-1.9,0.4-2.5,1.1c-0.6,0.7-0.8,1.6-0.8,2.7c0,1.1,0.3,2,0.8,2.7
		c0.6,0.8,1.4,1.1,2.5,1.1c1,0,1.8-0.4,2.4-1.1C121.5,39.4,121.8,38.5,121.8,37.4z"/>
	<path id="XMLID_129_" class="st0" d="M134.7,39.5c0,0.4-0.1,0.8-0.3,1.1c-0.2,0.3-0.4,0.6-0.8,0.8c-0.3,0.2-0.6,0.3-0.9,0.4
		c-0.3,0.1-0.7,0.1-1.1,0.1c-0.5,0-1-0.1-1.4-0.2c-0.4-0.1-0.8-0.3-1.1-0.6c-0.6-0.6-1-1.4-1-2.6h0.7c0,1.8,0.9,2.7,2.7,2.7
		c0.7,0,1.2-0.1,1.7-0.4c0.2-0.2,0.4-0.4,0.5-0.6c0.1-0.2,0.2-0.5,0.2-0.8c0-0.7-0.4-1.2-1.3-1.5h0c-0.1,0-0.1,0-0.2-0.1
		c-0.1,0-0.2,0-0.2-0.1c-0.4-0.1-0.7-0.2-1.1-0.3c-0.4-0.1-0.8-0.2-1.2-0.3c-1-0.4-1.5-1-1.5-2c0-0.8,0.3-1.4,1-1.8
		c0.5-0.3,1.2-0.5,2-0.5c2,0,3,1,3.1,2.9h-0.7c0-1.5-0.9-2.3-2.4-2.3c-0.7,0-1.2,0.1-1.6,0.4c-0.5,0.3-0.7,0.7-0.7,1.3
		c0,0.7,0.4,1.2,1.3,1.4h0c0.2,0.1,0.4,0.1,0.7,0.2c0.2,0.1,0.4,0.1,0.7,0.2c0.2,0.1,0.5,0.1,0.7,0.2c0.2,0.1,0.5,0.1,0.7,0.2
		C134.2,37.8,134.7,38.5,134.7,39.5z"/>
	<path id="XMLID_127_" class="st0" d="M158.6,33.1l-2.5,8.7h-0.6l-2.2-7.3c-0.4,1.2-0.7,2.4-1.1,3.7c-0.4,1.2-0.7,2.5-1.1,3.7h-0.6
		l-2.5-8.7h0.7l2.1,7.3c0.4-1.2,0.7-2.4,1.1-3.7c0.4-1.2,0.7-2.4,1.1-3.6h0.7l2.2,7.3c0.4-1.2,0.7-2.4,1-3.7c0.3-1.2,0.7-2.5,1-3.7
		H158.6z"/>
	<path id="XMLID_125_" class="st0" d="M170.4,41.8h-5.9v-8.7h5.8v0.7h-5.2v3.1h4.9v0.7h-4.9v3.5h5.2V41.8z"/>
	<path id="XMLID_121_" class="st0" d="M182.3,39.3c0,0.8-0.3,1.4-0.9,1.9c-0.5,0.4-1.2,0.6-2,0.6h-3.6v-8.7h3.7
		c0.7,0,1.3,0.2,1.8,0.6c0.5,0.4,0.7,1,0.7,1.7c0,0.3,0,0.5-0.1,0.8s-0.2,0.5-0.4,0.7c-0.1,0.1-0.2,0.2-0.3,0.2
		c-0.1,0.1-0.2,0.1-0.3,0.2c0.3,0.1,0.5,0.3,0.7,0.5h0C182.1,38.1,182.3,38.7,182.3,39.3z M181.4,35.4c0-0.2,0-0.5-0.1-0.7
		c-0.1-0.2-0.2-0.4-0.4-0.5c-0.4-0.3-0.8-0.4-1.3-0.4h-3v3.1h3c0.5,0,1-0.1,1.3-0.4C181.2,36.2,181.4,35.9,181.4,35.4z M181.6,39.3
		c0-0.6-0.2-1-0.6-1.3c-0.2-0.1-0.4-0.2-0.6-0.3c-0.2-0.1-0.5-0.1-0.8-0.1h-3v3.5h3c0.6,0,1.1-0.1,1.5-0.4
		C181.4,40.3,181.6,39.9,181.6,39.3z"/>
	<path id="XMLID_119_" class="st0" d="M202.9,33.1l-3.5,5v3.6h-0.7v-3.6c-0.3-0.4-0.6-0.8-0.8-1.2s-0.6-0.9-0.9-1.3
		s-0.6-0.9-0.9-1.3c-0.3-0.4-0.6-0.8-0.8-1.2h0.8l3,4.3c0.5-0.7,1-1.5,1.5-2.2s1-1.4,1.5-2.2H202.9z"/>
	<path id="XMLID_116_" class="st0" d="M222.9,41.8h-0.7l-1.1-2.7h-3.8c-0.2,0.4-0.4,0.9-0.6,1.4c-0.2,0.5-0.4,0.9-0.5,1.3h-0.8
		l3.5-8.7h0.6L222.9,41.8z M220.9,38.4c-0.1-0.4-0.3-0.7-0.4-1.1s-0.3-0.7-0.4-1c-0.1-0.3-0.3-0.7-0.4-1s-0.3-0.7-0.4-1.1
		c-0.3,0.7-0.6,1.4-0.8,2.1c-0.3,0.7-0.5,1.4-0.8,2.1H220.9z"/>
	<path id="XMLID_113_" class="st0" d="M234.7,35.6c0,1-0.4,1.7-1.2,2.1h0c-0.4,0.3-1,0.4-1.5,0.4h-2.8v3.7h-0.7v-8.7h3.5
		c0.8,0,1.5,0.2,1.9,0.6C234.5,34.1,234.7,34.8,234.7,35.6z M234,35.6c0-1.2-0.7-1.8-2-1.8h-2.8v3.6h2.8c0.6,0,1.1-0.2,1.4-0.5
		C233.8,36.6,234,36.1,234,35.6z"/>
	<path id="XMLID_110_" class="st0" d="M246.4,35.6c0,1-0.4,1.7-1.2,2.1h0c-0.4,0.3-1,0.4-1.5,0.4h-2.8v3.7h-0.7v-8.7h3.5
		c0.8,0,1.5,0.2,1.9,0.6C246.2,34.1,246.4,34.8,246.4,35.6z M245.7,35.6c0-1.2-0.7-1.8-2-1.8h-2.8v3.6h2.8c0.6,0,1.1-0.2,1.4-0.5
		C245.6,36.6,245.7,36.1,245.7,35.6z"/>
	<path id="XMLID_108_" class="st0" d="M257.3,41.8h-5.4v-8.7h0.7v8h4.7V41.8z"/>
	<path id="XMLID_106_" class="st0" d="M263.4,41.8h-0.7v-8.7h0.7V41.8z"/>
	<path id="XMLID_104_" class="st0" d="M276.9,38.1c-0.1,0.6-0.2,1.2-0.4,1.6c-0.2,0.5-0.5,0.9-0.8,1.2c-0.7,0.7-1.6,1-2.6,1
		c-1.2,0-2.2-0.5-2.9-1.4c-0.7-0.8-1-1.8-1-3.1c0-1.3,0.3-2.4,1-3.2c0.8-0.9,1.8-1.4,3-1.4c0.9,0,1.6,0.3,2.3,0.8
		c0.8,0.6,1.2,1.4,1.2,2.4H276c-0.1-0.8-0.4-1.4-0.9-1.8c-0.5-0.4-1.2-0.6-1.8-0.6c-1,0-1.8,0.4-2.5,1.2c-0.6,0.7-0.9,1.6-0.9,2.7
		c0,1,0.3,1.9,0.9,2.6c0.6,0.8,1.4,1.1,2.4,1.1c0.9,0,1.6-0.3,2.1-0.8c0.3-0.3,0.5-0.6,0.6-1s0.3-0.8,0.3-1.4H276.9z"/>
	<path id="XMLID_101_" class="st0" d="M289.7,41.8H289l-1.1-2.7h-3.8c-0.2,0.4-0.4,0.9-0.6,1.4c-0.2,0.5-0.4,0.9-0.5,1.3h-0.8
		l3.5-8.7h0.6L289.7,41.8z M287.7,38.4c-0.1-0.4-0.3-0.7-0.4-1.1c-0.1-0.3-0.3-0.7-0.4-1s-0.3-0.7-0.4-1s-0.3-0.7-0.4-1.1
		c-0.3,0.7-0.6,1.4-0.8,2.1c-0.3,0.7-0.5,1.4-0.8,2.1H287.7z"/>
	<path id="XMLID_99_" class="st0" d="M302.9,38.1c-0.1,0.6-0.2,1.2-0.4,1.6c-0.2,0.5-0.5,0.9-0.8,1.2c-0.7,0.7-1.6,1-2.6,1
		c-1.2,0-2.2-0.5-2.9-1.4c-0.7-0.8-1-1.8-1-3.1c0-1.3,0.3-2.4,1-3.2c0.8-0.9,1.8-1.4,3-1.4c0.9,0,1.6,0.3,2.3,0.8
		c0.8,0.6,1.2,1.4,1.2,2.4H302c-0.1-0.8-0.4-1.4-0.9-1.8c-0.5-0.4-1.2-0.6-1.8-0.6c-1,0-1.8,0.4-2.5,1.2c-0.6,0.7-0.9,1.6-0.9,2.7
		c0,1,0.3,1.9,0.9,2.6c0.6,0.8,1.4,1.1,2.4,1.1c0.9,0,1.6-0.3,2.1-0.8c0.3-0.3,0.5-0.6,0.6-1s0.3-0.8,0.3-1.4H302.9z"/>
	<path id="XMLID_97_" class="st0" d="M309.3,41.8h-0.7v-8.7h0.7V41.8z"/>
	<path id="XMLID_94_" class="st0" d="M323,37.4c0,1.3-0.3,2.3-1,3.1c-0.8,0.9-1.7,1.4-3,1.4c-1.2,0-2.2-0.5-3-1.4
		c-0.7-0.8-1-1.9-1-3.1c0-1.3,0.3-2.3,1-3.1c0.8-0.9,1.7-1.4,3-1.4c1.2,0,2.2,0.5,3,1.4C322.7,35.1,323,36.2,323,37.4z M322.4,37.4
		c0-1.1-0.3-2-0.8-2.7c-0.6-0.8-1.4-1.1-2.4-1.1c-1,0-1.9,0.4-2.5,1.1c-0.6,0.7-0.8,1.6-0.8,2.7c0,1.1,0.3,2,0.8,2.7
		c0.6,0.8,1.4,1.1,2.5,1.1c1,0,1.8-0.4,2.4-1.1C322.1,39.4,322.4,38.5,322.4,37.4z"/>
	<path id="XMLID_92_" class="st0" d="M335.5,41.8h-0.7l-5.2-7.4v7.4h-0.7v-8.7h0.7l5.2,7.4v-7.4h0.7V41.8z"/>
</g>
<g id="XMLID_65_">
	<g id="XMLID_85_">
		<g id="XMLID_86_">
			<g id="XMLID_87_">
				<path id="XMLID_88_" class="st0" d="M20.9,43.3c-0.3,0-0.7,0-1,0C8.3,42.7-0.5,32.9,0,21.4l0,0C0.6,9.9,10.4,1,21.9,1.6
					c5.6,0.3,10.7,2.7,14.4,6.8c3.7,4.1,5.7,9.5,5.4,15.1C41.2,34.6,31.9,43.3,20.9,43.3z M2.2,21.5C1.7,31.8,9.7,40.6,20,41.1
					c10.3,0.5,19.1-7.4,19.6-17.7c0.2-5-1.5-9.8-4.8-13.5C31.4,6.2,26.8,4,21.8,3.8C11.5,3.2,2.7,11.2,2.2,21.5L2.2,21.5z"/>
			</g>
		</g>
	</g>
	<g id="XMLID_66_">
		<g id="XMLID_68_">
			<path id="XMLID_73_" class="st0" d="M33.8,19.8v-0.5c0-0.9-0.2-1.8-0.7-2.7c-0.2-0.5-0.6-0.9-1.1-1.4c-1.2-1.3-2.8-1.9-4.9-1.9
				h-0.6H15.3h-0.6c-2.1,0-3.7,0.6-4.9,1.9c-0.5,0.5-0.9,1-1.1,1.4C8.2,17.5,8,18.4,8,19.3v0.5c0,1.3,0.6,2.7,1.7,3.9
				c0.7,0.7,1.4,1.2,2,1.4c-1.5,1.7-2.3,3.8-2.3,6.5h3.7v-0.3c0-2,0.7-3.7,2.4-4.9c0.9-0.7,2.2-0.9,3.7-0.9h3.3
				c1.5,0,2.6,0.2,3.6,0.9c1.6,1.2,2.5,2.9,2.5,4.9v0.3h3.7c0-2.7-0.8-4.9-2.3-6.5c0.6-0.2,1.3-0.7,2-1.4
				C33.2,22.4,33.8,21.1,33.8,19.8z M30,20.1c-0.5,1.3-1.4,2-2.7,2h-0.9H15.3h-0.9c-1.3,0-2.2-0.7-2.7-2c-0.1-0.3-0.1-0.5-0.1-0.7
				c0-0.7,0.3-1.4,0.9-2c0.5-0.4,1.1-0.6,1.7-0.6c0,0,0.2-0.1,0.5-0.1h11.7l0,0H27c0.4,0,0.5,0,0.5,0.1c0.6,0,1.1,0.2,1.7,0.6
				c0.6,0.6,0.9,1.2,0.9,2C30.1,19.6,30.1,19.8,30,20.1z"/>
			<g id="XMLID_71_">
				<path id="XMLID_72_" class="st0" d="M14,18.6c-0.8-0.1-1.3,0-1.3,0.8c0,0.8,0.5,0.9,1.3,0.8c0.8,0.1,1.3,0,1.3-0.8
					C15.3,18.6,14.8,18.5,14,18.6z"/>
			</g>
			<g id="XMLID_69_">
				<path id="XMLID_70_" class="st0" d="M27.8,18.6c-0.8-0.1-1.3,0-1.3,0.8c0,0.8,0.5,0.9,1.3,0.8c0.8,0.1,1.3,0,1.3-0.8
					C29.2,18.6,28.6,18.5,27.8,18.6z"/>
			</g>
		</g>
	</g>
</g>
<g id="XMLID_23_">
	<path id="XMLID_62_" class="st1" d="M64.3,26.6l-3.9-9h-7.3v9h-1.6V6.3h8.3c4.2,0,6.4,1.8,6.4,5.5c0,2.7-1.4,4.6-4.1,5.5
		c0.6,1.5,1.3,3.1,2,4.7c0.7,1.6,1.4,3.2,2,4.6H64.3z M64.6,11.7c0-2.5-1.5-3.8-4.6-3.8h-6.9v8.1h6.6c1.4,0,2.6-0.4,3.5-1.1l0,0
		C64.2,14.1,64.6,13.1,64.6,11.7z"/>
	<path id="XMLID_59_" class="st1" d="M86.3,16.4c0,3-0.8,5.5-2.3,7.4c-1.8,2.2-4.1,3.2-7,3.2c-2.9,0-5.3-1.1-7-3.2
		c-1.5-1.9-2.3-4.4-2.3-7.4c0-3,0.8-5.4,2.3-7.4c1.8-2.2,4.1-3.2,7-3.2c2.9,0,5.2,1.1,7,3.2C85.6,11,86.3,13.5,86.3,16.4z
		 M84.7,16.4c0-2.6-0.6-4.7-1.9-6.3c-1.4-1.8-3.3-2.7-5.8-2.7c-2.4,0-4.4,0.9-5.8,2.7c-1.3,1.6-1.9,3.8-1.9,6.3s0.6,4.7,1.9,6.4
		c1.4,1.8,3.3,2.7,5.8,2.7c2.4,0,4.3-0.9,5.8-2.7C84.1,21.1,84.7,19,84.7,16.4z"/>
	<path id="XMLID_57_" class="st1" d="M106,18c-0.2,1.4-0.5,2.7-1,3.8s-1.1,2-1.8,2.8c-1.6,1.6-3.7,2.5-6.2,2.5
		c-2.8,0-5.1-1.1-6.8-3.2c-1.6-1.9-2.3-4.3-2.3-7.2c0-3,0.8-5.5,2.4-7.5c1.8-2.2,4.1-3.2,7.1-3.2c2,0,3.8,0.6,5.4,1.8
		c1.8,1.4,2.7,3.2,2.8,5.5H104c-0.1-1.8-0.9-3.3-2.2-4.3c-1.3-0.9-2.7-1.4-4.3-1.4c-2.4,0-4.3,0.9-5.8,2.7c-1.4,1.7-2.1,3.9-2.1,6.4
		c0,2.4,0.7,4.5,2,6.2c1.4,1.8,3.2,2.7,5.6,2.7c2,0,3.7-0.7,5-2c0.6-0.6,1.1-1.4,1.5-2.3c0.4-0.9,0.7-2,0.8-3.2H106z"/>
	<path id="XMLID_55_" class="st1" d="M124.4,26.6h-2.1L113,16.1c-0.7,0.6-1.3,1.1-1.9,1.7c-0.6,0.5-1.2,1.1-1.9,1.7v7.1h-1.6V6.3
		h1.6v11.1c2.1-1.8,4.2-3.7,6.2-5.5c2.1-1.9,4.2-3.7,6.2-5.5h2.4l-9.9,8.8L124.4,26.6z"/>
	<path id="XMLID_52_" class="st1" d="M147.7,26.6H146l-2.5-6.3h-9c-0.4,1-0.8,2.1-1.3,3.2c-0.5,1.1-0.9,2.2-1.2,3.2h-1.8l8.2-20.3
		h1.4L147.7,26.6z M142.9,18.7c-0.3-0.9-0.7-1.7-1-2.5c-0.3-0.8-0.6-1.6-0.9-2.3c-0.3-0.8-0.6-1.6-0.9-2.4c-0.3-0.8-0.6-1.7-1-2.6
		c-0.7,1.7-1.3,3.3-2,4.9c-0.6,1.6-1.3,3.2-2,5H142.9z"/>
	<path id="XMLID_50_" class="st1" d="M164.3,26.6h-1.6L150.4,9.1v17.5h-1.6V6.3h1.6l12.3,17.5V6.3h1.6V26.6z"/>
	<path id="XMLID_47_" class="st1" d="M182.2,16.4c0,3-0.8,5.5-2.4,7.3c-1.7,1.9-4.1,2.9-7.1,2.9h-6.4V6.3h7.2c2.9,0,5.1,1,6.7,3
		C181.5,11.1,182.2,13.5,182.2,16.4z M180.6,16.4c0-2.6-0.6-4.7-1.7-6.2c-1.2-1.6-3-2.4-5.5-2.4h-5.5V25h4.9c1.2,0,2.3-0.2,3.3-0.6
		c1-0.4,1.8-1,2.5-1.8C179.9,21.1,180.6,19,180.6,16.4z"/>
	<path id="XMLID_44_" class="st1" d="M202.4,26.6l-3.9-9h-7.3v9h-1.6V6.3h8.3c4.2,0,6.4,1.8,6.4,5.5c0,2.7-1.4,4.6-4.1,5.5
		c0.6,1.5,1.3,3.1,2,4.7c0.7,1.6,1.4,3.2,2,4.6H202.4z M202.7,11.7c0-2.5-1.5-3.8-4.6-3.8h-6.9v8.1h6.6c1.4,0,2.6-0.4,3.5-1.1l0,0
		C202.3,14.1,202.7,13.1,202.7,11.7z"/>
	<path id="XMLID_41_" class="st1" d="M224.4,16.4c0,3-0.8,5.5-2.3,7.4c-1.8,2.2-4.1,3.2-7,3.2c-2.9,0-5.3-1.1-7-3.2
		c-1.5-1.9-2.3-4.4-2.3-7.4c0-3,0.8-5.4,2.3-7.4c1.8-2.2,4.1-3.2,7-3.2c2.9,0,5.2,1.1,7,3.2C223.7,11,224.4,13.5,224.4,16.4z
		 M222.8,16.4c0-2.6-0.6-4.7-1.9-6.3c-1.4-1.8-3.3-2.7-5.8-2.7c-2.4,0-4.4,0.9-5.8,2.7c-1.3,1.6-1.9,3.8-1.9,6.3s0.6,4.7,1.9,6.4
		c1.4,1.8,3.3,2.7,5.8,2.7c2.4,0,4.3-0.9,5.8-2.7C222.2,21.1,222.8,19,222.8,16.4z"/>
	<path id="XMLID_38_" class="st1" d="M239,26.6l-3.9-9h-7.3v9h-1.6V6.3h8.3c4.2,0,6.4,1.8,6.4,5.5c0,2.7-1.4,4.6-4.1,5.5
		c0.6,1.5,1.3,3.1,2,4.7c0.7,1.6,1.4,3.2,2,4.6H239z M239.3,11.7c0-2.5-1.5-3.8-4.6-3.8h-6.9v8.1h6.6c1.4,0,2.6-0.4,3.5-1.1l0,0
		C238.9,14.1,239.3,13.1,239.3,11.7z"/>
	<path id="XMLID_36_" class="st0" d="M263.4,21.6c0,1.8-0.8,3.2-2.3,4.2c-1.3,0.9-2.9,1.3-4.8,1.3c-2.4,0-4.3-0.6-5.7-1.7
		c-1.4-1.2-2.2-3.1-2.2-5.5h0.6c0,4.4,2.4,6.7,7.3,6.7c1.7,0,3.2-0.4,4.4-1.1c1.4-0.9,2.1-2.2,2.1-3.8c0-2.1-1.2-3.5-3.6-4.4
		c-2.2-0.6-4.4-1.1-6.7-1.7c-2.4-0.8-3.6-2.4-3.6-4.5c0-1.8,0.7-3.2,2.2-4.1c1.2-0.8,2.8-1.1,4.7-1.1c4.6,0,6.9,2.1,7.1,6.2h-0.6
		c-0.1-3.7-2.3-5.6-6.5-5.6c-1.7,0-3.2,0.3-4.3,1c-1.4,0.8-2,2-2,3.7c0,2,1.2,3.3,3.6,4.1c2.2,0.6,4.4,1.1,6.7,1.7
		C262.2,17.7,263.4,19.3,263.4,21.6z"/>
	<path id="XMLID_34_" class="st0" d="M279.3,6.8H272v19.8h-0.6V6.8h-7.2V6.3h15.1V6.8z"/>
	<path id="XMLID_32_" class="st0" d="M295.1,19c0,2.5-0.6,4.5-1.8,5.9c-1.3,1.5-3.1,2.2-5.6,2.2c-2.5,0-4.4-0.7-5.6-2.2
		c-1.2-1.4-1.8-3.3-1.8-5.9V6.3h0.6V19c0,5,2.3,7.5,6.8,7.5c4.6,0,6.8-2.5,6.8-7.5V6.3h0.6V19z"/>
	<path id="XMLID_29_" class="st0" d="M312.9,16.4c0,3.1-0.8,5.5-2.4,7.3c-1.7,1.9-4,2.8-7.1,2.8h-6.2V6.3h7.1c2.9,0,5.1,1,6.6,3
		C312.2,11,312.9,13.4,312.9,16.4z M312.3,16.4c0-2.9-0.6-5.2-1.9-6.9c-1.4-1.8-3.5-2.7-6.3-2.7h-6.3V26h5.8c2.8,0,5-0.9,6.5-2.8
		C311.6,21.6,312.3,19.3,312.3,16.4z"/>
	<path id="XMLID_27_" class="st0" d="M315.6,26.6H315V6.3h0.6V26.6z"/>
	<path id="XMLID_24_" class="st0" d="M336.3,16.4c0,3-0.8,5.5-2.3,7.4c-1.7,2.1-4,3.2-6.9,3.2c-2.9,0-5.2-1.1-6.9-3.2
		c-1.6-2-2.3-4.5-2.3-7.4c0-3,0.8-5.5,2.3-7.4c1.7-2.1,4-3.2,6.9-3.2c2.9,0,5.2,1.1,6.9,3.2C335.5,11,336.3,13.4,336.3,16.4z
		 M335.7,16.4c0-2.8-0.7-5.2-2.2-7.1c-1.6-2-3.8-3-6.5-3c-2.8,0-4.9,1-6.5,3c-1.4,1.9-2.2,4.2-2.2,7.1s0.7,5.2,2.2,7.1
		c1.6,2,3.8,3,6.5,3c2.8,0,4.9-1,6.5-3C335,21.6,335.7,19.3,335.7,16.4z"/>
</g>
<g id="XMLID_16_">
	<path id="XMLID_21_" class="st0" d="M340.6,0l-2.1,5.5h-0.4L336,0h0.4l1.9,4.8c0.3-0.8,0.6-1.6,0.9-2.4c0.3-0.8,0.6-1.6,0.9-2.4
		H340.6z"/>
	<path id="XMLID_19_" class="st0" d="M339.6,5.5h-0.4v-1h0.4V5.5z"/>
	<path id="XMLID_17_" class="st0" d="M343.7,4c0,0.2,0,0.5-0.1,0.6c-0.1,0.2-0.2,0.4-0.4,0.5c-0.3,0.3-0.7,0.4-1.2,0.4
		c-0.6,0-1-0.1-1.4-0.4c-0.2-0.2-0.3-0.3-0.4-0.6c-0.1-0.2-0.1-0.5-0.1-0.7c0,0,0-0.1,0-0.2c0-0.1,0-0.1,0-0.1h0.4l0,0.3
		c0,0.4,0.1,0.7,0.4,1c0.1,0.1,0.3,0.2,0.5,0.2c0.2,0.1,0.4,0.1,0.6,0.1c0.4,0,0.7-0.1,0.9-0.3c0.3-0.2,0.4-0.5,0.4-0.8
		c0-0.4-0.2-0.7-0.5-0.9c-0.1-0.1-0.3-0.1-0.5-0.1c-0.2,0-0.5,0-0.8,0V2.5c0.6,0,1,0,1.2-0.1c0.3-0.1,0.5-0.4,0.5-0.8
		c0-0.1,0-0.3-0.1-0.4C343,1.1,343,1,342.8,0.9c-0.2-0.1-0.5-0.2-0.9-0.2c-0.4,0-0.8,0.1-1,0.4c-0.2,0.2-0.4,0.6-0.4,1.1h-0.4
		c0-0.6,0.2-1.1,0.5-1.4c0.3-0.3,0.8-0.5,1.3-0.5c0.2,0,0.4,0,0.6,0.1c0.2,0.1,0.4,0.1,0.5,0.2c0.2,0.1,0.3,0.3,0.4,0.4
		c0.1,0.2,0.1,0.4,0.1,0.6c0,0.3-0.1,0.5-0.2,0.7c-0.1,0.2-0.3,0.4-0.5,0.5c0.2,0.1,0.4,0.3,0.6,0.5C343.7,3.4,343.7,3.7,343.7,4z"
		/>
</g>
<!-- <polygon id="XMLID_15_" class="st0" points="373.5,42 367.5,42 381.5,6 387.5,6 "/> -->
</svg>