<?xml version="1.0" encoding="utf-8"?>
<!-- Generator: Adobe Illustrator 16.0.0, SVG Export Plug-In . SVG Version: 6.00 Build 0)  -->
<!DOCTYPE svg PUBLIC "-//W3C//DTD SVG 1.1//EN" "http://www.w3.org/Graphics/SVG/1.1/DTD/svg11.dtd">
<svg version="1.1" id="Livello_1" xmlns="http://www.w3.org/2000/svg" xmlns:xlink="http://www.w3.org/1999/xlink" x="0px" y="0px"
	 width="346.154px" height="346.153px" viewBox="0 0 346.154 346.153" enable-background="new 0 0 346.154 346.153"
	 xml:space="preserve">
<pattern  x="-1012" y="-2657.462" width="158.974" height="158.973" patternUnits="userSpaceOnUse" id="Nuovo_pattern_9" viewBox="0 -158.973 158.974 158.973" overflow="visible">
	<g>
		<polygon fill="none" points="0,-158.973 158.974,-158.973 158.974,0 0,0 		"/>
		<polygon points="134.766,-121.759 134.765,-121.759 55.278,-42.272 13.006,0 15.116,0 42.136,-27.02 121.622,-106.506 
			121.622,-106.506 158.974,-143.857 158.974,-145.967 		"/>
		<polygon points="94.603,-158.973 92.493,-158.973 55.278,-121.759 0,-66.48 0,-64.37 42.136,-106.506 		"/>
		<polygon points="114.502,-158.973 113.231,-158.973 62.281,-108.022 62.28,-108.022 0,-45.741 0,-44.472 48.719,-93.189 		"/>
		<polygon points="35.856,-115.911 78.919,-158.973 72.293,-158.973 46.742,-133.422 46.741,-133.422 0,-86.681 0,-80.055 
			35.856,-115.911 		"/>
		<polygon points="43.351,-96.29 106.034,-158.973 102.245,-158.973 55.655,-112.383 55.655,-112.383 0,-56.728 0,-52.939 
			43.351,-96.29 		"/>
		<polygon points="13.006,-158.973 0,-145.967 0,-143.857 15.116,-158.973 		"/>
		<polygon points="33.745,-158.973 0,-125.229 0,-123.957 35.015,-158.973 		"/>
		<polygon points="22.759,-158.973 0,-136.215 0,-132.426 26.547,-158.973 		"/>
		<polygon points="102.427,-124.701 116.626,-138.899 136.698,-158.973 123.96,-158.973 110.256,-145.269 110.255,-145.269 
			30.769,-65.782 0,-35.014 0,-22.274 22.94,-45.215 		"/>
		<polygon points="62.281,-28.536 62.28,-28.536 33.745,0 35.015,0 48.719,-13.703 128.205,-93.189 128.206,-93.189 
			158.974,-123.957 158.974,-125.229 141.768,-108.022 		"/>
		<polygon points="35.856,-36.425 115.344,-115.911 158.405,-158.973 151.78,-158.973 126.229,-133.422 46.742,-53.936 
			46.741,-53.936 0,-7.194 0,-0.568 35.856,-36.425 		"/>
		<polygon points="55.655,-32.896 55.655,-32.896 22.759,0 26.547,0 43.351,-16.804 43.351,-16.804 122.838,-96.29 
			158.974,-132.426 158.974,-136.215 135.142,-112.383 		"/>
		<polygon points="37.139,-138.899 57.212,-158.973 44.474,-158.973 30.769,-145.269 0,-114.5 0,-101.761 22.94,-124.701 		"/>
		<polygon points="136.698,0 158.974,-22.274 158.974,-35.014 123.96,0 		"/>
		<polygon points="158.405,0 158.974,-0.568 158.974,-7.194 151.78,0 		"/>
		<polygon points="110.255,-65.782 44.474,0 57.212,0 102.427,-45.215 158.974,-101.761 158.974,-114.5 110.256,-65.782 		"/>
		<polygon points="134.765,-42.272 92.493,0 94.603,0 121.622,-27.02 121.622,-27.02 158.974,-64.37 158.974,-66.48 
			134.766,-42.272 		"/>
		<polygon points="113.231,0 114.502,0 128.205,-13.703 128.206,-13.703 158.974,-44.472 158.974,-45.741 141.768,-28.536 		"/>
		<polygon points="72.293,0 78.919,0 115.344,-36.425 158.974,-80.055 158.974,-86.681 126.229,-53.936 		"/>
		<polygon points="102.245,0 106.034,0 122.838,-16.804 158.974,-52.939 158.974,-56.728 135.142,-32.896 		"/>
	</g>
</pattern>
<g>
	<g>
		<g>
			
				<rect x="144.044" y="101.001" transform="matrix(0.7071 0.7071 -0.7071 0.7071 147.4513 -144.8463)" fill="#F6AE3F" width="209.052" height="9.129"/>
			
				<rect x="2.03" y="100.357" transform="matrix(0.7071 -0.7071 0.7071 0.7071 -42.9807 106.0777)" fill="#E12924" width="209.052" height="9.127"/>
			
				<rect x="144.044" y="242.369" transform="matrix(0.7071 -0.7071 0.7071 0.7071 -101.8042 248.0911)" fill="#36B4B7" width="209.052" height="9.13"/>
			
				<rect x="144.044" y="242.369" transform="matrix(0.7071 -0.7071 0.7071 0.7071 -101.8042 248.0911)" fill="#36B4B7" width="209.052" height="9.13"/>
			
				<rect x="1.897" y="242.047" transform="matrix(0.7071 0.7071 -0.7071 0.7071 205.6841 -3.345)" fill="#8DBC44" width="209.966" height="9.13"/>
		</g>
		<g>
			<g>
				<pattern  id="SVGID_1_" xlink:href="#Nuovo_pattern_9" patternTransform="matrix(1.1102 0 0 1.1102 369.354 338.9087)">
				</pattern>
				<circle fill="url(#SVGID_1_)" cx="140.228" cy="161.988" r="7.146"/>
				<pattern  id="SVGID_2_" xlink:href="#Nuovo_pattern_9" patternTransform="matrix(1.1102 0 0 1.1102 369.354 338.9087)">
				</pattern>
				<circle fill="url(#SVGID_2_)" cx="216.129" cy="161.988" r="7.146"/>
				<pattern  id="SVGID_3_" xlink:href="#Nuovo_pattern_9" patternTransform="matrix(1.1102 0 0 1.1102 369.354 338.9087)">
				</pattern>
				<path fill="url(#SVGID_3_)" d="M248.794,163.926v-2.87c0-4.8-1.257-9.722-3.779-14.754c-1.12-2.52-3.126-5.13-6.014-7.835
					c-6.481-6.856-15.436-10.283-26.857-10.283h-3.501h-61.269h-3.501c-11.423,0-20.38,3.427-26.86,10.283
					c-2.889,2.702-4.896,5.315-6.014,7.835c-2.522,5.032-3.779,9.954-3.779,14.754v2.87c0,7.368,3.193,14.57,9.585,21.615
					c4.101,3.917,7.83,6.434,11.192,7.551c-8.489,9.048-12.729,21.007-12.729,35.886h20.352v-1.546
					c0-10.999,4.454-19.744,13.357-26.227c5.084-3.588,11.727-5.385,19.937-5.385h2.012v-0.1h15.757v0.1h0.42
					c8.209,0,14.852,1.797,19.937,5.385c8.905,6.482,13.358,15.228,13.358,26.227v1.546h20.35c0-14.879-4.239-26.838-12.725-35.886
					c3.355-1.117,7.088-3.634,11.188-7.551C245.6,178.496,248.794,171.294,248.794,163.926z M228.09,165.676
					c-2.564,7.133-7.463,10.701-14.687,10.701h-4.761h-11.668h-10.293h-15.757h-2.057h-21.494h-4.76
					c-7.227,0-12.123-3.568-14.688-10.701c-0.281-1.444-0.466-2.659-0.56-3.64c0-3.962,1.654-7.553,4.965-10.772
					c2.847-2.236,5.878-3.353,9.097-3.353c0-0.189,0.979-0.281,2.937-0.281h64.278h3.011c1.958,0,2.938,0.092,2.938,0.281
					c3.22,0,6.245,1.116,9.091,3.353c3.311,3.22,4.966,6.811,4.966,10.772C228.559,163.017,228.37,164.231,228.09,165.676z"/>
			</g>
		</g>
	</g>
	
		<text transform="matrix(0.7071 0.7071 -0.7071 0.7071 222.3662 57.6133)" fill="#F6AE3F" font-family="'TitilliumWeb-Regular'" font-size="29.2544">analisis</text>
	
		<text transform="matrix(-0.7071 -0.7071 0.7071 -0.7071 147.7886 310.5029)" fill="#8DBC44" font-family="'TitilliumWeb-Regular'" font-size="29.2544">ux / design</text>
	
		<text transform="matrix(0.7071 -0.7071 0.7071 0.7071 37.6045 153.166)" fill="#E12924" font-family="'TitilliumWeb-Regular'" font-size="29.2544">desarrollo</text>
	
		<text transform="matrix(0.7071 -0.7071 0.7071 0.7071 254.8447 291.3633)" fill="#36B4B7" font-family="'TitilliumWeb-Regular'" font-size="29.2544">test</text>
</g>
</svg>
