<?xml version="1.0" encoding="utf-8"?>
<!-- Generator: Adobe Illustrator 16.0.0, SVG Export Plug-In . SVG Version: 6.00 Build 0)  -->
<!DOCTYPE svg PUBLIC "-//W3C//DTD SVG 1.1//EN" "http://www.w3.org/Graphics/SVG/1.1/DTD/svg11.dtd">
<svg version="1.1" id="Livello_1" xmlns="http://www.w3.org/2000/svg" xmlns:xlink="http://www.w3.org/1999/xlink" x="0px" y="0px"
	 width="49.534px" height="49.18px" viewBox="0 0 49.534 49.18" enable-background="new 0 0 49.534 49.18" xml:space="preserve">
<g>
	<g>
		<g>
			<circle fill="#7A69A5" cx="18.234" cy="20.717" r="1.463"/>
			<circle fill="#7A69A5" cx="33.777" cy="20.717" r="1.463"/>
			<path fill="#7A69A5" d="M40.466,21.113v-0.586c0-0.983-0.259-1.992-0.774-3.021c-0.229-0.517-0.64-1.051-1.231-1.605
				c-1.326-1.404-3.163-2.105-5.5-2.105h-0.717H19.697h-0.714c-2.338,0-4.175,0.701-5.501,2.105
				c-0.591,0.554-1.002,1.089-1.232,1.605c-0.516,1.03-0.773,2.038-0.773,3.021v0.586c0,1.509,0.654,2.984,1.964,4.427
				c0.837,0.801,1.601,1.316,2.292,1.546c-1.74,1.853-2.607,4.301-2.607,7.347h4.167v-0.315c0-2.253,0.912-4.044,2.733-5.37
				c1.041-0.734,2.403-1.104,4.083-1.104h0.411v-0.02h3.227v0.02h0.085c1.683,0,3.046,0.369,4.086,1.104
				c1.821,1.326,2.731,3.117,2.731,5.37v0.315h4.17c0-3.046-0.869-5.494-2.605-7.347c0.688-0.229,1.452-0.744,2.291-1.546
				C39.812,24.097,40.466,22.622,40.466,21.113z M36.226,21.472c-0.525,1.46-1.528,2.191-3.01,2.191h-0.973h-2.388h-2.11h-3.227
				H24.1h-4.403h-0.974c-1.478,0-2.483-0.731-3.009-2.191c-0.057-0.296-0.092-0.544-0.112-0.746c0-0.812,0.339-1.546,1.017-2.206
				c0.581-0.457,1.203-0.688,1.861-0.688c0-0.038,0.201-0.057,0.601-0.057l13.163,0.001h0.615c0.402,0,0.604,0.018,0.604,0.056
				c0.659,0,1.281,0.23,1.859,0.688c0.678,0.66,1.017,1.394,1.017,2.206C36.32,20.928,36.285,21.175,36.226,21.472z"/>
		</g>
	</g>
	<circle fill="none" stroke="#7A69A5" stroke-miterlimit="10" cx="25.154" cy="24.59" r="22.398"/>
</g>
</svg>
