<?xml version="1.0" encoding="utf-8"?>
<!-- Generator: Adobe Illustrator 16.0.0, SVG Export Plug-In . SVG Version: 6.00 Build 0)  -->
<!DOCTYPE svg PUBLIC "-//W3C//DTD SVG 1.1//EN" "http://www.w3.org/Graphics/SVG/1.1/DTD/svg11.dtd">
<svg version="1.1" id="Livello_1" xmlns="http://www.w3.org/2000/svg" xmlns:xlink="http://www.w3.org/1999/xlink" x="0px" y="0px"
	 width="1076.922px" height="361.539px" viewBox="0 0 1076.922 361.539" enable-background="new 0 0 1076.922 361.539"
	 xml:space="preserve">
<g>
	
		<circle fill="#CE9171" stroke="#CE9171" stroke-width="3" stroke-miterlimit="10" stroke-opacity="0.5" cx="340.641" cy="153.455" r="54.616"/>
	<g enable-background="new    ">
		<path fill="#FFFFFF" d="M323.823,175.448h-2.607v-7.535h2.607c1.159,0,1.951,0.294,2.376,0.88
			c0.425,0.587,0.638,1.507,0.638,2.762c0,0.638-0.042,1.179-0.127,1.622c-0.084,0.443-0.233,0.846-0.445,1.204
			C325.847,175.092,325.033,175.448,323.823,175.448z M325.572,171.554c0-0.909-0.114-1.566-0.341-1.97
			c-0.227-0.403-0.697-0.604-1.408-0.604h-1.386v5.39h1.386c0.726,0,1.21-0.268,1.452-0.803c0.117-0.271,0.196-0.562,0.236-0.869
			C325.552,172.39,325.572,172.008,325.572,171.554z"/>
		<path fill="#FFFFFF" d="M328.267,175.448v-7.535h1.221v7.535H328.267z"/>
		<path fill="#FFFFFF" d="M333.437,168.859c-0.932,0-1.397,0.326-1.397,0.979c0,0.338,0.11,0.578,0.33,0.721
			c0.22,0.144,0.706,0.319,1.458,0.528c0.751,0.209,1.281,0.458,1.589,0.748s0.462,0.746,0.462,1.369
			c0,0.792-0.226,1.385-0.676,1.776c-0.451,0.393-1.065,0.589-1.843,0.589c-0.624,0-1.312-0.073-2.068-0.22l-0.396-0.077
			l0.121-0.979c0.99,0.132,1.745,0.198,2.266,0.198c0.91,0,1.364-0.403,1.364-1.21c0-0.315-0.103-0.548-0.308-0.698
			c-0.206-0.15-0.667-0.315-1.386-0.495c-0.719-0.18-1.254-0.428-1.606-0.742c-0.352-0.315-0.528-0.814-0.528-1.496
			c0-0.683,0.222-1.197,0.666-1.546s1.058-0.522,1.843-0.522c0.564,0,1.232,0.066,2.002,0.198l0.385,0.065l-0.099,0.99
			C334.588,168.917,333.862,168.859,333.437,168.859z"/>
		<path fill="#FFFFFF" d="M337.199,175.448v-7.535h4.752v1.067h-3.531v2.134h2.871v1.056h-2.871v2.2h3.531v1.078H337.199z"/>
		<path fill="#FFFFFF" d="M343.282,175.448v-7.535h2.134l2.288,6.457h0.165v-6.457h1.221v7.535H347l-2.343-6.468h-0.154v6.468
			H343.282z M347.644,166.681c-0.224,0.146-0.423,0.22-0.6,0.22c-0.176,0-0.495-0.092-0.957-0.275
			c-0.462-0.183-0.741-0.274-0.836-0.274c-0.183,0-0.418,0.121-0.704,0.362l-0.143,0.121l-0.264-0.857
			c0.044-0.052,0.101-0.116,0.17-0.192c0.07-0.077,0.202-0.178,0.396-0.303s0.387-0.188,0.578-0.188c0.19,0,0.511,0.092,0.962,0.275
			s0.717,0.275,0.797,0.275c0.161,0,0.393-0.121,0.693-0.363l0.143-0.121l0.264,0.869
			C348.034,166.383,347.867,166.534,347.644,166.681z"/>
		<path fill="#FFFFFF" d="M355.948,174.645c-0.451,0.616-1.245,0.924-2.381,0.924s-1.932-0.31-2.387-0.93
			c-0.455-0.619-0.682-1.593-0.682-2.92c0-1.328,0.229-2.314,0.688-2.96c0.458-0.645,1.252-0.968,2.381-0.968
			s1.921,0.321,2.376,0.963s0.682,1.63,0.682,2.965C356.625,173.053,356.399,174.029,355.948,174.645z M352.137,173.853
			c0.249,0.433,0.726,0.648,1.43,0.648s1.179-0.212,1.425-0.638c0.246-0.425,0.368-1.139,0.368-2.14s-0.126-1.729-0.379-2.184
			c-0.253-0.454-0.724-0.682-1.414-0.682s-1.162,0.228-1.419,0.682c-0.257,0.455-0.385,1.179-0.385,2.173
			S351.888,173.42,352.137,173.853z"/>
	</g>
	<g>
		<g>
			<path fill="#FFFFFF" d="M318.674,127.807l0.001,0.002c0.019,0.047,0.042,0.069,0.042,0.069l0.014-0.016l9.455,9.042v23.857
				h25.422v-35.476h-25.422v4.143l-5.777-5.525l-0.029,0.031c-0.192-0.071-1.272-0.471-2.776,1.103
				C318.098,126.611,318.594,127.619,318.674,127.807L318.674,127.807z M345.024,149.96h5.43v7.648h-5.43V149.96z M345.024,135.614
				h1.498h0.783h2.13h0.872h0.146v13.718h-5.43L345.024,135.614L345.024,135.614z M345.024,128.439h0.867v6.544h-0.867V128.439z
				 M347.936,128.439h0.866v6.544h-0.866V128.439z M350.454,134.983h-0.146h-0.872v-6.544h1.019L350.454,134.983L350.454,134.983z
				 M347.305,134.983h-0.783v-6.544h0.783V134.983z M344.394,134.983h-0.79v-6.544h0.79V134.983z M342.106,128.439h0.868v6.544
				h-0.868V128.439z M331.34,128.439h10.137v6.544h-3.312v0.631h3.312h2.127h0.79v13.718v0.629v7.648h-4.179v-1.463h-1.262v1.463
				h-7.613v-11.746h0.993v-1.262h-0.993v-4.681l0.567,0.544c0.14-0.697,0.648-1.555,1.29-2.288c0.777-0.888,1.674-1.522,2.358-1.696
				l-4.216-4.034L331.34,128.439L331.34,128.439z"/>
			<path fill="#FFFFFF" d="M333.472,138.361c-0.888,1.033-1.228,1.922-1.245,2.37c-0.006,0.137,0.301,0.31,0.354,0.31h0.006
				l0.721,0.086l0.537,0.064l2.458,0.295c0,0-0.003-0.003-0.003-0.004c-0.013-0.185,0.069-0.398,0.229-0.588
				c0.082-0.092,0.285-0.295,0.541-0.312l-0.701-2.39l-0.152-0.517l-0.188-0.645c0.014-0.143-0.15-0.324-0.195-0.324
				C335.375,136.707,334.394,137.287,333.472,138.361z M335.499,137.464l0.113,0.388l0.15,0.517l0.549,1.869
				c-0.12,0.093-0.211,0.188-0.26,0.248c-0.084,0.099-0.156,0.203-0.213,0.309l-1.918-0.229l-0.539-0.064l-0.459-0.054
				c0.128-0.389,0.441-0.994,1.027-1.674C334.571,138.052,335.141,137.65,335.499,137.464z"/>
			<path fill="#FFFFFF" d="M336.711,141.496l0.007,0.016l0.571,0.477c0.035,0.029,0.17,0.072,0.298,0.072
				c0.087,0,0.169-0.02,0.217-0.075c0.118-0.138-0.021-0.448-0.084-0.499l-0.567-0.478c-0.013-0.012-0.031-0.017-0.052-0.017
				c-0.003,0-0.008,0.002-0.012,0.002c-0.073,0.007-0.177,0.071-0.263,0.173C336.711,141.296,336.668,141.435,336.711,141.496z"/>
			<polygon fill="#FFFFFF" points="338.954,146.616 340.215,146.616 340.215,144.601 338.079,144.601 338.079,145.863 
				338.954,145.863 			"/>
			<rect x="334.293" y="144.601" fill="#FFFFFF" width="1.822" height="1.262"/>
			<rect x="338.954" y="148.578" fill="#FFFFFF" width="1.262" height="1.822"/>
			<rect x="338.954" y="152.363" fill="#FFFFFF" width="1.262" height="1.821"/>
		</g>
	</g>
</g>
<g>
	
		<circle fill="#9B6562" stroke="#9B6562" stroke-width="3" stroke-miterlimit="10" stroke-opacity="0.5" cx="948.85" cy="152.611" r="54.616"/>
	<g enable-background="new    ">
		<path fill="#FFFFFF" d="M916.332,174.899l-4.224-0.009l0.016-7.535l1.221,0.003l-0.014,6.446l3.004,0.006L916.332,174.899z"/>
		<path fill="#FFFFFF" d="M916.684,174.9l1.874-7.532l2.431,0.005l1.855,7.539l-1.232-0.002l-0.403-1.618l-2.894-0.006l-0.41,1.616
			L916.684,174.9z M919.502,168.393l-0.943,3.814l2.409,0.005l-0.916-3.817L919.502,168.393z"/>
		<path fill="#FFFFFF" d="M923.922,174.914l0.015-7.535l2.134,0.005l2.275,6.462h0.165l0.013-6.457l1.221,0.002l-0.016,7.535
			l-2.09-0.004l-2.329-6.473h-0.154l-0.013,6.468L923.922,174.914z"/>
		<path fill="#FFFFFF" d="M931.074,168.46l0.002-1.067l4.95,0.01l-0.002,1.177l-3.509,5.075v0.209l3.498,0.007l-0.003,1.067
			l-4.949-0.01l0.002-1.166l3.498-5.075v-0.22L931.074,168.46z"/>
		<path fill="#FFFFFF" d="M936.693,174.94l1.874-7.532l2.431,0.005l1.854,7.539l-1.231-0.002l-0.403-1.618l-2.893-0.006
			l-0.411,1.616L936.693,174.94z M939.51,168.433l-0.942,3.814l2.409,0.005l-0.916-3.818L939.51,168.433z"/>
		<path fill="#FFFFFF" d="M943.93,174.954l0.016-7.535l2.123,0.005l1.671,5.888l1.694-5.881l2.135,0.004l-0.016,7.535l-1.232-0.002
			l0.013-6.182l-0.165-0.001l-1.793,5.871l-1.276-0.003l-1.771-5.878h-0.165l-0.013,6.182L943.93,174.954z"/>
		<path fill="#FFFFFF" d="M953.281,174.973l0.015-7.535l1.221,0.002l-0.015,7.535L953.281,174.973z"/>
		<path fill="#FFFFFF" d="M956.24,174.979l0.015-7.535l4.752,0.009l-0.002,1.067l-3.531-0.007l-0.004,2.134l2.871,0.006
			l-0.002,1.056l-2.871-0.006l-0.004,2.2l3.531,0.007l-0.003,1.078L956.24,174.979z"/>
		<path fill="#FFFFFF" d="M962.323,174.991l0.015-7.535l2.134,0.004l2.275,6.462l0.165,0.001l0.013-6.457l1.221,0.002l-0.016,7.535
			l-2.09-0.004l-2.329-6.473h-0.154l-0.013,6.468L962.323,174.991z"/>
		<path fill="#FFFFFF" d="M969.155,168.558l0.002-1.089l5.5,0.011l-0.002,1.089l-2.123-0.004l-0.013,6.446l-1.231-0.003l0.013-6.446
			L969.155,168.558z"/>
		<path fill="#FFFFFF" d="M980.644,174.225c-0.452,0.615-1.246,0.921-2.383,0.919c-1.137-0.003-1.932-0.313-2.386-0.935
			c-0.453-0.62-0.678-1.595-0.676-2.922c0.003-1.328,0.234-2.313,0.693-2.958c0.459-0.644,1.254-0.966,2.384-0.963
			c1.13,0.002,1.921,0.325,2.374,0.968s0.679,1.631,0.676,2.966C981.325,172.634,981.096,173.61,980.644,174.225z M976.834,173.425
			c0.248,0.433,0.725,0.649,1.429,0.651c0.704,0.001,1.179-0.21,1.427-0.635c0.246-0.425,0.369-1.139,0.371-2.14
			c0.003-1.001-0.123-1.729-0.375-2.184s-0.723-0.684-1.412-0.685c-0.689-0.002-1.162,0.225-1.42,0.679s-0.387,1.178-0.389,2.172
			S976.586,172.992,976.834,173.425z"/>
	</g>
	<g>
		<path fill="#FFFFFF" d="M932.977,145.898c2.861-4.104,4.547-6.747,5.773-8.699c-4.705,0.406-9.225,6.25-9.225,6.25l3.098,3.11
			C932.713,146.331,932.829,146.107,932.977,145.898z"/>
		<path fill="#FFFFFF" d="M945.071,159.057l3.102,3.109c0,0,5.859-4.498,6.283-9.2c-1.957,1.221-4.607,2.893-8.721,5.738
			C945.528,158.849,945.303,158.967,945.071,159.057z"/>
		<path fill="#FFFFFF" d="M940.358,157.442c-0.531,0.216-1.059,0.445-1.604,0.624c-1.459,0.485-2.961,0.812-4.482,1.018
			c-0.641,0.087-1.281,0.16-1.928,0.209c0.004-0.082,0.012-0.16,0.02-0.24c0.135-1.55,0.375-3.093,0.76-4.602
			c0.184-0.729,0.422-1.437,0.674-2.143c0.16-0.439,0.354-0.861,0.551-1.281l-0.34-0.342c-0.76,0.508-1.422,1.151-1.982,1.879
			c-0.83,1.078-1.459,2.3-1.896,3.59c-0.469,1.38-0.75,2.846-0.795,4.307c-0.006,0.205-0.021,0.414,0.01,0.617
			c0.041,0.264,0.152,0.512,0.328,0.716c0.172,0.201,0.396,0.351,0.648,0.433c0.209,0.067,0.422,0.069,0.641,0.068
			c1.324-0.01,2.67-0.237,3.943-0.611c2.32-0.686,4.67-1.977,6.047-4.027l-0.33-0.332
			C940.532,157.364,940.444,157.405,940.358,157.442z"/>
		<path fill="#FFFFFF" d="M966.252,125.513h-0.002c-0.242-0.242-0.568-0.378-0.91-0.379c-0.008,0-0.016,0-0.025,0
			c-4.145,0.074-14.371,0.829-19.811,6.248c-2.471,2.461-3.275,3.743-5.039,6.55c-1.268,2.022-3.004,4.793-6.178,9.339
			c-0.354,0.514-0.297,1.205,0.146,1.649l8.283,8.315c0.248,0.25,0.578,0.38,0.912,0.381c0.254,0,0.51-0.075,0.732-0.229
			c4.562-3.154,7.338-4.882,9.365-6.142c2.814-1.75,4.1-2.548,6.568-5.01c5.451-5.429,6.242-15.646,6.328-19.784
			C966.633,126.1,966.497,125.762,966.252,125.513z M956.608,141.158c-1.676,1.669-4.385,1.664-6.055-0.012
			c-1.668-1.674-1.66-4.385,0.012-6.051c1.678-1.668,4.387-1.663,6.055,0.012C958.286,136.781,958.28,139.492,956.608,141.158z"/>
	</g>
</g>
<g>
	
		<circle fill="#C1CE92" stroke="#B1BA76" stroke-width="3" stroke-miterlimit="10" stroke-opacity="0.5" cx="746.114" cy="154.298" r="54.616"/>
	<g enable-background="new    ">
		<path fill="#FFFFFF" d="M714.946,175.478l1.873-7.531l2.432,0.005l1.854,7.539l-1.231-0.003l-0.404-1.618l-2.893-0.006
			l-0.41,1.616L714.946,175.478z M717.763,168.972l-0.942,3.814l2.408,0.005l-0.916-3.818L717.763,168.972z"/>
		<path fill="#FFFFFF" d="M724.603,175.619c-1.101-0.003-1.846-0.309-2.237-0.918c-0.391-0.609-0.585-1.61-0.582-3.004
			c0.002-1.394,0.203-2.385,0.6-2.975c0.397-0.589,1.143-0.884,2.235-0.881c0.653,0.001,1.37,0.095,2.155,0.279l-0.046,0.99
			c-0.659-0.118-1.319-0.18-1.979-0.181s-1.107,0.194-1.344,0.586c-0.235,0.393-0.354,1.13-0.355,2.211
			c-0.003,1.082,0.109,1.819,0.336,2.211c0.227,0.394,0.67,0.591,1.33,0.592s1.327-0.053,2.002-0.161l0.031,1.012
			C725.993,175.541,725.278,175.62,724.603,175.619z"/>
		<path fill="#FFFFFF" d="M728.057,175.504l0.016-7.535l4.752,0.01l-0.002,1.067l-3.531-0.008l-0.005,2.134l2.871,0.006
			l-0.002,1.056l-2.871-0.006l-0.005,2.2l3.531,0.008l-0.002,1.078L728.057,175.504z"/>
		<path fill="#FFFFFF" d="M736.906,173.179l-1.54-0.003l-0.005,2.343l-1.221-0.003l0.015-7.535l2.762,0.006
			c1.708,0.003,2.561,0.849,2.558,2.535c-0.002,0.865-0.218,1.525-0.647,1.979C738.397,172.955,737.756,173.181,736.906,173.179z
			 M735.368,172.12l1.529,0.003c0.88,0.002,1.32-0.532,1.323-1.603c0.001-0.514-0.104-0.889-0.317-1.123
			c-0.212-0.234-0.545-0.353-1-0.354l-1.529-0.003L735.368,172.12z"/>
		<path fill="#FFFFFF" d="M739.928,169.082l0.002-1.089l5.5,0.011l-0.002,1.089l-2.123-0.004l-0.014,6.446l-1.231-0.003l0.013-6.446
			L739.928,169.082z"/>
		<path fill="#FFFFFF" d="M745.327,175.539l1.875-7.531l2.43,0.005l1.855,7.539l-1.232-0.003l-0.402-1.618l-2.894-0.005
			l-0.411,1.616L745.327,175.539z M748.145,169.033l-0.943,3.814l2.41,0.005l-0.916-3.818L748.145,169.033z"/>
		<path fill="#FFFFFF" d="M754.985,175.679c-1.1-0.002-1.846-0.309-2.236-0.918c-0.392-0.608-0.586-1.61-0.583-3.004
			s0.202-2.384,0.601-2.975c0.396-0.589,1.142-0.883,2.234-0.881c0.652,0.001,1.371,0.095,2.155,0.279l-0.046,0.99
			c-0.66-0.118-1.32-0.179-1.98-0.181c-0.659-0.001-1.107,0.194-1.342,0.586c-0.236,0.393-0.355,1.13-0.357,2.211
			c-0.002,1.082,0.11,1.819,0.338,2.211c0.226,0.394,0.669,0.591,1.328,0.592c0.66,0.002,1.328-0.053,2.004-0.161l0.03,1.012
			C756.375,175.601,755.66,175.68,754.985,175.679z"/>
		<path fill="#FFFFFF" d="M758.439,175.565l0.015-7.535l1.221,0.003l-0.015,7.535L758.439,175.565z"/>
		<path fill="#FFFFFF" d="M766.52,174.779c-0.452,0.615-1.246,0.921-2.383,0.919c-1.137-0.003-1.932-0.313-2.386-0.935
			c-0.454-0.62-0.679-1.595-0.677-2.922c0.004-1.328,0.234-2.313,0.694-2.958c0.459-0.644,1.254-0.966,2.384-0.963
			c1.129,0.002,1.92,0.325,2.373,0.968c0.453,0.642,0.68,1.631,0.676,2.966C767.2,173.188,766.972,174.163,766.52,174.779z
			 M762.71,173.979c0.248,0.433,0.724,0.649,1.429,0.651c0.703,0.001,1.179-0.21,1.426-0.635c0.246-0.425,0.37-1.139,0.372-2.14
			c0.003-1.001-0.122-1.729-0.375-2.184c-0.252-0.455-0.723-0.684-1.412-0.685c-0.689-0.002-1.163,0.225-1.421,0.679
			s-0.387,1.178-0.389,2.172S762.461,173.545,762.71,173.979z M762.539,166.376l2.598-1.127l0.384,1.067l-2.676,0.896
			L762.539,166.376z"/>
		<path fill="#FFFFFF" d="M768.614,175.585l0.016-7.535l2.133,0.004l2.275,6.462h0.166l0.012-6.457l1.221,0.003l-0.015,7.535
			l-2.09-0.005l-2.329-6.472l-0.154-0.001l-0.014,6.468L768.614,175.585z"/>
	</g>
	<g>
		<g>
			<path fill="#FFFFFF" d="M755.307,121.824l-5.104-0.01l0.002-0.869c0.002-1.006-0.812-1.822-1.816-1.824l-4.146-0.008
				c-1.006-0.002-1.82,0.811-1.822,1.816l-0.002,0.869l-5.104-0.011c-2.316-0.005-4.203,1.872-4.207,4.188l-0.057,27.293
				c-0.006,2.314,1.875,4.201,4.189,4.206l17.994,0.036c2.316,0.005,4.203-1.874,4.209-4.188l0.055-27.293
				C759.504,123.713,757.625,121.829,755.307,121.824z M746.315,119.939c0.5,0.001,0.908,0.408,0.906,0.91
				c-0.002,0.498-0.41,0.905-0.912,0.904c-0.5-0.001-0.904-0.41-0.902-0.908C745.407,120.343,745.813,119.938,746.315,119.939z
				 M741.391,124.373l9.828,0.02l-0.008,3.836l-9.828-0.02L741.391,124.373z M755.243,155.111l-17.994-0.036
				c-0.994-0.002-1.801-0.81-1.797-1.8l0.055-27.293c0.002-0.994,0.811-1.798,1.805-1.798l1.717,0.004l-0.01,4.289
				c-0.004,1.152,0.936,2.094,2.088,2.096l10.377,0.021c1.15,0.003,2.094-0.935,2.096-2.087l0.008-4.289l1.719,0.003
				c0.99,0.002,1.797,0.812,1.795,1.805l-0.057,27.293h0.002C757.043,154.308,756.233,155.113,755.243,155.111z"/>
			<path fill="#FFFFFF" d="M742.141,134.606l-0.42,0.499c-0.141-0.359-0.49-0.618-0.9-0.619l-2.793-0.005
				c-0.535-0.001-0.975,0.434-0.975,0.971l-0.006,3.076c-0.002,0.535,0.434,0.974,0.969,0.975l2.795,0.005
				c0.535,0.002,0.973-0.436,0.973-0.971l0.004-1.646l1.271-1.513c0.215-0.253,0.182-0.63-0.068-0.846
				C742.735,134.322,742.356,134.355,742.141,134.606z M741.137,138.536L741.137,138.536c-0.002,0.178-0.146,0.324-0.326,0.323
				l-2.793-0.005c-0.178-0.001-0.324-0.147-0.324-0.325l0.008-3.076c0-0.18,0.146-0.324,0.324-0.323l2.793,0.005
				c0.18,0.001,0.324,0.146,0.324,0.325l-0.002,0.338l-0.811,0.962c-0.213,0.253-0.584,0.273-0.824,0.049l-0.498-0.462
				c-0.24-0.226-0.623-0.212-0.848,0.029s-0.211,0.62,0.029,0.85l1.396,1.302c0.111,0.104,0.256,0.16,0.408,0.161
				c0.014,0,0.021,0,0.037-0.002c0.162-0.01,0.316-0.085,0.422-0.212l0.686-0.81L741.137,138.536z"/>
			<path fill="#FFFFFF" d="M742.127,141.129l-0.463,0.554c-0.16-0.314-0.482-0.53-0.857-0.531l-2.795-0.005
				c-0.533-0.001-0.973,0.436-0.973,0.971l-0.006,3.076c-0.002,0.535,0.434,0.974,0.969,0.975l2.795,0.005
				c0.535,0.002,0.973-0.436,0.975-0.971l0.002-1.787l1.273-1.513c0.213-0.253,0.18-0.632-0.07-0.846
				C742.721,140.845,742.342,140.878,742.127,141.129z M741.124,145.202L741.124,145.202c-0.002,0.178-0.145,0.324-0.326,0.323
				l-2.793-0.005c-0.178-0.001-0.324-0.147-0.322-0.325l0.006-3.076c0.002-0.178,0.146-0.324,0.324-0.323l2.795,0.005
				c0.18,0.001,0.322,0.147,0.322,0.325l-0.002,0.195l-0.811,0.964c-0.213,0.251-0.582,0.275-0.824,0.049l-0.498-0.464
				c-0.24-0.228-0.621-0.212-0.848,0.029c-0.225,0.241-0.211,0.622,0.031,0.848l1.396,1.304c0.111,0.105,0.256,0.16,0.408,0.161
				c0.014,0,0.02,0,0.037-0.002c0.162-0.01,0.314-0.087,0.422-0.212l0.684-0.81L741.124,145.202z"/>
			<path fill="#FFFFFF" d="M742.116,147.688l-0.482,0.573c-0.166-0.291-0.477-0.497-0.84-0.498L738,147.758
				c-0.535-0.001-0.973,0.436-0.975,0.971l-0.006,3.076c-0.002,0.537,0.434,0.972,0.969,0.973l2.795,0.005
				c0.535,0.002,0.973-0.432,0.973-0.969l0.004-1.842l1.273-1.513c0.215-0.253,0.182-0.632-0.07-0.844
				C742.708,147.402,742.329,147.435,742.116,147.688z M741.11,151.813L741.11,151.813c-0.002,0.178-0.146,0.324-0.324,0.323
				l-2.795-0.005c-0.178-0.001-0.324-0.147-0.322-0.325l0.006-3.076c0-0.178,0.146-0.324,0.324-0.323l2.795,0.005
				c0.178,0.001,0.322,0.147,0.322,0.325v0.141l-0.812,0.964c-0.213,0.253-0.582,0.275-0.824,0.049l-0.498-0.462
				c-0.24-0.229-0.621-0.214-0.848,0.027c-0.225,0.243-0.211,0.622,0.031,0.848l1.398,1.304c0.109,0.105,0.254,0.16,0.406,0.161
				c0.014,0,0.021,0,0.037,0c0.162-0.01,0.314-0.087,0.422-0.212l0.684-0.812L741.11,151.813z"/>
			<path fill="#FFFFFF" d="M755.096,136.619l-9.697-0.02c-0.332-0.001-0.602,0.265-0.602,0.597c-0.002,0.332,0.266,0.6,0.6,0.601
				l9.695,0.02c0.332,0,0.6-0.267,0.602-0.599C755.694,136.885,755.426,136.619,755.096,136.619z"/>
			<path fill="#FFFFFF" d="M755.084,142.49l-9.697-0.021c-0.332-0.001-0.602,0.27-0.604,0.601c0,0.332,0.268,0.602,0.602,0.603
				l9.695,0.02c0.332,0,0.6-0.269,0.602-0.601C755.682,142.76,755.415,142.49,755.084,142.49z"/>
			<path fill="#FFFFFF" d="M755.073,148.367l-9.697-0.02c-0.332-0.001-0.602,0.267-0.602,0.599c-0.002,0.332,0.268,0.6,0.6,0.601
				l9.697,0.02c0.33,0,0.598-0.267,0.6-0.599C755.67,148.636,755.403,148.367,755.073,148.367z"/>
		</g>
	</g>
</g>
<g>
	
		<circle fill="#4D4A5D" stroke="#4D4A5E" stroke-width="3" stroke-miterlimit="10" stroke-opacity="0.5" cx="543.377" cy="152.455" r="54.616"/>
	<g enable-background="new    ">
		<path fill="#FFFFFF" d="M497.18,175.543v-7.535h1.221v7.535H497.18z"/>
		<path fill="#FFFFFF" d="M500.139,175.543v-7.535h2.123l1.683,5.885l1.683-5.885h2.134v7.535h-1.232v-6.182h-0.165l-1.782,5.874
			h-1.276l-1.782-5.874h-0.165v6.182H500.139z"/>
		<path fill="#FFFFFF" d="M512.25,173.201h-1.54v2.343h-1.221v-7.535h2.761c1.708,0,2.563,0.844,2.563,2.53
			c0,0.865-0.214,1.525-0.644,1.979C513.74,172.973,513.1,173.201,512.25,173.201z M510.709,172.144h1.529
			c0.88,0,1.32-0.535,1.32-1.605c0-0.514-0.106-0.888-0.319-1.122c-0.213-0.234-0.546-0.352-1.001-0.352h-1.529V172.144z"/>
		<path fill="#FFFFFF" d="M520.213,175.543h-4.224v-7.535h1.221v6.446h3.003V175.543z"/>
		<path fill="#FFFFFF" d="M521.214,175.543v-7.535h4.752v1.067h-3.531v2.134h2.871v1.056h-2.871v2.2h3.531v1.078H521.214z"/>
		<path fill="#FFFFFF" d="M527.297,175.543v-7.535h2.123l1.683,5.885l1.683-5.885h2.134v7.535h-1.232v-6.182h-0.165l-1.782,5.874
			h-1.276l-1.782-5.874h-0.165v6.182H527.297z"/>
		<path fill="#FFFFFF" d="M536.647,175.543v-7.535h4.752v1.067h-3.531v2.134h2.871v1.056h-2.871v2.2h3.531v1.078H536.647z"/>
		<path fill="#FFFFFF" d="M542.73,175.543v-7.535h2.134l2.288,6.457h0.165v-6.457h1.221v7.535h-2.09l-2.343-6.468h-0.154v6.468
			H542.73z"/>
		<path fill="#FFFFFF" d="M549.549,169.097v-1.089h5.5v1.089h-2.123v6.446h-1.231v-6.446H549.549z"/>
		<path fill="#FFFFFF" d="M554.961,175.543l1.859-7.535h2.431l1.87,7.535h-1.232l-0.406-1.617h-2.893l-0.408,1.617H554.961z
			 M557.766,169.032l-0.935,3.816h2.409l-0.924-3.816H557.766z"/>
		<path fill="#FFFFFF" d="M564.62,175.665c-1.1,0-1.846-0.305-2.238-0.913s-0.589-1.609-0.589-3.003s0.198-2.385,0.595-2.976
			c0.396-0.59,1.14-0.886,2.232-0.886c0.652,0,1.371,0.092,2.156,0.275l-0.044,0.99c-0.66-0.117-1.32-0.177-1.98-0.177
			c-0.659,0-1.106,0.196-1.342,0.589s-0.353,1.13-0.353,2.211c0,1.082,0.114,1.819,0.342,2.211c0.227,0.393,0.671,0.589,1.33,0.589
			c0.66,0,1.328-0.056,2.003-0.165l0.032,1.012C566.009,175.583,565.294,175.665,564.62,175.665z"/>
		<path fill="#FFFFFF" d="M568.074,175.543v-7.535h1.221v7.535H568.074z"/>
		<path fill="#FFFFFF" d="M576.153,174.741c-0.451,0.616-1.244,0.924-2.381,0.924s-1.933-0.31-2.387-0.93
			c-0.455-0.619-0.683-1.593-0.683-2.92c0-1.328,0.229-2.314,0.688-2.96c0.458-0.645,1.252-0.968,2.382-0.968
			c1.129,0,1.921,0.321,2.375,0.963c0.455,0.642,0.683,1.63,0.683,2.965C576.83,173.149,576.604,174.125,576.153,174.741z
			 M572.342,173.949c0.248,0.433,0.725,0.648,1.43,0.648c0.703,0,1.178-0.212,1.424-0.638c0.246-0.425,0.369-1.139,0.369-2.14
			s-0.127-1.729-0.38-2.184c-0.253-0.454-0.724-0.682-1.413-0.682s-1.162,0.228-1.42,0.682c-0.256,0.455-0.385,1.179-0.385,2.173
			S572.092,173.516,572.342,173.949z M572.155,166.347l2.596-1.133l0.385,1.067l-2.673,0.901L572.155,166.347z"/>
		<path fill="#FFFFFF" d="M578.249,175.543v-7.535h2.135l2.287,6.457h0.166v-6.457h1.221v7.535h-2.09l-2.344-6.468h-0.154v6.468
			H578.249z"/>
	</g>
	<g>
		<g>
			<g>
				<path fill="#FFFFFF" d="M550.147,140.031l2.402-2.396l-2.451-2.449l-2.398,2.402c-1.004-0.684-2.152-1.158-3.389-1.399v-3.397
					h-3.455v3.399c-1.238,0.239-2.38,0.712-3.382,1.397l-2.402-2.402l-2.446,2.449l2.396,2.396
					c-0.677,1.006-1.149,2.146-1.391,3.389h-3.404v3.455h3.404c0.24,1.234,0.713,2.375,1.391,3.383l-2.396,2.402l2.444,2.445
					l2.403-2.398c1,0.68,2.145,1.154,3.383,1.395v3.402h3.459v-3.402c1.234-0.236,2.377-0.709,3.387-1.393l2.398,2.396l2.451-2.445
					l-2.402-2.402c0.68-1.004,1.156-2.148,1.387-3.383h3.408v-3.455h-3.408C551.301,142.177,550.829,141.037,550.147,140.031z
					 M542.583,148.923c-2.082,0-3.77-1.697-3.77-3.783c0-2.08,1.688-3.773,3.77-3.773c2.088,0,3.781,1.693,3.781,3.773
					C546.364,147.226,544.672,148.923,542.583,148.923z"/>
				<path fill="#FFFFFF" d="M553.506,128.398c-3.033-1.939-6.617-3.084-10.479-3.084c-10.756,0-19.475,8.717-19.475,19.473
					c0,4.494,1.538,8.615,4.092,11.912l2.444-2.441c-1.943-2.654-3.13-5.902-3.13-9.457c0-8.871,7.192-16.061,16.065-16.061
					c2.953,0,5.674,0.852,8.051,2.256l-1.875,2l7.625,0.691l-0.816-7.963L553.506,128.398z"/>
				<polygon fill="#FFFFFF" points="568.354,145.195 563.577,140.419 563.577,143.095 557.29,143.095 557.29,147.298 
					563.577,147.298 563.577,149.976 				"/>
			</g>
		</g>
	</g>
</g>
<g>
	
		<circle fill="#91A7B3" stroke="#99A7CB" stroke-width="3" stroke-miterlimit="10" stroke-opacity="0.5" cx="137.904" cy="145.933" r="54.616"/>
	<g enable-background="new    ">
		<path fill="#FFFFFF" d="M115.217,175.543l1.859-7.535h2.431l1.87,7.535h-1.232l-0.407-1.617h-2.893l-0.407,1.617H115.217z
			 M118.021,169.032l-0.935,3.816h2.409l-0.924-3.816H118.021z"/>
		<path fill="#FFFFFF" d="M122.455,175.543v-7.535h2.134l2.288,6.457h0.165v-6.457h1.221v7.535h-2.09l-2.343-6.468h-0.154v6.468
			H122.455z"/>
		<path fill="#FFFFFF" d="M129.352,175.543l1.859-7.535h2.431l1.87,7.535h-1.232l-0.407-1.617h-2.893l-0.407,1.617H129.352z
			 M131.023,166.347l2.596-1.133l0.385,1.067l-2.673,0.901L131.023,166.347z M132.156,169.032l-0.935,3.816h2.409l-0.924-3.816
			H132.156z"/>
		<path fill="#FFFFFF" d="M140.813,175.543h-4.224v-7.535h1.221v6.446h3.003V175.543z"/>
		<path fill="#FFFFFF" d="M141.814,175.543v-7.535h1.221v7.535H141.814z"/>
		<path fill="#FFFFFF" d="M146.984,168.955c-0.932,0-1.397,0.326-1.397,0.979c0,0.338,0.11,0.578,0.33,0.721
			c0.22,0.144,0.706,0.319,1.458,0.528c0.751,0.209,1.281,0.458,1.589,0.748s0.462,0.746,0.462,1.369
			c0,0.792-0.226,1.385-0.676,1.776c-0.451,0.393-1.065,0.589-1.843,0.589c-0.624,0-1.312-0.073-2.068-0.22l-0.396-0.077
			l0.121-0.979c0.99,0.132,1.745,0.198,2.266,0.198c0.91,0,1.364-0.403,1.364-1.21c0-0.315-0.103-0.548-0.308-0.698
			c-0.206-0.15-0.667-0.315-1.386-0.495c-0.719-0.18-1.254-0.428-1.606-0.742c-0.352-0.315-0.528-0.814-0.528-1.496
			c0-0.683,0.222-1.197,0.666-1.546s1.058-0.522,1.843-0.522c0.564,0,1.232,0.066,2.002,0.198l0.385,0.065l-0.099,0.99
			C148.136,169.013,147.41,168.955,146.984,168.955z"/>
		<path fill="#FFFFFF" d="M150.747,175.543v-7.535h1.221v7.535H150.747z"/>
		<path fill="#FFFFFF" d="M155.917,168.955c-0.932,0-1.397,0.326-1.397,0.979c0,0.338,0.11,0.578,0.33,0.721
			c0.22,0.144,0.706,0.319,1.458,0.528c0.751,0.209,1.281,0.458,1.589,0.748s0.462,0.746,0.462,1.369
			c0,0.792-0.226,1.385-0.676,1.776c-0.451,0.393-1.065,0.589-1.843,0.589c-0.624,0-1.312-0.073-2.068-0.22l-0.396-0.077
			l0.121-0.979c0.99,0.132,1.745,0.198,2.266,0.198c0.91,0,1.364-0.403,1.364-1.21c0-0.315-0.103-0.548-0.308-0.698
			c-0.206-0.15-0.667-0.315-1.386-0.495c-0.719-0.18-1.254-0.428-1.606-0.742c-0.352-0.315-0.528-0.814-0.528-1.496
			c0-0.683,0.222-1.197,0.666-1.546s1.058-0.522,1.843-0.522c0.564,0,1.232,0.066,2.002,0.198l0.385,0.065l-0.099,0.99
			C157.068,169.013,156.342,168.955,155.917,168.955z"/>
	</g>
	<g>
		<path fill="#FFFFFF" d="M146.178,126.333l1.273,2.938l-1.616,0.167l-0.188-2.081l-0.633,1.491l-2.354-1.097l-0.198-2.488
			c0,0,1.887-0.062,1.896,0.066c0.011,0.129,0.205,2.617,0.205,2.617l0.628-2.142L146.178,126.333z M142.143,127.193l-0.141-1.821
			l-1.732,2.882l0.645,1.442L142.143,127.193z M143.353,136.496l-1.34-2.15l-0.131-2.58l-1.021-0.025l-0.449,1.773l-0.594-0.111
			l0.271-1.367l0.618-2.223l-0.482-0.816l-1.274,0.131l-0.682,1.412l-0.245,2.371l0.096,0.785l0.356,0.957l0.154,0.016l1.525,0.604
			l0.891-0.979l0.098,2.475l-1-1.007l0.055,1.274l0.674,1.572l-0.776,1.241l0.216,2.544l2.113,0.001l-0.299-2.749l-0.615-0.152
			l-0.335,1.026l0.036-1.428l1.205,0.394l0.429,3.066l1.811-1.481l-1.728-2.242L143.353,136.496z M138.664,135.359l-0.543,0.828
			l0.429,3.402l1.457-0.151l-0.294-3.729L138.664,135.359z M145.619,135.626l-1.687,0.076l-0.182,0.754l1.551,0.961l2.797-0.16
			l0.132-2.173l-2.249-1.39L145.619,135.626z M145.471,138.221l-0.82-0.604l-1.013,0.104l0.093,1.201l1.742,1.979l1.82-2.347
			l-0.546-0.548L145.471,138.221z M142.585,132.081l0.36,2.643l1.086,0.319l1.161-0.119l0.401-2.115l0.905,0.598l1.221,0.718
			l0.4-1.353L147.924,130l-2.318,0.209l-0.978,2.332l-0.315-0.639l0.48-2.289l-0.686-0.324l-0.332,0.604l-0.578-0.122l0.235-1.104
			l-1.22-0.632l-0.972,1.879l0.552,1.254l1.356,0.35l-0.15,0.52L142.585,132.081z M129.611,129.644l0.187-2.082l0.635,1.491
			l2.356-1.097l0.195-2.486c0,0-1.886-0.063-1.896,0.066c-0.009,0.127-0.205,2.615-0.205,2.615l-0.626-2.141l-0.986,0.527
			l-1.273,2.938L129.611,129.644z M136.116,124.861l0.875-1.896l0.096,1.617l2.588-0.246l1.016-2.277c0,0-1.756-0.69-1.809-0.572
			c-0.053,0.115-1.067,2.395-1.067,2.395l0.128-2.222l-1.105,0.164l-2.187,2.343L136.116,124.861z M135.177,128.457l-1.731-2.881
			l-0.143,1.82l1.231,2.504L135.177,128.457z M132.844,124.953l2.158-1.71l-1.494,0.075l-1.904,1.264L132.844,124.953z
			 M142.602,124.953l1.242-0.371l-1.905-1.266l-1.493-0.074L142.602,124.953z M133.321,139.853l-0.295,2.747l2.112-0.001
			l0.214-2.545l-0.777-1.24l0.673-1.572l0.06-1.273l-1.003,1.008l0.099-2.479l0.89,0.981l1.527-0.604l-0.056-0.02l0.515-0.749
			l0.183-0.943l-0.183-2.463l-0.782-1.369l-1.275-0.129l-0.479,0.816l0.617,2.221l0.269,1.367l-0.594,0.113l-0.446-1.773
			l-1.022,0.025l-0.127,2.58l-1.343,2.149l0.422,2.333l-1.727,2.24l1.809,1.484l0.433-3.066l1.201-0.394l0.04,1.429l-0.336-1.028
			L133.321,139.853z M136.783,135.564l-1.048,0.351l-0.294,3.729l1.458,0.15l0.611-3.815L136.783,135.564z M131.696,136.662
			l-0.18-0.754l-1.688-0.076l-0.362-1.932l-2.25,1.39l0.133,2.173l2.798,0.159L131.696,136.662z M136.118,127.535l0.732,1.558
			l0.514-0.513l-0.368-3.33l-2.167-0.403l-0.55,0.819l1.202,2.575L136.118,127.535z M138.37,125.154l-0.371,3.328l0.516,0.516
			l0.732-1.561l0.637,0.71l1.202-2.579l-0.549-0.816L138.37,125.154z M131.811,137.923l-1.012-0.104l-0.823,0.605l-1.275-0.218
			l-0.546,0.549l1.818,2.348l1.744-1.98L131.811,137.923z M135.708,141.696l-0.163,1.103l-1.001,0.932l-0.01,0.832l2.741,0.045
			l-0.107-2.807l-0.71-0.891L135.708,141.696z M138.989,140.91l-0.712,0.891l-0.106,2.809l2.744-0.047l-0.014-0.829l-1-0.932
			l-0.164-1.103L138.989,140.91z M134.205,130.12l-0.967-1.879l-1.22,0.632l0.234,1.104l-0.577,0.123l-0.332-0.607l-0.686,0.327
			l0.479,2.289l-0.312,0.637l-0.979-2.33l-2.318-0.209l-0.197,2.77l0.403,1.354l1.219-0.716l0.907-0.599l0.399,2.115l1.164,0.119
			l1.084-0.32l0.357-2.642l-0.409-0.042l-0.151-0.521l1.354-0.348L134.205,130.12z M140.006,146.146L140.006,146.146
			c-0.144,0.025-0.355,0.028-0.729,0.031l-0.043,0.004l0.13-1.02h-0.726l-0.138,1.086l-0.909,0.086l-0.236,0.022l-0.234-1.194
			h-0.732l0.247,1.265l-0.838,0.077c-0.127,0-0.248,0.003-0.354,0.008v-1.347h-1.415v1.466c0,0.576,0.186,0.904,0.441,1.09v1.031
			l6.708-0.742l-0.026-0.822l0.268-0.156v-1.866h-1.412v0.981H140.006z M134.473,149.81L134.473,149.81
			c-0.062,0.26,0.022,0.618,0.074,0.796l0.08,0.287l6.209-0.692l0.302-0.094l0.015-0.302c0.017-0.094,0.033-0.284,0.031-0.851
			v-0.391l-6.712,0.746L134.473,149.81L134.473,149.81z M135.084,151.961c0.604,0.667,1.544,1.012,2.795,1.017h0.037
			c2.131,0,2.863-0.949,3.102-1.743l0.148-0.507l-6.543,0.72L135.084,151.961z M138.434,113.126h-1.296v6.887h1.296V113.126z
			 M146.295,114.376l-1.201-0.487l-2.591,6.38l1.199,0.488L146.295,114.376z M152.205,117.859l-4.854,4.885l0.919,0.912l4.853-4.885
			L152.205,117.859z M156.698,124.263l-6.462,2.383l0.447,1.217l6.462-2.384L156.698,124.263z M151.002,131.407l-0.255,1.271
			l6.751,1.359l0.256-1.271L151.002,131.407z M133.303,120.758l-2.59-6.382l-1.199,0.488l2.59,6.38L133.303,120.758z
			 M128.455,123.23l-4.854-4.885l-0.92,0.912l4.855,4.885L128.455,123.23z M118.661,125.969l6.461,2.382l0.449-1.217l-6.461-2.383
			L118.661,125.969z M118.055,133.251l0.255,1.271l6.751-1.358l-0.254-1.271L118.055,133.251z"/>
	</g>
</g>
<g>
	<g>
		
			<linearGradient id="SVGID_1_" gradientUnits="userSpaceOnUse" x1="-181.6538" y1="226.8276" x2="785.3501" y2="226.8276" gradientTransform="matrix(1 0 0 -1 244 456.5381)">
			<stop  offset="0" style="stop-color:#91A7B3"/>
			<stop  offset="1" style="stop-color:#892C2D"/>
		</linearGradient>
		<polyline fill="none" stroke="url(#SVGID_1_)" stroke-miterlimit="10" stroke-dasharray="12,12" points="1011.987,150.596 
			1028.85,150.75 1028.85,308.826 62.846,308.826 62.846,156.595 69.744,157.216 		"/>
		<g>
			
				<linearGradient id="SVGID_2_" gradientUnits="userSpaceOnUse" x1="-181.6533" y1="305.9409" x2="785.3506" y2="305.9409" gradientTransform="matrix(1 0 0 -1 244 456.5381)">
				<stop  offset="0" style="stop-color:#91A7B3"/>
				<stop  offset="1" style="stop-color:#892C2D"/>
			</linearGradient>
			<polygon fill="url(#SVGID_2_)" points="1008.821,153.867 1008.879,147.267 1015.483,147.326 1015.42,153.928 			"/>
		</g>
		<g>
			
				<linearGradient id="SVGID_3_" gradientUnits="userSpaceOnUse" x1="-181.6538" y1="299.4087" x2="785.3501" y2="299.4087" gradientTransform="matrix(1 0 0 -1 244 456.5381)">
				<stop  offset="0" style="stop-color:#91A7B3"/>
				<stop  offset="1" style="stop-color:#892C2D"/>
			</linearGradient>
			<polygon fill="url(#SVGID_3_)" points="69.374,150.719 72.846,157.494 68.22,163.542 68.179,163.538 69.332,150.716 			"/>
		</g>
	</g>
</g>
<g>
	<g>
		<path fill="none" stroke="#989998" stroke-miterlimit="10" d="M309.563,89.374c-40.037-41.396-105.367-45.325-150.117-8.567"/>
		<g>
			<path fill="#989998" d="M313.643,93.825c-1.157-2.799-2.232-6.606-2.319-9.502l-2.32,4.494l-4.658,1.969
				C307.228,91.094,310.941,92.457,313.643,93.825z"/>
		</g>
		<g>
			
				<rect x="156.288" y="77.432" transform="matrix(0.6367 0.7711 -0.7711 0.6367 120.239 -93.7321)" fill="#989998" width="6.602" height="6.601"/>
		</g>
	</g>
</g>
<g>
	<g>
		<path fill="none" stroke="#989998" stroke-miterlimit="10" d="M507.562,211.046c-40.036,41.396-105.366,45.326-150.117,8.566"/>
		<g>
			<path fill="#989998" d="M511.643,206.596c-2.702,1.366-6.416,2.729-9.297,3.038l4.658,1.971l2.319,4.493
				C509.41,213.201,510.486,209.395,511.643,206.596z"/>
		</g>
		<g>
			
				<rect x="354.286" y="216.372" transform="matrix(-0.6367 0.7711 -0.7711 -0.6367 754.6539 83.8004)" fill="#989998" width="6.601" height="6.602"/>
		</g>
	</g>
</g>
<g>
	<g>
		<path fill="none" stroke="#989998" stroke-miterlimit="10" d="M714.563,92.374c-40.035-41.396-105.367-45.325-150.115-8.567"/>
		<g>
			<path fill="#989998" d="M718.643,96.825c-1.156-2.799-2.232-6.606-2.318-9.502l-2.32,4.494l-4.658,1.969
				C712.229,94.094,715.942,95.457,718.643,96.825z"/>
		</g>
		<g>
			
				<rect x="561.276" y="80.446" transform="matrix(0.6367 0.7711 -0.7711 0.6367 269.7071 -404.9374)" fill="#989998" width="6.602" height="6.601"/>
		</g>
	</g>
</g>
<g>
	<g>
		<path fill="none" stroke="#989998" stroke-miterlimit="10" d="M924.563,216.046c-40.035,41.396-105.367,45.326-150.115,8.566"/>
		<g>
			<path fill="#989998" d="M928.643,211.596c-2.703,1.366-6.416,2.729-9.297,3.038l4.656,1.971l2.32,4.493
				C926.411,218.201,927.487,214.395,928.643,211.596z"/>
		</g>
		<g>
			
				<rect x="771.268" y="221.361" transform="matrix(-0.6367 0.7711 -0.7711 -0.6367 1441.0018 -229.5374)" fill="#989998" width="6.601" height="6.601"/>
		</g>
	</g>
</g>
<path fill="none" stroke="#989998" stroke-miterlimit="10" d="M1028.85,170.328"/>
<rect x="474.346" y="288.73" fill="#FFFFFF" stroke="#989998" stroke-miterlimit="10" width="139" height="40"/>
<g enable-background="new    ">
	<path fill="#88888A" d="M495.055,313.726v-12.51h2.196l5.238,11.52h0.414v-11.52h1.098v12.51h-2.16l-5.274-11.502h-0.396v11.502
		H495.055z"/>
	<path fill="#88888A" d="M512.623,304.726h1.062v9h-1.062v-0.666c-0.924,0.564-1.848,0.846-2.772,0.846
		c-1.224,0-2.031-0.312-2.421-0.936c-0.39-0.624-0.585-1.806-0.585-3.546v-4.698h1.062v4.68c0,1.393,0.129,2.328,0.387,2.809
		c0.258,0.479,0.819,0.72,1.683,0.72c0.42,0,0.852-0.063,1.296-0.189s0.78-0.254,1.008-0.387l0.342-0.18V304.726z"/>
	<path fill="#88888A" d="M522.343,312.826l0.54-0.054l0.036,0.882c-1.356,0.168-2.502,0.252-3.438,0.252
		c-1.296-0.012-2.202-0.396-2.718-1.151c-0.516-0.756-0.774-1.92-0.774-3.492c0-3.144,1.236-4.716,3.708-4.716
		c1.188,0,2.076,0.339,2.664,1.017c0.587,0.678,0.882,1.762,0.882,3.249l-0.036,0.864h-6.12c0,1.104,0.189,1.923,0.567,2.457
		s1.026,0.801,1.944,0.801S521.431,312.898,522.343,312.826z M517.086,308.776h5.076c0-1.188-0.195-2.034-0.585-2.538
		c-0.39-0.504-1.014-0.756-1.872-0.756s-1.509,0.261-1.953,0.783C517.309,306.787,517.086,307.625,517.086,308.776z"/>
	<path fill="#88888A" d="M524.448,304.726h1.188l2.25,8.064h0.72l2.34-8.064h1.116l-2.628,9h-2.358L524.448,304.726z"/>
	<path fill="#88888A" d="M533.359,309.208c0-1.692,0.285-2.893,0.855-3.601c0.57-0.708,1.542-1.062,2.916-1.062
		c1.374,0,2.345,0.354,2.916,1.062s0.855,1.908,0.855,3.601c0,1.691-0.262,2.897-0.783,3.617c-0.521,0.721-1.515,1.08-2.979,1.08
		c-1.464,0-2.46-0.359-2.988-1.08C533.623,312.106,533.359,310.9,533.359,309.208z M534.475,309.181
		c0,1.422,0.165,2.406,0.495,2.952s1.05,0.818,2.16,0.818c1.11,0,1.833-0.275,2.169-0.827c0.336-0.553,0.504-1.533,0.504-2.943
		s-0.189-2.376-0.567-2.898c-0.378-0.521-1.077-0.782-2.097-0.782s-1.719,0.258-2.097,0.773
		C534.664,306.791,534.475,307.759,534.475,309.181z"/>
	<path fill="#88888A" d="M550.783,302.008c-1.933,0-2.898,0.737-2.898,2.214c0,0.864,0.22,1.446,0.657,1.746
		s1.296,0.576,2.574,0.828c1.277,0.252,2.189,0.6,2.736,1.044c0.545,0.443,0.818,1.188,0.818,2.231c0,1.345-0.333,2.313-0.999,2.907
		s-1.642,0.891-2.925,0.891c-0.936,0-2.022-0.084-3.258-0.252l-0.648-0.09l0.126-0.954c1.644,0.204,2.916,0.307,3.816,0.307
		c0.899,0,1.584-0.219,2.052-0.657c0.469-0.438,0.702-1.08,0.702-1.926c0-0.847-0.207-1.422-0.621-1.729
		c-0.414-0.306-1.074-0.543-1.979-0.711c-0.906-0.168-1.57-0.32-1.99-0.459c-0.42-0.138-0.812-0.336-1.178-0.594
		c-0.367-0.258-0.628-0.588-0.783-0.99c-0.156-0.401-0.234-0.909-0.234-1.521c0-2.185,1.32-3.276,3.96-3.276
		c0.792,0,1.824,0.084,3.097,0.252l0.594,0.09l-0.09,0.954C552.655,302.11,551.479,302.008,550.783,302.008z"/>
	<path fill="#88888A" d="M556.92,317.776v-13.05h1.062v0.684c0.937-0.575,1.923-0.863,2.961-0.863s1.812,0.366,2.321,1.098
		c0.511,0.732,0.766,1.923,0.766,3.573c0,1.649-0.301,2.844-0.9,3.582c-0.6,0.737-1.596,1.106-2.988,1.106
		c-0.744,0-1.463-0.078-2.159-0.233v4.104H556.92z M560.717,305.518c-0.396,0-0.822,0.066-1.277,0.198
		c-0.457,0.132-0.811,0.27-1.062,0.414l-0.396,0.197v6.408c0.815,0.145,1.524,0.216,2.124,0.216c1.031,0,1.758-0.29,2.178-0.873
		c0.42-0.581,0.631-1.541,0.631-2.88c0-1.338-0.184-2.286-0.55-2.844S561.45,305.518,560.717,305.518z"/>
	<path fill="#88888A" d="M566.334,313.726v-9h1.062v1.296c0.444-0.312,0.987-0.612,1.629-0.899c0.642-0.288,1.233-0.48,1.772-0.576
		v1.08c-0.516,0.107-1.056,0.272-1.619,0.494c-0.564,0.223-1.002,0.418-1.314,0.586l-0.468,0.27v6.75H566.334z"/>
	<path fill="#88888A" d="M572.436,302.476v-1.35h1.062v1.35H572.436z M572.436,313.726v-9h1.062v9H572.436z"/>
	<path fill="#88888A" d="M577.26,313.726h-1.062v-9h1.062v0.666c1.008-0.563,1.985-0.846,2.934-0.846c1.199,0,2,0.317,2.402,0.954
		c0.402,0.636,0.604,1.8,0.604,3.491v4.734h-1.08v-4.68c0-1.38-0.133-2.313-0.396-2.799c-0.264-0.486-0.828-0.729-1.691-0.729
		c-0.42,0-0.861,0.063-1.323,0.189s-0.819,0.255-1.071,0.387l-0.377,0.18V313.726z"/>
	<path fill="#88888A" d="M590.274,305.68h-3.006v4.446c0,1.164,0.084,1.926,0.252,2.285c0.168,0.36,0.563,0.54,1.188,0.54
		l1.656-0.126l0.072,0.918c-0.793,0.12-1.398,0.181-1.818,0.181c-0.912,0-1.545-0.226-1.898-0.675
		c-0.354-0.45-0.531-1.312-0.531-2.583v-4.986h-1.332v-0.954h1.332V301.9h1.08v2.826h3.006V305.68z"/>
</g>
</svg>
