<?xml version="1.0" encoding="utf-8"?>
<!-- Generator: Adobe Illustrator 16.0.0, SVG Export Plug-In . SVG Version: 6.00 Build 0)  -->
<!DOCTYPE svg PUBLIC "-//W3C//DTD SVG 1.1//EN" "http://www.w3.org/Graphics/SVG/1.1/DTD/svg11.dtd">
<svg version="1.1" id="Livello_1" xmlns="http://www.w3.org/2000/svg" xmlns:xlink="http://www.w3.org/1999/xlink" x="0px" y="0px"
	 width="1076.923px" height="361.538px" viewBox="0 0 1076.923 361.538" enable-background="new 0 0 1076.923 361.538"
	 xml:space="preserve">
<g>
	
		<circle fill="#CE9171" stroke="#CE9171" stroke-width="3" stroke-miterlimit="10" stroke-opacity="0.5" cx="340.641" cy="153.455" r="54.616"/>
	<text transform="matrix(1 0 0 1 320.3472 175.4946)" fill="#FFFFFF" font-family="'TitilliumWeb-SemiBold'" font-size="12">DISE침O</text>
	<g>
		<g>
			<path fill="#FFFFFF" d="M318.674,127.807l0.001,0.002c0.019,0.047,0.042,0.069,0.042,0.069l0.014-0.016l9.455,9.042v23.857
				h25.422v-35.476h-25.422v4.143l-5.777-5.525l-0.029,0.031c-0.192-0.071-1.272-0.471-2.776,1.103
				C318.098,126.611,318.594,127.619,318.674,127.807L318.674,127.807z M345.024,149.96h5.43v7.648h-5.43V149.96z M345.024,135.614
				h1.498h0.783h2.13h0.872h0.146v13.718h-5.43V135.614z M345.024,128.439h0.867v6.544h-0.867V128.439z M347.936,128.439h0.866
				v6.544h-0.866V128.439z M350.454,134.983h-0.146h-0.872v-6.544h1.019V134.983z M347.305,134.983h-0.783v-6.544h0.783V134.983z
				 M344.394,134.983h-0.79v-6.544h0.79V134.983z M342.106,128.439h0.868v6.544h-0.868V128.439z M331.34,128.439h10.137v6.544
				h-3.312v0.631h3.312h2.127h0.79v13.718v0.629v7.648h-4.179v-1.463h-1.262v1.463h-7.613v-11.746h0.993v-1.262h-0.993v-4.681
				l0.567,0.544c0.14-0.697,0.648-1.555,1.29-2.288c0.777-0.888,1.674-1.522,2.358-1.696l-4.216-4.034V128.439L331.34,128.439z"/>
			<path fill="#FFFFFF" d="M333.472,138.361c-0.888,1.033-1.228,1.922-1.245,2.37c-0.006,0.137,0.301,0.31,0.354,0.31h0.006
				l0.721,0.086l0.537,0.064l2.458,0.295c0,0-0.003-0.003-0.003-0.004c-0.013-0.185,0.069-0.398,0.229-0.588
				c0.082-0.092,0.285-0.295,0.541-0.312l-0.701-2.39l-0.152-0.517l-0.188-0.645c0.014-0.143-0.15-0.324-0.195-0.324
				C335.375,136.707,334.394,137.287,333.472,138.361z M335.499,137.464l0.113,0.388l0.15,0.517l0.549,1.869
				c-0.12,0.093-0.211,0.188-0.26,0.248c-0.084,0.099-0.156,0.203-0.213,0.309l-1.918-0.229l-0.539-0.064l-0.459-0.054
				c0.128-0.389,0.441-0.994,1.027-1.674C334.571,138.052,335.141,137.65,335.499,137.464z"/>
			<path fill="#FFFFFF" d="M336.711,141.496l0.007,0.016l0.571,0.477c0.035,0.029,0.17,0.072,0.298,0.072
				c0.087,0,0.169-0.02,0.217-0.075c0.118-0.138-0.021-0.448-0.084-0.499l-0.567-0.477c-0.013-0.012-0.031-0.017-0.052-0.017
				c-0.003,0-0.008,0.002-0.012,0.002c-0.073,0.007-0.177,0.071-0.263,0.173C336.711,141.296,336.668,141.435,336.711,141.496z"/>
			<polygon fill="#FFFFFF" points="338.954,146.616 340.215,146.616 340.215,144.601 338.079,144.601 338.079,145.863 
				338.954,145.863 			"/>
			<rect x="334.293" y="144.601" fill="#FFFFFF" width="1.822" height="1.262"/>
			<rect x="338.954" y="148.578" fill="#FFFFFF" width="1.262" height="1.822"/>
			<rect x="338.954" y="152.363" fill="#FFFFFF" width="1.262" height="1.821"/>
		</g>
	</g>
</g>
<g>
	
		<circle fill="#9B6562" stroke="#9B6562" stroke-width="3" stroke-miterlimit="10" stroke-opacity="0.5" cx="948.85" cy="152.611" r="54.616"/>
	
		<text transform="matrix(1 0.002 -0.002 1 911.2388 179.9551)" fill="#FFFFFF" font-family="'TitilliumWeb-SemiBold'" font-size="12">Lanzamiento</text>
	<g>
		<path fill="#FFFFFF" d="M932.976,145.898c2.863-4.104,4.547-6.747,5.774-8.699c-4.705,0.406-9.225,6.25-9.225,6.25l3.099,3.11
			C932.713,146.331,932.829,146.107,932.976,145.898z"/>
		<path fill="#FFFFFF" d="M945.071,159.057l3.101,3.109c0,0,5.859-4.498,6.283-9.2c-1.956,1.221-4.606,2.893-8.721,5.738
			C945.527,158.849,945.304,158.967,945.071,159.057z"/>
		<path fill="#FFFFFF" d="M940.358,157.442c-0.532,0.216-1.058,0.445-1.604,0.624c-1.458,0.485-2.961,0.812-4.483,1.018
			c-0.64,0.087-1.281,0.16-1.926,0.209c0.003-0.082,0.01-0.16,0.019-0.24c0.135-1.55,0.375-3.093,0.759-4.602
			c0.185-0.729,0.422-1.437,0.674-2.143c0.16-0.439,0.354-0.861,0.552-1.281l-0.341-0.342c-0.76,0.508-1.422,1.151-1.983,1.879
			c-0.83,1.078-1.459,2.3-1.895,3.59c-0.469,1.38-0.75,2.846-0.796,4.307c-0.006,0.205-0.022,0.414,0.01,0.617
			c0.041,0.264,0.153,0.512,0.328,0.716c0.172,0.201,0.396,0.351,0.648,0.433c0.21,0.067,0.422,0.069,0.641,0.068
			c1.325-0.01,2.671-0.237,3.943-0.611c2.322-0.686,4.67-1.977,6.047-4.027l-0.33-0.332
			C940.532,157.364,940.444,157.405,940.358,157.442z"/>
		<path fill="#FFFFFF" d="M966.252,125.513h-0.002c-0.241-0.242-0.568-0.378-0.909-0.379c-0.008,0-0.017,0-0.026,0
			c-4.144,0.074-14.371,0.829-19.811,6.248c-2.471,2.461-3.275,3.743-5.039,6.55c-1.268,2.022-3.004,4.793-6.177,9.339
			c-0.355,0.514-0.297,1.205,0.145,1.649l8.285,8.315c0.247,0.25,0.577,0.38,0.911,0.381c0.255,0,0.511-0.075,0.733-0.229
			c4.563-3.154,7.338-4.882,9.364-6.142c2.815-1.75,4.101-2.548,6.57-5.01c5.451-5.429,6.241-15.646,6.328-19.784
			C966.633,126.1,966.497,125.762,966.252,125.513z M956.607,141.158c-1.675,1.669-4.384,1.664-6.053-0.012
			c-1.668-1.674-1.662-4.385,0.011-6.051c1.677-1.668,4.386-1.663,6.054,0.012C958.286,136.781,958.28,139.492,956.607,141.158z"/>
	</g>
</g>
<g>
	
		<circle fill="#C1CE92" stroke="#B1BA76" stroke-width="3" stroke-miterlimit="10" stroke-opacity="0.5" cx="746.114" cy="154.298" r="54.616"/>
	
		<text transform="matrix(1 0.002 -0.002 1 710.7251 177.646)" fill="#FFFFFF" font-family="'TitilliumWeb-SemiBold'" font-size="12">Aceptaci칩n</text>
	<g>
		<g>
			<path fill="#FFFFFF" d="M755.308,121.824l-5.104-0.01l0.002-0.869c0.002-1.006-0.813-1.822-1.817-1.824l-4.146-0.008
				c-1.006-0.002-1.821,0.811-1.823,1.816l-0.002,0.869l-5.104-0.011c-2.316-0.005-4.203,1.872-4.207,4.188l-0.056,27.293
				c-0.005,2.314,1.876,4.201,4.19,4.206l17.994,0.036c2.316,0.005,4.203-1.874,4.208-4.188l0.056-27.293
				C759.504,123.713,757.625,121.829,755.308,121.824z M746.314,119.939c0.501,0.001,0.909,0.408,0.907,0.91
				c-0.001,0.498-0.41,0.905-0.911,0.904s-0.905-0.41-0.904-0.908C745.406,120.343,745.813,119.938,746.314,119.939z
				 M741.391,124.373l9.828,0.02l-0.008,3.836l-9.827-0.02L741.391,124.373z M755.243,155.111l-17.994-0.036
				c-0.994-0.002-1.801-0.81-1.798-1.8l0.056-27.293c0.002-0.994,0.809-1.798,1.804-1.798l1.716,0.004l-0.009,4.289
				c-0.003,1.152,0.935,2.094,2.088,2.096l10.376,0.021c1.152,0.003,2.094-0.935,2.096-2.087l0.009-4.289l1.718,0.003
				c0.99,0.002,1.797,0.811,1.795,1.805l-0.056,27.293h0.002C757.043,154.308,756.233,155.113,755.243,155.111z"/>
			<path fill="#FFFFFF" d="M742.141,134.606l-0.42,0.499c-0.141-0.359-0.49-0.618-0.9-0.619l-2.794-0.005
				c-0.535-0.001-0.973,0.434-0.974,0.971l-0.006,3.076c-0.002,0.535,0.434,0.974,0.969,0.975l2.795,0.005
				c0.535,0.002,0.973-0.436,0.973-0.971l0.004-1.646l1.272-1.513c0.214-0.253,0.181-0.63-0.07-0.846
				C742.735,134.322,742.356,134.355,742.141,134.606z M741.137,138.536L741.137,138.536c-0.002,0.178-0.146,0.324-0.326,0.323
				l-2.793-0.005c-0.178-0.001-0.324-0.147-0.324-0.325l0.007-3.076c0-0.18,0.147-0.324,0.325-0.323l2.793,0.005
				c0.18,0.001,0.323,0.146,0.323,0.325l-0.001,0.338l-0.811,0.962c-0.213,0.253-0.584,0.273-0.824,0.049l-0.498-0.462
				c-0.24-0.226-0.623-0.212-0.848,0.029s-0.211,0.62,0.03,0.85l1.397,1.302c0.111,0.104,0.256,0.16,0.408,0.161
				c0.013,0,0.021,0,0.037-0.002c0.162-0.01,0.316-0.085,0.422-0.212l0.684-0.81L741.137,138.536z"/>
			<path fill="#FFFFFF" d="M742.128,141.129l-0.464,0.554c-0.16-0.314-0.481-0.53-0.857-0.531l-2.794-0.005
				c-0.535-0.001-0.973,0.436-0.974,0.971l-0.006,3.076c-0.002,0.535,0.434,0.974,0.969,0.975l2.795,0.005
				c0.535,0.002,0.973-0.436,0.974-0.971l0.003-1.787l1.273-1.513c0.214-0.253,0.18-0.632-0.07-0.846
				C742.721,140.845,742.342,140.878,742.128,141.129z M741.124,145.202L741.124,145.202c-0.002,0.178-0.146,0.324-0.326,0.323
				l-2.793-0.005c-0.178-0.001-0.324-0.147-0.322-0.325l0.005-3.076c0.001-0.178,0.147-0.324,0.325-0.323l2.794,0.005
				c0.179,0.001,0.323,0.147,0.322,0.325l-0.001,0.195l-0.811,0.964c-0.213,0.251-0.583,0.275-0.824,0.049l-0.498-0.464
				c-0.24-0.228-0.622-0.212-0.848,0.029c-0.225,0.241-0.211,0.622,0.031,0.848l1.397,1.304c0.111,0.105,0.255,0.16,0.407,0.161
				c0.014,0,0.021,0,0.037-0.002c0.164-0.01,0.316-0.087,0.423-0.212l0.683-0.81L741.124,145.202z"/>
			<path fill="#FFFFFF" d="M742.116,147.688l-0.482,0.573c-0.167-0.291-0.477-0.497-0.84-0.498L738,147.758
				c-0.535-0.001-0.973,0.436-0.975,0.971l-0.006,3.076c-0.001,0.537,0.435,0.972,0.97,0.973l2.794,0.005
				c0.536,0.002,0.973-0.432,0.974-0.969l0.004-1.842l1.272-1.513c0.215-0.253,0.182-0.632-0.07-0.844
				C742.708,147.402,742.329,147.435,742.116,147.688z M741.11,151.813L741.11,151.813c-0.002,0.178-0.146,0.324-0.324,0.323
				l-2.795-0.005c-0.178-0.001-0.324-0.147-0.323-0.325l0.007-3.076c0-0.178,0.146-0.324,0.324-0.323l2.794,0.005
				c0.179,0.001,0.323,0.147,0.323,0.325l-0.001,0.141l-0.811,0.964c-0.214,0.253-0.583,0.275-0.825,0.049l-0.498-0.462
				c-0.24-0.229-0.621-0.214-0.847,0.027c-0.226,0.243-0.212,0.622,0.03,0.848l1.398,1.304c0.111,0.105,0.255,0.16,0.407,0.161
				c0.013,0,0.021,0,0.037,0c0.163-0.01,0.315-0.087,0.423-0.212l0.682-0.812L741.11,151.813z"/>
			<path fill="#FFFFFF" d="M755.096,136.619l-9.697-0.02c-0.332-0.001-0.602,0.265-0.602,0.597c-0.002,0.332,0.266,0.6,0.6,0.601
				l9.696,0.02c0.331,0,0.599-0.267,0.601-0.599C755.694,136.885,755.426,136.619,755.096,136.619z"/>
			<path fill="#FFFFFF" d="M755.084,142.49l-9.697-0.02c-0.332-0.001-0.602,0.269-0.603,0.601s0.268,0.602,0.601,0.603l9.695,0.02
				c0.332,0,0.6-0.269,0.602-0.601C755.682,142.76,755.415,142.49,755.084,142.49z"/>
			<path fill="#FFFFFF" d="M755.073,148.367l-9.697-0.02c-0.332-0.001-0.602,0.267-0.603,0.599s0.268,0.6,0.601,0.601l9.696,0.02
				c0.331,0,0.599-0.267,0.6-0.599S755.403,148.367,755.073,148.367z"/>
		</g>
	</g>
</g>
<g>
	
		<circle fill="#4D4A5D" stroke="#4D4A5E" stroke-width="3" stroke-miterlimit="10" stroke-opacity="0.5" cx="543.378" cy="152.455" r="54.616"/>
	<text transform="matrix(1 0 0 1 497.3105 165.8267)" fill="#FFFFFF" font-family="'TitilliumWeb-SemiBold'" font-size="12">Implementaci칩n</text>
	<g>
		<g>
			<g>
				<path fill="#FFFFFF" d="M550.146,131.031l2.403-2.396l-2.451-2.449l-2.398,2.402c-1.005-0.684-2.152-1.158-3.389-1.399v-3.397
					h-3.456v3.399c-1.237,0.239-2.379,0.712-3.381,1.397l-2.403-2.402l-2.446,2.449l2.396,2.396
					c-0.676,1.006-1.149,2.146-1.39,3.389h-3.404v3.455h3.404c0.24,1.234,0.713,2.375,1.39,3.383l-2.396,2.402l2.444,2.445
					l2.404-2.398c1,0.68,2.145,1.154,3.382,1.395v3.402h3.46v-3.402c1.234-0.236,2.377-0.709,3.387-1.393l2.398,2.396l2.451-2.445
					l-2.402-2.402c0.68-1.004,1.156-2.148,1.387-3.383h3.407v-3.455h-3.408C551.301,133.177,550.829,132.037,550.146,131.031z
					 M542.583,139.923c-2.082,0-3.771-1.697-3.771-3.783c0-2.08,1.689-3.773,3.771-3.773c2.088,0,3.78,1.693,3.78,3.773
					C546.364,138.226,544.672,139.923,542.583,139.923z"/>
				<path fill="#FFFFFF" d="M553.507,119.398c-3.033-1.939-6.618-3.084-10.48-3.084c-10.756,0-19.474,8.717-19.474,19.473
					c0,4.494,1.538,8.615,4.091,11.912l2.445-2.441c-1.944-2.654-3.13-5.902-3.13-9.457c0-8.871,7.192-16.061,16.064-16.061
					c2.953,0,5.674,0.852,8.052,2.256l-1.875,2l7.624,0.691l-0.815-7.963L553.507,119.398z"/>
				<polygon fill="#FFFFFF" points="568.354,136.195 563.577,131.419 563.577,134.095 557.29,134.095 557.29,138.298 
					563.577,138.298 563.577,140.976 				"/>
			</g>
		</g>
	</g>
</g>
<g>
	
		<circle fill="#91A7B3" stroke="#99A7CB" stroke-width="3" stroke-miterlimit="10" stroke-opacity="0.5" cx="137.904" cy="145.933" r="54.616"/>
	<text transform="matrix(1 0 0 1 114.9966 172.9805)" fill="#FFFFFF" font-family="'TitilliumWeb-SemiBold'" font-size="12">An치lisis</text>
	<g>
		<path fill="#FFFFFF" d="M146.178,126.333l1.273,2.938l-1.616,0.167l-0.188-2.081l-0.633,1.491l-2.354-1.097l-0.198-2.488
			c0,0,1.887-0.062,1.896,0.066c0.011,0.129,0.205,2.617,0.205,2.617l0.628-2.142L146.178,126.333z M142.143,127.193l-0.141-1.821
			l-1.732,2.882l0.645,1.442L142.143,127.193z M143.353,136.496l-1.34-2.15l-0.131-2.58l-1.021-0.025l-0.449,1.773l-0.594-0.111
			l0.271-1.367l0.618-2.223l-0.482-0.816l-1.274,0.131l-0.682,1.412l-0.245,2.371l0.096,0.785l0.356,0.957l0.154,0.016l1.525,0.604
			l0.891-0.979l0.098,2.475l-1-1.007l0.055,1.274l0.674,1.572l-0.776,1.241l0.216,2.544l2.113,0.001l-0.299-2.749l-0.615-0.152
			l-0.335,1.026l0.036-1.428l1.205,0.394l0.429,3.066l1.811-1.482l-1.728-2.242L143.353,136.496z M138.664,135.359l-0.543,0.828
			l0.429,3.402l1.457-0.151l-0.294-3.729L138.664,135.359z M145.619,135.626l-1.687,0.076l-0.182,0.754l1.551,0.961l2.797-0.16
			l0.132-2.173l-2.249-1.39L145.619,135.626z M145.471,138.221l-0.82-0.604l-1.013,0.104l0.093,1.201l1.742,1.979l1.82-2.347
			l-0.546-0.548L145.471,138.221z M142.585,132.081l0.36,2.643l1.086,0.319l1.161-0.119l0.401-2.115l0.905,0.598l1.221,0.718
			l0.4-1.353L147.924,130l-2.318,0.209l-0.978,2.332l-0.315-0.639l0.48-2.289l-0.686-0.324l-0.332,0.604l-0.578-0.122l0.235-1.104
			l-1.22-0.632l-0.972,1.879l0.552,1.254l1.356,0.35l-0.15,0.52L142.585,132.081z M129.611,129.644l0.187-2.082l0.635,1.491
			l2.356-1.097l0.195-2.486c0,0-1.886-0.064-1.896,0.066c-0.009,0.127-0.205,2.615-0.205,2.615l-0.626-2.141l-0.986,0.527
			l-1.273,2.938L129.611,129.644z M136.116,124.861l0.875-1.896l0.096,1.617l2.588-0.246l1.016-2.277c0,0-1.756-0.69-1.809-0.572
			c-0.053,0.115-1.067,2.395-1.067,2.395l0.128-2.222l-1.105,0.164l-2.187,2.343L136.116,124.861z M135.177,128.457l-1.731-2.881
			l-0.143,1.82l1.231,2.504L135.177,128.457z M132.844,124.953l2.158-1.71l-1.494,0.075l-1.904,1.264L132.844,124.953z
			 M142.602,124.953l1.242-0.371l-1.905-1.266l-1.493-0.074L142.602,124.953z M133.321,139.853l-0.295,2.747l2.112-0.001
			l0.214-2.545l-0.777-1.24l0.673-1.572l0.06-1.273l-1.003,1.008l0.099-2.479l0.89,0.981l1.527-0.604l-0.056-0.02l0.515-0.749
			l0.183-0.943l-0.183-2.463l-0.782-1.369l-1.275-0.129l-0.479,0.816l0.617,2.221l0.269,1.367l-0.594,0.113l-0.446-1.773
			l-1.022,0.025l-0.127,2.58l-1.343,2.149l0.422,2.333l-1.727,2.24l1.809,1.484l0.433-3.066l1.201-0.394l0.04,1.429l-0.336-1.028
			L133.321,139.853z M136.783,135.564l-1.048,0.351l-0.294,3.729l1.458,0.15l0.611-3.815L136.783,135.564z M131.696,136.662
			l-0.18-0.754l-1.688-0.076l-0.362-1.932l-2.25,1.39l0.133,2.173l2.798,0.159L131.696,136.662z M136.118,127.535l0.732,1.558
			l0.514-0.513l-0.368-3.33l-2.167-0.403l-0.55,0.819l1.202,2.575L136.118,127.535z M138.37,125.154l-0.371,3.328l0.516,0.516
			l0.732-1.561l0.637,0.71l1.202-2.579l-0.549-0.816L138.37,125.154z M131.811,137.923l-1.012-0.104l-0.823,0.605l-1.275-0.218
			l-0.546,0.549l1.818,2.348l1.744-1.98L131.811,137.923z M135.708,141.696l-0.163,1.103l-1.001,0.932l-0.01,0.832l2.741,0.045
			l-0.107-2.807l-0.71-0.891L135.708,141.696z M138.989,140.91l-0.712,0.891l-0.106,2.809l2.744-0.047l-0.014-0.829l-1-0.932
			l-0.164-1.103L138.989,140.91z M134.205,130.12l-0.967-1.879l-1.22,0.632l0.234,1.104l-0.577,0.123l-0.332-0.607l-0.686,0.327
			l0.479,2.289l-0.313,0.637l-0.979-2.33l-2.318-0.209l-0.197,2.77l0.403,1.354l1.219-0.716l0.907-0.599l0.399,2.115l1.164,0.119
			l1.084-0.32l0.357-2.642l-0.409-0.042l-0.151-0.521l1.354-0.348L134.205,130.12z M140.006,146.146L140.006,146.146
			c-0.144,0.025-0.355,0.028-0.729,0.031l-0.043,0.004l0.13-1.02h-0.726l-0.138,1.086l-0.909,0.086l-0.236,0.022l-0.234-1.194
			h-0.732l0.247,1.265l-0.838,0.077c-0.127,0-0.248,0.003-0.354,0.008v-1.347h-1.415v1.466c0,0.576,0.186,0.904,0.441,1.09v1.031
			l6.708-0.742l-0.026-0.822l0.268-0.156v-1.866h-1.412V146.146z M134.473,149.81L134.473,149.81
			c-0.062,0.26,0.022,0.618,0.074,0.796l0.08,0.287l6.209-0.692l0.302-0.094l0.015-0.302c0.017-0.094,0.033-0.284,0.031-0.851
			v-0.391l-6.712,0.746L134.473,149.81L134.473,149.81z M135.084,151.961c0.604,0.667,1.544,1.012,2.795,1.017h0.037
			c2.131,0,2.863-0.949,3.102-1.743l0.148-0.507l-6.543,0.72L135.084,151.961z M138.434,113.126h-1.296v6.887h1.296V113.126z
			 M146.295,114.376l-1.201-0.487l-2.591,6.38l1.199,0.488L146.295,114.376z M152.205,117.859l-4.854,4.885l0.919,0.912l4.853-4.885
			L152.205,117.859z M156.698,124.263l-6.462,2.383l0.447,1.217l6.462-2.384L156.698,124.263z M151.002,131.407l-0.255,1.271
			l6.751,1.359l0.256-1.271L151.002,131.407z M133.303,120.758l-2.59-6.382l-1.199,0.488l2.59,6.38L133.303,120.758z
			 M128.455,123.23l-4.854-4.885l-0.92,0.912l4.855,4.885L128.455,123.23z M118.661,125.969l6.461,2.382l0.449-1.217l-6.461-2.383
			L118.661,125.969z M118.055,133.251l0.255,1.271l6.751-1.358l-0.254-1.271L118.055,133.251z"/>
	</g>
</g>
<g>
	<g>
		<linearGradient id="SVGID_1_" gradientUnits="userSpaceOnUse" x1="62.3462" y1="229.7109" x2="1029.3501" y2="229.7109">
			<stop  offset="0" style="stop-color:#91A7B3"/>
			<stop  offset="1" style="stop-color:#892C2D"/>
		</linearGradient>
		<polyline fill="none" stroke="url(#SVGID_1_)" stroke-miterlimit="10" stroke-dasharray="12,12" points="1011.986,150.596 
			1028.85,150.75 1028.85,308.826 62.846,308.826 62.846,156.595 69.744,157.216 		"/>
		<g>
			<linearGradient id="SVGID_2_" gradientUnits="userSpaceOnUse" x1="62.3462" y1="150.5972" x2="1029.3501" y2="150.5972">
				<stop  offset="0" style="stop-color:#91A7B3"/>
				<stop  offset="1" style="stop-color:#892C2D"/>
			</linearGradient>
			<polygon fill="url(#SVGID_2_)" points="1008.82,153.867 1008.88,147.267 1015.482,147.326 1015.421,153.928 			"/>
		</g>
		<g>
			<linearGradient id="SVGID_3_" gradientUnits="userSpaceOnUse" x1="62.3462" y1="157.1289" x2="1029.3501" y2="157.1289">
				<stop  offset="0" style="stop-color:#91A7B3"/>
				<stop  offset="1" style="stop-color:#892C2D"/>
			</linearGradient>
			<polygon fill="url(#SVGID_3_)" points="69.374,150.719 72.846,157.494 68.22,163.542 68.179,163.538 69.332,150.716 			"/>
		</g>
	</g>
</g>
<g>
	<g>
		<path fill="none" stroke="#989998" stroke-miterlimit="10" d="M309.563,89.374c-40.037-41.396-105.367-45.325-150.117-8.567"/>
		<g>
			<path fill="#989998" d="M313.643,93.825c-1.157-2.799-2.232-6.606-2.319-9.502l-2.32,4.494l-4.658,1.969
				C307.228,91.094,310.941,92.457,313.643,93.825z"/>
		</g>
		<g>
			
				<rect x="156.296" y="77.429" transform="matrix(-0.6367 -0.7711 0.7711 -0.6367 198.9539 255.1983)" fill="#989998" width="6.602" height="6.601"/>
		</g>
	</g>
</g>
<g>
	<g>
		<path fill="none" stroke="#989998" stroke-miterlimit="10" d="M507.563,211.046c-40.037,41.397-105.367,45.327-150.117,8.567"/>
		<g>
			<path fill="#989998" d="M511.643,206.596c-2.703,1.367-6.416,2.73-9.297,3.039l4.658,1.97l2.319,4.493
				C509.41,213.201,510.486,209.395,511.643,206.596z"/>
		</g>
		<g>
			
				<rect x="354.296" y="216.39" transform="matrix(0.6367 -0.7711 0.7711 0.6367 -39.4993 355.5385)" fill="#989998" width="6.601" height="6.602"/>
		</g>
	</g>
</g>
<g>
	<g>
		<path fill="none" stroke="#989998" stroke-miterlimit="10" d="M714.563,92.374c-40.036-41.396-105.367-45.325-150.116-8.567"/>
		<g>
			<path fill="#989998" d="M718.643,96.825c-1.156-2.799-2.232-6.606-2.319-9.502l-2.32,4.494l-4.657,1.969
				C712.228,94.094,715.941,95.457,718.643,96.825z"/>
		</g>
		<g>
			
				<rect x="561.296" y="80.429" transform="matrix(-0.6367 -0.7711 0.7711 -0.6367 859.4923 572.4182)" fill="#989998" width="6.602" height="6.601"/>
		</g>
	</g>
</g>
<g>
	<g>
		<path fill="none" stroke="#989998" stroke-miterlimit="10" d="M924.563,216.046c-40.036,41.397-105.367,45.327-150.116,8.567"/>
		<g>
			<path fill="#989998" d="M928.643,211.596c-2.703,1.367-6.416,2.73-9.297,3.039l4.657,1.97l2.319,4.493
				C926.411,218.201,927.486,214.395,928.643,211.596z"/>
		</g>
		<g>
			
				<rect x="771.297" y="221.39" transform="matrix(0.6367 -0.7711 0.7711 0.6367 108.1232 678.8934)" fill="#989998" width="6.601" height="6.602"/>
		</g>
	</g>
</g>
<path fill="none" stroke="#989998" stroke-miterlimit="10" d="M1028.85,170.328"/>
<rect x="474.346" y="288.73" fill="#FFFFFF" stroke="#989998" stroke-miterlimit="10" width="139" height="40"/>
<text transform="matrix(1 0 0 1 493.4888 313.7266)" fill="#88888A" font-family="'TitilliumWeb-Light'" font-size="18">Nuevo Sprint</text>
</svg>
