<?xml version="1.0" encoding="utf-8"?>
<!-- Generator: Adobe Illustrator 19.0.0, SVG Export Plug-In . SVG Version: 6.00 Build 0)  -->
<svg version="1.1" xmlns="http://www.w3.org/2000/svg" xmlns:xlink="http://www.w3.org/1999/xlink" x="0px" y="0px" width="100px"
	 height="100px" viewBox="0 0 100 100" style="enable-background:new 0 0 100 100;" xml:space="preserve">
<style type="text/css">
	.st0{display:none;}
	.st1{display:inline;}
	.st2{fill:#3A3A3A;}
	.st3{fill:#FFFFFF;}
	.st4{fill:#404042;}
	.st5{clip-path:url(#XMLID_158_);}
</style>
<g id="Livello_1" class="st0">
	<g id="XMLID_39_" class="st1">
		<g id="XMLID_95_">
			<path id="XMLID_138_" d="M24.5,45.7c0.3,0.1,0.6,0.1,0.8,0.2c0.3,0.1,0.5,0.2,0.8,0.3c0.7,0.3,1.4,0.6,2.2,0.7
				c0.6,0.1,1.1,0.3,1.7,0.5c0.8,0.2,1.5,0.3,2.3,0.6c1.2,0.5,2.5,0.9,3.7,1.4c1.3,0.5,2.8,0.8,4.1,1.3c1.3,0.5,2.6,0.9,3.9,1.3
				c0.6,0.2,1.3,0.3,1.9,0.5c0.8,0.3,1.6,0.6,2.4,0.8c1.3,0.4,2.6,0.9,3.9,1.2c0.7,0.1,1.3,0.3,1.9,0.5c0.6,0.2,1.3,0.3,2,0.6
				c0.2,0.1,0.4,0.2,0.5,0.2c0.4,0.2,0.7,0.3,1.1,0.4c0.7,0.2,1.3,0.5,2,0.8c0.4,0.2,0.8,0.3,1.2,0.5c0.3,0.1,0.6,0.4,0.9,0.5
				c0.3,0.2,0.6,0.2,0.9,0.4c0.4,0.2,0.7,0.5,1,0.7c0,0,0,0.1,0,0.1c-0.6-0.2-1.1-0.5-1.7-0.8c-0.2-0.1-0.4-0.2-0.7-0.4
				c-0.4-0.3-0.8-0.4-1.3-0.5c-0.6-0.2-1.2-0.5-1.9-0.8c-0.6-0.2-1.2-0.4-1.8-0.6c-1.2-0.4-2.4-0.8-3.6-1.1
				c-1.3-0.3-2.6-0.8-3.9-1.1c-1.4-0.4-2.8-1-4.3-1.3c-1.4-0.3-2.7-0.8-4-1.2c-1.4-0.5-2.8-0.9-4.2-1.4c-0.6-0.2-1.1-0.5-1.7-0.7
				c-0.7-0.2-1.4-0.4-2-0.7c-0.8-0.3-1.6-0.5-2.4-0.7c-0.4-0.1-0.7-0.2-1.1-0.3c-0.4-0.2-0.7-0.2-1.2-0.3c-0.8-0.1-1.6-0.6-2.3-0.9
				c-0.2-0.1-0.5-0.2-0.7-0.3c-0.2-0.1-0.4-0.1-0.6-0.3C24.3,45.7,24.4,45.6,24.5,45.7z"/>
			<g id="XMLID_133_">
				<path id="XMLID_137_" d="M24.6,38.9C24.6,38.9,24.6,38.9,24.6,38.9C24.6,38.9,24.6,38.9,24.6,38.9z"/>
				<path id="XMLID_134_" d="M25.3,39.6c0.2-0.2,0.2-0.4,0.1-0.6c-0.1-0.2-0.3-0.3-0.5-0.3c-0.2-0.3-0.6-0.1-0.7,0.2
					C24.1,39.5,24.8,40,25.3,39.6z M24.6,39C24.6,39,24.6,38.9,24.6,39C24.6,38.9,24.6,38.9,24.6,39C24.6,38.9,24.6,38.9,24.6,39
					C24.6,38.9,24.6,38.9,24.6,39C24.6,38.9,24.6,38.9,24.6,39C24.6,38.9,24.6,38.9,24.6,39c0-0.1,0.1-0.1,0.1-0.1c0,0,0,0,0,0
					c0,0,0.1,0,0.2,0c0,0,0,0,0,0c0.2,0,0.3,0.2,0.4,0.3c0.1,0.2-0.2,0.2-0.3,0.2C24.7,39.3,24.6,39.1,24.6,39z"/>
			</g>
			<path id="XMLID_130_" d="M22,41.1c0.3,0.1,0.7-0.1,0.8-0.4c0.1-0.3-0.1-0.5-0.3-0.6c0,0,0,0,0,0c-0.1-0.2-0.4-0.1-0.5-0.1
				c-0.2,0-0.3,0.2-0.4,0.4C21.5,40.7,21.7,41,22,41.1z M22.1,40.6C22,40.6,22,40.6,22.1,40.6C22,40.6,22,40.6,22.1,40.6
				C22,40.5,22,40.5,22.1,40.6C22,40.5,22,40.5,22.1,40.6C22,40.5,22,40.5,22.1,40.6c0-0.1,0-0.1,0-0.2c0,0,0,0,0,0c0,0,0,0,0,0
				c0,0,0,0,0.1-0.1c0.1,0,0.2,0,0.3-0.1c0.1,0.1,0.2,0.2,0.1,0.4c-0.1,0.1-0.3,0.1-0.4,0.1C22.1,40.7,22.1,40.7,22.1,40.6z"/>
			<path id="XMLID_127_" d="M28.7,40.6c0.3,0.5,1,0.7,1.5,0.3c0.3-0.3,0.3-0.6-0.1-0.8c-0.3-0.1-0.7-0.2-1-0.1c0,0,0,0,0,0
				c-0.1,0-0.2,0-0.2,0C28.6,40.1,28.5,40.4,28.7,40.6z M29,40.4c0,0,0.1,0,0.1,0c0.1,0,0.2-0.1,0.1-0.2c0,0,0-0.1-0.1-0.1
				c0.1,0,0.2,0.1,0.4,0.1c0.1,0,0.4,0.1,0.4,0.3c0,0,0,0.1-0.1,0.1c-0.2,0.2-0.4,0.2-0.6,0.1C29.3,40.6,29.2,40.5,29,40.4
				C29,40.4,28.9,40.4,29,40.4z"/>
			<path id="XMLID_124_" d="M26.4,42.7c0.1,0.3,0.5,0.5,0.8,0.4c0.3-0.1,0.6-0.3,0.4-0.6c-0.1-0.2-0.3-0.3-0.6-0.4
				c0,0,0-0.1-0.1-0.1c-0.2,0-0.4,0.1-0.5,0.2C26.4,42.3,26.4,42.5,26.4,42.7z M26.9,42.5C26.9,42.4,26.9,42.4,26.9,42.5
				c0.1-0.2,0.1-0.2,0.2-0.3c0.1,0.1,0.3,0.2,0.4,0.3c0,0,0.1,0.1,0,0.2c0,0.1-0.2,0-0.3,0c-0.1,0-0.2,0-0.2-0.1
				C26.9,42.6,26.9,42.5,26.9,42.5C26.9,42.5,26.9,42.5,26.9,42.5z"/>
			<path id="XMLID_121_" d="M66.3,53.1c0.4,0.1,0.9,0,1.1-0.4c0.2-0.3,0.1-0.7-0.1-1c-0.1-0.1-0.3-0.2-0.5-0.2
				c-0.1-0.1-0.2-0.2-0.4-0.2c-0.3,0-0.4,0.3-0.6,0.5C65.5,52.3,65.7,52.9,66.3,53.1z M66.1,52.3c0-0.1,0.1-0.3,0.2-0.4c0,0,0,0,0,0
				c0,0,0.1,0,0.1,0c0,0,0,0,0,0c0,0,0,0,0,0c0,0,0.1,0.1,0.1,0.1c0.1,0.1,0.2,0,0.2-0.1c0,0,0,0,0,0c0.1,0,0.3,0.1,0.3,0.3
				c0.1,0.2,0,0.5-0.2,0.6C66.6,53,66,52.7,66.1,52.3z"/>
			<path id="XMLID_118_" d="M63.5,54.3c0.2,0.4,0.7,0.6,1.1,0.5c0.5-0.2,0.5-0.7,0.2-1c-0.1-0.1-0.3-0.3-0.5-0.3c-0.1,0-0.2,0-0.2,0
				c0,0,0,0-0.1,0c-0.2-0.1-0.4,0.1-0.5,0.2C63.4,53.9,63.4,54.2,63.5,54.3z M63.9,53.9C63.9,53.9,63.9,53.9,63.9,53.9
				c0.1-0.1,0.1-0.1,0.1-0.1c0.1,0,0.1-0.1,0.2-0.1c0.1,0,0.2,0.1,0.2,0.2c0.1,0.1,0.4,0.4,0.1,0.5c-0.2,0.1-0.5,0-0.6-0.2
				C63.9,54.1,63.8,54,63.9,53.9z"/>
			<path id="XMLID_115_" d="M72.3,54.3c0.4,0.2,1.1,0.5,1.3-0.1c0.3-0.7-1.1-1.4-1.3-0.7c-0.2,0-0.3,0-0.4,0.2
				C71.8,54,72.1,54.2,72.3,54.3z M72.4,53.9C72.4,53.9,72.4,53.9,72.4,53.9C72.4,53.9,72.4,53.9,72.4,53.9c0.1-0.1,0.1-0.2,0.1-0.2
				c0,0,0,0,0,0c0.2-0.3,0.7,0.1,0.8,0.4c0.1,0.3-0.4,0.2-0.5,0.1C72.6,54.1,72.5,54,72.4,53.9z"/>
			<path id="XMLID_114_" d="M69.8,55.7c0-0.1,0.1-0.1,0.2-0.1c0.2,0.1,0.3,0.3,0.5,0.4c0.1,0.1,0.5,0.3,0.6,0.1
				c0.1-0.1-0.3-0.4-0.4-0.4c-0.2-0.1-0.4-0.2-0.7-0.2c-0.2,0-0.2-0.3,0-0.3c0.4,0,0.7,0.1,1,0.3c0.3,0.2,0.6,0.5,0.4,0.8
				C71,57,69.4,56.3,69.8,55.7z"/>
			<path id="XMLID_106_" d="M6.1,36c0.2,0.9,0.3,1.9,0.8,2.6C7.5,39.5,8.2,40.3,9,41c0.8,0.7,1.7,1.3,2.6,1.9
				c0.5,0.3,0.9,0.4,1.4,0.6c0.4,0.2,0.8,0.4,1.2,0.7c0.9,0.5,1.9,1,2.9,1.3c0.5,0.1,1,0.2,1.5,0.3c0.5,0.2,1,0.4,1.5,0.5
				c0.1,0,0.3,0.1,0.4,0.1c-0.1,0.1-0.2,0.2-0.2,0.3c-0.4-0.2-0.9-0.4-1.3-0.6c-0.4-0.1-0.7-0.1-1.1,0c-0.5,0.1-1,0.2-1.5,0.4
				c-0.6,0.3-0.9,0.8-1.2,1.4c-0.4,0.9-0.5,1.8-0.2,2.7c0.6,1.4,1.8,3,3.6,2.8c0.5-0.1,0.9-0.3,1.3-0.4c0.4-0.1,0.7-0.4,1.1-0.6
				c0.3-0.2,0.5-0.5,0.7-0.8c0.2-0.4,0.6-0.8,0.8-1.3c0.2-0.5,0.1-0.9-0.1-1.3c0,0.1,0.1,0.1,0.2,0.1c0.5-0.2,1.2-0.4,1.6-0.9
				c0.4,0.2,0.6,0.4,1,0.7c0.2,0.1,0.4,0.2,0.6,0.1c0.4-0.1,0.8-0.5,0.9-0.9c0.9,0.3,1.8,0.7,2.8,1c1,0.4,2.1,0.8,3.1,1.2
				c1.1,0.4,2.3,0.6,3.4,1c1.2,0.4,2.3,0.8,3.5,1.2c1.1,0.4,2.2,0.8,3.2,1.2c1.1,0.4,2,0.9,3.1,1.3c2.1,0.6,4.2,1.2,6.3,1.9
				c2.2,0.8,4.5,1.4,6.6,2.2c1,0.4,2.1,0.7,3.1,1.1c0.5,0.2,0.9,0.3,1.4,0.6c0.4,0.2,0.8,0.4,1.2,0.5c0.5,0.2,1,0.4,1.5,0.5
				c0,0-0.1,0.1-0.1,0.1c-0.2,0-0.4-0.1-0.7-0.1c-0.7-0.1-1.4,0.2-2.1,0.5c-1,0.4-1.6,1.2-2,2.1c-0.3,0.7-0.2,1.5,0.1,2.2
				c0.3,0.9,0.5,1.7,1.2,2.4c0.6,0.5,1.6,0.9,2.4,1c0.9,0.1,1.6-0.3,2.3-0.7c0.7-0.4,1.4-1.1,1.6-1.9c0.1-0.5,0.1-1,0.2-1.5
				c0-0.4,0-0.9-0.1-1.3c0-0.3-0.1-0.5-0.2-0.7c0.7-0.1,1-0.8,1.3-1.4c0.3,0,0.6,0.1,0.9,0.1c2.2,0.1,4.4,0,6.5-0.3
				c2.3-0.3,4.6-0.7,6.9-1.1c1.2-0.2,2.3-0.6,3.4-0.9c1-0.3,1.9-0.6,2.8-1.1c0.8-0.4,1.5-1,2.1-1.5c0.6-0.5,1.4-1.2,1.3-2.1
				c-0.2-1.7-1.9-2.6-3.4-2.9c-2.1-0.4-4-1.2-6.2-1.3c-0.3,0-0.6-0.1-0.9-0.1c-0.2,0-0.5,0-0.7,0c-0.5,0-1-0.1-1.4-0.1
				c-0.3,0-0.6-0.1-0.8-0.1c-1.2-0.2-2.2-0.8-3.4-1c-0.6-0.1-1.2-0.2-1.7-0.4c0,0-0.1,0-0.1,0c-0.5-0.1-0.9-0.5-1.4-0.7
				c-0.7-0.2-1.3-0.5-1.9-0.8c-1.2-0.5-2.5-0.8-3.8-1.2c-4.8-1.4-9.8-2.4-14.6-4c-1.2-0.4-2.4-0.9-3.6-1.1c-1.2-0.2-2.3-0.7-3.5-0.9
				c-0.6-0.1-1.1-0.3-1.7-0.5c-0.5-0.2-1.1-0.2-1.7-0.4c-0.6-0.2-1.1-0.4-1.7-0.5c-0.6-0.1-1.2-0.3-1.8-0.4
				c-2.3-0.6-4.5-1.5-6.8-2.2c-1.3-0.4-2.5-0.9-3.8-1.2c-0.6-0.1-1.1-0.2-1.6-0.4c-0.6-0.2-1.1-0.4-1.7-0.6c-1.2-0.4-2.3-1-3.4-1.6
				c-0.4-0.2-0.8-0.5-1.3-0.6c-0.5-0.1-1-0.5-1.4-0.7c-1.1-0.6-2.1-0.8-3.3-1.1c-0.3-0.1-0.7-0.2-1-0.2c-0.1-0.1-0.3-0.1-0.4-0.2
				c-0.2-0.1-0.4,0-0.7-0.1c-0.1,0-0.2-0.1-0.3-0.1c-2-0.3-4.3,0.6-6.1,1.5C6.3,32.3,5.8,34.4,6.1,36z M68.6,63.5
				C68.6,63.5,68.6,63.5,68.6,63.5c-0.3-0.3-0.5-0.6-0.9-0.8c-0.4-0.3-0.8-0.5-1.3-0.6c0,0,0.1-0.1,0.1-0.1c0.4,0.1,0.8,0.2,1.2,0.3
				c0.6,0.1,1.3,0.2,1.9,0.3c-0.1,0.1-0.2,0.2-0.3,0.3C69.2,63.1,69,63.4,68.6,63.5z M66.4,62.3c0.6,0.2,1.1,0.5,1.5,0.9
				c0.8,0.8,1,1.9,0.8,2.9c-0.1,0.5-0.1,1-0.3,1.4c-0.2,0.4-0.5,0.8-0.9,1.1c-0.8,0.5-1.7,1-2.6,0.8c-1-0.2-1.9-0.7-2.4-1.5
				c-0.3-0.4-0.3-0.9-0.5-1.4c-0.2-0.4-0.3-0.8-0.3-1.2c-0.1-1,0.7-2,1.5-2.4c0.4-0.3,0.9-0.4,1.4-0.5c0.6-0.2,1.1-0.1,1.7,0.1
				C66.3,62.6,66.4,62.4,66.4,62.3z M22,47.6c-0.4-0.3-0.8-0.6-1.2-0.8c0.1-0.2,0.3-0.2,0.5-0.3c0.2,0,0.4,0.1,0.7,0.1
				c0.5,0.1,0.9,0.3,1.4,0.4c1,0.3,2.1,0.5,3.1,0.8c-0.3,0.5-0.8,0.6-1.3,0.3c-0.3-0.2-0.6-0.4-1-0.5c-0.1,0-0.2,0-0.3,0.1
				c-0.3,0.5-0.9,0.5-1.3,0.8C22.6,48.1,22.4,47.9,22,47.6z M22.4,48.9c-0.1-0.1-0.1-0.3-0.2-0.4c0,0,0-0.1-0.1-0.2
				c0.1,0.2,0.3,0.3,0.3,0.4c0,0,0,0,0,0C22.4,48.8,22.4,48.8,22.4,48.9z M19.2,46.8c0.4,0.2,0.8,0.2,1.2,0.4c0,0,0,0,0,0
				c0,0,0,0,0.1,0c0.2,0.2,0.4,0.4,0.7,0.5c0.1,0,0.2,0,0.1-0.1c0,0,0,0,0,0c0.1,0,0.1,0,0.2,0c0,0,0.1,0.1,0.1,0.1
				c0.4,0.4,0.7,1.6,0.7,1.9c-0.1,0.5-0.5,0.8-0.8,1.3c-0.3,0.4-0.4,0.7-0.8,1c-0.4,0.3-0.7,0.4-1.1,0.6c-0.5,0.2-0.7,0.4-1.3,0.3
				c-1-0.1-1.7-0.7-2.2-1.5c-0.5-0.8-0.9-1.7-0.6-2.7c0.2-0.7,0.6-1.6,1.3-1.9c0.4-0.1,0.7-0.2,1.1-0.3
				C18.4,46.5,18.7,46.5,19.2,46.8z M6.6,35.1C6.7,35.5,7,36,7.3,36.4c0.2,0.3,0.3,0.7,0.6,1c0.3,0.4,0.6,0.7,0.8,1.1
				c0.2,0.3,0.3,0.5,0.6,0.7c0.4,0.3,0.7,0.6,1.1,0.9c0.6,0.5,1.3,0.8,2,1.3c0.6,0.5,1.3,1,2.1,1.3c0.9,0.3,1.8,0.7,2.7,0.9
				c1.7,0.5,3.3,1.2,5,1.4c0.1,0,0.1-0.1,0-0.1c-0.7-0.3-1.4-0.5-2.1-0.7c-0.8-0.2-1.7-0.5-2.5-0.8c-1.6-0.5-3.3-0.9-4.6-2
				c-0.6-0.5-1.3-0.8-2-1.3c-0.3-0.2-0.6-0.5-0.9-0.8c-0.3-0.3-0.7-0.5-0.9-0.8c-0.2-0.3-0.3-0.6-0.6-0.9c-0.3-0.3-0.5-0.6-0.7-1
				c-0.4-0.7-1.1-1.3-1.1-2.2c0-0.1-0.1-0.2-0.2-0.2c0.2-0.8,0.6-1.6,1.3-2c0.9-0.5,2.1-1,3.2-1.2c0.7-0.2,1.5-0.3,2.2-0.3
				c0.2,0.1,0.4,0.1,0.6,0.1c0.7,0.1,1.4,0.3,2.1,0.5c0.7,0.2,1.4,0.3,2.1,0.5c0.7,0.2,1.3,0.6,1.9,0.9c1,0.6,2.2,1,3.3,1.5
				c0.6,0.3,1.1,0.6,1.7,0.8c0.6,0.3,1.3,0.4,2,0.6c2.4,0.8,4.8,1.5,7.3,2.2c1.1,0.4,2.2,0.8,3.4,1.1c1.2,0.3,2.4,0.7,3.6,1
				c0.6,0.1,1.1,0.3,1.7,0.5c0.5,0.2,1.1,0.2,1.7,0.4c0.6,0.2,1.2,0.4,1.8,0.6c0.6,0.1,1.1,0.3,1.7,0.4c1.2,0.4,2.5,0.6,3.6,1
				c1.2,0.4,2.5,0.9,3.7,1.2c0.7,0.2,1.3,0.4,2,0.6c0.6,0.2,1.2,0.3,1.8,0.5c1.2,0.4,2.4,0.7,3.7,1c1.2,0.3,2.5,0.7,3.7,1
				c1.1,0.3,2.3,0.6,3.4,0.9c1.2,0.3,2.3,0.9,3.4,1.3c0.3,0.1,0.6,0.1,0.8,0.3c0.2,0.1,0.3,0.2,0.5,0.3c0.2,0.1,0.4,0.1,0.5,0.2
				c0,0,0,0,0.1,0c0.1,0,0.2,0.1,0.3,0.1c0.2,0.1,0.4,0.1,0.7,0.2c1.1,0.4,2.2,0.7,3.2,1.1c0.6,0.2,1.2,0.3,1.8,0.5
				c0.4,0.1,0.9,0.2,1.3,0.2c0.1,0,0.1-0.1,0.1-0.2c0.2,0,0.5,0,0.7,0c0.4,0,0.9,0.1,1.3,0.1c0.3,0,0.7-0.1,1-0.1c0,0,0.1,0,0.1,0
				c0.1,0,0.1,0,0.2,0.1c0,0,0.1,0,0.1,0c0.1,0,0.3,0.1,0.4,0.1c1.1,0.2,2.1,0.6,3.1,0.8c0.8,0.2,1.6,0.2,2.3,0.6
				c0.3,0.1,0.5,0.4,0.8,0.6c0.1,1-0.8,1.9-1.6,2.4c-0.4,0.2-0.9,0.5-1.3,0.7c-0.5,0.3-1,0.4-1.5,0.6c-0.5,0.2-0.8,0.5-1.4,0.6
				c-0.4,0.1-0.7,0.2-1.1,0.4c-0.9,0.4-1.8,0.7-2.8,1.1c-1.1,0.5-2.3,0.7-3.5,0.8c-0.5,0-0.9,0.1-1.4,0.2c-0.4,0-0.9,0-1.3,0
				c-1.1,0.1-2.2,0.1-3.3,0.1c-0.4,0-0.8,0-1.2,0.1c-0.5,0.1-1-0.1-1.4-0.1c-1,0-2.1-0.2-3.1-0.4c-1-0.2-2-0.3-2.9-0.7
				c-0.1,0-0.2,0.1-0.1,0.2c0.5,0.4,1.1,0.4,1.7,0.6c0.7,0.1,1.4,0.3,2,0.4c1.1,0.2,2.2,0.3,3.3,0.5c0.5,0,1-0.1,1.5-0.1
				c0.6,0,1.2,0,1.8,0c0.5,0,1.1,0,1.6-0.1c0.6-0.1,1.1,0,1.7-0.1c1.2-0.2,2.3-0.2,3.5-0.5c0.5-0.1,1-0.3,1.5-0.5
				c0.6-0.2,1.2-0.4,1.8-0.6c0.5-0.2,1-0.5,1.5-0.7c0.4-0.1,0.9-0.2,1.3-0.4c0.3-0.1,0.5-0.3,0.9-0.4c0.2-0.1,0.4-0.1,0.6-0.2
				c0.5-0.2,0.9-0.5,1.4-0.7c0.9-0.5,2.1-1.5,2.2-2.6c0.4,0.5,0.6,1.1,0.3,1.7c-0.4,0.8-1.4,1.4-2.1,1.9c-1.6,1.1-3.7,1.7-5.6,2.2
				c-2.2,0.6-4.5,0.8-6.7,1.2c-1,0.2-2,0.3-3,0.4c-0.5,0-0.9,0.1-1.4,0.1c-0.6,0-1.1,0-1.7,0c-2.1,0-4.3,0-6.2-0.7
				c-1.8-0.6-3.4-1.4-5.2-2c-2-0.7-4-1.5-6-2.1c-2-0.6-4-1.4-6-2c-1-0.3-2-0.6-2.9-0.8c-1-0.3-1.9-0.7-2.9-1.1
				c-2-0.9-4.1-1.6-6.1-2.3c-2.1-0.7-4.1-1.2-6.2-2c-1-0.4-2-0.7-2.9-1.1c-0.9-0.4-1.8-0.6-2.8-0.8c-0.5-0.1-1-0.3-1.6-0.4
				c-0.4-0.1-0.8-0.3-1.3-0.4c-1.1-0.2-2.1-0.4-3.1-0.8c-0.5-0.2-1-0.4-1.5-0.5c-0.4-0.1-0.9-0.1-1.3-0.3c-1-0.3-1.8-0.9-2.8-1.3
				c-0.8-0.4-1.7-0.7-2.5-1.2c-0.9-0.6-1.8-1.3-2.6-2c-0.8-0.8-1.6-1.6-1.9-2.7C6.8,36.7,6.6,35.9,6.6,35.1z"/>
			<path id="XMLID_105_" d="M64.1,63.3c1.2,0,2.8,0.5,3.1,1.8c0.2,0.8,0.6,2.9-0.4,3.4c-0.1,0.1-0.2-0.1-0.2-0.2
				c0.5-0.9,0.4-1.8,0.3-2.8c-0.2-1.2-1.6-1.9-2.8-1.9C63.9,63.6,63.9,63.3,64.1,63.3z"/>
			<path id="XMLID_101_" d="M64.3,67.9c0.8,0.2,1.4-0.6,1.4-1.3c-0.1-0.6-0.7-1.3-1.4-1.3c-0.1-0.1-0.3-0.1-0.4-0.1
				c-0.3,0.1-0.6,0.3-0.7,0.6C62.8,66.8,63.3,67.7,64.3,67.9z M64.9,66.1C64.9,66.1,64.9,66.1,64.9,66.1c0,0.2-0.2,0.5-0.3,0.6
				c-0.1,0.1-0.2,0.2-0.3,0.2c-0.2,0-0.2-0.1-0.2-0.3c-0.1-0.2-0.2-0.4-0.1-0.6c0-0.2,0.2-0.3,0.3-0.4c0.2,0.1,0.3,0.2,0.4,0.2
				C64.8,66,64.9,66,64.9,66.1z M63.4,66.5c0-0.3,0.1-0.6,0.3-0.7c0,0,0.1-0.1,0.2-0.1c-0.1,0.1-0.1,0.2-0.1,0.2
				c-0.1,0.2-0.1,0.3,0,0.5c0.1,0.2,0.1,0.4,0.2,0.6c0.3,0.8,1.2,0.1,1.3-0.5c0,0,0,0,0,0c0.1,0.4-0.1,1-0.5,1
				C64,67.6,63.4,67,63.4,66.5z"/>
			<path id="XMLID_100_" d="M17.2,47.5c0.6-0.1,1-0.1,1.5,0.3c0.4,0.4,0.8,0.6,1,1.1c0.2,0.6,0.3,1.1,0.3,1.8c0,0.3,0,0.6,0,0.9
				c-0.1,0.2-0.3,0.4-0.3,0.6c0,0,0,0,0,0c0-0.3,0.2-0.4,0.2-0.7c0-0.2-0.1-0.6-0.1-0.8c0-0.3,0-0.6-0.1-0.9
				c-0.1-0.2-0.1-0.4-0.2-0.6c-0.1-0.4-0.3-0.5-0.6-0.8c-0.1-0.1-0.2-0.2-0.3-0.3c-0.4-0.4-0.8-0.4-1.3-0.4
				C17.1,47.6,17.1,47.5,17.2,47.5z"/>
			<path id="XMLID_96_" d="M16.4,50.1c0.1,0.4,0.1,0.8,0.4,1.2c0.2,0.3,0.7,0.4,1.1,0.5c0.8,0.2,1.3-1,1-1.6c-0.3-0.6-1-1.5-1.8-1.1
				c0,0,0,0,0,0.1l0,0c0,0-0.1,0-0.1,0c-0.2,0-0.3,0-0.4,0.1C16.2,49.5,16.3,49.8,16.4,50.1z M18.4,50.2c-0.1,0.3-0.5,0.5-0.7,0.3
				c-0.1-0.1-0.2-0.4-0.1-0.6c0-0.1,0-0.1,0.1-0.2c0.1-0.1,0.2-0.1,0.1-0.3c0-0.1-0.1-0.1-0.2-0.1c0,0,0,0,0,0
				c0.2,0.1,0.4,0.3,0.4,0.3C18.1,49.8,18.3,50,18.4,50.2z M16.9,49.5c0.1,0,0.3-0.1,0.4-0.1c-0.1,0-0.1,0.1-0.2,0.2
				c-0.2,0.4-0.1,1,0.3,1.3c0.4,0.2,0.8,0.1,1-0.2c0,0.2-0.1,0.5-0.3,0.6c-0.2,0.2-0.3,0.1-0.5,0c-0.4-0.1-0.6-0.2-0.7-0.6
				c-0.1-0.2-0.1-0.4-0.1-0.6C16.7,49.7,16.7,49.6,16.9,49.5z"/>
		</g>
		<path id="XMLID_94_" d="M14.1,31c-0.4-0.1-0.7,0.1-1,0.3c-0.6,0.3-1.1,0.7-1.7,1c-0.6,0.4-1.3,0.7-1.9,1.1
			c-0.6,0.4-1.1,0.9-1.7,1.3c0,0,0,0.1,0,0.1c0,0,0.1,0,0.1,0c0,0,0-0.1,0-0.1c0.4,0,1-0.7,1.3-0.9c0.5-0.4,1.1-0.7,1.7-1
			c0.5-0.3,1-0.6,1.4-0.9c0.2-0.2,0.5-0.3,0.8-0.5c0.1,0,0.2-0.1,0.3-0.2c0,0,0.1-0.1,0.1-0.1c0.1-0.1,0.3-0.1,0.5,0.1c0,0,0,0,0,0
			C14.1,31.2,14.1,31.1,14.1,31C14.1,31,14.1,31,14.1,31z"/>
		<path id="XMLID_93_" d="M15.1,31.4c-1.3,0.9-2.7,1.8-4,2.7c-0.5,0.4-1.1,0.7-1.6,1c-0.4,0.3-1,0.6-1.3,1c0,0,0,0.1,0.1,0
			c0.5-0.5,1-0.8,1.6-1.1c0.6-0.3,1-0.7,1.6-1.1c1.3-0.8,2.5-1.7,3.7-2.5C15.2,31.5,15.1,31.3,15.1,31.4z"/>
		<path id="XMLID_92_" d="M17.5,31.9c-0.6,0.3-1.1,0.7-1.7,1c-0.8,0.5-1.5,1-2.3,1.4c-0.7,0.4-1.4,0.8-2.1,1.3
			c-0.5,0.3-1.1,0.6-1.5,1.1c0,0,0,0.1,0.1,0c1.1-0.9,2.5-1.6,3.7-2.3c0.6-0.4,1.3-0.8,1.9-1.2c0.7-0.4,1.3-0.9,2-1.2
			C17.6,32,17.6,31.9,17.5,31.9z"/>
		<path id="XMLID_91_" d="M18.7,33.1c-0.4,0.5-1,0.8-1.6,1.1c-0.6,0.4-1.3,0.8-1.9,1.2c-1.2,0.7-2.5,1.5-3.7,2.3c0,0,0,0.1,0,0.1
			c0.6-0.2,1.2-0.6,1.8-1c0.7-0.4,1.4-0.9,2.1-1.3c0.7-0.4,1.3-0.9,2-1.3C17.8,33.8,18.3,33.5,18.7,33.1
			C18.7,33.1,18.7,33.1,18.7,33.1z"/>
		<path id="XMLID_90_" d="M20.6,33.4c-0.3,0.4-0.6,0.6-1,0.8c-0.3,0.2-0.5,0.5-0.8,0.6c-0.6,0.3-1.2,0.8-1.8,1.2
			c-0.7,0.4-1.5,0.7-2.1,1.1c-0.6,0.4-1.1,0.8-1.8,1.1c-0.1,0,0,0.1,0,0.1c0.6-0.2,1.2-0.6,1.7-1c0.8-0.6,1.7-1,2.5-1.4
			c0.3-0.2,0.6-0.4,0.8-0.6c0.3-0.2,0.6-0.3,0.9-0.5C19.7,34.4,20.3,34,20.6,33.4C20.7,33.4,20.7,33.4,20.6,33.4z"/>
		<path id="XMLID_89_" d="M20.5,35.7c-0.4,0.4-1,0.5-1.5,0.9c-0.6,0.5-1.3,0.8-2,1.2c-0.5,0.3-1.1,0.7-1.6,0.9
			c-0.3,0.1-0.7,0.3-0.8,0.6c0,0,0,0.1,0.1,0c0.2-0.4,0.8-0.5,1.1-0.7c0.6-0.3,1.2-0.8,1.9-1.1c0.5-0.3,1-0.7,1.6-1
			C19.7,36.2,20.2,36.1,20.5,35.7C20.6,35.7,20.5,35.6,20.5,35.7z"/>
		<path id="XMLID_88_" d="M23,35c-0.3,0.2-0.6,0.4-0.9,0.6c-0.3,0.2-0.7,0.4-1,0.6c-0.7,0.5-1.4,1-2.1,1.4c-1.5,0.9-2.9,1.9-4.4,2.8
			c0,0,0,0.1,0,0.1c1.5-0.6,2.9-1.9,4.3-2.7c0.8-0.5,1.5-1,2.2-1.5c0.3-0.2,0.6-0.3,0.9-0.5C22.4,35.6,22.6,35.3,23,35
			C23,35.1,23,35,23,35z"/>
		<path id="XMLID_87_" d="M23.1,36.1c-0.7,0.4-1.3,1-2,1.4c-0.8,0.5-1.6,0.9-2.3,1.4c-0.7,0.5-1.4,1-2.2,1.5c-0.3,0.2-0.7,0.4-1,0.6
			c-0.3,0.2-0.6,0.5-0.9,0.6c0,0,0,0.1,0,0.1c0.3-0.1,0.5-0.3,0.7-0.4c0.3-0.2,0.7-0.4,1-0.6c0.8-0.5,1.5-1,2.2-1.5
			c0.8-0.5,1.5-0.9,2.3-1.4c0.7-0.4,1.4-1,2.1-1.4C23.3,36.2,23.2,36.1,23.1,36.1z"/>
		<path id="XMLID_86_" d="M26,36c-0.3,0.3-0.7,0.5-1,0.7c-0.3,0.2-0.5,0.4-0.7,0.7c-0.7,0.6-1.6,1-2.4,1.5c-1.5,0.9-2.9,2-4.5,2.8
			c0,0,0,0.1,0,0.1c0.7-0.2,1.5-0.9,2.1-1.3c0.8-0.5,1.6-1.1,2.5-1.6c0.7-0.5,1.5-0.8,2.2-1.4c0.4-0.3,0.6-0.6,1-0.9
			C25.6,36.5,25.9,36.4,26,36C26.2,36,26.1,35.9,26,36z"/>
		<path id="XMLID_85_" d="M28,36.6c-0.8,0.3-1.4,0.9-2.1,1.4c-0.4,0.3-0.9,0.5-1.3,0.7c-0.4,0.2-0.8,0.5-1.2,0.8
			c-0.8,0.6-1.6,1.3-2.5,1.8c-0.8,0.5-1.7,0.9-2.5,1.4c0,0,0,0.1,0,0.1c0.8-0.3,1.6-0.8,2.4-1.2c0.8-0.5,1.6-1.1,2.4-1.7
			c0.4-0.3,0.8-0.6,1.2-0.9c0.4-0.3,0.8-0.4,1.2-0.7c0.8-0.5,1.5-1.3,2.4-1.6C28.1,36.7,28.1,36.6,28,36.6z"/>
		<path id="XMLID_84_" d="M29.3,37.8c-1.4,1-2.7,2.1-4.2,3c-0.7,0.4-1.4,0.8-2.1,1.3c-0.3,0.2-0.7,0.5-1,0.7
			c-0.4,0.2-0.8,0.6-1.2,0.6c-0.1,0-0.1,0.1,0,0.1c0.6,0.1,1.2-0.5,1.7-0.8c0.8-0.5,1.5-1.1,2.3-1.5c0.8-0.5,1.6-0.9,2.3-1.5
			c0.8-0.6,1.5-1.2,2.3-1.7C29.5,37.9,29.4,37.7,29.3,37.8z"/>
		<path id="XMLID_83_" d="M29,39.8c-0.4,0.4-1,0.7-1.5,1c-0.5,0.3-0.9,0.6-1.4,0.9c-0.5,0.3-1,0.6-1.4,0.9c-0.2,0.1-1.3,1.1-1.6,0.9
			c0,0-0.1,0,0,0c0,0,0.1,0.1,0.1,0.1c0,0,0,0,0.1,0c1.1-0.6,2.1-1.3,3.1-2C27.3,41.1,28.3,40.6,29,39.8
			C29.1,39.8,29.1,39.7,29,39.8z"/>
		<path id="XMLID_82_" d="M30.2,40.4c-0.9,0.4-1.7,1.2-2.5,1.7c-0.8,0.6-1.7,1.3-2.5,1.7c0,0,0,0.1,0,0.1c0.4-0.1,0.6-0.3,0.9-0.5
			c0.5-0.4,1-0.7,1.6-1.1c0.9-0.6,1.7-1.4,2.6-1.8C30.3,40.5,30.2,40.4,30.2,40.4z"/>
		<path id="XMLID_81_" d="M31,41.8c-0.3,0.5-0.7,0.9-1,1.3c-0.4,0.5-0.6,1-1.1,1.5c0,0,0,0.1,0,0c0.5-0.4,0.7-0.8,1-1.3
			c0.4-0.5,0.8-0.9,1.1-1.5C31.1,41.7,31,41.7,31,41.8z"/>
		<path id="XMLID_80_" d="M75.3,51.3c-0.7,0.6-1.4,1.3-2.1,2c-0.7,0.6-1.4,1.2-2,1.9c-0.5,0.6-1,1.2-1.5,1.7
			c-0.3,0.3-0.7,0.7-0.8,1.1c0,0,0.1,0.1,0.1,0c0.1-0.5,0.7-0.9,1-1.3c0.5-0.6,1.1-1.3,1.7-1.9c0.6-0.6,1.2-1.1,1.8-1.7
			c0.3-0.3,0.6-0.6,0.9-0.9c0.2-0.2,0.3-0.3,0.5-0.5c0.1-0.1,0.1-0.1,0.2-0.2c0.1-0.1,0.2-0.1,0.2-0.3c0,0,0,0,0,0
			C75.2,51.5,75.3,51.4,75.3,51.3C75.4,51.4,75.3,51.3,75.3,51.3z"/>
		<path id="XMLID_79_" d="M77.6,51.1c-0.7,0.6-1.3,1.3-1.9,1.9c-0.7,0.7-1.4,1.3-2.1,1.9c-0.7,0.7-1.4,1.3-2,2
			c-0.4,0.4-1,0.7-1.2,1.2c0,0,0,0.1,0.1,0c0.2-0.3,0.5-0.5,0.7-0.7c0.3-0.2,0.5-0.5,0.8-0.8c0.6-0.7,1.3-1.3,2-1.9
			c0.7-0.6,1.3-1.2,2-1.8c0.6-0.6,1.1-1.2,1.8-1.8C77.8,51.1,77.7,51,77.6,51.1z"/>
		<path id="XMLID_78_" d="M78.4,52.1c-1.4,0.8-2.5,2.2-3.7,3.2c-1.3,1.2-2.8,2.3-4,3.7c0,0.1,0,0.1,0.1,0.1c0.7-0.5,1.3-1.2,1.9-1.8
			c0.6-0.6,1.3-1.2,2-1.7c0.6-0.5,1.2-1.1,1.9-1.7c0.6-0.6,1.2-1.2,2-1.7C78.6,52.2,78.5,52,78.4,52.1z"/>
		<path id="XMLID_77_" d="M80.2,52.3c-1.3,1.3-2.7,2.5-4.2,3.6c-0.7,0.5-1.4,1-2,1.5c-0.4,0.3-0.8,0.7-1.3,1
			c-0.3,0.2-0.5,0.6-0.9,0.8c0,0,0,0.1,0,0.1c0.2-0.1,0.4-0.3,0.6-0.5c0.3-0.3,0.7-0.6,1.1-0.8c0.9-0.7,1.7-1.4,2.6-2
			C77.6,54.8,79,53.6,80.2,52.3C80.4,52.3,80.3,52.2,80.2,52.3z"/>
		<path id="XMLID_76_" d="M79.6,54.7c-0.3-0.2-0.5,0-0.8,0.1c0,0,0,0,0,0c0.2-0.1,0.6-0.2,0.5,0.1c-0.1,0.2-0.6,0.6-0.8,0.7
			c-0.4,0.3-0.9,0.6-1.3,1c-1,0.9-2,1.9-3.2,2.7c-0.1,0,0,0.1,0.1,0.1c1.1-0.6,2.1-1.5,3-2.4C77.8,56.2,79,55.7,79.6,54.7
			C79.6,54.7,79.6,54.7,79.6,54.7z"/>
		<path id="XMLID_75_" d="M20,46.7c-0.4,0-0.7,0.6-0.9,0.9c-0.2,0.3-0.7,0.8-0.6,1.2c0,0,0.1,0,0.1,0c0-0.4,0.3-0.7,0.6-1
			c0.2-0.3,0.5-0.9,0.9-0.9C20.1,46.8,20.1,46.6,20,46.7z"/>
		<path id="XMLID_74_" d="M21,46.6c0,0,0-0.1-0.1-0.1c0-0.1-0.1,0-0.1,0.1c0.1,0.2-0.5,0.9-0.7,1.1c-0.3,0.3-0.4,0.7-0.7,1.1
			c-0.3,0.4-0.7,0.8-0.8,1.3c0,0,0.1,0,0.1,0c0.2-0.6,0.7-1,1-1.5C20.2,47.9,20.6,47.3,21,46.6C21,46.7,21,46.7,21,46.6z"/>
		<path id="XMLID_73_" d="M21.9,46c-0.5,1-1.1,1.9-1.7,2.8c-0.3,0.5-0.5,1-0.9,1.5C19.2,50.5,19,50.7,19,51c0,0,0.1,0.1,0.1,0
			c0.1-0.4,0.5-0.7,0.7-1.1c0.3-0.5,0.5-0.9,0.8-1.3c0.5-0.8,1.1-1.6,1.5-2.5C22.1,46,22,46,21.9,46z"/>
		<path id="XMLID_72_" d="M22.6,46c-0.4,1.1-1.1,2-1.6,3c-0.2,0.5-0.5,0.9-0.8,1.3c-0.3,0.5-0.5,1-0.8,1.4c0,0,0,0.1,0,0
			c0.3-0.2,0.5-0.6,0.7-0.9c0.3-0.6,0.7-1.1,1-1.7c0.6-1,1.2-2,1.7-3.1C22.7,46,22.6,46,22.6,46z"/>
		<path id="XMLID_71_" d="M23.1,46.5c-0.5,1-1,1.9-1.6,2.8c-0.5,0.9-1,1.8-1.5,2.6c0,0.1,0,0.1,0.1,0.1c0.3-0.3,0.5-0.7,0.7-1.1
			c0.3-0.5,0.6-0.9,0.9-1.4c0.5-1,1.1-1.9,1.6-2.9C23.2,46.5,23.1,46.4,23.1,46.5z"/>
		<path id="XMLID_70_" d="M23.6,47.8c-0.3,0.5-0.7,0.9-0.9,1.4c-0.1,0.4-0.2,0.7-0.4,1.1c-0.1,0.2-0.4,0.8-0.5,0.9
			c-0.1,0,0,0.1,0,0.1c0.2-0.1,0.2-0.1,0.3-0.3c0.2-0.3,0.4-0.7,0.6-1.1c0.2-0.4,0.2-0.7,0.4-1.1c0.2-0.4,0.5-0.7,0.7-1
			C23.8,47.8,23.6,47.7,23.6,47.8z"/>
		<path id="XMLID_69_" d="M66.9,61.6c-0.5,0.5-0.8,1-1.2,1.6c-0.3,0.4-0.7,0.9-0.8,1.4c0,0,0,0.1,0.1,0.1c0,0,0.1,0,0.1,0
			c0,0,0.1-0.1,0-0.1c-0.2-0.1,1.7-2.7,1.8-2.9C67.1,61.6,67,61.5,66.9,61.6z"/>
		<path id="XMLID_68_" d="M68.2,61.3c-0.2,0.3-0.4,0.6-0.6,0.9c-0.2,0.4-0.5,0.6-0.7,1c-0.4,0.6-0.9,1.3-1.1,2.1c0,0,0.1,0.1,0.1,0
			c0.4-0.7,0.8-1.4,1.2-2.1c0.2-0.3,0.5-0.6,0.7-0.9c0.2-0.3,0.3-0.6,0.6-0.9C68.4,61.3,68.3,61.2,68.2,61.3z"/>
		<path id="XMLID_67_" d="M71.1,60.1c-0.8,0.1-1.3,0.7-1.9,1.2c-0.4,0.3-1.2,0.6-1.3,1.1c0,0.1,0.1,0.1,0.2,0c0-0.3,0.4-0.5,0.7-0.7
			c-0.4,0.6-0.7,1.3-1.2,1.8c-0.2,0.3-0.5,0.6-0.7,0.9c-0.2,0.3-0.4,0.7-0.7,0.9c0,0,0,0.1,0,0.1c0.2,0,0.3-0.1,0.4-0.3
			c0.3-0.4,0.6-0.8,1-1.2c0.5-0.6,0.8-1.4,1.3-2.1c0,0,0-0.1,0-0.1c0.2-0.1,0.3-0.2,0.5-0.3c0.6-0.5,1.1-1,1.8-1.2
			C71.2,60.2,71.2,60.1,71.1,60.1z"/>
		<path id="XMLID_66_" d="M72.7,59.8c-0.2,0-0.4,0.2-0.6,0.3c-0.4,0.3-0.8,0.5-1.1,0.8c-0.5,0.4-1,0.8-1.5,1.2
			c0.1-0.1,0.1-0.3,0.2-0.4c0-0.1-0.1-0.1-0.1,0c-0.1,0.3-0.2,0.5-0.4,0.7c0,0-0.1,0.1-0.1,0.1c0,0,0,0.1,0,0.1
			c-0.3,0.5-0.7,0.9-1.1,1.3c-0.4,0.6-0.9,1.5-1.5,1.9c-0.1,0,0,0.1,0,0.1c0.3-0.1,0.5-0.3,0.7-0.6c0.3-0.5,0.7-0.9,1-1.4
			c0.4-0.5,0.8-0.9,1.1-1.5c0.5-0.4,1.1-0.8,1.6-1.3c0.3-0.2,0.6-0.4,1-0.7C72.2,60.3,72.4,60,72.7,59.8
			C72.8,59.9,72.8,59.8,72.7,59.8z"/>
		<path id="XMLID_65_" d="M69.3,63.9c-0.6,0.7-1,1.4-1.6,2.1c-0.5,0.6-1.2,1.1-1.7,1.7c0,0,0,0.1,0.1,0.1c0.6-0.5,1.2-1.1,1.7-1.7
			C68.3,65.4,68.8,64.7,69.3,63.9C69.3,64,69.3,63.9,69.3,63.9z"/>
		<path id="XMLID_64_" d="M68.7,65.4c-0.1,0.1-0.3,0.1-0.4,0.2c0,0,0,0.1,0,0.1c0.3-0.1,0.3-0.2,0.2,0.1c-0.1,0.1-0.3,0.3-0.4,0.4
			c-0.3,0.3-0.5,0.6-0.8,0.8c-0.5,0.5-1.1,1-1.5,1.6c0,0,0,0.1,0,0C66.8,67.6,68,66.7,68.7,65.4C68.8,65.5,68.8,65.4,68.7,65.4z"/>
		<path id="XMLID_63_" d="M67.1,67.6c-0.2,0.7-0.8,1.3-1.3,1.8c0,0,0,0.1,0,0c0.5-0.5,1.2-1.1,1.3-1.8
			C67.2,67.5,67.1,67.5,67.1,67.6z"/>
		<path id="XMLID_62_" d="M68.8,60.3c-0.4,0.3-0.8,0.4-1.2,0.6c-0.2,0.1-0.3,0.3-0.6,0.4c-0.2,0.1-0.2,0.1-0.4,0.2
			c0,0,0,0.1,0.1,0.1c0.1-0.1,0.4-0.2,0.6-0.3c0.2-0.1,0.3-0.2,0.5-0.3C68.1,60.8,68.5,60.7,68.8,60.3
			C68.8,60.3,68.8,60.3,68.8,60.3z"/>
		<path id="XMLID_61_" d="M74.5,59.8c-0.7,0.7-1.5,1.1-2.2,1.7c-0.4,0.3-0.6,0.6-1,0.9c-0.2,0.2-0.4,0.2-0.4,0.5
			c0,0.1,0.1,0.1,0.1,0c0.1-0.3,0.7-0.6,0.9-0.9c0.3-0.3,0.7-0.6,1-0.9C73.5,60.9,74.1,60.5,74.5,59.8
			C74.6,59.8,74.5,59.8,74.5,59.8z"/>
		<path id="XMLID_60_" d="M76.1,59.6c-0.9,0.8-2,1.4-2.8,2.3c-0.1,0.1,0,0.2,0.1,0.1C74.3,61.2,75.4,60.7,76.1,59.6
			C76.3,59.7,76.2,59.6,76.1,59.6z"/>
		<path id="XMLID_59_" d="M78.1,59.8c-0.2,0-0.2,0.1-0.4,0.1c-0.3,0.2-0.5,0.4-0.8,0.5c-0.7,0.3-1.2,0.8-1.8,1.1
			c-0.1,0.1,0,0.2,0.1,0.1c0.6-0.3,1.1-0.8,1.6-1c0.2-0.1,0.4-0.1,0.6-0.3C77.7,60.2,77.8,60,78.1,59.8
			C78.2,59.9,78.2,59.8,78.1,59.8z"/>
		<path id="XMLID_58_" d="M80.1,54.4c-0.6,0.7-1.2,1.4-1.9,2.1c-0.3,0.4-0.9,0.8-1,1.3c0,0.1,0.1,0.1,0.1,0c0.1-0.6,1-1.2,1.3-1.7
			C79.2,55.6,79.7,55,80.1,54.4C80.2,54.4,80.1,54.3,80.1,54.4z"/>
		<path id="XMLID_57_" d="M80.4,56.8c-0.5,0.3-0.9,0.6-1.3,1c-0.5,0.4-1,0.7-1.5,1.1c0,0,0,0.1,0.1,0.1c0.4-0.3,0.9-0.6,1.3-0.9
			c0.5-0.4,0.9-0.9,1.5-1.2C80.6,56.9,80.5,56.8,80.4,56.8z"/>
		<path id="XMLID_56_" d="M66.8,58.8c-0.3,0.3-0.6,0.5-0.9,0.7c-0.3,0.3-0.7,0.5-1,0.8c-0.3,0.3-1,0.6-1.1,1c0,0,0.1,0.1,0.1,0
			c0.3-0.5,1-0.9,1.5-1.2c0.2-0.2,0.4-0.4,0.7-0.6C66.3,59.3,66.6,59.2,66.8,58.8C66.9,58.9,66.8,58.8,66.8,58.8z"/>
		<path id="XMLID_55_" d="M66.6,58.2c-0.3,0.3-0.7,0.4-1,0.6c-0.3,0.2-0.6,0.4-1,0.6c-0.5,0.3-1.2,0.5-1.6,1c0,0,0,0.1,0.1,0.1
			c0.6-0.4,1.3-0.7,1.9-1.1c0.6-0.3,1.3-0.6,1.8-1C66.8,58.2,66.7,58.1,66.6,58.2z"/>
		<path id="XMLID_54_" d="M64.6,58c-0.5,0.5-1.2,0.8-1.8,1.2c-0.5,0.3-0.9,0.9-1.5,1c0,0-0.1,0.1,0,0.1c0.5,0.1,0.9-0.4,1.3-0.7
			c0.7-0.5,1.5-0.8,2.1-1.4C64.8,58,64.7,57.9,64.6,58z"/>
		<path id="XMLID_53_" d="M62.8,58.2c-0.5,0.4-1.1,0.6-1.6,0.9c-0.5,0.3-1.2,0.7-1.8,0.7c-0.1,0-0.1,0.1,0,0.1
			c0.6,0.1,1.2-0.3,1.7-0.6c0.6-0.3,1.3-0.6,1.8-1.1C63,58.2,62.9,58.1,62.8,58.2z"/>
		<path id="XMLID_52_" d="M25.9,44.1c-0.6,0.1-1.1,0.4-1.6,0.7c-0.2,0.1-0.5,0.2-0.7,0.3c-0.2,0.1-0.4,0.3-0.5,0.4
			c0,0,0,0.1,0.1,0.1c0.2-0.2,0.4-0.4,0.7-0.5c0.2-0.1,0.3-0.1,0.5-0.2C24.9,44.6,25.3,44.3,25.9,44.1C26,44.1,26,44,25.9,44.1z"/>
		<path id="XMLID_51_" d="M27.6,44.9c-0.6,0.1-1.3,0.4-1.7,0.8c-0.3,0.2-0.5,0.4-0.8,0.5c-0.2,0.1-0.4,0.1-0.6,0.2
			c-0.3,0.2-0.5,0.4-0.7,0.7c0,0,0,0.1,0.1,0.1c0.3-0.4,0.7-0.6,1.2-0.7c0.3-0.1,0.4-0.2,0.7-0.3c0.6-0.4,1.2-0.9,1.9-1
			C27.6,44.9,27.6,44.9,27.6,44.9z"/>
		<path id="XMLID_50_" d="M28.2,46c-0.5,0-0.9,0.3-1.3,0.5c-0.2,0.1-0.4,0.2-0.7,0.4c-0.3,0.1-0.5,0.4-0.8,0.5c0,0,0,0,0,0
			c0,0,0,0.1,0,0.1c0,0.1,0.1,0.1,0.1,0c0-0.1,0.4-0.2,0.5-0.3c0.2-0.2,0.5-0.3,0.7-0.4C27.2,46.6,27.7,46.3,28.2,46
			C28.3,46.1,28.3,46,28.2,46z"/>
		<path id="XMLID_49_" d="M29.7,46.1c-0.1,0.3-0.8,0.5-1.1,0.6c-0.2,0.1-0.5,0.2-0.7,0.3c-0.4,0.2-1.1,0.6-1.2,1.1
			c0,0.1,0.1,0.1,0.1,0c0.2-0.6,1.3-1,1.9-1.2C29,46.7,29.7,46.5,29.7,46.1C29.8,46,29.7,46,29.7,46.1z"/>
		<path id="XMLID_48_" d="M30.2,47.3c-0.4,0.1-0.7,0.3-1.1,0.5c-0.3,0.2-0.5,0.5-0.9,0.5c-0.1,0-0.1,0.1,0,0.1
			c0.3,0,0.5-0.1,0.7-0.3C29.3,47.8,29.8,47.6,30.2,47.3C30.3,47.4,30.2,47.3,30.2,47.3z"/>
		<path id="XMLID_47_" d="M31.8,48c-0.4,0-0.9,0.1-1.3,0.1c-0.1,0-0.1,0.1,0,0.1C31,48.2,31.4,48.1,31.8,48
			C31.9,48.1,31.9,48,31.8,48z"/>
		<path id="XMLID_46_" d="M39.4,48.1c-0.4-0.1-0.7,0.2-1,0.3c-0.3,0.1-0.5,0.2-0.8,0.3c-0.2,0.1-0.4,0.3-0.7,0.3c-0.1,0,0,0.1,0,0.1
			c0.2,0,0.3-0.1,0.5-0.2c0.2-0.1,0.5-0.2,0.8-0.3c0.4-0.2,0.8-0.5,1.2-0.5C39.5,48.2,39.5,48.2,39.4,48.1z"/>
		<path id="XMLID_45_" d="M40.9,49c-0.8-0.1-1.4,0.5-2,0.8c-0.1,0,0,0.2,0.1,0.1c0.7-0.3,1.2-0.7,1.9-0.8C41,49.1,41,49,40.9,49z"/>
		<path id="XMLID_44_" d="M42.2,49.8c-0.5,0-1.1,0-1.5,0.3c-0.1,0.1,0,0.2,0.1,0.2C41.2,50,41.7,49.9,42.2,49.8
			C42.2,49.9,42.2,49.8,42.2,49.8z"/>
		<path id="XMLID_43_" d="M43.4,50.5c-0.1-0.1-0.1-0.1-0.2-0.2c-0.1-0.1-0.2,0-0.1,0.1C43.2,50.4,43.2,50.5,43.4,50.5
			C43.3,50.6,43.4,50.5,43.4,50.5z"/>
		<path id="XMLID_42_" d="M62.2,49.6c-1,0.3-1.9,0.7-2.8,1.1c-0.6,0.3-1.5,0.6-2,1.1c0,0,0,0.1,0.1,0.1c0.6-0.5,1.5-0.8,2.2-1.1
			C60.6,50.4,61.4,50.1,62.2,49.6C62.3,49.7,62.3,49.6,62.2,49.6z"/>
		<path id="XMLID_41_" d="M59.4,49.3c-1.2,0.8-2.6,1.1-3.8,1.8c0,0,0,0.1,0,0.1c0.6-0.2,1.2-0.5,1.8-0.8c0.7-0.3,1.4-0.6,2-1
			C59.5,49.4,59.5,49.3,59.4,49.3z"/>
		<path id="XMLID_40_" d="M56.6,49.6c-0.6,0.3-1.4,0.5-2,0.6c-0.3,0-0.7,0-0.9,0.3c0,0,0,0.1,0.1,0.1c0.3-0.3,1.1-0.2,1.5-0.3
			C55.7,50.1,56.2,50,56.6,49.6C56.7,49.7,56.7,49.6,56.6,49.6z"/>
	</g>
</g>
<g id="Livello_2" class="st0">
	<g id="XMLID_183_" class="st1">
		<g id="XMLID_199_">
			<polygon id="XMLID_28_" class="st2" points="94,49.9 90.1,47.1 86,44.5 81.6,42.4 77.2,40.6 72.7,38.8 68,37.7 63.2,36.6 
				58.4,36 53.6,35.7 48.7,35.4 43.9,35.6 39.1,36 34.2,36.3 29.5,37.4 24.7,38 20,39.4 15.3,40.5 10.7,42 6.3,43.6 8.1,46.6 
				9.7,49.9 8.1,53.2 6,56.3 10.6,58 15.3,59.3 20,60.5 24.7,61.6 29.4,62.6 34.3,63.2 39.1,63.7 43.9,64.3 48.7,64.6 53.6,64.2 
				58.4,64 63.2,63.1 68,62.2 72.6,60.9 77.2,59.3 81.8,57.8 86,55.4 90.2,52.9 			"/>
			<g id="XMLID_246_">
				<path id="XMLID_27_" class="st3" d="M89.1,48.4c-11.7-6.7-25.7-10-39.1-10.7C36.2,37,22.3,39.3,9.5,44.5
					c-0.2,0.1-0.1,0.5,0.1,0.4c12.6-5.1,26.2-7.4,39.8-6.8C63.4,38.7,76.4,42.6,89.1,48.4C89.1,48.5,89.2,48.4,89.1,48.4L89.1,48.4z
					"/>
			</g>
			<g id="XMLID_244_">
				<path id="XMLID_26_" class="st3" d="M9.6,44.6c0.2,0.9,0.6,1.7,1,2.6c0.3,0.8,0.6,1.5,1,2.2c0.1,0.2,0.3,0.1,0.3-0.1
					c-0.2-0.8-0.6-1.5-0.9-2.3c-0.4-0.8-0.7-1.7-1.2-2.5C9.7,44.5,9.6,44.6,9.6,44.6L9.6,44.6z"/>
			</g>
			<g id="XMLID_242_">
				<path id="XMLID_25_" class="st3" d="M11.4,49.5c-0.8,1.6-1.8,3.5-2.2,5.2c0,0.2,0.2,0.2,0.3,0.1c0.9-1.6,1.6-3.5,2.2-5.2
					C11.7,49.5,11.5,49.4,11.4,49.5L11.4,49.5z"/>
			</g>
			<g id="XMLID_240_">
				<path id="XMLID_24_" class="st3" d="M90.5,50.5c-6.5,3-12.8,5.9-19.6,7.8c-6.7,1.9-13.6,3-20.5,3.4c-13.8,0.8-27.7-1.5-40.5-6.6
					c-0.2-0.1-0.3,0.3-0.1,0.3c20.3,8.2,43.3,9,64.1,2.4c5.7-1.8,11.7-4,16.7-7.3C90.6,50.5,90.6,50.4,90.5,50.5L90.5,50.5z"/>
			</g>
			<g id="XMLID_238_">
				<path id="XMLID_23_" class="st3" d="M9.4,54.6c0,0.1,0,0.2,0,0.3c0,0.1,0.2,0.1,0.2,0c0-0.1,0-0.2,0-0.3
					C9.6,54.5,9.5,54.5,9.4,54.6L9.4,54.6z"/>
			</g>
			<g id="XMLID_236_">
				<path id="XMLID_22_" class="st3" d="M9.5,55c0.5,0,0.5-0.8,0-0.8C9,54.2,9,55,9.5,55L9.5,55z"/>
			</g>
			<g id="XMLID_234_">
				<path id="XMLID_21_" class="st3" d="M9.4,54.6c-0.1,0.4,0.3,0.9,0.8,0.9c0.1,0,0.2-0.2,0-0.2c-0.3-0.1-0.6-0.3-0.6-0.6
					C9.6,54.4,9.4,54.4,9.4,54.6L9.4,54.6z"/>
			</g>
			<g id="XMLID_232_">
				<path id="XMLID_20_" class="st3" d="M9.5,54.9c0.2-0.3,0.3-0.6,0.5-0.9c-0.1,0-0.2-0.1-0.2-0.1c-0.1,0.4-0.3,0.8-0.4,1.2
					c0,0.1,0,0.1,0.1,0.2c0.4,0.1,0.7,0.2,1.1,0.3c0.1,0,0.2-0.1,0.1-0.2C10.2,55.1,9.8,55,9.5,54.9c0,0.1,0.1,0.1,0.1,0.2
					c0.1-0.4,0.3-0.8,0.4-1.2c0.1-0.1-0.2-0.2-0.2-0.1c-0.2,0.3-0.3,0.6-0.5,1C9.2,54.9,9.4,55,9.5,54.9L9.5,54.9z"/>
			</g>
			<g id="XMLID_230_">
				<path id="XMLID_19_" class="st3" d="M9.8,54.6c0.8-1.7,1.4-3.4,2.1-5.2c0.1-0.2-0.2-0.3-0.3-0.1c-0.7,1.7-1.4,3.5-1.9,5.2
					C9.6,54.6,9.8,54.7,9.8,54.6L9.8,54.6z"/>
			</g>
			<g id="XMLID_228_">
				<path id="XMLID_18_" class="st3" d="M9.8,44.8c0.3,1.5,0.8,3.3,1.8,4.5c0.1,0.1,0.4,0,0.3-0.2c-0.6-1.5-1.4-2.8-1.8-4.4
					C10,44.6,9.8,44.7,9.8,44.8L9.8,44.8z"/>
			</g>
			<g id="XMLID_226_">
				<path id="XMLID_17_" class="st3" d="M87.6,47.7c0.4,0.4,0.9,0.7,1.3,1.1c0.5,0.4,1,0.9,1.6,1.1c0.1,0.1,0.3-0.1,0.2-0.2
					c-0.4-0.4-0.9-0.7-1.4-1c-0.5-0.4-1-0.7-1.6-1.1C87.7,47.6,87.6,47.7,87.6,47.7L87.6,47.7z"/>
			</g>
			<g id="XMLID_224_">
				<path id="XMLID_16_" class="st3" d="M89.2,51.1c0.8,0.2,1.3-0.7,1.2-1.4c-0.1-1.1-1.5-1.5-2.4-1.7c-0.1,0-0.2,0.2-0.1,0.2
					c0.7,0.2,1.7,0.4,2.1,1.1c0.4,0.6,0,1.7-0.8,1.6C89.1,51,89.1,51.1,89.2,51.1L89.2,51.1z"/>
			</g>
			<g id="XMLID_222_">
				<path id="XMLID_15_" class="st3" d="M77.3,58.1c3.2-0.8,6.5-2.1,9.2-4c0.1-0.1,0-0.3-0.1-0.2c-3,1.7-5.9,3-9.1,4
					C77.1,57.9,77.1,58.1,77.3,58.1L77.3,58.1z"/>
			</g>
			<g id="XMLID_220_">
				<path id="XMLID_14_" class="st3" d="M91.1,50.8c0.1-0.2,0.3-0.4,0.4-0.6c0.1-0.1-0.1-0.3-0.2-0.1c-0.2,0.2-0.3,0.4-0.4,0.6
					C90.8,50.9,91,51,91.1,50.8L91.1,50.8z"/>
			</g>
			<g id="XMLID_218_">
				<path id="XMLID_13_" class="st3" d="M63.4,38.6c2.6,0.7,5.5,1,8.2,1.3c0.1,0,0.1-0.1,0-0.2C69,39.2,66.2,38.6,63.4,38.6
					C63.4,38.5,63.4,38.5,63.4,38.6L63.4,38.6z"/>
			</g>
			<g id="XMLID_216_">
				<path id="XMLID_12_" class="st3" d="M74.2,40.9c2.6,0.7,5.1,1.5,7.6,2.6c0.1,0,0.2-0.1,0.1-0.1c-2.4-1.2-5-2.1-7.6-2.6
					C74.2,40.7,74.1,40.9,74.2,40.9L74.2,40.9z"/>
			</g>
			<g id="XMLID_214_">
				<path id="XMLID_11_" class="st3" d="M8.2,44.2c0.5,1.2,1,2.3,1.6,3.4c0.1,0.1,0.2,0,0.2-0.1c-0.5-1.2-1-2.3-1.6-3.4
					C8.3,44,8.1,44.1,8.2,44.2L8.2,44.2z"/>
			</g>
			<g id="XMLID_212_">
				<path id="XMLID_10_" class="st3" d="M8,54.8c0.2-0.3,0.3-0.5,0.4-0.8c0-0.1-0.1-0.2-0.1-0.1c-0.2,0.3-0.3,0.5-0.4,0.8
					C7.8,54.8,7.9,54.9,8,54.8L8,54.8z"/>
			</g>
			<g id="XMLID_210_">
				<path id="XMLID_9_" class="st3" d="M10.5,56.8c5.1,1.8,10.5,3.1,15.8,4.2c0.1,0,0.1-0.1,0-0.1C21,59.6,15.8,58,10.5,56.7
					C10.4,56.6,10.4,56.8,10.5,56.8L10.5,56.8z"/>
			</g>
			<g id="XMLID_208_">
				<path id="XMLID_8_" class="st3" d="M31.9,61.9c5.4,1.2,11.3,1.7,16.8,1.4c0.1,0,0.1-0.1,0-0.1c-5.7-0.1-11.2-0.6-16.8-1.5
					C31.8,61.8,31.8,61.9,31.9,61.9L31.9,61.9z"/>
			</g>
			<g id="XMLID_206_">
				<path id="XMLID_7_" class="st3" d="M21.5,39.6c5.4-1.1,10.7-1.9,16.2-2.1c0.1,0,0.1-0.1,0-0.1C32.3,37.5,26.8,38.1,21.5,39.6
					C21.5,39.6,21.5,39.6,21.5,39.6L21.5,39.6z"/>
			</g>
			<g id="XMLID_204_">
				<path id="XMLID_6_" class="st3" d="M43.1,36.6c4.6-0.2,9-0.2,13.6,0.2c0.1,0,0.1-0.1,0-0.1C52.3,36.1,47.5,36,43.1,36.6
					C43.1,36.6,43.1,36.6,43.1,36.6L43.1,36.6z"/>
			</g>
			<g id="XMLID_202_">
				<path id="XMLID_5_" class="st3" d="M12.3,42.4c0.3-0.1,0.5-0.3,0.8-0.4c0,0,0-0.1,0,0C12.8,42.1,12.6,42.2,12.3,42.4
					C12.3,42.4,12.3,42.4,12.3,42.4L12.3,42.4z"/>
			</g>
			<g id="XMLID_200_">
				<path id="XMLID_4_" class="st3" d="M61.5,62.3c2.6-0.6,5.2-1.1,7.8-1.8c0.1,0,0.1-0.2-0.1-0.2c-2.6,0.5-5.2,1.2-7.8,1.9
					C61.4,62.2,61.4,62.3,61.5,62.3L61.5,62.3z"/>
			</g>
		</g>
		<g id="XMLID_3_">
			<path id="XMLID_37_" class="st3" d="M35.3,50.4l0.9,0l0.9,0l0.3,0.5l0.9,0.4l0.8-0.1l0.1-0.6l-0.2-0.4l-1-0.4l-1.1-0.2L36,49
				l-0.6-1.3l0.3-1l0.9-0.8l1.7-0.2l1,0l0.8,0.6l0.9,1.4l-1,0l-1,0.1l-0.2-0.8l-0.8-0.2l-0.5,0.3l-0.1,0.3l0.1,0.2l0.6,0.2l0.9,0.5
				l1,0.2l0.6,0.9l0.4,0.9l-0.4,1.1l-0.9,0.8l-1.6,0.4l-1.2-0.3L36,51.9L35.3,50.4z"/>
			<path id="XMLID_35_" class="st3" d="M46.6,45.9l0.9,0.1l0.9,0l0.1,1.2l0,1.3l-0.2,1.3l0,1.1l-0.6,1L47,52.4l-1.4,0.4l-1.1-0.2
				l-1-0.3l-0.8-0.5l-0.5-0.8l-0.1-1.2l-0.1-1.3l0.3-1.3l-0.1-1.3l1,0.1l1,0l-0.1,1.3l0,1.3l0.2,1.3l0.3,0.7l0.7,0.3l0.7-0.3
				l0.5-0.7l-0.2-1.3l0.3-1.3L46.6,45.9z"/>
			<path id="XMLID_32_" class="st3" d="M50,52.4l0-1.2l0-1.3L50,48.5l0-1.3l0.1-1.2l1-0.1l1.1,0l1.1,0.1l1.5,0l0.8,0.7l0.3,1.1
				l-0.2,1l-0.7,0.7l-0.7,0.2l0.6,0.1l0.2,0.5l0.4,0.3l0.4,1l0.5,0.9l-1.2-0.1l-1.1,0l-0.7-0.9l-0.6-1l-0.3-0.5L52.2,50l-0.2-0.2
				l0.2,1.3l-0.2,1.2L51,52.5L50,52.4z M51.9,48.6l1,0.1l0.6,0l0.3-0.4l0.1-0.4l-0.1-0.6l-0.9,0l-0.8,0L51.9,48.6z"/>
			<path id="XMLID_30_" class="st3" d="M57.2,45.9l1.2,0.1l1.3,0l1.3-0.2l1.3,0l-0.1,1.3l-1.4,0.2l-1.5,0l0,1.1l1.3-0.1l1.3,0.1
				l0,1.4l-1.3,0.1l-1.2,0l0,1.3l0.1,1.5l-1.2-0.2l-1,0.1l0.1-1.3l0-1.3l0.1-1.3l0-1.3L57.2,45.9z"/>
		</g>
		<g id="XMLID_184_">
			<g id="XMLID_187_">
				<path id="XMLID_2_" class="st3" d="M69.2,49.8c5.3,0.1,10.7,0.3,16,0c0.2,0,0.2-0.3,0-0.3c-5.3-0.2-10.7-0.1-16,0
					C69,49.5,69,49.8,69.2,49.8L69.2,49.8z"/>
			</g>
			<g id="XMLID_185_">
				<path id="XMLID_1_" class="st3" d="M30,49.3c-5-0.2-10.2-0.4-15.2-0.1c-0.3,0-0.3,0.4,0,0.4c5,0.3,10.2,0.1,15.2-0.1
					C30.2,49.5,30.2,49.3,30,49.3L30,49.3z"/>
			</g>
		</g>
	</g>
</g>
<g id="Livello_3">
	<g id="XMLID_156_">
		<path id="XMLID_175_" class="st4" d="M41.3,34.8C28.4,41.7,30,59.7,44,64.2c3.7,1.2,7.7,0.8,11.1-1c12.9-6.9,11.3-25-2.7-29.4
			C48.8,32.6,44.7,33,41.3,34.8z M62.1,52.7c-4,12.9-20.6,14.4-26.9,2.4c-1.6-3-1.9-6.5-0.9-9.8c4-12.9,20.6-14.4,26.9-2.4
			C62.8,45.9,63.1,49.4,62.1,52.7z"/>
		<g id="XMLID_162_">
			<defs>
				<path id="XMLID_142_" d="M52,34.6c13.3,4.1,14.9,21.4,2.5,27.8c-3.1,1.6-6.8,2-10.2,0.9C31.1,59.2,29.5,42,41.9,35.5
					C45,33.9,48.7,33.6,52,34.6z"/>
			</defs>
			<clipPath id="XMLID_158_">
				<use xlink:href="#XMLID_142_"  style="overflow:visible;"/>
			</clipPath>
			<g id="XMLID_164_" class="st5">
				
					<rect id="XMLID_152_" x="17.2" y="38.9" transform="matrix(0.6406 -0.7679 0.7679 0.6406 -17.0622 42.3871)" class="st4" width="39.1" height="1"/>
				
					<rect id="XMLID_151_" x="19.8" y="41.1" transform="matrix(0.6406 -0.7679 0.7679 0.6406 -17.7792 45.1093)" class="st4" width="39.1" height="1"/>
				
					<rect id="XMLID_150_" x="22.3" y="43.2" transform="matrix(0.6406 -0.7679 0.7679 0.6406 -18.4962 47.8316)" class="st4" width="39.1" height="1"/>
				
					<rect id="XMLID_149_" x="24.9" y="45.3" transform="matrix(0.6406 -0.7679 0.7679 0.6406 -19.2132 50.5539)" class="st4" width="39.1" height="1"/>
				
					<rect id="XMLID_148_" x="27.4" y="47.4" transform="matrix(0.6406 -0.7679 0.7679 0.6406 -19.9301 53.2761)" class="st4" width="39.1" height="1"/>
				
					<rect id="XMLID_147_" x="30" y="49.6" transform="matrix(0.6406 -0.7679 0.7679 0.6406 -20.6471 55.9984)" class="st4" width="39.1" height="1"/>
				
					<rect id="XMLID_146_" x="32.5" y="51.7" transform="matrix(0.6406 -0.7679 0.7679 0.6406 -21.3641 58.7206)" class="st4" width="39.1" height="1"/>
				
					<rect id="XMLID_145_" x="35.1" y="53.8" transform="matrix(0.6406 -0.7679 0.7679 0.6406 -22.0811 61.4429)" class="st4" width="39.1" height="1"/>
				
					<rect id="XMLID_144_" x="37.6" y="55.9" transform="matrix(0.6406 -0.7679 0.7679 0.6406 -22.7981 64.1651)" class="st4" width="39.1" height="1"/>
				
					<rect id="XMLID_143_" x="40.2" y="58.1" transform="matrix(0.6406 -0.7679 0.7679 0.6406 -23.515 66.8874)" class="st4" width="39.1" height="1"/>
			</g>
		</g>
		<path id="XMLID_157_" class="st4" d="M62.1,24.2l0.5,0.4l-3.4,4.1c-9.5-5.1-21.5-3-28.6,5.6c-7.1,8.6-7,20.8-0.3,29.2l-3.4,4.1
			l-0.5-0.4c-1.6,0-1.9,1.6-1.1,2.2l7.6,6.4c0,0,0,0,0,0c1.6,0,1.9-1.6,1.1-2.2l0,0l3.4-4.1c9.5,5.1,21.5,3,28.6-5.6
			c7.1-8.6,7-20.8,0.3-29.2l3.4-4.1l0.5,0.4c1.6,0,1.9-1.6,1.1-2.2l-7.2-6C63.3,22,61.8,22.6,62.1,24.2z M33.1,72.7l-5.5-4.6l3.3-4
			c0.8,0.9,1.6,1.7,2.6,2.5c0.9,0.8,1.9,1.5,2.9,2.1L33.1,72.7z M64.5,53.5c-4.8,14.9-24,16.6-31.4,2.8c-2-3.7-2.3-8-1.1-11.9
			c4.8-14.9,24-16.6,31.4-2.8C65.3,45.3,65.7,49.6,64.5,53.5z M68.9,29.8l-3.3,4c-0.8-0.9-1.6-1.7-2.6-2.5c-0.9-0.8-1.9-1.5-2.9-2.1
			l3.3-4L68.9,29.8z"/>
	</g>
</g>
</svg>
