<!-- Generator: Adobe Illustrator 19.0.0, SVG Export Plug-In  -->
<svg version="1.1"
   xmlns="http://www.w3.org/2000/svg" xmlns:xlink="http://www.w3.org/1999/xlink" xmlns:a="http://ns.adobe.com/AdobeSVGViewerExtensions/3.0/"
   x="0px" y="0px" width="25.9px" height="25.9px" viewBox="0 0 25.9 25.9" style="enable-background:new 0 0 25.9 25.9;"
   xml:space="preserve"
   class="icon-nav">

<defs>
</defs>
<g id="XMLID_18_">
  <path id="XMLID_19_" d="M25.3,23c-0.4,0.9-1.4,1.5-2.2,1.9c-1.1,0.6-2.2,0.9-3.4,0.9c-1.7,0-3.3-0.7-4.8-1.3
    c-1.1-0.4-2.2-0.9-3.2-1.5c-3.1-1.9-6.9-5.7-8.8-8.8c-0.6-1-1.1-2.1-1.5-3.2C0.7,9.5,0,7.9,0,6.2C0,5,0.3,3.9,0.9,2.8
    C1.4,2,2,1,2.9,0.6C3.5,0.3,4.8,0,5.4,0c0.1,0,0.3,0,0.4,0.1c0.4,0.1,0.8,1,1,1.4c0.6,1,1.2,2.1,1.8,3.1c0.3,0.5,0.8,1.1,0.8,1.6
    C9.4,7.3,6.1,9,6.1,10c0,0.5,0.5,1.1,0.7,1.6c1.9,3.3,4.2,5.7,7.5,7.5c0.4,0.3,1.1,0.7,1.6,0.7c1,0,2.6-3.3,3.7-3.3
    c0.6,0,1.2,0.6,1.6,0.8c1,0.6,2.1,1.2,3.1,1.8c0.4,0.2,1.3,0.6,1.4,1c0.1,0.1,0.1,0.3,0.1,0.4C25.9,21.1,25.6,22.4,25.3,23z"/>
</g>
</svg>
