<?xml version="1.0" encoding="utf-8"?>
<!-- Generator: Adobe Illustrator 19.0.0, SVG Export Plug-In . SVG Version: 6.00 Build 0)  -->
<svg version="1.1" id="Capa_1" xmlns="http://www.w3.org/2000/svg" xmlns:xlink="http://www.w3.org/1999/xlink" x="0px" y="0px"
	 viewBox="0 0 532 460" style="enable-background:new 0 0 532 460;" xml:space="preserve">
<style type="text/css">
	.st0{fill:#64D1DA;}
	.st1{fill:#34B2E4;}
	.st2{fill:#065381;}
	.st3{fill:#8B103D;}
	.st4{fill:#FE912A;}
	.st5{fill:#E34856;}
	.st6{fill:#2CC6D2;}
	.st7{fill:#0B98D0;}
	.st8{fill:#0A4366;}
	.st9{fill:#7B002C;}
	.st10{fill:#FA7903;}
	.st11{fill:#C8202F;}
	.st12{fill:#FFFFFF;}
	.st13{font-family:'InaiMathi';}
	.st14{font-size:16px;}
	.st15{font-family:'MyriadPro-Regular';}
</style>
<g>
	<g>
		<path class="st0" d="M11.5,270.3c1.2,67,28.2,127.7,71.4,172.6l73.4-73.4c-24.5-26.1-39.9-60.9-41.1-99.2H11.5z"/>
		<path class="st1" d="M11.5,261.1h103.8c1.2-38.3,16.6-73.1,41.1-99.1L83,88.6C39.7,133.5,12.7,194.1,11.5,261.1z"/>
		<path class="st2" d="M162.9,155.5c26.1-24.5,60.8-39.9,99.1-41.1V10.6c-67,1.2-127.7,28.2-172.5,71.4L162.9,155.5z"/>
		<path class="st3" d="M271.3,114.4c38.3,1.1,73.1,16.5,99.1,41.1l73.4-73.4C399,38.8,338.3,11.8,271.3,10.6V114.4z"/>
		<path class="st4" d="M377,369.6l73.4,73.4c43.3-44.9,70.3-105.6,71.4-172.6H418.1C417,308.7,401.6,343.5,377,369.6z"/>
		<path class="st5" d="M377,162c24.5,26.1,39.9,60.8,41.1,99.1l103.8,0c-1.2-67-28.2-127.7-71.5-172.5L377,162z"/>
		<path class="st6" d="M115.3,270.3c1.1,38.4,16.5,73.1,41.1,99.2l15.1-15.1c-20.7-22.2-33.7-51.6-34.8-84.1H115.3z"/>
		<path class="st7" d="M115.3,261.1h21.4c1.1-32.4,14.2-61.8,34.8-84L156.4,162C131.9,188,116.5,222.8,115.3,261.1z"/>
		<path class="st8" d="M178.1,170.6c22.2-20.7,51.6-33.7,84-34.8v-21.4c-38.3,1.1-73.1,16.5-99.1,41.1L178.1,170.6z"/>
		<path class="st9" d="M271.3,135.8c32.4,1.1,61.8,14.1,84,34.8l15.1-15.1c-26.1-24.5-60.8-39.9-99.1-41.1L271.3,135.8z"/>
		<path class="st10" d="M361.9,354.4l15.1,15.1c24.5-26.1,39.9-60.9,41.1-99.2h-21.4C395.6,302.8,382.6,332.2,361.9,354.4z"/>
		<path class="st11" d="M361.8,177.1c20.7,22.2,33.7,51.6,34.8,84l21.4,0c-1.2-38.3-16.6-73.1-41.1-99.1L361.8,177.1z"/>
	</g>
	<g>
		<polygon class="st11" points="372.6,220.5 400.6,224 389.5,198 		"/>
		<polygon class="st9" points="309.4,158.5 331.6,141.2 305.4,130.6 		"/>
		<polygon class="st8" points="220.8,159.3 224.3,131.4 198.3,142.4 		"/>
		<polygon class="st7" points="130.9,226.5 158.8,222.5 141.5,200.3 		"/>
		<polygon class="st6" points="142.7,333.6 159.6,311.1 131.7,307.6 		"/>
		<polygon class="st10" points="390.8,331.3 401.3,305.1 373.4,309.1 		"/>
	</g>
</g>
<g>
	<g>
		<path class="st12" d="M77.5,312.2c-1.1-0.8-2.5-1.2-4.1-1.2c-2.4,0-4.3,1-5.7,2.9c-1.2,1.8-1.8,4.6-1.8,8.6c0,2.8,0.3,5,0.9,6.5
			c0.6,1.5,1.5,2.7,2.6,3.4c1.1,0.8,2.5,1.1,4.1,1.1c1.6,0,3-0.4,4-1.1c1.1-0.7,1.9-1.9,2.5-3.5c0.6-1.6,0.9-3.8,0.9-6.7
			c0-2.8-0.3-5-0.9-6.6C79.5,314.1,78.6,313,77.5,312.2z M75.9,328.4c-0.6,1-1.4,1.5-2.4,1.5c-1,0-1.9-0.5-2.5-1.6
			c-0.6-1-1-2.9-1-5.6c0-2.1,0.1-3.7,0.4-4.8c0.3-1.1,0.7-1.8,1.2-2.3c0.5-0.4,1.1-0.7,1.8-0.7c1,0,1.8,0.5,2.5,1.6
			c0.6,1.1,1,3,1,5.9C76.9,325.2,76.6,327.2,75.9,328.4z"/>
		<polygon class="st12" points="84.4,315.4 88.9,315.4 88.9,333.1 92.9,333.1 92.9,311.6 86.8,311.6 		"/>
	</g>
	<g>
		<rect x="39" y="338.1" class="st12" width="82" height="2.5"/>
	</g>
</g>
<g>
	<g>
		<path class="st12" d="M77.2,160c-1.1-0.8-2.5-1.2-4.1-1.2c-2.4,0-4.3,1-5.7,2.9c-1.2,1.8-1.8,4.6-1.8,8.6c0,2.8,0.3,5,0.9,6.5
			c0.6,1.5,1.5,2.7,2.6,3.4c1.1,0.8,2.5,1.1,4.1,1.1c1.6,0,3-0.4,4-1.1c1.1-0.7,1.9-1.9,2.5-3.5c0.6-1.6,0.9-3.8,0.9-6.7
			c0-2.8-0.3-5-0.9-6.6C79.2,161.9,78.4,160.7,77.2,160z M75.6,176.1c-0.6,1-1.4,1.5-2.4,1.5c-1,0-1.9-0.5-2.5-1.6
			c-0.6-1-1-2.9-1-5.6c0-2.1,0.1-3.7,0.4-4.8c0.3-1.1,0.7-1.8,1.2-2.3c0.5-0.4,1.1-0.7,1.8-0.7c1,0,1.8,0.5,2.5,1.6
			c0.6,1.1,1,3,1,5.9C76.7,172.9,76.3,174.9,75.6,176.1z"/>
		<path class="st12" d="M91.9,174.5c1.9-2,3.3-3.8,4-5.2c0.7-1.5,1.1-2.8,1.1-4.1c0-1.1-0.3-2.1-0.9-3.2c-0.6-1-1.4-1.8-2.4-2.4
			c-1-0.6-2.2-0.8-3.5-0.8c-2.1,0-3.8,0.7-5.2,2c-1.4,1.3-2.1,3.2-2.2,5.5h4c0-1.1,0.4-2,0.9-2.7c0.6-0.7,1.3-1,2.2-1
			c0.9,0,1.6,0.3,2.1,0.8c0.6,0.5,0.8,1.2,0.8,2.1c0,0.8-0.3,1.7-0.8,2.7c-0.5,1-1.6,2.3-3.2,3.9l-6.7,6.8v2h14.9v-3.8h-7.7
			L91.9,174.5z"/>
	</g>
	<g>
		<rect x="40.8" y="185.9" class="st12" width="82" height="2.5"/>
	</g>
</g>
<g>
	<g>
		<path class="st12" d="M181.9,52.8c-1.1-0.8-2.5-1.2-4.1-1.2c-2.4,0-4.3,1-5.7,2.9c-1.2,1.8-1.8,4.6-1.8,8.6c0,2.8,0.3,5,0.9,6.5
			c0.6,1.5,1.5,2.7,2.6,3.4c1.1,0.8,2.5,1.1,4.1,1.1c1.6,0,3-0.4,4-1.1c1.1-0.7,1.9-1.9,2.5-3.5c0.6-1.6,0.9-3.8,0.9-6.7
			c0-2.8-0.3-5-0.9-6.6C183.9,54.8,183,53.6,181.9,52.8z M180.3,69c-0.6,1-1.4,1.5-2.4,1.5c-1,0-1.9-0.5-2.5-1.6c-0.6-1-1-2.9-1-5.6
			c0-2.1,0.1-3.7,0.4-4.8c0.3-1.1,0.7-1.8,1.2-2.3c0.5-0.4,1.1-0.7,1.8-0.7c1,0,1.8,0.5,2.5,1.6c0.6,1.1,1,3,1,5.9
			C181.4,65.8,181,67.8,180.3,69z"/>
		<path class="st12" d="M197.9,61.9c1-0.5,1.8-1.1,2.3-1.9c0.5-0.8,0.8-1.7,0.8-2.6c0-1.5-0.6-2.9-1.8-4c-1.2-1.1-2.7-1.7-4.4-1.7
			c-2,0-3.6,0.7-4.9,2c-0.9,1-1.5,2.2-1.7,3.8h3.9c0.2-0.6,0.5-1,1-1.4c0.5-0.4,1-0.5,1.6-0.5c0.7,0,1.2,0.2,1.6,0.6
			c0.4,0.4,0.6,0.9,0.6,1.5c0,0.4-0.1,0.9-0.4,1.3c-0.3,0.4-0.6,0.7-1.1,0.9c-0.5,0.2-1.2,0.4-2.2,0.5v3.5c1.6,0,2.8,0.4,3.7,1
			c0.8,0.7,1.3,1.5,1.3,2.5c0,0.9-0.3,1.6-0.9,2.3c-0.6,0.6-1.4,0.9-2.4,0.9c-0.9,0-1.7-0.3-2.3-0.8c-0.6-0.5-1-1.4-1.2-2.5h-4.1
			c0.1,2.2,0.8,3.9,2.2,5.2c1.3,1.3,3,1.9,5.1,1.9c2.2,0,4-0.7,5.4-2c1.4-1.3,2.1-3,2.1-4.9c0-1.3-0.4-2.5-1.1-3.4
			S199.2,62.3,197.9,61.9z"/>
	</g>
	<g>
		<rect x="145.4" y="78.7" class="st12" width="82" height="2.5"/>
	</g>
</g>
<g>
	<g>
		<path class="st12" d="M445.2,156.7c-1.1-0.8-2.5-1.2-4.1-1.2c-2.4,0-4.3,1-5.7,2.9c-1.2,1.8-1.8,4.6-1.8,8.6c0,2.8,0.3,5,0.9,6.5
			c0.6,1.5,1.5,2.7,2.6,3.4c1.1,0.8,2.5,1.1,4.1,1.1c1.6,0,3-0.4,4-1.1c1.1-0.7,1.9-1.9,2.5-3.5c0.6-1.6,0.9-3.8,0.9-6.7
			c0-2.8-0.3-5-0.9-6.6C447.2,158.6,446.3,157.4,445.2,156.7z M443.6,172.8c-0.6,1-1.4,1.5-2.4,1.5c-1,0-1.9-0.5-2.5-1.6
			c-0.6-1-1-2.9-1-5.6c0-2.1,0.1-3.7,0.4-4.8c0.3-1.1,0.7-1.8,1.2-2.3c0.5-0.4,1.1-0.7,1.8-0.7c1,0,1.8,0.5,2.5,1.6
			c0.6,1.1,1,3,1,5.9C444.7,169.7,444.3,171.6,443.6,172.8z"/>
		<path class="st12" d="M458.2,163.5c-0.2,0-0.4,0-0.7,0.1c-0.2,0-0.5,0.1-0.7,0.2l0.9-3.9h7v-3.8h-10.1l-2.6,12l3.3,0.7
			c0.4-0.4,0.8-0.8,1.3-1c0.4-0.2,0.9-0.3,1.3-0.3c0.8,0,1.6,0.3,2.1,1c0.6,0.6,0.9,1.5,0.9,2.5c0,1-0.3,1.9-1,2.5
			c-0.6,0.7-1.4,1-2.3,1c-0.7,0-1.3-0.2-1.8-0.5c-0.5-0.3-1-0.9-1.3-1.5h-4.3c0.4,1.8,1.3,3.2,2.6,4.3c1.3,1,2.9,1.6,4.7,1.6
			c2,0,3.8-0.7,5.2-2.2c1.4-1.4,2.1-3.2,2.1-5.3c0-2.1-0.6-3.8-1.9-5.1C461.7,164.2,460.1,163.5,458.2,163.5z"/>
	</g>
	<g>
		<rect x="408.7" y="182.6" class="st12" width="82" height="2.5"/>
	</g>
</g>
<g>
	<g>
		<path class="st12" d="M451.9,300.9c-1.1-0.8-2.5-1.2-4.1-1.2c-2.4,0-4.3,1-5.7,2.9c-1.2,1.8-1.8,4.6-1.8,8.6c0,2.8,0.3,5,0.9,6.5
			c0.6,1.5,1.5,2.7,2.6,3.4c1.1,0.8,2.5,1.1,4.1,1.1c1.6,0,3-0.4,4-1.1c1.1-0.7,1.9-1.9,2.5-3.5c0.6-1.6,0.9-3.8,0.9-6.7
			c0-2.8-0.3-5-0.9-6.6C453.9,302.9,453.1,301.7,451.9,300.9z M450.3,317.1c-0.6,1-1.4,1.5-2.4,1.5c-1,0-1.9-0.5-2.5-1.6
			c-0.6-1-1-2.9-1-5.6c0-2.1,0.1-3.7,0.4-4.8c0.3-1.1,0.7-1.8,1.2-2.3c0.5-0.4,1.1-0.7,1.8-0.7c1,0,1.8,0.5,2.5,1.6
			c0.6,1.1,1,3,1,5.9C451.4,313.9,451,315.9,450.3,317.1z"/>
		<path class="st12" d="M464.7,308.8l3.8-7.3l-3.5-1.7l-5.5,10.8c-0.7,1.4-1.2,2.4-1.4,3.1c-0.2,0.7-0.3,1.3-0.3,2
			c0,1.7,0.6,3.3,1.9,4.6c1.3,1.4,2.9,2,4.8,2c1.9,0,3.4-0.7,4.7-2c1.3-1.3,2-2.9,2-4.8c0-1.9-0.6-3.6-1.9-4.9
			C468.1,309.5,466.6,308.8,464.7,308.8z M466.5,317.7c-0.5,0.6-1.2,0.8-2,0.8c-0.7,0-1.4-0.3-1.9-0.8c-0.5-0.6-0.8-1.3-0.8-2.1
			s0.3-1.5,0.8-2.1c0.5-0.6,1.2-0.8,1.9-0.8c0.8,0,1.5,0.3,2,0.8c0.5,0.6,0.8,1.2,0.8,2.1C467.3,316.4,467,317.1,466.5,317.7z"/>
	</g>
	<g>
		<path class="st12" d="M495.5,379c0.1-0.1,0.1-0.2,0.1-0.3c0-0.1,0-0.2-0.1-0.3"/>
	</g>
	<g>
		<rect x="415.5" y="326.8" class="st12" width="82" height="2.5"/>
	</g>
</g>
<g>
	<g>
		<path class="st12" d="M334.3,54.2c-1.1-0.8-2.5-1.2-4.1-1.2c-2.4,0-4.3,1-5.7,2.9c-1.2,1.8-1.8,4.6-1.8,8.6c0,2.8,0.3,5,0.9,6.5
			c0.6,1.5,1.5,2.7,2.6,3.4c1.1,0.8,2.5,1.1,4.1,1.1c1.6,0,3-0.4,4-1.1c1.1-0.7,1.9-1.9,2.5-3.5c0.6-1.6,0.9-3.8,0.9-6.7
			c0-2.8-0.3-5-0.9-6.6C336.3,56.1,335.4,55,334.3,54.2z M332.7,70.3c-0.6,1-1.4,1.5-2.4,1.5c-1,0-1.9-0.5-2.5-1.6
			c-0.6-1-1-2.9-1-5.6c0-2.1,0.1-3.7,0.4-4.8c0.3-1.1,0.7-1.8,1.2-2.3c0.5-0.4,1.1-0.7,1.8-0.7c1,0,1.8,0.5,2.5,1.6
			c0.6,1.1,1,3,1,5.9C333.7,67.2,333.4,69.2,332.7,70.3z"/>
		<path class="st12" d="M352.7,53h-4.1l-9.3,13.9v3.8h9.4v4.4h4v-4.4h1.9v-3.8h-1.9V53z M348.7,66.9h-4.9l4.9-7.2V66.9z"/>
	</g>
	<g>
		<rect x="297.8" y="80.1" class="st12" width="82" height="2.5"/>
	</g>
</g>
<text transform="matrix(1 0 0 1 53.4167 364.75)" class="st12 st13 st14">ANALISIS</text>
<g>
	<text transform="matrix(1 0 0 1 57.3333 213.6667)"><tspan x="0" y="0" class="st12 st13 st14">DISE</tspan><tspan x="29.5" y="0" class="st12 st15 st14">Ñ</tspan><tspan x="40" y="0" class="st12 st13 st14">O</tspan></text>
</g>
<g>
	<text transform="matrix(1 0 0 1 135.6667 104.3333)" class="st12 st13 st14">IMPLEMENTACION</text>
</g>
<g>
	<text transform="matrix(1 0 0 1 314.6667 103)" class="st12 st13 st14">PRUEBAS</text>
</g>
<g>
	<text transform="matrix(1 0 0 1 415.6615 205.6718)" class="st12 st13 st14">ACEPTACION</text>
</g>
<g>
	<text transform="matrix(1 0 0 1 410.2924 350.3385)" class="st12 st13 st14">LANZAMIENTO</text>
</g>
</svg>
