<!-- Generator: Adobe Illustrator 19.0.0, SVG Export Plug-In  -->
<svg version="1.1"
   xmlns="http://www.w3.org/2000/svg" xmlns:xlink="http://www.w3.org/1999/xlink" xmlns:a="http://ns.adobe.com/AdobeSVGViewerExtensions/3.0/"
   x="0px" y="0px" width="28px" height="28.1px" viewBox="0 0 28 28.1" style="enable-background:new 0 0 28 28.1;"
   xml:space="preserve">
<g id="XMLID_50_">
  <path id="XMLID_51_" d="M19.8,9.3l0.9,2.1l-1.1,0.1L19.5,10L19,11.1l-1.7-0.8l-0.1-1.8c0,0,1.3,0,1.3,0
    c0,0.1,0.1,1.8,0.1,1.8l0.4-1.5L19.8,9.3z M17,9.9l-0.1-1.3l-1.2,2l0.5,1L17,9.9z M17.8,16.5L16.9,15l-0.1-1.8l-0.7,0l-0.3,1.3
    l-0.4-0.1l0.2-1l0.4-1.6l-0.3-0.6l-0.9,0.1l-0.5,1L14.1,14l0.1,0.6l0.3,0.7l0.1,0l1.1,0.4l0.6-0.7l0.1,1.7L15.6,16l0,0.9l0.5,1.1
    l-0.5,0.9l0.2,1.8l1.5,0L17,18.7l-0.4-0.1l-0.2,0.7l0-1l0.8,0.3l0.3,2.2l1.3-1l-1.2-1.6L17.8,16.5z M14.5,15.7l-0.4,0.6l0.3,2.4
    l1-0.1l-0.2-2.6L14.5,15.7z M19.4,15.9l-1.2,0.1l-0.1,0.5l1.1,0.7l2-0.1l0.1-1.5l-1.6-1L19.4,15.9z M19.3,17.7l-0.6-0.4L18,17.3
    l0.1,0.8l1.2,1.4l1.3-1.7l-0.4-0.4L19.3,17.7z M17.3,13.4l0.3,1.9l0.8,0.2l0.8-0.1l0.3-1.5l0.6,0.4l0.9,0.5l0.3-1l-0.1-2L19.4,12
    l-0.7,1.6l-0.2-0.5l0.3-1.6l-0.5-0.2l-0.2,0.4l-0.4-0.1l0.2-0.8L17,10.5l-0.7,1.3l0.4,0.9l1,0.2l-0.1,0.4L17.3,13.4z M8.2,11.7
    l0.1-1.5l0.4,1.1l1.7-0.8l0.1-1.8c0,0-1.3,0-1.3,0c0,0.1-0.1,1.8-0.1,1.8L8.6,9.1L7.9,9.5L7,11.5L8.2,11.7z M12.7,8.3l0.6-1.3
    l0.1,1.1l1.8-0.2L16,6.3c0,0-1.2-0.5-1.3-0.4c0,0.1-0.8,1.7-0.8,1.7L14,6l-0.8,0.1l-1.5,1.7L12.7,8.3z M12.1,10.8l-1.2-2l-0.1,1.3
    l0.9,1.8L12.1,10.8z M10.4,8.3L12,7.1l-1.1,0.1L9.6,8.1L10.4,8.3z M17.3,8.3l0.9-0.3l-1.3-0.9l-1.1-0.1L17.3,8.3z M10.8,18.9
    l-0.2,1.9l1.5,0l0.2-1.8l-0.5-0.9l0.5-1.1l0-0.9l-0.7,0.7l0.1-1.7l0.6,0.7l1.1-0.4l0,0l0.4-0.5l0.1-0.7l-0.1-1.7l-0.6-1l-0.9-0.1
    l-0.3,0.6l0.4,1.6l0.2,1L12,14.5l-0.3-1.3l-0.7,0l-0.1,1.8l-0.9,1.5l0.3,1.6L9,19.9l1.3,1l0.3-2.2l0.8-0.3l0,1l-0.2-0.7L10.8,18.9z
     M13.2,15.8l-0.7,0.2l-0.2,2.6l1,0.1l0.4-2.7L13.2,15.8z M9.6,16.6l-0.1-0.5L8.3,16L8,14.7l-1.6,1l0.1,1.5l2,0.1L9.6,16.6z
     M12.7,10.2l0.5,1.1l0.4-0.4l-0.3-2.3l-1.5-0.3l-0.4,0.6l0.8,1.8L12.7,10.2z M14.3,8.5l-0.3,2.3l0.4,0.4l0.5-1.1l0.4,0.5l0.8-1.8
    l-0.4-0.6L14.3,8.5z M9.7,17.5L9,17.4l-0.6,0.4l-0.9-0.2l-0.4,0.4l1.3,1.7l1.2-1.4L9.7,17.5z M12.5,20.2l-0.1,0.8l-0.7,0.7l0,0.6
    l1.9,0l-0.1-2L13,19.6L12.5,20.2z M14.8,19.6l-0.5,0.6l-0.1,2l1.9,0l0-0.6l-0.7-0.7l-0.1-0.8L14.8,19.6z M11.4,12l-0.7-1.3
    l-0.9,0.4l0.2,0.8L9.6,12l-0.2-0.4l-0.5,0.2l0.3,1.6L9,13.8l-0.7-1.6L6.7,12l-0.1,2l0.3,1l0.9-0.5L8.3,14l0.3,1.5l0.8,0.1l0.8-0.2
    l0.3-1.9l-0.3,0L10,13.1l1-0.2L11.4,12z M15.5,23.3L15.5,23.3c-0.1,0-0.3,0-0.5,0l0,0l0.1-0.7h-0.5l-0.1,0.8l-0.6,0.1l-0.2,0
    l-0.2-0.8h-0.5l0.2,0.9l-0.6,0.1c-0.1,0-0.2,0-0.2,0v-1h-1v1c0,0.4,0.1,0.6,0.3,0.8v0.7l4.7-0.5l0-0.6l0.2-0.1v-1.3h-1L15.5,23.3
    L15.5,23.3L15.5,23.3z M11.6,25.9L11.6,25.9c0,0.2,0,0.4,0.1,0.6l0.1,0.2l4.4-0.5l0.2-0.1l0-0.2c0-0.1,0-0.2,0-0.6V25l-4.7,0.5
    L11.6,25.9L11.6,25.9z M12,27.4c0.4,0.5,1.1,0.7,2,0.7h0c1.5,0,2-0.7,2.2-1.2l0.1-0.4L11.7,27L12,27.4z M14.4,0h-0.9v4.9h0.9V0z
     M19.9,0.9l-0.8-0.3L17.2,5l0.8,0.3L19.9,0.9z M24.1,3.3l-3.4,3.4l0.6,0.6L24.7,4L24.1,3.3z M27.3,7.9l-4.6,1.7l0.3,0.9l4.6-1.7
    L27.3,7.9z M23.2,12.9l-0.2,0.9l4.8,1l0.2-0.9L23.2,12.9z M10.8,5.4L8.9,0.9L8.1,1.2l1.8,4.5L10.8,5.4z M7.3,7.1L3.9,3.7L3.3,4.3
    l3.4,3.4L7.3,7.1z M0.4,9.1L5,10.7l0.3-0.9L0.7,8.2L0.4,9.1z M0,14.2l0.2,0.9l4.8-1l-0.2-0.9L0,14.2z"/>
</g>
</svg>
