<!-- Generator: Adobe Illustrator 19.0.0, SVG Export Plug-In  -->
<svg version="1.1"
	 xmlns="http://www.w3.org/2000/svg" xmlns:xlink="http://www.w3.org/1999/xlink" xmlns:a="http://ns.adobe.com/AdobeSVGViewerExtensions/3.0/"
	 x="0px" y="0px" viewBox="0 0 16.1 17" style="enable-background:new 0 0 16.1 17;"
	 xml:space="preserve">
<defs>
</defs>
<g>
	<path d="M16.1,9.2c0,0.7-0.5,1.4-1.3,1.4H7.1l3.2,3.2c0.3,0.3,0.4,0.6,0.4,1s-0.2,0.7-0.4,1l-0.8,0.8c-0.3,0.3-0.6,0.4-1,0.4
		c-0.4,0-0.7-0.2-1-0.4L0.4,9.5C0.2,9.2,0,8.9,0,8.5s0.2-0.7,0.4-1l7.1-7.1C7.8,0.2,8.1,0,8.5,0c0.4,0,0.7,0.2,1,0.4l0.8,0.8
		c0.3,0.3,0.4,0.6,0.4,1s-0.2,0.7-0.4,1L7.1,6.4h7.7c0.8,0,1.3,0.7,1.3,1.4V9.2z"/>
</g>
</svg>
