<?xml version="1.0" encoding="utf-8"?>
<!-- Generator: Adobe Illustrator 19.0.0, SVG Export Plug-In . SVG Version: 6.00 Build 0)  -->
<svg version="1.1" id="Livello_1" xmlns="http://www.w3.org/2000/svg" xmlns:xlink="http://www.w3.org/1999/xlink" x="0px" y="0px"
	 viewBox="234 -2.7 567.1 104.7" style="enable-background:new 234 -2.7 567.1 104.7;" xml:space="preserve">
	 <title>Boatjump logo</title>
<g>
	<path d="M318.4,49.6c-1.8,8.7-8.2,9-8.2,9c-9.3,1.3-11.4-5.7-12.1-10.6V35.1h12.6V19.9h-12.5V7.2h-15.9v12.5h-12.3v15.2h12.3v12.8
		c-0.5,4.9-2.7,12-12.1,10.7c0,0-6.3-0.3-8.2-9l-12,12.3c3,7.2,9.5,12.3,17.2,13.4c8.1,1.4,16.4-0.5,23.1-5.4
		c6.7,4.8,15,6.7,23.1,5.4c7.7-1.1,14.2-6.2,17.1-13.4L318.4,49.6z"/>
	<path d="M386,75c-4.5,0-9-1.2-12.8-3.5v2.8h-12.9V7.2h12.9V27c3.9-2.2,8.3-3.3,12.8-3.2c13.4-0.5,24.6,10,25.1,23.4l0,0v2.2
		c0.8,13.4-9.4,24.8-22.8,25.6c0,0,0,0,0,0L386,75L386,75z M385.8,36.4c-6.7-0.2-12.3,5.1-12.5,11.8v1.1c-0.4,6.7,4.7,12.5,11.4,13
		h1.1c6.4,0.4,12-4.4,12.5-10.9c0-0.7,0-1.3,0-2c0.7-6.4-3.9-12.2-10.3-13C387.1,36.4,386.4,36.3,385.8,36.4L385.8,36.4z"/>
	<path d="M442,75c-13.6,0.4-24.9-10.2-25.3-23.8v-1.7c0-14,11.3-25.3,25.3-25.3s25.3,11.3,25.3,25.3c0.5,13.5-10,24.9-23.5,25.5H442
		z M442,36.2c-6.8-0.2-12.5,5.2-12.7,12.1c0,0,0,0,0,0l0,0v1.2c-0.4,7,4.9,12.9,11.9,13.3c7,0.4,12.9-4.9,13.3-11.9
		c0-0.5,0-0.9,0-1.4c0.5-6.8-4.6-12.7-11.4-13.2L442,36.2z"/>
	<path d="M497.3,75c-13.8,0.2-25.1-10.8-25.3-24.6c0,0,0,0,0,0l0,0c0-0.4,0-0.7,0-1.1c-0.2-14,11-25.4,25-25.6c4.6-0.1,9,1.1,13,3.4
		v-2.8h12.8v50h-13v-2.6C506.1,74,501.7,75.1,497.3,75z M497.3,36.5c-6.7-0.2-12.3,5.1-12.5,11.8v1.1c0,7,5.7,12.7,12.7,12.7
		c7,0,12.7-5.7,12.7-12.7c0.3-6.7-4.8-12.5-11.6-12.8L497.3,36.5z"/>
	<path d="M553,75c-7.3,0-16-3.1-16-17.7V36.5h-8.8V24.4h8.8V12.8l12.7-1.3v12.9h14v12.1h-14v20.8c0,5.2,0.8,5.2,3.2,5.2
		c1.6-0.1,3.1-0.5,4.4-1.3l4-2l4.8,11.4l-3.8,1.8C559.5,74,556.3,74.8,553,75z"/>
	<path d="M580.4,92.1c-3.3,0-6.4-0.8-9.3-2.5l-2.9-1.6l3.8-11.2l4.1,2.4c1.3,0.8,2.8,1.2,4.3,1.2c2.1,0,3.1,0,3.1-6.3V24.7h12v49.4
		c0.5,5.1-1,10.2-4.3,14.2C588.4,91,584.4,92.4,580.4,92.1z M589.6,22.1c-3.9,0.1-7.1-3-7.2-6.9c0,0,0,0,0,0l0,0v-0.4
		c0-4,3.2-7.2,7.2-7.2s7.2,3.2,7.2,7.2c0.1,3.9-2.9,7.2-6.8,7.3c0,0,0,0,0,0C590,22.1,589.6,22.1,589.6,22.1z"/>
	<path d="M625.5,74.6c-11.7,0.9-21.8-7.8-22.7-19.5c-0.1-0.9-0.1-1.8,0-2.6V24.7h11.8v27.6c-0.2,2.8,0.8,5.5,2.6,7.6
		c2.3,1.9,5.1,2.9,8.1,2.7c5.8,0.1,10.5-4.5,10.6-10.3c0,0,0,0,0,0l0,0c0-0.3,0-0.6,0-0.8V24.9h12v49.4h-11.6v-2.5
		C633,73.6,629.3,74.6,625.5,74.6z"/>
	<path d="M728.3,73.9h-11.9V45.2c0.4-4.9-3.2-9.1-8-9.6h-1.2c-5-0.1-9.2,3.8-9.4,8.8c0,0.3,0,0.7,0,1v28.4h-12V45.5
		c0.3-5.1-3.6-9.6-8.7-9.9c-5.1-0.3-9.6,3.6-9.9,8.7c0,0.4,0,0.8,0,1.2v28.4h-12V24.8h11.7v1.4c8.4-4.3,18.5-2.6,25,4.2
		c3.9-4.2,9.4-6.6,15.2-6.5c11.4-0.4,20.9,8.5,21.2,19.9c0,0.5,0,0.9,0,1.4L728.3,73.9z"/>
	<path d="M747,91.1h-11.8V24.8h11.8v3.5c4.1-2.7,9-4.2,13.9-4.1l0,0c13.1-0.1,23.8,10.5,23.9,23.7c0,0,0,0,0,0l0,0v1.5
		c0.9,13.1-9,24.4-22.1,25.3c-0.9,0.1-1.9,0.1-2.8,0c-4.6,0.1-9.2-1.2-13.1-3.8L747,91.1z M760.1,36c-6.9-0.1-12.5,5.4-12.7,12.3
		v1.1c-0.4,7,4.9,13,11.9,13.4h0.9c8.1,0,12.9-5,12.9-13.5c0.8-6.6-4-12.6-10.6-13.3c-0.8-0.1-1.5-0.1-2.3,0L760.1,36z"/>
</g>
</svg>
