<svg version="1.1"
	 xmlns="http://www.w3.org/2000/svg" xmlns:xlink="http://www.w3.org/1999/xlink" xmlns:a="http://ns.adobe.com/AdobeSVGViewerExtensions/3.0/"
	 x="0px" y="0px" width="60px" height="60px" viewBox="0 0 300 290" style="enable-background:new 0 0 300 290;"
	 xml:space="preserve">
<style type="text/css">
	.budget_1_st0{fill:#424A60;}
	.budget_1_st1{fill:#556080;}
	.budget_1_st2{fill:#7383BF;}
	.budget_1_st3{fill:#1A9172;}
	.budget_1_st4{fill:#25AE88;}
	.budget_1_st5{fill:#88C057;}
	.budget_1_st6{fill:#61B872;}
</style>
<defs>
</defs>
<g id="XMLID_15_">
	<path id="XMLID_168_" class="budget_1_st0" d="M120,170v-48.8h0.2c-0.1,0.6-0.2,1.2-0.2,1.9c0-12.2,19.3-22.7,47.7-28.1H18
		c-10,0-18,8.1-18,18V172c0,10,8.1,18,18,18h102V170z M120,170"/>
	<path id="XMLID_164_" class="budget_1_st1" d="M120.2,260H120v-70H18c-10,0-18,8.1-18,18v58.9c0,10,8.1,18.1,18,18.1h143.6
		C138,279.7,121.9,270.5,120.2,260L120.2,260z M120.2,260"/>
	<path id="XMLID_159_" class="budget_1_st1" d="M271.9,95H18c-10,0-18-8.1-18-18V18C0,8.1,8.1,0,18,0h253.9c10,0,18,8.1,18,18V77
		C290,86.9,281.9,95,271.9,95L271.9,95z M271.9,95"/>
	<path id="XMLID_155_" class="budget_1_st2" d="M65,47.5C65,57.2,57.2,65,47.5,65C37.8,65,30,57.2,30,47.5C30,37.8,37.8,30,47.5,30
		C57.2,30,65,37.8,65,47.5L65,47.5z M65,47.5"/>
	<path id="XMLID_150_" class="budget_1_st2" d="M250,40c0,2.8-2.2,5-5,5c-2.8,0-5-2.2-5-5c0-2.8,2.2-5,5-5C247.8,35,250,37.2,250,40L250,40z
		 M250,40"/>
	<path id="XMLID_146_" class="budget_1_st2" d="M230,40c0,2.8-2.2,5-5,5s-5-2.2-5-5c0-2.8,2.3-5,5-5S230,37.2,230,40L230,40z M230,40"/>
	<path id="XMLID_141_" class="budget_1_st2" d="M260,55c0,2.8-2.2,5-5,5c-2.8,0-5-2.2-5-5c0-2.8,2.2-5,5-5C257.8,50,260,52.2,260,55L260,55z
		 M260,55"/>
	<path id="XMLID_137_" class="budget_1_st2" d="M240,55c0,2.8-2.2,5-5,5c-2.8,0-5-2.2-5-5c0-2.8,2.2-5,5-5C237.8,50,240,52.2,240,55L240,55z
		 M240,55"/>
	<path id="XMLID_132_" class="budget_1_st2" d="M210,40c0,2.8-2.3,5-5,5c-2.8,0-5-2.2-5-5c0-2.8,2.2-5,5-5C207.8,35,210,37.2,210,40L210,40z
		 M210,40"/>
	<path id="XMLID_128_" class="budget_1_st2" d="M220,55c0,2.8-2.2,5-5,5c-2.8,0-5-2.2-5-5c0-2.8,2.2-5,5-5C217.8,50,220,52.2,220,55L220,55z
		 M220,55"/>
	<path id="XMLID_123_" class="budget_1_st2" d="M190,40c0,2.8-2.2,5-5,5c-2.8,0-5-2.2-5-5c0-2.8,2.2-5,5-5C187.8,35,190,37.2,190,40L190,40z
		 M190,40"/>
	<path id="XMLID_119_" class="budget_1_st2" d="M200,55c0,2.8-2.2,5-5,5c-2.8,0-5-2.2-5-5c0-2.8,2.3-5,5-5C197.8,50,200,52.2,200,55L200,55z
		 M200,55"/>
	<path id="XMLID_114_" class="budget_1_st2" d="M170,40c0,2.8-2.2,5-5,5c-2.8,0-5-2.2-5-5c0-2.8,2.2-5,5-5C167.8,35,170,37.2,170,40L170,40z
		 M170,40"/>
	<path id="XMLID_110_" class="budget_1_st2" d="M180,55c0,2.8-2.3,5-5,5c-2.8,0-5-2.2-5-5c0-2.8,2.2-5,5-5C177.8,50,180,52.2,180,55L180,55z
		 M180,55"/>
	<path id="XMLID_105_" class="budget_1_st2" d="M65,142.5c0,9.7-7.8,17.5-17.5,17.5c-9.7,0-17.5-7.8-17.5-17.5c0-9.7,7.8-17.5,17.5-17.5
		C57.2,125,65,132.8,65,142.5L65,142.5z M65,142.5"/>
	<path id="XMLID_101_" class="budget_1_st2" d="M65,237.5c0,9.7-7.8,17.5-17.5,17.5c-9.7,0-17.5-7.8-17.5-17.5S37.8,220,47.5,220
		C57.2,220,65,227.8,65,237.5L65,237.5z M65,237.5"/>
	<path id="XMLID_95_" class="budget_1_st3" d="M210,238.7c-49.7,0-90-14.3-90-31.9V260h0.2c2.7,16.7,41.9,30,89.8,30s87.1-13.3,89.8-30h0.2
		v-53.1C300,224.5,259.7,238.7,210,238.7L210,238.7z M210,238.7"/>
	<path id="XMLID_40_" class="budget_1_st3" d="M120,205v1.9c0-0.6,0.1-1.3,0.2-1.9H120z M120,205"/>
	<path id="XMLID_37_" class="budget_1_st3" d="M299.8,205c0.1,0.6,0.2,1.2,0.2,1.9V205H299.8z M299.8,205"/>
	<path id="XMLID_34_" class="budget_1_st4" d="M210,185c-49.7,0-90-14.3-90-31.9v55.6h0.2c2.7,16.7,41.9,30,89.8,30s87.1-13.3,89.8-30h0.2
		v-55.6C300,170.7,259.7,185,210,185L210,185z M210,185"/>
	<path id="XMLID_31_" class="budget_1_st4" d="M120,151.2v1.9c0-0.6,0.1-1.2,0.2-1.9H120z M120,151.2"/>
	<path id="XMLID_28_" class="budget_1_st4" d="M299.8,151.2c0.1,0.6,0.2,1.2,0.2,1.9v-1.9H299.8z M299.8,151.2"/>
	<path id="XMLID_25_" class="budget_1_st5" d="M300,101.9c0,17.6-40.3,31.9-90,31.9c-49.7,0-90-14.3-90-31.9c0-17.6,40.3-31.9,90-31.9
		C259.7,70,300,84.3,300,101.9L300,101.9z M300,101.9"/>
	<path id="XMLID_22_" class="budget_1_st6" d="M210,133.7c-49.7,0-90-14.3-90-31.9V155h0.2c2.7,16.7,41.9,30,89.8,30s87.1-13.3,89.8-30h0.2
		v-53.1C300,119.5,259.7,133.7,210,133.7L210,133.7z M210,133.7"/>
	<path id="XMLID_19_" class="budget_1_st6" d="M120,100v1.9c0-0.6,0.1-1.3,0.2-1.9H120z M120,100"/>
	<path id="XMLID_16_" class="budget_1_st6" d="M299.8,100c0.1,0.6,0.2,1.2,0.2,1.9V100H299.8z M299.8,100"/>
</g>
</svg>
