<svg version="1.1"
	 xmlns="http://www.w3.org/2000/svg" xmlns:xlink="http://www.w3.org/1999/xlink" xmlns:a="http://ns.adobe.com/AdobeSVGViewerExtensions/3.0/"
	 x="0px" y="0px" width="60px" height="60px" viewBox="0 0 45.4 53.7" style="enable-background:new 0 0 45.4 53.7;"
	 xml:space="preserve">
<style type="text/css">
	.budget_3_st0{fill:#BF392B;}
	.budget_3_st1{fill:#AC3327;}
	.budget_3_st2{fill:#D6D6D6;}
	.budget_3_st3{fill:#CACACA;}
	.budget_3_st4{fill:#E2574C;}
	.budget_3_st5{fill:#CB4E44;}
	.budget_3_st6{fill:#E0E0E0;}
	.budget_3_st7{fill:#D07C40;}
	.budget_3_st8{fill:#D1D1D1;}
	.budget_3_st9{fill:#EBEBEB;}
	.budget_3_st10{fill:#BB6F39;}
	.budget_3_st11{fill:#DBDBDB;}
	.budget_3_st12{fill:#F4B459;}
	.budget_3_st13{fill:#EFC75E;}
	.budget_3_st14{fill:#E6E6E6;}
	.budget_3_st15{fill:#DBA250;}
	.budget_3_st16{fill:#EFEFEF;}
	.budget_3_st17{fill:#DDDDDD;}
	.budget_3_st18{fill:#BFBFBF;}
</style>
<defs>
</defs>
<g>
	<g>
		<path class="budget_3_st0" d="M0.2,30l4.9-8.5c0.5-0.9,1.6-1.2,2.5-0.7l35.9,20.9c0.9,0.5,1.2,1.6,0.7,2.5l-4.9,8.5
			c-0.5,0.9-1.6,1.2-2.5,0.7L0.9,32.5C0,32-0.3,30.9,0.2,30L0.2,30z M0.2,30"/>
		<path class="budget_3_st1" d="M5.2,21.7L5.2,21.7l-1,1.6l27.6,24.6L5.2,21.7z M5.2,21.7"/>
		<path class="budget_3_st2" d="M39.4,52.8l4.9-8.5c0.5-0.9,0.2-2-0.7-2.5l-11.4-6.6l-7.1,11.5l11.7,6.8C37.7,54,38.9,53.7,39.4,52.8
			L39.4,52.8z M39.4,52.8"/>
	</g>
	<path class="budget_3_st3" d="M27.1,43.3l-0.2,0.3l4.7,4.2L27.1,43.3z M27.1,43.3"/>
	<path class="budget_3_st4" d="M5.2,19.1l6.9-6.8c0.7-0.7,1.9-0.7,2.6,0l29.3,29c0.7,0.7,0.7,1.8,0,2.6L37,50.6c-0.7,0.7-1.9,0.7-2.6,0
		l-29.3-29C4.4,20.9,4.4,19.8,5.2,19.1L5.2,19.1z M5.2,19.1"/>
	<path class="budget_3_st5" d="M11.6,12.7L10,14.3L28.4,42C28.4,42,11.6,12.7,11.6,12.7L11.6,12.7z M11.6,12.7"/>
	<path class="budget_3_st6" d="M43.9,43.8c0.7-0.7,0.7-1.8,0-2.6L34,31.4l-9.6,9.3l10,9.9c0.7,0.7,1.9,0.7,2.6,0C37,50.6,43.9,43.8,43.9,43.8
		L43.9,43.8z M43.9,43.8"/>
	<path class="budget_3_st7" d="M12.2,10.2l8.5-4.9c0.9-0.5,2-0.2,2.5,0.7l20.9,36.3c0.5,0.9,0.2,2-0.7,2.5L35,49.6c-0.9,0.5-2,0.2-2.5-0.7
		L11.6,12.7C11.1,11.8,11.4,10.7,12.2,10.2L12.2,10.2z M12.2,10.2"/>
	<path class="budget_3_st8" d="M26.5,38.6l-0.2,0.2l2.1,3.1L26.5,38.6z M26.5,38.6"/>
	<path class="budget_3_st9" d="M35,49.7l8.5-4.9c0.9-0.5,1.2-1.6,0.7-2.5l-7.3-12.7l-11.5,7.1L32.5,49C33,49.9,34.2,50.2,35,49.7L35,49.7z
		 M35,49.7"/>
	<path class="budget_3_st10" d="M21.5,6c-0.1-0.3-0.1-0.7,0-1c-0.3,0-0.5,0.1-0.7,0.3l-1.7,1l11.8,34.4L21.5,6z M34.9,46.8L34.9,46.8
		L34.9,46.8L34.9,46.8z M34.9,46.8"/>
	<g>
		<path class="budget_3_st11" d="M34.9,46.8L34.9,46.8L34.9,46.8L34.9,46.8z M29.2,34.4l-0.4,0.3l2.1,6.1L29.2,34.4z M29.2,34.4"/>
		<path class="budget_3_st12" d="M22.7,3.8l9.5-2.5c1-0.3,2,0.3,2.3,1.3l10.8,39.6c0.3,1-0.3,2-1.3,2.2l-9.5,2.5c-1,0.3-2-0.3-2.3-1.3L21.5,6
			C21.2,5.1,21.8,4.1,22.7,3.8L22.7,3.8z M22.7,3.8"/>
		<path class="budget_3_st13" d="M34.5,0h8.7c1.2,0,2.2,1,2.2,2.2v41c0,1.2-1,2.2-2.2,2.2h-8.7c-1.2,0-2.2-1-2.2-2.2v-41
			C32.3,1,33.3,0,34.5,0L34.5,0z M34.5,0"/>
		<path class="budget_3_st14" d="M28.7,32.7l3.5,13c0.3,1,1.3,1.6,2.3,1.3l9.5-2.5c1-0.3,1.6-1.3,1.3-2.2l-3.5-12.8L28.7,32.7z M28.7,32.7"/>
	</g>
	<path class="budget_3_st15" d="M32.3,2.2c0-0.3,0.1-0.6,0.2-0.9c-0.1,0-0.2,0-0.3,0L30,1.9l2.3,33.4V2.2z M32.3,2.2"/>
	<path class="budget_3_st16" d="M32.3,29.3v13.8c0,1.2,1,2.2,2.2,2.2h8.7c1.2,0,2.2-1,2.2-2.2V29.3H32.3z M32.3,29.3"/>
	<path class="budget_3_st17" d="M32.3,31.8l-0.3,0.1l0.3,3.5V31.8z M32.3,31.8"/>
	<path class="budget_3_st18" d="M34.4,31.5v2.1h7.1v-2.1H34.4z M34.4,42.4h2.9v-1.3h-2.9V42.4z M34.4,39.4h2.9v-1.3h-2.9V39.4z M34.4,36.5
		h2.9v-1.3h-2.9V36.5z M41.7,40.3c0.6,0,1,0.5,1,1c0,0.6-0.5,1-1,1c-0.6,0-1-0.5-1-1C40.7,40.7,41.2,40.3,41.7,40.3L41.7,40.3z
		 M41.7,40.3"/>
</g>
</svg>
