<svg version="1.1"
	 xmlns="http://www.w3.org/2000/svg" xmlns:xlink="http://www.w3.org/1999/xlink" xmlns:a="http://ns.adobe.com/AdobeSVGViewerExtensions/3.0/"
	 x="0px" y="0px" width="45.4px" height="55.6px" viewBox="0 0 45.4 55.6" style="enable-background:new 0 0 45.4 55.6;"
	 xml:space="preserve">
<style type="text/css">
	.st0{fill:#FAC176;}
	.st1{fill:#E8E8D3;}
	.st2{fill:#ECF0F1;}
	.st3{fill:#BDC3C7;}
	.st4{fill:#556080;}
	.st5{fill:#FDD7AD;}
	.st6{fill:#6D8C60;}
</style>
<defs>
</defs>
<g>
	<path class="st0" d="M20.4,44.9v-3.2c-0.1-0.1-0.2-0.1-0.2-0.2L8.9,30.1c-0.6-0.5,0.9,0.5,1.5,0.2l4.4,1l13.6,13.6H20.4z
		 M29.3,44.9h10.6v-4.4c1.8-1.3,2.9-3.4,2.9-5.8c0-1-0.2-1.9-0.6-2.8L29.3,44.9z M29.3,44.9"/>
	<path class="st1" d="M16.5,0L0,16.5l8.9,8.9c0.6-0.6,1.4-0.9,2.3-0.9h9.7c1.9,0,3.4,1.5,3.4,3.4c0,1.9-1.5,3.4-3.4,3.4h-6.1l14,14
		l16.5-16.5L16.5,0z M16.5,0"/>
	<rect x="18.5" y="44.9" class="st2" width="23.3" height="10.7"/>
	<path class="st3" d="M34.1,55.6H18.5V44.9h9.2c3.5,0,6.4,2.9,6.4,6.4V55.6z M34.1,55.6"/>
	<path class="st4" d="M30.2,50.3c0,1.3-1.1,2.4-2.4,2.4c-1.3,0-2.4-1.1-2.4-2.4c0-1.3,1.1-2.4,2.4-2.4
		C29.1,47.8,30.2,48.9,30.2,50.3L30.2,50.3z M30.2,50.3"/>
	<path class="st0" d="M26.2,9.7c1.2-0.5,2-1.7,2-3.1c0-1.9-1.5-3.4-3.4-3.4c-1.4,0-2.6,0.8-3.1,2L26.2,9.7z M26.2,9.7"/>
	<path class="st0" d="M31,14.5c1.2-0.5,2-1.7,2-3.1c0-1.9-1.5-3.4-3.4-3.4c-1.4,0-2.6,0.8-3.1,2L31,14.5z M31,14.5"/>
	<path class="st0" d="M35.9,19.4c1.2-0.5,2-1.7,2-3.1c0-1.9-1.5-3.4-3.4-3.4c-1.4,0-2.6,0.8-3.1,2L35.9,19.4z M35.9,19.4"/>
	<path class="st0" d="M40.8,24.2c1.2-0.5,2-1.7,2-3.1c0-1.9-1.5-3.4-3.4-3.4c-1.4,0-2.6,0.8-3.1,2L40.8,24.2z M40.8,24.2"/>
	<path class="st5" d="M20.9,31.3h-9.7c-1.9,0-3.4-1.5-3.4-3.4c0-1.9,1.5-3.4,3.4-3.4h9.7c1.9,0,3.4,1.5,3.4,3.4
		C24.3,29.8,22.8,31.3,20.9,31.3L20.9,31.3z M20.9,31.3"/>
	<path class="st6" d="M22.7,11.7c-0.4,0.4-1,0.4-1.4,0l-2.1-2.1c-1.6,1-3.8,1-5.4,0l-4.3,4.3c1.1,1.6,1.1,3.7,0,5.4l2.1,2.1
		c0.4,0.4,0.4,1,0,1.4C11.5,22.9,11.2,23,11,23c-0.3,0-0.5-0.1-0.7-0.3l-3.4-3.4l0.7-0.7c1.1-1.1,1.1-3,0-4.1l-0.7-0.7l6.9-6.9
		l0.7,0.7c1.1,1.1,3,1.1,4.1,0l0.7-0.7l3.4,3.4C23.1,10.7,23.1,11.3,22.7,11.7L22.7,11.7z M38.5,26.1L35,22.7c-0.4-0.4-1-0.4-1.4,0
		c-0.4,0.4-0.4,1,0,1.4l2.1,2.1c-1.1,1.6-1.1,3.7,0,5.4l-4.3,4.3c-1.6-1-3.8-1-5.4,0l-2.1-2.1c-0.4-0.4-1-0.4-1.4,0
		c-0.4,0.4-0.4,1,0,1.4l3.4,3.4l0.7-0.7c1.1-1.1,3-1.1,4.1,0l0.7,0.7l6.9-6.9l-0.7-0.7c-1.1-1.1-1.1-3,0-4.1L38.5,26.1z M40.5,28.2
		c-0.4-0.4-1-0.4-1.4,0c-0.4,0.4-0.4,1,0,1.4c0.4,0.4,1,0.4,1.4,0C40.9,29.2,40.9,28.6,40.5,28.2L40.5,28.2z M28.2,39.2
		c-0.4,0.4-0.4,1,0,1.4c0.4,0.4,1,0.4,1.4,0c0.4-0.4,0.4-1,0-1.4C29.2,38.8,28.6,38.8,28.2,39.2L28.2,39.2z M17.2,6.2
		c0.4-0.4,0.4-1,0-1.4c-0.4-0.4-1-0.4-1.4,0c-0.4,0.4-0.4,1,0,1.4C16.2,6.6,16.8,6.6,17.2,6.2L17.2,6.2z M4.8,15.8
		c-0.4,0.4-0.4,1,0,1.4c0.4,0.4,1,0.4,1.4,0c0.4-0.4,0.4-1,0-1.4C5.8,15.4,5.2,15.4,4.8,15.8L4.8,15.8z M4.8,15.8"/>
	<path class="st6" d="M28.9,16.5c-3.4-3.4-9-3.4-12.4,0c-2.2,2.2-3,5.2-2.4,8h6.8c1.9,0,3.4,1.5,3.4,3.4c0,1.8-1.4,3.2-3.1,3.4
		c2.7,0.4,5.5-0.4,7.6-2.4C32.3,25.4,32.3,19.9,28.9,16.5L28.9,16.5z M28.9,16.5"/>
</g>
</svg>
