<svg version="1.1"
	 xmlns="http://www.w3.org/2000/svg" xmlns:xlink="http://www.w3.org/1999/xlink" xmlns:a="http://ns.adobe.com/AdobeSVGViewerExtensions/3.0/"
	 x="0px" y="0px" width="60px" height="60px" viewBox="0 0 46.1 45.4" style="enable-background:new 0 0 46.1 45.4;"
	 xml:space="preserve">
<style type="text/css">
	.st0{fill:#53515E;}
	.st1{fill:#474756;}
	.budget_2_st2{fill:#6F4BEF;}
	.budget_2_st3{fill:#4628B2;}
	.budget_2_st4{fill:#FFDC64;}
	.budget_2_st5{fill:#86E56E;}
	.budget_2_st6{fill:#FF80BD;}
	.budget_2_st7{fill:#AAA8C1;}
	.budget_2_st8{fill:#00AAF0;}
	.budget_2_st9{fill:#3C3B44;}
	.budget_2_st10{fill:#FF6B5C;}
	.budget_2_st11{fill:#FF5450;}
	.budget_2_st12{fill:#FFFFFF;}
</style>
<defs>
</defs>
<path class="budget_2_st0" d="M43,37.9H3.1c-1.7,0-3.1-1.4-3.1-3.1V3.1C0,1.4,1.4,0,3.1,0H43c1.7,0,3.1,1.4,3.1,3.1v31.7
	C46.1,36.5,44.7,37.9,43,37.9z"/>
<path class="budget_2_st1" d="M32.8,30.2c-0.4,0-0.7-0.3-0.7-0.7V7.1c0-0.4,0.3-0.7,0.7-0.7c0.4,0,0.7,0.3,0.7,0.7v22.4
	C33.5,29.9,33.2,30.2,32.8,30.2z"/>
<path class="budget_2_st2" d="M43,0H3.1C1.4,0,0,1.4,0,3.1v4.4h45.9h0.2V3.1C46.1,1.4,44.7,0,43,0z"/>
<path class="budget_2_st3" d="M29.1,4.5H15.5c-0.4,0-0.7-0.3-0.7-0.7s0.3-0.7,0.7-0.7h13.7c0.4,0,0.7,0.3,0.7,0.7S29.5,4.5,29.1,4.5z"/>
<circle class="budget_2_st4" cx="4.1" cy="3.8" r="1"/>
<circle class="budget_2_st5" cx="7.9" cy="3.8" r="1"/>
<circle class="budget_2_st4" cx="11.5" cy="3.8" r="1"/>
<circle class="budget_2_st6" cx="42.1" cy="3.8" r="1"/>
<path class="budget_2_st1" d="M41.5,28.2H4.8C3.3,28.2,2,29.4,2,31v6.7c0.3,0.1,0.7,0.2,1.1,0.2H43c0.5,0,0.9-0.1,1.3-0.3V31
	C44.3,29.4,43,28.2,41.5,28.2z"/>
<circle class="budget_2_st7" cx="4.5" cy="11.3" r="0.7"/>
<path class="budget_2_st8" d="M17,12.1H7.4c-0.4,0-0.7-0.3-0.7-0.7c0-0.4,0.3-0.7,0.7-0.7H17c0.4,0,0.7,0.3,0.7,0.7
	C17.8,11.8,17.4,12.1,17,12.1z"/>
<g>
	<path class="budget_2_st9" d="M43.1,11.3h-7.2c-0.4,0-0.7-0.3-0.7-0.7c0-0.4,0.3-0.7,0.7-0.7h7.2c0.4,0,0.7,0.3,0.7,0.7
		C43.8,11,43.5,11.3,43.1,11.3z"/>
	<path class="budget_2_st9" d="M43.1,14.5h-7.2c-0.4,0-0.7-0.3-0.7-0.7s0.3-0.7,0.7-0.7h7.2c0.4,0,0.7,0.3,0.7,0.7S43.5,14.5,43.1,14.5z"/>
	<path class="budget_2_st9" d="M43.1,17.7h-7.2c-0.4,0-0.7-0.3-0.7-0.7c0-0.4,0.3-0.7,0.7-0.7h7.2c0.4,0,0.7,0.3,0.7,0.7
		C43.8,17.3,43.5,17.7,43.1,17.7z"/>
	<path class="budget_2_st9" d="M43.1,20.8h-7.2c-0.4,0-0.7-0.3-0.7-0.7c0-0.4,0.3-0.7,0.7-0.7h7.2c0.4,0,0.7,0.3,0.7,0.7
		C43.8,20.5,43.5,20.8,43.1,20.8z"/>
	<path class="budget_2_st9" d="M43.1,24h-7.2c-0.4,0-0.7-0.3-0.7-0.7s0.3-0.7,0.7-0.7h7.2c0.4,0,0.7,0.3,0.7,0.7C43.8,23.7,43.5,24,43.1,24z"
		/>
	<path class="budget_2_st9" d="M43.1,27.1h-7.2c-0.4,0-0.7-0.3-0.7-0.7c0-0.4,0.3-0.7,0.7-0.7h7.2c0.4,0,0.7,0.3,0.7,0.7
		C43.8,26.8,43.5,27.1,43.1,27.1z"/>
</g>
<circle class="budget_2_st7" cx="4.5" cy="14.4" r="0.7"/>
<path class="budget_2_st8" d="M12.4,15.2H7.4c-0.4,0-0.7-0.3-0.7-0.7s0.3-0.7,0.7-0.7h5.1c0.4,0,0.7,0.3,0.7,0.7S12.9,15.2,12.4,15.2z"/>
<circle class="budget_2_st7" cx="4.5" cy="23.5" r="0.7"/>
<path class="budget_2_st5" d="M15,24.3H7.4c-0.4,0-0.7-0.3-0.7-0.7c0-0.4,0.3-0.7,0.7-0.7H15c0.4,0,0.7,0.3,0.7,0.7
	C15.7,24,15.4,24.3,15,24.3z"/>
<circle class="budget_2_st7" cx="4.5" cy="26.6" r="0.7"/>
<g>
	<path class="budget_2_st8" d="M15,27.3H7.4c-0.4,0-0.7-0.3-0.7-0.7s0.3-0.7,0.7-0.7H15c0.4,0,0.7,0.3,0.7,0.7S15.4,27.3,15,27.3z"/>
	<path class="budget_2_st8" d="M20.1,24.3h-2.7c-0.4,0-0.7-0.3-0.7-0.7c0-0.4,0.3-0.7,0.7-0.7h2.7c0.4,0,0.7,0.3,0.7,0.7
		C20.9,24,20.5,24.3,20.1,24.3z"/>
</g>
<path class="budget_2_st4" d="M20.5,15.2h-5.1c-0.4,0-0.7-0.3-0.7-0.7s0.3-0.7,0.7-0.7h5.1c0.4,0,0.7,0.3,0.7,0.7S20.9,15.2,20.5,15.2z"/>
<circle class="budget_2_st7" cx="4.5" cy="17.5" r="0.7"/>
<path class="budget_2_st6" d="M17.4,18.3h-7c-0.4,0-0.7-0.3-0.7-0.7s0.3-0.7,0.7-0.7h7c0.4,0,0.7,0.3,0.7,0.7S17.8,18.3,17.4,18.3z"/>
<circle class="budget_2_st7" cx="4.5" cy="20.5" r="0.7"/>
<path class="budget_2_st4" d="M23.2,21.2H10.5c-0.4,0-0.7-0.3-0.7-0.7c0-0.4,0.3-0.7,0.7-0.7h12.7c0.4,0,0.7,0.3,0.7,0.7
	C23.9,20.9,23.6,21.2,23.2,21.2z"/>
<path class="budget_2_st5" d="M27.5,18.3h-7c-0.4,0-0.7-0.3-0.7-0.7s0.3-0.7,0.7-0.7h7c0.4,0,0.7,0.3,0.7,0.7S27.9,18.3,27.5,18.3z"/>
<path class="budget_2_st10" d="M39.6,45.4h-33c-1.4,0-2.6-1.1-2.6-2.6V32.4c0-1.4,1.1-2.6,2.6-2.6h33c1.4,0,2.6,1.1,2.6,2.6v10.4
	C42.2,44.2,41.1,45.4,39.6,45.4z"/>
<path class="budget_2_st11" d="M39.6,29.9h-1.5l0,0c0,6.7-5.5,12.2-12.2,12.2H4.1v0.7c0,1.4,1.1,2.6,2.6,2.6h33c1.4,0,2.6-1.1,2.6-2.6V32.4
	C42.2,31,41.1,29.9,39.6,29.9z"/>
<g>
	<path class="budget_2_st12" d="M9.4,40.7v-6.3c0-0.2,0.1-0.3,0.2-0.4c0.1-0.1,0.3-0.1,0.5-0.1h3.5c0.2,0,0.3,0.1,0.3,0.2
		c0.1,0.1,0.1,0.3,0.1,0.5c0,0.2,0,0.4-0.1,0.5c-0.1,0.1-0.2,0.2-0.3,0.2H11v1.7h1.5c0.1,0,0.3,0.1,0.3,0.2c0.1,0.1,0.1,0.3,0.1,0.4
		c0,0.2,0,0.3-0.1,0.4c-0.1,0.1-0.2,0.2-0.3,0.2H11v1.7h2.7c0.1,0,0.3,0.1,0.3,0.2c0.1,0.1,0.1,0.3,0.1,0.5c0,0.2,0,0.3-0.1,0.5
		c-0.1,0.1-0.2,0.2-0.3,0.2h-3.5c-0.2,0-0.3,0-0.5-0.1C9.5,40.9,9.4,40.8,9.4,40.7z"/>
	<path class="budget_2_st12" d="M14.8,40.7v-6.3c0-0.1,0-0.2,0.1-0.3c0.1-0.1,0.2-0.1,0.3-0.1h2.1c1.6,0,2.5,0.7,2.5,2.1c0,1-0.4,1.7-1.2,2
		l1.2,2.2c0,0,0,0.1,0,0.2c0,0.2-0.1,0.4-0.3,0.5c-0.2,0.2-0.4,0.3-0.7,0.3c-0.2,0-0.4-0.1-0.5-0.3L17,38.3h-0.7v2.4
		c0,0.2-0.1,0.3-0.2,0.4c-0.2,0.1-0.3,0.1-0.5,0.1c-0.2,0-0.4,0-0.5-0.1C14.9,40.9,14.8,40.8,14.8,40.7z M16.3,37.1h1
		c0.3,0,0.5-0.1,0.7-0.2c0.2-0.1,0.2-0.4,0.2-0.7c0-0.3-0.1-0.6-0.2-0.7c-0.2-0.1-0.4-0.2-0.7-0.2h-1V37.1z"/>
	<path class="budget_2_st12" d="M20.6,40.7v-6.3c0-0.1,0-0.2,0.1-0.3c0.1-0.1,0.2-0.1,0.3-0.1h2.1c1.6,0,2.5,0.7,2.5,2.1c0,1-0.4,1.7-1.2,2
		l1.2,2.2c0,0,0,0.1,0,0.2c0,0.2-0.1,0.4-0.3,0.5c-0.2,0.2-0.4,0.3-0.7,0.3c-0.2,0-0.4-0.1-0.5-0.3l-1.4-2.7h-0.7v2.4
		c0,0.2-0.1,0.3-0.2,0.4c-0.2,0.1-0.3,0.1-0.5,0.1c-0.2,0-0.4,0-0.5-0.1C20.7,40.9,20.6,40.8,20.6,40.7z M22.2,37.1h1
		c0.3,0,0.5-0.1,0.7-0.2c0.2-0.1,0.2-0.4,0.2-0.7c0-0.3-0.1-0.6-0.2-0.7c-0.2-0.1-0.4-0.2-0.7-0.2h-1V37.1z"/>
	<path class="budget_2_st12" d="M26.3,38.9v-2.6c0-0.8,0.2-1.4,0.7-1.8c0.4-0.4,1-0.6,1.8-0.6c0.7,0,1.3,0.2,1.8,0.6c0.4,0.4,0.7,1,0.7,1.8
		v2.6c0,0.8-0.2,1.4-0.7,1.8c-0.4,0.4-1,0.6-1.8,0.6c-0.7,0-1.3-0.2-1.8-0.6C26.6,40.3,26.3,39.7,26.3,38.9z M27.9,38.9
		c0,0.7,0.3,1,0.9,1c0.6,0,0.9-0.3,0.9-1v-2.6c0-0.7-0.3-1-0.9-1c-0.6,0-0.9,0.3-0.9,1V38.9z"/>
	<path class="budget_2_st12" d="M32.2,40.7v-6.3c0-0.1,0-0.2,0.1-0.3c0.1-0.1,0.2-0.1,0.3-0.1h2.1c1.6,0,2.5,0.7,2.5,2.1c0,1-0.4,1.7-1.2,2
		l1.2,2.2c0,0,0,0.1,0,0.2c0,0.2-0.1,0.4-0.3,0.5c-0.2,0.2-0.4,0.3-0.7,0.3c-0.2,0-0.4-0.1-0.5-0.3l-1.4-2.7h-0.7v2.4
		c0,0.2-0.1,0.3-0.2,0.4c-0.2,0.1-0.3,0.1-0.5,0.1c-0.2,0-0.4,0-0.5-0.1C32.3,40.9,32.2,40.8,32.2,40.7z M33.8,37.1h1
		c0.3,0,0.5-0.1,0.7-0.2c0.2-0.1,0.2-0.4,0.2-0.7c0-0.3-0.1-0.6-0.2-0.7c-0.2-0.1-0.4-0.2-0.7-0.2h-1V37.1z"/>
</g>
</svg>
