<svg version="1.1"
	 xmlns="http://www.w3.org/2000/svg" xmlns:xlink="http://www.w3.org/1999/xlink" xmlns:a="http://ns.adobe.com/AdobeSVGViewerExtensions/3.0/"
	 x="0px" y="0px" width="60px" height="60px" viewBox="0 0 501.6 502.6" style="enable-background:new 0 0 501.6 502.6;"
	 xml:space="preserve">
<style type="text/css">
	.budget_4_st0{fill:#84DBFF;}
	.budget_4_st1{fill:#54C0EB;}
	.budget_4_st2{fill:#4CDBC4;}
	.budget_4_st3{fill:#FF7058;}
</style>
<defs>
</defs>
<path class="budget_4_st0" d="M336.5,141.1c-3.1-12.5-8.4-25.1-14.6-36.6l12.5-29.3l-43.9-42.8l-29.3,12.5c-11.5-6.3-23-11.5-36.6-14.6
	L214.2,0h-61.6l-11.5,30.3c-12.5,3.1-25.1,8.4-36.6,14.6L75.2,32.4L32.4,75.2l12.5,29.3c-6.3,11.5-11.5,23-14.6,36.6L0,152.6v61.6
	l30.3,11.5c3.1,12.5,8.4,25.1,14.6,36.6l-12.5,29.3l43.9,42.8l29.3-12.5c11.5,6.3,23,11.5,36.6,14.6l11.5,30.3h60.6l11.5-30.3
	c12.5-3.1,25.1-8.4,36.6-14.6l29.3,12.5l43.9-42.8l-12.5-29.3c6.3-11.5,11.5-23,14.6-36.6l30.3-11.5v-61.6L336.5,141.1z
	 M182.9,258.1c-41.8,0-75.2-33.4-75.2-75.2s33.4-75.2,75.2-75.2s75.2,33.4,75.2,75.2S224.7,258.1,182.9,258.1z"/>
<g>
	<path class="budget_4_st1" d="M236.1,236.1c-29.3,29.3-76.3,29.3-105.5,0l-27.2,27.2c43.9,43.9,116,43.9,159.9,0s43.9-114.9,0-159.9
		l-27.2,27.2C265.4,159.9,265.4,206.9,236.1,236.1z"/>
	<path class="st1" d="M103.4,103.4c-43.9,43.9-43.9,114.9,0,159.9l27.2-27.2c-29.3-29.3-29.3-76.3,0-105.5s76.3-29.3,105.5,0
		l27.2-27.2C219.4,59.6,147.3,59.6,103.4,103.4z"/>
</g>
<path class="budget_4_st2" d="M354.2,428.4c1-6.3,1-11.5,0-17.8l10.4-10.4l-10.4-26.1h-14.6c-3.1-4.2-8.4-8.4-12.5-12.5v-14.6l-26.1-10.4
	l-10.4,10.4c-6.3-1-11.5-1-17.8,0l-10.4-10.4l-26.1,10.4v14.6c-4.2,3.1-8.4,8.4-12.5,12.5H209l-10.4,26.1l10.4,10.4
	c-1,6.3-1,11.5,0,17.8l-10.4,10.4L209,465h14.6c3.1,4.2,8.4,8.4,12.5,12.5v14.6l26.1,10.4l10.4-10.4c6.3,1,11.5,1,17.8,0l10.4,10.4
	l26.1-10.4v-14.6c4.2-3.1,8.4-8.4,12.5-12.5h14.6l10.4-26.1L354.2,428.4z M270.6,450.4c-17.8-7.3-26.1-27.2-18.8-43.9
	c7.3-17.8,27.2-26.1,43.9-18.8c17.8,7.3,26.1,27.2,18.8,43.9C307.2,449.3,287.3,457.7,270.6,450.4z"/>
<path class="budget_4_st3" d="M491.1,291.5c1-6.3,1-11.5,0-17.8l10.4-10.4l-10.4-26.1h-14.6c-3.1-4.2-8.4-8.4-12.5-12.5V210l-26.1-10.4
	L427.4,210c-6.3-1-11.5-1-17.8,0l-10.4-10.4L373,210v14.6c-4.2,3.1-8.4,8.4-12.5,12.5h-14.6l-10.4,26.1l10.4,10.4
	c-1,6.3-1,11.5,0,17.8L335.4,302l10.4,26.1h14.6c3.1,4.2,8.4,8.4,12.5,12.5v14.6l26.1,10.4l10.4-10.4c6.3,1,11.5,1,17.8,0l10.4,10.4
	l26.1-10.4v-14.6c4.2-3.1,8.4-8.4,12.5-12.5h14.6l10.4-26.1L491.1,291.5z M406.5,314.5c-17.8-7.3-26.1-27.2-18.8-43.9
	c7.3-17.8,27.2-26.1,43.9-18.8c17.8,7.3,26.1,27.2,18.8,43.9C444.1,313.5,424.2,321.8,406.5,314.5z"/>
</svg>
