<svg version="1.1"
	 xmlns="http://www.w3.org/2000/svg" xmlns:xlink="http://www.w3.org/1999/xlink"
	 x="0px" y="0px" width="70.2px" height="52.7px" viewBox="0 0 70.2 52.7" style="enable-background:new 0 0 70.2 52.7;"
	 xml:space="preserve">
<style type="text/css">
	.consul_st0{fill:#fff;}
</style>
<defs>
</defs>
<path class="consul_st0" d="M9,52.7c13.8-5,21.9-20.1,21.9-33.2C30.8,8.7,25.6,0,14.4,0C6.1,0,0,6.8,0,14.2
	C0,23,6.8,27.3,14.9,28.4c-1.7,3.9-6.3,10.5-12.5,14L9,52.7z M48.3,52.7c13.8-5,21.9-20.1,21.9-33.2C70.2,8.7,65,0,53.8,0
	c-8.3,0-14.4,6.8-14.4,14.2c0,8.7,6.8,13.1,14.9,14.2c-1.7,3.9-6.3,10.5-12.5,14L48.3,52.7z"/>
</svg>
