<!-- Generator: Adobe Illustrator 19.0.0, SVG Export Plug-In  -->
<svg version="1.1"
   xmlns="http://www.w3.org/2000/svg" xmlns:xlink="http://www.w3.org/1999/xlink" xmlns:a="http://ns.adobe.com/AdobeSVGViewerExtensions/3.0/"
   x="0px" y="0px" width="27.5px" height="29px" viewBox="0 0 27.5 29" style="enable-background:new 0 0 27.5 29;"
   xml:space="preserve">
<g id="XMLID_16_">
  <g id="XMLID_17_">
    <path id="XMLID_26_" class="st0" d="M0.1,3.1L0.1,3.1C0.1,3.2,0.1,3.2,0.1,3.1L0.1,3.1l7.5,7.1V29h20V1.1h-20v3.3L3,0.1l0,0
      C2.9,0,2-0.3,0.8,0.9C-0.3,2.2,0,3,0.1,3.1L0.1,3.1z M20.8,20.5h4.3v6h-4.3V20.5z M20.8,9.2H22h0.6h1.7H25h0.1V20h-4.3L20.8,9.2
      L20.8,9.2z M20.8,3.6h0.7v5.1h-0.7V3.6z M23.1,3.6h0.7v5.1h-0.7V3.6z M25.1,8.8H25h-0.7V3.6h0.8L25.1,8.8L25.1,8.8z M22.6,8.8H22
      V3.6h0.6V8.8z M20.3,8.8h-0.6V3.6h0.6V8.8z M18.5,3.6h0.7v5.1h-0.7V3.6z M10.1,3.6h8v5.1h-2.6v0.5H18h1.7h0.6V20v0.5v6H17v-1.1h-1
      v1.1h-6v-9.2h0.8v-1h-0.8v-3.7l0.4,0.4c0.1-0.5,0.5-1.2,1-1.8c0.6-0.7,1.3-1.2,1.9-1.3l-3.3-3.2L10.1,3.6L10.1,3.6z"/>
    <path id="XMLID_23_" class="st0" d="M11.7,11.4c-0.7,0.8-1,1.5-1,1.9c0,0.1,0.2,0.2,0.3,0.2h0l0.6,0.1l0.4,0.1l1.9,0.2
      c0,0,0,0,0,0c0-0.1,0.1-0.3,0.2-0.5c0.1-0.1,0.2-0.2,0.4-0.2L14,11.3l-0.1-0.4l-0.1-0.5c0-0.1-0.1-0.3-0.2-0.3
      C13.2,10.1,12.5,10.6,11.7,11.4z M13.3,10.7l0.1,0.3l0.1,0.4l0.4,1.5c-0.1,0.1-0.2,0.1-0.2,0.2c-0.1,0.1-0.1,0.2-0.2,0.2l-1.5-0.2
      l-0.4-0.1l-0.4,0c0.1-0.3,0.3-0.8,0.8-1.3C12.6,11.2,13,10.8,13.3,10.7z"/>
    <path id="XMLID_22_" class="st0" d="M14.3,13.9L14.3,13.9l0.5,0.4c0,0,0.1,0.1,0.2,0.1c0.1,0,0.1,0,0.2-0.1c0.1-0.1,0-0.4-0.1-0.4
      l-0.4-0.4c0,0,0,0,0,0c0,0,0,0,0,0c-0.1,0-0.1,0.1-0.2,0.1C14.3,13.7,14.2,13.8,14.3,13.9z"/>
    <polygon id="XMLID_21_" class="st0" points="16,17.9 17,17.9 17,16.3 15.4,16.3 15.4,17.3 16,17.3     "/>
    <rect id="XMLID_20_" x="12.4" y="16.3" class="st0" width="1.4" height="1"/>
    <rect id="XMLID_19_" x="16" y="19.4" class="st0" width="1" height="1.4"/>
    <rect id="XMLID_18_" x="16" y="22.4" class="st0" width="1" height="1.4"/>
  </g>
</g>
</svg>
