<svg class="icon-nav" id="Livello_1" data-name="Livello 1" xmlns="http://www.w3.org/2000/svg" viewBox="0 0 21.22 16.67"><path d="M21.53,9.75C19.69,11,17.83,12.31,16,13.6c-.77.53-2.07,1.62-3,1.62h0c-1,0-2.26-1.09-3-1.62C8.07,12.31,6.21,11,4.38,9.75c-.84-.57-2-1.91-2-3A1.92,1.92,0,0,1,4.24,4.62H21.66a1.91,1.91,0,0,1,1.89,1.89A4.27,4.27,0,0,1,21.53,9.75Zm2,9.64a1.9,1.9,0,0,1-1.89,1.89H4.24a1.9,1.9,0,0,1-1.89-1.89V10a6.6,6.6,0,0,0,1.2,1c2,1.34,4,2.68,5.88,4.08a6.49,6.49,0,0,0,3.52,1.63h0a6.49,6.49,0,0,0,3.52-1.63c1.93-1.4,3.92-2.75,5.9-4.08a7,7,0,0,0,1.18-1Z" transform="translate(-2.34 -4.62)"/></svg>