<!-- Generator: Adobe Illustrator 19.0.0, SVG Export Plug-In  -->
<svg version="1.1"
	 xmlns="http://www.w3.org/2000/svg" xmlns:xlink="http://www.w3.org/1999/xlink"
	 x="0px" y="0px" width="24.9px" height="21.2px" viewBox="0 0 24.9 21.2" style="enable-background:new 0 0 24.9 21.2;"
	 xml:space="preserve">
<defs>
</defs>
<g id="XMLID_1_">
	<path id="XMLID_2_" d="M24,16.8c-2,4-7.4,4.4-11.3,4.4c-4,0-9.8-0.3-11.8-4.4c-0.8-1.5-0.9-3.3-0.9-5c0-2.2,0.6-4.3,2-6
		C1.7,5,1.5,4.1,1.5,3.3C1.5,2.1,1.8,1,2.3,0C4.7,0,6.2,1,8,2.4c1.5-0.4,3.1-0.5,4.6-0.5c1.4,0,2.8,0.2,4.2,0.5
		C18.6,1,20.2,0,22.5,0c0.5,1,0.8,2.1,0.8,3.3c0,0.9-0.1,1.7-0.4,2.5c1.4,1.7,2,3.8,2,6C24.9,13.4,24.7,15.2,24,16.8z M17.7,10.1
		c-1,0-1.9,0.2-2.9,0.3c-0.8,0.1-1.6,0.2-2.4,0.2s-1.6,0-2.4-0.2c-1-0.1-1.9-0.3-2.9-0.3c-2.4,0-3.8,2-3.8,4.3
		c0,4.6,4.2,5.3,7.9,5.3h2.5c3.7,0,7.9-0.7,7.9-5.3C21.5,12.1,20.1,10.1,17.7,10.1z M7.6,17.3c-1.4,0-1.9-1.8-1.9-2.9
		s0.6-2.9,1.9-2.9s1.9,1.8,1.9,2.9S8.9,17.3,7.6,17.3z M17.2,17.3c-1.4,0-1.9-1.8-1.9-2.9s0.6-2.9,1.9-2.9c1.4,0,1.9,1.8,1.9,2.9
		S18.6,17.3,17.2,17.3z"/>
</g>
</svg>
