<?xml version="1.0" encoding="utf-8"?>
<!-- Generator: Adobe Illustrator 19.0.0, SVG Export Plug-In . SVG Version: 6.00 Build 0)  -->
<svg version="1.1" id="Objects" xmlns="http://www.w3.org/2000/svg" xmlns:xlink="http://www.w3.org/1999/xlink" x="0px" y="0px"
	 viewBox="0 0 404 341.8" style="enable-background:new 0 0 404 341.8;" xml:space="preserve">
<style type="text/css">
	.st0{fill:#F3F3F5;}
	.st1{fill:#F5F8F1;}
	.st2{fill:#F49461;}
	.st3{fill:#DBCCB8;}
	.st4{fill:#F2C87E;}
	.st5{fill:#FFF6B1;}
	.st6{fill:#E16162;}
</style>
<path class="st0" d="M-1,341.8h200.3c0-145.8,100-160,100-160v-31c0,0-99.8,9.9-99.8-150.8H-1V341.8z"/>
<g>
	<circle class="st0" cx="261.5" cy="193.8" r="8.1"/>
	<circle class="st0" cx="287.5" cy="184.9" r="9.6"/>
	<circle class="st0" cx="275.4" cy="190.9" r="9.6"/>
	<circle class="st0" cx="269.9" cy="205.4" r="2.6"/>
	<circle class="st0" cx="248.9" cy="206.8" r="3.9"/>
	<ellipse class="st0" cx="287.4" cy="199.8" rx="0.9" ry="1"/>
</g>
<g>
	<circle class="st0" cx="294" cy="152.3" r="6.6"/>
	<circle class="st0" cx="280.7" cy="143.4" r="13.6"/>
	<circle class="st0" cx="284.8" cy="120.8" r="3.3"/>
	<circle class="st0" cx="302.3" cy="136.4" r="2"/>
	<ellipse transform="matrix(0.9298 0.3681 -0.3681 0.9298 65.8369 -90.4408)" class="st0" cx="270" cy="127.4" rx="1.5" ry="1.6"/>
</g>
<g>
	<g>
		<polygon class="st1" points="340.7,154.4 339.3,154.4 339.3,184.4 340.8,184.4 357.8,176.2 357.8,162.7 		"/>
		<path class="st2" d="M368.7,167.9l-10.9-5.3l0,13.5l10.9-5.3C370,170.3,370,168.5,368.7,167.9z"/>
	</g>
	<polygon class="st3" points="339.3,181.2 339.3,184.4 340.8,184.4 357.8,176.2 357.8,170.8 340.1,175.4 	"/>
	<g>
		<polygon class="st4" points="306.1,184.7 340.1,184.4 340.1,159.1 306,159.5 		"/>
		<polygon class="st5" points="306,161.3 340.1,161 340.1,154.4 306,154.7 		"/>
		<polygon class="st2" points="306.1,184.7 340.1,184.4 340.1,175.4 306,175.7 		"/>
		<path class="st6" d="M292.4,184.8l-13.1,0c-1.2,0-2.1-1-2.1-2.2l0-25.7c0-1.2,1-2.2,2.2-2.2l13.1,0c1.2,0,2.1,1,2.1,2.2l0,25.7
			C294.6,183.8,293.6,184.8,292.4,184.8z"/>
		<polygon class="st1" points="290.5,184.8 307.1,184.7 307.1,154.7 290.5,154.8 		"/>
		<polygon class="st3" points="290.5,184.8 307.1,184.7 307.1,175.2 290.5,175.2 		"/>
	</g>
</g>
</svg>
