<?xml version="1.0" encoding="utf-8"?>
<!-- Generator: Adobe Illustrator 19.0.0, SVG Export Plug-In . SVG Version: 6.00 Build 0)  -->
<svg version="1.1" id="Capa_1" xmlns="http://www.w3.org/2000/svg" xmlns:xlink="http://www.w3.org/1999/xlink" x="0px" y="0px"
	 viewBox="234 -198 532 460" style="enable-background:new 234 -198 532 460;" xml:space="preserve">
<style type="text/css">
	.st0{fill:#64D1DA;}
	.st1{fill:#34B2E4;}
	.st2{fill:#065381;}
	.st3{fill:#8B103D;}
	.st4{fill:#FE912A;}
	.st5{fill:#E34856;}
	.st6{fill:#2CC6D2;}
	.st7{fill:#0B98D0;}
	.st8{fill:#0A4366;}
	.st9{fill:#7B002C;}
	.st10{fill:#FA7903;}
	.st11{fill:#C8202F;}
	.st12{fill:#FFFFFF;}
	.st13{fill:#FFB0D0;}
	.st14{fill:#FEF8A6;}
	.st15{fill:#ED5F91;}
	.st16{fill:#FF82AF;}
	.st17{fill:#DC4B7F;}
	.st18{fill:#0074C2;fill-opacity:0.1;}
	.st19{fill:#ED5A9F;}
	.st20{fill:#FF7AB1;}
</style>
<g>
	<g>
		<path class="st0" d="M245.5,72.3c1.2,67,28.2,127.7,71.4,172.6l73.4-73.4c-24.5-26.1-39.9-60.9-41.1-99.2H245.5z"/>
		<path class="st1" d="M245.5,63.1h103.8c1.2-38.3,16.6-73.1,41.1-99.1L317-109.4C273.7-64.5,246.7-3.9,245.5,63.1z"/>
		<path class="st2" d="M396.9-42.5C423-67,457.7-82.4,496-83.6v-103.8c-67,1.2-127.7,28.2-172.5,71.4L396.9-42.5z"/>
		<path class="st3" d="M505.3-83.6c38.3,1.1,73.1,16.5,99.1,41.1l73.4-73.4c-44.8-43.3-105.5-70.3-172.5-71.5V-83.6z"/>
		<path class="st4" d="M611,171.6l73.4,73.4c43.3-44.9,70.3-105.6,71.4-172.6H652.1C651,110.7,635.6,145.5,611,171.6z"/>
		<path class="st5" d="M611-36c24.5,26.1,39.9,60.8,41.1,99.1h103.8c-1.2-67-28.2-127.7-71.5-172.5L611-36z"/>
		<path class="st6" d="M349.3,72.3c1.1,38.4,16.5,73.1,41.1,99.2l15.1-15.1c-20.7-22.2-33.7-51.6-34.8-84.1H349.3z"/>
		<path class="st7" d="M349.3,63.1h21.4c1.1-32.4,14.2-61.8,34.8-84L390.4-36C365.9-10,350.5,24.8,349.3,63.1z"/>
		<path class="st8" d="M412.1-27.4c22.2-20.7,51.6-33.7,84-34.8v-21.4C457.8-82.5,423-67.1,397-42.5L412.1-27.4z"/>
		<path class="st9" d="M505.3-62.2c32.4,1.1,61.8,14.1,84,34.8l15.1-15.1c-26.1-24.5-60.8-39.9-99.1-41.1V-62.2z"/>
		<path class="st10" d="M595.9,156.4l15.1,15.1c24.5-26.1,39.9-60.9,41.1-99.2h-21.4C629.6,104.8,616.6,134.2,595.9,156.4z"/>
		<path class="st11" d="M595.8-20.9c20.7,22.2,33.7,51.6,34.8,84H652C650.8,24.8,635.4-10,610.9-36L595.8-20.9z"/>
	</g>
	<g>
		<polygon class="st11" points="606.6,22.5 634.6,26 623.5,0 		"/>
		<polygon class="st9" points="543.4,-39.5 565.6,-56.8 539.4,-67.4 		"/>
		<polygon class="st8" points="454.8,-38.7 458.3,-66.6 432.3,-55.6 		"/>
		<polygon class="st7" points="364.9,28.5 392.8,24.5 375.5,2.3 		"/>
		<polygon class="st6" points="376.7,135.6 393.6,113.1 365.7,109.6 		"/>
		<polygon class="st10" points="624.8,133.3 635.3,107.1 607.4,111.1 		"/>
	</g>
</g>
<g>
	<g>
		<path class="st12" d="M311.5,114.2c-1.1-0.8-2.5-1.2-4.1-1.2c-2.4,0-4.3,1-5.7,2.9c-1.2,1.8-1.8,4.6-1.8,8.6c0,2.8,0.3,5,0.9,6.5
			c0.6,1.5,1.5,2.7,2.6,3.4c1.1,0.8,2.5,1.1,4.1,1.1s3-0.4,4-1.1c1.1-0.7,1.9-1.9,2.5-3.5s0.9-3.8,0.9-6.7c0-2.8-0.3-5-0.9-6.6
			C313.5,116.1,312.6,115,311.5,114.2z M309.9,130.4c-0.6,1-1.4,1.5-2.4,1.5s-1.9-0.5-2.5-1.6c-0.6-1-1-2.9-1-5.6
			c0-2.1,0.1-3.7,0.4-4.8c0.3-1.1,0.7-1.8,1.2-2.3c0.5-0.4,1.1-0.7,1.8-0.7c1,0,1.8,0.5,2.5,1.6c0.6,1.1,1,3,1,5.9
			C310.9,127.2,310.6,129.2,309.9,130.4z"/>
		<polygon class="st12" points="318.4,117.4 322.9,117.4 322.9,135.1 326.9,135.1 326.9,113.6 320.8,113.6 		"/>
	</g>
	<g>
		<rect x="273" y="140.1" class="st12" width="82" height="2.5"/>
	</g>
</g>
<g>
	<g>
		<path class="st12" d="M311.2-38c-1.1-0.8-2.5-1.2-4.1-1.2c-2.4,0-4.3,1-5.7,2.9c-1.2,1.8-1.8,4.6-1.8,8.6c0,2.8,0.3,5,0.9,6.5
			s1.5,2.7,2.6,3.4c1.1,0.8,2.5,1.1,4.1,1.1c1.6,0,3-0.4,4-1.1c1.1-0.7,1.9-1.9,2.5-3.5c0.6-1.6,0.9-3.8,0.9-6.7
			c0-2.8-0.3-5-0.9-6.6C313.2-36.1,312.4-37.3,311.2-38z M309.6-21.9c-0.6,1-1.4,1.5-2.4,1.5s-1.9-0.5-2.5-1.6c-0.6-1-1-2.9-1-5.6
			c0-2.1,0.1-3.7,0.4-4.8c0.3-1.1,0.7-1.8,1.2-2.3c0.5-0.4,1.1-0.7,1.8-0.7c1,0,1.8,0.5,2.5,1.6c0.6,1.1,1,3,1,5.9
			C310.7-25.1,310.3-23.1,309.6-21.9z"/>
		<path class="st12" d="M325.9-23.5c1.9-2,3.3-3.8,4-5.2c0.7-1.5,1.1-2.8,1.1-4.1c0-1.1-0.3-2.1-0.9-3.2c-0.6-1-1.4-1.8-2.4-2.4
			c-1-0.6-2.2-0.8-3.5-0.8c-2.1,0-3.8,0.7-5.2,2s-2.1,3.2-2.2,5.5h4c0-1.1,0.4-2,0.9-2.7c0.6-0.7,1.3-1,2.2-1s1.6,0.3,2.1,0.8
			c0.6,0.5,0.8,1.2,0.8,2.1c0,0.8-0.3,1.7-0.8,2.7s-1.6,2.3-3.2,3.9l-6.7,6.8v2H331v-3.8h-7.7L325.9-23.5z"/>
	</g>
	<g>
		<rect x="274.8" y="-12.1" class="st12" width="82" height="2.5"/>
	</g>
</g>
<g>
	<g>
		<path class="st12" d="M415.9-145.2c-1.1-0.8-2.5-1.2-4.1-1.2c-2.4,0-4.3,1-5.7,2.9c-1.2,1.8-1.8,4.6-1.8,8.6c0,2.8,0.3,5,0.9,6.5
			c0.6,1.5,1.5,2.7,2.6,3.4c1.1,0.8,2.5,1.1,4.1,1.1s3-0.4,4-1.1c1.1-0.7,1.9-1.9,2.5-3.5c0.6-1.6,0.9-3.8,0.9-6.7
			c0-2.8-0.3-5-0.9-6.6C417.9-143.2,417-144.4,415.9-145.2z M414.3-129c-0.6,1-1.4,1.5-2.4,1.5s-1.9-0.5-2.5-1.6c-0.6-1-1-2.9-1-5.6
			c0-2.1,0.1-3.7,0.4-4.8c0.3-1.1,0.7-1.8,1.2-2.3c0.5-0.4,1.1-0.7,1.8-0.7c1,0,1.8,0.5,2.5,1.6c0.6,1.1,1,3,1,5.9
			C415.4-132.2,415-130.2,414.3-129z"/>
		<path class="st12" d="M431.9-136.1c1-0.5,1.8-1.1,2.3-1.9s0.8-1.7,0.8-2.6c0-1.5-0.6-2.9-1.8-4c-1.2-1.1-2.7-1.7-4.4-1.7
			c-2,0-3.6,0.7-4.9,2c-0.9,1-1.5,2.2-1.7,3.8h3.9c0.2-0.6,0.5-1,1-1.4c0.5-0.4,1-0.5,1.6-0.5c0.7,0,1.2,0.2,1.6,0.6
			c0.4,0.4,0.6,0.9,0.6,1.5c0,0.4-0.1,0.9-0.4,1.3c-0.3,0.4-0.6,0.7-1.1,0.9c-0.5,0.2-1.2,0.4-2.2,0.5v3.5c1.6,0,2.8,0.4,3.7,1
			c0.8,0.7,1.3,1.5,1.3,2.5c0,0.9-0.3,1.6-0.9,2.3c-0.6,0.6-1.4,0.9-2.4,0.9c-0.9,0-1.7-0.3-2.3-0.8c-0.6-0.5-1-1.4-1.2-2.5h-4.1
			c0.1,2.2,0.8,3.9,2.2,5.2c1.3,1.3,3,1.9,5.1,1.9c2.2,0,4-0.7,5.4-2s2.1-3,2.1-4.9c0-1.3-0.4-2.5-1.1-3.4S433.2-135.7,431.9-136.1z
			"/>
	</g>
	<g>
		<rect x="379.4" y="-119.3" class="st12" width="82" height="2.5"/>
	</g>
</g>
<g>
	<g>
		<path class="st12" d="M679.2-41.3c-1.1-0.8-2.5-1.2-4.1-1.2c-2.4,0-4.3,1-5.7,2.9c-1.2,1.8-1.8,4.6-1.8,8.6c0,2.8,0.3,5,0.9,6.5
			s1.5,2.7,2.6,3.4c1.1,0.8,2.5,1.1,4.1,1.1s3-0.4,4-1.1c1.1-0.7,1.9-1.9,2.5-3.5s0.9-3.8,0.9-6.7c0-2.8-0.3-5-0.9-6.6
			C681.2-39.4,680.3-40.6,679.2-41.3z M677.6-25.2c-0.6,1-1.4,1.5-2.4,1.5s-1.9-0.5-2.5-1.6c-0.6-1-1-2.9-1-5.6
			c0-2.1,0.1-3.7,0.4-4.8c0.3-1.1,0.7-1.8,1.2-2.3c0.5-0.4,1.1-0.7,1.8-0.7c1,0,1.8,0.5,2.5,1.6c0.6,1.1,1,3,1,5.9
			C678.7-28.3,678.3-26.4,677.6-25.2z"/>
		<path class="st12" d="M692.2-34.5c-0.2,0-0.4,0-0.7,0.1c-0.2,0-0.5,0.1-0.7,0.2l0.9-3.9h7v-3.8h-10.1l-2.6,12l3.3,0.7
			c0.4-0.4,0.8-0.8,1.3-1c0.4-0.2,0.9-0.3,1.3-0.3c0.8,0,1.6,0.3,2.1,1c0.6,0.6,0.9,1.5,0.9,2.5s-0.3,1.9-1,2.5
			c-0.6,0.7-1.4,1-2.3,1c-0.7,0-1.3-0.2-1.8-0.5s-1-0.9-1.3-1.5h-4.3c0.4,1.8,1.3,3.2,2.6,4.3c1.3,1,2.9,1.6,4.7,1.6
			c2,0,3.8-0.7,5.2-2.2c1.4-1.4,2.1-3.2,2.1-5.3s-0.6-3.8-1.9-5.1C695.7-33.8,694.1-34.5,692.2-34.5z"/>
	</g>
	<g>
		<rect x="642.7" y="-15.4" class="st12" width="82" height="2.5"/>
	</g>
</g>
<g>
	<g>
		<path class="st12" d="M685.9,102.9c-1.1-0.8-2.5-1.2-4.1-1.2c-2.4,0-4.3,1-5.7,2.9c-1.2,1.8-1.8,4.6-1.8,8.6c0,2.8,0.3,5,0.9,6.5
			c0.6,1.5,1.5,2.7,2.6,3.4c1.1,0.8,2.5,1.1,4.1,1.1c1.6,0,3-0.4,4-1.1c1.1-0.7,1.9-1.9,2.5-3.5c0.6-1.6,0.9-3.8,0.9-6.7
			c0-2.8-0.3-5-0.9-6.6C687.9,104.9,687.1,103.7,685.9,102.9z M684.3,119.1c-0.6,1-1.4,1.5-2.4,1.5s-1.9-0.5-2.5-1.6
			c-0.6-1-1-2.9-1-5.6c0-2.1,0.1-3.7,0.4-4.8c0.3-1.1,0.7-1.8,1.2-2.3c0.5-0.4,1.1-0.7,1.8-0.7c1,0,1.8,0.5,2.5,1.6
			c0.6,1.1,1,3,1,5.9C685.4,115.9,685,117.9,684.3,119.1z"/>
		<path class="st12" d="M698.7,110.8l3.8-7.3l-3.5-1.7l-5.5,10.8c-0.7,1.4-1.2,2.4-1.4,3.1c-0.2,0.7-0.3,1.3-0.3,2
			c0,1.7,0.6,3.3,1.9,4.6c1.3,1.4,2.9,2,4.8,2s3.4-0.7,4.7-2s2-2.9,2-4.8s-0.6-3.6-1.9-4.9C702.1,111.5,700.6,110.8,698.7,110.8z
			 M700.5,119.7c-0.5,0.6-1.2,0.8-2,0.8c-0.7,0-1.4-0.3-1.9-0.8c-0.5-0.6-0.8-1.3-0.8-2.1s0.3-1.5,0.8-2.1s1.2-0.8,1.9-0.8
			c0.8,0,1.5,0.3,2,0.8c0.5,0.6,0.8,1.2,0.8,2.1C701.3,118.4,701,119.1,700.5,119.7z"/>
	</g>
	<g>
		<path class="st12" d="M729.5,181c0.1-0.1,0.1-0.2,0.1-0.3c0-0.1,0-0.2-0.1-0.3"/>
	</g>
	<g>
		<rect x="649.5" y="128.8" class="st12" width="82" height="2.5"/>
	</g>
</g>
<g>
	<g>
		<path class="st12" d="M568.3-143.8c-1.1-0.8-2.5-1.2-4.1-1.2c-2.4,0-4.3,1-5.7,2.9c-1.2,1.8-1.8,4.6-1.8,8.6c0,2.8,0.3,5,0.9,6.5
			s1.5,2.7,2.6,3.4c1.1,0.8,2.5,1.1,4.1,1.1s3-0.4,4-1.1c1.1-0.7,1.9-1.9,2.5-3.5s0.9-3.8,0.9-6.7c0-2.8-0.3-5-0.9-6.6
			C570.3-141.9,569.4-143,568.3-143.8z M566.7-127.7c-0.6,1-1.4,1.5-2.4,1.5s-1.9-0.5-2.5-1.6c-0.6-1-1-2.9-1-5.6
			c0-2.1,0.1-3.7,0.4-4.8c0.3-1.1,0.7-1.8,1.2-2.3c0.5-0.4,1.1-0.7,1.8-0.7c1,0,1.8,0.5,2.5,1.6c0.6,1.1,1,3,1,5.9
			S567.4-128.8,566.7-127.7z"/>
		<path class="st12" d="M586.7-145h-4.1l-9.3,13.9v3.8h9.4v4.4h4v-4.4h1.9v-3.8h-1.9V-145z M582.7-131.1h-4.9l4.9-7.2V-131.1z"/>
	</g>
	<g>
		<rect x="531.8" y="-117.9" class="st12" width="82" height="2.5"/>
	</g>
</g>
<g>
	<path class="st12" d="M290.5,153.2h1.6l3,13.5h-1.9l-0.6-2.9H290l-0.6,2.9h-1.9L290.5,153.2z M291.3,157.1L291.3,157.1l-1,4.9h1.9
		L291.3,157.1z"/>
	<path class="st12" d="M296,153.2h1.9l2.9,8.2h0v-8.2h1.9v13.5h-1.8l-3-8.1h0v8.1H296V153.2z"/>
	<path class="st12" d="M306.6,153.2h1.6l3,13.5h-1.9l-0.6-2.9h-2.6l-0.6,2.9h-1.9L306.6,153.2z M307.5,157.1L307.5,157.1l-1,4.9h1.9
		L307.5,157.1z"/>
	<path class="st12" d="M312.2,153.2h1.9v11.6h3.8v1.9h-5.8V153.2z"/>
	<path class="st12" d="M319.3,153.2h1.9v13.5h-1.9V153.2z"/>
	<path class="st12" d="M329.4,157.1h-1.9v-0.4c0-0.4-0.1-0.8-0.3-1.1s-0.6-0.5-1.1-0.5c-0.3,0-0.5,0.1-0.7,0.2s-0.3,0.2-0.4,0.4
		s-0.2,0.3-0.2,0.6s-0.1,0.4-0.1,0.7c0,0.3,0,0.5,0,0.7c0,0.2,0.1,0.3,0.1,0.5c0.1,0.1,0.2,0.2,0.3,0.4s0.3,0.2,0.6,0.3l1.5,0.6
		c0.4,0.2,0.8,0.4,1,0.6c0.3,0.2,0.5,0.5,0.6,0.8s0.2,0.6,0.3,1c0,0.4,0.1,0.8,0.1,1.3c0,0.6-0.1,1.1-0.2,1.6
		c-0.1,0.5-0.3,0.9-0.6,1.3c-0.3,0.3-0.6,0.6-1,0.8c-0.4,0.2-1,0.3-1.6,0.3c-0.5,0-0.9-0.1-1.3-0.2c-0.4-0.2-0.8-0.4-1-0.7
		c-0.3-0.3-0.5-0.6-0.7-1c-0.2-0.4-0.3-0.8-0.3-1.3v-0.7h1.9v0.6c0,0.4,0.1,0.7,0.3,1c0.2,0.3,0.6,0.4,1.1,0.4c0.3,0,0.6,0,0.8-0.1
		c0.2-0.1,0.3-0.2,0.4-0.4s0.2-0.4,0.2-0.6c0-0.3,0-0.5,0-0.8c0-0.4,0-0.6,0-0.9c0-0.2-0.1-0.4-0.2-0.6c-0.1-0.1-0.2-0.3-0.3-0.3
		c-0.1-0.1-0.3-0.2-0.6-0.3l-1.4-0.6c-0.8-0.3-1.4-0.8-1.7-1.4s-0.4-1.3-0.4-2.1c0-0.5,0.1-1,0.2-1.4s0.3-0.8,0.6-1.2
		c0.3-0.3,0.6-0.6,1-0.8s0.9-0.3,1.5-0.3c0.5,0,0.9,0.1,1.3,0.3s0.7,0.4,1,0.7s0.5,0.6,0.7,1c0.2,0.4,0.2,0.7,0.2,1.1V157.1z"/>
	<path class="st12" d="M330.9,153.2h1.9v13.5h-1.9V153.2z"/>
	<path class="st12" d="M341,157.1h-1.9v-0.4c0-0.4-0.1-0.8-0.3-1.1s-0.6-0.5-1.1-0.5c-0.3,0-0.5,0.1-0.7,0.2s-0.3,0.2-0.4,0.4
		s-0.2,0.3-0.2,0.6s-0.1,0.4-0.1,0.7c0,0.3,0,0.5,0,0.7c0,0.2,0.1,0.3,0.1,0.5c0.1,0.1,0.2,0.2,0.3,0.4s0.3,0.2,0.6,0.3l1.5,0.6
		c0.4,0.2,0.8,0.4,1,0.6c0.3,0.2,0.5,0.5,0.6,0.8s0.2,0.6,0.3,1c0,0.4,0.1,0.8,0.1,1.3c0,0.6-0.1,1.1-0.2,1.6
		c-0.1,0.5-0.3,0.9-0.6,1.3c-0.3,0.3-0.6,0.6-1,0.8c-0.4,0.2-1,0.3-1.6,0.3c-0.5,0-0.9-0.1-1.3-0.2c-0.4-0.2-0.8-0.4-1-0.7
		c-0.3-0.3-0.5-0.6-0.7-1c-0.2-0.4-0.3-0.8-0.3-1.3v-0.7h1.9v0.6c0,0.4,0.1,0.7,0.3,1c0.2,0.3,0.6,0.4,1.1,0.4c0.3,0,0.6,0,0.8-0.1
		c0.2-0.1,0.3-0.2,0.4-0.4s0.2-0.4,0.2-0.6c0-0.3,0-0.5,0-0.8c0-0.4,0-0.6,0-0.9c0-0.2-0.1-0.4-0.2-0.6c-0.1-0.1-0.2-0.3-0.3-0.3
		c-0.1-0.1-0.3-0.2-0.6-0.3l-1.4-0.6c-0.8-0.3-1.4-0.8-1.7-1.4s-0.4-1.3-0.4-2.1c0-0.5,0.1-1,0.2-1.4s0.3-0.8,0.6-1.2
		c0.3-0.3,0.6-0.6,1-0.8s0.9-0.3,1.5-0.3c0.5,0,0.9,0.1,1.3,0.3s0.7,0.4,1,0.7s0.5,0.6,0.7,1c0.2,0.4,0.2,0.7,0.2,1.1V157.1z"/>
</g>
<g>
	<path class="st12" d="M290.2,2.1h2.9c1.1,0,1.9,0.3,2.5,0.9c0.6,0.6,0.9,1.5,0.9,2.6V12c0,1.3-0.3,2.2-0.9,2.8
		c-0.6,0.6-1.5,0.9-2.7,0.9h-2.7V2.1z M292.2,13.8h0.9c0.5,0,0.9-0.1,1.2-0.4s0.3-0.7,0.3-1.3V5.6c0-0.5-0.1-0.9-0.3-1.2
		C294,4.1,293.6,4,293.1,4h-0.9V13.8z"/>
	<path class="st12" d="M298.4,2.1h1.9v13.5h-1.9V2.1z"/>
	<path class="st12" d="M308.5,6h-1.9V5.6c0-0.4-0.1-0.8-0.3-1.1S305.7,4,305.2,4c-0.3,0-0.5,0.1-0.7,0.2c-0.2,0.1-0.3,0.2-0.4,0.4
		c-0.1,0.2-0.2,0.3-0.2,0.6s-0.1,0.4-0.1,0.7c0,0.3,0,0.5,0,0.7c0,0.2,0.1,0.3,0.1,0.5c0.1,0.1,0.2,0.2,0.3,0.4s0.3,0.2,0.6,0.3
		l1.5,0.6c0.4,0.2,0.8,0.4,1,0.6c0.3,0.2,0.5,0.5,0.6,0.8c0.1,0.3,0.2,0.6,0.3,1c0.1,0.4,0.1,0.8,0.1,1.3c0,0.6-0.1,1.1-0.2,1.6
		c-0.1,0.5-0.3,0.9-0.6,1.3c-0.3,0.3-0.6,0.6-1,0.8c-0.4,0.2-1,0.3-1.6,0.3c-0.5,0-0.9-0.1-1.3-0.2c-0.4-0.2-0.8-0.4-1-0.7
		s-0.5-0.6-0.7-1s-0.3-0.8-0.3-1.3v-0.7h1.9v0.6c0,0.4,0.1,0.7,0.3,1c0.2,0.3,0.6,0.4,1.1,0.4c0.3,0,0.6,0,0.8-0.1
		c0.2-0.1,0.3-0.2,0.4-0.4c0.1-0.2,0.2-0.4,0.2-0.6c0-0.3,0-0.5,0-0.8c0-0.4,0-0.6,0-0.9c0-0.2-0.1-0.4-0.2-0.6s-0.2-0.3-0.3-0.3
		c-0.1-0.1-0.3-0.2-0.6-0.3L304,9.2c-0.8-0.3-1.4-0.8-1.7-1.4c-0.3-0.6-0.4-1.3-0.4-2.1c0-0.5,0.1-1,0.2-1.4
		c0.1-0.5,0.3-0.8,0.6-1.2c0.3-0.3,0.6-0.6,1-0.8c0.4-0.2,0.9-0.3,1.5-0.3c0.5,0,0.9,0.1,1.3,0.3s0.7,0.4,1,0.7
		c0.3,0.3,0.5,0.6,0.7,1c0.2,0.4,0.2,0.7,0.2,1.1V6z"/>
	<path class="st12" d="M309.9,2.1h5.8V4h-3.8v4h3.3v1.8h-3.3v4h3.8v1.9h-5.8V2.1z"/>
	<path class="st12" d="M316.9,2.1h1.9l2.9,8.2h0V2.1h1.9v13.5h-1.8l-3-8.1h0v8.1h-1.9V2.1z M323.5-0.8c-0.1,0.3-0.1,0.6-0.2,0.8
		c-0.1,0.3-0.2,0.5-0.4,0.7c-0.2,0.2-0.3,0.3-0.6,0.5c-0.2,0.1-0.5,0.2-0.8,0.2c-0.2,0-0.4,0-0.6-0.1c-0.3-0.1-0.5-0.2-0.8-0.3
		c-0.3-0.1-0.5-0.2-0.8-0.3c-0.2-0.1-0.4-0.1-0.5-0.1c-0.3,0-0.5,0.1-0.6,0.2c-0.1,0.2-0.2,0.4-0.2,0.6h-1c0.1-0.3,0.1-0.6,0.2-0.8
		c0.1-0.3,0.2-0.5,0.4-0.7c0.2-0.2,0.3-0.3,0.6-0.5s0.5-0.2,0.8-0.2c0.2,0,0.4,0,0.6,0.1c0.3,0.1,0.5,0.2,0.8,0.3
		c0.3,0.1,0.5,0.2,0.8,0.3c0.2,0.1,0.4,0.1,0.5,0.1c0.3,0,0.5-0.1,0.6-0.2c0.1-0.2,0.2-0.4,0.2-0.6H323.5z"/>
	<path class="st12" d="M325.3,5.3c0-0.5,0.1-1,0.3-1.4s0.4-0.8,0.8-1c0.3-0.3,0.7-0.5,1-0.6c0.4-0.1,0.8-0.2,1.2-0.2
		s0.8,0.1,1.2,0.2c0.4,0.1,0.7,0.3,1,0.6c0.3,0.3,0.6,0.6,0.8,1c0.2,0.4,0.3,0.9,0.3,1.4v7.1c0,0.6-0.1,1-0.3,1.5
		c-0.2,0.4-0.4,0.8-0.8,1c-0.3,0.3-0.7,0.5-1,0.6c-0.4,0.1-0.8,0.2-1.2,0.2s-0.8-0.1-1.2-0.2c-0.4-0.1-0.7-0.3-1-0.6
		c-0.3-0.3-0.6-0.6-0.8-1c-0.2-0.4-0.3-0.9-0.3-1.5V5.3z M327.2,12.5c0,0.5,0.1,0.8,0.4,1c0.3,0.2,0.6,0.3,0.9,0.3s0.7-0.1,0.9-0.3
		c0.3-0.2,0.4-0.6,0.4-1V5.3c0-0.5-0.1-0.8-0.4-1c-0.3-0.2-0.6-0.3-0.9-0.3s-0.7,0.1-0.9,0.3c-0.3,0.2-0.4,0.6-0.4,1V12.5z"/>
</g>
<g>
	<path class="st12" d="M372-107.2h1.9v13.5H372V-107.2z"/>
	<path class="st12" d="M375.8-107.2h1.9l2.5,7.2h0l2.5-7.2h1.9v13.5h-1.9v-8.2h0l-1.9,5.8h-1l-1.9-5.8h0v8.2h-1.9V-107.2z"/>
	<path class="st12" d="M386.4-107.2h2.9c0.5,0,1,0.1,1.4,0.2c0.4,0.1,0.8,0.4,1.1,0.7c0.3,0.4,0.6,0.8,0.7,1.2
		c0.1,0.5,0.2,1.1,0.2,1.9c0,0.6,0,1.1-0.1,1.5c-0.1,0.4-0.2,0.8-0.4,1.2c-0.3,0.4-0.6,0.8-1.1,1s-1,0.4-1.7,0.4h-1v5.3h-1.9V-107.2
		z M388.3-100.8h0.9c0.4,0,0.7-0.1,0.9-0.2c0.2-0.1,0.4-0.3,0.5-0.5c0.1-0.2,0.2-0.4,0.2-0.7c0-0.3,0-0.6,0-0.9c0-0.3,0-0.6,0-0.9
		c0-0.3-0.1-0.5-0.2-0.7c-0.1-0.2-0.2-0.4-0.4-0.5s-0.5-0.2-0.9-0.2h-1V-100.8z"/>
	<path class="st12" d="M394.1-107.2h1.9v11.6h3.8v1.9h-5.8V-107.2z"/>
	<path class="st12" d="M401.1-107.2h5.8v1.8h-3.8v4h3.3v1.8h-3.3v4h3.8v1.9h-5.8V-107.2z"/>
	<path class="st12" d="M408.1-107.2h1.9l2.5,7.2h0l2.5-7.2h1.9v13.5h-1.9v-8.2h0l-1.9,5.8h-1l-1.9-5.8h0v8.2h-1.9V-107.2z"/>
	<path class="st12" d="M418.7-107.2h5.8v1.8h-3.8v4h3.3v1.8h-3.3v4h3.8v1.9h-5.8V-107.2z"/>
	<path class="st12" d="M425.7-107.2h1.9l2.9,8.2h0v-8.2h1.9v13.5h-1.8l-3-8.1h0v8.1h-1.9V-107.2z"/>
	<path class="st12" d="M435.4-105.4h-2.2v-1.8h6.4v1.8h-2.2v11.7h-1.9V-105.4z"/>
	<path class="st12" d="M441.6-107.2h1.6l3,13.5h-1.9l-0.6-2.9h-2.6l-0.6,2.9h-1.9L441.6-107.2z M442.4-103.3L442.4-103.3l-1,4.9h1.9
		L442.4-103.3z"/>
	<path class="st12" d="M453.3-96.7c0,0.4-0.1,0.8-0.2,1.2s-0.4,0.7-0.7,1s-0.6,0.5-1,0.7s-0.8,0.3-1.2,0.3c-0.4,0-0.7-0.1-1.1-0.2
		s-0.7-0.3-1-0.5c-0.3-0.2-0.6-0.6-0.8-1c-0.2-0.4-0.3-0.9-0.3-1.5v-7.4c0-0.4,0.1-0.9,0.2-1.2c0.2-0.4,0.4-0.7,0.6-1s0.6-0.5,1-0.7
		c0.4-0.2,0.8-0.2,1.3-0.2c0.4,0,0.9,0.1,1.2,0.2c0.4,0.2,0.7,0.4,1,0.7s0.5,0.6,0.7,1c0.2,0.4,0.2,0.8,0.2,1.3v0.8h-1.9v-0.6
		c0-0.4-0.1-0.7-0.3-1c-0.2-0.3-0.5-0.4-0.9-0.4c-0.5,0-0.8,0.1-1,0.4c-0.2,0.3-0.2,0.7-0.2,1.1v6.9c0,0.4,0.1,0.7,0.3,1
		c0.2,0.3,0.5,0.4,0.9,0.4c0.1,0,0.3,0,0.4-0.1c0.1,0,0.3-0.1,0.4-0.2c0.1-0.1,0.2-0.2,0.3-0.4c0.1-0.2,0.1-0.4,0.1-0.7v-0.7h1.9
		V-96.7z"/>
	<path class="st12" d="M455-107.2h1.9v13.5H455V-107.2z"/>
	<path class="st12" d="M458.7-104c0-0.5,0.1-1,0.3-1.4s0.4-0.8,0.8-1c0.3-0.3,0.7-0.5,1-0.6c0.4-0.1,0.8-0.2,1.2-0.2
		s0.8,0.1,1.2,0.2c0.4,0.1,0.7,0.3,1,0.6c0.3,0.3,0.6,0.6,0.8,1c0.2,0.4,0.3,0.9,0.3,1.4v7.1c0,0.6-0.1,1-0.3,1.5
		c-0.2,0.4-0.4,0.8-0.8,1c-0.3,0.3-0.7,0.5-1,0.6c-0.4,0.1-0.8,0.2-1.2,0.2s-0.8-0.1-1.2-0.2c-0.4-0.1-0.7-0.3-1-0.6
		c-0.3-0.3-0.6-0.6-0.8-1c-0.2-0.4-0.3-0.9-0.3-1.5V-104z M460.6-96.9c0,0.5,0.1,0.8,0.4,1c0.3,0.2,0.6,0.3,0.9,0.3s0.7-0.1,0.9-0.3
		c0.3-0.2,0.4-0.6,0.4-1v-7.1c0-0.5-0.1-0.8-0.4-1c-0.3-0.2-0.6-0.3-0.9-0.3s-0.7,0.1-0.9,0.3c-0.3,0.2-0.4,0.6-0.4,1V-96.9z"/>
	<path class="st12" d="M466.8-107.2h1.9l2.9,8.2h0v-8.2h1.9v13.5h-1.8l-3-8.1h0v8.1h-1.9V-107.2z"/>
</g>
<g>
	<path class="st12" d="M544.9-108.5h2.9c0.5,0,1,0.1,1.4,0.2c0.4,0.1,0.8,0.4,1.1,0.7s0.6,0.8,0.7,1.2c0.1,0.5,0.2,1.1,0.2,1.9
		c0,0.6,0,1.1-0.1,1.5c-0.1,0.4-0.2,0.8-0.4,1.2c-0.3,0.4-0.6,0.8-1.1,1s-1,0.4-1.7,0.4h-1v5.3h-1.9V-108.5z M546.9-102.1h0.9
		c0.4,0,0.7-0.1,0.9-0.2c0.2-0.1,0.4-0.3,0.5-0.5s0.2-0.4,0.2-0.7c0-0.3,0-0.6,0-0.9c0-0.3,0-0.6,0-0.9c0-0.3-0.1-0.5-0.2-0.7
		s-0.2-0.4-0.4-0.5c-0.2-0.1-0.5-0.2-0.9-0.2h-1V-102.1z"/>
	<path class="st12" d="M552.6-108.5h3.1c2.3,0,3.4,1.3,3.4,4c0,0.8-0.1,1.5-0.4,2s-0.7,1-1.3,1.4l2.1,6.2h-2.1l-1.8-5.8h-1.2v5.8
		h-1.9V-108.5z M554.6-102.5h1.1c0.3,0,0.6,0,0.8-0.1c0.2-0.1,0.4-0.2,0.5-0.4c0.1-0.2,0.2-0.4,0.2-0.7s0.1-0.6,0.1-0.9
		s0-0.6-0.1-0.9s-0.1-0.5-0.2-0.7c-0.1-0.2-0.3-0.3-0.5-0.4c-0.2-0.1-0.5-0.1-0.9-0.1h-1V-102.5z"/>
	<path class="st12" d="M567-98c0,0.4-0.1,0.9-0.2,1.2s-0.4,0.7-0.7,1c-0.3,0.3-0.6,0.5-1,0.7c-0.4,0.2-0.8,0.2-1.2,0.2
		s-0.8-0.1-1.2-0.2c-0.4-0.2-0.7-0.4-1-0.7s-0.5-0.6-0.7-1c-0.2-0.4-0.2-0.8-0.2-1.2v-10.5h1.9v10.3c0,0.5,0.1,0.8,0.3,1.1
		c0.2,0.2,0.5,0.3,0.9,0.3s0.6-0.1,0.9-0.3c0.2-0.2,0.3-0.6,0.3-1.1v-10.3h1.9V-98z"/>
	<path class="st12" d="M568.8-108.5h5.8v1.8h-3.8v4h3.3v1.8h-3.3v4h3.8v1.9h-5.8V-108.5z"/>
	<path class="st12" d="M575.9-108.5h2.8c0.6,0,1.2,0.1,1.6,0.3c0.4,0.2,0.8,0.4,1.1,0.8c0.3,0.3,0.5,0.7,0.6,1.1
		c0.1,0.4,0.2,0.8,0.2,1.3v0.5c0,0.4,0,0.7-0.1,0.9c-0.1,0.3-0.1,0.5-0.3,0.7c-0.1,0.2-0.3,0.4-0.4,0.5c-0.2,0.1-0.4,0.3-0.6,0.4
		c0.5,0.2,0.8,0.5,1,1c0.2,0.4,0.3,1,0.3,1.7v0.8c0,1.2-0.3,2.1-0.9,2.7c-0.6,0.6-1.5,1-2.8,1h-2.6V-108.5z M577.8-103h0.9
		c0.6,0,1.1-0.2,1.3-0.5c0.2-0.3,0.3-0.8,0.3-1.4c0-0.6-0.1-1.1-0.4-1.4c-0.2-0.3-0.7-0.5-1.3-0.5h-0.8V-103z M577.8-96.9h0.8
		c0.4,0,0.7-0.1,0.9-0.2c0.2-0.1,0.4-0.3,0.5-0.5c0.1-0.2,0.2-0.4,0.2-0.7s0-0.6,0-0.9c0-0.3,0-0.6-0.1-0.9c0-0.3-0.1-0.5-0.2-0.6
		c-0.1-0.2-0.3-0.3-0.5-0.4c-0.2-0.1-0.5-0.1-0.9-0.1h-0.9V-96.9z"/>
	<path class="st12" d="M585.9-108.5h1.6l3,13.5h-1.9l-0.6-2.9h-2.6l-0.6,2.9h-1.9L585.9-108.5z M586.7-104.6L586.7-104.6l-1,4.9h1.9
		L586.7-104.6z"/>
	<path class="st12" d="M597.7-104.6h-1.9v-0.4c0-0.4-0.1-0.8-0.3-1.1s-0.6-0.5-1.1-0.5c-0.3,0-0.5,0.1-0.7,0.2s-0.3,0.2-0.4,0.4
		s-0.2,0.3-0.2,0.6s-0.1,0.4-0.1,0.7c0,0.3,0,0.5,0,0.7c0,0.2,0.1,0.3,0.1,0.5c0.1,0.1,0.2,0.2,0.3,0.4s0.3,0.2,0.6,0.3l1.5,0.6
		c0.4,0.2,0.8,0.4,1,0.6c0.3,0.2,0.5,0.5,0.6,0.8s0.2,0.6,0.3,1c0,0.4,0.1,0.8,0.1,1.3c0,0.6-0.1,1.1-0.2,1.6
		c-0.1,0.5-0.3,0.9-0.6,1.3c-0.3,0.3-0.6,0.6-1,0.8c-0.4,0.2-1,0.3-1.6,0.3c-0.5,0-0.9-0.1-1.3-0.2c-0.4-0.2-0.8-0.4-1-0.7
		c-0.3-0.3-0.5-0.6-0.7-1c-0.2-0.4-0.3-0.8-0.3-1.3v-0.7h1.9v0.6c0,0.4,0.1,0.7,0.3,1c0.2,0.3,0.6,0.4,1.1,0.4c0.3,0,0.6,0,0.8-0.1
		c0.2-0.1,0.3-0.2,0.4-0.4s0.2-0.4,0.2-0.6c0-0.3,0-0.5,0-0.8c0-0.4,0-0.6,0-0.9c0-0.2-0.1-0.4-0.2-0.6c-0.1-0.1-0.2-0.3-0.3-0.3
		c-0.1-0.1-0.3-0.2-0.6-0.3l-1.4-0.6c-0.8-0.3-1.4-0.8-1.7-1.4s-0.4-1.3-0.4-2.1c0-0.5,0.1-1,0.2-1.4s0.3-0.8,0.6-1.2
		c0.3-0.3,0.6-0.6,1-0.8s0.9-0.3,1.5-0.3c0.5,0,0.9,0.1,1.3,0.3s0.7,0.4,1,0.7s0.5,0.6,0.7,1c0.2,0.4,0.2,0.7,0.2,1.1V-104.6z"/>
</g>
<g>
	<path class="st12" d="M652.7-5.9h1.6l3,13.5h-1.9l-0.6-2.9h-2.6l-0.6,2.9h-1.9L652.7-5.9z M653.5-2L653.5-2l-1,4.9h1.9L653.5-2z"/>
	<path class="st12" d="M664.5,4.7c0,0.4-0.1,0.8-0.2,1.2s-0.4,0.7-0.7,1c-0.3,0.3-0.6,0.5-1,0.7c-0.4,0.2-0.8,0.3-1.2,0.3
		c-0.4,0-0.7-0.1-1.1-0.2c-0.4-0.1-0.7-0.3-1-0.5s-0.6-0.6-0.8-1s-0.3-0.9-0.3-1.5v-7.4c0-0.4,0.1-0.9,0.2-1.2
		c0.2-0.4,0.4-0.7,0.6-1c0.3-0.3,0.6-0.5,1-0.7c0.4-0.2,0.8-0.2,1.3-0.2c0.4,0,0.9,0.1,1.2,0.2s0.7,0.4,1,0.7c0.3,0.3,0.5,0.6,0.7,1
		c0.2,0.4,0.2,0.8,0.2,1.3V-2h-1.9v-0.6c0-0.4-0.1-0.7-0.3-1C662-3.9,661.7-4,661.3-4c-0.5,0-0.8,0.1-1,0.4
		c-0.2,0.3-0.2,0.7-0.2,1.1v6.9c0,0.4,0.1,0.7,0.3,1c0.2,0.3,0.5,0.4,0.9,0.4c0.1,0,0.3,0,0.4-0.1c0.1,0,0.3-0.1,0.4-0.2
		c0.1-0.1,0.2-0.2,0.3-0.4c0.1-0.2,0.1-0.4,0.1-0.7V3.8h1.9V4.7z"/>
	<path class="st12" d="M666-5.9h5.8V-4H668v4h3.3v1.8H668v4h3.8v1.9H666V-5.9z"/>
	<path class="st12" d="M673.1-5.9h2.9c0.5,0,1,0.1,1.4,0.2c0.4,0.1,0.8,0.4,1.1,0.7c0.3,0.4,0.6,0.8,0.7,1.2
		c0.1,0.5,0.2,1.1,0.2,1.9c0,0.6,0,1.1-0.1,1.5c-0.1,0.4-0.2,0.8-0.4,1.2c-0.3,0.4-0.6,0.8-1.1,1s-1,0.4-1.7,0.4h-1v5.3h-1.9V-5.9z
		 M675,0.6h0.9c0.4,0,0.7-0.1,0.9-0.2c0.2-0.1,0.4-0.3,0.5-0.5c0.1-0.2,0.2-0.4,0.2-0.7c0-0.3,0-0.6,0-0.9c0-0.3,0-0.6,0-0.9
		c0-0.3-0.1-0.5-0.2-0.7c-0.1-0.2-0.2-0.4-0.4-0.5C676.7-4,676.4-4,676-4h-1V0.6z"/>
	<path class="st12" d="M682.1-4h-2.2v-1.8h6.4V-4H684V7.7h-1.9V-4z"/>
	<path class="st12" d="M688.2-5.9h1.6l3,13.5h-1.9l-0.6-2.9h-2.6l-0.6,2.9h-1.9L688.2-5.9z M689-2L689-2l-1,4.9h1.9L689-2z"/>
	<path class="st12" d="M700,4.7c0,0.4-0.1,0.8-0.2,1.2s-0.4,0.7-0.7,1s-0.6,0.5-1,0.7s-0.8,0.3-1.2,0.3c-0.4,0-0.7-0.1-1.1-0.2
		s-0.7-0.3-1-0.5c-0.3-0.2-0.6-0.6-0.8-1c-0.2-0.4-0.3-0.9-0.3-1.5v-7.4c0-0.4,0.1-0.9,0.2-1.2c0.2-0.4,0.4-0.7,0.6-1s0.6-0.5,1-0.7
		c0.4-0.2,0.8-0.2,1.3-0.2c0.4,0,0.9,0.1,1.2,0.2c0.4,0.2,0.7,0.4,1,0.7s0.5,0.6,0.7,1c0.2,0.4,0.2,0.8,0.2,1.3V-2H698v-0.6
		c0-0.4-0.1-0.7-0.3-1c-0.2-0.3-0.5-0.4-0.9-0.4c-0.5,0-0.8,0.1-1,0.4c-0.2,0.3-0.2,0.7-0.2,1.1v6.9c0,0.4,0.1,0.7,0.3,1
		c0.2,0.3,0.5,0.4,0.9,0.4c0.1,0,0.3,0,0.4-0.1c0.1,0,0.3-0.1,0.4-0.2c0.1-0.1,0.2-0.2,0.3-0.4C698,5,698,4.7,698,4.5V3.8h1.9V4.7z"
		/>
	<path class="st12" d="M701.6-5.9h1.9V7.7h-1.9V-5.9z"/>
	<path class="st12" d="M705.3-2.7c0-0.5,0.1-1,0.3-1.4s0.4-0.8,0.8-1c0.3-0.3,0.7-0.5,1-0.6c0.4-0.1,0.8-0.2,1.2-0.2
		s0.8,0.1,1.2,0.2c0.4,0.1,0.7,0.3,1,0.6c0.3,0.3,0.6,0.6,0.8,1c0.2,0.4,0.3,0.9,0.3,1.4v7.1c0,0.6-0.1,1-0.3,1.5
		c-0.2,0.4-0.4,0.8-0.8,1c-0.3,0.3-0.7,0.5-1,0.6c-0.4,0.1-0.8,0.2-1.2,0.2s-0.8-0.1-1.2-0.2c-0.4-0.1-0.7-0.3-1-0.6
		c-0.3-0.3-0.6-0.6-0.8-1c-0.2-0.4-0.3-0.9-0.3-1.5V-2.7z M707.2,4.5c0,0.5,0.1,0.8,0.4,1c0.3,0.2,0.6,0.3,0.9,0.3s0.7-0.1,0.9-0.3
		c0.3-0.2,0.4-0.6,0.4-1v-7.1c0-0.5-0.1-0.8-0.4-1c-0.3-0.2-0.6-0.3-0.9-0.3s-0.7,0.1-0.9,0.3c-0.3,0.2-0.4,0.6-0.4,1V4.5z"/>
	<path class="st12" d="M713.4-5.9h1.9l2.9,8.2h0v-8.2h1.9V7.7h-1.8l-3-8.1h0v8.1h-1.9V-5.9z"/>
</g>
<g>
	<path class="st12" d="M650.5,138.8h1.9v11.6h3.8v1.9h-5.8V138.8z"/>
	<path class="st12" d="M659.7,138.8h1.6l3,13.5h-1.9l-0.6-2.9h-2.6l-0.6,2.9h-1.9L659.7,138.8z M660.5,142.7L660.5,142.7l-1,4.9h1.9
		L660.5,142.7z"/>
	<path class="st12" d="M665.2,138.8h1.9l2.9,8.2h0v-8.2h1.9v13.5h-1.8l-3-8.1h0v8.1h-1.9V138.8z"/>
	<path class="st12" d="M673.1,150.6l3.6-10h-3.5v-1.8h5.6v1.5l-3.7,10.2h3.7v1.8h-5.8V150.6z"/>
	<path class="st12" d="M682.2,138.8h1.6l3,13.5h-1.9l-0.6-2.9h-2.6l-0.6,2.9h-1.9L682.2,138.8z M683,142.7L683,142.7l-1,4.9h1.9
		L683,142.7z"/>
	<path class="st12" d="M687.8,138.8h1.9l2.5,7.2h0l2.5-7.2h1.9v13.5h-1.9v-8.2h0l-1.9,5.8h-1l-1.9-5.8h0v8.2h-1.9V138.8z"/>
	<path class="st12" d="M698.4,138.8h1.9v13.5h-1.9V138.8z"/>
	<path class="st12" d="M702.2,138.8h5.8v1.8h-3.8v4h3.3v1.8h-3.3v4h3.8v1.9h-5.8V138.8z"/>
	<path class="st12" d="M709.2,138.8h1.9l2.9,8.2h0v-8.2h1.9v13.5h-1.8l-3-8.1h0v8.1h-1.9V138.8z"/>
	<path class="st12" d="M719,140.6h-2.2v-1.8h6.4v1.8h-2.2v11.7H719V140.6z"/>
	<path class="st12" d="M723.7,142c0-0.5,0.1-1,0.3-1.4s0.4-0.8,0.8-1c0.3-0.3,0.7-0.5,1-0.6c0.4-0.1,0.8-0.2,1.2-0.2
		s0.8,0.1,1.2,0.2c0.4,0.1,0.7,0.3,1,0.6c0.3,0.3,0.6,0.6,0.8,1c0.2,0.4,0.3,0.9,0.3,1.4v7.1c0,0.6-0.1,1-0.3,1.5
		c-0.2,0.4-0.4,0.8-0.8,1c-0.3,0.3-0.7,0.5-1,0.6c-0.4,0.1-0.8,0.2-1.2,0.2s-0.8-0.1-1.2-0.2c-0.4-0.1-0.7-0.3-1-0.6
		c-0.3-0.3-0.6-0.6-0.8-1c-0.2-0.4-0.3-0.9-0.3-1.5V142z M725.6,149.1c0,0.5,0.1,0.8,0.4,1c0.3,0.2,0.6,0.3,0.9,0.3s0.7-0.1,0.9-0.3
		c0.3-0.2,0.4-0.6,0.4-1V142c0-0.5-0.1-0.8-0.4-1c-0.3-0.2-0.6-0.3-0.9-0.3s-0.7,0.1-0.9,0.3c-0.3,0.2-0.4,0.6-0.4,1V149.1z"/>
</g>
<g>
	<path class="st13" d="M543.6,48.6c-1.3-2.6-4.6-4.7-7.5-4.7h-30.9c-2.9,0-7.5,0-10.4,0h-30.9c-2.9,0-6.2,2.1-7.5,4.7L443,76.1
		c-1.3,2.6-0.6,6.3,1.4,8.3l51.9,51.1c2,2,5.4,2,7.4,0l51.9-51.1c2-2,2.7-5.8,1.4-8.3L543.6,48.6z"/>
	<g>
		<path class="st14" d="M530.3,57.7c-3.2-3-6.4-6.1-9.7-9c-0.1-0.1-0.3-0.2-0.4-0.4L468,86l7.9,11L530.3,57.7z"/>
	</g>
	<g>
		<path class="st14" d="M539.1,65.8c-1.2-1.1-2.4-2.2-3.6-3.3l-60.6,43.8l3,4.2l61.5-44.4C539.3,66,539.2,65.9,539.1,65.8z"/>
	</g>
	<path class="st15" d="M557.3,81.5c0.5-1.8,0.5-3.8-0.3-5.4l-13.4-27.5c-0.6-1.3-1.7-2.4-3.1-3.3l-12.2,35.2L557.3,81.5z"/>
	<path class="st15" d="M471.6,80.6L500,43.9c-1.9,0-3.8,0-5.2,0h-30.9c-1.5,0-3.2,0.6-4.6,1.6L471.6,80.6z"/>
	<path class="st16" d="M540.8,45.5c-1.4-1-3.1-1.6-4.6-1.6h-30.9c-1.4,0-3.3,0-5.2,0l28.4,36.7L540.8,45.5z"/>
	<path class="st17" d="M459.4,45.4c-1.3,0.8-2.4,2-3,3.2L443,76.1c-0.7,1.4-0.8,3.1-0.4,4.7l29.4,0.8L459.4,45.4z"/>
	<path class="st18" d="M459.4,45.4c-1.3,0.8-2.4,2-3,3.2L443,76.1c-0.7,1.4-0.8,3.1-0.4,4.7l29.4,0.8L459.4,45.4z"/>
	<path class="st19" d="M444.4,84.4l51.9,51.1c0.7,0.7,1.7,1.2,2.6,1.4l-27.3-56.3h-29.1C442.7,82.1,443.4,83.5,444.4,84.4z"/>
	<path class="st17" d="M501.1,136.9c1-0.2,1.9-0.7,2.6-1.4l51.9-51.1c1-1,1.6-2.4,1.9-3.8h-29.1L501.1,136.9z"/>
	<path class="st18" d="M501.1,136.9c1-0.2,1.9-0.7,2.6-1.4l51.9-51.1c1-1,1.6-2.4,1.9-3.8h-29.1L501.1,136.9z"/>
	<path class="st20" d="M471.6,80.6l27.3,56.3c0.7,0.2,1.5,0.2,2.2,0l27.3-56.3H471.6z"/>
	<path class="st12" d="M473.5,64.1c-5.1,1.6-6.4,3-8,8c-1.6-5.1-3-6.4-8-8c5.1-1.6,6.4-3,8-8C467.2,61.2,468.5,62.5,473.5,64.1z"/>
	<path class="st12" d="M487.3,52.7c-2.7,0.9-3.5,1.6-4.4,4.4c-0.9-2.7-1.6-3.5-4.4-4.3c2.7-0.9,3.5-1.6,4.4-4.4
		C483.8,51.1,484.5,51.8,487.3,52.7z"/>
	<path class="st12" d="M489.3,103.4c-2.7,0.9-3.5,1.6-4.4,4.4c-0.9-2.7-1.6-3.5-4.4-4.4c2.7-0.9,3.5-1.6,4.4-4.3
		C485.9,101.8,486.6,102.5,489.3,103.4z"/>
</g>
</svg>
