<svg id="Livello_1" data-name="Livello 1" xmlns="http://www.w3.org/2000/svg" viewBox="0 0 16 12.73"><path d="M15.89,9.59a.33.33,0,0,1-.21.11h0a.31.31,0,0,1-.21-.07L8.57,3.91,1.71,9.63a.34.34,0,0,1-.24.07.33.33,0,0,1-.21-.11L.65,8.86a.32.32,0,0,1,0-.45L7.82,2.47a1.22,1.22,0,0,1,1.51,0l2.42,2V2.56a.31.31,0,0,1,.32-.32H14a.31.31,0,0,1,.32.32v4l2.17,1.81a.32.32,0,0,1,0,.45Zm-1.6,4.71a.64.64,0,0,1-.64.64H9.85V11.13H7.3v3.81H3.49a.64.64,0,0,1-.64-.64V9.54s0,0,0-.06l5.71-4.7,5.71,4.7a.12.12,0,0,1,0,.06Z" transform="translate(-0.57 -2.21)"/></svg>