<?xml version="1.0" encoding="utf-8"?>
<!-- Generator: Adobe Illustrator 19.0.0, SVG Export Plug-In . SVG Version: 6.00 Build 0)  -->
<svg version="1.1" id="Layer_5" xmlns="http://www.w3.org/2000/svg" xmlns:xlink="http://www.w3.org/1999/xlink" x="0px" y="0px"
	 viewBox="0 0 527.8 759.9" style="enable-background:new 0 0 527.8 759.9;" xml:space="preserve">
<style type="text/css">
	.st0{opacity:0.51;fill:#5C4846;}
	.st1{fill:#FEF0DF;}
	.st2{fill:#6AC37F;}
	.st3{fill:#9D4838;}
	.st4{fill:#F79E88;}
	.st5{fill:none;stroke:#F79E88;stroke-width:2;stroke-miterlimit:10;}
	.st6{fill:#FFFFFF;}
	.st7{font-family:'PlayfairDisplay-Bold';}
	.st8{font-size:62.6864px;}
	.st9{font-size:46.0048px;}
</style>
<polygon class="st0" points="42.3,111.9 60.9,636.9 89.9,636.9 54.4,111.9 "/>
<polygon class="st0" points="438.2,96.2 514.6,130.8 443.9,636.9 495.4,682.4 398.5,688.5 "/>
<polygon class="st1" points="79.8,636.9 42.4,82.9 358.9,82.9 323.5,636.9 "/>
<polygon class="st2" points="60.9,111.9 329.9,111.9 302.9,612.9 98.2,612.9 "/>
<g>
	<path class="st3" d="M423.8,370.2c0,0,12.3,12.6,22.7,4.3s0,0,0,0l0,10c0,0-18.4-5.1-22.6,6.5C419.2,403.9,423.8,370.2,423.8,370.2
		"/>
	<path class="st3" d="M447.3,409.2c0,0-8.2-42.1,0-59.7C447.3,349.5,468,384.8,447.3,409.2z"/>
</g>
<polygon class="st1" points="329.9,115.7 423.2,28.9 387.2,698.4 303.1,612.9 "/>
<polygon class="st4" points="422.9,28.9 443.9,28.9 409.4,698.9 386.9,698.9 "/>
<polygon class="st5" points="341.5,128.2 403,74.7 386.9,378.3 329.9,359.9 "/>
<polygon class="st5" points="329.9,378.3 387.1,396.2 376.2,672.9 315.2,612.9 "/>
<text transform="matrix(1 0 0 1 110.9946 233.9882)"><tspan x="0" y="0" class="st6 st7 st8">H</tspan><tspan x="50.1" y="0" class="st6 st7 st9">az</tspan><tspan x="0" y="73.1" class="st6 st7 st8">q</tspan><tspan x="36.7" y="73.1" class="st6 st7 st9">ue </tspan><tspan x="98.4" y="73.1" class="st6 st7 st8">t</tspan><tspan x="120.5" y="73.1" class="st6 st7 st9">us </tspan><tspan x="0" y="146.3" class="st6 st7 st8">s</tspan><tspan x="29" y="146.3" class="st6 st7 st9">ueños </tspan><tspan x="0" y="219.4" class="st6 st7 st8">s</tspan><tspan x="29" y="219.4" class="st6 st7 st9">ucedan</tspan></text>
</svg>
