<?xml version="1.0" encoding="utf-8"?>
<!-- Generator: Adobe Illustrator 19.0.0, SVG Export Plug-In . SVG Version: 6.00 Build 0)  -->
<svg version="1.1" id="Objects" xmlns="http://www.w3.org/2000/svg" xmlns:xlink="http://www.w3.org/1999/xlink" x="0px" y="0px"
	 viewBox="0 0 800 800" style="enable-background:new 0 0 800 800;" xml:space="preserve">
<style type="text/css">
	.st0{fill:#FFFFFF;}
</style>
<g>
	<g>
		<path class="st0" d="M252.8,373c-56.7,68.3-56.7,167.7,0,236l26.9-26.9c-10.9-13.9-19-29.2-24.3-45.3l36.3,20.9l57.9-33.4l0-66.8
			l-57.9-33.4l-36.3,20.9c5.3-16.1,13.3-31.4,24.3-45.3L252.8,373z"/>
		<circle class="st0" cx="150.5" cy="491" r="50.5"/>
	</g>
	<g>
		<path class="st0" d="M538.1,373l-26.9,26.9c9.4,11.9,16.7,25,21.9,38.7l-24.9-14.4l-57.9,33.4l0,66.8l57.9,33.4l24.9-14.4
			c-5.2,13.7-12.5,26.8-22,38.7l26.9,26.9C594.7,540.7,594.7,441.3,538.1,373z"/>
		<circle class="st0" cx="649.5" cy="491" r="50.5"/>
	</g>
	<g>
		<path class="st0" d="M304.3,375.3c14.5-11.5,30.7-19.8,47.6-25l-18.7,32.5l33.4,57.9l66.8,0l33.4-57.9l-16.4-28.4
			c12.8,5.1,25,12.1,36.2,21l26.9-26.9c-68.3-56.7-167.7-56.7-236,0L304.3,375.3z"/>
		<circle class="st0" cx="400" cy="241.5" r="50.5"/>
	</g>
</g>
<g>
	<path class="st0" d="M450.3,602.4v6.2c0,0,8,0,11.2,0c2.3,0,6.2-1.7,6.4-6.4c0-0.2,0-2.2,0-2.4c0-4-3.3-6.4-6.4-6.4
		c-1.4,0-5.6,0-5.6,0v-2.9h11.1v-6.2c0,0-7.6,0-10.6,0c-2.7,0-6.4,2.3-6.4,6.5c0,0.4,0,1.8,0,2.2c0,4.2,3.6,6.4,6.4,6.4
		c7.7,0-1.9,0,5.3,0c0,3,0,3,0,3"/>
	<path class="st0" d="M390.2,600.9c0,0,6-0.5,6-8.3c0-7.7-7.3-8.5-7.3-8.5h-13.1v24.4h6.6v-5.9l5.7,5.9h9.7L390.2,600.9z
		 M387.7,595.9h-5.2v-5.6h5.3c0,0,1.5,0.5,1.5,2.8S387.7,595.9,387.7,595.9z"/>
	<path class="st0" d="M412.5,584.3c-1.7,0-1.9,0-6.7,0c-4.8,0-6.4,4.3-6.4,6.4c0,4.5,0,17.9,0,17.9h6.7v-4.3h6.3v4.3h6.5
		c0,0,0-13.2,0-17.9C418.8,585.5,414.1,584.3,412.5,584.3z M412.4,597.4H406v-5.9c0,0,0-1.3,2.1-1.3c1.9,0,0.3,0,2.3,0
		c1.9,0,1.9,1.3,1.9,1.3L412.4,597.4L412.4,597.4z"/>
	<rect x="421.9" y="584.3" class="st0" width="7" height="24.3"/>
	<polygon class="st0" points="438.6,602.3 438.6,584.3 431.7,584.3 431.7,602.3 431.7,608.6 438.6,608.6 448,608.6 448,602.3 	"/>
	<path class="st0" d="M334.6,608.6h27.1c0,0-5.2-23.6,12-33.2c3.7-1.8,15.6-8.6,35.1,5.8c0.6-0.5,1.2-0.9,1.2-0.9
		s-17.8-17.8-37.7-15.8c-10,0.9-22.2,10-29.4,22S334.6,608.6,334.6,608.6z"/>
	<path class="st0" d="M334.6,608.6h27.1c0,0-5.2-23.6,12-33.2c3.7-1.8,15.6-8.6,35.1,5.8c0.6-0.5,1.2-0.9,1.2-0.9
		s-17.8-17.8-37.7-15.8c-10,0.9-22.2,10-29.4,22S334.6,608.6,334.6,608.6z"/>
	<path class="st0" d="M334.6,608.6h27.1c0,0-5.2-23.6,12-33.2c3.7-1.8,15.6-8.6,35.1,5.8c0.6-0.5,1.2-0.9,1.2-0.9
		s-17.8-17.8-37.7-15.8c-10,0.9-22.3,10-29.5,22S334.6,608.6,334.6,608.6z"/>
	<path class="st0" d="M391,566.4l0.1-2.3c-0.3-0.2-1.2-0.6-3.3-1.2l-0.1,2.3C388.8,565.6,389.9,566,391,566.4z"/>
	<path class="st0" d="M387.7,573.7l-0.1,2.2c1.1,0,2.3,0.2,3.4,0.4l0.1-2.1C389.9,573.9,388.8,573.7,387.7,573.7z"/>
	<path class="st0" d="M375,563c0.1,0,0.2,0,0.3,0l-0.7-2.1c-1.1,0-2.2,0.1-3.3,0.2l0.7,2C373,563,374,563,375,563z"/>
	<path class="st0" d="M376.7,575.6l0.8,2.4c1-0.5,2-0.9,3-1.2l-0.8-2.3C378.5,574.8,377.5,575.2,376.7,575.6z"/>
	<path class="st0" d="M361.1,566.6l-1.5-2.4c-0.9,0.4-1.7,0.9-2.7,1.5l1.6,2.4C359.4,567.5,360.2,567,361.1,566.6z"/>
	<path class="st0" d="M368.1,582l1.6,2.5c0.6-0.9,1.3-1.6,2-2.4l-1.5-2.3C369.5,580.4,368.8,581.2,368.1,582z"/>
	<path class="st0" d="M363.2,593l2.8,2.2c0.1-1.3,0.4-2.7,0.7-4l-2.5-2C363.8,590.5,363.5,591.8,363.2,593z"/>
	<path class="st0" d="M348.2,576.8l-2.4-2.1c-0.9,0.9-1.7,1.7-2.5,2.6l2.6,2.3C346.6,578.5,347.3,577.6,348.2,576.8z"/>
	<path class="st0" d="M337.8,592.1l-3.9-1.4c-0.7,1.5-1.4,3.2-1.7,4.1l3.9,1.4C336.5,595,337.3,593.3,337.8,592.1z"/>
	<path class="st0" d="M362.7,601.7c0.1,1.8,0.2,3.3,0.4,4.3l4.1,1.5c-0.3-1.3-0.6-2.8-0.8-4.5L362.7,601.7z"/>
</g>
<g>
	<path class="st0" d="M221.8,683.4c1.5,1.7,2.3,3.9,2.3,6.4c0,2.3-0.6,4.3-1.8,6.1c-1.2,1.8-2.9,3.1-5.1,4.1c-2.2,1-4.8,1.5-7.7,1.5
		c-2.7,0-5.4-0.4-8-1.3c-2.6-0.8-4.8-2-6.6-3.4l4.1-7.8c3.1,2.6,6.3,3.9,9.6,3.9c2.8,0,4.2-1,4.2-3.1c0-1-0.3-1.8-1-2.3
		c-0.7-0.6-1.8-0.8-3.2-0.8H202v-6l6.8-6.5h-12v-8.3h25.7v6.5l-8.2,7.2l1.6,0.3C218.3,680.6,220.3,681.7,221.8,683.4z"/>
	<path class="st0" d="M263.2,701l-1.8-5h-13.1l-1.8,5h-11.9l14.8-35h11.9l14.2,35H263.2z M251.3,687.8h7.3l-3.6-10.2L251.3,687.8z"
		/>
	<path class="st0" d="M301.1,666h10.5v35h-9.7l-13.8-17.9V701h-10.5v-35h9.7l13.8,18V666z M303.4,661.4c-0.9,1.4-2.2,2.1-4.1,2.1
		c-0.8,0-1.6-0.1-2.3-0.3s-1.5-0.6-2.3-1c-0.1,0-0.4-0.2-0.9-0.4s-0.9-0.3-1.2-0.3c-0.5,0-0.8,0.2-1,0.5c-0.2,0.3-0.4,0.8-0.4,1.5
		h-5.9c0-3.1,0.4-5.3,1.3-6.8s2.2-2.2,4.1-2.2c0.8,0,1.6,0.1,2.3,0.4s1.5,0.6,2.3,1c0.9,0.5,1.6,0.7,2,0.7c0.5,0,0.9-0.1,1.1-0.5
		c0.2-0.3,0.4-0.8,0.4-1.4h5.8C304.7,657.8,304.2,660,303.4,661.4z"/>
	<path class="st0" d="M344,667.5c2.9,1.6,5.2,3.7,6.9,6.5c1.6,2.8,2.5,5.9,2.5,9.4c0,3.5-0.8,6.6-2.5,9.4c-1.7,2.8-3.9,5-6.9,6.6
		c-2.9,1.6-6.2,2.4-9.9,2.4c-3.7,0-7-0.8-9.9-2.4s-5.2-3.8-6.9-6.6c-1.6-2.8-2.5-5.9-2.5-9.4s0.8-6.6,2.5-9.4
		c1.7-2.8,3.9-4.9,6.9-6.5c2.9-1.6,6.2-2.3,9.9-2.3C337.8,665.2,341.1,666,344,667.5z M330.5,676c-1.1,0.8-2.1,1.8-2.8,3.1
		c-0.7,1.3-1,2.8-1,4.4c0,1.6,0.3,3.1,1,4.4c0.7,1.3,1.6,2.4,2.8,3.1c1.2,0.8,2.4,1.2,3.7,1.2c1.3,0,2.5-0.4,3.6-1.1
		c1.1-0.8,2-1.8,2.6-3.1c0.6-1.3,0.9-2.8,0.9-4.5c0-1.6-0.3-3.1-0.9-4.4c-0.6-1.3-1.5-2.3-2.6-3.1c-1.1-0.7-2.3-1.1-3.6-1.1
		C332.9,674.8,331.7,675.2,330.5,676z"/>
	<path class="st0" d="M376.5,675.2c-2.3-0.8-4.2-1.2-5.7-1.2c-1.4,0-2.2,0.5-2.2,1.5c0,0.8,0.5,1.4,1.4,1.8c0.9,0.4,2.4,0.9,4.4,1.5
		c2.5,0.7,4.6,1.4,6.2,2.1c1.6,0.7,3.1,1.8,4.3,3.3c1.2,1.5,1.9,3.5,1.9,6c0,2.5-0.7,4.7-2,6.4s-3.1,3-5.3,3.8
		c-2.2,0.8-4.7,1.2-7.5,1.2c-3.1,0-6.2-0.5-9.4-1.5c-3.2-1-5.9-2.4-8.2-4.2l4.3-8.8c1.8,1.5,4,2.8,6.6,3.9c2.7,1.1,4.9,1.6,6.7,1.6
		c0.9,0,1.5-0.2,2-0.5s0.8-0.8,0.8-1.5c0-0.8-0.5-1.4-1.4-1.9s-2.4-0.9-4.5-1.4c-2.5-0.6-4.5-1.3-6.2-2c-1.7-0.7-3.1-1.7-4.3-3.2
		c-1.2-1.4-1.8-3.3-1.8-5.8c0-2.3,0.6-4.4,1.8-6.1s3-3.1,5.2-4c2.3-0.9,4.9-1.4,7.9-1.4c2.7,0,5.5,0.4,8.2,1.2s5.1,1.8,7.1,3
		l-4.2,8.8C381,677,378.8,676,376.5,675.2z"/>
	<path class="st0" d="M420.2,698.2c-2.4,2.2-5.6,3.2-9.7,3.2c-5.4,0-10-2-13.7-6.1l5.3-7.5c1.3,1.3,2.6,2.3,3.9,2.9
		c1.3,0.7,2.4,1,3.4,1c0.8,0,1.5-0.2,1.9-0.8s0.7-1.2,0.7-2.2v-13.8h-11.9V666h23.6v23.2C423.8,693,422.6,696.1,420.2,698.2z"/>
	<path class="st0" d="M440.8,690.5c1,1.1,2.2,1.6,3.6,1.6c1.4,0,2.5-0.5,3.4-1.6c0.9-1,1.4-2.4,1.4-4.1V666h11.6v20.5
		c0,3.1-0.7,5.8-2,8.1c-1.4,2.3-3.3,4.1-5.7,5.4c-2.5,1.3-5.3,1.9-8.6,1.9c-3.3,0-6.2-0.6-8.7-1.9c-2.5-1.3-4.5-3.1-5.8-5.4
		c-1.4-2.3-2.1-5-2.1-8.1V666h11.6v20.5C439.3,688.1,439.8,689.5,440.8,690.5z"/>
	<path class="st0" d="M488.8,666h10.5v35h-9.7l-13.8-17.9V701h-10.5v-35h9.7l13.8,18V666z"/>
	<path class="st0" d="M502.1,666h31.5v9.1h-10V701H512v-25.9h-10V666z"/>
	<path class="st0" d="M562.3,667.5c2.9,1.6,5.2,3.7,6.9,6.5c1.6,2.8,2.5,5.9,2.5,9.4c0,3.5-0.8,6.6-2.5,9.4c-1.7,2.8-3.9,5-6.9,6.6
		c-2.9,1.6-6.2,2.4-9.9,2.4c-3.7,0-7-0.8-9.9-2.4s-5.2-3.8-6.9-6.6c-1.6-2.8-2.5-5.9-2.5-9.4s0.8-6.6,2.5-9.4
		c1.7-2.8,3.9-4.9,6.9-6.5c2.9-1.6,6.2-2.3,9.9-2.3C556.1,665.2,559.4,666,562.3,667.5z M548.8,676c-1.1,0.8-2.1,1.8-2.8,3.1
		c-0.7,1.3-1,2.8-1,4.4c0,1.6,0.3,3.1,1,4.4c0.7,1.3,1.6,2.4,2.8,3.1c1.2,0.8,2.4,1.2,3.7,1.2c1.3,0,2.5-0.4,3.6-1.1
		c1.1-0.8,2-1.8,2.6-3.1c0.6-1.3,0.9-2.8,0.9-4.5c0-1.6-0.3-3.1-0.9-4.4c-0.6-1.3-1.5-2.3-2.6-3.1c-1.1-0.7-2.3-1.1-3.6-1.1
		C551.2,674.8,550,675.2,548.8,676z"/>
	<path class="st0" d="M594.8,675.2c-2.3-0.8-4.2-1.2-5.7-1.2c-1.4,0-2.2,0.5-2.2,1.5c0,0.8,0.5,1.4,1.4,1.8c0.9,0.4,2.4,0.9,4.4,1.5
		c2.5,0.7,4.6,1.4,6.2,2.1c1.6,0.7,3.1,1.8,4.3,3.3c1.2,1.5,1.9,3.5,1.9,6c0,2.5-0.7,4.7-2,6.4s-3.1,3-5.3,3.8
		c-2.2,0.8-4.7,1.2-7.5,1.2c-3.1,0-6.2-0.5-9.4-1.5c-3.2-1-5.9-2.4-8.2-4.2l4.3-8.8c1.8,1.5,4,2.8,6.6,3.9c2.7,1.1,4.9,1.6,6.7,1.6
		c0.9,0,1.5-0.2,2-0.5s0.8-0.8,0.8-1.5c0-0.8-0.5-1.4-1.4-1.9s-2.4-0.9-4.5-1.4c-2.5-0.6-4.5-1.3-6.2-2c-1.7-0.7-3.1-1.7-4.3-3.2
		c-1.2-1.4-1.8-3.3-1.8-5.8c0-2.3,0.6-4.4,1.8-6.1s3-3.1,5.2-4c2.3-0.9,4.9-1.4,7.9-1.4c2.7,0,5.5,0.4,8.2,1.2s5.1,1.8,7.1,3
		l-4.2,8.8C599.2,677,597.1,676,594.8,675.2z"/>
</g>
<g>
	<path class="st0" d="M299.2,721.3c-0.5-0.3-1.1-0.4-1.6-0.4c-0.7,0-1.3,0.2-1.9,0.5c-0.6,0.3-1,0.8-1.4,1.4
		c-0.3,0.6-0.5,1.2-0.5,1.9c0,0.7,0.2,1.3,0.5,1.9c0.3,0.6,0.8,1,1.4,1.4s1.2,0.5,1.9,0.5c0.5,0,1.1-0.1,1.6-0.4
		c0.5-0.2,1-0.6,1.4-1l1.3,1.4c-0.6,0.6-1.3,1.1-2,1.4c-0.8,0.3-1.6,0.5-2.4,0.5c-1.1,0-2.1-0.3-3-0.8c-0.9-0.5-1.6-1.2-2.1-2.1
		c-0.5-0.9-0.8-1.9-0.8-2.9c0-1.1,0.3-2,0.8-2.9c0.5-0.9,1.2-1.6,2.1-2.1s1.9-0.8,3-0.8c0.8,0,1.6,0.2,2.4,0.5
		c0.8,0.3,1.4,0.8,2,1.3l-1.2,1.6C300.2,721.9,299.7,721.5,299.2,721.3z"/>
	<path class="st0" d="M311.5,719.7c0.9,0.5,1.6,1.2,2.2,2.1c0.5,0.9,0.8,1.8,0.8,2.9c0,1.1-0.3,2-0.8,2.9s-1.2,1.6-2.2,2.1
		c-0.9,0.5-1.9,0.8-3,0.8s-2.1-0.3-3-0.8c-0.9-0.5-1.6-1.2-2.2-2.1c-0.5-0.9-0.8-1.9-0.8-2.9c0-1.1,0.3-2,0.8-2.9
		c0.5-0.9,1.2-1.6,2.2-2.1s1.9-0.8,3-0.8S310.6,719.2,311.5,719.7z M306.6,721.4c-0.6,0.3-1.1,0.8-1.4,1.4c-0.3,0.6-0.5,1.2-0.5,1.9
		s0.2,1.3,0.5,1.9s0.8,1.1,1.4,1.4c0.6,0.3,1.2,0.5,1.9,0.5c0.7,0,1.3-0.2,1.9-0.5c0.6-0.3,1-0.8,1.4-1.4s0.5-1.2,0.5-1.9
		s-0.2-1.3-0.5-1.9s-0.8-1-1.4-1.4c-0.6-0.3-1.2-0.5-1.9-0.5C307.8,720.9,307.2,721.1,306.6,721.4z"/>
	<path class="st0" d="M324.2,719.1h2.1v11.2h-2l-5.8-7.7v7.7h-2.1v-11.2h2l5.8,7.7V719.1z"/>
	<path class="st0" d="M332.9,719.1h8.2v1.9h-6.1v2.8h5.4v1.9h-5.4v2.8h6.3v1.9h-8.4V719.1z"/>
	<path class="st0" d="M343.5,719.1h2.1v9.3h4.8v1.9h-7V719.1z"/>
	<path class="st0" d="M356.1,719.1h2.4l3.7,7.2l3.7-7.2h2.4v11.2h-2v-8l-3.5,6.9h-1.4l-3.5-6.9v8h-2V719.1z"/>
	<path class="st0" d="M371.1,719.1h2.1v11.2h-2.1V719.1z"/>
	<path class="st0" d="M381.3,721.2c-0.6-0.2-1.1-0.3-1.6-0.3c-0.5,0-0.9,0.1-1.2,0.3c-0.3,0.2-0.4,0.5-0.4,0.8
		c0,0.3,0.1,0.6,0.3,0.8s0.5,0.4,0.8,0.5c0.3,0.1,0.7,0.3,1.3,0.4c0.8,0.2,1.4,0.4,1.9,0.7c0.5,0.2,0.9,0.6,1.2,1
		c0.3,0.4,0.5,1,0.5,1.7c0,0.7-0.2,1.3-0.6,1.8s-0.9,0.9-1.5,1.2c-0.6,0.3-1.4,0.4-2.2,0.4c-0.9,0-1.7-0.2-2.6-0.5
		c-0.8-0.3-1.6-0.8-2.2-1.3l0.9-1.8c0.6,0.5,1.2,0.9,1.9,1.2s1.4,0.4,2,0.4c0.6,0,1.1-0.1,1.4-0.3c0.3-0.2,0.5-0.5,0.5-0.9
		c0-0.3-0.1-0.6-0.3-0.8s-0.5-0.4-0.8-0.5s-0.8-0.3-1.3-0.4c-0.8-0.2-1.4-0.4-1.9-0.7c-0.5-0.2-0.9-0.5-1.2-1
		c-0.3-0.4-0.5-1-0.5-1.7c0-0.7,0.2-1.2,0.5-1.7s0.8-0.9,1.5-1.1c0.6-0.3,1.4-0.4,2.2-0.4c0.7,0,1.4,0.1,2.2,0.3
		c0.7,0.2,1.3,0.5,1.9,0.9L383,722C382.5,721.7,381.9,721.4,381.3,721.2z"/>
	<path class="st0" d="M386,719.1h2.4l3.7,7.2l3.7-7.2h2.4v11.2h-2v-8l-3.5,6.9h-1.4l-3.5-6.9v8h-2V719.1z"/>
	<path class="st0" d="M409.2,719.7c0.9,0.5,1.6,1.2,2.2,2.1c0.5,0.9,0.8,1.8,0.8,2.9c0,1.1-0.3,2-0.8,2.9c-0.5,0.9-1.2,1.6-2.2,2.1
		c-0.9,0.5-1.9,0.8-3,0.8s-2.1-0.3-3-0.8c-0.9-0.5-1.6-1.2-2.2-2.1c-0.5-0.9-0.8-1.9-0.8-2.9c0-1.1,0.3-2,0.8-2.9
		c0.5-0.9,1.2-1.6,2.2-2.1s1.9-0.8,3-0.8S408.3,719.2,409.2,719.7z M404.3,721.4c-0.6,0.3-1.1,0.8-1.4,1.4c-0.3,0.6-0.5,1.2-0.5,1.9
		s0.2,1.3,0.5,1.9s0.8,1.1,1.4,1.4c0.6,0.3,1.2,0.5,1.9,0.5c0.7,0,1.3-0.2,1.9-0.5c0.6-0.3,1-0.8,1.4-1.4s0.5-1.2,0.5-1.9
		s-0.2-1.3-0.5-1.9s-0.8-1-1.4-1.4s-1.2-0.5-1.9-0.5C405.5,720.9,404.9,721.1,404.3,721.4z"/>
	<path class="st0" d="M426.1,719.7c0.9,0.5,1.6,1.2,2.2,2.1c0.5,0.9,0.8,1.8,0.8,2.9c0,1.1-0.3,2-0.8,2.9c-0.5,0.9-1.2,1.6-2.2,2.1
		c-0.9,0.5-1.9,0.8-3,0.8s-2.1-0.3-3-0.8c-0.9-0.5-1.6-1.2-2.2-2.1c-0.5-0.9-0.8-1.9-0.8-2.9c0-1.1,0.3-2,0.8-2.9
		c0.5-0.9,1.2-1.6,2.2-2.1s1.9-0.8,3-0.8S425.2,719.2,426.1,719.7z M421.2,721.4c-0.6,0.3-1.1,0.8-1.4,1.4c-0.3,0.6-0.5,1.2-0.5,1.9
		s0.2,1.3,0.5,1.9s0.8,1.1,1.4,1.4c0.6,0.3,1.2,0.5,1.9,0.5c0.7,0,1.3-0.2,1.9-0.5c0.6-0.3,1-0.8,1.4-1.4s0.5-1.2,0.5-1.9
		s-0.2-1.3-0.5-1.9s-0.8-1-1.4-1.4s-1.2-0.5-1.9-0.5C422.4,720.9,421.8,721.1,421.2,721.4z"/>
	<path class="st0" d="M438.7,719.9c0.7,0.5,1,1.2,1,2c0,0.6-0.2,1.1-0.5,1.6c-0.3,0.4-0.8,0.7-1.4,0.9c0.7,0.1,1.3,0.5,1.8,1
		c0.4,0.5,0.6,1.1,0.6,1.9c0,1-0.4,1.7-1.1,2.3c-0.7,0.5-1.8,0.8-3,0.8h-5.1v-11.2h5C437.1,719.1,438,719.4,438.7,719.9z
		 M437.1,723.3c0.3-0.2,0.5-0.6,0.5-1c0-0.4-0.2-0.8-0.5-1s-0.7-0.3-1.3-0.3H433v2.7h2.7C436.3,723.7,436.7,723.6,437.1,723.3z
		 M437.4,728.1c0.4-0.3,0.6-0.6,0.6-1.1c0-0.5-0.2-0.8-0.6-1.1c-0.4-0.3-0.9-0.4-1.6-0.4H433v3h2.7
		C436.4,728.5,437,728.4,437.4,728.1z"/>
	<path class="st0" d="M446.8,729.5c-0.6,0.6-1.5,1-2.6,1c-1.4,0-2.5-0.6-3.5-1.7l1-1.6c0.4,0.4,0.8,0.7,1.2,0.9
		c0.4,0.2,0.8,0.3,1.2,0.3c0.5,0,0.8-0.1,1.1-0.4c0.3-0.3,0.4-0.7,0.4-1.2V721h-3.9v-1.9h6v7.7C447.8,728,447.4,728.8,446.8,729.5z"
		/>
	<path class="st0" d="M450.3,719.1h8.2v1.9h-6.1v2.8h5.4v1.9h-5.4v2.8h6.3v1.9h-8.4V719.1z"/>
	<path class="st0" d="M467.6,721.3c-0.5-0.3-1.1-0.4-1.6-0.4c-0.7,0-1.3,0.2-1.9,0.5c-0.6,0.3-1,0.8-1.4,1.4
		c-0.3,0.6-0.5,1.2-0.5,1.9c0,0.7,0.2,1.3,0.5,1.9c0.3,0.6,0.8,1,1.4,1.4s1.2,0.5,1.9,0.5c0.5,0,1.1-0.1,1.6-0.4
		c0.5-0.2,1-0.6,1.4-1l1.3,1.4c-0.6,0.6-1.3,1.1-2,1.4c-0.8,0.3-1.6,0.5-2.4,0.5c-1.1,0-2.1-0.3-3-0.8c-0.9-0.5-1.6-1.2-2.1-2.1
		c-0.5-0.9-0.8-1.9-0.8-2.9c0-1.1,0.3-2,0.8-2.9c0.5-0.9,1.2-1.6,2.1-2.1s1.9-0.8,3-0.8c0.8,0,1.6,0.2,2.4,0.5
		c0.8,0.3,1.4,0.8,2,1.3l-1.2,1.6C468.6,721.9,468.1,721.5,467.6,721.3z"/>
	<path class="st0" d="M470.8,719.1h9.1v1.9h-3.5v9.3h-2.2V721h-3.5V719.1z"/>
	<path class="st0" d="M481.4,719.1h2.1v11.2h-2.1V719.1z"/>
	<path class="st0" d="M485,719.1h2.3l3.3,8.8l3.3-8.8h2.2l-4.5,11.2h-2.2L485,719.1z"/>
	<path class="st0" d="M505.4,719.7c0.9,0.5,1.6,1.2,2.2,2.1c0.5,0.9,0.8,1.8,0.8,2.9c0,1.1-0.3,2-0.8,2.9c-0.5,0.9-1.2,1.6-2.2,2.1
		c-0.9,0.5-1.9,0.8-3,0.8s-2.1-0.3-3-0.8c-0.9-0.5-1.6-1.2-2.2-2.1c-0.5-0.9-0.8-1.9-0.8-2.9c0-1.1,0.3-2,0.8-2.9
		c0.5-0.9,1.2-1.6,2.2-2.1s1.9-0.8,3-0.8S504.5,719.2,505.4,719.7z M500.5,721.4c-0.6,0.3-1.1,0.8-1.4,1.4c-0.3,0.6-0.5,1.2-0.5,1.9
		s0.2,1.3,0.5,1.9s0.8,1.1,1.4,1.4c0.6,0.3,1.2,0.5,1.9,0.5c0.7,0,1.3-0.2,1.9-0.5c0.6-0.3,1-0.8,1.4-1.4s0.5-1.2,0.5-1.9
		s-0.2-1.3-0.5-1.9s-0.8-1-1.4-1.4s-1.2-0.5-1.9-0.5C501.7,720.9,501.1,721.1,500.5,721.4z"/>
</g>
<g>
	<path class="st0" d="M329.1,622.1h8.2v1.9h-6.1v2.8h5.4v1.9h-5.4v2.8h6.3v1.9h-8.4V622.1z"/>
	<path class="st0" d="M346.5,624.2c-0.6-0.2-1.1-0.3-1.6-0.3c-0.5,0-0.9,0.1-1.2,0.3c-0.3,0.2-0.4,0.5-0.4,0.8
		c0,0.3,0.1,0.6,0.3,0.8s0.5,0.4,0.8,0.5c0.3,0.1,0.7,0.3,1.3,0.4c0.8,0.2,1.4,0.4,1.9,0.7c0.5,0.2,0.9,0.6,1.2,1
		c0.3,0.4,0.5,1,0.5,1.7c0,0.7-0.2,1.3-0.6,1.8s-0.9,0.9-1.5,1.2c-0.6,0.3-1.4,0.4-2.2,0.4c-0.9,0-1.7-0.2-2.6-0.5
		c-0.8-0.3-1.6-0.8-2.2-1.3l0.9-1.8c0.6,0.5,1.2,0.9,1.9,1.2s1.4,0.4,2,0.4c0.6,0,1.1-0.1,1.4-0.3c0.3-0.2,0.5-0.5,0.5-0.9
		c0-0.3-0.1-0.6-0.3-0.8s-0.5-0.4-0.8-0.5s-0.8-0.3-1.3-0.4c-0.8-0.2-1.4-0.4-1.9-0.7c-0.5-0.2-0.9-0.5-1.2-1
		c-0.3-0.4-0.5-1-0.5-1.7c0-0.7,0.2-1.2,0.5-1.7s0.8-0.9,1.5-1.1c0.6-0.3,1.4-0.4,2.2-0.4c0.7,0,1.4,0.1,2.2,0.3
		c0.7,0.2,1.3,0.5,1.9,0.9l-0.9,1.9C347.7,624.7,347.1,624.4,346.5,624.2z"/>
	<path class="st0" d="M360.8,623.1c0.8,0.7,1.2,1.6,1.2,2.8c0,1.3-0.4,2.3-1.2,3c-0.8,0.7-1.9,1.1-3.3,1.1h-2.4v3.3h-2.1v-11.2h4.6
		C358.9,622.1,360,622.5,360.8,623.1z M359.3,627.6c0.4-0.4,0.6-0.9,0.6-1.6c0-0.7-0.2-1.2-0.6-1.5c-0.4-0.3-1.1-0.5-1.9-0.5h-2.3
		v4.1h2.3C358.2,628.1,358.8,628,359.3,627.6z"/>
	<path class="st0" d="M365.3,622.1h8.2v1.9h-6.1v2.8h5.4v1.9h-5.4v2.8h6.3v1.9h-8.4V622.1z"/>
	<path class="st0" d="M384.2,624.3c-0.5-0.3-1.1-0.4-1.6-0.4c-0.7,0-1.3,0.2-1.9,0.5c-0.6,0.3-1,0.8-1.4,1.4
		c-0.3,0.6-0.5,1.2-0.5,1.9c0,0.7,0.2,1.3,0.5,1.9c0.3,0.6,0.8,1,1.4,1.4s1.2,0.5,1.9,0.5c0.5,0,1.1-0.1,1.6-0.4
		c0.5-0.2,1-0.6,1.4-1l1.3,1.4c-0.6,0.6-1.3,1.1-2,1.4c-0.8,0.3-1.6,0.5-2.4,0.5c-1.1,0-2.1-0.3-3-0.8c-0.9-0.5-1.6-1.2-2.1-2.1
		c-0.5-0.9-0.8-1.9-0.8-2.9c0-1.1,0.3-2,0.8-2.9c0.5-0.9,1.2-1.6,2.1-2.1s1.9-0.8,3-0.8c0.8,0,1.6,0.2,2.4,0.5
		c0.8,0.3,1.4,0.8,2,1.3l-1.2,1.6C385.2,624.9,384.7,624.5,384.2,624.3z"/>
	<path class="st0" d="M390.2,622.1h2.1v11.2h-2.1V622.1z"/>
	<path class="st0" d="M405,633.3l-1-2.4h-5.5l-1,2.4h-2.2l4.9-11.2h2.2l4.8,11.2H405z M399.3,629.1h3.9l-2-4.7L399.3,629.1z"/>
	<path class="st0" d="M410.3,622.1h2.1v9.3h4.8v1.9h-7V622.1z"/>
	<path class="st0" d="M420.5,622.1h2.1v11.2h-2.1V622.1z"/>
	<path class="st0" d="M432.3,624.2c-0.6-0.2-1.1-0.3-1.6-0.3c-0.5,0-0.9,0.1-1.2,0.3c-0.3,0.2-0.4,0.5-0.4,0.8
		c0,0.3,0.1,0.6,0.3,0.8s0.5,0.4,0.8,0.5c0.3,0.1,0.7,0.3,1.3,0.4c0.8,0.2,1.4,0.4,1.9,0.7c0.5,0.2,0.9,0.6,1.2,1
		c0.3,0.4,0.5,1,0.5,1.7c0,0.7-0.2,1.3-0.6,1.8s-0.9,0.9-1.5,1.2c-0.6,0.3-1.4,0.4-2.2,0.4c-0.9,0-1.7-0.2-2.6-0.5
		c-0.8-0.3-1.6-0.8-2.2-1.3l0.9-1.8c0.6,0.5,1.2,0.9,1.9,1.2s1.4,0.4,2,0.4c0.6,0,1.1-0.1,1.4-0.3c0.3-0.2,0.5-0.5,0.5-0.9
		c0-0.3-0.1-0.6-0.3-0.8s-0.5-0.4-0.8-0.5s-0.8-0.3-1.3-0.4c-0.8-0.2-1.4-0.4-1.9-0.7c-0.5-0.2-0.9-0.5-1.2-1
		c-0.3-0.4-0.5-1-0.5-1.7c0-0.7,0.2-1.2,0.5-1.7s0.8-0.9,1.5-1.1c0.6-0.3,1.4-0.4,2.2-0.4c0.7,0,1.4,0.1,2.2,0.3
		c0.7,0.2,1.3,0.5,1.9,0.9l-0.9,1.9C433.5,624.7,432.9,624.4,432.3,624.2z"/>
	<path class="st0" d="M437.4,622.1h9.1v1.9h-3.5v9.3h-2.2V624h-3.5V622.1z"/>
	<path class="st0" d="M456.8,633.3l-1-2.4h-5.5l-1,2.4h-2.2l4.9-11.2h2.2l4.8,11.2H456.8z M451.1,629.1h3.9l-2-4.7L451.1,629.1z"/>
	<path class="st0" d="M467.3,624.2c-0.6-0.2-1.1-0.3-1.6-0.3c-0.5,0-0.9,0.1-1.2,0.3c-0.3,0.2-0.4,0.5-0.4,0.8
		c0,0.3,0.1,0.6,0.3,0.8s0.5,0.4,0.8,0.5c0.3,0.1,0.7,0.3,1.3,0.4c0.8,0.2,1.4,0.4,1.9,0.7c0.5,0.2,0.9,0.6,1.2,1
		c0.3,0.4,0.5,1,0.5,1.7c0,0.7-0.2,1.3-0.6,1.8s-0.9,0.9-1.5,1.2c-0.6,0.3-1.4,0.4-2.2,0.4c-0.9,0-1.7-0.2-2.6-0.5
		c-0.8-0.3-1.6-0.8-2.2-1.3l0.9-1.8c0.6,0.5,1.2,0.9,1.9,1.2s1.4,0.4,2,0.4c0.6,0,1.1-0.1,1.4-0.3c0.3-0.2,0.5-0.5,0.5-0.9
		c0-0.3-0.1-0.6-0.3-0.8s-0.5-0.4-0.8-0.5s-0.8-0.3-1.3-0.4c-0.8-0.2-1.4-0.4-1.9-0.7c-0.5-0.2-0.9-0.5-1.2-1
		c-0.3-0.4-0.5-1-0.5-1.7c0-0.7,0.2-1.2,0.5-1.7s0.8-0.9,1.5-1.1c0.6-0.3,1.4-0.4,2.2-0.4c0.7,0,1.4,0.1,2.2,0.3
		c0.7,0.2,1.3,0.5,1.9,0.9l-0.9,1.9C468.5,624.7,467.9,624.4,467.3,624.2z"/>
</g>
</svg>
