<?xml version="1.0" encoding="utf-8"?>
<!-- Generator: Adobe Illustrator 19.0.0, SVG Export Plug-In . SVG Version: 6.00 Build 0)  -->
<svg version="1.1" id="Capa_1" xmlns="http://www.w3.org/2000/svg" xmlns:xlink="http://www.w3.org/1999/xlink" x="0px" y="0px"
	 viewBox="710 -420.6 1484 905.6" style="enable-background:new 710 -420.6 1484 905.6;" xml:space="preserve">
<style type="text/css">
	.st0{fill:#E2E2E2;}
	.st1{fill:#EFEFEF;}
	.st2{fill:#FFFFFF;}
	.st3{fill:#F0F0F0;}
	.st4{fill:#E3E3E3;}
	.st5{fill:#EAEAEA;}
	.st6{fill:#D4F1FD;}
	.st7{fill:#141414;}
	.st8{fill:#313131;}
	.st9{fill:#F8D584;}
	.st10{fill:#9B4A1A;}
	.st11{fill:#BCB8B1;}
	.st12{fill:#648389;}
	.st13{fill:#B05E22;}
	.st14{fill:#E7B01F;}
	.st15{fill:#F8D685;}
	.st16{fill:#80A1A9;}
	.st17{fill:#494C4D;}
	.st18{fill:#DDBC96;}
	.st19{fill:#F4DAB7;}
	.st20{fill:#6C5C32;}
	.st21{fill:#BA8D61;}
	.st22{fill:#1D1611;}
	.st23{fill:#67372C;}
	.st24{fill:#C68E87;}
	.st25{fill:#82A1A9;}
	.st26{fill:#ACCACE;}
	.st27{fill:#473C20;}
	.st28{fill:#382F20;}
	.st29{fill:#292B2C;}
	.st30{fill:#686B6B;}
	.st31{fill:#1B1B1B;}
	.st32{fill:#9EA1A1;}
</style>
<g>
	<path class="st0" d="M2193.9,330.2c-8.5,0.1-16.3,2.6-22.9,6.9c-6.6-4.3-14.5-6.8-22.9-6.8c-13.7,0-25.8,6.5-33.6,16.6
		c-4.7-1.8-9.7-2.8-15-2.8c-7.1,0-13.9,1.8-19.7,4.9c-7.6-11.3-20.5-18.7-35.1-18.7c-6.7,0-13.1,1.6-18.7,4.4
		c-7.7-8.4-18.8-13.7-31.2-13.7c-5.7,0-11.2,1.2-16.2,3.2c-7.1-13.3-21.2-22.4-37.3-22.4c-13.5,0-25.6,6.4-33.3,16.3
		c-7.2-5.7-16.4-9.2-26.3-9.2c-13.9,0-26.3,6.7-34,17.1c-6.9-5-15.4-7.9-24.6-7.9c-13.6,0-25.6,6.4-33.4,16.3
		c-7.2-5.7-16.3-9-26.1-9c-5.6,0-10.9,1.1-15.7,3c-7.4-12.4-20.9-20.7-36.4-20.7c-4.7,0-9.2,0.8-13.4,2.2v80.3
		c4.2,1.4,8.7,2.2,13.4,2.2c5.6,0,10.9-1.1,15.7-3c7.4,12.4,20.9,20.7,36.4,20.7c13.6,0,25.6-6.4,33.4-16.3c7.2,5.7,16.3,9,26.1,9
		c13.9,0,26.3-6.7,34-17.1c6.9,5,15.4,7.9,24.6,7.9c13.5,0,25.6-6.4,33.3-16.3c7.2,5.7,16.4,9.2,26.3,9.2c5.7,0,11.2-1.2,16.2-3.2
		c7.1,13.3,21.2,22.4,37.3,22.4c6.7,0,13.1-1.6,18.7-4.4c7.7,8.4,18.8,13.7,31.2,13.7c7.1,0,13.9-1.8,19.7-4.9
		c7.6,11.3,20.5,18.7,35.1,18.7c13.7,0,25.8-6.5,33.6-16.6c4.7,1.8,9.7,2.8,15,2.8c8.6,0,16.5-2.5,23.2-6.9
		c6.5,4.2,14.3,6.7,22.7,6.8L2193.9,330.2L2193.9,330.2z"/>
	<path class="st1" d="M1698.2,485h495.7V334.6c-0.9-0.1-1.9-0.1-2.8-0.1c-17.3,0-32.1,10.4-38.7,25.2c-6.8-4.8-15.1-7.5-24.1-7.5
		c-13.7,0-25.9,6.5-33.6,16.6c-7.1-5.4-15.9-8.6-25.5-8.6c-5.3,0-10.3,1-15,2.7c-7.8-9.4-19.5-15.5-32.7-15.5
		c-7.8,0-15.2,2.1-21.5,5.9c-6.5-15-21.4-25.5-38.8-25.5c-6.9,0-13.4,1.6-19.1,4.6c-7.6-11-20.4-18.2-34.8-18.2s-27.1,7.2-34.7,18.2
		c-7.7-7.8-18.3-12.6-30.1-12.6c-17.6,0-32.8,10.8-39.1,26.2c-7.6-7.2-17.8-11.6-29-11.6c-10,0-19.2,3.5-26.5,9.3
		c-7.3-12.6-20.9-21-36.5-21c-4.7,0-9.2,0.8-13.4,2.2v80.3c0.1,0,0.1,0,0.2,0.1v13.8L1698.2,485L1698.2,485z"/>
	<path class="st2" d="M2189.4,366.5c-12.9,0-24.4,5.8-32.2,14.8c-7.8-9.1-19.3-14.8-32.2-14.8c-14.3,0-27,7.1-34.6,18
		c-7.5-6.7-17.4-10.8-28.3-10.8c-10.9,0-20.9,4.2-28.4,11c-7.8-8.9-19.2-14.5-31.9-14.5c-5.6,0-10.9,1.1-15.8,3.1
		c-7.6-7.2-17.8-11.6-29.1-11.6c-5.6,0-11,1.1-15.9,3.1c-7.7-10.7-20.2-17.8-34.4-17.8c-10.5,0-20.1,3.8-27.4,10.1
		c-6.6-4.2-14.4-6.7-22.8-6.7c-10.5,0-20.2,3.9-27.6,10.2c-6-3.3-12.9-5.1-20.2-5.1c-5.7,0-11.2,1.1-16.1,3.2
		c-7.6-7.3-17.9-11.8-29.3-11.8c-8.5,0-16.4,2.5-23.1,6.9c-7.7-8-18.5-13-30.5-13c-4.1,0-8.1,0.6-11.8,1.7v58.9v22.3V485h495.9v-34
		v-49.5v-34.6C2192.4,366.6,2191,366.5,2189.4,366.5z"/>
</g>
<g>
	<path class="st0" d="M1202.6,330.2c8.5,0.1,16.3,2.6,22.9,6.9c6.6-4.3,14.5-6.8,22.9-6.8c13.7,0,25.8,6.5,33.6,16.6
		c4.7-1.8,9.7-2.8,15-2.8c7.1,0,13.9,1.8,19.7,4.9c7.6-11.3,20.5-18.7,35.1-18.7c6.7,0,13.1,1.6,18.7,4.4
		c7.7-8.4,18.8-13.7,31.2-13.7c5.7,0,11.2,1.2,16.2,3.2c7.1-13.3,21.2-22.4,37.3-22.4c13.5,0,25.6,6.4,33.3,16.3
		c7.2-5.7,16.4-9.2,26.3-9.2c13.9,0,26.3,6.7,34,17.1c6.9-5,15.4-7.9,24.6-7.9c13.6,0,25.6,6.4,33.4,16.3c7.2-5.7,16.3-9,26.1-9
		c5.6,0,10.9,1.1,15.7,3c7.4-12.4,20.9-20.7,36.4-20.7c4.7,0,9.2,0.8,13.4,2.2v80.3c-4.2,1.4-8.7,2.2-13.4,2.2
		c-5.6,0-10.9-1.1-15.7-3c-7.4,12.4-20.9,20.7-36.4,20.7c-13.6,0-25.6-6.4-33.4-16.3c-7.2,5.7-16.3,9-26.1,9
		c-13.9,0-26.3-6.7-34-17.1c-6.9,5-15.4,7.9-24.6,7.9c-13.5,0-25.6-6.4-33.3-16.3c-7.2,5.7-16.4,9.2-26.3,9.2
		c-5.7,0-11.2-1.2-16.2-3.2c-7.1,13.3-21.2,22.4-37.3,22.4c-6.7,0-13.1-1.6-18.7-4.4c-7.7,8.4-18.8,13.7-31.2,13.7
		c-7.1,0-13.9-1.8-19.7-4.9c-7.6,11.3-20.5,18.7-35.1,18.7c-13.7,0-25.8-6.5-33.6-16.6c-4.7,1.8-9.7,2.8-15,2.8
		c-8.6,0-16.5-2.5-23.2-6.9c-6.5,4.2-14.3,6.7-22.7,6.8L1202.6,330.2L1202.6,330.2z"/>
	<path class="st1" d="M1698.3,485h-495.7V334.6c0.9-0.1,1.9-0.1,2.8-0.1c17.3,0,32.1,10.4,38.7,25.2c6.8-4.8,15.1-7.5,24.1-7.5
		c13.7,0,25.9,6.5,33.6,16.6c7.1-5.4,15.9-8.6,25.5-8.6c5.3,0,10.3,1,15,2.7c7.8-9.4,19.5-15.5,32.7-15.5c7.8,0,15.2,2.1,21.5,5.9
		c6.5-15,21.4-25.5,38.8-25.5c6.9,0,13.4,1.6,19.1,4.6c7.6-11,20.4-18.2,34.8-18.2s27.1,7.2,34.7,18.2c7.7-7.8,18.3-12.6,30.1-12.6
		c17.6,0,32.8,10.8,39.1,26.2c7.6-7.2,17.8-11.6,29-11.6c10,0,19.2,3.5,26.5,9.3c7.3-12.6,20.9-21,36.5-21c4.7,0,9.2,0.8,13.4,2.2
		v80.3c-0.1,0-0.1,0-0.2,0.1v13.8L1698.3,485L1698.3,485z"/>
	<path class="st2" d="M1206.9,366.5c12.9,0,24.4,5.8,32.2,14.8c7.8-9.1,19.3-14.8,32.2-14.8c14.3,0,27,7.1,34.6,18
		c7.5-6.7,17.4-10.8,28.3-10.8s20.9,4.2,28.4,11c7.8-8.9,19.2-14.5,31.9-14.5c5.6,0,10.9,1.1,15.8,3.1c7.6-7.2,17.8-11.6,29.1-11.6
		c5.6,0,11,1.1,15.9,3.1c7.7-10.7,20.2-17.8,34.4-17.8c10.5,0,20.1,3.8,27.4,10.1c6.6-4.2,14.4-6.7,22.8-6.7
		c10.5,0,20.2,3.9,27.6,10.2c6-3.3,12.9-5.1,20.2-5.1c5.7,0,11.2,1.1,16.1,3.2c7.6-7.3,17.9-11.8,29.3-11.8c8.5,0,16.4,2.5,23.1,6.9
		c7.7-8,18.5-13,30.5-13c4.1,0,8.1,0.6,11.8,1.7v58.9v22.3V485h-495.9v-34v-49.5v-34.6C1204,366.6,1205.4,366.5,1206.9,366.5z"/>
</g>
<g>
	<path class="st0" d="M1204.5,330.2c-8.5,0.1-16.3,2.6-22.9,6.9c-6.6-4.3-14.5-6.8-22.9-6.8c-13.7,0-25.8,6.5-33.6,16.6
		c-4.7-1.8-9.7-2.8-15-2.8c-7.1,0-13.9,1.8-19.7,4.9c-7.6-11.3-20.5-18.7-35.1-18.7c-6.7,0-13.1,1.6-18.7,4.4
		c-7.7-8.4-18.8-13.7-31.2-13.7c-5.7,0-11.2,1.2-16.2,3.2c-7.1-13.3-21.2-22.4-37.3-22.4c-13.5,0-25.6,6.4-33.3,16.3
		c-7.2-5.7-16.4-9.2-26.3-9.2c-13.9,0-26.3,6.7-34,17.1c-6.9-5-15.4-7.9-24.6-7.9c-13.6,0-25.6,6.4-33.4,16.3
		c-7.2-5.7-16.3-9-26.1-9c-5.6,0-10.9,1.1-15.7,3c-7.6-12.4-21.1-20.7-36.6-20.7c-4.7,0-9.2,0.8-13.4,2.2v80.3
		c4.2,1.4,8.7,2.2,13.4,2.2c5.6,0,10.9-1.1,15.7-3C745,401.7,758.5,410,774,410c13.6,0,25.6-6.4,33.4-16.3c7.2,5.7,16.3,9,26.1,9
		c13.9,0,26.3-6.7,34-17.1c6.9,5,15.4,7.9,24.6,7.9c13.5,0,25.6-6.4,33.3-16.3c7.2,5.7,16.4,9.2,26.3,9.2c5.7,0,11.2-1.2,16.2-3.2
		c7.1,13.3,21.2,22.4,37.3,22.4c6.7,0,13.1-1.6,18.7-4.4c7.7,8.4,18.8,13.7,31.2,13.7c7.1,0,13.9-1.8,19.7-4.9
		c7.6,11.3,20.5,18.7,35.1,18.7c13.7,0,25.8-6.5,33.6-16.6c4.7,1.8,9.7,2.8,15,2.8c8.6,0,16.5-2.5,23.2-6.9
		c6.5,4.2,14.3,6.7,22.7,6.8L1204.5,330.2L1204.5,330.2z"/>
	<path class="st1" d="M708.7,485h495.7V334.6c-0.9-0.1-1.9-0.1-2.8-0.1c-17.3,0-32.1,10.4-38.7,25.2c-6.8-4.8-15.1-7.5-24.1-7.5
		c-13.7,0-25.9,6.5-33.6,16.6c-7.1-5.4-15.9-8.6-25.5-8.6c-5.3,0-10.3,1-15,2.7c-7.8-9.4-19.5-15.5-32.7-15.5
		c-7.8,0-15.2,2.1-21.5,5.9c-6.5-15-21.4-25.5-38.8-25.5c-6.9,0-13.4,1.6-19.1,4.6c-7.6-11-20.4-18.2-34.8-18.2
		c-14.4,0-27.1,7.2-34.7,18.2c-7.7-7.8-18.3-12.6-30.1-12.6c-17.6,0-32.8,10.8-39.1,26.2c-7.6-7.2-17.8-11.6-29-11.6
		c-10,0-19.2,3.5-26.5,9.3c-7.3-12.6-20.9-21-36.5-21c-4.7,0-9.2,0.8-13.4,2.2v80.3c0.1,0,0.1,0,0.2,0.1v13.8
		C708.7,419.1,708.7,485,708.7,485z"/>
	<path class="st2" d="M1200.1,366.5c-12.9,0-24.4,5.8-32.2,14.8c-7.8-9.1-19.3-14.8-32.2-14.8c-14.3,0-27,7.1-34.6,18
		c-7.5-6.7-17.4-10.8-28.3-10.8s-20.9,4.2-28.4,11c-7.8-8.9-19.2-14.5-31.9-14.5c-5.6,0-10.9,1.1-15.8,3.1
		c-7.6-7.2-17.8-11.6-29.1-11.6c-5.6,0-11,1.1-15.9,3.1c-7.7-10.7-20.2-17.8-34.4-17.8c-10.5,0-20.1,3.8-27.4,10.1
		c-6.6-4.2-14.4-6.7-22.8-6.7c-10.5,0-20.2,3.9-27.6,10.2c-6-3.3-12.9-5.1-20.2-5.1c-5.7,0-11.2,1.1-16.1,3.2
		c-7.6-7.3-17.9-11.8-29.3-11.8c-8.5,0-16.4,2.5-23.1,6.9c-7.7-8-18.5-13-30.5-13c-4.1,0-8.1,0.6-11.8,1.7v58.9v22.3V485h495.9v-34
		v-49.5v-34.6C1203,366.6,1201.6,366.5,1200.1,366.5z"/>
</g>
<g>
	<path class="st3" d="M1678.5,300.2c-4.8-2-10.1-3.1-15.7-3.1c-9.8,0-18.9,3.4-26,9.1c-3.7-20-21.3-35.2-42.4-35.2
		c-11.8,0-22.4,4.7-30.2,12.3c-6.1-13.9-20.1-23.7-36.3-23.7c-6.7,0-13,1.7-18.5,4.6c-5.4-11.5-17.1-19.4-30.6-19.4
		c-12.5,0-23.4,6.8-29.3,16.9c-4.2-2.9-9.3-4.7-14.9-4.7c-8.4,0-15.9,4-20.6,10.1c-4.1-13-16.3-22.3-30.6-22.3
		c-17.7,0-32.1,14.4-32.1,32.1c0,4.1,0.8,8,2.2,11.6c-1.1,1.2-2.2,2.5-3.1,3.9c-4.2-20.2-22.1-35.4-43.5-35.4
		c-19.2,0-35.5,12.1-41.7,29.1c-5.6-4.4-12.7-7-20.4-7c-10.9,0-20.6,5.2-26.7,13.3c-4.8-2.6-10.4-4.1-16.3-4.1c-2.8,0-5.5,0.3-8,1
		c0.8-3.3,1.2-6.7,1.2-10.2c0-24.8-20.1-44.9-44.9-44.9c-1.6,0-3.1,0.1-4.7,0.2c-6-13.4-19.4-22.8-35.1-22.8
		c-21.2,0-38.4,17.2-38.4,38.4c0,0.4,0,0.8,0,1.1c-6.6-4-14.4-6.4-22.7-6.4c-19,0-35.1,12.1-41.1,29c-7.8-4-16.6-6.3-26-6.3
		c-22.3,0-41.6,12.9-50.8,31.6c-4.9-1.3-10.1-2-15.4-2c-15,0-28.7,5.5-39.2,14.6v158h801.9V300.2H1678.5z"/>
	<path class="st4" d="M876.7,485h801.9v-95c-10.5-9.1-24.2-14.6-39.2-14.6c-5.3,0-10.5,0.7-15.4,2c-9.2-18.7-28.5-31.6-50.8-31.6
		c-9.4,0-18.2,2.3-26,6.3c-6-16.9-22.1-29-41.1-29c-8.3,0-16.1,2.3-22.7,6.4c0-0.4,0-0.8,0-1.1c0-21.2-17.2-38.4-38.4-38.4
		c-15.6,0-29.1,9.4-35.1,22.8c-1.5-0.2-3.1-0.2-4.7-0.2c-24.8,0-44.9,20.1-44.9,44.9c0,3.5,0.4,6.9,1.2,10.2c-2.6-0.6-5.3-1-8-1
		c-5.9,0-11.4,1.5-16.3,4.1c-6.1-8.1-15.8-13.3-26.7-13.3c-7.7,0-14.7,2.6-20.4,7c-6.2-17-22.6-29.1-41.7-29.1
		c-21.5,0-39.4,15.2-43.5,35.4c-0.9-1.4-2-2.7-3.1-3.9c1.4-3.6,2.2-7.5,2.2-11.6c0-17.7-14.4-32.1-32.1-32.1
		c-14.3,0-26.5,9.4-30.6,22.3c-4.8-6.2-12.2-10.1-20.6-10.1c-5.5,0-10.7,1.7-14.9,4.7c-5.9-10.1-16.8-16.9-29.3-16.9
		c-13.5,0-25.2,7.9-30.6,19.4c-5.5-2.9-11.8-4.6-18.5-4.6c-16.2,0-30.1,9.7-36.3,23.7c-7.8-7.6-18.4-12.3-30.2-12.3
		c-21.1,0-38.7,15.2-42.4,35.2c-7.1-5.7-16.2-9.1-26-9.1c-5.5,0-10.8,1.1-15.7,3.1L876.7,485L876.7,485z M1000,410.3
		c0.4-0.9,0.8-1.8,1.2-2.8c0.9,0.8,1.8,1.5,2.7,2.2v0.6L1000,410.3L1000,410.3z"/>
</g>
<path class="st5" d="M1649.3,409.7c0,0-44.3,12.5-36.7-26.5c0,0-66,7.2-57.2-41.2s65.9-27.8,65.9-27.8s-13.8-23.6,16-36.4
	s53.5,18,53.4,38.5c0,0,37-15.1,50.4,15.4s-29.4,40.8-29.4,40.8C1732.9,401.5,1674.6,452,1649.3,409.7z"/>
<path class="st5" d="M1649.3,409.7c0,0-44.3,12.5-36.7-26.5c0,0-66,7.2-57.2-41.2s65.9-27.8,65.9-27.8s-13.8-23.6,16-36.4
	s53.5,18,53.4,38.5c0,0,37-15.1,50.4,15.4s-29.4,40.8-29.4,40.8C1732.9,401.5,1674.6,452,1649.3,409.7z"/>
<path class="st5" d="M860.7,474.4c0,0-44.3,12.5-36.7-26.5c0,0-66,7.2-57.2-41.2s65.9-27.8,65.9-27.8s-13.8-23.6,16-36.4
	s53.5,18,53.4,38.5c0,0,37-15.1,50.4,15.4s-29.4,40.8-29.4,40.8C944.3,466.2,886.1,516.7,860.7,474.4z"/>
<g id="Capa_4">
	<path class="st3" d="M948,300l154.4-5.2l61.5-51.6c-30.2-30.1-39.4-178.9-39.4-178.9l-22.2,0.1l-22.2-0.1
		C1080.1,64.3,1059.7,310.6,948,300z"/>
	<g>
		<g>
			<path class="st6" d="M1202,13.4c1.1,2.1,1.6,4.4,1.1,5.8c-2.9,2-14.6,2.1-14.6,2.1v3c0,0,13,0.8,19.9-0.1c6.1-2,6.4-4.5,6.4-4.5
				c-0.6-6.7-3.1-11.8-3.1-11.8L1202,13.4z"/>
			<path class="st7" d="M1201.8,8.8c-1.8-2.3-10-18.8-10-18.8c4-3.7,9.6-3,9.6-3c0.3,1.9,5.9,19.1,5.9,19.1
				C1204.4,6.9,1201.8,8.8,1201.8,8.8z"/>
			<path class="st8" d="M1201.9,15.4c-0.8-0.2-2.8-5.3-2.8-5.3c1.2-1.7,9.6-6.4,10.3-6.1c2.5,1.2,3.6,5.1,3.6,5.1
				C1212.5,10.4,1202,15.4,1201.9,15.4z"/>
		</g>
		<g>
			<path class="st9" d="M1119.4,26.4l-6.3,10.9c2.2,0.4,8.6,0,8.6,0s-6.4,12.8-4.9,12.4s5.1-1.7,5.1-1.7
				c-0.8,2.2,16.3,32.5,16.3,32.5c3-4.9,9.7-29.4,9.7-29.4c2.9,1.1,7.9,4.5,7.9,4.5c-0.4-2.3-3.3-14.3-3.3-14.3s7.8,0.8,7.3,0
				c-0.4-0.7-6.6-12.7-6.6-12.7C1146.9,27.5,1119.3,26.3,1119.4,26.4z"/>
			<path class="st10" d="M1150.2-44.7c-2.4-5.9-6.1-10.1-11.4-10.8c-7.7-1.1-12.8,0.9-16.4,6.9C1132.8-43.1,1143-43.3,1150.2-44.7z"
				/>
			<path class="st11" d="M1113,15.8c0,0,11.9,8,39.5,4c0,0,6.3-43.6-2.3-64.5c-7.1,1.3-17.4,1.6-27.8-3.9
				C1116.6-38.8,1114.9-18.5,1113,15.8z"/>
			<path class="st12" d="M1113.1,14c0,0,0,0-1.3,1c-1.2,1-1.8,9.9-1.8,9.9c13.9,10.4,43.3,4,43.3,4c0.1-0.8,0.7-9.8,0.7-9.8l-1.5-2
				C1128.9,20.6,1113.1,14,1113.1,14z"/>
			<path class="st13" d="M1154.2,0.5C1127,2.3,1113-2.2,1113-2.2V5c24,6.3,41.2,2.9,41.2,2.9V0.5z"/>
		</g>
		<g>
			<path class="st14" d="M1080.7,38.9l-8.9,15.3c3.2,0.5,12.2,0,12.2,0s-9,18-6.9,17.5c2.1-0.6,7.2-2.4,7.2-2.4
				c-1.1,3.2,16.6,47.4,16.6,47.4c4.3-6.9,20.1-42.9,20.1-42.9c4.1,1.6,11.2,6.4,11.2,6.4c-0.6-3.2-4.7-20.1-4.7-20.1s11,1.1,10.3,0
				c-0.6-1-9.3-17.9-9.3-17.9C1119.5,40.7,1080.6,39,1080.7,38.9z"/>
			<path class="st15" d="M1088.6,39.6l-5.9,10.2c2.2,0.4,8.2,0,8.2,0s-6,12.1-4.6,11.7c1.4-0.4,4.8-1.6,4.8-1.6
				c-0.7,2.1,11.1,31.7,11.1,31.7c2.8-4.6,13.4-28.7,13.4-28.7c2.8,1.1,7.5,4.3,7.5,4.3c-0.3-2.2-3.1-13.5-3.1-13.5s7.3,0.7,6.9,0
				s-6.2-12-6.2-12C1114.7,40.7,1088.6,39.5,1088.6,39.6z"/>
			<path class="st6" d="M1082.2,26.5c0,0,14.1,9.6,46.9,4.8c0,0,7.4-51.7-2.8-76.5c-8.5,1.6-20.6,1.9-33-4.6
				C1086.4-38.2,1084.4-14.2,1082.2,26.5z"/>
			<path class="st16" d="M1082.4,24.6c0,0,0,0-1.5,1.1s-2.2,11.7-2.2,11.7c16.4,12.3,51.4,4.8,51.4,4.8c0.1-1,0.8-11.7,0.8-11.7
				l-1.8-2.4C1101.1,32.3,1082.4,24.6,1082.4,24.6z"/>
			<path class="st13" d="M1131.2,8.5c-32.3,2.1-48.9-3.2-48.9-3.2v8.5c28.4,7.4,48.9,3.4,48.9,3.4V8.5z"/>
			<path class="st2" d="M1089.6,23.7l-4.3-1.2c0.6-12.4,2.6-47.9,6.8-62.4c4.2-14.6,14.6-14.1,14.6-14.1
				C1090.3-52.9,1089.6,23.7,1089.6,23.7z"/>
		</g>
		<path class="st13" d="M1126.3-45.2c-2.9-7-7.4-11.2-13.6-12.8c-4.9-1.3-15.2,1.1-19.4,8.2C1105.7-43.4,1117.9-43.6,1126.3-45.2z"
			/>
		<g>
			<path class="st17" d="M1164.5-24.4c-2.7,8.7-0.6,21.7,1.5,24.2c12.3,14.4,31.2-5.2,31.2-5.2c-2.3,4.2,4.5,11.5,4.5,11.5
				s-38.5,19.5-44.5-6.5c-7.3-31.9,3.6-40.6,7.8-39.6C1169.9-38.9,1167.4-34.1,1164.5-24.4z"/>
			<g>
				<path class="st18" d="M1193.9-0.4c2.5,8,6.6,6.5,7.6,6c0.1,0,0.2-0.1,0.2-0.1C1203.9-0.9,1193.9-0.4,1193.9-0.4z"/>
				<path class="st18" d="M1194.5,0.9c2.4,1.3,3.7,1,1.8-3.7s-3.6-4.6-5.2-4.1C1189-6.2,1192.2-0.3,1194.5,0.9z"/>
				<path class="st19" d="M1200.9-3.7c8.7-4.5,3.3-6.9-1.3-5.5C1189.1-6,1192.2,0.8,1200.9-3.7z"/>
				<path class="st19" d="M1195.3,1.4c1.2,1.7,3.9,1.7,8.1-0.5c3.9-2,5.3-3.1,4.7-4.7c-0.9-2.2-3.5-1.8-6.2-1
					C1196-3.1,1194.2-0.2,1195.3,1.4z"/>
				<path class="st19" d="M1197.9,4.7c0.6,1.2,3.2,1.7,6.7-0.1c7.1-3.7,2.6-5.6-1.1-4.5C1199.2,1.4,1196.9,2.5,1197.9,4.7z"/>
			</g>
		</g>
		<g>
			<path class="st20" d="M1123.3-71.3c0,0-3,6.3-4.8,6.4c-1.8,0.1-0.8-3.7-0.8-3.7c-0.8,1.3-4.8,4.6-6.3,3.4s0-6.2,0-6.2
				C1119.4-78.1,1123.3-71.3,1123.3-71.3z"/>
			<path class="st19" d="M1114.1-118c-7.9,11.1,4,39.3,4,39.3s1.4,6.8,8.7,14.7c7.3,8,28.5,6.8,40.5,3.2s10-18.3,6.8-26.2
				c-3.2-8-13.5-35.4-13.5-35.4C1154.7-134.3,1122-129.1,1114.1-118z"/>
			<path class="st21" d="M1158.3-103c1.4,1.1,4.2-0.7,4,1.2c-0.1,1.9-7.1,3.2-7.1,3.2s3.7,1.6,7.7-1.3c4-2.9-1.3-4.2-2.6-4.2
				s-3.2-3.7-3.2-3.7S1156.9-104.1,1158.3-103z"/>
			
				<ellipse transform="matrix(0.2881 0.9576 -0.9576 0.2881 710.201 -1170.5077)" class="st22" cx="1142.3" cy="-107.6" rx="3" ry="1.7"/>
			
				<ellipse transform="matrix(0.2881 0.9576 -0.9576 0.2881 722.1492 -1189.2635)" class="st22" cx="1160.9" cy="-108.9" rx="3" ry="1.7"/>
			<path class="st20" d="M1132-118.6c1.6,1.5,5.4,0,5.4,0s-4.4,5.2,0,4.4c4.3-0.8,10.5-6.2,10.5-6.2s-2.2,4,0,4.2
				c2.2,0.2,7.3-6.8,7.3-6.8C1146.8-127.6,1130.4-120,1132-118.6z"/>
			<g>
				<path class="st23" d="M1132.1-86.7c0,0,0.6,1.3,1.8,3.3c6.8,0.5,22.4,3,25.6,16.7c0.1,0,0.3-0.1,0.4-0.1
					c10.9-3.1,9.5-23.4,9.5-23.4S1147.5-97,1132.1-86.7z"/>
				<path class="st24" d="M1133.8-83.4c3.9,6.4,13.6,19.9,25.6,16.7C1156.2-80.4,1140.7-82.9,1133.8-83.4z"/>
			</g>
			<g>
				<path class="st6" d="M1166.6-114.2c-0.8,0.5-1.6,0.9-2.4,1.4c1.8,5.1,4.7,12.1,4.7,12.1C1168.5-105.6,1167.7-110.1,1166.6-114.2
					z"/>
				<path class="st2" d="M1119-104.8c0.6-6.7,3.1-9.7,3.1-9.7c24.2-13.5,40.5-2.8,40.5-2.8c0.2,0.9,0.8,2.6,1.5,4.5
					c0.9-0.5,1.7-1,2.4-1.4c-10.8-36.8-53.4-35.4-70.2-14.6c-1.9,2.4-3.3,4.9-4.4,7.5C1100.7-111.9,1110-106.9,1119-104.8z"/>
				<path class="st6" d="M1091.9-121.2c-9.2,22.5,12,51.4,15.9,52.5c4.4,1.1,18.3-6.4,18.3-6.4c-6.6-13.6-7.7-23.2-7.1-29.6
					C1110-106.9,1100.7-111.9,1091.9-121.2z"/>
			</g>
			<path class="st25" d="M1102.6-86.2c1.4,5.1,5.2,8.5,8.5,7.6c0.2,0,0.4-0.1,0.6-0.2c-2.6,0.2-5.6-3.2-6.9-8
				c-1.2-4.8-0.4-9.3,2-10.4c-0.2,0-0.4,0-0.6,0.1C1102.9-96.3,1101.3-91.4,1102.6-86.2z"/>
			<path class="st26" d="M1111.8-78.8c2.9-1.3,4.2-5.9,2.9-10.7c-1.3-4.8-4.7-8.2-7.9-7.8c-2.4,1.1-3.3,5.6-2,10.4
				C1106.1-82,1109.1-78.6,1111.8-78.8z"/>
			<path class="st27" d="M1135.1-109.4c3.7-5.5,10.2-6.2,10.2-6.2C1139.9-119.6,1135.1-109.5,1135.1-109.4z"/>
			<path class="st27" d="M1162.6-112.2c-5.4-4.9-7.9-3.6-7.9-3.6C1158.7-119.9,1162.6-112.2,1162.6-112.2z"/>
		</g>
		<g>
			<path class="st28" d="M1143.1,158.8c0,0-9,5.1-7.5,8s17.4,25.8,22.2,25.4c4.8-0.4,6.8-8.7,3.6-13.9c-3.1-5.2-7.1-17.1-7.1-17.1
				C1151.5,159.6,1143.1,158.8,1143.1,158.8z"/>
			<path class="st28" d="M1125.1,155.7c0,0-7.4,5.2-8.1,8.9c-0.7,3.7,6.4,30.4,6.4,30.4s2.3,3.2,8.1,1.2c5.8-2,4.4-13.1,4.8-20.7
				s1.9-16.7,1.9-16.7L1125.1,155.7z"/>
			<path class="st17" d="M1167.9,43.9c-0.6,4.8-4.6,33-12.8,63.6c-8.2,30.6-17,48.9-17,48.9c7.4,13.2,18.9,6.4,18.9,6.4
				c26.6-43.3,33-123.1,33-123.1L1167.9,43.9z"/>
			<path class="st17" d="M1145.3,49.5c-5,57.4-28.3,108.1-28.3,108.1c12.8,9.2,23.5,5.6,23.5,5.6c9.2-11.1,28.8-89.7,33.6-97.3
				c4.8-7.6,12.8-22.3,12.8-22.3C1175.1,38,1145.3,49.5,1145.3,49.5z"/>
			<path class="st29" d="M1166.3,95.7c-6.5,20.9-21.1,57.1-21.1,57.1c6.6-13.6,24.9-76.5,28-85.2s9.8-17,9.8-17
				C1172.2,71,1172.8,74.9,1166.3,95.7z"/>
		</g>
		<g>
			<path class="st17" d="M1156.8-41.7c3.9,1.2,7.6,1.7,7.6,1.7c13.9,17.3,27.7,83.5,27.7,83.5c-3.4-0.6-11-1.2-17.9-0.3
				c-0.8,0.1-1,0.5-1.1,1.3c-15.4,2.1-33.4,6-33.4,6c-1.4-35.8-20.3-90.5-20.3-90.5c3.3-2.1,11.3-3.8,11.3-3.8
				S1152.9-42.8,1156.8-41.7z"/>
			<path class="st30" d="M1167,0c0.6,4.9,7.1,26.6,7.1,26.6c0-18.4,0-44.6,0-44.6c-1.4-1-12.3-6-12.3-6c5.2-4.4,7.6-11.4,7.6-11.4
				c-6.5,0.3-15-7-15-7C1155.9-37.6,1166.5-4.9,1167,0z"/>
			<path class="st19" d="M1147.5-60.4c0,4.6,4.2,18.3,3.2,19.5c0.7,5.6-0.9,11.9-12.7,0c-0.6-1.6-4.4-20.5-4.4-20.5
				S1141.4-61.4,1147.5-60.4z"/>
			<path class="st29" d="M1176,40.4c-0.2-3.5-2.1-12.8-1.9-12.5C1175.7,30.7,1176,40.4,1176,40.4z"/>
			
				<ellipse transform="matrix(0.1589 0.9873 -0.9873 0.1589 1018.6548 -1137.9146)" class="st29" cx="1177.2" cy="28.9" rx="1.1" ry="0.8"/>
			
				<ellipse transform="matrix(0.1589 0.9873 -0.9873 0.1589 1025.9414 -1133.0931)" class="st29" cx="1178" cy="35.6" rx="1.1" ry="0.8"/>
			<path class="st30" d="M1167.5,1c2.5,6.3,6.6,25.6,6.6,25.6c-4-15.7-40.5-35.1-40.5-35.1c6.8-4.1,13.9-10.1,13.9-10.1
				c-6.7-1.1-22.4-6.6-22.4-6.6c4.5-5.8,3.8-17.2,3.8-17.2C1133.4-38.8,1165-5.5,1167.5,1z"/>
			<path class="st4" d="M1130.7-41.2c0,0,30.6,30,36.8,41.9c0,0-8.6-32.6-12.3-40.8c0,0-1.3-0.2-4.3-0.5c-0.1,0.2-0.1,0.5-0.2,0.9
				l-0.9-0.9l-0.6,5c-0.4-0.4-0.6-1.1-1-1.5l-1.9-4l-0.6,2c-0.8-0.7-1.6-1.4-2.2-1.8C1140.1-41,1135.8-41,1130.7-41.2z"/>
			<path class="st2" d="M1128.1-43.2c1.4,2.2,16.1,10.3,16.1,10.3c0.6-1.5,2.1-8.1,2.1-8.1c-1.6-0.8-11.7-7.1-11.7-7.1L1128.1-43.2z
				"/>
			<path class="st2" d="M1155.7-41.9c-0.2,2.2-2,8.1-2,8.1c-1.4-1-3.9-6.7-3.9-6.7c0.9-2.8,0.4-5.7,0.4-5.7L1155.7-41.9z"/>
			<path class="st31" d="M1148.6-26.2c0.3,0.6,3-1.1,3-1.1s1.3-7.3,1.1-7.6c-0.2-0.3-7.9,0.7-7.9,0.7S1148.3-26.8,1148.6-26.2z"/>
			<path class="st31" d="M1148.8-26.2c0,0,0.4,12.2,20.2,24.4c16.9,10.4,9.8,31.6,9.8,31.6c1.6,2.4,8.7,9.7,8.7,9.7
				c2.4-0.2,10.5-9.7,10.5-9.7c3.6-15.9-13.7-33.7-23.9-37.9c-17.7-7.2-22.4-19.4-22.4-19.4L1148.8-26.2z"/>
			<path class="st32" d="M1149.4-34.7c0.2-1,0.4-5.8,0.4-5.8c-0.2,1-0.6,5-0.6,5c-0.4-0.9-2.9-5.5-2.9-5.5
				C1147.8-37.4,1149.4-34.7,1149.4-34.7z"/>
			<path class="st29" d="M1175.7,42.9l-0.9,1.1c-8.9,0.3-20.7,3.6-20.7,3.6c6.2-2.1,20.5-4.5,20.5-4.5l0.7-0.9
				c1.4-0.2,10.2,0.2,9.8,0.2C1182.8,42.1,1175.6,42.9,1175.7,42.9z"/>
		</g>
		<g>
			<path class="st17" d="M1122.2-29.1c-6,1.1-28.1,8.1-26.5,23.8c2.5,25.5,47.4,12.5,47.4,12.5c-3.7,4.3,3.2,16.4,3.2,16.4
				s-65,8.2-62.3-31.9c2.1-29.8,44.1-34.8,44.1-34.8C1128.9-40,1128.1-30.2,1122.2-29.1z"/>
			<g>
				<path class="st6" d="M1163.2,27c0,0,1.1,11.5,0.1,13.4c-1.6,0.6-4.2,2.1-7,1.9c-17.7-1.5-57.8-13.9-57.8-13.9
					c-2.3-2.1-2.5-3.2-2.3-4.2c0.5-2.8,4.2-3.3,4.2-3.3c1.9,1,4.9,4.9,7.6,5.9c15.9,5.9,41,10.9,42.7,9.8c0,0,1.2-2.2,0-7.7
					C1154,27.4,1163.2,27,1163.2,27z"/>
				<path class="st7" d="M1142.4-1c0.3,2.2,7.5,27.6,9.6,28.3s8.5-0.4,7.8-2.7c-0.7-2.4-5.5-28.8-5.5-28.8
					C1148.1-4.6,1142.3-0.9,1142.4-1z"/>
				<path class="st8" d="M1164.1,28.5c-0.9,0.8-11.8,5.6-13.4,4.1c-1.6-1.5-2.4-6.5-2.4-6.5c1.6-1.6,14-4.2,14-4.2
					C1164.1,24.6,1165,27.7,1164.1,28.5z"/>
			</g>
			<path class="st19" d="M1146.2,23.5c2.5,1.1,11.6-2.5,14.3-4.3c2.7-1.8,0.1-3.8,0.1-3.8s0.3-1.3,0.3-3.9s-3.3-2.9-3.3-2.9
				s0.9-3.7-0.5-5.8c-1.3-2.1-12.2,3.8-12.2,3.8s-0.9-1.9-2-5.2c-2.1,4.1-3.2,7-3.2,7C1139.4,14.3,1143.7,22.4,1146.2,23.5z"/>
		</g>
	</g>
</g>
<path class="st5" d="M1683.6,486.5c0,0-66,7.2-57.2-41.2s65.9-27.8,65.9-27.8s-13.8-23.6,16-36.4s53.5,18,53.4,38.5
	c0,0,37-15.1,50.4,15.4s-29.4,40.8-29.4,40.8C1741,489.7,1710,486.7,1683.6,486.5z"/>
</svg>
