<?xml version="1.0" encoding="utf-8"?>
<!-- Generator: Adobe Illustrator 19.0.0, SVG Export Plug-In . SVG Version: 6.00 Build 0)  -->
<svg version="1.1" id="Objects" xmlns="http://www.w3.org/2000/svg" xmlns:xlink="http://www.w3.org/1999/xlink" x="0px" y="0px"
	 viewBox="0 0 138 198" style="enable-background:new 0 0 138 198;" xml:space="preserve">
<style type="text/css">
	
		.st0{fill-rule:evenodd;clip-rule:evenodd;fill:none;stroke:#FFFFFF;stroke-width:3.6;stroke-linecap:round;stroke-linejoin:round;stroke-miterlimit:22.9256;}
	.st1{fill-rule:evenodd;clip-rule:evenodd;fill:#FFFFFF;}
</style>
<g>
	<polyline class="st0" points="47.6,156 88.8,156 47.6,164.7 88.8,164.7 47.6,173.9 88.8,173.9 54.8,184.6 81.6,184.6 	"/>
	<path class="st1" d="M76.9,145.1l-2.9-1.7c-0.5,0.5-1,1.1-1.5,1.5l1.7,2.9c-0.7,0.5-1.4,1-2.1,1.4c-0.8,0.4-1.5,0.8-2.3,1.1
		l-1.7-2.9c-0.7,0.2-1.4,0.4-2.1,0.6v3.3c-0.8,0.1-1.7,0.2-2.6,0.2v-7.4l0.1,0h0l0,0l0.1,0l0,0l0,0l0,0l0,0l0,0l0,0l0,0l0.1,0l0,0h0
		l0,0l0.1,0l0,0l0,0l0,0l0,0l0,0l0,0l0,0l0,0l0.1,0l0,0l0,0l0.1,0l0,0h0l0.1,0l0,0l0.1,0l0,0c0.3-0.1,0.6-0.1,0.9-0.2l0,0h0v0
		c0.8-0.2,1.6-0.5,2.4-1c0.3-0.1,0.5-0.3,0.7-0.5l0,0l0,0l0,0l0,0l0,0l0,0c0.9-0.6,1.6-1.4,2.2-2.2l0.1-0.1l0,0l0,0l0,0l0,0
		c0.1-0.2,0.3-0.4,0.4-0.6c0.4-0.8,0.8-1.5,1-2.3l0,0v0l0,0l0,0l0,0v0l0,0v0l0,0l0,0l0,0v0l0,0v0l0,0v0l0,0v0l0,0l0,0l0,0v0l0,0l0,0
		l0,0v0l0,0l0,0l0,0v0l0,0l0,0l0,0l0,0l0,0v0l0,0v0l0,0l0,0l0,0v0l0,0v0l0,0h0l0,0l0,0l0,0l0,0l0,0v0l0,0l0,0l0,0l0,0l0,0v0l0,0l0,0
		l0,0v0l0,0l0,0l0,0v0l0,0l0,0l0,0v0l0,0l0,0l0,0v0l0,0l0,0l0,0v0l0,0v0l0,0l0,0l0,0l0,0l0,0v0l0,0v0l0,0l0,0l0,0v0l0,0l0,0l0,0v0
		l0,0v0l0,0v0l0,0l0,0l0,0l0,0l0,0l0,0l0,0l0,0l0,0l0,0l0,0l0,0l0,0l0,0l0,0l0,0l0,0l0,0l0,0l0,0l0,0v0l0,0l0,0v0l0,0v0l0,0v0l0,0v0
		v0v0l0,0v0l0,0l0,0l0,0l0,0l0,0l0,0l0,0l0-0.1l0,0l0,0l0,0c0-0.1,0-0.2,0-0.2l0,0l0,0l0,0l0,0l0,0c0-0.1,0-0.1,0-0.2l0,0
		c-0.1-0.5-0.1-1.1-0.3-1.6l0,0v0l0,0c-0.2-0.8-0.5-1.6-1-2.4c-0.1-0.3-0.3-0.5-0.5-0.7l0,0l0,0l0,0l0,0c-0.7-0.9-1.5-1.7-2.4-2.3
		l0,0l-0.1-0.1l-0.1-0.1l0,0l0,0c-0.1-0.1-0.3-0.2-0.4-0.3c-0.6-0.3-1.2-0.6-1.8-0.8l0,0l0,0l0,0l-0.1,0l-0.1,0l0,0l0,0l-0.1,0l0,0
		h0l0,0l-0.1,0l0,0l0,0c-0.1,0-0.1,0-0.2,0l0,0l0,0l0,0l-0.1,0l0,0l-0.1,0l-0.1,0c-0.1,0-0.1,0-0.2,0l-0.1,0l-0.2,0l-0.1,0
		c-0.1,0-0.1,0-0.2,0l0,0c-0.1,0-0.1,0-0.2,0l0,0l0,0c-0.1,0-0.1,0-0.2,0l0,0c-0.1,0-0.2,0-0.2,0h0l0,0c-0.1,0-0.2,0-0.2,0v-7.4
		c0.9,0,1.7,0.1,2.6,0.2v3.3c0.7,0.1,1.4,0.3,2.1,0.6l1.7-2.9c0.8,0.3,1.6,0.7,2.3,1.1c0.8,0.4,1.5,0.9,2.1,1.4l-1.7,2.9
		c0.5,0.5,1.1,1,1.5,1.5l2.9-1.7c0.5,0.7,1,1.4,1.4,2.1c0.4,0.8,0.8,1.5,1.1,2.3l-2.9,1.7c0.2,0.7,0.4,1.4,0.6,2.1h3.3
		c0.1,0.8,0.2,1.7,0.2,2.6c0,0.9-0.1,1.7-0.2,2.6h-3.3c-0.1,0.7-0.3,1.4-0.6,2.1l2.9,1.7c-0.3,0.8-0.7,1.6-1.1,2.3
		C77.9,143.7,77.4,144.4,76.9,145.1z M63.4,151.6c-0.9,0-1.7-0.1-2.6-0.2v-3.3c-0.7-0.1-1.4-0.3-2.1-0.6l-1.7,2.9
		c-0.8-0.3-1.6-0.7-2.3-1.1c-0.8-0.4-1.5-0.9-2.1-1.4l1.7-2.9c-0.5-0.5-1.1-1-1.5-1.5l-2.9,1.7c-0.5-0.7-1-1.4-1.4-2.1
		c-0.4-0.8-0.8-1.5-1.1-2.3l2.9-1.7c-0.2-0.7-0.4-1.4-0.6-2.1h-3.3c-0.1-0.8-0.2-1.7-0.2-2.6c0-0.9,0.1-1.7,0.2-2.6h3.3
		c0.1-0.7,0.3-1.4,0.6-2.1l-2.9-1.7c0.3-0.8,0.7-1.6,1.1-2.3c0.4-0.8,0.9-1.5,1.4-2.1l2.9,1.7c0.5-0.5,1-1.1,1.5-1.5l-1.7-2.9
		c0.7-0.5,1.4-1,2.1-1.4c0.8-0.4,1.5-0.8,2.3-1.1l1.7,2.9c0.7-0.2,1.4-0.4,2.1-0.6v-3.3c0.8-0.1,1.7-0.2,2.6-0.2v7.4l-0.1,0h0l0,0
		l-0.1,0l0,0l0,0l0,0l0,0l0,0l0,0l0,0l-0.1,0l0,0h0l0,0l-0.1,0l0,0l0,0l0,0l0,0l0,0l0,0l0,0l0,0l-0.1,0l0,0l0,0l-0.1,0l0,0h0l-0.1,0
		l0,0l-0.1,0l0,0c-0.3,0.1-0.6,0.1-0.9,0.2v0h0l0,0c-0.8,0.2-1.6,0.5-2.4,1c-0.2,0.1-0.4,0.2-0.6,0.3l0,0l0,0l0,0l0,0l0,0l0,0l0,0
		l0,0l0,0c-0.9,0.6-1.7,1.4-2.3,2.3l-0.1,0.1l0,0l0,0l0,0l0,0c-0.1,0.2-0.3,0.4-0.4,0.6c-0.4,0.8-0.8,1.5-1,2.3l0,0l0,0l0,0l0,0l0,0
		v0l0,0l0,0l0,0h0l0,0v0l0,0v0l0,0v0l0,0l0,0l0,0l0,0l0,0v0l0,0l0,0l0,0l0,0l0,0.1v0l0,0l0,0l0,0.1l0,0l0,0l0,0l0,0v0l0,0l0,0l0,0h0
		l0,0v0l0,0v0l0,0l0,0l0,0l0,0l0,0l0,0l0,0l0,0l0,0l0,0l0,0v0l0,0v0l0,0l0,0l0,0l0,0l0,0l0,0l0,0l0,0l0,0l0,0l0,0v0l0,0l0,0l0,0l0,0
		l0,0l0,0l0,0l0,0l0,0l0,0l0,0l0,0l0,0v0l0,0l0,0l0,0l0,0l0,0l0,0l0,0l0,0l0,0v0l0,0v0l0,0l0,0l0,0l0,0l0,0l0,0l0,0l0,0l0,0l0,0l0,0
		l0,0l0,0l0,0l0,0l0,0l0,0l0,0l0,0v0l0,0v0l0,0l0,0v0v0v0l0,0l0,0l0,0l0,0v0v0l0,0v0l0,0l0,0l0,0l0,0l0,0l0,0l0,0l0,0.1l0,0l0,0l0,0
		c0,0.1,0,0.2,0,0.2v0l0,0l0,0l0,0v0c0,0.1,0,0.1,0,0.2l0,0c0.1,0.5,0.2,1.1,0.3,1.6h0l0,0h0c0.2,0.8,0.5,1.6,1,2.4
		c0.2,0.3,0.3,0.5,0.5,0.8l0,0l0,0l0,0c0.7,0.9,1.5,1.7,2.4,2.3l0,0l0.1,0.1l0.1,0.1l0,0l0,0c0.1,0.1,0.3,0.2,0.4,0.3
		c0.6,0.3,1.2,0.6,1.8,0.8l0,0l0,0l0,0l0.1,0l0.1,0l0,0l0,0l0.1,0l0,0l0,0l0,0l0.1,0l0,0l0,0c0.1,0,0.1,0,0.2,0l0,0l0,0l0,0l0.1,0
		l0,0l0.1,0l0.1,0c0.1,0,0.1,0,0.2,0l0.1,0l0.2,0l0.1,0c0.1,0,0.1,0,0.2,0l0,0c0.1,0,0.1,0,0.2,0l0,0l0,0c0.1,0,0.1,0,0.2,0l0,0
		c0.1,0,0.2,0,0.2,0l0,0h0c0.1,0,0.2,0,0.2,0V151.6z"/>
	<path class="st1" d="M78.7,22.7c-0.1,0.1-0.3,0.2-0.4,0.3L77.3,22c-0.1,0.1-0.2,0.1-0.4,0.2l0.5,1.3c-0.2,0.1-0.3,0.2-0.5,0.2
		c-0.2,0.1-0.3,0.1-0.5,0.2L76,22.6c-0.1,0-0.3,0.1-0.4,0.1V24c-0.2,0-0.4,0-0.5,0V21c1.4,0,2.6-1.2,2.6-2.6c0-1.4-1.2-2.6-2.6-2.6
		v-3.1c0.2,0,0.4,0,0.5,0v1.4c0.1,0,0.3,0,0.4,0.1l0.5-1.3c0.2,0,0.3,0.1,0.5,0.2c0.2,0.1,0.3,0.1,0.5,0.2L77,14.6
		c0.1,0.1,0.2,0.1,0.4,0.2l0.9-1.1c0.1,0.1,0.3,0.2,0.4,0.3c0.1,0.1,0.3,0.2,0.4,0.4l-0.9,1.1c0.1,0.1,0.2,0.2,0.3,0.3l1.2-0.7
		c0.1,0.1,0.2,0.3,0.3,0.4c0.1,0.2,0.2,0.3,0.2,0.5L79,16.7c0.1,0.1,0.1,0.3,0.1,0.4l1.4-0.2c0.1,0.2,0.1,0.3,0.1,0.5
		c0,0.2,0.1,0.4,0.1,0.5l-1.4,0.2c0,0.1,0,0.1,0,0.2c0,0.1,0,0.1,0,0.2l1.4,0.2c0,0.2,0,0.4-0.1,0.5c0,0.2-0.1,0.4-0.1,0.5l-1.4-0.2
		c0,0.1-0.1,0.3-0.1,0.4l1.2,0.7c-0.1,0.2-0.1,0.3-0.2,0.5c-0.1,0.2-0.2,0.3-0.3,0.4L78.4,21c-0.1,0.1-0.2,0.2-0.3,0.3l0.9,1.1
		C78.9,22.5,78.8,22.6,78.7,22.7z M75,24.1c-0.2,0-0.4,0-0.5,0v-1.4c-0.1,0-0.3,0-0.4-0.1l-0.5,1.3c-0.2,0-0.3-0.1-0.5-0.2
		c-0.2-0.1-0.3-0.1-0.5-0.2l0.5-1.3c-0.1-0.1-0.2-0.1-0.4-0.2l-0.9,1.1c-0.1-0.1-0.3-0.2-0.4-0.3c-0.1-0.1-0.3-0.2-0.4-0.4l0.9-1.1
		c-0.1-0.1-0.2-0.2-0.3-0.3l-1.2,0.7c-0.1-0.1-0.2-0.3-0.3-0.4c-0.1-0.2-0.2-0.3-0.2-0.5l1.2-0.7c-0.1-0.1-0.1-0.3-0.1-0.4l-1.4,0.2
		c-0.1-0.2-0.1-0.3-0.1-0.5c0-0.2-0.1-0.4-0.1-0.5l1.4-0.2c0-0.1,0-0.1,0-0.2c0-0.1,0-0.1,0-0.2l-1.4-0.2c0-0.2,0-0.4,0.1-0.5
		c0-0.2,0.1-0.4,0.1-0.5l1.4,0.2c0-0.1,0.1-0.3,0.1-0.4L69.8,16c0.1-0.2,0.1-0.3,0.2-0.5c0.1-0.2,0.2-0.3,0.3-0.4l1.2,0.7
		c0.1-0.1,0.2-0.2,0.3-0.3L71,14.4c0.1-0.1,0.3-0.3,0.4-0.4c0.1-0.1,0.3-0.2,0.4-0.3l0.9,1.1c0.1-0.1,0.2-0.1,0.4-0.2l-0.5-1.3
		c0.2-0.1,0.3-0.2,0.5-0.2c0.2-0.1,0.3-0.1,0.5-0.2l0.5,1.3c0.1,0,0.3-0.1,0.4-0.1v-1.4c0.2,0,0.4,0,0.5,0v3.1
		c-1.4,0-2.6,1.2-2.6,2.6c0,1.4,1.2,2.6,2.6,2.6V24.1z"/>
	<path class="st1" d="M44.1,56.4V45.9c1.7,0,3.1-1.4,3.1-3.1c0-1.7-1.4-3.1-3.1-3.1V29.2c0.1,0.1,0.2,0.1,0.4,0.2
		c0.7,0.4,1.3,0.8,1.9,1.3l-1.5,2.6c0.5,0.4,1,0.9,1.4,1.4l2.6-1.5c0.5,0.6,0.9,1.2,1.3,1.9c0.4,0.7,0.7,1.4,1,2.1l-2.6,1.5
		c0.2,0.6,0.4,1.2,0.5,1.9h3c0.1,0.7,0.2,1.5,0.2,2.3c0,0.8-0.1,1.5-0.2,2.3h-3c-0.1,0.6-0.3,1.3-0.5,1.9l2.6,1.5
		c-0.3,0.7-0.6,1.4-1,2.1c-0.4,0.7-0.8,1.3-1.3,1.9l-2.6-1.5c-0.4,0.5-0.9,1-1.4,1.4l1.5,2.6c-0.6,0.5-1.2,0.9-1.9,1.3
		C44.3,56.3,44.2,56.4,44.1,56.4z M36.7,40.7c1.1,0,2.1,0.9,2.1,2.1c0,1.1-0.9,2.1-2.1,2.1v2.2c1.7,0,3.1,1.4,3.1,3.1
		c0,1.7-1.4,3.1-3.1,3.1v5c0.8,0,1.5-0.1,2.3-0.2v-3c0.6-0.1,1.3-0.3,1.9-0.5l1.5,2.6c0.6-0.2,1.2-0.5,1.7-0.8V45.9
		c-1.7,0-3.1-1.4-3.1-3.1c0-1.7,1.4-3.1,3.1-3.1V29.2c-0.6-0.3-1.1-0.6-1.7-0.8L40.8,31c-0.6-0.2-1.2-0.4-1.9-0.5v-3
		c-0.7-0.1-1.5-0.2-2.3-0.2v5c1.7,0,3.1,1.4,3.1,3.1c0,1.7-1.4,3.1-3.1,3.1V40.7z M36.7,44.9c-1.1,0-2.1-0.9-2.1-2.1
		c0-1.1,0.9-2.1,2.1-2.1v-2.2c-1.7,0-3.1-1.4-3.1-3.1c0-1.7,1.4-3.1,3.1-3.1v-5c-0.8,0-1.5,0.1-2.3,0.2v3c-0.6,0.1-1.3,0.3-1.9,0.5
		L31,28.4c-0.6,0.2-1.2,0.5-1.7,0.8v10.5h0c1.7,0,3.1,1.4,3.1,3.1c0,1.7-1.4,3.1-3.1,3.1h0v10.5c0.6,0.3,1.1,0.6,1.7,0.8l1.5-2.6
		c0.6,0.2,1.2,0.4,1.9,0.5v3c0.7,0.1,1.5,0.2,2.3,0.2v-5c-1.7,0-3.1-1.4-3.1-3.1c0-1.7,1.4-3.1,3.1-3.1V44.9z M29.3,29.2v10.5
		c-1.7,0-3.1,1.4-3.1,3.1c0,1.7,1.4,3.1,3.1,3.1v10.5c-0.1-0.1-0.2-0.1-0.4-0.2c-0.7-0.4-1.3-0.8-1.9-1.3l1.5-2.6
		c-0.5-0.4-1-0.9-1.4-1.4l-2.6,1.5c-0.5-0.6-0.9-1.2-1.3-1.9c-0.4-0.7-0.7-1.4-1-2.1l2.6-1.5c-0.2-0.6-0.4-1.2-0.5-1.9h-3
		c-0.1-0.7-0.2-1.5-0.2-2.3c0-0.8,0.1-1.5,0.2-2.3h3c0.1-0.6,0.3-1.3,0.5-1.9l-2.6-1.5c0.3-0.7,0.6-1.4,1-2.1
		c0.4-0.7,0.8-1.3,1.3-1.9l2.6,1.5c0.4-0.5,0.9-1,1.4-1.4L27,30.7c0.6-0.5,1.2-0.9,1.9-1.3C29,29.3,29.2,29.2,29.3,29.2z"/>
	<path class="st1" d="M96.3,91.5l-1.5-1.8v-5.2c1.7-1.4,3.2-3.1,4.4-4.9l-4.4-2.5v-3.3l5.8,3.4c1.4-2.7,2.2-5.8,2.4-9h-8.2v-2.8h8.2
		c-0.2-3.2-1-6.2-2.4-9l-5.8,3.4v-3.3l4.4-2.5c-1.2-1.8-2.7-3.5-4.4-4.9v-5.2l1.5-1.8c1.8,1.2,3.5,2.6,5,4.2l-2.2,2.7
		c0.6,0.6,1.1,1.3,1.7,2l3-1.7c1.3,1.8,2.4,3.7,3.3,5.7l-3,1.7c0.3,0.8,0.6,1.6,0.9,2.4l3.4-0.6c0.6,2.1,1,4.2,1.1,6.5l-3.4,0.6
		c0,0.4,0,0.9,0,1.3c0,0.4,0,0.9,0,1.3l3.4,0.6c-0.1,2.2-0.5,4.4-1.1,6.5l-3.4-0.6c-0.3,0.8-0.6,1.6-0.9,2.4l3,1.7
		c-0.9,2-2,3.9-3.3,5.7l-3-1.7c-0.5,0.7-1.1,1.4-1.7,2l2.2,2.7C99.8,88.9,98.1,90.3,96.3,91.5z M94.8,89.8L94,88.9
		c-0.7,0.5-1.5,0.9-2.2,1.3l1.2,3.3c-1.5,0.7-3,1.3-4.6,1.8v-6.9c0.6-0.2,1.2-0.5,1.8-0.8l-1.8-3.1v-5.7l4.2,7.4
		c0.8-0.5,1.5-1,2.2-1.6V89.8L94.8,89.8z M88.4,38.2c1.6,0.5,3.1,1.1,4.6,1.8l-1.2,3.3c0.8,0.4,1.5,0.8,2.2,1.3l0.7-0.9V49
		c-0.7-0.6-1.4-1.1-2.2-1.6l-4.2,7.4V49l1.8-3.1c-0.6-0.3-1.2-0.6-1.8-0.8V38.2L88.4,38.2z M94.8,56.4v3.3l-6.4,3.7v-3.3L94.8,56.4
		L94.8,56.4z M94.8,65.3v2.8h-6.4v-2.8H94.8L94.8,65.3z M94.8,73.8v3.3l-6.4-3.7v-3.3L94.8,73.8z M88.4,95.3c-0.5,0.2-1,0.3-1.6,0.4
		l-1.1-3.1v-3.3c0.9-0.2,1.8-0.5,2.7-0.9V95.3L88.4,95.3z M85.7,40.9l1.1-3.1c0.5,0.1,1,0.3,1.6,0.4v6.9c-0.9-0.3-1.8-0.6-2.7-0.9
		V40.9L85.7,40.9z M88.4,49v5.7l-2.7,4.7v-5.7L88.4,49L88.4,49z M88.4,60.2v3.3l-1.8,1c0.1,0.3,0.2,0.6,0.2,0.9h1.6v2.8h-1.6
		c-0.1,0.3-0.1,0.6-0.2,0.9l1.8,1v3.3l-2.7-1.6V61.7L88.4,60.2L88.4,60.2z M88.4,78.8v5.7l-2.7-4.7v-5.7L88.4,78.8z M85.7,92.6
		l-0.1-0.2c-0.8,0.2-1.7,0.3-2.6,0.4v3.5c-1.1,0.1-2.2,0.2-3.3,0.2v-25c2.6,0,4.7-2.1,4.7-4.7c0-2.6-2.1-4.7-4.7-4.7V37
		c1.1,0,2.2,0.1,3.3,0.2v3.5c0.9,0.1,1.7,0.3,2.6,0.4l0.1-0.2v3.3c-1.4-0.4-2.9-0.6-4.5-0.7v16.2c0.3,0.1,0.6,0.1,0.9,0.2l3.6-6.3
		v5.7l-1.2,2c0.2,0.2,0.4,0.4,0.6,0.6l0.5-0.3v10.1l-0.5-0.3c-0.2,0.2-0.4,0.4-0.6,0.6l1.2,2v5.7L82,73.6c-0.3,0.1-0.6,0.2-0.9,0.2
		V90c1.5-0.1,3-0.3,4.5-0.7V92.6z M79.8,96.5c-1.1,0-2.2-0.1-3.3-0.2v-3.5c-0.9-0.1-1.7-0.3-2.6-0.4l-0.1,0.2v-3.3
		c1.4,0.4,2.9,0.6,4.5,0.7V73.8c-0.3-0.1-0.6-0.1-0.9-0.2l-3.6,6.3v-5.7l1.2-2c-0.2-0.2-0.4-0.4-0.6-0.6l-0.5,0.3V61.7l0.5,0.3
		c0.2-0.2,0.4-0.4,0.6-0.6l-1.2-2v-5.7l3.6,6.3c0.3-0.1,0.6-0.2,0.9-0.2V43.5c-1.5,0.1-3,0.3-4.5,0.7v-3.3l0.1,0.2
		c0.8-0.2,1.7-0.3,2.6-0.4v-3.5c1.1-0.1,2.2-0.2,3.3-0.2v25c-2.6,0-4.7,2.1-4.7,4.7c0,2.6,2.1,4.7,4.7,4.7V96.5z M73.9,92.6
		l-1.1,3.1c-0.5-0.1-1-0.3-1.6-0.4v-6.9c0.9,0.3,1.8,0.6,2.7,0.9V92.6L73.9,92.6z M71.2,38.2c0.5-0.2,1-0.3,1.6-0.4l1.1,3.1v3.3
		c-0.9,0.2-1.8,0.5-2.7,0.9V38.2L71.2,38.2z M73.9,53.7v5.7l-2.7-4.7V49L73.9,53.7L73.9,53.7z M73.9,61.7v10.1l-2.7,1.6v-3.3l1.8-1
		c-0.1-0.3-0.2-0.6-0.2-0.9h-1.6v-2.8h1.6c0.1-0.3,0.1-0.6,0.2-0.9l-1.8-1v-3.3L73.9,61.7L73.9,61.7z M73.9,74.1v5.7l-2.7,4.7v-5.7
		L73.9,74.1z M71.2,95.3c-1.6-0.5-3.1-1.1-4.6-1.8l1.2-3.3c-0.8-0.4-1.5-0.8-2.2-1.3l-0.7,0.9v-5.2c0.7,0.6,1.4,1.1,2.2,1.6l4.2-7.4
		v5.7l-1.8,3.1c0.6,0.3,1.2,0.6,1.8,0.8V95.3L71.2,95.3z M64.7,43.7l0.7,0.9c0.7-0.5,1.5-0.9,2.2-1.3l-1.2-3.3
		c1.5-0.7,3-1.3,4.6-1.8v6.9c-0.6,0.2-1.2,0.5-1.8,0.8l1.8,3.1v5.7l-4.2-7.4c-0.8,0.5-1.5,1-2.2,1.6V43.7L64.7,43.7z M71.2,60.2v3.3
		l-6.4-3.7v-3.3L71.2,60.2L71.2,60.2z M71.2,65.3v2.8h-6.4v-2.8H71.2L71.2,65.3z M71.2,70.1v3.3l-6.4,3.7v-3.3L71.2,70.1z
		 M64.7,89.8l-1.5,1.8c-1.8-1.2-3.5-2.6-5-4.2l2.2-2.7c-0.6-0.6-1.1-1.3-1.7-2l-3,1.7c-1.3-1.8-2.4-3.7-3.3-5.7l3-1.7
		c-0.3-0.8-0.6-1.6-0.9-2.4l-3.4,0.6c-0.6-2.1-1-4.2-1.1-6.5l3.4-0.6c0-0.4,0-0.9,0-1.3c0-0.4,0-0.9,0-1.3L50,64.9
		c0.1-2.2,0.5-4.4,1.1-6.5l3.4,0.6c0.3-0.8,0.6-1.6,0.9-2.4l-3-1.7c0.9-2,2-3.9,3.3-5.7l3,1.7c0.5-0.7,1.1-1.4,1.7-2l-2.2-2.7
		c1.5-1.6,3.2-3,5-4.2l1.5,1.8V49c-1.7,1.4-3.2,3.1-4.4,4.9l4.4,2.5v3.3l-5.8-3.4c-1.4,2.7-2.2,5.8-2.4,9h8.2v2.8h-8.2
		c0.2,3.2,1,6.2,2.4,9l5.8-3.4v3.3l-4.4,2.5c1.2,1.8,2.7,3.5,4.4,4.9V89.8z"/>
	<path class="st1" d="M42,68.8c0.2,0.1,0.3,0.3,0.4,0.4l2.7-1.5c0.6,0.7,1.2,1.4,1.6,2.2c0.5,0.8,0.8,1.7,1.1,2.5l-2.7,1.5
		c0.2,0.8,0.3,1.6,0.3,2.5c0,0.8-0.1,1.7-0.3,2.5l2.7,1.5c-0.3,0.9-0.6,1.7-1.1,2.5c-0.5,0.8-1,1.6-1.6,2.2l-2.7-1.5
		c-0.1,0.1-0.3,0.3-0.4,0.4v-4.2c0-0.1,0-0.2,0-0.2v-2.8c0.2,0,0.4-0.1,0.5-0.3c0.1-0.3,0-0.6-0.2-0.7c-0.1,0-0.2-0.1-0.3-0.1v-2.5
		c0-0.1,0-0.2,0-0.2V68.8z M41.1,68.1c0.3,0.2,0.6,0.4,0.9,0.7V73c0-0.1-0.1-0.2-0.1-0.3c-0.2-0.3-0.5-0.4-0.8-0.4V68.1L41.1,68.1z
		 M42,84c-0.3,0.2-0.6,0.5-0.9,0.7v-4.1c0.3,0,0.6-0.2,0.8-0.4c0.1-0.1,0.1-0.2,0.1-0.3V84L42,84z M42,73.2v2.5
		c-0.2,0-0.4,0.1-0.5,0.3c-0.1,0.3,0,0.6,0.2,0.7c0.1,0,0.2,0.1,0.3,0.1v2.8c0-0.3-0.2-0.5-0.4-0.7c-0.1-0.1-0.3-0.1-0.4-0.1V74
		c0.2,0,0.3,0,0.4-0.1C41.8,73.7,42,73.5,42,73.2z M38.6,66.8c0.9,0.3,1.8,0.7,2.5,1.3v4.1c-0.2,0-0.3,0-0.4,0.1
		c-0.4,0.2-0.6,0.8-0.3,1.2c0.2,0.3,0.5,0.4,0.8,0.4v4.8c-0.3,0-0.6,0.2-0.8,0.4c-0.2,0.4-0.1,1,0.3,1.2c0.1,0.1,0.3,0.1,0.4,0.1
		v4.1c-0.8,0.5-1.6,1-2.5,1.3v-3.4c0.3,0.1,0.6,0,0.7-0.2c0.1-0.3,0-0.6-0.2-0.7c-0.2-0.1-0.3-0.1-0.5,0V71.2c0.2,0,0.4-0.1,0.5-0.3
		c0.1-0.3,0-0.6-0.2-0.7c-0.1,0-0.2-0.1-0.3-0.1V66.8z M38.2,66.7c0.1,0,0.3,0.1,0.4,0.1v3.2c-0.2,0-0.4,0.1-0.5,0.3
		c-0.1,0.3,0,0.6,0.2,0.7c0.1,0,0.2,0.1,0.3,0.1v10.3c-0.1,0-0.2,0.1-0.2,0.2c-0.1,0.3,0,0.6,0.2,0.7l0,0v3.4
		c-0.1,0-0.3,0.1-0.4,0.1v3.1c-0.9,0.2-1.8,0.3-2.7,0.3v-5.6c0.5,0,0.9-0.4,0.9-0.9c0-0.5-0.4-0.9-0.9-0.9v-2.7c1.7,0,3-1.4,3-3
		c0-1.7-1.4-3-3-3v-2.7c0.5,0,0.9-0.4,0.9-0.9c0-0.5-0.4-0.9-0.9-0.9v-5.6c0.9,0,1.9,0.1,2.7,0.3V66.7z M35.4,89.4
		c-0.9,0-1.9-0.1-2.7-0.3V86c-0.1,0-0.3-0.1-0.4-0.1v-3.2c0.2,0,0.4-0.1,0.5-0.3c0.1-0.3,0-0.6-0.2-0.7c-0.1,0-0.2-0.1-0.3-0.1V71.2
		c0.1,0,0.2-0.1,0.2-0.2c0.1-0.3,0-0.6-0.2-0.7l0,0v-3.4c0.1,0,0.3-0.1,0.4-0.1v-3.1c0.9-0.2,1.8-0.3,2.7-0.3v5.6
		c-0.5,0-0.9,0.4-0.9,0.9c0,0.5,0.4,0.9,0.9,0.9v2.7c-1.7,0-3,1.4-3,3c0,1.7,1.4,3,3,3v2.7c-0.5,0-0.9,0.4-0.9,0.9
		c0,0.5,0.4,0.9,0.9,0.9V89.4z M32.3,85.9c-0.9-0.3-1.8-0.7-2.5-1.3v-4.1c0.2,0,0.3,0,0.4-0.1c0.4-0.2,0.6-0.8,0.3-1.2
		c-0.2-0.3-0.5-0.4-0.8-0.4V74c0.3,0,0.6-0.2,0.8-0.4c0.2-0.4,0.1-1-0.3-1.2c-0.1-0.1-0.3-0.1-0.4-0.1v-4.1c0.8-0.5,1.6-1,2.5-1.3
		v3.4c-0.3-0.1-0.6,0-0.7,0.2c-0.1,0.3,0,0.6,0.2,0.7c0.2,0.1,0.3,0.1,0.5,0v10.3c-0.2,0-0.4,0.1-0.5,0.3c-0.1,0.3,0,0.6,0.2,0.7
		c0.1,0,0.2,0.1,0.3,0.1V85.9z M29.7,84.7c-0.3-0.2-0.6-0.4-0.9-0.7v-4.2c0,0.1,0.1,0.2,0.1,0.3c0.2,0.3,0.5,0.4,0.8,0.4V84.7
		L29.7,84.7z M28.9,68.8c0.3-0.2,0.6-0.5,0.9-0.7v4.1c-0.3,0-0.6,0.2-0.8,0.4c-0.1,0.1-0.1,0.2-0.1,0.3V68.8L28.9,68.8z M29.7,74
		v4.8c-0.2,0-0.3,0-0.4,0.1c-0.2,0.1-0.4,0.4-0.4,0.7V77c0.2,0,0.4-0.1,0.5-0.3c0.1-0.3,0-0.6-0.2-0.7C29,76,29,76,28.9,76v-2.8
		c0,0.3,0.2,0.5,0.4,0.7C29.4,73.9,29.6,74,29.7,74z M28.9,84c-0.1-0.1-0.3-0.3-0.4-0.4l-2.7,1.5c-0.6-0.7-1.2-1.4-1.6-2.2
		c-0.5-0.8-0.8-1.7-1.1-2.5l2.7-1.5c-0.2-0.8-0.3-1.6-0.3-2.5c0-0.8,0.1-1.7,0.3-2.5L23,72.4c0.3-0.9,0.6-1.7,1.1-2.5
		c0.5-0.8,1-1.6,1.6-2.2l2.7,1.5c0.1-0.1,0.3-0.3,0.4-0.4V73c0,0.1,0,0.2,0,0.2V76c-0.2,0-0.4,0.1-0.5,0.3c-0.1,0.3,0,0.6,0.2,0.7
		c0.1,0,0.2,0.1,0.3,0.1v2.5c0,0.1,0,0.2,0,0.2V84z"/>
	<path class="st1" d="M126.1,67.8l-1.5-0.9c-0.2,0.3-0.5,0.5-0.8,0.8l0.9,1.5c-0.3,0.3-0.7,0.5-1.1,0.7c-0.4,0.2-0.8,0.4-1.2,0.6
		l-0.9-1.5c-0.3,0.1-0.7,0.2-1.1,0.3V71c-0.4,0.1-0.9,0.1-1.3,0.1v-3.8l0.1,0h0h0l0.1,0l0,0h0l0,0l0,0h0l0,0l0,0l0,0l0,0l0,0l0,0
		l0,0h0l0,0l0,0l0,0l0,0l0,0l0,0l0,0l0,0l0,0l0,0l0,0l0,0h0l0.1,0l0,0l0.1,0l0,0c0.2,0,0.3-0.1,0.5-0.1v0h0v0
		c0.4-0.1,0.8-0.3,1.2-0.5c0.1-0.1,0.3-0.2,0.4-0.2l0,0l0,0l0,0l0,0l0,0l0,0c0.4-0.3,0.8-0.7,1.1-1.2l0,0l0,0l0,0l0,0l0,0
		c0.1-0.1,0.1-0.2,0.2-0.3c0.2-0.4,0.4-0.8,0.5-1.2l0,0v0l0,0v0l0,0v0l0,0l0,0l0,0l0,0l0,0l0,0l0,0l0,0l0,0l0,0l0,0l0,0l0,0l0,0l0,0
		l0,0l0,0l0,0l0,0l0,0l0,0v0l0,0h0l0,0v0l0,0l0,0l0,0l0,0l0,0v0l0,0v0l0,0l0,0l0,0l0,0l0,0l0,0l0,0v0l0,0l0,0l0,0h0l0,0v0l0,0v0l0,0
		v0l0,0l0,0l0,0v0l0,0l0,0l0,0l0,0l0,0l0,0l0,0l0,0l0,0l0,0l0,0l0,0l0,0l0,0l0,0v0l0,0l0,0l0,0v0l0,0v0l0,0l0,0l0,0v0l0,0v0l0,0l0,0
		l0,0l0,0l0,0l0,0l0,0v0l0,0l0,0l0,0l0,0l0,0l0,0l0,0l0,0l0,0l0,0l0,0l0,0l0,0l0,0l0,0l0,0v0l0,0l0,0l0,0v0l0,0l0,0l0,0v0l0,0v0l0,0
		v0l0,0l0,0l0,0l0,0l0,0v0l0,0v0v0l0,0l0,0l0,0v0l0,0v0l0,0l0,0l0,0l0,0c0,0,0-0.1,0-0.1l0,0l0,0l0,0l0,0l0,0c0,0,0-0.1,0-0.1l0,0
		c0-0.3-0.1-0.5-0.1-0.8l0,0v0l0,0c-0.1-0.4-0.3-0.8-0.5-1.2c-0.1-0.1-0.2-0.3-0.2-0.4l0,0l0,0l0,0l0,0c-0.3-0.5-0.8-0.9-1.2-1.2
		l0,0l-0.1,0l0,0l0,0l0,0c-0.1,0-0.1-0.1-0.2-0.1c-0.3-0.2-0.6-0.3-1-0.4l0,0l0,0l0,0l0,0l-0.1,0l0,0l0,0l-0.1,0l0,0h0l0,0l-0.1,0
		l0,0l0,0c0,0-0.1,0-0.1,0l0,0l0,0l0,0l-0.1,0l0,0l-0.1,0l0,0c0,0-0.1,0-0.1,0l0,0l-0.1,0l0,0c0,0-0.1,0-0.1,0l0,0c0,0-0.1,0-0.1,0
		l0,0l0,0c0,0-0.1,0-0.1,0l0,0c0,0-0.1,0-0.1,0l0,0h0c0,0-0.1,0-0.1,0v-3.8c0.4,0,0.9,0,1.3,0.1v1.7c0.4,0.1,0.7,0.2,1.1,0.3
		l0.9-1.5c0.4,0.2,0.8,0.4,1.2,0.6c0.4,0.2,0.8,0.5,1.1,0.7l-0.9,1.5c0.3,0.2,0.5,0.5,0.8,0.8l1.5-0.9c0.3,0.3,0.5,0.7,0.7,1.1
		c0.2,0.4,0.4,0.8,0.6,1.2l-1.5,0.9c0.1,0.3,0.2,0.7,0.3,1.1h1.7c0.1,0.4,0.1,0.9,0.1,1.3s0,0.9-0.1,1.3h-1.7
		c-0.1,0.4-0.2,0.7-0.3,1.1l1.5,0.9c-0.2,0.4-0.4,0.8-0.6,1.2C126.7,67.1,126.4,67.4,126.1,67.8z M119.2,71.1c-0.4,0-0.9,0-1.3-0.1
		v-1.7c-0.4-0.1-0.7-0.2-1.1-0.3l-0.9,1.5c-0.4-0.2-0.8-0.4-1.2-0.6c-0.4-0.2-0.8-0.5-1.1-0.7l0.9-1.5c-0.3-0.2-0.5-0.5-0.8-0.8
		l-1.5,0.9c-0.3-0.3-0.5-0.7-0.7-1.1c-0.2-0.4-0.4-0.8-0.6-1.2l1.5-0.9c-0.1-0.3-0.2-0.7-0.3-1.1h-1.7c-0.1-0.4-0.1-0.9-0.1-1.3
		s0-0.9,0.1-1.3h1.7c0.1-0.4,0.2-0.7,0.3-1.1l-1.5-0.9c0.2-0.4,0.4-0.8,0.6-1.2c0.2-0.4,0.5-0.8,0.7-1.1l1.5,0.9
		c0.2-0.3,0.5-0.5,0.8-0.8l-0.9-1.5c0.3-0.3,0.7-0.5,1.1-0.7c0.4-0.2,0.8-0.4,1.2-0.6l0.9,1.5c0.3-0.1,0.7-0.2,1.1-0.3v-1.7
		c0.4-0.1,0.9-0.1,1.3-0.1v3.8h-0.1h0h0l-0.1,0h0h0l0,0l0,0l0,0h0l0,0l0,0l0,0h0l0,0l0,0l0,0l0,0l0,0l0,0l0,0l0,0l0,0l0,0l0,0l0,0
		l0,0l0,0l0,0h0l-0.1,0l0,0l-0.1,0l0,0c-0.2,0-0.3,0.1-0.5,0.1l0,0l0,0l0,0c-0.4,0.1-0.8,0.3-1.2,0.5c-0.1,0.1-0.2,0.1-0.3,0.2l0,0
		l0,0l0,0l0,0l0,0l0,0l0,0l0,0l0,0c-0.5,0.3-0.9,0.7-1.2,1.2l0,0l0,0l0,0l0,0l0,0c-0.1,0.1-0.1,0.2-0.2,0.3
		c-0.2,0.4-0.4,0.8-0.5,1.2l0,0v0l0,0l0,0l0,0l0,0l0,0h0l0,0v0l0,0l0,0l0,0h0l0,0v0l0,0l0,0l0,0l0,0l0,0v0l0,0v0l0,0l0,0l0,0l0,0
		l0,0l0,0l0,0v0l0,0v0l0,0l0,0l0,0l0,0l0,0l0,0l0,0v0l0,0l0,0l0,0l0,0l0,0h0l0,0l0,0l0,0l0,0l0,0l0,0l0,0l0,0l0,0l0,0l0,0l0,0l0,0
		l0,0l0,0v0l0,0v0l0,0l0,0l0,0l0,0l0,0l0,0l0,0v0l0,0l0,0l0,0h0l0,0h0l0,0v0l0,0l0,0l0,0v0l0,0l0,0l0,0l0,0l0,0l0,0l0,0v0l0,0v0l0,0
		l0,0l0,0l0,0l0,0v0l0,0l0,0l0,0l0,0v0l0,0l0,0l0,0l0,0l0,0l0,0v0v0v0v0l0,0l0,0l0,0v0v0v0l0,0v0l0,0v0l0,0v0l0,0v0l0,0l0,0v0l0,0v0
		l0,0l0,0l0,0l0,0l0,0l0,0c0,0,0,0.1,0,0.1l0,0l0,0l0,0l0,0l0,0c0,0,0,0.1,0,0.1v0c0,0.3,0.1,0.5,0.1,0.8l0,0v0l0,0
		c0.1,0.4,0.3,0.8,0.5,1.2c0.1,0.1,0.2,0.3,0.2,0.4l0,0l0,0l0,0c0.3,0.5,0.8,0.9,1.2,1.2l0,0l0.1,0l0,0l0,0l0,0
		c0.1,0,0.1,0.1,0.2,0.1c0.3,0.2,0.6,0.3,1,0.4l0,0l0,0l0,0l0,0l0.1,0l0,0l0,0l0.1,0l0,0l0,0l0,0l0.1,0l0,0l0,0c0,0,0.1,0,0.1,0l0,0
		l0,0l0,0l0.1,0l0,0l0.1,0l0,0c0,0,0.1,0,0.1,0l0,0l0.1,0l0,0c0,0,0.1,0,0.1,0l0,0c0,0,0.1,0,0.1,0l0,0h0c0,0,0.1,0,0.1,0l0,0
		c0,0,0.1,0,0.1,0l0,0h0c0,0,0.1,0,0.1,0V71.1z"/>
	<path class="st1" d="M97.4,36.3v-6.9c1.1,0,2-0.9,2-2c0-1.1-0.9-2-2-2v-6.9c0.1,0,0.2,0.1,0.2,0.1c0.4,0.3,0.9,0.5,1.2,0.8l-1,1.7
		c0.3,0.3,0.6,0.6,0.9,0.9l1.7-1c0.3,0.4,0.6,0.8,0.8,1.2c0.3,0.4,0.5,0.9,0.7,1.3l-1.7,1c0.1,0.4,0.2,0.8,0.3,1.2h2
		c0.1,0.5,0.1,1,0.1,1.5c0,0.5,0,1-0.1,1.5h-2c-0.1,0.4-0.2,0.8-0.3,1.2l1.7,1c-0.2,0.5-0.4,0.9-0.7,1.3c-0.3,0.4-0.5,0.9-0.8,1.2
		l-1.7-1c-0.3,0.3-0.6,0.6-0.9,0.9l1,1.7c-0.4,0.3-0.8,0.6-1.2,0.8C97.6,36.2,97.5,36.3,97.4,36.3z M92.6,26.1
		c0.7,0,1.3,0.6,1.3,1.3c0,0.7-0.6,1.3-1.3,1.3v1.5c1.1,0,2,0.9,2,2c0,1.1-0.9,2-2,2v3.3c0.5,0,1,0,1.5-0.1v-2
		c0.4-0.1,0.8-0.2,1.2-0.3l1,1.7c0.4-0.1,0.8-0.3,1.1-0.5v-6.9c-1.1,0-2-0.9-2-2c0-1.1,0.9-2,2-2v-6.9c-0.4-0.2-0.7-0.4-1.1-0.5
		l-1,1.7c-0.4-0.1-0.8-0.2-1.2-0.3v-2c-0.5-0.1-1-0.1-1.5-0.1v3.3c1.1,0,2,0.9,2,2c0,1.1-0.9,2-2,2V26.1z M92.6,28.8
		c-0.7,0-1.3-0.6-1.3-1.3c0-0.7,0.6-1.3,1.3-1.3v-1.5c-1.1,0-2-0.9-2-2c0-1.1,0.9-2,2-2v-3.3c-0.5,0-1,0-1.5,0.1v2
		c-0.4,0.1-0.8,0.2-1.2,0.3l-1-1.7c-0.4,0.1-0.7,0.3-1.1,0.5v6.9c1.1,0,2,0.9,2,2c0,1.1-0.9,2-2,2v6.9c0.4,0.2,0.7,0.4,1.1,0.5
		l1-1.7c0.4,0.1,0.8,0.2,1.2,0.3v2c0.5,0.1,1,0.1,1.5,0.1v-3.3c-1.1,0-2-0.9-2-2c0-1.1,0.9-2,2-2V28.8z M87.8,18.6v6.9
		c-1.1,0-2,0.9-2,2c0,1.1,0.9,2,2,2v6.9c-0.1,0-0.2-0.1-0.2-0.1c-0.4-0.3-0.9-0.5-1.2-0.8l1-1.7c-0.3-0.3-0.6-0.6-0.9-0.9l-1.7,1
		c-0.3-0.4-0.6-0.8-0.8-1.2c-0.3-0.4-0.5-0.9-0.7-1.3l1.7-1c-0.1-0.4-0.2-0.8-0.3-1.2h-2c-0.1-0.5-0.1-1-0.1-1.5c0-0.5,0-1,0.1-1.5
		h2c0.1-0.4,0.2-0.8,0.3-1.2l-1.7-1c0.2-0.5,0.4-0.9,0.7-1.3c0.3-0.4,0.5-0.9,0.8-1.2l1.7,1c0.3-0.3,0.6-0.6,0.9-0.9l-1-1.7
		c0.4-0.3,0.8-0.6,1.2-0.8C87.6,18.7,87.7,18.6,87.8,18.6z"/>
	<path class="st1" d="M116.5,109.7c-0.3,0.2-0.6,0.5-0.9,0.7l-1.9-2.2c-0.2,0.2-0.5,0.3-0.8,0.4l1,2.7c-0.3,0.2-0.7,0.3-1,0.4
		c-0.4,0.1-0.7,0.2-1.1,0.3l-1-2.7c-0.3,0.1-0.6,0.1-0.9,0.2v2.9c-0.4,0-0.7,0.1-1.1,0.1v-6.4c3,0,5.4-2.4,5.4-5.4
		c0-3-2.4-5.4-5.4-5.4v-6.4c0.4,0,0.8,0,1.1,0.1v2.9c0.3,0,0.6,0.1,0.9,0.2l1-2.7c0.4,0.1,0.7,0.2,1.1,0.3c0.4,0.1,0.7,0.3,1,0.4
		l-1,2.7c0.3,0.1,0.5,0.3,0.8,0.4l1.9-2.2c0.3,0.2,0.6,0.4,0.9,0.7c0.3,0.2,0.6,0.5,0.8,0.8l-1.9,2.2c0.2,0.2,0.4,0.4,0.6,0.7
		l2.5-1.4c0.2,0.3,0.4,0.6,0.6,0.9c0.2,0.3,0.4,0.7,0.5,1l-2.5,1.4c0.1,0.3,0.2,0.5,0.3,0.8l2.8-0.5c0.1,0.4,0.2,0.7,0.3,1.1
		c0.1,0.4,0.1,0.7,0.1,1.1l-2.8,0.5c0,0.1,0,0.3,0,0.4c0,0.1,0,0.3,0,0.4l2.8,0.5c0,0.4-0.1,0.7-0.1,1.1c-0.1,0.4-0.2,0.7-0.3,1.1
		l-2.8-0.5c-0.1,0.3-0.2,0.6-0.3,0.8l2.5,1.4c-0.1,0.3-0.3,0.7-0.5,1c-0.2,0.3-0.4,0.6-0.6,0.9l-2.5-1.4c-0.2,0.2-0.4,0.5-0.6,0.7
		l1.9,2.2C117.1,109.2,116.8,109.5,116.5,109.7z M108.9,112.5c-0.4,0-0.8,0-1.1-0.1v-2.9c-0.3,0-0.6-0.1-0.9-0.2l-1,2.7
		c-0.4-0.1-0.7-0.2-1.1-0.3c-0.4-0.1-0.7-0.3-1-0.4l1-2.7c-0.3-0.1-0.5-0.3-0.8-0.4l-1.9,2.2c-0.3-0.2-0.6-0.4-0.9-0.7
		c-0.3-0.2-0.6-0.5-0.8-0.8l1.9-2.2c-0.2-0.2-0.4-0.4-0.6-0.7l-2.5,1.4c-0.2-0.3-0.4-0.6-0.6-0.9c-0.2-0.3-0.4-0.7-0.5-1l2.5-1.4
		c-0.1-0.3-0.2-0.5-0.3-0.8l-2.8,0.5c-0.1-0.4-0.2-0.7-0.3-1.1c-0.1-0.4-0.1-0.7-0.1-1.1l2.8-0.5c0-0.1,0-0.3,0-0.4
		c0-0.1,0-0.3,0-0.4l-2.8-0.5c0-0.4,0.1-0.7,0.1-1.1c0.1-0.4,0.2-0.7,0.3-1.1l2.8,0.5c0.1-0.3,0.2-0.6,0.3-0.8l-2.5-1.4
		c0.1-0.3,0.3-0.7,0.5-1c0.2-0.3,0.4-0.6,0.6-0.9l2.5,1.4c0.2-0.2,0.4-0.5,0.6-0.7l-1.9-2.2c0.3-0.3,0.5-0.5,0.8-0.8
		c0.3-0.2,0.6-0.5,0.9-0.7l1.9,2.2c0.2-0.2,0.5-0.3,0.8-0.4l-1-2.7c0.3-0.2,0.7-0.3,1-0.4c0.4-0.1,0.7-0.2,1.1-0.3l1,2.7
		c0.3-0.1,0.6-0.1,0.9-0.2v-2.9c0.4,0,0.7-0.1,1.1-0.1v6.4c-3,0-5.4,2.4-5.4,5.4c0,3,2.4,5.4,5.4,5.4V112.5z"/>
	<path class="st1" d="M43.7,122.3v-4.2c1,0,1.9-0.6,2.2-1.6c0.4-1.2-0.3-2.5-1.5-2.8c-0.2-0.1-0.4-0.1-0.7-0.1v-6.9
		c0.1,0,0.1,0.1,0.2,0.2l1.6-1.5c0.4,0.3,0.9,0.7,1.3,1.1c0.4,0.4,0.8,0.9,1.1,1.3l-1.6,1.5c0.3,0.4,0.5,0.8,0.7,1.3L49,110
		c0.2,0.5,0.4,1.1,0.5,1.6c0.1,0.6,0.2,1.1,0.3,1.7l-2.2,0.5c0,0.5,0,1,0,1.4l2.1,0.6c-0.1,0.6-0.2,1.1-0.4,1.7
		c-0.2,0.6-0.4,1.1-0.6,1.6l-2.1-0.6c-0.2,0.4-0.5,0.8-0.8,1.2l1.5,1.6c-0.3,0.4-0.7,0.9-1.1,1.3c-0.4,0.4-0.9,0.8-1.3,1.1
		L43.7,122.3z M38.9,112.8c0.8,0.2,1.3,1.1,1,1.9c-0.2,0.7-0.8,1.1-1.5,1.1v2c0.6,0.6,0.9,1.5,0.6,2.3c-0.1,0.4-0.3,0.7-0.6,1v2.4
		c0.2,0,0.3,0,0.5,0l0.5,2.2c0.6,0,1.1-0.1,1.7-0.3c0.6-0.1,1.1-0.3,1.6-0.5l-0.5-2.2c0.4-0.2,0.9-0.4,1.3-0.7l0.2,0.2v-4.2
		c-0.2,0-0.4,0-0.7-0.1c-1.2-0.4-1.9-1.6-1.5-2.8c0.3-1,1.2-1.6,2.2-1.6v-6.9c-0.3-0.2-0.7-0.4-1-0.6l0.6-2.1
		c-0.5-0.2-1-0.4-1.6-0.6c-0.6-0.2-1.1-0.3-1.7-0.4l-0.6,2.1c-0.3,0-0.7-0.1-1-0.1v2.4c0.6-0.5,1.4-0.8,2.2-0.5
		c1.2,0.4,1.9,1.6,1.5,2.8c-0.4,1.2-1.6,1.9-2.8,1.5c-0.4-0.1-0.7-0.3-0.9-0.5v2C38.6,112.8,38.7,112.8,38.9,112.8z M38.4,115.8
		c-0.1,0-0.3,0-0.4-0.1c-0.8-0.2-1.3-1.1-1-1.9c0.2-0.7,0.8-1.1,1.5-1.1v-2c-0.6-0.6-0.9-1.5-0.6-2.3c0.1-0.4,0.3-0.7,0.6-1V105
		c-0.2,0-0.3,0-0.5,0l-0.5-2.2c-0.6,0-1.1,0.1-1.7,0.3c-0.6,0.1-1.1,0.3-1.6,0.5l0.5,2.2c-0.4,0.2-0.9,0.4-1.3,0.7l-0.2-0.2v4.2
		c0.2,0,0.4,0,0.7,0.1c1.2,0.4,1.9,1.6,1.5,2.8c-0.3,1-1.2,1.6-2.2,1.6v6.9c0.3,0.2,0.7,0.4,1,0.6l-0.6,2.1c0.5,0.2,1,0.4,1.6,0.6
		c0.6,0.2,1.1,0.3,1.7,0.4l0.6-2.1c0.3,0,0.7,0.1,1,0.1v-2.4c-0.6,0.5-1.4,0.8-2.2,0.5c-1.2-0.4-1.9-1.6-1.5-2.8
		c0.4-1.2,1.6-1.9,2.8-1.5c0.4,0.1,0.7,0.3,0.9,0.5V115.8z M33.2,106.3v4.2c-1,0-1.9,0.6-2.2,1.6c-0.4,1.2,0.3,2.5,1.5,2.8
		c0.2,0.1,0.4,0.1,0.7,0.1v6.9c-0.1-0.1-0.1-0.1-0.2-0.2l-1.6,1.5c-0.4-0.3-0.9-0.7-1.3-1.1c-0.4-0.4-0.8-0.9-1.1-1.3l1.6-1.5
		c-0.3-0.4-0.5-0.8-0.7-1.3l-2.2,0.5c-0.2-0.5-0.4-1.1-0.5-1.6c-0.1-0.6-0.2-1.1-0.3-1.7l2.2-0.5c0-0.5,0-1,0-1.4l-2.1-0.6
		c0.1-0.6,0.2-1.1,0.4-1.7c0.2-0.6,0.4-1.1,0.6-1.6l2.1,0.6c0.2-0.4,0.5-0.8,0.8-1.2l-1.5-1.6c0.3-0.4,0.7-0.9,1.1-1.3
		c0.4-0.4,0.9-0.8,1.3-1.1L33.2,106.3z"/>
	<path class="st1" d="M98,129.9V122c1.3,0,2.3-1,2.3-2.3c0-1.3-1-2.3-2.3-2.3v-7.9c0.1,0,0.2,0.1,0.3,0.2c0.5,0.3,1,0.6,1.4,1
		l-1.1,2c0.4,0.3,0.7,0.7,1,1l2-1.1c0.4,0.4,0.7,0.9,1,1.4c0.3,0.5,0.5,1,0.8,1.6l-2,1.1c0.2,0.5,0.3,0.9,0.4,1.4h2.3
		c0.1,0.6,0.1,1.1,0.1,1.7c0,0.6,0,1.2-0.1,1.7h-2.3c-0.1,0.5-0.2,1-0.4,1.4l2,1.1c-0.2,0.5-0.5,1-0.8,1.6c-0.3,0.5-0.6,1-1,1.4
		l-2-1.1c-0.3,0.4-0.7,0.7-1,1l1.1,2c-0.4,0.4-0.9,0.7-1.4,1C98.2,129.8,98.1,129.8,98,129.9z M92.5,118.1c0.9,0,1.5,0.7,1.5,1.5
		c0,0.9-0.7,1.5-1.5,1.5v1.7c1.3,0,2.3,1,2.3,2.3c0,1.3-1,2.3-2.3,2.3v3.8c0.6,0,1.2,0,1.7-0.1v-2.3c0.5-0.1,1-0.2,1.4-0.4l1.1,2
		c0.4-0.2,0.9-0.4,1.3-0.6V122c-1.3,0-2.3-1-2.3-2.3c0-1.3,1-2.3,2.3-2.3v-7.9c-0.4-0.2-0.8-0.4-1.3-0.6l-1.1,2
		c-0.5-0.2-0.9-0.3-1.4-0.4v-2.3c-0.6-0.1-1.1-0.1-1.7-0.1v3.8c1.3,0,2.3,1,2.3,2.3c0,1.3-1,2.3-2.3,2.3V118.1z M92.5,121.2
		c-0.9,0-1.5-0.7-1.5-1.5c0-0.9,0.7-1.5,1.5-1.5v-1.7c-1.3,0-2.3-1-2.3-2.3c0-1.3,1-2.3,2.3-2.3v-3.8c-0.6,0-1.2,0-1.7,0.1v2.3
		c-0.5,0.1-1,0.2-1.4,0.4l-1.1-2c-0.4,0.2-0.9,0.4-1.3,0.6v7.9c1.3,0,2.3,1,2.3,2.3c0,1.3-1,2.3-2.3,2.3v7.9
		c0.4,0.2,0.8,0.4,1.3,0.6l1.1-2c0.5,0.2,0.9,0.3,1.4,0.4v2.3c0.6,0.1,1.1,0.1,1.7,0.1v-3.8c-1.3,0-2.3-1-2.3-2.3
		c0-1.3,1-2.3,2.3-2.3V121.2z M86.9,109.5v7.9c-1.3,0-2.3,1-2.3,2.3c0,1.3,1,2.3,2.3,2.3v7.9c-0.1,0-0.2-0.1-0.3-0.2
		c-0.5-0.3-1-0.6-1.4-1l1.1-2c-0.4-0.3-0.7-0.7-1-1l-2,1.1c-0.4-0.4-0.7-0.9-1-1.4c-0.3-0.5-0.5-1-0.7-1.6l2-1.1
		c-0.2-0.5-0.3-0.9-0.4-1.4H81c-0.1-0.6-0.1-1.1-0.1-1.7c0-0.6,0-1.2,0.1-1.7h2.3c0.1-0.5,0.2-1,0.4-1.4l-2-1.1
		c0.2-0.5,0.5-1,0.7-1.6c0.3-0.5,0.6-1,1-1.4l2,1.1c0.3-0.4,0.7-0.7,1-1l-1.1-2c0.4-0.4,0.9-0.7,1.4-1
		C86.7,109.6,86.8,109.5,86.9,109.5z"/>
	<path class="st1" d="M115.2,37.7c0.1,0.1,0.2,0.2,0.3,0.2l1.6-0.9c0.4,0.4,0.7,0.9,1,1.3c0.3,0.5,0.5,1,0.7,1.5l-1.6,0.9
		c0.1,0.5,0.2,1,0.2,1.5c0,0.5-0.1,1-0.2,1.5l1.6,0.9c-0.2,0.5-0.4,1-0.7,1.5c-0.3,0.5-0.6,0.9-1,1.3l-1.6-0.9
		c-0.1,0.1-0.2,0.2-0.3,0.2v-2.5c0,0,0-0.1,0-0.1v-1.7c0.1,0,0.2-0.1,0.3-0.2c0.1-0.2,0-0.4-0.1-0.4c0,0-0.1,0-0.2,0v-1.5
		c0,0,0-0.1,0-0.1V37.7z M114.7,37.3c0.2,0.1,0.4,0.3,0.5,0.4v2.5c0-0.1,0-0.1-0.1-0.2c-0.1-0.2-0.3-0.3-0.5-0.3V37.3L114.7,37.3z
		 M115.2,46.9c-0.2,0.1-0.3,0.3-0.5,0.4v-2.5c0.2,0,0.4-0.1,0.5-0.3c0-0.1,0.1-0.1,0.1-0.2V46.9L115.2,46.9z M115.2,40.4v1.5
		c-0.1,0-0.2,0.1-0.3,0.2c-0.1,0.2,0,0.4,0.1,0.4c0,0,0.1,0,0.2,0v1.7c0-0.2-0.1-0.3-0.3-0.4c-0.1,0-0.2-0.1-0.3-0.1v-2.9
		c0.1,0,0.2,0,0.3-0.1C115.1,40.7,115.2,40.5,115.2,40.4z M113.1,36.5c0.5,0.2,1.1,0.4,1.5,0.8v2.5c-0.1,0-0.2,0-0.3,0.1
		c-0.3,0.1-0.3,0.5-0.2,0.7c0.1,0.2,0.3,0.3,0.5,0.3v2.9c-0.2,0-0.4,0.1-0.5,0.3c-0.1,0.3-0.1,0.6,0.2,0.7c0.1,0,0.2,0.1,0.3,0.1
		v2.5c-0.5,0.3-1,0.6-1.5,0.8v-2.1c0.2,0.1,0.3,0,0.4-0.1c0.1-0.2,0-0.4-0.1-0.4c-0.1-0.1-0.2-0.1-0.3,0v-6.2c0.1,0,0.2-0.1,0.3-0.2
		c0.1-0.2,0-0.4-0.1-0.4c0,0-0.1,0-0.2,0V36.5z M112.9,36.4c0.1,0,0.2,0,0.3,0.1v2c-0.1,0-0.2,0.1-0.3,0.2c-0.1,0.2,0,0.4,0.1,0.4
		c0,0,0.1,0,0.2,0v6.2c-0.1,0-0.1,0.1-0.1,0.1c-0.1,0.2,0,0.4,0.1,0.4l0,0V48c-0.1,0-0.2,0.1-0.3,0.1v1.8c-0.5,0.1-1.1,0.2-1.7,0.2
		l0,0v-3.4l0,0c0.3,0,0.5-0.2,0.5-0.5c0-0.3-0.2-0.5-0.5-0.5l0,0v-1.6l0,0c1,0,1.8-0.8,1.8-1.8c0-1-0.8-1.8-1.8-1.8l0,0v-1.6l0,0
		c0.3,0,0.5-0.2,0.5-0.5s-0.2-0.5-0.5-0.5l0,0v-3.4l0,0c0.6,0,1.1,0.1,1.7,0.2V36.4z M111.2,50.1c-0.6,0-1.1-0.1-1.7-0.2v-1.8
		c-0.1,0-0.2-0.1-0.3-0.1v-2c0.1,0,0.2-0.1,0.3-0.2c0.1-0.2,0-0.4-0.1-0.4c0,0-0.1,0-0.2,0v-6.2c0.1,0,0.1-0.1,0.1-0.1
		c0.1-0.2,0-0.4-0.1-0.4l0,0v-2.1c0.1,0,0.2-0.1,0.3-0.1v-1.8c0.5-0.1,1.1-0.2,1.7-0.2v3.4c-0.3,0-0.5,0.2-0.5,0.5s0.2,0.5,0.5,0.5
		v1.6c-1,0-1.8,0.8-1.8,1.8c0,1,0.8,1.8,1.8,1.8v1.6c-0.3,0-0.5,0.2-0.5,0.5c0,0.3,0.2,0.5,0.5,0.5V50.1z M109.3,48
		c-0.5-0.2-1.1-0.4-1.5-0.8v-2.5c0.1,0,0.2,0,0.3-0.1c0.3-0.1,0.3-0.5,0.2-0.7c-0.1-0.2-0.3-0.3-0.5-0.3v-2.9c0.2,0,0.4-0.1,0.5-0.3
		c0.1-0.3,0.1-0.6-0.2-0.7c-0.1,0-0.2-0.1-0.3-0.1v-2.5c0.5-0.3,1-0.6,1.5-0.8v2.1c-0.2-0.1-0.3,0-0.4,0.1c-0.1,0.2,0,0.4,0.1,0.4
		c0.1,0.1,0.2,0.1,0.3,0v6.2c-0.1,0-0.2,0.1-0.3,0.2c-0.1,0.2,0,0.4,0.1,0.4c0,0,0.1,0,0.2,0V48z M107.8,47.3
		c-0.2-0.1-0.4-0.3-0.5-0.4v-2.5c0,0.1,0,0.1,0.1,0.2c0.1,0.2,0.3,0.3,0.5,0.3V47.3L107.8,47.3z M107.3,37.7
		c0.2-0.1,0.3-0.3,0.5-0.4v2.5c-0.2,0-0.4,0.1-0.5,0.3c0,0.1-0.1,0.1-0.1,0.2V37.7L107.3,37.7z M107.8,40.8v2.9
		c-0.1,0-0.2,0-0.3,0.1c-0.1,0.1-0.2,0.2-0.3,0.4v-1.5c0.1,0,0.2-0.1,0.3-0.2c0.1-0.2,0-0.4-0.1-0.4c0,0-0.1,0-0.2,0v-1.7
		c0,0.2,0.1,0.3,0.3,0.4C107.6,40.8,107.7,40.8,107.8,40.8z M107.3,46.9c-0.1-0.1-0.2-0.2-0.3-0.2l-1.6,0.9c-0.4-0.4-0.7-0.9-1-1.3
		c-0.3-0.5-0.5-1-0.7-1.5l1.6-0.9c-0.1-0.5-0.2-1-0.2-1.5c0-0.5,0.1-1,0.2-1.5l-1.6-0.9c0.2-0.5,0.4-1,0.7-1.5
		c0.3-0.5,0.6-0.9,1-1.3l1.6,0.9c0.1-0.1,0.2-0.2,0.3-0.2v2.5c0,0,0,0.1,0,0.1V42c-0.1,0-0.2,0.1-0.3,0.2c-0.1,0.2,0,0.4,0.1,0.4
		c0,0,0.1,0,0.2,0v1.5c0,0,0,0.1,0,0.1V46.9z"/>
	<path class="st1" d="M124.6,88.4l-0.4-0.5v-1.3c0.4-0.4,0.8-0.8,1.1-1.3l-1.1-0.7v-0.8l1.5,0.9c0.3-0.7,0.6-1.5,0.6-2.3h-2.1v-0.7
		h2.1c0-0.8-0.3-1.6-0.6-2.3l-1.5,0.9v-0.8l1.1-0.7c-0.3-0.5-0.7-0.9-1.1-1.3v-1.3l0.4-0.5c0.5,0.3,0.9,0.7,1.3,1.1l-0.6,0.7
		c0.2,0.2,0.3,0.3,0.4,0.5l0.8-0.4c0.3,0.5,0.6,0.9,0.8,1.5l-0.8,0.4c0.1,0.2,0.2,0.4,0.2,0.6l0.9-0.2c0.2,0.5,0.3,1.1,0.3,1.7
		l-0.9,0.2c0,0.1,0,0.2,0,0.3c0,0.1,0,0.2,0,0.3l0.9,0.2c0,0.6-0.1,1.1-0.3,1.7l-0.9-0.2c-0.1,0.2-0.1,0.4-0.2,0.6l0.8,0.4
		c-0.2,0.5-0.5,1-0.8,1.5l-0.8-0.4c-0.1,0.2-0.3,0.3-0.4,0.5l0.6,0.7C125.5,87.7,125.1,88.1,124.6,88.4z M124.2,87.9l-0.2-0.2
		c-0.2,0.1-0.4,0.2-0.6,0.3l0.3,0.8c-0.4,0.2-0.8,0.3-1.2,0.5v-1.8c0.2-0.1,0.3-0.1,0.5-0.2l-0.5-0.8v-1.5l1.1,1.9
		c0.2-0.1,0.4-0.3,0.6-0.4V87.9L124.2,87.9z M122.6,74.7c0.4,0.1,0.8,0.3,1.2,0.5l-0.3,0.8c0.2,0.1,0.4,0.2,0.6,0.3l0.2-0.2v1.3
		c-0.2-0.1-0.4-0.3-0.6-0.4l-1.1,1.9v-1.5l0.5-0.8c-0.1-0.1-0.3-0.1-0.5-0.2V74.7L122.6,74.7z M124.2,79.4v0.8l-1.6,0.9v-0.8
		L124.2,79.4L124.2,79.4z M124.2,81.6v0.7h-1.6v-0.7H124.2L124.2,81.6z M124.2,83.8v0.8l-1.6-0.9v-0.8L124.2,83.8z M122.6,89.3
		c-0.1,0-0.3,0.1-0.4,0.1l-0.3-0.8v-0.8c0.2-0.1,0.5-0.1,0.7-0.2V89.3L122.6,89.3z M121.9,75.4l0.3-0.8c0.1,0,0.3,0.1,0.4,0.1v1.8
		c-0.2-0.1-0.5-0.2-0.7-0.2V75.4L121.9,75.4z M122.6,77.5v1.5l-0.7,1.2v-1.5L122.6,77.5L122.6,77.5z M122.6,80.3v0.8l-0.5,0.3
		c0,0.1,0,0.1,0.1,0.2h0.4v0.7h-0.4c0,0.1,0,0.2-0.1,0.2l0.5,0.3v0.8l-0.7-0.4v-2.6L122.6,80.3L122.6,80.3z M122.6,85.1v1.5
		l-0.7-1.2v-1.5L122.6,85.1z M121.9,88.6L121.9,88.6c-0.2,0-0.4,0-0.7,0.1v0.9c-0.3,0-0.6,0-0.8,0v-6.4c0.7,0,1.2-0.5,1.2-1.2
		s-0.5-1.2-1.2-1.2v-6.4c0.3,0,0.6,0,0.8,0v0.9c0.2,0,0.4,0.1,0.7,0.1l0,0v0.8c-0.4-0.1-0.8-0.2-1.1-0.2v4.1c0.1,0,0.2,0,0.2,0.1
		l0.9-1.6v1.5l-0.3,0.5c0.1,0.1,0.1,0.1,0.2,0.2l0.1-0.1v2.6l-0.1-0.1c-0.1,0.1-0.1,0.1-0.2,0.2l0.3,0.5v1.5l-0.9-1.6
		c-0.1,0-0.1,0-0.2,0.1V88c0.4,0,0.8-0.1,1.1-0.2V88.6z M120.4,89.6c-0.3,0-0.6,0-0.8,0v-0.9c-0.2,0-0.4-0.1-0.7-0.1l0,0v-0.9
		c0.4,0.1,0.8,0.2,1.1,0.2v-4.1c-0.1,0-0.2,0-0.2-0.1l-0.9,1.6v-1.5l0.3-0.5c-0.1-0.1-0.1-0.1-0.2-0.2l-0.1,0.1v-2.6l0.1,0.1
		c0.1-0.1,0.1-0.1,0.2-0.2l-0.3-0.5v-1.5l0.9,1.6c0.1,0,0.1,0,0.2-0.1v-4.1c-0.4,0-0.8,0.1-1.1,0.2v-0.9l0,0c0.2,0,0.4-0.1,0.7-0.1
		v-0.9c0.3,0,0.6,0,0.8,0v6.4c-0.7,0-1.2,0.5-1.2,1.2s0.5,1.2,1.2,1.2V89.6z M118.9,88.6l-0.3,0.8c-0.1,0-0.3-0.1-0.4-0.1v-1.8
		c0.2,0.1,0.5,0.2,0.7,0.2V88.6L118.9,88.6z M118.2,74.7c0.1,0,0.3-0.1,0.4-0.1l0.3,0.8v0.9c-0.2,0.1-0.5,0.1-0.7,0.2V74.7
		L118.2,74.7z M118.9,78.7v1.5l-0.7-1.2v-1.5L118.9,78.7L118.9,78.7z M118.9,80.7v2.6l-0.7,0.4v-0.8l0.5-0.3c0-0.1,0-0.1-0.1-0.2
		h-0.4v-0.7h0.4c0-0.1,0-0.2,0.1-0.2l-0.5-0.3v-0.8L118.9,80.7L118.9,80.7z M118.9,83.9v1.5l-0.7,1.2v-1.5L118.9,83.9z M118.2,89.3
		c-0.4-0.1-0.8-0.3-1.2-0.5l0.3-0.8c-0.2-0.1-0.4-0.2-0.6-0.3l-0.2,0.2v-1.3c0.2,0.1,0.4,0.3,0.6,0.4l1.1-1.9v1.5l-0.5,0.8
		c0.2,0.1,0.3,0.1,0.5,0.2V89.3L118.2,89.3z M116.5,76.1l0.2,0.2c0.2-0.1,0.4-0.2,0.6-0.3l-0.3-0.8c0.4-0.2,0.8-0.3,1.2-0.5v1.8
		c-0.2,0.1-0.3,0.1-0.5,0.2l0.5,0.8v1.5l-1.1-1.9c-0.2,0.1-0.4,0.3-0.6,0.4V76.1L116.5,76.1z M118.2,80.3v0.8l-1.6-1v-0.8
		L118.2,80.3L118.2,80.3z M118.2,81.6v0.7h-1.6v-0.7H118.2L118.2,81.6z M118.2,82.9v0.8l-1.6,1v-0.8L118.2,82.9z M116.5,87.9
		l-0.4,0.5c-0.5-0.3-0.9-0.7-1.3-1.1l0.6-0.7c-0.2-0.2-0.3-0.3-0.4-0.5l-0.8,0.4c-0.3-0.5-0.6-0.9-0.8-1.5l0.8-0.4
		c-0.1-0.2-0.2-0.4-0.2-0.6l-0.9,0.2c-0.2-0.5-0.3-1.1-0.3-1.7l0.9-0.2c0-0.1,0-0.2,0-0.3c0-0.1,0-0.2,0-0.3l-0.9-0.2
		c0-0.6,0.1-1.1,0.3-1.7l0.9,0.2c0.1-0.2,0.1-0.4,0.2-0.6l-0.8-0.4c0.2-0.5,0.5-1,0.8-1.5l0.8,0.4c0.1-0.2,0.3-0.3,0.4-0.5l-0.6-0.7
		c0.4-0.4,0.8-0.8,1.3-1.1l0.4,0.5v1.3c-0.4,0.4-0.8,0.8-1.1,1.3l1.1,0.7v0.8l-1.5-0.9c-0.3,0.7-0.6,1.5-0.6,2.3h2.1v0.7h-2.1
		c0,0.8,0.3,1.6,0.6,2.3l1.5-0.9v0.8l-1.1,0.7c0.3,0.5,0.7,0.9,1.1,1.3V87.9z"/>
	<path class="st1" d="M66.7,24.9c0.6,0.5,1.1,1.1,1.5,1.7l2-0.6c0.3,0.5,0.5,1.1,0.7,1.7c0.2,0.6,0.3,1.2,0.3,1.9l-2,0.6
		c0,0.6-0.1,1.1-0.2,1.7c-0.1,0.6-0.3,1.1-0.6,1.6l1.5,1.5c-0.3,0.5-0.7,1-1.2,1.5c-0.4,0.5-0.9,0.9-1.4,1.2L66.7,37v-5.4
		c0.1,0,0.2,0,0.3-0.1c0.1-0.2,0.1-0.4,0-0.5c-0.1-0.1-0.2-0.1-0.3-0.1v-1.3c0.1,0,0.1,0,0.2,0c0.3-0.1,0.5-0.4,0.4-0.8
		c-0.1-0.3-0.3-0.4-0.6-0.4V24.9z M65.8,24.2c0.3,0.2,0.6,0.4,0.9,0.6v3.5c-0.1,0-0.1,0-0.2,0c-0.3,0.1-0.5,0.4-0.4,0.8
		c0.1,0.3,0.3,0.4,0.6,0.4v1.3c-0.1,0-0.1,0.1-0.2,0.1c-0.1,0.1-0.1,0.4,0,0.5c0.1,0,0.1,0.1,0.2,0.1V37l-0.8-0.8
		c-0.1,0-0.2,0.1-0.2,0.1v-2.3c0.2,0,0.3-0.1,0.4-0.2c0.2-0.2,0.2-0.6,0-0.9c-0.1-0.1-0.3-0.2-0.4-0.2v-5.5c0,0,0.1,0,0.1-0.1
		c0.1-0.2,0.1-0.4,0-0.5c0,0,0,0-0.1,0v-4.7c0.2,0.1,0.5,0.2,0.7,0.3L65.8,24.2z M65.6,36.3c-0.7,0.4-1.4,0.6-2.2,0.7v-2.3l0,0
		c0.2,0.1,0.4,0.1,0.5,0c0.1-0.2,0.1-0.4,0-0.5c-0.1-0.1-0.4-0.1-0.5,0V32c0.5-0.3,0.8-0.7,0.9-1.3c0.2-0.9-0.2-1.8-0.9-2.3v-2
		c0.3,0,0.5-0.2,0.6-0.5c0.1-0.3-0.1-0.7-0.4-0.7c0,0-0.1,0-0.1,0v-3.9c0.4,0,0.7,0.1,1.1,0.2c0.4,0.1,0.8,0.2,1.1,0.4v4.7
		c-0.1-0.1-0.3-0.1-0.5,0.1c-0.1,0.2-0.1,0.4,0,0.5c0.1,0.1,0.3,0.1,0.4,0v5.5c-0.2,0-0.3,0.1-0.4,0.2c-0.2,0.2-0.2,0.6,0,0.9
		c0.1,0.1,0.3,0.2,0.4,0.2V36.3z M63.5,37c-0.3,0-0.6,0.1-0.8,0.1l-0.2,1v-5.8c0.4,0,0.8-0.1,1.1-0.3v2.3l0,0
		c-0.1,0.1-0.1,0.4,0,0.5V37L63.5,37z M62.4,22.4l0.3-1.1c0.3,0,0.5,0,0.8,0.1v3.9c-0.3,0-0.5,0.2-0.6,0.5c-0.1,0.3,0.1,0.7,0.4,0.7
		c0,0,0.1,0,0.1,0v2c-0.2-0.1-0.4-0.2-0.6-0.2c-0.2,0-0.3-0.1-0.5-0.1V22.4z M62.4,38.1l-0.3,1.1c-0.3,0-0.5,0-0.8-0.1v-3.9
		c0.3,0,0.5-0.2,0.6-0.5c0.1-0.3-0.1-0.7-0.4-0.7c0,0-0.1,0-0.1,0v-2c0.2,0.1,0.4,0.2,0.6,0.2c0.2,0,0.3,0.1,0.5,0.1V38.1L62.4,38.1
		z M61.3,23.4c0.3,0,0.6-0.1,0.8-0.1l0.2-1v5.8c-0.4,0-0.8,0.1-1.1,0.3v-2.3l0,0c0.1-0.1,0.1-0.4,0-0.5V23.4z M61.3,39.1
		c-0.4,0-0.7-0.1-1.1-0.2c-0.4-0.1-0.8-0.2-1.1-0.4v-4.7c0.1,0.1,0.3,0.1,0.5-0.1c0.1-0.2,0.1-0.4,0-0.5c-0.1-0.1-0.3-0.1-0.4,0
		v-5.5c0.2,0,0.3-0.1,0.4-0.2c0.2-0.2,0.2-0.6,0-0.9c-0.1-0.1-0.3-0.2-0.4-0.2v-2.3c0.7-0.4,1.4-0.6,2.2-0.7v2.3l0,0
		c-0.2-0.1-0.4-0.1-0.5,0c-0.1,0.1-0.1,0.4,0,0.5c0.1,0.1,0.4,0.1,0.5,0v2.3c-0.5,0.3-0.8,0.7-0.9,1.3c-0.2,0.9,0.2,1.8,0.9,2.3v2
		c-0.3,0-0.5,0.2-0.6,0.5c-0.1,0.3,0.1,0.7,0.4,0.7c0,0,0.1,0,0.1,0V39.1z M59.1,38.5c-0.2-0.1-0.4-0.2-0.7-0.3l0.5-2
		c-0.3-0.2-0.6-0.4-0.9-0.6v-3.5c0.1,0,0.1,0,0.2,0c0.3-0.1,0.5-0.4,0.4-0.8c-0.1-0.3-0.3-0.4-0.6-0.4v-1.3c0.1,0,0.1-0.1,0.2-0.1
		c0.1-0.2,0.1-0.4,0-0.5c-0.1,0-0.1-0.1-0.2-0.1v-5.4l0.8,0.8c0.1,0,0.2-0.1,0.2-0.1v2.3c-0.2,0-0.3,0.1-0.4,0.2
		c-0.2,0.2-0.2,0.6,0,0.9c0.1,0.1,0.3,0.2,0.4,0.2v5.5c0,0-0.1,0-0.1,0.1c-0.1,0.1-0.1,0.4,0,0.5c0,0,0,0,0.1,0V38.5z M58.1,35.6
		c-0.6-0.5-1.1-1.1-1.5-1.7l-2,0.6c-0.3-0.5-0.5-1.1-0.7-1.7c-0.2-0.6-0.3-1.2-0.3-1.9l2-0.6c0-0.6,0.1-1.1,0.2-1.7
		c0.1-0.6,0.3-1.1,0.6-1.6l-1.5-1.5c0.3-0.5,0.7-1,1.2-1.5c0.4-0.5,0.9-0.9,1.4-1.2l0.7,0.6v5.4c-0.1,0-0.3,0-0.3,0.1
		c-0.1,0.2-0.1,0.4,0,0.5c0.1,0.1,0.2,0.1,0.3,0.1v1.3c-0.1,0-0.1,0-0.2,0c-0.3,0.1-0.5,0.4-0.4,0.8c0.1,0.3,0.3,0.4,0.6,0.4V35.6z"
		/>
	<path class="st1" d="M76.3,101.9c0.1,0.1,0.2,0.2,0.3,0.3l1.8-1.1c0.4,0.5,0.8,1,1.1,1.5c0.3,0.6,0.6,1.2,0.8,1.7l-1.8,1.1
		c0.1,0.5,0.2,1.1,0.2,1.7c0,0.6-0.1,1.2-0.2,1.7l1.8,1.1c-0.2,0.6-0.5,1.2-0.8,1.7c-0.3,0.6-0.7,1.1-1.1,1.5l-1.8-1.1
		c-0.1,0.1-0.2,0.2-0.3,0.3v-2.9c0-0.1,0-0.1,0-0.2v-1.9c0.1,0,0.3-0.1,0.3-0.2c0.1-0.2,0-0.4-0.1-0.5c-0.1,0-0.1,0-0.2,0V105
		c0-0.1,0-0.1,0-0.2V101.9z M75.6,101.5c0.2,0.1,0.4,0.3,0.6,0.5v2.9c0-0.1,0-0.2-0.1-0.2c-0.1-0.2-0.3-0.3-0.5-0.3V101.5
		L75.6,101.5z M76.3,112.5c-0.2,0.2-0.4,0.3-0.6,0.5v-2.9c0.2,0,0.4-0.1,0.5-0.3c0-0.1,0.1-0.1,0.1-0.2V112.5L76.3,112.5z M76.3,105
		v1.7c-0.1,0-0.3,0.1-0.3,0.2c-0.1,0.2,0,0.4,0.1,0.5c0.1,0,0.1,0,0.2,0v1.9c0-0.2-0.1-0.4-0.3-0.5c-0.1-0.1-0.2-0.1-0.3-0.1v-3.3
		c0.1,0,0.2,0,0.3-0.1C76.1,105.4,76.2,105.2,76.3,105z M73.9,100.6c0.6,0.2,1.2,0.5,1.7,0.9v2.9c-0.1,0-0.2,0-0.3,0.1
		c-0.3,0.2-0.4,0.5-0.2,0.8c0.1,0.2,0.3,0.3,0.5,0.3v3.3c-0.2,0-0.4,0.1-0.5,0.3c-0.2,0.3-0.1,0.7,0.2,0.8c0.1,0.1,0.2,0.1,0.3,0.1
		v2.9c-0.5,0.4-1.1,0.7-1.7,0.9v-2.4c0.2,0.1,0.4,0,0.5-0.2c0.1-0.2,0-0.4-0.1-0.5c-0.1-0.1-0.2-0.1-0.3,0v-7.2
		c0.1,0,0.3-0.1,0.3-0.2c0.1-0.2,0-0.4-0.1-0.5c-0.1,0-0.1,0-0.2,0V100.6z M73.6,100.5c0.1,0,0.2,0.1,0.3,0.1v2.3
		c-0.1,0-0.3,0.1-0.3,0.2c-0.1,0.2,0,0.4,0.1,0.5c0.1,0,0.1,0,0.2,0v7.2c-0.1,0-0.1,0.1-0.2,0.2c-0.1,0.2,0,0.4,0.1,0.5l0,0v2.4
		c-0.1,0-0.2,0.1-0.3,0.1v2.1c-0.6,0.1-1.2,0.2-1.9,0.2v-3.9c0.3,0,0.6-0.3,0.6-0.6c0-0.3-0.3-0.6-0.6-0.6v-1.8
		c1.2,0,2.1-0.9,2.1-2.1c0-1.2-0.9-2.1-2.1-2.1v-1.8l0,0c0.3,0,0.6-0.3,0.6-0.6c0-0.3-0.3-0.6-0.6-0.6v-3.9c0.7,0,1.3,0.1,1.9,0.2
		V100.5z M71.7,116.2c-0.7,0-1.3-0.1-1.9-0.2v-2.1c-0.1,0-0.2-0.1-0.3-0.1v-2.3c0.1,0,0.3-0.1,0.3-0.2c0.1-0.2,0-0.4-0.1-0.5
		c-0.1,0-0.1,0-0.2,0v-7.2c0.1,0,0.1-0.1,0.2-0.2c0.1-0.2,0-0.4-0.1-0.5l0,0v-2.4c0.1,0,0.2-0.1,0.3-0.1v-2.1
		c0.6-0.1,1.2-0.2,1.9-0.2v3.9c-0.3,0-0.6,0.3-0.6,0.6c0,0.3,0.3,0.6,0.6,0.6v1.8c-1.2,0-2.1,0.9-2.1,2.1c0,1.2,0.9,2.1,2.1,2.1v1.8
		c-0.3,0-0.6,0.3-0.6,0.6c0,0.3,0.3,0.6,0.6,0.6V116.2z M69.5,113.8c-0.6-0.2-1.2-0.5-1.7-0.9v-2.9c0.1,0,0.2,0,0.3-0.1
		c0.3-0.2,0.4-0.5,0.2-0.8c-0.1-0.2-0.3-0.3-0.5-0.3v-3.3c0.2,0,0.4-0.1,0.5-0.3c0.2-0.3,0.1-0.7-0.2-0.8c-0.1-0.1-0.2-0.1-0.3-0.1
		v-2.9c0.5-0.4,1.1-0.7,1.7-0.9v2.4c-0.2-0.1-0.4,0-0.5,0.2c-0.1,0.2,0,0.4,0.1,0.5c0.1,0.1,0.2,0.1,0.3,0v7.2
		c-0.1,0-0.3,0.1-0.3,0.2c-0.1,0.2,0,0.4,0.1,0.5c0.1,0,0.1,0,0.2,0V113.8z M67.8,112.9c-0.2-0.1-0.4-0.3-0.6-0.5v-2.9
		c0,0.1,0,0.2,0.1,0.2c0.1,0.2,0.3,0.3,0.5,0.3V112.9L67.8,112.9z M67.1,101.9c0.2-0.2,0.4-0.3,0.6-0.5v2.9c-0.2,0-0.4,0.1-0.5,0.3
		c0,0.1-0.1,0.1-0.1,0.2V101.9L67.1,101.9z M67.8,105.5v3.3c-0.1,0-0.2,0-0.3,0.1c-0.2,0.1-0.3,0.3-0.3,0.5v-1.7
		c0.1,0,0.3-0.1,0.3-0.2c0.1-0.2,0-0.4-0.1-0.5c-0.1,0-0.1,0-0.2,0V105c0,0.2,0.1,0.4,0.3,0.5C67.5,105.5,67.7,105.5,67.8,105.5z
		 M67.1,112.5c-0.1-0.1-0.2-0.2-0.3-0.3l-1.8,1.1c-0.4-0.5-0.8-1-1.1-1.5c-0.3-0.6-0.6-1.2-0.8-1.7l1.8-1.1
		c-0.1-0.5-0.2-1.1-0.2-1.7c0-0.6,0.1-1.2,0.2-1.7l-1.8-1.1c0.2-0.6,0.5-1.2,0.8-1.7c0.3-0.6,0.7-1.1,1.1-1.5l1.8,1.1
		c0.1-0.1,0.2-0.2,0.3-0.3v2.9c0,0.1,0,0.1,0,0.2v1.9c-0.1,0-0.3,0.1-0.3,0.2c-0.1,0.2,0,0.4,0.1,0.5c0.1,0,0.1,0,0.2,0v1.7
		c0,0.1,0,0.1,0,0.2V112.5z"/>
	<path class="st1" d="M22.2,67.8c-0.2,0.2-0.4,0.3-0.6,0.4l-1.2-1.5c-0.2,0.1-0.3,0.2-0.5,0.3l0.7,1.8c-0.2,0.1-0.5,0.2-0.7,0.3
		s-0.5,0.2-0.7,0.2l-0.7-1.8c-0.2,0-0.4,0.1-0.6,0.1v1.9c-0.2,0-0.5,0-0.8,0v-4.3c2,0,3.6-1.6,3.6-3.6c0-2-1.6-3.6-3.6-3.6v-4.3
		c0.3,0,0.5,0,0.8,0v1.9c0.2,0,0.4,0.1,0.6,0.1l0.7-1.8c0.2,0.1,0.5,0.1,0.7,0.2s0.5,0.2,0.7,0.3l-0.7,1.8c0.2,0.1,0.3,0.2,0.5,0.3
		l1.2-1.5c0.2,0.1,0.4,0.3,0.6,0.4c0.2,0.2,0.4,0.3,0.5,0.5l-1.3,1.5c0.1,0.1,0.3,0.3,0.4,0.5l1.7-1c0.1,0.2,0.3,0.4,0.4,0.6
		c0.1,0.2,0.2,0.4,0.3,0.7l-1.7,1c0.1,0.2,0.1,0.4,0.2,0.6l1.9-0.3c0.1,0.2,0.1,0.5,0.2,0.7c0,0.3,0.1,0.5,0.1,0.7l-1.9,0.3
		c0,0.1,0,0.2,0,0.3c0,0.1,0,0.2,0,0.3l1.9,0.3c0,0.2,0,0.5-0.1,0.7c0,0.2-0.1,0.5-0.2,0.7l-1.9-0.3c-0.1,0.2-0.1,0.4-0.2,0.6l1.7,1
		c-0.1,0.2-0.2,0.5-0.3,0.7c-0.1,0.2-0.3,0.4-0.4,0.6l-1.7-1c-0.1,0.2-0.2,0.3-0.4,0.5l1.3,1.5C22.6,67.5,22.4,67.6,22.2,67.8z
		 M17.1,69.7c-0.3,0-0.5,0-0.8,0v-1.9c-0.2,0-0.4-0.1-0.6-0.1l-0.7,1.8c-0.2-0.1-0.5-0.1-0.7-0.2s-0.5-0.2-0.7-0.3l0.7-1.8
		c-0.2-0.1-0.3-0.2-0.5-0.3l-1.2,1.5c-0.2-0.1-0.4-0.3-0.6-0.4c-0.2-0.2-0.4-0.3-0.5-0.5l1.2-1.5c-0.1-0.1-0.3-0.3-0.4-0.5l-1.7,1
		c-0.1-0.2-0.3-0.4-0.4-0.6c-0.1-0.2-0.2-0.4-0.3-0.7l1.7-1c-0.1-0.2-0.1-0.4-0.2-0.6l-1.9,0.3c-0.1-0.2-0.1-0.5-0.2-0.7
		c0-0.3-0.1-0.5-0.1-0.7l1.9-0.3c0-0.1,0-0.2,0-0.3c0-0.1,0-0.2,0-0.3l-1.9-0.3c0-0.2,0-0.5,0.1-0.7c0-0.2,0.1-0.5,0.2-0.7l1.9,0.3
		c0.1-0.2,0.1-0.4,0.2-0.6l-1.7-1c0.1-0.2,0.2-0.5,0.3-0.7c0.1-0.2,0.3-0.4,0.4-0.6l1.7,1c0.1-0.2,0.2-0.3,0.4-0.5l-1.2-1.5
		c0.2-0.2,0.4-0.4,0.5-0.5c0.2-0.2,0.4-0.3,0.6-0.4l1.2,1.5c0.2-0.1,0.3-0.2,0.5-0.3l-0.7-1.8c0.2-0.1,0.5-0.2,0.7-0.3
		s0.5-0.2,0.7-0.2l0.7,1.8c0.2,0,0.4-0.1,0.6-0.1v-1.9c0.2,0,0.5,0,0.8,0v4.3c-2,0-3.6,1.6-3.6,3.6c0,2,1.6,3.6,3.6,3.6V69.7z"/>
	<path class="st1" d="M58.7,105l-0.4-0.5v-1.5c0.5-0.4,0.9-0.9,1.2-1.4l-1.2-0.7v-0.9l1.6,0.9c0.4-0.8,0.6-1.6,0.7-2.5h-2.3v-0.8
		h2.3c-0.1-0.9-0.3-1.7-0.7-2.5l-1.6,0.9v-0.9l1.2-0.7c-0.3-0.5-0.8-1-1.2-1.4v-1.5l0.4-0.5c0.5,0.3,1,0.7,1.4,1.2l-0.6,0.7
		c0.2,0.2,0.3,0.4,0.5,0.6l0.8-0.5c0.4,0.5,0.7,1,0.9,1.6l-0.8,0.5c0.1,0.2,0.2,0.4,0.2,0.7l1-0.2c0.2,0.6,0.3,1.2,0.3,1.8l-1,0.2
		c0,0.1,0,0.2,0,0.4c0,0.1,0,0.2,0,0.4l1,0.2c0,0.6-0.1,1.2-0.3,1.8l-1-0.2c-0.1,0.2-0.2,0.5-0.2,0.7l0.8,0.5
		c-0.2,0.6-0.6,1.1-0.9,1.6l-0.8-0.5c-0.1,0.2-0.3,0.4-0.5,0.6l0.6,0.7C59.7,104.3,59.2,104.7,58.7,105z M58.3,104.5l-0.2-0.2
		c-0.2,0.1-0.4,0.3-0.6,0.4l0.3,0.9c-0.4,0.2-0.8,0.4-1.3,0.5v-1.9c0.2-0.1,0.3-0.1,0.5-0.2l-0.5-0.9v-1.6l1.2,2.1
		c0.2-0.1,0.4-0.3,0.6-0.5V104.5L58.3,104.5z M56.5,90.2c0.4,0.1,0.9,0.3,1.3,0.5l-0.3,0.9c0.2,0.1,0.4,0.2,0.6,0.4l0.2-0.2v1.5
		c-0.2-0.2-0.4-0.3-0.6-0.5l-1.2,2.1v-1.6l0.5-0.9c-0.2-0.1-0.3-0.2-0.5-0.2V90.2L56.5,90.2z M58.3,95.2v0.9l-1.8,1v-0.9L58.3,95.2
		L58.3,95.2z M58.3,97.7v0.8h-1.8v-0.8H58.3L58.3,97.7z M58.3,100.1v0.9l-1.8-1V99L58.3,100.1z M56.5,106.1c-0.1,0-0.3,0.1-0.4,0.1
		l-0.3-0.9v-0.9c0.3-0.1,0.5-0.1,0.8-0.2V106.1L56.5,106.1z M55.7,90.9L56,90c0.1,0,0.3,0.1,0.4,0.1v1.9c-0.2-0.1-0.5-0.2-0.8-0.2
		V90.9L55.7,90.9z M56.5,93.2v1.6L55.7,96v-1.6L56.5,93.2L56.5,93.2z M56.5,96.3v0.9L56,97.5c0,0.1,0,0.2,0.1,0.2h0.4v0.8H56
		c0,0.1,0,0.2-0.1,0.2l0.5,0.3v0.9l-0.8-0.4v-2.8L56.5,96.3L56.5,96.3z M56.5,101.5v1.6l-0.8-1.3v-1.6L56.5,101.5z M55.7,105.3
		L55.7,105.3c-0.2,0-0.5,0.1-0.7,0.1v1c-0.3,0-0.6,0.1-0.9,0.1v-7c0.7,0,1.3-0.6,1.3-1.3c0-0.7-0.6-1.3-1.3-1.3v-7
		c0.3,0,0.6,0,0.9,0.1v1c0.2,0,0.5,0.1,0.7,0.1l0,0v0.9c-0.4-0.1-0.8-0.2-1.2-0.2v4.5c0.1,0,0.2,0,0.2,0.1l1-1.7V96l-0.3,0.6
		c0.1,0.1,0.1,0.1,0.2,0.2l0.1-0.1v2.8l-0.1-0.1c-0.1,0.1-0.1,0.1-0.2,0.2l0.3,0.6v1.6l-1-1.7c-0.1,0-0.2,0-0.2,0.1v4.5
		c0.4,0,0.8-0.1,1.2-0.2V105.3z M54.1,106.4c-0.3,0-0.6,0-0.9-0.1v-1c-0.2,0-0.5-0.1-0.7-0.1l0,0v-0.9c0.4,0.1,0.8,0.2,1.3,0.2v-4.5
		c-0.1,0-0.2,0-0.2-0.1l-1,1.7v-1.6l0.3-0.6c-0.1-0.1-0.1-0.1-0.2-0.2l-0.1,0.1v-2.8l0.1,0.1c0.1-0.1,0.1-0.1,0.2-0.2L52.4,96v-1.6
		l1,1.7c0.1,0,0.2,0,0.2-0.1v-4.5c-0.4,0-0.8,0.1-1.3,0.2v-0.9l0,0c0.2-0.1,0.5-0.1,0.7-0.1v-1c0.3,0,0.6,0,0.9,0v7
		c-0.7,0-1.3,0.6-1.3,1.3c0,0.7,0.6,1.3,1.3,1.3V106.4z M52.4,105.3l-0.3,0.9c-0.1,0-0.3-0.1-0.4-0.1v-1.9c0.2,0.1,0.5,0.2,0.8,0.2
		V105.3L52.4,105.3z M51.7,90.2c0.1,0,0.3-0.1,0.4-0.1l0.3,0.9v0.9c-0.3,0.1-0.5,0.2-0.8,0.2V90.2L51.7,90.2z M52.4,94.5V96
		l-0.8-1.3v-1.6L52.4,94.5L52.4,94.5z M52.4,96.7v2.8l-0.8,0.4V99l0.5-0.3c0-0.1,0-0.2-0.1-0.2h-0.4v-0.8h0.4c0-0.1,0-0.2,0.1-0.2
		l-0.5-0.3v-0.9L52.4,96.7L52.4,96.7z M52.4,100.2v1.6l-0.8,1.3v-1.6L52.4,100.2z M51.7,106.1c-0.4-0.1-0.9-0.3-1.3-0.5l0.3-0.9
		c-0.2-0.1-0.4-0.2-0.6-0.4l-0.2,0.2v-1.5c0.2,0.2,0.4,0.3,0.6,0.5l1.2-2.1v1.6l-0.5,0.9c0.2,0.1,0.3,0.2,0.5,0.2V106.1L51.7,106.1z
		 M49.9,91.7l0.2,0.2c0.2-0.1,0.4-0.3,0.6-0.4l-0.3-0.9c0.4-0.2,0.8-0.4,1.3-0.5v1.9c-0.2,0.1-0.3,0.1-0.5,0.2l0.5,0.9v1.6l-1.2-2.1
		c-0.2,0.1-0.4,0.3-0.6,0.5V91.7L49.9,91.7z M51.7,96.3v0.9l-1.8-1v-0.9L51.7,96.3L51.7,96.3z M51.7,97.7v0.8h-1.8v-0.8H51.7
		L51.7,97.7z M51.7,99v0.9l-1.8,1v-0.9L51.7,99z M49.9,104.5l-0.4,0.5c-0.5-0.3-1-0.7-1.4-1.2l0.6-0.7c-0.2-0.2-0.3-0.4-0.5-0.6
		l-0.8,0.5c-0.4-0.5-0.7-1-0.9-1.6l0.8-0.5c-0.1-0.2-0.2-0.4-0.2-0.7l-1,0.2c-0.2-0.6-0.3-1.2-0.3-1.8l1-0.2c0-0.1,0-0.2,0-0.4
		c0-0.1,0-0.2,0-0.4l-1-0.2c0-0.6,0.1-1.2,0.3-1.8l1,0.2c0.1-0.2,0.2-0.5,0.2-0.7l-0.8-0.5c0.2-0.6,0.6-1.1,0.9-1.6l0.8,0.5
		c0.1-0.2,0.3-0.4,0.5-0.6l-0.6-0.7c0.4-0.4,0.9-0.8,1.4-1.2l0.4,0.5v1.5c-0.5,0.4-0.9,0.9-1.2,1.4l1.2,0.7v0.9l-1.6-0.9
		c-0.4,0.8-0.6,1.6-0.7,2.5h2.3v0.8h-2.3c0.1,0.9,0.3,1.7,0.7,2.5l1.6-0.9v0.9l-1.2,0.7c0.3,0.5,0.8,1,1.2,1.4V104.5z"/>
	<path class="st1" d="M31.5,103l-1.7-1c-0.3,0.3-0.6,0.6-0.9,0.9l1,1.7c-0.4,0.3-0.8,0.6-1.2,0.8c-0.4,0.2-0.9,0.5-1.3,0.6l-1-1.7
		c-0.4,0.1-0.8,0.2-1.2,0.3v1.9c-0.5,0.1-1,0.1-1.5,0.1v-4.2h0.1l0,0h0l0.1,0l0,0h0l0,0l0,0l0,0h0l0,0l0,0l0,0h0l0,0l0,0l0,0l0,0
		l0,0l0,0l0,0l0,0l0,0l0,0l0,0l0,0l0,0l0,0l0,0h0l0.1,0l0,0l0.1,0l0,0c0.2,0,0.4-0.1,0.5-0.1v0h0v0c0.5-0.1,0.9-0.3,1.4-0.6
		c0.1-0.1,0.3-0.2,0.4-0.3l0,0l0,0l0,0l0,0l0,0l0,0c0.5-0.4,0.9-0.8,1.3-1.3l0,0l0,0l0,0l0,0l0,0c0.1-0.1,0.2-0.2,0.2-0.4
		c0.2-0.4,0.4-0.9,0.6-1.3l0,0l0,0l0,0l0,0l0,0l0,0l0,0l0,0l0,0v0l0,0h0l0,0l0,0l0,0l0,0l0,0v0l0,0l0,0l0,0v0l0,0l0,0l0,0v0l0,0v0
		l0,0l0,0l0,0v0l0,0l0,0l0,0l0,0l0,0l0,0l0,0v0l0,0v0l0,0l0,0l0,0l0,0l0,0l0,0l0,0v0l0,0v0l0,0l0,0l0,0v0l0,0v0l0,0l0,0l0,0v0l0,0
		l0,0l0,0l0,0l0,0l0,0l0,0v0l0,0l0,0l0,0l0,0l0,0l0,0l0,0l0,0l0,0l0,0l0,0v0l0,0l0,0l0,0l0,0l0,0l0,0l0,0v0l0,0l0,0l0,0v0l0,0l0,0
		l0,0l0,0l0,0l0,0l0,0l0,0l0,0l0,0l0,0l0,0l0,0l0,0l0,0l0,0l0,0l0,0l0,0l0,0l0,0l0,0v0l0,0l0,0v0l0,0l0,0v0l0,0v0l0,0v0l0,0v0l0,0v0
		l0,0v0l0,0v0v0l0,0l0,0l0,0l0,0v0l0,0l0,0h0l0,0l0,0c0,0,0-0.1,0-0.1v0l0,0v0l0,0v0c0,0,0-0.1,0-0.1l0,0c0-0.3-0.1-0.6-0.2-0.9l0,0
		v0h0c-0.1-0.5-0.3-0.9-0.6-1.4c-0.1-0.1-0.2-0.3-0.3-0.4l0,0l0,0l0,0l0,0c-0.4-0.5-0.8-1-1.4-1.3l0,0l-0.1,0l0,0l0,0l0,0
		c-0.1-0.1-0.2-0.1-0.2-0.1c-0.3-0.2-0.7-0.4-1.1-0.5l0,0l0,0l0,0l0,0l-0.1,0l0,0l0,0l-0.1,0l0,0h0l0,0l-0.1,0l0,0l0,0
		c0,0-0.1,0-0.1,0l0,0l0,0l0,0l-0.1,0l0,0l-0.1,0l0,0c0,0-0.1,0-0.1,0l-0.1,0l-0.1,0l0,0c0,0-0.1,0-0.1,0l0,0c0,0-0.1,0-0.1,0l0,0
		l0,0c0,0-0.1,0-0.1,0l0,0c0,0-0.1,0-0.1,0h0h0c0,0-0.1,0-0.1,0v-4.2c0.5,0,1,0,1.5,0.1v1.9c0.4,0.1,0.8,0.2,1.2,0.3l1-1.7
		c0.5,0.2,0.9,0.4,1.3,0.6c0.4,0.2,0.8,0.5,1.2,0.8l-1,1.7c0.3,0.3,0.6,0.6,0.9,0.9l1.7-1c0.3,0.4,0.6,0.8,0.8,1.2
		c0.2,0.4,0.5,0.9,0.6,1.3l-1.7,1c0.1,0.4,0.2,0.8,0.3,1.2h1.9c0.1,0.5,0.1,1,0.1,1.5c0,0.5,0,1-0.1,1.5h-1.9
		c-0.1,0.4-0.2,0.8-0.3,1.2l1.7,1c-0.2,0.5-0.4,0.9-0.6,1.3C32.1,102.2,31.8,102.6,31.5,103z M23.7,106.7c-0.5,0-1,0-1.5-0.1v-1.9
		c-0.4-0.1-0.8-0.2-1.2-0.3l-1,1.7c-0.5-0.2-0.9-0.4-1.3-0.6c-0.4-0.2-0.8-0.5-1.2-0.8l1-1.7c-0.3-0.3-0.6-0.6-0.9-0.9l-1.7,1
		c-0.3-0.4-0.6-0.8-0.8-1.2c-0.2-0.4-0.5-0.9-0.6-1.3l1.7-1c-0.1-0.4-0.2-0.8-0.3-1.2h-1.9c-0.1-0.5-0.1-1-0.1-1.5
		c0-0.5,0-1,0.1-1.5h1.9c0.1-0.4,0.2-0.8,0.3-1.2l-1.7-1c0.2-0.5,0.4-0.9,0.6-1.3c0.2-0.4,0.5-0.8,0.8-1.2l1.7,1
		c0.3-0.3,0.6-0.6,0.9-0.9l-1-1.7c0.4-0.3,0.8-0.6,1.2-0.8c0.4-0.2,0.9-0.5,1.3-0.6l1,1.7c0.4-0.1,0.8-0.2,1.2-0.3V87
		c0.5-0.1,1-0.1,1.5-0.1v4.2l-0.1,0h0h0l-0.1,0h0h0l0,0l0,0l0,0h0l0,0l0,0l0,0l0,0l0,0l0,0l0,0l0,0l0,0l0,0l0,0l0,0l0,0l0,0l0,0l0,0
		l0,0l0,0l0,0h0l-0.1,0l0,0l-0.1,0l0,0c-0.2,0-0.4,0.1-0.5,0.1l0,0h0h0c-0.5,0.1-0.9,0.3-1.4,0.6c-0.1,0.1-0.2,0.1-0.3,0.2l0,0l0,0
		l0,0l0,0l0,0l0,0l0,0l0,0l0,0c-0.5,0.4-1,0.8-1.3,1.3l0,0l0,0l0,0l0,0l0,0c-0.1,0.1-0.2,0.2-0.2,0.4c-0.2,0.4-0.4,0.9-0.6,1.3l0,0
		v0l0,0l0,0l0,0l0,0l0,0l0,0l0,0l0,0l0,0v0l0,0l0,0l0,0v0l0,0v0l0,0h0l0,0v0l0,0l0,0l0,0l0,0l0,0v0l0,0l0,0l0,0v0l0,0v0l0,0l0,0l0,0
		l0,0l0,0l0,0l0,0v0l0,0v0l0,0l0,0l0,0l0,0l0,0l0,0l0,0l0,0l0,0l0,0l0,0l0,0l0,0l0,0l0,0l0,0l0,0v0l0,0h0l0,0l0,0l0,0l0,0l0,0l0,0
		l0,0l0,0l0,0l0,0l0,0l0,0l0,0l0,0l0,0l0,0l0,0l0,0l0,0l0,0l0,0l0,0l0,0l0,0l0,0v0l0,0v0l0,0v0l0,0l0,0l0,0v0l0,0v0l0,0l0,0l0,0l0,0
		l0,0l0,0l0,0l0,0v0l0,0l0,0l0,0l0,0l0,0v0l0,0l0,0l0,0v0l0,0l0,0v0v0l0,0v0l0,0v0l0,0v0l0,0l0,0v0l0,0l0,0l0,0v0l0,0l0,0l0,0l0,0
		l0,0l0,0c0,0,0,0.1,0,0.1l0,0l0,0v0l0,0l0,0c0,0,0,0.1,0,0.1v0c0,0.3,0.1,0.6,0.2,0.9h0l0,0l0,0c0.1,0.5,0.3,0.9,0.6,1.4
		c0.1,0.2,0.2,0.3,0.3,0.4l0,0l0,0l0,0c0.4,0.5,0.8,1,1.4,1.3l0,0l0.1,0l0,0l0,0l0,0c0.1,0.1,0.2,0.1,0.2,0.1
		c0.3,0.2,0.7,0.4,1.1,0.5l0,0l0,0l0,0l0,0l0.1,0l0,0l0,0l0.1,0l0,0l0,0l0,0l0.1,0l0,0l0,0c0,0,0.1,0,0.1,0l0,0l0,0l0,0l0.1,0l0,0
		l0.1,0l0,0c0,0,0.1,0,0.1,0l0,0l0.1,0l0,0c0,0,0.1,0,0.1,0l0,0c0,0,0.1,0,0.1,0l0,0l0,0c0,0,0.1,0,0.1,0l0,0c0,0,0.1,0,0.1,0h0h0
		c0,0,0.1,0,0.1,0V106.7z"/>
	<path class="st1" d="M17.5,83.7l-0.3-0.4v-1c0.3-0.3,0.6-0.6,0.9-1l-0.9-0.5v-0.7l1.2,0.7c0.3-0.5,0.4-1.1,0.5-1.8h-1.6v-0.6h1.6
		c0-0.6-0.2-1.2-0.5-1.8l-1.2,0.7v-0.7l0.9-0.5c-0.2-0.4-0.5-0.7-0.9-1v-1l0.3-0.4c0.4,0.2,0.7,0.5,1,0.8l-0.4,0.5
		c0.1,0.1,0.2,0.3,0.3,0.4l0.6-0.3c0.3,0.3,0.5,0.7,0.7,1.1l-0.6,0.3c0.1,0.2,0.1,0.3,0.2,0.5l0.7-0.1c0.1,0.4,0.2,0.8,0.2,1.3
		l-0.7,0.1c0,0.1,0,0.2,0,0.3s0,0.2,0,0.3l0.7,0.1c0,0.4-0.1,0.9-0.2,1.3l-0.7-0.1c-0.1,0.2-0.1,0.3-0.2,0.5l0.6,0.3
		c-0.2,0.4-0.4,0.8-0.7,1.1l-0.6-0.3c-0.1,0.1-0.2,0.3-0.3,0.4l0.4,0.5C18.2,83.2,17.9,83.4,17.5,83.7z M17.2,83.3l-0.1-0.2
		c-0.1,0.1-0.3,0.2-0.4,0.3l0.2,0.6c-0.3,0.1-0.6,0.3-0.9,0.4v-1.4c0.1,0,0.2-0.1,0.4-0.2l-0.4-0.6v-1.1l0.8,1.5
		c0.2-0.1,0.3-0.2,0.4-0.3V83.3L17.2,83.3z M15.9,73.1c0.3,0.1,0.6,0.2,0.9,0.4l-0.2,0.6c0.2,0.1,0.3,0.2,0.4,0.3l0.1-0.2v1
		c-0.1-0.1-0.3-0.2-0.4-0.3l-0.8,1.5v-1.1l0.4-0.6c-0.1-0.1-0.2-0.1-0.4-0.2V73.1L15.9,73.1z M17.2,76.7v0.7l-1.3,0.7v-0.7
		L17.2,76.7L17.2,76.7z M17.2,78.5V79h-1.3v-0.6H17.2L17.2,78.5z M17.2,80.2v0.7l-1.3-0.7v-0.7L17.2,80.2z M15.9,84.4
		c-0.1,0-0.2,0.1-0.3,0.1l-0.2-0.6v-0.7c0.2,0,0.4-0.1,0.5-0.2V84.4L15.9,84.4z M15.4,73.6l0.2-0.6c0.1,0,0.2,0.1,0.3,0.1v1.4
		c-0.2-0.1-0.4-0.1-0.5-0.2V73.6L15.4,73.6z M15.9,75.2v1.1l-0.5,0.9v-1.1L15.9,75.2L15.9,75.2z M15.9,77.5v0.7l-0.4,0.2
		c0,0.1,0,0.1,0,0.2h0.3V79h-0.3c0,0.1,0,0.1,0,0.2l0.4,0.2v0.7l-0.5-0.3v-2L15.9,77.5L15.9,77.5z M15.9,81.2v1.1l-0.5-0.9v-1.1
		L15.9,81.2z M15.4,83.9L15.4,83.9c-0.2,0-0.3,0-0.5,0.1v0.7c-0.2,0-0.4,0-0.7,0v-5c0.5,0,0.9-0.4,0.9-0.9c0-0.5-0.4-0.9-0.9-0.9v-5
		c0.2,0,0.4,0,0.7,0v0.7c0.2,0,0.3,0.1,0.5,0.1l0,0v0.7c-0.3-0.1-0.6-0.1-0.9-0.1v3.2c0.1,0,0.1,0,0.2,0l0.7-1.2v1.1l-0.2,0.4
		c0,0,0.1,0.1,0.1,0.1l0.1-0.1v2l-0.1-0.1c0,0-0.1,0.1-0.1,0.1l0.2,0.4v1.1l-0.7-1.2c-0.1,0-0.1,0-0.2,0v3.2c0.3,0,0.6-0.1,0.9-0.1
		V83.9z M14.2,84.7c-0.2,0-0.4,0-0.7,0V84c-0.2,0-0.3-0.1-0.5-0.1l0,0v-0.7c0.3,0.1,0.6,0.1,0.9,0.1v-3.2c-0.1,0-0.1,0-0.2,0
		l-0.7,1.2v-1.1l0.2-0.4c0,0-0.1-0.1-0.1-0.1l-0.1,0.1v-2l0.1,0.1c0,0,0.1-0.1,0.1-0.1l-0.2-0.4v-1.1l0.7,1.2c0.1,0,0.1,0,0.2,0
		v-3.2c-0.3,0-0.6,0.1-0.9,0.1v-0.7l0,0c0.2,0,0.3-0.1,0.5-0.1v-0.7c0.2,0,0.4,0,0.7,0v5c-0.5,0-0.9,0.4-0.9,0.9
		c0,0.5,0.4,0.9,0.9,0.9V84.7z M13.1,83.9l-0.2,0.6c-0.1,0-0.2-0.1-0.3-0.1v-1.4c0.2,0.1,0.4,0.1,0.5,0.2V83.9L13.1,83.9z
		 M12.5,73.1c0.1,0,0.2-0.1,0.3-0.1l0.2,0.6v0.7c-0.2,0-0.4,0.1-0.5,0.2V73.1L12.5,73.1z M13.1,76.2v1.1l-0.5-0.9v-1.1L13.1,76.2
		L13.1,76.2z M13.1,77.8v2l-0.5,0.3v-0.7l0.4-0.2c0-0.1,0-0.1,0-0.2h-0.3v-0.6h0.3c0-0.1,0-0.1,0-0.2l-0.4-0.2v-0.7L13.1,77.8
		L13.1,77.8z M13.1,80.2v1.1l-0.5,0.9v-1.1L13.1,80.2z M12.5,84.4c-0.3-0.1-0.6-0.2-0.9-0.4l0.2-0.6c-0.2-0.1-0.3-0.2-0.4-0.3
		l-0.1,0.2v-1c0.1,0.1,0.3,0.2,0.4,0.3l0.8-1.5v1.1l-0.4,0.6c0.1,0.1,0.2,0.1,0.4,0.2V84.4L12.5,84.4z M11.2,74.2l0.1,0.2
		c0.1-0.1,0.3-0.2,0.4-0.3l-0.2-0.6c0.3-0.1,0.6-0.3,0.9-0.4v1.4c-0.1,0-0.2,0.1-0.4,0.2l0.4,0.6v1.1l-0.8-1.5
		c-0.2,0.1-0.3,0.2-0.4,0.3V74.2L11.2,74.2z M12.5,77.5v0.7l-1.3-0.7v-0.7L12.5,77.5L12.5,77.5z M12.5,78.5V79h-1.3v-0.6H12.5
		L12.5,78.5z M12.5,79.4v0.7l-1.3,0.7v-0.7L12.5,79.4z M11.2,83.3L11,83.7c-0.4-0.2-0.7-0.5-1-0.8l0.4-0.5c-0.1-0.1-0.2-0.3-0.3-0.4
		l-0.6,0.3c-0.3-0.3-0.5-0.7-0.7-1.1l0.6-0.3c-0.1-0.2-0.1-0.3-0.2-0.5l-0.7,0.1c-0.1-0.4-0.2-0.8-0.2-1.3L9,79c0-0.1,0-0.2,0-0.3
		s0-0.2,0-0.3l-0.7-0.1c0-0.4,0.1-0.9,0.2-1.3l0.7,0.1c0.1-0.2,0.1-0.3,0.2-0.5l-0.6-0.3C9,76,9.2,75.6,9.5,75.3l0.6,0.3
		c0.1-0.1,0.2-0.3,0.3-0.4l-0.4-0.5c0.3-0.3,0.6-0.6,1-0.8l0.3,0.4v1c-0.3,0.3-0.6,0.6-0.9,1l0.9,0.5v0.7l-1.2-0.7
		c-0.3,0.5-0.4,1.1-0.5,1.8h1.6V79H9.6c0,0.6,0.2,1.2,0.5,1.8l1.2-0.7v0.7l-0.9,0.5c0.2,0.4,0.5,0.7,0.9,1V83.3z"/>
	<path class="st1" d="M49.4,26.7v-3.6c0.6,0,1.1-0.5,1.1-1.1c0-0.6-0.5-1-1.1-1v-3.6l0.1,0.1c0.2,0.1,0.4,0.3,0.6,0.4l-0.5,0.9
		c0.2,0.1,0.3,0.3,0.5,0.5l0.9-0.5c0.2,0.2,0.3,0.4,0.4,0.6c0.1,0.2,0.2,0.5,0.3,0.7l-0.9,0.5c0.1,0.2,0.1,0.4,0.2,0.6h1
		c0,0.3,0.1,0.5,0.1,0.8c0,0.3,0,0.5-0.1,0.8h-1c0,0.2-0.1,0.4-0.2,0.6l0.9,0.5c-0.1,0.2-0.2,0.5-0.3,0.7c-0.1,0.2-0.3,0.4-0.4,0.6
		l-0.9-0.5c-0.1,0.2-0.3,0.3-0.5,0.5l0.5,0.9c-0.2,0.2-0.4,0.3-0.6,0.4L49.4,26.7z M46.9,21.4c0.4,0,0.7,0.3,0.7,0.7
		c0,0.4-0.3,0.7-0.7,0.7v0.8c0.6,0,1,0.5,1,1c0,0.6-0.5,1-1,1v1.7c0.3,0,0.5,0,0.8-0.1v-1c0.2,0,0.4-0.1,0.6-0.2l0.5,0.9
		c0.2-0.1,0.4-0.2,0.6-0.3v-3.6c-0.6,0-1-0.5-1-1.1c0-0.6,0.5-1,1-1v-3.6c-0.2-0.1-0.4-0.2-0.6-0.3l-0.5,0.9
		c-0.2-0.1-0.4-0.1-0.6-0.2v-1c-0.3,0-0.5-0.1-0.8-0.1v1.7c0.6,0,1,0.5,1,1.1s-0.5,1-1,1V21.4z M46.9,22.8c-0.4,0-0.7-0.3-0.7-0.7
		c0-0.4,0.3-0.7,0.7-0.7v-0.8c-0.6,0-1.1-0.5-1.1-1s0.5-1.1,1.1-1.1v-1.7c-0.3,0-0.5,0-0.8,0.1v1c-0.2,0-0.4,0.1-0.6,0.2l-0.5-0.9
		c-0.2,0.1-0.4,0.2-0.6,0.3V21c0.6,0,1.1,0.5,1.1,1c0,0.6-0.5,1.1-1.1,1.1v3.6c0.2,0.1,0.4,0.2,0.6,0.3l0.5-0.9
		c0.2,0.1,0.4,0.1,0.6,0.2v1c0.3,0,0.5,0.1,0.8,0.1v-1.7c-0.6,0-1.1-0.5-1.1-1c0-0.6,0.5-1,1.1-1V22.8z M44.4,17.4V21
		c-0.6,0-1,0.5-1,1c0,0.6,0.5,1.1,1,1.1v3.6l-0.1-0.1c-0.2-0.1-0.4-0.3-0.6-0.4l0.5-0.9c-0.2-0.1-0.3-0.3-0.5-0.5l-0.9,0.5
		c-0.2-0.2-0.3-0.4-0.4-0.6S42.1,24.2,42,24l0.9-0.5c-0.1-0.2-0.1-0.4-0.2-0.6h-1c0-0.3-0.1-0.5-0.1-0.8c0-0.3,0-0.5,0.1-0.8h1
		c0-0.2,0.1-0.4,0.2-0.6L42,20.1c0.1-0.2,0.2-0.5,0.3-0.7s0.3-0.4,0.4-0.6l0.9,0.5c0.1-0.2,0.3-0.3,0.5-0.5l-0.5-0.9
		c0.2-0.2,0.4-0.3,0.6-0.4L44.4,17.4z"/>
	<path class="st1" d="M63,19.6l-0.7-0.4c-0.1,0.1-0.2,0.3-0.4,0.4l0.4,0.7c-0.2,0.1-0.3,0.2-0.5,0.4c-0.2,0.1-0.4,0.2-0.6,0.3
		l-0.4-0.7c-0.2,0.1-0.3,0.1-0.5,0.1v0.8c-0.2,0-0.4,0-0.6,0v-1.8l0,0h0h0l0,0h0h0h0l0,0h0h0l0,0l0,0h0l0,0l0,0l0,0h0h0l0,0l0,0l0,0
		l0,0l0,0l0,0l0,0l0,0l0,0l0,0l0,0l0,0l0,0l0,0l0,0l0,0c0.1,0,0.2,0,0.2,0l0,0l0,0v0c0.2-0.1,0.4-0.1,0.6-0.2c0.1,0,0.1-0.1,0.2-0.1
		l0,0l0,0h0l0,0l0,0l0,0c0.2-0.2,0.4-0.3,0.5-0.6l0,0v0l0,0l0,0l0,0c0-0.1,0.1-0.1,0.1-0.2c0.1-0.2,0.2-0.4,0.2-0.6l0,0h0l0,0l0,0
		l0,0v0l0,0l0,0l0,0l0,0l0,0l0,0l0,0l0,0l0,0l0,0l0,0l0,0l0,0l0,0l0,0v0l0,0v0l0,0l0,0l0,0l0,0l0,0l0,0l0,0l0,0l0,0v0l0,0v0l0,0l0,0
		l0,0l0,0l0,0h0l0,0l0,0l0,0v0l0,0l0,0l0,0h0l0,0l0,0l0,0v0l0,0l0,0l0,0v0l0,0v0l0,0l0,0l0,0l0,0l0,0l0,0l0,0l0,0l0,0l0,0l0,0l0,0
		l0,0l0,0l0,0l0,0l0,0l0,0l0,0l0,0l0,0l0,0l0,0v0l0,0l0,0l0,0l0,0l0,0v0v0l0,0l0,0l0,0l0,0l0,0l0,0v0l0,0l0,0v0l0,0l0,0l0,0v0l0,0
		l0,0l0,0v0l0,0l0,0l0,0v0l0,0v0l0,0l0,0l0,0v0l0,0v0l0,0v0l0,0v0l0,0v0l0,0v0l0,0v0l0,0v0l0,0v0v0l0,0v0l0,0v0l0,0v0l0,0l0,0v0l0,0
		c0,0,0,0,0-0.1l0,0l0,0v0l0,0l0,0c0,0,0,0,0,0l0,0c0-0.1,0-0.3-0.1-0.4l0,0v0h0c-0.1-0.2-0.1-0.4-0.2-0.6c0-0.1-0.1-0.1-0.1-0.2
		l0,0l0,0l0,0l0,0c-0.2-0.2-0.4-0.4-0.6-0.6l0,0l0,0l0,0l0,0l0,0c0,0-0.1,0-0.1-0.1c-0.1-0.1-0.3-0.2-0.5-0.2l0,0l0,0l0,0l0,0l0,0
		l0,0l0,0l0,0h0l0,0l0,0l0,0l0,0l0,0c0,0,0,0,0,0l0,0l0,0l0,0l0,0l0,0l0,0l0,0c0,0,0,0,0,0l0,0l0,0l0,0c0,0,0,0,0,0l0,0
		c0,0,0,0-0.1,0h0l0,0c0,0,0,0-0.1,0l0,0c0,0,0,0-0.1,0h0h0c0,0,0,0-0.1,0v-1.8c0.2,0,0.4,0,0.6,0v0.8c0.2,0,0.4,0.1,0.5,0.1
		l0.4-0.7c0.2,0.1,0.4,0.2,0.6,0.3c0.2,0.1,0.4,0.2,0.5,0.4l-0.4,0.7c0.1,0.1,0.3,0.2,0.4,0.4l0.7-0.4c0.1,0.2,0.2,0.3,0.4,0.5
		c0.1,0.2,0.2,0.4,0.3,0.6l-0.7,0.4c0.1,0.2,0.1,0.3,0.1,0.5h0.8c0,0.2,0,0.4,0,0.6c0,0.2,0,0.4,0,0.6H63c0,0.2-0.1,0.4-0.1,0.5
		l0.7,0.4c-0.1,0.2-0.2,0.4-0.3,0.6C63.2,19.2,63.1,19.4,63,19.6z M59.6,21.2c-0.2,0-0.4,0-0.6,0v-0.8c-0.2,0-0.3-0.1-0.5-0.1
		l-0.4,0.7c-0.2-0.1-0.4-0.2-0.6-0.3c-0.2-0.1-0.4-0.2-0.5-0.4l0.4-0.7c-0.1-0.1-0.3-0.2-0.4-0.4l-0.7,0.4c-0.1-0.2-0.2-0.3-0.4-0.5
		c-0.1-0.2-0.2-0.4-0.3-0.6l0.7-0.4c-0.1-0.2-0.1-0.3-0.1-0.5h-0.8c0-0.2,0-0.4,0-0.6c0-0.2,0-0.4,0-0.6h0.8c0-0.2,0.1-0.4,0.1-0.5
		l-0.7-0.4c0.1-0.2,0.2-0.4,0.3-0.6c0.1-0.2,0.2-0.4,0.4-0.5l0.7,0.4c0.1-0.1,0.2-0.3,0.4-0.4L57,13.6c0.2-0.1,0.3-0.2,0.5-0.4
		c0.2-0.1,0.4-0.2,0.6-0.3l0.4,0.7c0.2-0.1,0.3-0.1,0.5-0.1v-0.8c0.2,0,0.4,0,0.6,0v1.8h0h0h0l0,0l0,0h0h0h0h0l0,0h0l0,0l0,0h0l0,0
		l0,0l0,0h0l0,0l0,0h0l0,0l0,0l0,0l0,0l0,0l0,0l0,0l0,0l0,0l0,0l0,0l0,0l0,0c-0.1,0-0.2,0-0.2,0l0,0l0,0l0,0
		c-0.2,0.1-0.4,0.1-0.6,0.2c0,0-0.1,0.1-0.1,0.1l0,0l0,0l0,0l0,0l0,0l0,0l0,0l0,0l0,0c-0.2,0.2-0.4,0.3-0.6,0.6l0,0h0l0,0l0,0l0,0
		c0,0-0.1,0.1-0.1,0.2c-0.1,0.2-0.2,0.4-0.2,0.6l0,0v0l0,0l0,0l0,0l0,0l0,0v0l0,0l0,0l0,0l0,0l0,0l0,0l0,0l0,0l0,0v0l0,0l0,0l0,0
		l0,0l0,0h0l0,0l0,0l0,0l0,0l0,0l0,0l0,0l0,0l0,0l0,0l0,0l0,0l0,0h0l0,0l0,0l0,0l0,0l0,0l0,0l0,0l0,0l0,0l0,0l0,0l0,0l0,0l0,0l0,0
		l0,0l0,0l0,0l0,0l0,0l0,0l0,0l0,0l0,0l0,0l0,0l0,0l0,0l0,0l0,0l0,0l0,0l0,0l0,0l0,0l0,0l0,0l0,0l0,0l0,0l0,0l0,0l0,0l0,0l0,0l0,0v0
		l0,0l0,0l0,0l0,0v0l0,0l0,0l0,0l0,0v0l0,0l0,0l0,0l0,0v0v0l0,0v0h0v0l0,0v0l0,0l0,0l0,0v0l0,0v0l0,0l0,0l0,0v0l0,0v0l0,0v0l0,0v0
		l0,0v0l0,0v0l0,0v0l0,0v0v0l0,0v0l0,0l0,0v0v0l0,0l0,0v0l0,0c0,0,0,0,0,0.1l0,0l0,0l0,0l0,0l0,0c0,0,0,0,0,0.1l0,0
		c0,0.1,0,0.3,0.1,0.4l0,0l0,0l0,0c0.1,0.2,0.1,0.4,0.2,0.6c0,0.1,0.1,0.1,0.1,0.2l0,0l0,0h0c0.2,0.2,0.4,0.4,0.6,0.6l0,0l0,0l0,0
		l0,0l0,0c0,0,0.1,0,0.1,0.1c0.1,0.1,0.3,0.2,0.5,0.2l0,0l0,0l0,0l0,0l0,0l0,0l0,0l0,0h0v0l0,0l0,0l0,0l0,0c0,0,0,0,0,0l0,0l0,0l0,0
		l0,0l0,0l0,0l0,0c0,0,0,0,0,0l0,0l0,0l0,0c0,0,0,0,0,0l0,0c0,0,0,0,0.1,0h0h0c0,0,0,0,0.1,0h0c0,0,0,0,0.1,0h0h0c0,0,0,0,0.1,0
		V21.2z"/>
	<path class="st1" d="M79.2,33.6V32c0.4,0,0.7-0.2,0.8-0.6c0.1-0.5-0.1-1-0.6-1.1c-0.1,0-0.2,0-0.3,0v-2.7l0.1,0.1l0.6-0.6
		c0.2,0.1,0.3,0.3,0.5,0.4c0.2,0.2,0.3,0.3,0.4,0.5l-0.6,0.6c0.1,0.2,0.2,0.3,0.3,0.5l0.8-0.2c0.1,0.2,0.1,0.4,0.2,0.6
		c0.1,0.2,0.1,0.4,0.1,0.7l-0.8,0.2c0,0.2,0,0.4,0,0.6l0.8,0.2c0,0.2-0.1,0.4-0.1,0.6c-0.1,0.2-0.1,0.4-0.2,0.6l-0.8-0.2
		c-0.1,0.2-0.2,0.3-0.3,0.5l0.6,0.6c-0.1,0.2-0.3,0.3-0.4,0.5c-0.2,0.2-0.3,0.3-0.5,0.4L79.2,33.6z M77.4,30
		c0.3,0.1,0.5,0.4,0.4,0.7c-0.1,0.3-0.3,0.4-0.6,0.4v0.8c0.2,0.2,0.3,0.6,0.2,0.9c0,0.2-0.1,0.3-0.2,0.4v0.9c0.1,0,0.1,0,0.2,0
		l0.2,0.8c0.2,0,0.4-0.1,0.7-0.1c0.2-0.1,0.4-0.1,0.6-0.2l-0.2-0.8c0.2-0.1,0.3-0.2,0.5-0.3l0.1,0.1V32c-0.1,0-0.2,0-0.3,0
		c-0.5-0.1-0.7-0.6-0.6-1.1c0.1-0.4,0.5-0.6,0.8-0.6v-2.7c-0.1-0.1-0.3-0.2-0.4-0.2l0.2-0.8c-0.2-0.1-0.4-0.2-0.6-0.2
		c-0.2-0.1-0.4-0.1-0.6-0.1L77.6,27c-0.1,0-0.3,0-0.4,0v0.9c0.2-0.2,0.5-0.3,0.9-0.2c0.5,0.1,0.7,0.6,0.6,1.1
		c-0.1,0.5-0.6,0.7-1.1,0.6c-0.1,0-0.3-0.1-0.4-0.2v0.8C77.3,29.9,77.3,29.9,77.4,30z M77.2,31.1c-0.1,0-0.1,0-0.2,0
		c-0.3-0.1-0.5-0.4-0.4-0.7c0.1-0.3,0.3-0.4,0.6-0.4v-0.8c-0.2-0.2-0.3-0.6-0.2-0.9c0-0.2,0.1-0.3,0.2-0.4v-0.9c-0.1,0-0.1,0-0.2,0
		l-0.2-0.8c-0.2,0-0.4,0.1-0.7,0.1c-0.2,0.1-0.4,0.1-0.6,0.2l0.2,0.8c-0.2,0.1-0.3,0.2-0.5,0.3l-0.1-0.1V29c0.1,0,0.2,0,0.3,0
		c0.5,0.1,0.7,0.6,0.6,1.1c-0.1,0.4-0.5,0.6-0.8,0.6v2.7c0.1,0.1,0.3,0.2,0.4,0.2l-0.2,0.8c0.2,0.1,0.4,0.2,0.6,0.2
		c0.2,0.1,0.4,0.1,0.6,0.1l0.2-0.8c0.1,0,0.3,0,0.4,0v-0.9c-0.2,0.2-0.5,0.3-0.9,0.2c-0.5-0.1-0.7-0.6-0.6-1.1
		c0.1-0.5,0.6-0.7,1.1-0.6c0.1,0,0.3,0.1,0.4,0.2V31.1z M75.2,27.4V29c-0.4,0-0.7,0.2-0.8,0.6c-0.1,0.5,0.1,1,0.6,1.1
		c0.1,0,0.2,0,0.3,0v2.7l-0.1-0.1L74.5,34c-0.2-0.1-0.3-0.3-0.5-0.4c-0.2-0.2-0.3-0.3-0.4-0.5l0.6-0.6c-0.1-0.2-0.2-0.3-0.3-0.5
		l-0.8,0.2c-0.1-0.2-0.1-0.4-0.2-0.6c-0.1-0.2-0.1-0.4-0.1-0.7l0.8-0.2c0-0.2,0-0.4,0-0.6l-0.8-0.2c0-0.2,0.1-0.4,0.1-0.6
		c0.1-0.2,0.1-0.4,0.2-0.6l0.8,0.2c0.1-0.2,0.2-0.3,0.3-0.5l-0.6-0.6c0.1-0.2,0.3-0.3,0.4-0.5c0.2-0.2,0.3-0.3,0.5-0.4L75.2,27.4z"
		/>
	<path class="st1" d="M91,104.9v-1.6c0.4,0,0.7-0.2,0.8-0.6c0.1-0.5-0.1-1-0.6-1.1c-0.1,0-0.2,0-0.3,0v-2.7l0.1,0.1l0.6-0.6
		c0.2,0.1,0.3,0.3,0.5,0.4c0.2,0.2,0.3,0.3,0.4,0.5L92,99.8c0.1,0.2,0.2,0.3,0.3,0.5l0.8-0.2c0.1,0.2,0.1,0.4,0.2,0.6
		c0.1,0.2,0.1,0.4,0.1,0.7l-0.8,0.2c0,0.2,0,0.4,0,0.6l0.8,0.2c0,0.2-0.1,0.4-0.1,0.6c-0.1,0.2-0.1,0.4-0.2,0.6l-0.8-0.2
		c-0.1,0.2-0.2,0.3-0.3,0.5l0.6,0.6c-0.1,0.2-0.3,0.3-0.4,0.5c-0.2,0.2-0.3,0.3-0.5,0.4L91,104.9z M89.2,101.2
		c0.3,0.1,0.5,0.4,0.4,0.7c-0.1,0.3-0.3,0.4-0.6,0.4v0.8c0.2,0.2,0.3,0.6,0.2,0.9c0,0.2-0.1,0.3-0.2,0.4v0.9c0.1,0,0.1,0,0.2,0
		l0.2,0.8c0.2,0,0.4-0.1,0.7-0.1c0.2-0.1,0.4-0.1,0.6-0.2l-0.2-0.8c0.2-0.1,0.3-0.2,0.5-0.3l0.1,0.1v-1.6c-0.1,0-0.2,0-0.3,0
		c-0.5-0.1-0.7-0.6-0.6-1.1c0.1-0.4,0.5-0.6,0.8-0.6v-2.7c-0.1-0.1-0.3-0.2-0.4-0.2l0.2-0.8c-0.2-0.1-0.4-0.2-0.6-0.2
		c-0.2-0.1-0.4-0.1-0.6-0.1l-0.2,0.8c-0.1,0-0.3,0-0.4,0v0.9c0.2-0.2,0.5-0.3,0.9-0.2c0.5,0.1,0.7,0.6,0.6,1.1
		c-0.1,0.5-0.6,0.7-1.1,0.6c-0.1,0-0.3-0.1-0.4-0.2v0.8C89.1,101.2,89.1,101.2,89.2,101.2z M89,102.3c-0.1,0-0.1,0-0.2,0
		c-0.3-0.1-0.5-0.4-0.4-0.7c0.1-0.3,0.3-0.4,0.6-0.4v-0.8c-0.2-0.2-0.3-0.6-0.2-0.9c0-0.2,0.1-0.3,0.2-0.4v-0.9c-0.1,0-0.1,0-0.2,0
		l-0.2-0.8c-0.2,0-0.4,0.1-0.7,0.1c-0.2,0.1-0.4,0.1-0.6,0.2l0.2,0.8c-0.2,0.1-0.3,0.2-0.5,0.3L87,98.6v1.6c0.1,0,0.2,0,0.3,0
		c0.5,0.1,0.7,0.6,0.6,1.1c-0.1,0.4-0.5,0.6-0.8,0.6v2.7c0.1,0.1,0.3,0.2,0.4,0.2l-0.2,0.8c0.2,0.1,0.4,0.2,0.6,0.2
		c0.2,0.1,0.4,0.1,0.6,0.1l0.2-0.8c0.1,0,0.3,0,0.4,0v-0.9c-0.2,0.2-0.5,0.3-0.9,0.2c-0.5-0.1-0.7-0.6-0.6-1.1
		c0.1-0.5,0.6-0.7,1.1-0.6c0.1,0,0.3,0.1,0.4,0.2V102.3z M87,98.6v1.6c-0.4,0-0.7,0.2-0.8,0.6c-0.1,0.5,0.1,1,0.6,1.1
		c0.1,0,0.2,0,0.3,0v2.7l-0.1-0.1l-0.6,0.6c-0.2-0.1-0.3-0.3-0.5-0.4c-0.2-0.2-0.3-0.3-0.4-0.5l0.6-0.6c-0.1-0.2-0.2-0.3-0.3-0.5
		l-0.8,0.2c-0.1-0.2-0.1-0.4-0.2-0.6c-0.1-0.2-0.1-0.4-0.1-0.7l0.8-0.2c0-0.2,0-0.4,0-0.6l-0.8-0.2c0-0.2,0.1-0.4,0.1-0.6
		c0.1-0.2,0.1-0.4,0.2-0.6l0.8,0.2c0.1-0.2,0.2-0.3,0.3-0.5L85.5,99c0.1-0.2,0.3-0.3,0.4-0.5c0.2-0.2,0.3-0.3,0.5-0.4L87,98.6z"/>
	<path class="st1" d="M90.3,143.4l-0.2-0.3v-0.8c0.3-0.2,0.5-0.5,0.7-0.8l-0.7-0.4v-0.5l0.9,0.5c0.2-0.4,0.3-0.9,0.4-1.4h-1.3v-0.4
		h1.3c0-0.5-0.2-1-0.4-1.4l-0.9,0.5v-0.5l0.7-0.4c-0.2-0.3-0.4-0.6-0.7-0.8v-0.8l0.2-0.3c0.3,0.2,0.6,0.4,0.8,0.7l-0.4,0.4
		c0.1,0.1,0.2,0.2,0.3,0.3l0.5-0.3c0.2,0.3,0.4,0.6,0.5,0.9l-0.5,0.3c0.1,0.1,0.1,0.3,0.1,0.4l0.5-0.1c0.1,0.3,0.2,0.7,0.2,1
		l-0.5,0.1c0,0.1,0,0.1,0,0.2c0,0.1,0,0.1,0,0.2l0.5,0.1c0,0.4-0.1,0.7-0.2,1l-0.5-0.1c0,0.1-0.1,0.3-0.1,0.4l0.5,0.3
		c-0.1,0.3-0.3,0.6-0.5,0.9L91,142c-0.1,0.1-0.2,0.2-0.3,0.3l0.4,0.4C90.9,142.9,90.6,143.2,90.3,143.4z M90.1,143.1l-0.1-0.1
		c-0.1,0.1-0.2,0.1-0.4,0.2l0.2,0.5c-0.2,0.1-0.5,0.2-0.7,0.3v-1.1c0.1,0,0.2-0.1,0.3-0.1l-0.3-0.5v-0.9l0.7,1.2
		c0.1-0.1,0.2-0.2,0.3-0.3V143.1L90.1,143.1z M89.1,134.9c0.3,0.1,0.5,0.2,0.7,0.3l-0.2,0.5c0.1,0.1,0.2,0.1,0.4,0.2l0.1-0.1v0.8
		c-0.1-0.1-0.2-0.2-0.3-0.3l-0.7,1.2v-0.9l0.3-0.5c-0.1,0-0.2-0.1-0.3-0.1V134.9L89.1,134.9z M90.1,137.8v0.5l-1,0.6v-0.5
		L90.1,137.8L90.1,137.8z M90.1,139.2v0.4h-1v-0.4H90.1L90.1,139.2z M90.1,140.6v0.5l-1-0.6V140L90.1,140.6z M89.1,143.9
		c-0.1,0-0.2,0-0.2,0.1l-0.2-0.5V143c0.1,0,0.3-0.1,0.4-0.1V143.9L89.1,143.9z M88.7,135.4l0.2-0.5c0.1,0,0.2,0,0.2,0.1v1.1
		c-0.1-0.1-0.3-0.1-0.4-0.1V135.4L88.7,135.4z M89.1,136.6v0.9l-0.4,0.7v-0.9L89.1,136.6L89.1,136.6z M89.1,138.4v0.5l-0.3,0.2
		c0,0,0,0.1,0,0.1h0.2v0.4h-0.2c0,0,0,0.1,0,0.1l0.3,0.2v0.5l-0.4-0.2v-1.6L89.1,138.4L89.1,138.4z M89.1,141.3v0.9l-0.4-0.7v-0.9
		L89.1,141.3z M88.7,143.5L88.7,143.5c-0.1,0-0.3,0-0.4,0v0.5c-0.2,0-0.3,0-0.5,0v-4c0.4,0,0.7-0.3,0.7-0.7c0-0.4-0.3-0.7-0.7-0.7
		v-4c0.2,0,0.3,0,0.5,0v0.5c0.1,0,0.3,0,0.4,0.1l0,0v0.5c-0.2-0.1-0.5-0.1-0.7-0.1v2.6c0,0,0.1,0,0.1,0l0.6-1v0.9l-0.2,0.3
		c0,0,0.1,0.1,0.1,0.1l0.1,0v1.6l-0.1,0c0,0-0.1,0.1-0.1,0.1l0.2,0.3v0.9l-0.6-1c0,0-0.1,0-0.1,0v2.6c0.2,0,0.5-0.1,0.7-0.1V143.5z
		 M87.7,144.1c-0.2,0-0.3,0-0.5,0v-0.5c-0.1,0-0.3,0-0.4-0.1l0,0V143c0.2,0.1,0.5,0.1,0.7,0.1v-2.6c0,0-0.1,0-0.1,0l-0.6,1v-0.9
		l0.2-0.3c0,0-0.1-0.1-0.1-0.1l-0.1,0v-1.6l0.1,0c0,0,0.1-0.1,0.1-0.1l-0.2-0.3v-0.9l0.6,1c0,0,0.1,0,0.1,0v-2.6
		c-0.2,0-0.5,0.1-0.7,0.1v-0.5l0,0c0.1,0,0.3-0.1,0.4-0.1v-0.5c0.2,0,0.3,0,0.5,0v4c-0.4,0-0.7,0.3-0.7,0.7c0,0.4,0.3,0.7,0.7,0.7
		V144.1z M86.8,143.5l-0.2,0.5c-0.1,0-0.2,0-0.2-0.1v-1.1c0.1,0.1,0.3,0.1,0.4,0.1V143.5L86.8,143.5z M86.4,134.9
		c0.1,0,0.2,0,0.2-0.1l0.2,0.5v0.5c-0.1,0-0.3,0.1-0.4,0.1V134.9L86.4,134.9z M86.8,137.4v0.9l-0.4-0.7v-0.9L86.8,137.4L86.8,137.4z
		 M86.8,138.6v1.6l-0.4,0.2V140l0.3-0.2c0,0,0-0.1,0-0.1h-0.2v-0.4h0.2c0,0,0-0.1,0-0.1l-0.3-0.2v-0.5L86.8,138.6L86.8,138.6z
		 M86.8,140.6v0.9l-0.4,0.7v-0.9L86.8,140.6z M86.4,143.9c-0.3-0.1-0.5-0.2-0.7-0.3l0.2-0.5c-0.1-0.1-0.2-0.1-0.4-0.2l-0.1,0.1v-0.8
		c0.1,0.1,0.2,0.2,0.3,0.3l0.7-1.2v0.9l-0.3,0.5c0.1,0,0.2,0.1,0.3,0.1V143.9L86.4,143.9z M85.4,135.8l0.1,0.1
		c0.1-0.1,0.2-0.1,0.4-0.2l-0.2-0.5c0.2-0.1,0.5-0.2,0.7-0.3v1.1c-0.1,0-0.2,0.1-0.3,0.1l0.3,0.5v0.9l-0.7-1.2
		c-0.1,0.1-0.2,0.2-0.3,0.3V135.8L85.4,135.8z M86.4,138.4v0.5l-1-0.6v-0.5L86.4,138.4L86.4,138.4z M86.4,139.2v0.4h-1v-0.4H86.4
		L86.4,139.2z M86.4,140v0.5l-1,0.6v-0.5L86.4,140z M85.4,143.1l-0.2,0.3c-0.3-0.2-0.6-0.4-0.8-0.7l0.4-0.4
		c-0.1-0.1-0.2-0.2-0.3-0.3l-0.5,0.3c-0.2-0.3-0.4-0.6-0.5-0.9l0.5-0.3c-0.1-0.1-0.1-0.3-0.1-0.4l-0.5,0.1c-0.1-0.3-0.2-0.7-0.2-1
		l0.5-0.1c0-0.1,0-0.1,0-0.2c0-0.1,0-0.1,0-0.2l-0.5-0.1c0-0.4,0.1-0.7,0.2-1l0.5,0.1c0-0.1,0.1-0.3,0.1-0.4l-0.5-0.3
		c0.1-0.3,0.3-0.6,0.5-0.9l0.5,0.3c0.1-0.1,0.2-0.2,0.3-0.3l-0.4-0.4c0.2-0.2,0.5-0.5,0.8-0.7l0.2,0.3v0.8c-0.3,0.2-0.5,0.5-0.7,0.8
		l0.7,0.4v0.5l-0.9-0.5c-0.2,0.4-0.3,0.9-0.4,1.4h1.3v0.4h-1.3c0,0.5,0.2,1,0.4,1.4l0.9-0.5v0.5l-0.7,0.4c0.2,0.3,0.4,0.6,0.7,0.8
		V143.1z"/>
	<path class="st1" d="M43.1,98.8c-0.1,0.1-0.2,0.2-0.4,0.3l-0.8-0.9c-0.1,0.1-0.2,0.1-0.3,0.2l0.4,1.1c-0.1,0.1-0.3,0.1-0.4,0.2
		c-0.1,0.1-0.3,0.1-0.4,0.1l-0.4-1.1c-0.1,0-0.2,0-0.4,0.1v1.2c-0.1,0-0.3,0-0.5,0v-2.6c1.2,0,2.2-1,2.2-2.2c0-1.2-1-2.2-2.2-2.2
		v-2.6c0.2,0,0.3,0,0.5,0v1.2c0.1,0,0.2,0,0.4,0.1l0.4-1.1c0.1,0,0.3,0.1,0.4,0.1c0.1,0.1,0.3,0.1,0.4,0.2l-0.4,1.1
		c0.1,0.1,0.2,0.1,0.3,0.2l0.8-0.9c0.1,0.1,0.2,0.2,0.4,0.3c0.1,0.1,0.2,0.2,0.3,0.3l-0.8,0.9c0.1,0.1,0.2,0.2,0.2,0.3l1-0.6
		c0.1,0.1,0.2,0.2,0.3,0.4c0.1,0.1,0.1,0.3,0.2,0.4l-1,0.6c0,0.1,0.1,0.2,0.1,0.3l1.2-0.2c0,0.1,0.1,0.3,0.1,0.4
		c0,0.2,0,0.3,0.1,0.5L43.6,95c0,0.1,0,0.1,0,0.2c0,0.1,0,0.1,0,0.2l1.2,0.2c0,0.2,0,0.3-0.1,0.5c0,0.2-0.1,0.3-0.1,0.4l-1.2-0.2
		c0,0.1-0.1,0.2-0.1,0.3l1,0.6c-0.1,0.1-0.1,0.3-0.2,0.4c-0.1,0.1-0.2,0.3-0.3,0.4l-1-0.6c-0.1,0.1-0.2,0.2-0.2,0.3l0.8,0.9
		C43.3,98.6,43.2,98.8,43.1,98.8z M40,100c-0.2,0-0.3,0-0.5,0v-1.2c-0.1,0-0.2,0-0.4-0.1l-0.4,1.1c-0.1,0-0.3-0.1-0.4-0.1
		c-0.1-0.1-0.3-0.1-0.4-0.2l0.4-1.1c-0.1-0.1-0.2-0.1-0.3-0.2l-0.8,0.9c-0.1-0.1-0.2-0.2-0.4-0.3c-0.1-0.1-0.2-0.2-0.3-0.3l0.8-0.9
		c-0.1-0.1-0.2-0.2-0.2-0.3l-1,0.6c-0.1-0.1-0.2-0.2-0.3-0.4c-0.1-0.1-0.1-0.3-0.2-0.4l1-0.6c0-0.1-0.1-0.2-0.1-0.3l-1.2,0.2
		c0-0.1-0.1-0.3-0.1-0.4c0-0.2,0-0.3-0.1-0.5l1.2-0.2c0-0.1,0-0.1,0-0.2c0-0.1,0-0.1,0-0.2l-1.2-0.2c0-0.2,0-0.3,0.1-0.5
		c0-0.2,0.1-0.3,0.1-0.4l1.2,0.2c0-0.1,0.1-0.2,0.1-0.3l-1-0.6c0.1-0.1,0.1-0.3,0.2-0.4c0.1-0.1,0.2-0.3,0.3-0.4l1,0.6
		c0.1-0.1,0.2-0.2,0.2-0.3l-0.8-0.9c0.1-0.1,0.2-0.2,0.3-0.3c0.1-0.1,0.2-0.2,0.4-0.3l0.8,0.9c0.1-0.1,0.2-0.1,0.3-0.2l-0.4-1.1
		c0.1-0.1,0.3-0.1,0.4-0.2c0.1-0.1,0.3-0.1,0.4-0.1l0.4,1.1c0.1,0,0.2,0,0.4-0.1v-1.2c0.1,0,0.3,0,0.5,0v2.6c-1.2,0-2.2,1-2.2,2.2
		c0,1.2,1,2.2,2.2,2.2V100z"/>
</g>
</svg>
