<?xml version="1.0" encoding="utf-8"?>
<!-- Generator: Adobe Illustrator 19.0.0, SVG Export Plug-In . SVG Version: 6.00 Build 0)  -->
<svg version="1.1" xmlns="http://www.w3.org/2000/svg" xmlns:xlink="http://www.w3.org/1999/xlink" x="0px" y="0px"
	 viewBox="142 -139.6 1484 905.6" style="enable-background:new 142 -139.6 1484 905.6;" xml:space="preserve">
<style type="text/css">
	.st0{fill:url(#SVGID_1_);}
	.st1{opacity:0.37;}
	.st2{fill:#F6E7C9;}
	.st3{opacity:0.25;}
	.st4{fill:#E2E2E2;}
	.st5{fill:#EFEFEF;}
	.st6{fill:#FFFFFF;}
	.st7{fill:#F0F0F0;}
	.st8{fill:#E3E3E3;}
	.st9{fill:#EAEAEA;}
	.st10{fill:#D4F1FD;}
	.st11{fill:#141414;}
	.st12{fill:#313131;}
	.st13{fill:#F8D584;}
	.st14{fill:#9B4A1A;}
	.st15{fill:#BCB8B1;}
	.st16{fill:#648389;}
	.st17{fill:#B05E22;}
	.st18{fill:#E7B01F;}
	.st19{fill:#F8D685;}
	.st20{fill:#80A1A9;}
	.st21{fill:#494C4D;}
	.st22{fill:#DDBC96;}
	.st23{fill:#F4DAB7;}
	.st24{fill:#6C5C32;}
	.st25{fill:#BA8D61;}
	.st26{fill:#1D1611;}
	.st27{fill:#67372C;}
	.st28{fill:#C68E87;}
	.st29{fill:#82A1A9;}
	.st30{fill:#ACCACE;}
	.st31{fill:#473C20;}
	.st32{fill:#382F20;}
	.st33{fill:#292B2C;}
	.st34{fill:#686B6B;}
	.st35{fill:#1B1B1B;}
	.st36{fill:#9EA1A1;}
</style>


<g id="man">
	<g id="Capa_2">
		<g>
			<path class="st4" d="M1621.9,629.5c-8.5,0.1-16.3,2.6-22.9,6.9c-6.6-4.3-14.5-6.8-22.9-6.8c-13.7,0-25.8,6.5-33.6,16.6
				c-4.7-1.8-9.7-2.8-15-2.8c-7.1,0-13.9,1.8-19.7,4.9c-7.6-11.3-20.5-18.7-35.1-18.7c-6.7,0-13.1,1.6-18.7,4.4
				c-7.7-8.4-18.8-13.7-31.2-13.7c-5.7,0-11.2,1.2-16.2,3.2c-7.1-13.3-21.2-22.4-37.3-22.4c-13.5,0-25.6,6.4-33.3,16.3
				c-7.2-5.7-16.4-9.2-26.3-9.2c-13.9,0-26.3,6.7-34,17.1c-6.9-5-15.4-7.9-24.6-7.9c-13.6,0-25.6,6.4-33.4,16.3
				c-7.2-5.7-16.3-9-26.1-9c-5.6,0-10.9,1.1-15.7,3c-7.4-12.4-20.9-20.7-36.4-20.7c-4.7,0-9.2,0.8-13.4,2.2v80.3
				c4.2,1.4,8.7,2.2,13.4,2.2c5.6,0,10.9-1.1,15.7-3c7.4,12.4,20.9,20.7,36.4,20.7c13.6,0,25.6-6.4,33.4-16.3c7.2,5.7,16.3,9,26.1,9
				c13.9,0,26.3-6.7,34-17.1c6.9,5,15.4,7.9,24.6,7.9c13.5,0,25.6-6.4,33.3-16.3c7.2,5.7,16.4,9.2,26.3,9.2c5.7,0,11.2-1.2,16.2-3.2
				c7.1,13.3,21.2,22.4,37.3,22.4c6.7,0,13.1-1.6,18.7-4.4c7.7,8.4,18.8,13.7,31.2,13.7c7.1,0,13.9-1.8,19.7-4.9
				c7.6,11.3,20.5,18.7,35.1,18.7c13.7,0,25.8-6.5,33.6-16.6c4.7,1.8,9.7,2.8,15,2.8c8.6,0,16.5-2.5,23.2-6.9
				c6.5,4.2,14.3,6.7,22.7,6.8L1621.9,629.5L1621.9,629.5z"/>
			<path class="st5" d="M1126.2,784.3h495.7V633.9c-0.9-0.1-1.9-0.1-2.8-0.1c-17.3,0-32.1,10.4-38.7,25.2
				c-6.8-4.8-15.1-7.5-24.1-7.5c-13.7,0-25.9,6.5-33.6,16.6c-7.1-5.4-15.9-8.6-25.5-8.6c-5.3,0-10.3,1-15,2.7
				c-7.8-9.4-19.5-15.5-32.7-15.5c-7.8,0-15.2,2.1-21.5,5.9c-6.5-15-21.4-25.5-38.8-25.5c-6.9,0-13.4,1.6-19.1,4.6
				c-7.6-11-20.4-18.2-34.8-18.2s-27.1,7.2-34.7,18.2c-7.7-7.8-18.3-12.6-30.1-12.6c-17.6,0-32.8,10.8-39.1,26.2
				c-7.6-7.2-17.8-11.6-29-11.6c-10,0-19.2,3.5-26.5,9.3c-7.3-12.6-20.9-21-36.5-21c-4.7,0-9.2,0.8-13.4,2.2v80.3
				c0.1,0,0.1,0,0.2,0.1v13.8V784.3L1126.2,784.3z"/>
			<path class="st6" d="M1617.5,665.8c-12.9,0-24.4,5.8-32.2,14.8c-7.8-9.1-19.3-14.8-32.2-14.8c-14.3,0-27,7.1-34.6,18
				c-7.5-6.7-17.4-10.8-28.3-10.8s-20.9,4.2-28.4,11c-7.8-8.9-19.2-14.5-31.9-14.5c-5.6,0-10.9,1.1-15.8,3.1
				c-7.6-7.2-17.8-11.6-29.1-11.6c-5.6,0-11,1.1-15.9,3.1c-7.7-10.7-20.2-17.8-34.4-17.8c-10.5,0-20.1,3.8-27.4,10.1
				c-6.6-4.2-14.4-6.7-22.8-6.7c-10.5,0-20.2,3.9-27.6,10.2c-6-3.3-12.9-5.1-20.2-5.1c-5.7,0-11.2,1.1-16.1,3.2
				c-7.6-7.3-17.9-11.8-29.3-11.8c-8.5,0-16.4,2.5-23.1,6.9c-7.7-8-18.5-13-30.5-13c-4.1,0-8.1,0.6-11.8,1.7v58.9V723v61.3h495.9
				v-34v-49.5v-34.6C1620.4,665.9,1619,665.8,1617.5,665.8z"/>
		</g>
		<g>
			<path class="st4" d="M630.6,629.5c8.5,0.1,16.3,2.6,22.9,6.9c6.6-4.3,14.5-6.8,22.9-6.8c13.7,0,25.8,6.5,33.6,16.6
				c4.7-1.8,9.7-2.8,15-2.8c7.1,0,13.9,1.8,19.7,4.9c7.6-11.3,20.5-18.7,35.1-18.7c6.7,0,13.1,1.6,18.7,4.4
				c7.7-8.4,18.8-13.7,31.2-13.7c5.7,0,11.2,1.2,16.2,3.2c7.1-13.3,21.2-22.4,37.3-22.4c13.5,0,25.6,6.4,33.3,16.3
				c7.2-5.7,16.4-9.2,26.3-9.2c13.9,0,26.3,6.7,34,17.1c6.9-5,15.4-7.9,24.6-7.9c13.6,0,25.6,6.4,33.4,16.3c7.2-5.7,16.3-9,26.1-9
				c5.6,0,10.9,1.1,15.7,3c7.4-12.4,20.9-20.7,36.4-20.7c4.7,0,9.2,0.8,13.4,2.2v80.3c-4.2,1.4-8.7,2.2-13.4,2.2
				c-5.6,0-10.9-1.1-15.7-3c-7.4,12.4-20.9,20.7-36.4,20.7c-13.6,0-25.6-6.4-33.4-16.3c-7.2,5.7-16.3,9-26.1,9
				c-13.9,0-26.3-6.7-34-17.1c-6.9,5-15.4,7.9-24.6,7.9c-13.5,0-25.6-6.4-33.3-16.3c-7.2,5.7-16.4,9.2-26.3,9.2
				c-5.7,0-11.2-1.2-16.2-3.2c-7.1,13.3-21.2,22.4-37.3,22.4c-6.7,0-13.1-1.6-18.7-4.4c-7.7,8.4-18.8,13.7-31.2,13.7
				c-7.1,0-13.9-1.8-19.7-4.9c-7.6,11.3-20.5,18.7-35.1,18.7c-13.7,0-25.8-6.5-33.6-16.6c-4.7,1.8-9.7,2.8-15,2.8
				c-8.6,0-16.5-2.5-23.2-6.9c-6.5,4.2-14.3,6.7-22.7,6.8L630.6,629.5L630.6,629.5z"/>
			<path class="st5" d="M1126.3,784.3H630.6V633.9c0.9-0.1,1.9-0.1,2.8-0.1c17.3,0,32.1,10.4,38.7,25.2c6.8-4.8,15.1-7.5,24.1-7.5
				c13.7,0,25.9,6.5,33.6,16.6c7.1-5.4,15.9-8.6,25.5-8.6c5.3,0,10.3,1,15,2.7c7.8-9.4,19.5-15.5,32.7-15.5c7.8,0,15.2,2.1,21.5,5.9
				c6.5-15,21.4-25.5,38.8-25.5c6.9,0,13.4,1.6,19.1,4.6c7.6-11,20.4-18.2,34.8-18.2c14.4,0,27.1,7.2,34.7,18.2
				c7.7-7.8,18.3-12.6,30.1-12.6c17.6,0,32.8,10.8,39.1,26.2c7.6-7.2,17.8-11.6,29-11.6c10,0,19.2,3.5,26.5,9.3
				c7.3-12.6,20.9-21,36.5-21c4.7,0,9.2,0.8,13.4,2.2v80.3c-0.1,0-0.1,0-0.2,0.1v13.8L1126.3,784.3L1126.3,784.3z"/>
			<path class="st6" d="M634.9,665.8c12.9,0,24.4,5.8,32.2,14.8c7.8-9.1,19.3-14.8,32.2-14.8c14.3,0,27,7.1,34.6,18
				c7.5-6.7,17.4-10.8,28.3-10.8c10.9,0,20.9,4.2,28.4,11c7.8-8.9,19.2-14.5,31.9-14.5c5.6,0,10.9,1.1,15.8,3.1
				c7.6-7.2,17.8-11.6,29.1-11.6c5.6,0,11,1.1,15.9,3.1c7.7-10.7,20.2-17.8,34.4-17.8c10.5,0,20.1,3.8,27.4,10.1
				c6.6-4.2,14.4-6.7,22.8-6.7c10.5,0,20.2,3.9,27.6,10.2c6-3.3,12.9-5.1,20.2-5.1c5.7,0,11.2,1.1,16.1,3.2
				c7.6-7.3,17.9-11.8,29.3-11.8c8.5,0,16.4,2.5,23.1,6.9c7.7-8,18.5-13,30.5-13c4.1,0,8.1,0.6,11.8,1.7v58.9V723v61.3H630.6v-34
				v-49.5v-34.6C632,665.9,633.4,665.8,634.9,665.8z"/>
		</g>
		<g>
			<path class="st4" d="M632.5,629.5c-8.5,0.1-16.3,2.6-22.9,6.9c-6.6-4.3-14.5-6.8-22.9-6.8c-13.7,0-25.8,6.5-33.6,16.6
				c-4.7-1.8-9.7-2.8-15-2.8c-7.1,0-13.9,1.8-19.7,4.9c-7.6-11.3-20.5-18.7-35.1-18.7c-6.7,0-13.1,1.6-18.7,4.4
				c-7.7-8.4-18.8-13.7-31.2-13.7c-5.7,0-11.2,1.2-16.2,3.2c-7.1-13.3-21.2-22.4-37.3-22.4c-13.5,0-25.6,6.4-33.3,16.3
				c-7.2-5.7-16.4-9.2-26.3-9.2c-13.9,0-26.3,6.7-34,17.1c-6.9-5-15.4-7.9-24.6-7.9c-13.6,0-25.6,6.4-33.4,16.3
				c-7.2-5.7-16.3-9-26.1-9c-5.6,0-10.9,1.1-15.7,3c-7.6-12.4-21.1-20.7-36.6-20.7c-4.7,0-9.2,0.8-13.4,2.2v80.3
				c4.2,1.4,8.7,2.2,13.4,2.2c5.6,0,10.9-1.1,15.7-3c7.4,12.3,20.9,20.6,36.4,20.6c13.6,0,25.6-6.4,33.4-16.3c7.2,5.7,16.3,9,26.1,9
				c13.9,0,26.3-6.7,34-17.1c6.9,5,15.4,7.9,24.6,7.9c13.5,0,25.6-6.4,33.3-16.3c7.2,5.7,16.4,9.2,26.3,9.2c5.7,0,11.2-1.2,16.2-3.2
				c7.1,13.3,21.2,22.4,37.3,22.4c6.7,0,13.1-1.6,18.7-4.4c7.7,8.4,18.8,13.7,31.2,13.7c7.1,0,13.9-1.8,19.7-4.9
				c7.6,11.3,20.5,18.7,35.1,18.7c13.7,0,25.8-6.5,33.6-16.6c4.7,1.8,9.7,2.8,15,2.8c8.6,0,16.5-2.5,23.2-6.9
				c6.5,4.2,14.3,6.7,22.7,6.8L632.5,629.5L632.5,629.5z"/>
			<path class="st5" d="M136.7,784.3h495.7V633.9c-0.9-0.1-1.9-0.1-2.8-0.1c-17.3,0-32.1,10.4-38.7,25.2c-6.8-4.8-15.1-7.5-24.1-7.5
				c-13.7,0-25.9,6.5-33.6,16.6c-7.1-5.4-15.9-8.6-25.5-8.6c-5.3,0-10.3,1-15,2.7c-7.8-9.4-19.5-15.5-32.7-15.5
				c-7.8,0-15.2,2.1-21.5,5.9c-6.5-15-21.4-25.5-38.8-25.5c-6.9,0-13.4,1.6-19.1,4.6c-7.6-11-20.4-18.2-34.8-18.2
				s-27.1,7.2-34.7,18.2c-7.7-7.8-18.3-12.6-30.1-12.6c-17.6,0-32.8,10.8-39.1,26.2c-7.6-7.2-17.8-11.6-29-11.6
				c-10,0-19.2,3.5-26.5,9.3c-7.3-12.6-20.9-21-36.5-21c-4.7,0-9.2,0.8-13.4,2.2v80.3c0.1,0,0.1,0,0.2,0.1v13.8
				C136.7,718.4,136.7,784.3,136.7,784.3z"/>
			<path class="st6" d="M628.1,665.8c-12.9,0-24.4,5.8-32.2,14.8c-7.8-9.1-19.3-14.8-32.2-14.8c-14.3,0-27,7.1-34.6,18
				c-7.5-6.7-17.4-10.8-28.3-10.8s-20.9,4.2-28.4,11c-7.8-8.9-19.2-14.5-31.9-14.5c-5.6,0-10.9,1.1-15.8,3.1
				c-7.6-7.2-17.8-11.6-29.1-11.6c-5.6,0-11,1.1-15.9,3.1c-7.7-10.7-20.2-17.8-34.4-17.8c-10.5,0-20.1,3.8-27.4,10.1
				c-6.6-4.2-14.4-6.7-22.8-6.7c-10.5,0-20.2,3.9-27.6,10.2c-6-3.3-12.9-5.1-20.2-5.1c-5.7,0-11.2,1.1-16.1,3.2
				c-7.6-7.3-17.9-11.8-29.3-11.8c-8.5,0-16.4,2.5-23.1,6.9c-7.7-8-18.5-13-30.5-13c-4.1,0-8.1,0.6-11.8,1.7v58.9V723v61.3h495.9
				v-34v-49.5v-34.6C631,665.9,629.6,665.8,628.1,665.8z"/>
		</g>
		<path class="st7" d="M828.3,393l-22.2,0.1l-22.2-0.1c0,0-9.2,148.8-39.4,178.9l61.5,51.6l154.4,5.2
			C848.7,639.3,828.3,393,828.3,393z"/>
		<g>
			<path class="st7" d="M1106.5,599.5c-4.8-2-10.1-3.1-15.7-3.1c-9.8,0-18.9,3.4-26,9.1c-3.7-20-21.3-35.2-42.4-35.2
				c-11.8,0-22.4,4.7-30.2,12.3c-6.1-13.9-20.1-23.7-36.3-23.7c-6.7,0-13,1.7-18.5,4.6c-5.4-11.5-17.1-19.4-30.6-19.4
				c-12.5,0-23.4,6.8-29.3,16.9c-4.2-2.9-9.3-4.7-14.9-4.7c-8.4,0-15.9,4-20.6,10.1c-4.1-13-16.3-22.3-30.6-22.3
				c-17.7,0-32.1,14.4-32.1,32.1c0,4.1,0.8,8,2.2,11.6c-1.1,1.2-2.2,2.5-3.1,3.9c-4.2-20.2-22.1-35.4-43.5-35.4
				c-19.2,0-35.5,12.1-41.7,29.1c-5.6-4.4-12.7-7-20.4-7c-10.9,0-20.6,5.2-26.7,13.3c-4.8-2.6-10.4-4.1-16.3-4.1c-2.8,0-5.5,0.3-8,1
				c0.8-3.3,1.2-6.7,1.2-10.2c0-24.8-20.1-44.9-44.9-44.9c-1.6,0-3.1,0.1-4.7,0.2c-6-13.4-19.4-22.8-35.1-22.8
				c-21.2,0-38.4,17.2-38.4,38.4c0,0.4,0,0.8,0,1.1c-6.6-4-14.4-6.4-22.7-6.4c-19,0-35.1,12.1-41.1,29c-7.8-4-16.6-6.3-26-6.3
				c-22.3,0-41.6,12.9-50.8,31.6c-4.9-1.3-10.1-2-15.4-2c-15,0-28.7,5.5-39.2,14.6v158h801.9V599.5H1106.5z"/>
			<path class="st8" d="M304.7,769h801.9v-95c-10.5-9.1-24.2-14.6-39.2-14.6c-5.3,0-10.5,0.7-15.4,2c-9.2-18.7-28.5-31.6-50.8-31.6
				c-9.4,0-18.2,2.3-26,6.3c-6-16.9-22.1-29-41.1-29c-8.3,0-16.1,2.3-22.7,6.4c0-0.4,0-0.8,0-1.1c0-21.2-17.2-38.4-38.4-38.4
				c-15.6,0-29.1,9.4-35.1,22.8c-1.5-0.2-3.1-0.2-4.7-0.2c-24.8,0-44.9,20.1-44.9,44.9c0,3.5,0.4,6.9,1.2,10.2c-2.6-0.6-5.3-1-8-1
				c-5.9,0-11.4,1.5-16.3,4.1c-6.1-8.1-15.8-13.3-26.7-13.3c-7.7,0-14.7,2.6-20.4,7c-6.2-17-22.6-29.1-41.7-29.1
				c-21.5,0-39.4,15.2-43.5,35.4c-0.9-1.4-2-2.7-3.1-3.9c1.4-3.6,2.2-7.5,2.2-11.6c0-17.7-14.4-32.1-32.1-32.1
				c-14.3,0-26.5,9.4-30.6,22.3c-4.8-6.2-12.2-10.1-20.6-10.1c-5.5,0-10.7,1.7-14.9,4.7c-5.9-10.1-16.8-16.9-29.3-16.9
				c-13.5,0-25.2,7.9-30.6,19.4c-5.5-2.9-11.8-4.6-18.5-4.6c-16.2,0-30.1,9.7-36.3,23.7c-7.8-7.6-18.4-12.3-30.2-12.3
				c-21.1,0-38.7,15.2-42.4,35.2c-7.1-5.7-16.2-9.1-26-9.1c-5.5,0-10.8,1.1-15.7,3.1L304.7,769L304.7,769z M428,694.3
				c0.4-0.9,0.8-1.8,1.2-2.8c0.9,0.8,1.8,1.5,2.7,2.2v0.6H428z"/>
		</g>
		<path class="st9" d="M1077.3,709c0,0-44.3,12.5-36.7-26.5c0,0-66,7.2-57.2-41.2s65.9-27.8,65.9-27.8s-13.8-23.6,16-36.4
			c29.8-12.8,53.5,18,53.4,38.5c0,0,37-15.1,50.4,15.4s-29.4,40.8-29.4,40.8C1160.9,700.8,1102.6,751.3,1077.3,709z"/>
		<path class="st9" d="M288.7,709c0,0-44.3,12.5-36.7-26.5c0,0-66,7.2-57.2-41.2c8.8-48.4,65.9-27.8,65.9-27.8s-13.8-23.6,16-36.4
			c29.8-12.8,53.5,18,53.4,38.5c0,0,37-15.1,50.4,15.4s-29.4,40.8-29.4,40.8C372.3,700.8,314.1,751.3,288.7,709z"/>
		<g>
			<g>
				<path class="st10" d="M696.7,336.6c0,0-2.5,5.1-3.1,11.8c0,0,0.3,2.5,6.4,4.5c6.9,0.9,19.9,0.1,19.9,0.1v-3
					c0,0-11.7-0.1-14.6-2.1c-0.5-1.4,0-3.7,1.1-5.8L696.7,336.6z"/>
				<path class="st11" d="M701.1,334.8c0,0,5.6-17.2,5.9-19.1c0,0,5.6-0.7,9.6,3c0,0-8.2,16.5-10,18.8
					C706.6,337.5,704,335.6,701.1,334.8z"/>
				<path class="st12" d="M695.4,337.8c0,0,1.1-3.9,3.6-5.1c0.7-0.3,9.1,4.4,10.3,6.1c0,0-2,5.1-2.8,5.3
					C706.4,344.1,695.9,339.1,695.4,337.8z"/>
			</g>
			<g>
				<path class="st13" d="M755.2,357.3c0,0-6.2,12-6.6,12.7c-0.5,0.8,7.3,0,7.3,0s-2.9,12-3.3,14.3c0,0,5-3.4,7.9-4.5
					c0,0,6.7,24.5,9.7,29.4c0,0,17.1-30.3,16.3-32.5c0,0,3.6,1.3,5.1,1.7s-4.9-12.4-4.9-12.4s6.4,0.4,8.6,0l-6.3-10.9
					C789.1,355,761.5,356.2,755.2,357.3z"/>
				<path class="st14" d="M786,280.1c-3.6-6-8.7-8-16.4-6.9c-5.3,0.7-9,4.9-11.4,10.8C765.4,285.4,775.6,285.6,786,280.1z"/>
				<path class="st15" d="M786,280.1c-10.4,5.5-20.7,5.2-27.8,3.9c-8.6,20.9-2.3,64.5-2.3,64.5c27.6,4,39.5-4,39.5-4
					C793.5,310.2,791.8,289.9,786,280.1z"/>
				<path class="st16" d="M755.9,345.8l-1.5,2c0,0,0.6,9,0.7,9.8c0,0,29.4,6.4,43.3-4c0,0-0.6-8.9-1.8-9.9c-1.3-1-1.3-1-1.3-1
					S779.5,349.3,755.9,345.8z"/>
				<path class="st17" d="M754.2,336.6c0,0,17.2,3.4,41.2-2.9v-7.2c0,0-14,4.5-41.2,2.7V336.6z"/>
			</g>
			<g>
				<path class="st18" d="M779.9,370.9c0,0-8.7,16.9-9.3,17.9c-0.7,1.1,10.3,0,10.3,0s-4.1,16.9-4.7,20.1c0,0,7.1-4.8,11.2-6.4
					c0,0,15.8,36,20.1,42.9c0,0,17.7-44.2,16.6-47.4c0,0,5.1,1.8,7.2,2.4c2.1,0.5-6.9-17.5-6.9-17.5s9,0.5,12.2,0l-8.9-15.3
					C827.8,367.7,788.9,369.4,779.9,370.9z"/>
				<path class="st19" d="M787.7,370.4c0,0-5.8,11.3-6.2,12s6.9,0,6.9,0s-2.8,11.3-3.1,13.5c0,0,4.7-3.2,7.5-4.3
					c0,0,10.6,24.1,13.4,28.7c0,0,11.8-29.6,11.1-31.7c0,0,3.4,1.2,4.8,1.6c1.4,0.4-4.6-11.7-4.6-11.7s6,0.4,8.2,0l-5.9-10.2
					C819.8,368.2,793.7,369.4,787.7,370.4z"/>
				<path class="st10" d="M815.1,278.9c-12.4,6.5-24.5,6.2-33,4.6c-10.2,24.8-2.8,76.5-2.8,76.5c32.8,4.8,46.9-4.8,46.9-4.8
					C824,314.5,822,290.5,815.1,278.9z"/>
				<path class="st20" d="M779.3,356.8l-1.8,2.4c0,0,0.7,10.7,0.8,11.7c0,0,35,7.5,51.4-4.8c0,0-0.7-10.6-2.2-11.7s-1.5-1.1-1.5-1.1
					S807.3,361,779.3,356.8z"/>
				<path class="st17" d="M777.2,345.9c0,0,20.5,4,48.9-3.4V334c0,0-16.6,5.3-48.9,3.2V345.9z"/>
				<path class="st6" d="M801.7,274.7c0,0,10.4-0.5,14.6,14.1c4.2,14.5,6.2,50,6.8,62.4l-4.3,1.2
					C818.8,352.4,818.1,275.8,801.7,274.7z"/>
			</g>
			<path class="st17" d="M815.1,278.9c-4.2-7.1-14.5-9.5-19.4-8.2c-6.2,1.6-10.7,5.8-13.6,12.8C790.5,285.1,802.7,285.3,815.1,278.9
				z"/>
			<g>
				<path class="st21" d="M743.4,288.7c4.2-1,15.1,7.7,7.8,39.6c-6,26-44.5,6.5-44.5,6.5s6.8-7.3,4.5-11.5c0,0,18.9,19.6,31.2,5.2
					c2.1-2.5,4.2-15.5,1.5-24.2C741,294.6,738.5,289.8,743.4,288.7z"/>
				<g>
					<path class="st22" d="M706.7,334.2c0,0,0.1,0.1,0.2,0.1c1,0.5,5.1,2,7.6-6C714.5,328.3,704.5,327.8,706.7,334.2z"/>
					<path class="st22" d="M717.3,321.8c-1.6-0.5-3.3-0.6-5.2,4.1s-0.6,5,1.8,3.7C716.2,328.4,719.4,322.5,717.3,321.8z"/>
					<path class="st23" d="M708.8,319.5c-4.6-1.4-10,1-1.3,5.5S719.3,322.7,708.8,319.5z"/>
					<path class="st23" d="M706.5,323.9c-2.7-0.8-5.3-1.2-6.2,1c-0.6,1.6,0.8,2.7,4.7,4.7c4.2,2.2,6.9,2.2,8.1,0.5
						C714.2,328.5,712.4,325.6,706.5,323.9z"/>
					<path class="st23" d="M704.9,328.8c-3.7-1.1-8.2,0.8-1.1,4.5c3.5,1.8,6.1,1.3,6.7,0.1C711.5,331.2,709.2,330.1,704.9,328.8z"/>
				</g>
			</g>
			<g>
				<path class="st24" d="M797,257.3c0,0,1.5,5,0,6.2s-5.5-2.1-6.3-3.4c0,0,1,3.8-0.8,3.7s-4.8-6.4-4.8-6.4S789,250.6,797,257.3z"/>
				<path class="st23" d="M747.8,206.3c0,0-10.3,27.4-13.5,35.4c-3.2,7.9-5.2,22.6,6.8,26.2s33.2,4.8,40.5-3.2
					c7.3-7.9,8.7-14.7,8.7-14.7s11.9-28.2,4-39.3S753.7,194.4,747.8,206.3z"/>
				<path class="st25" d="M751.3,220.9c0,0-1.9,3.7-3.2,3.7s-6.6,1.3-2.6,4.2c4,2.9,7.7,1.3,7.7,1.3s-7-1.3-7.1-3.2
					c-0.2-1.9,2.6-0.1,4-1.2S751.3,220.9,751.3,220.9z"/>

					<ellipse transform="matrix(-0.9576 -0.2881 0.2881 -0.9576 1435.8845 653.2065)" class="st26" cx="766" cy="220.9" rx="1.7" ry="3"/>

					<ellipse transform="matrix(-0.9576 -0.2881 0.2881 -0.9576 1400.0612 645.3083)" class="st26" cx="747.5" cy="219.6" rx="1.7" ry="3"/>
				<path class="st24" d="M753.2,205.7c0,0,5.1,7,7.3,6.8s0-4.2,0-4.2s6.2,5.4,10.5,6.2c4.4,0.8,0-4.4,0-4.4s3.8,1.5,5.4,0
					C778,208.7,761.6,201.1,753.2,205.7z"/>
				<g>
					<path class="st27" d="M739,238.5c0,0-1.4,20.3,9.5,23.4c0.1,0,0.3,0.1,0.4,0.1c3.2-13.7,18.8-16.2,25.6-16.7
						c1.2-2,1.8-3.3,1.8-3.3C760.9,231.7,739,238.5,739,238.5z"/>
					<path class="st28" d="M749,262c12,3.2,21.7-10.3,25.6-16.7C767.7,245.8,752.2,248.3,749,262z"/>
				</g>
				<g>
					<path class="st10" d="M739.5,228c0,0,2.9-7,4.7-12.1c-0.8-0.5-1.6-0.9-2.4-1.4C740.7,218.6,739.9,223.1,739.5,228z"/>
					<path class="st6" d="M816.5,207.4c-1.1-2.6-2.5-5.1-4.4-7.5c-16.8-20.8-59.4-22.2-70.2,14.6c0.7,0.4,1.5,0.9,2.4,1.4
						c0.7-1.9,1.3-3.6,1.5-4.5c0,0,16.3-10.7,40.5,2.8c0,0,2.5,3,3.1,9.7C798.4,221.8,807.7,216.8,816.5,207.4z"/>
					<path class="st10" d="M789.4,224c0.6,6.4-0.5,16-7.1,29.6c0,0,13.9,7.5,18.3,6.4c3.9-1.1,25.1-30,15.9-52.5
						C807.7,216.8,798.4,221.8,789.4,224z"/>
				</g>
				<path class="st29" d="M802.2,231.6c-0.2-0.1-0.4-0.1-0.6-0.1c2.4,1.1,3.2,5.6,2,10.4c-1.3,4.8-4.3,8.2-6.9,8
					c0.2,0.1,0.4,0.2,0.6,0.2c3.3,0.9,7.1-2.5,8.5-7.6C807.1,237.3,805.5,232.4,802.2,231.6z"/>
				<path class="st30" d="M803.6,241.8c1.3-4.8,0.4-9.3-2-10.4c-3.2-0.4-6.6,3-7.9,7.8c-1.3,4.8,0,9.4,2.9,10.7
					C799.3,250.1,802.3,246.7,803.6,241.8z"/>
				<path class="st31" d="M763.1,213.1c0,0,6.5,0.7,10.2,6.2C773.3,219.2,768.5,209.1,763.1,213.1z"/>
				<path class="st31" d="M753.7,212.9c0,0-2.5-1.3-7.9,3.6C745.8,216.5,749.7,208.8,753.7,212.9z"/>
			</g>
			<g>
				<path class="st32" d="M754.1,489.9c0,0-4,11.9-7.1,17.1c-3.2,5.2-1.2,13.5,3.6,13.9s20.7-22.5,22.2-25.4s-7.5-8-7.5-8
					S756.9,488.3,754.1,489.9z"/>
				<path class="st32" d="M770.2,487.5c0,0,1.5,9.1,1.9,16.7s-1,18.7,4.8,20.7s8.1-1.2,8.1-1.2s7.1-26.7,6.4-30.4
					c-0.7-3.7-8.1-8.9-8.1-8.9L770.2,487.5z"/>
				<path class="st21" d="M718.4,368.4c0,0,6.4,79.8,33,123.1c0,0,11.5,6.8,18.9-6.4c0,0-8.8-18.3-17-48.9
					c-8.2-30.6-12.2-58.8-12.8-63.6L718.4,368.4z"/>
				<path class="st21" d="M721.5,372.3c0,0,8,14.7,12.8,22.3s24.4,86.2,33.6,97.3c0,0,10.7,3.6,23.5-5.6c0,0-23.3-50.7-28.3-108.1
					C763.1,378.2,733.3,366.7,721.5,372.3z"/>
				<path class="st33" d="M725.4,379.3c0,0,6.7,8.3,9.8,17s21.4,71.6,28,85.2c0,0-14.6-36.2-21.1-57.1
					C735.6,403.6,736.2,399.7,725.4,379.3z"/>
			</g>
			<g>
				<path class="st21" d="M777.7,284.9c0,0,8,1.7,11.3,3.8c0,0-18.9,54.7-20.3,90.5c0,0-18-3.9-33.4-6c-0.1-0.8-0.3-1.2-1.1-1.3
					c-6.9-0.9-14.5-0.3-17.9,0.3c0,0,13.8-66.2,27.7-83.5c0,0,3.7-0.5,7.6-1.7C755.5,285.9,777.7,284.9,777.7,284.9z"/>
				<path class="st34" d="M754,286.3c0,0-8.5,7.3-15,7c0,0,2.4,7,7.6,11.4c0,0-10.9,5-12.3,6c0,0,0,26.2,0,44.6
					c0,0,6.5-21.7,7.1-26.6C741.9,323.8,752.5,291.1,754,286.3z"/>
				<path class="st23" d="M774.8,267.3c0,0-3.8,18.9-4.4,20.5c-11.8,11.9-13.4,5.6-12.7,0c-1-1.2,3.2-14.9,3.2-19.5
					C767,267.3,774.8,267.3,774.8,267.3z"/>
				<path class="st33" d="M734.3,356.6c0.2-0.3-1.7,9-1.9,12.5C732.4,369.1,732.7,359.4,734.3,356.6z"/>

					<ellipse transform="matrix(-0.9873 -0.1589 0.1589 -0.9873 1396.3917 826.769)" class="st33" cx="731.2" cy="357.6" rx="0.8" ry="1.1"/>

					<ellipse transform="matrix(-0.9873 -0.1589 0.1589 -0.9873 1393.7124 839.9294)" class="st33" cx="730.4" cy="364.2" rx="0.8" ry="1.1"/>
				<path class="st34" d="M779.5,286.3c0,0-0.7,11.4,3.8,17.2c0,0-15.7,5.5-22.4,6.6c0,0,7.1,6,13.9,10.1c0,0-36.5,19.4-40.5,35.1
					c0,0,4.1-19.3,6.6-25.6C743.4,323.2,775,289.9,779.5,286.3z"/>
				<path class="st8" d="M764.9,287.8c-0.6,0.4-1.4,1.1-2.2,1.8l-0.6-2l-1.9,4c-0.4,0.4-0.6,1.1-1,1.5l-0.6-5l-0.9,0.9
					c-0.1-0.4-0.1-0.7-0.2-0.9c-3,0.3-4.3,0.5-4.3,0.5c-3.7,8.2-12.3,40.8-12.3,40.8c6.2-11.9,36.8-41.9,36.8-41.9
					C772.6,287.7,768.3,287.7,764.9,287.8z"/>
				<path class="st6" d="M773.8,280.6c0,0-10.1,6.3-11.7,7.1c0,0,1.5,6.6,2.1,8.1c0,0,14.7-8.1,16.1-10.3L773.8,280.6z"/>
				<path class="st6" d="M758.2,282.5c0,0-0.5,2.9,0.4,5.7c0,0-2.5,5.7-3.9,6.7c0,0-1.8-5.9-2-8.1L758.2,282.5z"/>
				<path class="st35" d="M763.6,294.5c0,0-7.7-1-7.9-0.7s1.1,7.6,1.1,7.6s2.7,1.7,3,1.1S763.6,294.5,763.6,294.5z"/>
				<path class="st35" d="M756.7,301.2c0,0-4.7,12.2-22.4,19.4c-10.2,4.2-27.5,22-23.9,37.9c0,0,8.1,9.5,10.5,9.7
					c0,0,7.1-7.3,8.7-9.7c0,0-7.1-21.2,9.8-31.6c19.8-12.2,20.2-24.4,20.2-24.4L756.7,301.2z"/>
				<path class="st36" d="M762.1,287.7c0,0-2.5,4.6-2.9,5.5c0,0-0.4-4-0.6-5c0,0,0.2,4.8,0.4,5.8C759,294,760.6,291.3,762.1,287.7z"
					/>
				<path class="st33" d="M723.3,371.1c-0.4,0,8.4-0.4,9.8-0.2l0.7,0.9c0,0,14.3,2.4,20.5,4.5c0,0-11.8-3.3-20.7-3.6l-0.9-1.1
					C732.8,371.6,725.6,370.8,723.3,371.1z"/>
			</g>
			<g>
				<path class="st21" d="M780.3,285.6c0,0,42,5,44.1,34.8c2.7,40.1-62.3,31.9-62.3,31.9s6.9-12.1,3.2-16.4c0,0,44.9,13,47.4-12.5
					c1.6-15.7-20.5-22.7-26.5-23.8C780.3,298.5,779.5,288.7,780.3,285.6z"/>
				<g>
					<path class="st10" d="M757.7,357.6c-1.2,5.5,0,7.7,0,7.7c1.7,1.1,26.8-3.9,42.7-9.8c2.7-1,5.7-4.9,7.6-5.9c0,0,3.7,0.5,4.2,3.3
						c0.2,1,0,2.1-2.3,4.2c0,0-40.1,12.4-57.8,13.9c-2.8,0.2-5.4-1.3-7-1.9c-1-1.9,0.1-13.4,0.1-13.4S754.4,356.1,757.7,357.6z"/>
					<path class="st11" d="M754.1,324.5c0,0-4.8,26.4-5.5,28.8c-0.7,2.3,5.7,3.4,7.8,2.7s9.3-26.1,9.6-28.3
						C766.1,327.8,760.3,324.1,754.1,324.5z"/>
					<path class="st12" d="M746.1,350.6c0,0,12.4,2.6,14,4.2c0,0-0.8,5-2.4,6.5s-12.5-3.3-13.4-4.1
						C743.4,356.4,744.3,353.3,746.1,350.6z"/>
				</g>
				<path class="st23" d="M768.7,337.1c0,0-1.1-2.9-3.2-7c-1.1,3.3-2,5.2-2,5.2s-10.9-5.9-12.2-3.8c-1.4,2.1-0.5,5.8-0.5,5.8
					s-3.3,0.3-3.3,2.9s0.3,3.9,0.3,3.9s-2.6,2,0.1,3.8c2.7,1.8,11.8,5.4,14.3,4.3S769,343,768.7,337.1z"/>
			</g>
		</g>
	</g>
</g>
</svg>
