<?xml version="1.0" encoding="utf-8"?>
<!-- Generator: Adobe Illustrator 19.0.0, SVG Export Plug-In . SVG Version: 6.00 Build 0)  -->
<svg version="1.1" id="Capa_1" xmlns="http://www.w3.org/2000/svg" xmlns:xlink="http://www.w3.org/1999/xlink" x="0px" y="0px"
	 viewBox="729 -440.6 1484 905.6" style="enable-background:new 729 -440.6 1484 905.6;" xml:space="preserve">
<style type="text/css">
	.st0{fill:#E2E2E2;}
	.st1{fill:#EFEFEF;}
	.st2{fill:#FFFFFF;}
	.st3{fill:#F0F0F0;}
	.st4{fill:#E3E3E3;}
	.st5{fill:#EAEAEA;}
	.st6{fill:#D4F1FD;}
	.st7{fill:#141414;}
	.st8{fill:#313131;}
	.st9{fill:#F8D584;}
	.st10{fill:#9B4A1A;}
	.st11{fill:#BCB8B1;}
	.st12{fill:#648389;}
	.st13{fill:#B05E22;}
	.st14{fill:#E7B01F;}
	.st15{fill:#F8D685;}
	.st16{fill:#80A1A9;}
	.st17{fill:#494C4D;}
	.st18{fill:#DDBC96;}
	.st19{fill:#F4DAB7;}
	.st20{fill:#6C5C32;}
	.st21{fill:#BA8D61;}
	.st22{fill:#1D1611;}
	.st23{fill:#67372C;}
	.st24{fill:#C68E87;}
	.st25{fill:#82A1A9;}
	.st26{fill:#ACCACE;}
	.st27{fill:#473C20;}
	.st28{fill:#382F20;}
	.st29{fill:#292B2C;}
	.st30{fill:#686B6B;}
	.st31{fill:#1B1B1B;}
	.st32{fill:#9EA1A1;}
</style>
<g id="man">
	<g id="Capa_2">
		<g>
			<path class="st0" d="M2213.7,394.2c-8.5,0.1-16.3,2.6-22.9,6.9c-6.6-4.3-14.5-6.8-22.9-6.8c-13.7,0-25.8,6.5-33.6,16.6
				c-4.7-1.8-9.7-2.8-15-2.8c-7.1,0-13.9,1.8-19.7,4.9c-7.6-11.3-20.5-18.7-35.1-18.7c-6.7,0-13.1,1.6-18.7,4.4
				c-7.7-8.4-18.8-13.7-31.2-13.7c-5.7,0-11.2,1.2-16.2,3.2c-7.1-13.3-21.2-22.4-37.3-22.4c-13.5,0-25.6,6.4-33.3,16.3
				c-7.2-5.7-16.4-9.2-26.3-9.2c-13.9,0-26.3,6.7-34,17.1c-6.9-5-15.4-7.9-24.6-7.9c-13.6,0-25.6,6.4-33.4,16.3
				c-7.2-5.7-16.3-9-26.1-9c-5.6,0-10.9,1.1-15.7,3c-7.4-12.4-20.9-20.7-36.4-20.7c-4.7,0-9.2,0.8-13.4,2.2v80.3
				c4.2,1.4,8.7,2.2,13.4,2.2c5.6,0,10.9-1.1,15.7-3c7.4,12.4,20.9,20.7,36.4,20.7c13.6,0,25.6-6.4,33.4-16.3c7.2,5.7,16.3,9,26.1,9
				c13.9,0,26.3-6.7,34-17.1c6.9,5,15.4,7.9,24.6,7.9c13.5,0,25.6-6.4,33.3-16.3c7.2,5.7,16.4,9.2,26.3,9.2c5.7,0,11.2-1.2,16.2-3.2
				c7.1,13.3,21.2,22.4,37.3,22.4c6.7,0,13.1-1.6,18.7-4.4c7.7,8.4,18.8,13.7,31.2,13.7c7.1,0,13.9-1.8,19.7-4.9
				c7.6,11.3,20.5,18.7,35.1,18.7c13.7,0,25.8-6.5,33.6-16.6c4.7,1.8,9.7,2.8,15,2.8c8.6,0,16.5-2.5,23.2-6.9
				c6.5,4.2,14.3,6.7,22.7,6.8L2213.7,394.2L2213.7,394.2z"/>
			<path class="st1" d="M1718,549h495.7V398.6c-0.9-0.1-1.9-0.1-2.8-0.1c-17.3,0-32.1,10.4-38.7,25.2c-6.8-4.8-15.1-7.5-24.1-7.5
				c-13.7,0-25.9,6.5-33.6,16.6c-7.1-5.4-15.9-8.6-25.5-8.6c-5.3,0-10.3,1-15,2.7c-7.8-9.4-19.5-15.5-32.7-15.5
				c-7.8,0-15.2,2.1-21.5,5.9c-6.5-15-21.4-25.5-38.8-25.5c-6.9,0-13.4,1.6-19.1,4.6c-7.6-11-20.4-18.2-34.8-18.2
				s-27.1,7.2-34.7,18.2c-7.7-7.8-18.3-12.6-30.1-12.6c-17.6,0-32.8,10.8-39.1,26.2c-7.6-7.2-17.8-11.6-29-11.6
				c-10,0-19.2,3.5-26.5,9.3c-7.3-12.6-20.9-21-36.5-21c-4.7,0-9.2,0.8-13.4,2.2v80.3c0.1,0,0.1,0,0.2,0.1v13.8V549L1718,549z"/>
			<path class="st2" d="M2209.2,430.5c-12.9,0-24.4,5.8-32.2,14.8c-7.8-9.1-19.3-14.8-32.2-14.8c-14.3,0-27,7.1-34.6,18
				c-7.5-6.7-17.4-10.8-28.3-10.8c-10.9,0-20.9,4.2-28.4,11c-7.8-8.9-19.2-14.5-31.9-14.5c-5.6,0-10.9,1.1-15.8,3.1
				c-7.6-7.2-17.8-11.6-29.1-11.6c-5.6,0-11,1.1-15.9,3.1c-7.7-10.7-20.2-17.8-34.4-17.8c-10.5,0-20.1,3.8-27.4,10.1
				c-6.6-4.2-14.4-6.7-22.8-6.7c-10.5,0-20.2,3.9-27.6,10.2c-6-3.3-12.9-5.1-20.2-5.1c-5.7,0-11.2,1.1-16.1,3.2
				c-7.6-7.3-17.9-11.8-29.3-11.8c-8.5,0-16.4,2.5-23.1,6.9c-7.7-8-18.5-13-30.5-13c-4.1,0-8.1,0.6-11.8,1.7v58.9v22.3V549h495.9
				v-34v-49.5v-34.6C2212.2,430.6,2210.8,430.5,2209.2,430.5z"/>
		</g>
		<g>
			<path class="st0" d="M1222.4,394.2c8.5,0.1,16.3,2.6,22.9,6.9c6.6-4.3,14.5-6.8,22.9-6.8c13.7,0,25.8,6.5,33.6,16.6
				c4.7-1.8,9.7-2.8,15-2.8c7.1,0,13.9,1.8,19.7,4.9c7.6-11.3,20.5-18.7,35.1-18.7c6.7,0,13.1,1.6,18.7,4.4
				c7.7-8.4,18.8-13.7,31.2-13.7c5.7,0,11.2,1.2,16.2,3.2c7.1-13.3,21.2-22.4,37.3-22.4c13.5,0,25.6,6.4,33.3,16.3
				c7.2-5.7,16.4-9.2,26.3-9.2c13.9,0,26.3,6.7,34,17.1c6.9-5,15.4-7.9,24.6-7.9c13.6,0,25.6,6.4,33.4,16.3c7.2-5.7,16.3-9,26.1-9
				c5.6,0,10.9,1.1,15.7,3c7.4-12.4,20.9-20.7,36.4-20.7c4.7,0,9.2,0.8,13.4,2.2v80.3c-4.2,1.4-8.7,2.2-13.4,2.2
				c-5.6,0-10.9-1.1-15.7-3c-7.4,12.4-20.9,20.7-36.4,20.7c-13.6,0-25.6-6.4-33.4-16.3c-7.2,5.7-16.3,9-26.1,9
				c-13.9,0-26.3-6.7-34-17.1c-6.9,5-15.4,7.9-24.6,7.9c-13.5,0-25.6-6.4-33.3-16.3c-7.2,5.7-16.4,9.2-26.3,9.2
				c-5.7,0-11.2-1.2-16.2-3.2c-7.1,13.3-21.2,22.4-37.3,22.4c-6.7,0-13.1-1.6-18.7-4.4c-7.7,8.4-18.8,13.7-31.2,13.7
				c-7.1,0-13.9-1.8-19.7-4.9c-7.6,11.3-20.5,18.7-35.1,18.7c-13.7,0-25.8-6.5-33.6-16.6c-4.7,1.8-9.7,2.8-15,2.8
				c-8.6,0-16.5-2.5-23.2-6.9c-6.5,4.2-14.3,6.7-22.7,6.8L1222.4,394.2L1222.4,394.2z"/>
			<path class="st1" d="M1718.1,549h-495.7V398.6c0.9-0.1,1.9-0.1,2.8-0.1c17.3,0,32.1,10.4,38.7,25.2c6.8-4.8,15.1-7.5,24.1-7.5
				c13.7,0,25.9,6.5,33.6,16.6c7.1-5.4,15.9-8.6,25.5-8.6c5.3,0,10.3,1,15,2.7c7.8-9.4,19.5-15.5,32.7-15.5c7.8,0,15.2,2.1,21.5,5.9
				c6.5-15,21.4-25.5,38.8-25.5c6.9,0,13.4,1.6,19.1,4.6c7.6-11,20.4-18.2,34.8-18.2c14.4,0,27.1,7.2,34.7,18.2
				c7.7-7.8,18.3-12.6,30.1-12.6c17.6,0,32.8,10.8,39.1,26.2c7.6-7.2,17.8-11.6,29-11.6c10,0,19.2,3.5,26.5,9.3
				c7.3-12.6,20.9-21,36.5-21c4.7,0,9.2,0.8,13.4,2.2v80.3c-0.1,0-0.1,0-0.2,0.1v13.8L1718.1,549L1718.1,549z"/>
			<path class="st2" d="M1226.7,430.5c12.9,0,24.4,5.8,32.2,14.8c7.8-9.1,19.3-14.8,32.2-14.8c14.3,0,27,7.1,34.6,18
				c7.5-6.7,17.4-10.8,28.3-10.8c10.9,0,20.9,4.2,28.4,11c7.8-8.9,19.2-14.5,31.9-14.5c5.6,0,10.9,1.1,15.8,3.1
				c7.6-7.2,17.8-11.6,29.1-11.6c5.6,0,11,1.1,15.9,3.1c7.7-10.7,20.2-17.8,34.4-17.8c10.5,0,20.1,3.8,27.4,10.1
				c6.6-4.2,14.4-6.7,22.8-6.7c10.5,0,20.2,3.9,27.6,10.2c6-3.3,12.9-5.1,20.2-5.1c5.7,0,11.2,1.1,16.1,3.2
				c7.6-7.3,17.9-11.8,29.3-11.8c8.5,0,16.4,2.5,23.1,6.9c7.7-8,18.5-13,30.5-13c4.1,0,8.1,0.6,11.8,1.7v58.9v22.3V549h-495.9v-34
				v-49.5v-34.6C1223.8,430.6,1225.2,430.5,1226.7,430.5z"/>
		</g>
		<g>
			<path class="st0" d="M1224.3,394.2c-8.5,0.1-16.3,2.6-22.9,6.9c-6.6-4.3-14.5-6.8-22.9-6.8c-13.7,0-25.8,6.5-33.6,16.6
				c-4.7-1.8-9.7-2.8-15-2.8c-7.1,0-13.9,1.8-19.7,4.9c-7.6-11.3-20.5-18.7-35.1-18.7c-6.7,0-13.1,1.6-18.7,4.4
				c-7.7-8.4-18.8-13.7-31.2-13.7c-5.7,0-11.2,1.2-16.2,3.2c-7.1-13.3-21.2-22.4-37.3-22.4c-13.5,0-25.6,6.4-33.3,16.3
				c-7.2-5.7-16.4-9.2-26.3-9.2c-13.9,0-26.3,6.7-34,17.1c-6.9-5-15.4-7.9-24.6-7.9c-13.6,0-25.6,6.4-33.4,16.3
				c-7.2-5.7-16.3-9-26.1-9c-5.6,0-10.9,1.1-15.7,3c-7.6-12.4-21.1-20.7-36.6-20.7c-4.7,0-9.2,0.8-13.4,2.2v80.3
				c4.2,1.4,8.7,2.2,13.4,2.2c5.6,0,10.9-1.1,15.7-3c7.4,12.3,20.9,20.6,36.4,20.6c13.6,0,25.6-6.4,33.4-16.3c7.2,5.7,16.3,9,26.1,9
				c13.9,0,26.3-6.7,34-17.1c6.9,5,15.4,7.9,24.6,7.9c13.5,0,25.6-6.4,33.3-16.3c7.2,5.7,16.4,9.2,26.3,9.2c5.7,0,11.2-1.2,16.2-3.2
				c7.1,13.3,21.2,22.4,37.3,22.4c6.7,0,13.1-1.6,18.7-4.4c7.7,8.4,18.8,13.7,31.2,13.7c7.1,0,13.9-1.8,19.7-4.9
				c7.6,11.3,20.5,18.7,35.1,18.7c13.7,0,25.8-6.5,33.6-16.6c4.7,1.8,9.7,2.8,15,2.8c8.6,0,16.5-2.5,23.2-6.9
				c6.5,4.2,14.3,6.7,22.7,6.8L1224.3,394.2L1224.3,394.2z"/>
			<path class="st1" d="M728.5,549h495.7V398.6c-0.9-0.1-1.9-0.1-2.8-0.1c-17.3,0-32.1,10.4-38.7,25.2c-6.8-4.8-15.1-7.5-24.1-7.5
				c-13.7,0-25.9,6.5-33.6,16.6c-7.1-5.4-15.9-8.6-25.5-8.6c-5.3,0-10.3,1-15,2.7c-7.8-9.4-19.5-15.5-32.7-15.5
				c-7.8,0-15.2,2.1-21.5,5.9c-6.5-15-21.4-25.5-38.8-25.5c-6.9,0-13.4,1.6-19.1,4.6c-7.6-11-20.4-18.2-34.8-18.2
				c-14.4,0-27.1,7.2-34.7,18.2c-7.7-7.8-18.3-12.6-30.1-12.6c-17.6,0-32.8,10.8-39.1,26.2c-7.6-7.2-17.8-11.6-29-11.6
				c-10,0-19.2,3.5-26.5,9.3c-7.3-12.6-20.9-21-36.5-21c-4.7,0-9.2,0.8-13.4,2.2v80.3c0.1,0,0.1,0,0.2,0.1v13.8
				C728.5,483.1,728.5,549,728.5,549z"/>
			<path class="st2" d="M1219.9,430.5c-12.9,0-24.4,5.8-32.2,14.8c-7.8-9.1-19.3-14.8-32.2-14.8c-14.3,0-27,7.1-34.6,18
				c-7.5-6.7-17.4-10.8-28.3-10.8s-20.9,4.2-28.4,11c-7.8-8.9-19.2-14.5-31.9-14.5c-5.6,0-10.9,1.1-15.8,3.1
				c-7.6-7.2-17.8-11.6-29.1-11.6c-5.6,0-11,1.1-15.9,3.1c-7.7-10.7-20.2-17.8-34.4-17.8c-10.5,0-20.1,3.8-27.4,10.1
				c-6.6-4.2-14.4-6.7-22.8-6.7c-10.5,0-20.2,3.9-27.6,10.2c-6-3.3-12.9-5.1-20.2-5.1c-5.7,0-11.2,1.1-16.1,3.2
				c-7.6-7.3-17.9-11.8-29.3-11.8c-8.5,0-16.4,2.5-23.1,6.9c-7.7-8-18.5-13-30.5-13c-4.1,0-8.1,0.6-11.8,1.7v58.9v22.3V549h495.9
				v-34v-49.5v-34.6C1222.8,430.6,1221.4,430.5,1219.9,430.5z"/>
		</g>
		<path class="st3" d="M1420.1,157.7l-22.2,0.1l-22.2-0.1c0,0-9.2,148.8-39.4,178.9l61.5,51.6l154.4,5.2
			C1440.5,404,1420.1,157.7,1420.1,157.7z"/>
		<g>
			<path class="st3" d="M1698.3,364.2c-4.8-2-10.1-3.1-15.7-3.1c-9.8,0-18.9,3.4-26,9.1c-3.7-20-21.3-35.2-42.4-35.2
				c-11.8,0-22.4,4.7-30.2,12.3c-6.1-13.9-20.1-23.7-36.3-23.7c-6.7,0-13,1.7-18.5,4.6c-5.4-11.5-17.1-19.4-30.6-19.4
				c-12.5,0-23.4,6.8-29.3,16.9c-4.2-2.9-9.3-4.7-14.9-4.7c-8.4,0-15.9,4-20.6,10.1c-4.1-13-16.3-22.3-30.6-22.3
				c-17.7,0-32.1,14.4-32.1,32.1c0,4.1,0.8,8,2.2,11.6c-1.1,1.2-2.2,2.5-3.1,3.9c-4.2-20.2-22.1-35.4-43.5-35.4
				c-19.2,0-35.5,12.1-41.7,29.1c-5.6-4.4-12.7-7-20.4-7c-10.9,0-20.6,5.2-26.7,13.3c-4.8-2.6-10.4-4.1-16.3-4.1c-2.8,0-5.5,0.3-8,1
				c0.8-3.3,1.2-6.7,1.2-10.2c0-24.8-20.1-44.9-44.9-44.9c-1.6,0-3.1,0.1-4.7,0.2c-6-13.4-19.4-22.8-35.1-22.8
				c-21.2,0-38.4,17.2-38.4,38.4c0,0.4,0,0.8,0,1.1c-6.6-4-14.4-6.4-22.7-6.4c-19,0-35.1,12.1-41.1,29c-7.8-4-16.6-6.3-26-6.3
				c-22.3,0-41.6,12.9-50.8,31.6c-4.9-1.3-10.1-2-15.4-2c-15,0-28.7,5.5-39.2,14.6v158h801.9V364.2H1698.3z"/>
			<path class="st4" d="M896.5,533.7h801.9v-95c-10.5-9.1-24.2-14.6-39.2-14.6c-5.3,0-10.5,0.7-15.4,2
				c-9.2-18.7-28.5-31.6-50.8-31.6c-9.4,0-18.2,2.3-26,6.3c-6-16.9-22.1-29-41.1-29c-8.3,0-16.1,2.3-22.7,6.4c0-0.4,0-0.8,0-1.1
				c0-21.2-17.2-38.4-38.4-38.4c-15.6,0-29.1,9.4-35.1,22.8c-1.5-0.2-3.1-0.2-4.7-0.2c-24.8,0-44.9,20.1-44.9,44.9
				c0,3.5,0.4,6.9,1.2,10.2c-2.6-0.6-5.3-1-8-1c-5.9,0-11.4,1.5-16.3,4.1c-6.1-8.1-15.8-13.3-26.7-13.3c-7.7,0-14.7,2.6-20.4,7
				c-6.2-17-22.6-29.1-41.7-29.1c-21.5,0-39.4,15.2-43.5,35.4c-0.9-1.4-2-2.7-3.1-3.9c1.4-3.6,2.2-7.5,2.2-11.6
				c0-17.7-14.4-32.1-32.1-32.1c-14.3,0-26.5,9.4-30.6,22.3c-4.8-6.2-12.2-10.1-20.6-10.1c-5.5,0-10.7,1.7-14.9,4.7
				c-5.9-10.1-16.8-16.9-29.3-16.9c-13.5,0-25.2,7.9-30.6,19.4c-5.5-2.9-11.8-4.6-18.5-4.6c-16.2,0-30.1,9.7-36.3,23.7
				c-7.8-7.6-18.4-12.3-30.2-12.3c-21.1,0-38.7,15.2-42.4,35.2c-7.1-5.7-16.2-9.1-26-9.1c-5.5,0-10.8,1.1-15.7,3.1L896.5,533.7
				L896.5,533.7z M1019.8,459c0.4-0.9,0.8-1.8,1.2-2.8c0.9,0.8,1.8,1.5,2.7,2.2v0.6H1019.8z"/>
		</g>
		<path class="st5" d="M1669.1,473.7c0,0-44.3,12.5-36.7-26.5c0,0-66,7.2-57.2-41.2c8.8-48.4,65.9-27.8,65.9-27.8
			s-13.8-23.6,16-36.4c29.8-12.8,53.5,18,53.4,38.5c0,0,37-15.1,50.4,15.4s-29.4,40.8-29.4,40.8
			C1752.7,465.5,1694.4,516,1669.1,473.7z"/>
		<path class="st5" d="M880.5,473.7c0,0-44.3,12.5-36.7-26.5c0,0-66,7.2-57.2-41.2s65.9-27.8,65.9-27.8s-13.8-23.6,16-36.4
			c29.8-12.8,53.5,18,53.4,38.5c0,0,37-15.1,50.4,15.4c13.4,30.5-29.4,40.8-29.4,40.8C964.1,465.5,905.9,516,880.5,473.7z"/>
		<g>
			<g>
				<path class="st6" d="M1288.5,101.3c0,0-2.5,5.1-3.1,11.8c0,0,0.3,2.5,6.4,4.5c6.9,0.9,19.9,0.1,19.9,0.1v-3
					c0,0-11.7-0.1-14.6-2.1c-0.5-1.4,0-3.7,1.1-5.8L1288.5,101.3z"/>
				<path class="st7" d="M1292.9,99.5c0,0,5.6-17.2,5.9-19.1c0,0,5.6-0.7,9.6,3c0,0-8.2,16.5-10,18.8
					C1298.4,102.2,1295.8,100.3,1292.9,99.5z"/>
				<path class="st8" d="M1287.2,102.5c0,0,1.1-3.9,3.6-5.1c0.7-0.3,9.1,4.4,10.3,6.1c0,0-2,5.1-2.8,5.3
					C1298.2,108.8,1287.7,103.8,1287.2,102.5z"/>
			</g>
			<g>
				<path class="st9" d="M1347,122c0,0-6.2,12-6.6,12.7c-0.5,0.8,7.3,0,7.3,0s-2.9,12-3.3,14.3c0,0,5-3.4,7.9-4.5
					c0,0,6.7,24.5,9.7,29.4c0,0,17.1-30.3,16.3-32.5c0,0,3.6,1.3,5.1,1.7s-4.9-12.4-4.9-12.4s6.4,0.4,8.6,0l-6.3-10.9
					C1380.9,119.7,1353.3,120.9,1347,122z"/>
				<path class="st10" d="M1377.8,44.8c-3.6-6-8.7-8-16.4-6.9c-5.3,0.7-9,4.9-11.4,10.8C1357.2,50.1,1367.4,50.3,1377.8,44.8z"/>
				<path class="st11" d="M1377.8,44.8c-10.4,5.5-20.7,5.2-27.8,3.9c-8.6,20.9-2.3,64.5-2.3,64.5c27.6,4,39.5-4,39.5-4
					C1385.3,74.9,1383.6,54.6,1377.8,44.8z"/>
				<path class="st12" d="M1347.7,110.5l-1.5,2c0,0,0.6,9,0.7,9.8c0,0,29.4,6.4,43.3-4c0,0-0.6-8.9-1.8-9.9c-1.3-1-1.3-1-1.3-1
					S1371.3,114,1347.7,110.5z"/>
				<path class="st13" d="M1346,101.3c0,0,17.2,3.4,41.2-2.9v-7.2c0,0-14,4.5-41.2,2.7V101.3z"/>
			</g>
			<g>
				<path class="st14" d="M1371.7,135.6c0,0-8.7,16.9-9.3,17.9c-0.7,1.1,10.3,0,10.3,0s-4.1,16.9-4.7,20.1c0,0,7.1-4.8,11.2-6.4
					c0,0,15.8,36,20.1,42.9c0,0,17.7-44.2,16.6-47.4c0,0,5.1,1.8,7.2,2.4c2.1,0.5-6.9-17.5-6.9-17.5s9,0.5,12.2,0l-8.9-15.3
					C1419.6,132.4,1380.7,134.1,1371.7,135.6z"/>
				<path class="st15" d="M1379.5,135.1c0,0-5.8,11.3-6.2,12s6.9,0,6.9,0s-2.8,11.3-3.1,13.5c0,0,4.7-3.2,7.5-4.3
					c0,0,10.6,24.1,13.4,28.7c0,0,11.8-29.6,11.1-31.7c0,0,3.4,1.2,4.8,1.6c1.4,0.4-4.6-11.7-4.6-11.7s6,0.4,8.2,0l-5.9-10.2
					C1411.6,132.9,1385.5,134.1,1379.5,135.1z"/>
				<path class="st6" d="M1406.9,43.6c-12.4,6.5-24.5,6.2-33,4.6c-10.2,24.8-2.8,76.5-2.8,76.5c32.8,4.8,46.9-4.8,46.9-4.8
					C1415.8,79.2,1413.8,55.2,1406.9,43.6z"/>
				<path class="st16" d="M1371.1,121.5l-1.8,2.4c0,0,0.7,10.7,0.8,11.7c0,0,35,7.5,51.4-4.8c0,0-0.7-10.6-2.2-11.7
					s-1.5-1.1-1.5-1.1S1399.1,125.7,1371.1,121.5z"/>
				<path class="st13" d="M1369,110.6c0,0,20.5,4,48.9-3.4v-8.5c0,0-16.6,5.3-48.9,3.2V110.6z"/>
				<path class="st2" d="M1393.5,39.4c0,0,10.4-0.5,14.6,14.1c4.2,14.5,6.2,50,6.8,62.4l-4.3,1.2
					C1410.6,117.1,1409.9,40.5,1393.5,39.4z"/>
			</g>
			<path class="st13" d="M1406.9,43.6c-4.2-7.1-14.5-9.5-19.4-8.2c-6.2,1.6-10.7,5.8-13.6,12.8C1382.3,49.8,1394.5,50,1406.9,43.6z"
				/>
			<g>
				<path class="st17" d="M1335.2,53.4c4.2-1,15.1,7.7,7.8,39.6c-6,26-44.5,6.5-44.5,6.5s6.8-7.3,4.5-11.5c0,0,18.9,19.6,31.2,5.2
					c2.1-2.5,4.2-15.5,1.5-24.2C1332.8,59.3,1330.3,54.5,1335.2,53.4z"/>
				<g>
					<path class="st18" d="M1298.5,98.9c0,0,0.1,0.1,0.2,0.1c1,0.5,5.1,2,7.6-6C1306.3,93,1296.3,92.5,1298.5,98.9z"/>
					<path class="st18" d="M1309.1,86.5c-1.6-0.5-3.3-0.6-5.2,4.1s-0.6,5,1.8,3.7C1308,93.1,1311.2,87.2,1309.1,86.5z"/>
					<path class="st19" d="M1300.6,84.2c-4.6-1.4-10,1-1.3,5.5C1308,94.2,1311.1,87.4,1300.6,84.2z"/>
					<path class="st19" d="M1298.3,88.6c-2.7-0.8-5.3-1.2-6.2,1c-0.6,1.6,0.8,2.7,4.7,4.7c4.2,2.2,6.9,2.2,8.1,0.5
						C1306,93.2,1304.2,90.3,1298.3,88.6z"/>
					<path class="st19" d="M1296.7,93.5c-3.7-1.1-8.2,0.8-1.1,4.5c3.5,1.8,6.1,1.3,6.7,0.1C1303.3,95.9,1301,94.8,1296.7,93.5z"/>
				</g>
			</g>
			<g>
				<path class="st20" d="M1388.8,22c0,0,1.5,5,0,6.2s-5.5-2.1-6.3-3.4c0,0,1,3.8-0.8,3.7c-1.8-0.1-4.8-6.4-4.8-6.4
					S1380.8,15.3,1388.8,22z"/>
				<path class="st19" d="M1339.6-29c0,0-10.3,27.4-13.5,35.4c-3.2,7.9-5.2,22.6,6.8,26.2s33.2,4.8,40.5-3.2
					c7.3-7.9,8.7-14.7,8.7-14.7s11.9-28.2,4-39.3S1345.5-40.9,1339.6-29z"/>
				<path class="st21" d="M1343.1-14.4c0,0-1.9,3.7-3.2,3.7c-1.3,0-6.6,1.3-2.6,4.2s7.7,1.3,7.7,1.3s-7-1.3-7.1-3.2
					c-0.2-1.9,2.6-0.1,4-1.2S1343.1-14.4,1343.1-14.4z"/>
				
					<ellipse transform="matrix(-0.2881 0.9576 -0.9576 -0.2881 1735.2183 -1318.6211)" class="st22" cx="1357.8" cy="-14.3" rx="3" ry="1.7"/>
				
					<ellipse transform="matrix(-0.2881 0.9576 -0.9576 -0.2881 1710.1439 -1302.6272)" class="st22" cx="1339.3" cy="-15.6" rx="3" ry="1.7"/>
				<path class="st20" d="M1345-29.6c0,0,5.1,7,7.3,6.8c2.2-0.2,0-4.2,0-4.2s6.2,5.4,10.5,6.2c4.4,0.8,0-4.4,0-4.4s3.8,1.5,5.4,0
					C1369.8-26.6,1353.4-34.2,1345-29.6z"/>
				<g>
					<path class="st23" d="M1330.8,3.2c0,0-1.4,20.3,9.5,23.4c0.1,0,0.3,0.1,0.4,0.1c3.2-13.7,18.8-16.2,25.6-16.7
						c1.2-2,1.8-3.3,1.8-3.3C1352.7-3.6,1330.8,3.2,1330.8,3.2z"/>
					<path class="st24" d="M1340.8,26.7c12,3.2,21.7-10.3,25.6-16.7C1359.5,10.5,1344,13,1340.8,26.7z"/>
				</g>
				<g>
					<path class="st6" d="M1331.3-7.3c0,0,2.9-7,4.7-12.1c-0.8-0.5-1.6-0.9-2.4-1.4C1332.5-16.7,1331.7-12.2,1331.3-7.3z"/>
					<path class="st2" d="M1408.3-27.9c-1.1-2.6-2.5-5.1-4.4-7.5c-16.8-20.8-59.4-22.2-70.2,14.6c0.7,0.4,1.5,0.9,2.4,1.4
						c0.7-1.9,1.3-3.6,1.5-4.5c0,0,16.3-10.7,40.5,2.8c0,0,2.5,3,3.1,9.7C1390.2-13.5,1399.5-18.5,1408.3-27.9z"/>
					<path class="st6" d="M1381.2-11.3c0.6,6.4-0.5,16-7.1,29.6c0,0,13.9,7.5,18.3,6.4c3.9-1.1,25.1-30,15.9-52.5
						C1399.5-18.5,1390.2-13.5,1381.2-11.3z"/>
				</g>
				<path class="st25" d="M1394-3.7c-0.2-0.1-0.4-0.1-0.6-0.1c2.4,1.1,3.2,5.6,2,10.4c-1.3,4.8-4.3,8.2-6.9,8
					c0.2,0.1,0.4,0.2,0.6,0.2c3.3,0.9,7.1-2.5,8.5-7.6C1398.9,2,1397.3-2.9,1394-3.7z"/>
				<path class="st26" d="M1395.4,6.5c1.3-4.8,0.4-9.3-2-10.4c-3.2-0.4-6.6,3-7.9,7.8s0,9.4,2.9,10.7
					C1391.1,14.8,1394.1,11.4,1395.4,6.5z"/>
				<path class="st27" d="M1354.9-22.2c0,0,6.5,0.7,10.2,6.2C1365.1-16.1,1360.3-26.2,1354.9-22.2z"/>
				<path class="st27" d="M1345.5-22.4c0,0-2.5-1.3-7.9,3.6C1337.6-18.8,1341.5-26.5,1345.5-22.4z"/>
			</g>
			<g>
				<path class="st28" d="M1345.9,254.6c0,0-4,11.9-7.1,17.1c-3.2,5.2-1.2,13.5,3.6,13.9c4.8,0.4,20.7-22.5,22.2-25.4s-7.5-8-7.5-8
					S1348.7,253,1345.9,254.6z"/>
				<path class="st28" d="M1362,252.2c0,0,1.5,9.1,1.9,16.7s-1,18.7,4.8,20.7c5.8,2,8.1-1.2,8.1-1.2s7.1-26.7,6.4-30.4
					c-0.7-3.7-8.1-8.9-8.1-8.9L1362,252.2z"/>
				<path class="st17" d="M1310.2,133.1c0,0,6.4,79.8,33,123.1c0,0,11.5,6.8,18.9-6.4c0,0-8.8-18.3-17-48.9
					c-8.2-30.6-12.2-58.8-12.8-63.6L1310.2,133.1z"/>
				<path class="st17" d="M1313.3,137c0,0,8,14.7,12.8,22.3c4.8,7.6,24.4,86.2,33.6,97.3c0,0,10.7,3.6,23.5-5.6
					c0,0-23.3-50.7-28.3-108.1C1354.9,142.9,1325.1,131.4,1313.3,137z"/>
				<path class="st29" d="M1317.2,144c0,0,6.7,8.3,9.8,17s21.4,71.6,28,85.2c0,0-14.6-36.2-21.1-57.1
					C1327.4,168.3,1328,164.4,1317.2,144z"/>
			</g>
			<g>
				<path class="st17" d="M1369.5,49.6c0,0,8,1.7,11.3,3.8c0,0-18.9,54.7-20.3,90.5c0,0-18-3.9-33.4-6c-0.1-0.8-0.3-1.2-1.1-1.3
					c-6.9-0.9-14.5-0.3-17.9,0.3c0,0,13.8-66.2,27.7-83.5c0,0,3.7-0.5,7.6-1.7C1347.3,50.6,1369.5,49.6,1369.5,49.6z"/>
				<path class="st30" d="M1345.8,51c0,0-8.5,7.3-15,7c0,0,2.4,7,7.6,11.4c0,0-10.9,5-12.3,6c0,0,0,26.2,0,44.6
					c0,0,6.5-21.7,7.1-26.6C1333.7,88.5,1344.3,55.8,1345.8,51z"/>
				<path class="st19" d="M1366.6,32c0,0-3.8,18.9-4.4,20.5c-11.8,11.9-13.4,5.6-12.7,0c-1-1.2,3.2-14.9,3.2-19.5
					C1358.8,32,1366.6,32,1366.6,32z"/>
				<path class="st29" d="M1326.1,121.3c0.2-0.3-1.7,9-1.9,12.5C1324.2,133.8,1324.5,124.1,1326.1,121.3z"/>
				
					<ellipse transform="matrix(-0.1589 0.9873 -0.9873 -0.1589 1653.9523 -1164.5972)" class="st29" cx="1323.1" cy="122.2" rx="1.1" ry="0.8"/>
				
					<ellipse transform="matrix(-0.1589 0.9873 -0.9873 -0.1589 1659.6632 -1155.9198)" class="st29" cx="1322.2" cy="129" rx="1.1" ry="0.8"/>
				<path class="st30" d="M1371.3,51c0,0-0.7,11.4,3.8,17.2c0,0-15.7,5.5-22.4,6.6c0,0,7.1,6,13.9,10.1c0,0-36.5,19.4-40.5,35.1
					c0,0,4.1-19.3,6.6-25.6C1335.2,87.9,1366.8,54.6,1371.3,51z"/>
				<path class="st4" d="M1356.7,52.5c-0.6,0.4-1.4,1.1-2.2,1.8l-0.6-2l-1.9,4c-0.4,0.4-0.6,1.1-1,1.5l-0.6-5l-0.9,0.9
					c-0.1-0.4-0.1-0.7-0.2-0.9c-3,0.3-4.3,0.5-4.3,0.5c-3.7,8.2-12.3,40.8-12.3,40.8c6.2-11.9,36.8-41.9,36.8-41.9
					C1364.4,52.4,1360.1,52.4,1356.7,52.5z"/>
				<path class="st2" d="M1365.6,45.3c0,0-10.1,6.3-11.7,7.1c0,0,1.5,6.6,2.1,8.1c0,0,14.7-8.1,16.1-10.3L1365.6,45.3z"/>
				<path class="st2" d="M1350,47.2c0,0-0.5,2.9,0.4,5.7c0,0-2.5,5.7-3.9,6.7c0,0-1.8-5.9-2-8.1L1350,47.2z"/>
				<path class="st31" d="M1355.4,59.2c0,0-7.7-1-7.9-0.7c-0.2,0.3,1.1,7.6,1.1,7.6s2.7,1.7,3,1.1
					C1351.8,66.6,1355.4,59.2,1355.4,59.2z"/>
				<path class="st31" d="M1348.5,65.9c0,0-4.7,12.2-22.4,19.4c-10.2,4.2-27.5,22-23.9,37.9c0,0,8.1,9.5,10.5,9.7
					c0,0,7.1-7.3,8.7-9.7c0,0-7.1-21.2,9.8-31.6c19.8-12.2,20.2-24.4,20.2-24.4L1348.5,65.9z"/>
				<path class="st32" d="M1353.9,52.4c0,0-2.5,4.6-2.9,5.5c0,0-0.4-4-0.6-5c0,0,0.2,4.8,0.4,5.8C1350.8,58.7,1352.4,56,1353.9,52.4
					z"/>
				<path class="st29" d="M1315.1,135.8c-0.4,0,8.4-0.4,9.8-0.2l0.7,0.9c0,0,14.3,2.4,20.5,4.5c0,0-11.8-3.3-20.7-3.6l-0.9-1.1
					C1324.6,136.3,1317.4,135.5,1315.1,135.8z"/>
			</g>
			<g>
				<path class="st17" d="M1372.1,50.3c0,0,42,5,44.1,34.8c2.7,40.1-62.3,31.9-62.3,31.9s6.9-12.1,3.2-16.4c0,0,44.9,13,47.4-12.5
					c1.6-15.7-20.5-22.7-26.5-23.8C1372.1,63.2,1371.3,53.4,1372.1,50.3z"/>
				<g>
					<path class="st6" d="M1349.5,122.3c-1.2,5.5,0,7.7,0,7.7c1.7,1.1,26.8-3.9,42.7-9.8c2.7-1,5.7-4.9,7.6-5.9c0,0,3.7,0.5,4.2,3.3
						c0.2,1,0,2.1-2.3,4.2c0,0-40.1,12.4-57.8,13.9c-2.8,0.2-5.4-1.3-7-1.9c-1-1.9,0.1-13.4,0.1-13.4S1346.2,120.8,1349.5,122.3z"/>
					<path class="st7" d="M1345.9,89.2c0,0-4.8,26.4-5.5,28.8c-0.7,2.3,5.7,3.4,7.8,2.7s9.3-26.1,9.6-28.3
						C1357.9,92.5,1352.1,88.8,1345.9,89.2z"/>
					<path class="st8" d="M1337.9,115.3c0,0,12.4,2.6,14,4.2c0,0-0.8,5-2.4,6.5c-1.6,1.5-12.5-3.3-13.4-4.1
						C1335.2,121.1,1336.1,118,1337.9,115.3z"/>
				</g>
				<path class="st19" d="M1360.5,101.8c0,0-1.1-2.9-3.2-7c-1.1,3.3-2,5.2-2,5.2s-10.9-5.9-12.2-3.8c-1.4,2.1-0.5,5.8-0.5,5.8
					s-3.3,0.3-3.3,2.9s0.3,3.9,0.3,3.9s-2.6,2,0.1,3.8c2.7,1.8,11.8,5.4,14.3,4.3S1360.8,107.7,1360.5,101.8z"/>
			</g>
		</g>
	</g>
</g>
</svg>
