<!-- Generator: Adobe Illustrator 19.0.0, SVG Export Plug-In  -->
<svg version="1.1"
   xmlns="http://www.w3.org/2000/svg" xmlns:xlink="http://www.w3.org/1999/xlink" xmlns:a="http://ns.adobe.com/AdobeSVGViewerExtensions/3.0/"
   x="0px" y="0px" width="28.1px" height="27.1px" viewBox="0 0 28.1 27.1" style="enable-background:new 0 0 28.1 27.1;"
   xml:space="preserve">
<defs>
</defs>
<path id="XMLID_20_" d="M27,7.3H1.1C0.5,7.3,0,6.8,0,6.2l0-5.1C0,0.5,0.5,0,1.1,0L27,0c0.6,0,1.1,0.5,1.1,1.1v5.1
  C28.1,6.8,27.6,7.3,27,7.3z"/>
<path id="XMLID_19_" d="M27,17.2H1.1c-0.6,0-1.1-0.5-1.1-1.1L0,11c0-0.6,0.5-1.1,1.1-1.1l25.9,0c0.6,0,1.1,0.5,1.1,1.1v5.1
  C28.1,16.7,27.6,17.2,27,17.2z"/>
<path id="XMLID_18_" d="M27,27.1H1.1C0.5,27.1,0,26.6,0,26l0-5.1c0-0.6,0.5-1.1,1.1-1.1l25.9,0c0.6,0,1.1,0.5,1.1,1.1V26
  C28.1,26.6,27.6,27.1,27,27.1z"/>
</svg>
