<!-- Generator: Adobe Illustrator 19.0.0, SVG Export Plug-In  -->
<svg version="1.1"
   xmlns="http://www.w3.org/2000/svg" xmlns:xlink="http://www.w3.org/1999/xlink"
   x="0px" y="0px" width="39.1px" height="25.5px" viewBox="0 0 39.1 25.5" style="enable-background:new 0 0 39.1 25.5;"
   xml:space="preserve">
<defs>
</defs>
<g>
  <path d="M12.3,19.5h5.4v1.3h-5.4v1h17.1v-1h-6.4v-1.3h7.1v-2.9H12.3V19.5z M12.3,19.5"/>
  <path d="M7.6,2.2h26v10.4h2.2V0H5.4v7h2.2V2.2z M7.6,2.2"/>
  <path d="M0,25.1h11.6V7.7H0V25.1z M6.1,24.2c-0.3,0-0.6-0.3-0.6-0.6c0-0.3,0.2-0.6,0.6-0.6c0.3,0,0.6,0.2,0.6,0.6
    C6.6,24,6.4,24.2,6.1,24.2L6.1,24.2z M1.7,9.3h8.3l0,12.9H1.7V9.3z M1.7,9.3"/>
  <path d="M31,13.3v12.3h8.1V13.3H31z M35.2,13.8c0.1,0,0.2,0.1,0.2,0.2c0,0.1-0.1,0.2-0.2,0.2c-0.1,0-0.2-0.1-0.2-0.2
    C35,13.9,35.1,13.8,35.2,13.8L35.2,13.8z M34.1,14.4h2.1v0.2h-2.1V14.4z M35.1,25c-0.2,0-0.4-0.2-0.4-0.4c0-0.2,0.2-0.4,0.4-0.4
    c0.2,0,0.4,0.2,0.4,0.4C35.5,24.8,35.3,25,35.1,25L35.1,25z M37.9,23.6c-1.9,0-4.8,0-5.8,0v-8.4h5.8V23.6z M37.9,23.6"/>
</g>
</svg>
