<!-- Generator: Adobe Illustrator 19.0.0, SVG Export Plug-In  -->
<svg version="1.1"
   xmlns="http://www.w3.org/2000/svg" xmlns:xlink="http://www.w3.org/1999/xlink" xmlns:a="http://ns.adobe.com/AdobeSVGViewerExtensions/3.0/"
   x="0px" y="0px" width="29px" height="20.8px" viewBox="0 0 29 20.8" style="enable-background:new 0 0 29 20.8;"
   xml:space="preserve" id="deployment">
<g id="XMLID_15_" >
  <g id="XMLID_16_">
    <g id="XMLID_17_">
      <path id="XMLID_20_" class="st0" d="M17.2,9.5L18.8,8l-1.6-1.6l-1.6,1.6C15,7.5,14.2,7.2,13.4,7V4.8h-2.2V7
        C10.4,7.2,9.7,7.5,9,7.9L7.5,6.4L5.9,8l1.6,1.6c-0.4,0.7-0.7,1.4-0.9,2.2H4.3V14h2.2c0.2,0.8,0.5,1.5,0.9,2.2l-1.6,1.6l1.6,1.6
        L9,17.7c0.6,0.4,1.4,0.7,2.2,0.9v2.2h2.2v-2.2c0.8-0.2,1.5-0.5,2.2-0.9l1.6,1.6l1.6-1.6l-1.6-1.6c0.4-0.6,0.7-1.4,0.9-2.2h2.2
        v-2.2h-2.2C18,10.9,17.7,10.2,17.2,9.5z M12.3,15.3c-1.3,0-2.4-1.1-2.4-2.4c0-1.3,1.1-2.4,2.4-2.4c1.4,0,2.4,1.1,2.4,2.4
        C14.8,14.2,13.7,15.3,12.3,15.3z"/>
      <path id="XMLID_19_" class="st0" d="M19.4,2c-2-1.3-4.3-2-6.8-2C5.6,0,0,5.6,0,12.6c0,2.9,1,5.6,2.6,7.7l1.6-1.6
        c-1.3-1.7-2-3.8-2-6.1c0-5.7,4.7-10.4,10.4-10.4c1.9,0,3.7,0.6,5.2,1.5L16.6,5l4.9,0.4L21,0.3L19.4,2z"/>
      <polygon id="XMLID_18_" class="st0" points="29,12.9 25.9,9.8 25.9,11.5 21.8,11.5 21.8,14.2 25.9,14.2 25.9,16      "/>
    </g>
  </g>
</g>
</svg>
