<!-- Generator: Adobe Illustrator 19.0.0, SVG Export Plug-In  -->
<svg version="1.1"
   xmlns="http://www.w3.org/2000/svg" xmlns:xlink="http://www.w3.org/1999/xlink" xmlns:a="http://ns.adobe.com/AdobeSVGViewerExtensions/3.0/"
   x="0px" y="0px" width="29px" height="28.9px" viewBox="0 0 29 28.9" style="enable-background:new 0 0 29 28.9;"
   xml:space="preserve">
<g id="XMLID_15_">
  <path id="XMLID_21_" class="st0" d="M2.8,16.1c2.2-3.2,3.5-5.2,4.5-6.8c-3.7,0.3-7.2,4.9-7.2,4.9l2.4,2.4
    C2.6,16.5,2.7,16.3,2.8,16.1z"/>
  <path id="XMLID_20_" class="st0" d="M12.2,26.4l2.4,2.4c0,0,4.6-3.5,4.9-7.2c-1.5,0.9-3.6,2.2-6.8,4.5
    C12.6,26.2,12.4,26.3,12.2,26.4z"/>
  <path id="XMLID_19_" class="st0" d="M8.6,25.1c-0.4,0.2-0.8,0.3-1.2,0.5C6.2,26,5,26.2,3.8,26.4c-0.5,0.1-1,0.1-1.5,0.2
    c0-0.1,0-0.1,0-0.2C2.5,25.2,2.7,24,3,22.8c0.1-0.6,0.3-1.1,0.5-1.7c0.1-0.3,0.3-0.7,0.4-1l-0.3-0.3c-0.6,0.4-1.1,0.9-1.5,1.5
    c-0.6,0.8-1.1,1.8-1.5,2.8C0.3,25.2,0,26.3,0,27.5c0,0.2,0,0.3,0,0.5c0,0.2,0.1,0.4,0.3,0.6c0.1,0.2,0.3,0.3,0.5,0.3
    c0.2,0.1,0.3,0.1,0.5,0.1c1,0,2.1-0.2,3.1-0.5C6.1,27.9,8,26.9,9,25.3L8.8,25C8.7,25.1,8.6,25.1,8.6,25.1z"/>
  <path id="XMLID_16_" class="st0" d="M28.7,0.3L28.7,0.3C28.5,0.1,28.3,0,28,0c0,0,0,0,0,0c-3.2,0.1-11.2,0.6-15.4,4.9
    C10.7,6.8,10,7.8,8.7,10c-1,1.6-2.3,3.7-4.8,7.3c-0.3,0.4-0.2,0.9,0.1,1.3l6.4,6.5c0.2,0.2,0.4,0.3,0.7,0.3c0.2,0,0.4-0.1,0.6-0.2
    c3.5-2.5,5.7-3.8,7.3-4.8c2.2-1.4,3.2-2,5.1-3.9C28.3,12.2,28.9,4.2,29,1C29,0.8,28.9,0.5,28.7,0.3z M21.2,12.5
    c-1.3,1.3-3.4,1.3-4.7,0c-1.3-1.3-1.3-3.4,0-4.7c1.3-1.3,3.4-1.3,4.7,0C22.5,9.1,22.5,11.2,21.2,12.5z"/>
</g>
</svg>
