<?xml version="1.0" encoding="utf-8"?>
<!-- Generator: Adobe Illustrator 19.0.0, SVG Export Plug-In . SVG Version: 6.00 Build 0)  -->
<svg version="1.1" id="Livello_1" xmlns="http://www.w3.org/2000/svg" xmlns:xlink="http://www.w3.org/1999/xlink" x="0px" y="0px"
	 width="25px" height="20.3px" viewBox="-37 40.7 25 20.3" style="enable-background:new -37 40.7 25 20.3;" xml:space="preserve">
	 <title>LinkedIn</title>
<g>
	<path d="M-14.5,53v7.4h-4.3v-6.9c0-1.7-0.6-2.9-2.2-2.9c-1.2,0-1.9,0.8-2.2,1.6c-0.1,0.3-0.1,0.7-0.1,1v7.2h-4.3
		c0,0,0.1-11.7,0-12.9h4.3v1.8c0,0,0,0,0,0h0v0c0.6-0.9,1.6-2.1,3.9-2.1C-16.6,47.2-14.5,49.1-14.5,53L-14.5,53z M-32.1,41.3
		c-1.5,0-2.4,1-2.4,2.2c0,1.2,0.9,2.2,2.4,2.2h0c1.5,0,2.4-1,2.4-2.2C-29.7,42.3-30.6,41.3-32.1,41.3L-32.1,41.3z M-34.2,60.4h4.3
		V47.5h-4.3V60.4z M-34.2,60.4"/>
</g>
</svg>
