<svg id="Livello_1" class="logo-smartphone" data-name="Livello 1" xmlns="http://www.w3.org/2000/svg" viewBox="0 0 170.98 22.18">
	<defs><style>.cls-1,.cls-2{fill:#fff;}.cls-1{stroke:#fff;stroke-miterlimit:10;stroke-width:0.5px;}</style></defs><g id="_Gruppo_" data-name="&lt;Gruppo&gt;">
	<path class="cls-1" d="M39.73,17.7l-2.11-4.89H33.21V17.7h-.29V7.28h4.22q3.15,0,3.15,2.67A2.73,2.73,0,0,1,38,12.76l2.14,4.94ZM40,9.92q0-2.36-2.79-2.36h-4v4.94h3.86a3.21,3.21,0,0,0,2.07-.64A2.38,2.38,0,0,0,40,9.92Z" transform="translate(-1.74 -2.15)"/><path class="cls-1" d="M50.66,12.48a6,6,0,0,1-1.2,3.82,4.66,4.66,0,0,1-7.11,0,6,6,0,0,1-1.2-3.82,6,6,0,0,1,1.2-3.82,4.69,4.69,0,0,1,7.11,0A6,6,0,0,1,50.66,12.48Zm-.29,0a5.71,5.71,0,0,0-1.11-3.61,4.41,4.41,0,0,0-6.71,0,5.71,5.71,0,0,0-1.11,3.61,5.71,5.71,0,0,0,1.11,3.61,4.38,4.38,0,0,0,6.71,0A5.71,5.71,0,0,0,50.37,12.48Z" transform="translate(-1.74 -2.15)"/><path class="cls-1" d="M60.67,13.61a5.25,5.25,0,0,1-1.4,3.09,4.51,4.51,0,0,1-6.59-.4,5.75,5.75,0,0,1-1.21-3.73,6,6,0,0,1,1.24-3.87,4.67,4.67,0,0,1,6.34-.75,3.14,3.14,0,0,1,1.39,2.46h-.29a3,3,0,0,0-1.3-2.25,4.14,4.14,0,0,0-2.53-.82,4.09,4.09,0,0,0-3.38,1.59,5.65,5.65,0,0,0-1.19,3.66,5.45,5.45,0,0,0,1.14,3.51,3.91,3.91,0,0,0,3.24,1.58,4,4,0,0,0,2.93-1.16,4.93,4.93,0,0,0,1.32-2.89Z" transform="translate(-1.74 -2.15)"/><path class="cls-1" d="M69.73,17.7h-.39l-5.12-5.81L61.86,14v3.7h-.29V7.28h.29v6.33L69,7.28h.43l-5,4.44Z" transform="translate(-1.74 -2.15)"/><path class="cls-1" d="M78.92,17.7h-.32l-1.36-3.42H72L70.61,17.7h-.33L74.47,7.28h.38ZM77.13,14l-2.46-6.4h0L72.1,14Z" transform="translate(-1.74 -2.15)"/><path class="cls-1" d="M87.49,17.7h-.43L80,7.64h0V17.7h-.29V7.28h.43l7.05,10.06h0V7.28h.29Z" transform="translate(-1.74 -2.15)"/><path class="cls-1" d="M96.66,12.48a5.5,5.5,0,0,1-1.23,3.76,4.59,4.59,0,0,1-3.61,1.46H88.65V7.28h3.61A4,4,0,0,1,95.63,8.8,6,6,0,0,1,96.66,12.48Zm-.29,0a5.7,5.7,0,0,0-1-3.51,3.8,3.8,0,0,0-3.22-1.4H88.94v9.84h2.95A4.18,4.18,0,0,0,95.24,16,5.25,5.25,0,0,0,96.37,12.48Z" transform="translate(-1.74 -2.15)"/><path class="cls-1" d="M104.43,17.7l-2.11-4.89H97.92V17.7h-.29V7.28h4.22Q105,7.28,105,10a2.73,2.73,0,0,1-2.34,2.8l2.14,4.94Zm.27-7.78q0-2.36-2.79-2.36h-4v4.94h3.86a3.21,3.21,0,0,0,2.07-.64A2.38,2.38,0,0,0,104.71,9.92Z" transform="translate(-1.74 -2.15)"/><path class="cls-1" d="M115.36,12.48a6,6,0,0,1-1.2,3.82,4.66,4.66,0,0,1-7.11,0,6,6,0,0,1-1.2-3.82,6,6,0,0,1,1.2-3.82,4.69,4.69,0,0,1,7.11,0A6,6,0,0,1,115.36,12.48Zm-.29,0A5.71,5.71,0,0,0,114,8.87a4.41,4.41,0,0,0-6.71,0,5.71,5.71,0,0,0-1.11,3.61,5.71,5.71,0,0,0,1.11,3.61,4.38,4.38,0,0,0,6.71,0A5.71,5.71,0,0,0,115.07,12.48Z" transform="translate(-1.74 -2.15)"/><path class="cls-1" d="M123.14,17.7,121,12.81h-4.41V17.7h-.29V7.28h4.22q3.15,0,3.15,2.67a2.73,2.73,0,0,1-2.34,2.8l2.14,4.94Zm.28-7.78q0-2.36-2.79-2.36h-4v4.94h3.86a3.21,3.21,0,0,0,2.07-.64A2.38,2.38,0,0,0,123.41,9.92Z" transform="translate(-1.74 -2.15)"/><path class="cls-1" d="M135.16,15.14A2.4,2.4,0,0,1,134,17.28,5.07,5.07,0,0,1,128.6,17a3.49,3.49,0,0,1-1.11-2.8h.29q0,3.41,3.74,3.41a4.24,4.24,0,0,0,2.27-.58,2.19,2.19,0,0,0,1.08-2A2.31,2.31,0,0,0,133,12.89L129.62,12a2.36,2.36,0,0,1-1.83-2.31,2.34,2.34,0,0,1,1.11-2.11A4.5,4.5,0,0,1,131.32,7q3.51,0,3.64,3.17h-.29q-.09-2.88-3.35-2.88a4.17,4.17,0,0,0-2.2.52,2,2,0,0,0-1,1.88q0,1.5,1.83,2.1l3.41.87A2.49,2.49,0,0,1,135.16,15.14Z" transform="translate(-1.74 -2.15)"/><path class="cls-1" d="M143.3,7.57h-3.71V17.7h-.29V7.57h-3.71V7.28h7.72Z" transform="translate(-1.74 -2.15)"/><path class="cls-1" d="M151.4,13.81a4.47,4.47,0,0,1-.91,3,4.23,4.23,0,0,1-5.75,0,4.47,4.47,0,0,1-.91-3V7.28h.29v6.53q0,3.85,3.5,3.84t3.5-3.84V7.28h.29Z" transform="translate(-1.74 -2.15)"/><path class="cls-1" d="M160.51,12.48a5.49,5.49,0,0,1-1.23,3.76,4.59,4.59,0,0,1-3.61,1.46H152.5V7.28h3.61a4,4,0,0,1,3.37,1.52A6,6,0,0,1,160.51,12.48Zm-.29,0a5.7,5.7,0,0,0-1-3.51A3.8,3.8,0,0,0,156,7.57h-3.25v9.84h2.95A4.18,4.18,0,0,0,159.09,16,5.25,5.25,0,0,0,160.22,12.48Z" transform="translate(-1.74 -2.15)"/><path class="cls-1" d="M161.88,17.7h-.29V7.28h.29Z" transform="translate(-1.74 -2.15)"/><path class="cls-1" d="M172.48,12.48a6,6,0,0,1-1.2,3.82,4.66,4.66,0,0,1-7.11,0,6,6,0,0,1-1.2-3.82,6,6,0,0,1,1.2-3.82,4.69,4.69,0,0,1,7.11,0A6,6,0,0,1,172.48,12.48Zm-.29,0a5.71,5.71,0,0,0-1.11-3.61,4.41,4.41,0,0,0-6.71,0,5.71,5.71,0,0,0-1.11,3.61,5.71,5.71,0,0,0,1.11,3.61,4.38,4.38,0,0,0,6.71,0A5.71,5.71,0,0,0,172.19,12.48Z" transform="translate(-1.74 -2.15)"/></g><g id="_Gruppo_2" data-name="&lt;Gruppo&gt;"><g id="_Gruppo_3" data-name="&lt;Gruppo&gt;"><g id="_Gruppo_4" data-name="&lt;Gruppo&gt;"><g id="_Gruppo_5" data-name="&lt;Gruppo&gt;"><path class="cls-2" d="M12.84,24.34h-.56A11.1,11.1,0,0,1,1.76,12.69h0A11.09,11.09,0,1,1,12.84,24.34ZM2.92,12.75a9.92,9.92,0,1,0,10.4-9.42,9.93,9.93,0,0,0-10.4,9.42Z" transform="translate(-1.74 -2.15)"/></g></g></g><path class="cls-2" d="M19.69,11.85v-.28a3.2,3.2,0,0,0-.37-1.43,2.45,2.45,0,0,0-.58-.76,3.41,3.41,0,0,0-2.6-1H9.53a3.41,3.41,0,0,0-2.6,1,2.45,2.45,0,0,0-.58.76A3.2,3.2,0,0,0,6,11.57v.28a3.11,3.11,0,0,0,.93,2.09A3.08,3.08,0,0,0,8,14.68a4.88,4.88,0,0,0-1.23,3.48h2V18A3,3,0,0,1,10,15.42a3.42,3.42,0,0,1,2-.48h1.76a3.13,3.13,0,0,1,1.89.48A3.1,3.1,0,0,1,16.94,18v.15h2a4.88,4.88,0,0,0-1.23-3.48,3.08,3.08,0,0,0,1.08-.73A3.12,3.12,0,0,0,19.69,11.85Zm-2,.17a1.41,1.41,0,0,1-1.42,1H9.4A1.41,1.41,0,0,1,8,12c0-.14,0-.26-.05-.35a1.43,1.43,0,0,1,.48-1,1.4,1.4,0,0,1,.88-.32s.09,0,.28,0h6.52c.19,0,.28,0,.28,0a1.4,1.4,0,0,1,.88.32,1.43,1.43,0,0,1,.48,1C17.73,11.76,17.71,11.88,17.69,12Z" transform="translate(-1.74 -2.15)"/><path class="cls-2" d="M9.17,11.22c-.42,0-.7,0-.69.44s.27.47.69.44.7,0,.69-.44S9.59,11.19,9.17,11.22Z" transform="translate(-1.74 -2.15)"/><path class="cls-2" d="M16.53,11.22c-.42,0-.7,0-.69.44s.27.47.69.44.7,0,.69-.44S16.95,11.19,16.53,11.22Z" transform="translate(-1.74 -2.15)"/></g></svg>