<?xml version="1.0" encoding="utf-8"?>
<!-- Generator: Adobe Illustrator 19.0.0, SVG Export Plug-In . SVG Version: 6.00 Build 0)  -->
<svg version="1.1" id="Livello_1" xmlns="http://www.w3.org/2000/svg" xmlns:xlink="http://www.w3.org/1999/xlink" x="0px" y="0px"
	 width="312px" height="108px" viewBox="0 0 312 108" style="enable-background:new 0 0 312 108;" xml:space="preserve">
<g id="XMLID_308_">
	<g id="XMLID_387_">
		<g id="XMLID_388_">
			<g id="XMLID_389_">
				<path id="XMLID_390_" class="st0" d="M156,48.9c-0.3,0-0.7,0-1,0c-11.5-0.6-20.4-10.4-19.8-21.9l0,0
					c0.6-11.5,10.4-20.4,21.9-19.8c5.6,0.3,10.7,2.7,14.4,6.8c3.7,4.1,5.7,9.5,5.4,15.1C176.3,40.2,167.1,48.9,156,48.9z
					 M137.3,27.1c-0.5,10.3,7.4,19.1,17.7,19.6c10.3,0.5,19.1-7.4,19.6-17.7c0.2-5-1.5-9.8-4.8-13.5c-3.3-3.7-7.9-5.9-12.9-6.1
					C146.6,8.9,137.9,16.8,137.3,27.1L137.3,27.1z"/>
			</g>
		</g>
	</g>
	<g id="XMLID_309_">
		<g id="XMLID_106_">
			<path id="XMLID_111_" class="st0" d="M168.9,25.4v-0.5c0-0.9-0.2-1.8-0.7-2.7c-0.2-0.5-0.6-0.9-1.1-1.4c-1.2-1.3-2.8-1.9-4.9-1.9
				h-0.6h-11.2h-0.6c-2.1,0-3.7,0.6-4.9,1.9c-0.5,0.5-0.9,1-1.1,1.4c-0.5,0.9-0.7,1.8-0.7,2.7v0.5c0,1.3,0.6,2.7,1.7,3.9
				c0.7,0.7,1.4,1.2,2,1.4c-1.5,1.7-2.3,3.8-2.3,6.5h3.7V37c0-2,0.7-3.7,2.4-4.9c0.9-0.7,2.2-0.9,3.7-0.9h3.3c1.5,0,2.6,0.2,3.6,0.9
				c1.6,1.2,2.5,2.9,2.5,4.9v0.3h3.7c0-2.7-0.8-4.9-2.3-6.5c0.6-0.2,1.3-0.7,2-1.4C168.3,28.1,168.9,26.8,168.9,25.4z M165.1,25.7
				c-0.5,1.3-1.4,2-2.7,2h-0.9h-11.2h-0.9c-1.3,0-2.2-0.7-2.7-2c-0.1-0.3-0.1-0.5-0.1-0.7c0-0.7,0.3-1.4,0.9-2
				c0.5-0.4,1.1-0.6,1.7-0.6c0,0,0.2-0.1,0.5-0.1h11.7l0,0h0.5c0.4,0,0.5,0,0.5,0.1c0.6,0,1.1,0.2,1.7,0.6c0.6,0.6,0.9,1.2,0.9,2
				C165.2,25.2,165.2,25.5,165.1,25.7z"/>
			<g id="XMLID_109_">
				<path id="XMLID_110_" class="st0" d="M149.1,24.2c-0.8-0.1-1.3,0-1.3,0.8c0,0.8,0.5,0.9,1.3,0.8c0.8,0.1,1.3,0,1.3-0.8
					C150.4,24.2,149.9,24.2,149.1,24.2z"/>
			</g>
			<g id="XMLID_107_">
				<path id="XMLID_108_" class="st0" d="M163,24.2c-0.8-0.1-1.3,0-1.3,0.8c0,0.8,0.5,0.9,1.3,0.8c0.8,0.1,1.3,0,1.3-0.8
					C164.3,24.2,163.7,24.2,163,24.2z"/>
			</g>
		</g>
	</g>
</g>
<g id="XMLID_393_">
	<path id="XMLID_94_" class="st0" d="M15.1,95.7c-0.1,0.6-0.2,1.2-0.4,1.6c-0.2,0.5-0.5,0.9-0.8,1.2c-0.7,0.7-1.6,1-2.6,1
		c-1.2,0-2.2-0.5-2.9-1.4c-0.7-0.8-1-1.8-1-3.1c0-1.3,0.3-2.4,1-3.2c0.8-0.9,1.8-1.4,3-1.4c0.9,0,1.6,0.3,2.3,0.8
		c0.8,0.6,1.2,1.4,1.2,2.4h-0.7c-0.1-0.8-0.4-1.4-0.9-1.8c-0.5-0.4-1.2-0.6-1.8-0.6c-1,0-1.8,0.4-2.5,1.2C8.3,93.1,8,94,8,95.1
		c0,1,0.3,1.9,0.9,2.6c0.6,0.8,1.4,1.1,2.4,1.1c0.9,0,1.6-0.3,2.1-0.8c0.3-0.3,0.5-0.6,0.6-1s0.3-0.8,0.3-1.4H15.1z"/>
	<path id="XMLID_96_" class="st0" d="M26.3,99.4l-1.7-3.8h-3.1v3.8h-0.7v-8.7h3.5c1.8,0,2.7,0.8,2.7,2.3c0,1.2-0.6,2-1.8,2.4
		c0.3,0.6,0.6,1.3,0.9,2c0.3,0.7,0.6,1.4,0.9,2H26.3z M26.4,93c0-1.1-0.7-1.6-2-1.6h-2.9v3.4h2.8c0.6,0,1.1-0.2,1.5-0.5l0,0
		C26.2,94.1,26.4,93.6,26.4,93z"/>
	<path id="XMLID_100_" class="st0" d="M38.8,99.4H33v-8.7h5.8v0.7h-5.2v3.1h4.9v0.7h-4.9v3.5h5.2V99.4z"/>
	<path id="XMLID_102_" class="st0" d="M51.4,99.4h-0.7l-1.1-2.7h-3.8c-0.2,0.4-0.4,0.9-0.6,1.4s-0.4,0.9-0.5,1.3h-0.8l3.5-8.7H48
		L51.4,99.4z M49.3,96c-0.1-0.4-0.3-0.7-0.4-1.1c-0.1-0.3-0.3-0.7-0.4-1c-0.1-0.3-0.3-0.7-0.4-1c-0.1-0.3-0.3-0.7-0.4-1.1
		c-0.3,0.7-0.6,1.4-0.8,2.1S46.3,95.3,46,96H49.3z"/>
	<path id="XMLID_105_" class="st0" d="M65.1,99.4h-0.7l0-7.1c-0.5,1.2-1,2.4-1.5,3.5c-0.5,1.2-1,2.4-1.5,3.5h-0.6l-3.1-7v7H57v-8.7
		h0.7l3.3,7.6c0.5-1.2,1.1-2.5,1.7-3.8c0.6-1.3,1.1-2.5,1.6-3.8h0.7V99.4z"/>
	<path id="XMLID_115_" class="st0" d="M78.9,95.1c0,1.3-0.3,2.3-1,3.1c-0.8,0.9-1.7,1.4-3,1.4c-1.2,0-2.2-0.5-3-1.4
		c-0.7-0.8-1-1.9-1-3.1c0-1.3,0.3-2.3,1-3.1c0.8-0.9,1.7-1.4,3-1.4c1.2,0,2.2,0.5,3,1.4C78.6,92.8,78.9,93.8,78.9,95.1z M78.2,95.1
		c0-1.1-0.3-2-0.8-2.7c-0.6-0.8-1.4-1.1-2.4-1.1c-1,0-1.9,0.4-2.5,1.1c-0.6,0.7-0.8,1.6-0.8,2.7c0,1.1,0.3,2,0.8,2.7
		c0.6,0.8,1.4,1.1,2.5,1.1c1,0,1.8-0.4,2.4-1.1C78,97.1,78.2,96.2,78.2,95.1z"/>
	<path id="XMLID_118_" class="st0" d="M91.1,97.2c0,0.4-0.1,0.8-0.3,1.1c-0.2,0.3-0.4,0.6-0.8,0.8c-0.3,0.2-0.6,0.3-0.9,0.4
		c-0.3,0.1-0.7,0.1-1.1,0.1c-0.5,0-1-0.1-1.4-0.2c-0.4-0.1-0.8-0.3-1.1-0.6c-0.6-0.6-1-1.4-1-2.6h0.7c0,1.8,0.9,2.7,2.7,2.7
		c0.7,0,1.2-0.1,1.7-0.4c0.2-0.2,0.4-0.4,0.5-0.6c0.1-0.2,0.2-0.5,0.2-0.8c0-0.7-0.4-1.2-1.3-1.5h0c-0.1,0-0.1,0-0.2-0.1
		c-0.1,0-0.2,0-0.2-0.1c-0.4-0.1-0.7-0.2-1.1-0.3c-0.4-0.1-0.8-0.2-1.2-0.3c-1-0.4-1.5-1-1.5-2c0-0.8,0.3-1.4,1-1.8
		c0.5-0.3,1.2-0.5,2-0.5c2,0,3,1,3.1,2.9h-0.7c0-1.5-0.9-2.3-2.4-2.3c-0.7,0-1.2,0.1-1.6,0.4c-0.5,0.3-0.7,0.7-0.7,1.3
		c0,0.7,0.4,1.2,1.3,1.4h0c0.2,0.1,0.4,0.1,0.7,0.2c0.2,0.1,0.4,0.1,0.7,0.2c0.2,0.1,0.5,0.1,0.7,0.2c0.2,0.1,0.5,0.1,0.7,0.2
		C90.6,95.4,91.1,96.1,91.1,97.2z"/>
	<path id="XMLID_120_" class="st0" d="M115.1,90.7l-2.5,8.7h-0.6l-2.2-7.3c-0.4,1.2-0.7,2.4-1.1,3.7c-0.4,1.2-0.7,2.5-1.1,3.7h-0.6
		l-2.5-8.7h0.7l2.1,7.3c0.4-1.2,0.7-2.4,1.1-3.7c0.4-1.2,0.7-2.4,1.1-3.6h0.7l2.2,7.3c0.4-1.2,0.7-2.4,1-3.7c0.3-1.2,0.7-2.5,1-3.7
		H115.1z"/>
	<path id="XMLID_122_" class="st0" d="M126.8,99.4h-5.9v-8.7h5.8v0.7h-5.2v3.1h4.9v0.7h-4.9v3.5h5.2V99.4z"/>
	<path id="XMLID_124_" class="st0" d="M138.8,96.9c0,0.8-0.3,1.4-0.9,1.9c-0.5,0.4-1.2,0.6-2,0.6h-3.6v-8.7h3.7
		c0.7,0,1.3,0.2,1.8,0.6c0.5,0.4,0.7,1,0.7,1.7c0,0.3,0,0.5-0.1,0.8s-0.2,0.5-0.4,0.7c-0.1,0.1-0.2,0.2-0.3,0.2
		c-0.1,0.1-0.2,0.1-0.3,0.2c0.3,0.1,0.5,0.3,0.7,0.5h0C138.6,95.8,138.8,96.3,138.8,96.9z M137.8,93c0-0.2,0-0.5-0.1-0.7
		c-0.1-0.2-0.2-0.4-0.4-0.5c-0.4-0.3-0.8-0.4-1.3-0.4h-3v3.1h3c0.5,0,1-0.1,1.3-0.4C137.7,93.9,137.8,93.5,137.8,93z M138.1,96.9
		c0-0.6-0.2-1-0.6-1.3c-0.2-0.1-0.4-0.2-0.6-0.3s-0.5-0.1-0.8-0.1h-3v3.5h3c0.6,0,1.1-0.1,1.5-0.4C137.9,98,138.1,97.5,138.1,96.9z"
		/>
	<path id="XMLID_128_" class="st0" d="M159.3,90.7l-3.5,5v3.6h-0.7v-3.6c-0.3-0.4-0.6-0.8-0.8-1.2s-0.6-0.9-0.9-1.3
		c-0.3-0.4-0.6-0.9-0.9-1.3c-0.3-0.4-0.6-0.8-0.8-1.2h0.8l3,4.3c0.5-0.7,1-1.5,1.5-2.2c0.5-0.7,1-1.4,1.5-2.2H159.3z"/>
	<path id="XMLID_130_" class="st0" d="M179.4,99.4h-0.7l-1.1-2.7h-3.8c-0.2,0.4-0.4,0.9-0.6,1.4s-0.4,0.9-0.5,1.3h-0.8l3.5-8.7h0.6
		L179.4,99.4z M177.3,96c-0.1-0.4-0.3-0.7-0.4-1.1c-0.1-0.3-0.3-0.7-0.4-1c-0.1-0.3-0.3-0.7-0.4-1c-0.1-0.3-0.3-0.7-0.4-1.1
		c-0.3,0.7-0.6,1.4-0.8,2.1c-0.3,0.7-0.6,1.4-0.8,2.1H177.3z"/>
	<path id="XMLID_133_" class="st0" d="M191.2,93.2c0,1-0.4,1.7-1.2,2.1h0c-0.4,0.3-1,0.4-1.5,0.4h-2.8v3.7H185v-8.7h3.5
		c0.8,0,1.5,0.2,1.9,0.6C190.9,91.8,191.2,92.4,191.2,93.2z M190.5,93.2c0-1.2-0.7-1.8-2-1.8h-2.8V95h2.8c0.6,0,1.1-0.2,1.4-0.5
		C190.3,94.2,190.5,93.8,190.5,93.2z"/>
	<path id="XMLID_136_" class="st0" d="M202.9,93.2c0,1-0.4,1.7-1.2,2.1h0c-0.4,0.3-1,0.4-1.5,0.4h-2.8v3.7h-0.7v-8.7h3.5
		c0.8,0,1.5,0.2,1.9,0.6C202.6,91.8,202.9,92.4,202.9,93.2z M202.2,93.2c0-1.2-0.7-1.8-2-1.8h-2.8V95h2.8c0.6,0,1.1-0.2,1.4-0.5
		C202,94.2,202.2,93.8,202.2,93.2z"/>
	<path id="XMLID_139_" class="st0" d="M213.8,99.4h-5.4v-8.7h0.7v8h4.7V99.4z"/>
	<path id="XMLID_141_" class="st0" d="M219.8,99.4h-0.7v-8.7h0.7V99.4z"/>
	<path id="XMLID_143_" class="st0" d="M233.3,95.7c-0.1,0.6-0.2,1.2-0.4,1.6c-0.2,0.5-0.5,0.9-0.8,1.2c-0.7,0.7-1.6,1-2.6,1
		c-1.2,0-2.2-0.5-2.9-1.4c-0.7-0.8-1-1.8-1-3.1c0-1.3,0.3-2.4,1-3.2c0.8-0.9,1.8-1.4,3-1.4c0.9,0,1.6,0.3,2.3,0.8
		c0.8,0.6,1.2,1.4,1.2,2.4h-0.7c-0.1-0.8-0.4-1.4-0.9-1.8c-0.5-0.4-1.2-0.6-1.8-0.6c-1,0-1.8,0.4-2.5,1.2c-0.6,0.7-0.9,1.6-0.9,2.7
		c0,1,0.3,1.9,0.9,2.6c0.6,0.8,1.4,1.1,2.4,1.1c0.9,0,1.6-0.3,2.1-0.8c0.3-0.3,0.5-0.6,0.6-1s0.3-0.8,0.3-1.4H233.3z"/>
	<path id="XMLID_145_" class="st0" d="M246.2,99.4h-0.7l-1.1-2.7h-3.8c-0.2,0.4-0.4,0.9-0.6,1.4c-0.2,0.5-0.4,0.9-0.5,1.3h-0.8
		l3.5-8.7h0.6L246.2,99.4z M244.1,96c-0.1-0.4-0.3-0.7-0.4-1.1s-0.3-0.7-0.4-1c-0.1-0.3-0.3-0.7-0.4-1c-0.1-0.3-0.3-0.7-0.4-1.1
		c-0.3,0.7-0.6,1.4-0.8,2.1s-0.5,1.4-0.8,2.1H244.1z"/>
	<path id="XMLID_148_" class="st0" d="M259.4,95.7c-0.1,0.6-0.2,1.2-0.4,1.6c-0.2,0.5-0.5,0.9-0.8,1.2c-0.7,0.7-1.6,1-2.6,1
		c-1.2,0-2.2-0.5-2.9-1.4c-0.7-0.8-1-1.8-1-3.1c0-1.3,0.3-2.4,1-3.2c0.8-0.9,1.8-1.4,3-1.4c0.9,0,1.6,0.3,2.3,0.8
		c0.8,0.6,1.2,1.4,1.2,2.4h-0.7c-0.1-0.8-0.4-1.4-0.9-1.8c-0.5-0.4-1.2-0.6-1.8-0.6c-1,0-1.8,0.4-2.5,1.2c-0.6,0.7-0.9,1.6-0.9,2.7
		c0,1,0.3,1.9,0.9,2.6c0.6,0.8,1.4,1.1,2.4,1.1c0.9,0,1.6-0.3,2.1-0.8c0.3-0.3,0.5-0.6,0.6-1s0.3-0.8,0.3-1.4H259.4z"/>
	<path id="XMLID_150_" class="st0" d="M265.7,99.4h-0.7v-8.7h0.7V99.4z"/>
	<path id="XMLID_152_" class="st0" d="M279.5,95.1c0,1.3-0.3,2.3-1,3.1c-0.8,0.9-1.7,1.4-3,1.4c-1.2,0-2.2-0.5-3-1.4
		c-0.7-0.8-1-1.9-1-3.1c0-1.3,0.3-2.3,1-3.1c0.8-0.9,1.7-1.4,3-1.4c1.2,0,2.2,0.5,3,1.4C279.1,92.8,279.5,93.8,279.5,95.1z
		 M278.8,95.1c0-1.1-0.3-2-0.8-2.7c-0.6-0.8-1.4-1.1-2.4-1.1c-1,0-1.9,0.4-2.5,1.1c-0.6,0.7-0.8,1.6-0.8,2.7c0,1.1,0.3,2,0.8,2.7
		c0.6,0.8,1.4,1.1,2.5,1.1c1,0,1.8-0.4,2.4-1.1C278.5,97.1,278.8,96.2,278.8,95.1z"/>
	<path id="XMLID_155_" class="st0" d="M292,99.4h-0.7l-5.2-7.4v7.4h-0.7v-8.7h0.7l5.2,7.4v-7.4h0.7V99.4z"/>
</g>
<g id="XMLID_304_">
	<path id="XMLID_49_" class="st1" d="M22.8,83.3l-3.9-9h-7.3v9H10V62.9h8.3c4.2,0,6.4,1.8,6.4,5.5c0,2.7-1.4,4.6-4.1,5.5
		c0.6,1.5,1.3,3.1,2,4.7c0.7,1.6,1.4,3.2,2,4.6H22.8z M23.1,68.3c0-2.5-1.5-3.8-4.6-3.8h-6.9v8.1h6.6c1.4,0,2.6-0.4,3.5-1.1l0,0
		C22.6,70.8,23.1,69.7,23.1,68.3z"/>
	<path id="XMLID_52_" class="st1" d="M44.8,73.1c0,3-0.8,5.5-2.3,7.4c-1.8,2.2-4.1,3.2-7,3.2c-2.9,0-5.3-1.1-7-3.2
		c-1.5-1.9-2.3-4.4-2.3-7.4c0-3,0.8-5.4,2.3-7.4c1.8-2.2,4.1-3.2,7-3.2c2.9,0,5.2,1.1,7,3.2C44,67.6,44.8,70.1,44.8,73.1z
		 M43.2,73.1c0-2.6-0.6-4.7-1.9-6.3c-1.4-1.8-3.3-2.7-5.8-2.7c-2.4,0-4.4,0.9-5.8,2.7c-1.3,1.6-1.9,3.8-1.9,6.3s0.6,4.7,1.9,6.4
		c1.4,1.8,3.3,2.7,5.8,2.7c2.4,0,4.3-0.9,5.8-2.7C42.5,77.8,43.2,75.7,43.2,73.1z"/>
	<path id="XMLID_58_" class="st1" d="M64.5,74.6c-0.2,1.4-0.5,2.7-1,3.8c-0.5,1.1-1.1,2-1.8,2.8c-1.6,1.6-3.7,2.5-6.2,2.5
		c-2.8,0-5.1-1.1-6.8-3.2c-1.6-1.9-2.3-4.3-2.3-7.2c0-3,0.8-5.5,2.4-7.5c1.8-2.2,4.1-3.2,7.1-3.2c2,0,3.8,0.6,5.4,1.8
		c1.8,1.4,2.7,3.2,2.8,5.5h-1.6c-0.1-1.8-0.9-3.3-2.2-4.3c-1.3-0.9-2.7-1.4-4.3-1.4c-2.4,0-4.3,0.9-5.8,2.7
		c-1.4,1.7-2.1,3.9-2.1,6.4c0,2.4,0.7,4.5,2,6.2c1.4,1.8,3.2,2.7,5.6,2.7c2,0,3.7-0.7,5-2c0.6-0.6,1.1-1.4,1.5-2.3
		c0.4-0.9,0.7-2,0.8-3.2H64.5z"/>
	<path id="XMLID_61_" class="st1" d="M82.8,83.3h-2.1l-9.3-10.5c-0.7,0.6-1.3,1.1-1.9,1.7c-0.6,0.5-1.2,1.1-1.9,1.7v7.1H66V62.9h1.6
		V74c2.1-1.8,4.2-3.7,6.2-5.5c2.1-1.9,4.2-3.7,6.2-5.5h2.4l-9.9,8.8L82.8,83.3z"/>
	<path id="XMLID_63_" class="st1" d="M106.2,83.3h-1.8l-2.5-6.3h-9c-0.4,1-0.8,2.1-1.3,3.2c-0.5,1.1-0.9,2.2-1.2,3.2h-1.8l8.2-20.3
		h1.4L106.2,83.3z M101.3,75.3c-0.3-0.9-0.7-1.7-1-2.5s-0.6-1.6-0.9-2.3s-0.6-1.6-0.9-2.4c-0.3-0.8-0.6-1.7-1-2.6
		c-0.7,1.7-1.3,3.3-2,4.9c-0.6,1.6-1.3,3.2-2,5H101.3z"/>
	<path id="XMLID_66_" class="st1" d="M122.7,83.3h-1.6l-12.3-17.5v17.5h-1.6V62.9h1.6l12.3,17.5V62.9h1.6V83.3z"/>
	<path id="XMLID_68_" class="st1" d="M140.6,73.1c0,3-0.8,5.5-2.4,7.3c-1.7,1.9-4.1,2.9-7.1,2.9h-6.4V62.9h7.2c2.9,0,5.1,1,6.7,3
		C140,67.8,140.6,70.1,140.6,73.1z M139,73.1c0-2.6-0.6-4.7-1.7-6.2c-1.2-1.6-3-2.4-5.5-2.4h-5.5v17.1h4.9c1.2,0,2.3-0.2,3.3-0.6
		s1.8-1,2.5-1.8C138.4,77.7,139,75.6,139,73.1z"/>
	<path id="XMLID_71_" class="st1" d="M160.9,83.3l-3.9-9h-7.3v9h-1.6V62.9h8.3c4.2,0,6.4,1.8,6.4,5.5c0,2.7-1.4,4.6-4.1,5.5
		c0.6,1.5,1.3,3.1,2,4.7c0.7,1.6,1.4,3.2,2,4.6H160.9z M161.2,68.3c0-2.5-1.5-3.8-4.6-3.8h-6.9v8.1h6.6c1.4,0,2.6-0.4,3.5-1.1l0,0
		C160.7,70.8,161.2,69.7,161.2,68.3z"/>
	<path id="XMLID_74_" class="st1" d="M182.9,73.1c0,3-0.8,5.5-2.3,7.4c-1.8,2.2-4.1,3.2-7,3.2c-2.9,0-5.3-1.1-7-3.2
		c-1.5-1.9-2.3-4.4-2.3-7.4c0-3,0.8-5.4,2.3-7.4c1.8-2.2,4.1-3.2,7-3.2c2.9,0,5.2,1.1,7,3.2C182.1,67.6,182.9,70.1,182.9,73.1z
		 M181.3,73.1c0-2.6-0.6-4.7-1.9-6.3c-1.4-1.8-3.3-2.7-5.8-2.7c-2.4,0-4.4,0.9-5.8,2.7c-1.3,1.6-1.9,3.8-1.9,6.3s0.6,4.7,1.9,6.4
		c1.4,1.8,3.3,2.7,5.8,2.7c2.4,0,4.3-0.9,5.8-2.7C180.6,77.8,181.3,75.7,181.3,73.1z"/>
	<path id="XMLID_77_" class="st1" d="M197.5,83.3l-3.9-9h-7.2v9h-1.6V62.9h8.3c4.2,0,6.4,1.8,6.4,5.5c0,2.7-1.4,4.6-4.1,5.5
		c0.6,1.5,1.3,3.1,2,4.7c0.7,1.6,1.4,3.2,2,4.6H197.5z M197.8,68.3c0-2.5-1.5-3.8-4.6-3.8h-6.9v8.1h6.6c1.4,0,2.6-0.4,3.5-1.1l0,0
		C197.3,70.8,197.8,69.7,197.8,68.3z"/>
	<path id="XMLID_80_" class="st0" d="M221.9,78.3c0,1.8-0.8,3.2-2.3,4.2c-1.3,0.9-2.9,1.3-4.8,1.3c-2.4,0-4.3-0.6-5.7-1.7
		c-1.4-1.2-2.2-3.1-2.2-5.5h0.6c0,4.4,2.4,6.7,7.3,6.7c1.7,0,3.2-0.4,4.4-1.1c1.4-0.9,2.1-2.2,2.1-3.8c0-2.1-1.2-3.5-3.6-4.4
		c-2.2-0.6-4.4-1.1-6.7-1.7c-2.4-0.8-3.6-2.4-3.6-4.5c0-1.8,0.7-3.2,2.2-4.1c1.2-0.8,2.8-1.1,4.7-1.1c4.6,0,6.9,2.1,7.1,6.2h-0.6
		c-0.1-3.7-2.3-5.6-6.5-5.6c-1.8,0-3.2,0.3-4.3,1c-1.4,0.8-2,2-2,3.7c0,2,1.2,3.3,3.6,4.1c2.2,0.6,4.4,1.1,6.7,1.7
		C220.7,74.4,221.9,76,221.9,78.3z"/>
	<path id="XMLID_82_" class="st0" d="M237.7,63.5h-7.2v19.8h-0.6V63.5h-7.3v-0.6h15.1V63.5z"/>
	<path id="XMLID_84_" class="st0" d="M253.6,75.7c0,2.5-0.6,4.5-1.8,5.9c-1.3,1.5-3.1,2.2-5.6,2.2s-4.4-0.7-5.6-2.2
		c-1.2-1.4-1.8-3.3-1.8-5.9V62.9h0.6v12.8c0,5,2.3,7.5,6.8,7.5c4.6,0,6.8-2.5,6.8-7.5V62.9h0.6V75.7z"/>
	<path id="XMLID_86_" class="st0" d="M271.3,73.1c0,3.1-0.8,5.5-2.4,7.3c-1.7,1.9-4,2.8-7.1,2.8h-6.2V62.9h7.1c2.9,0,5.1,1,6.6,3
		C270.7,67.7,271.3,70.1,271.3,73.1z M270.8,73.1c0-2.9-0.6-5.2-1.9-6.9c-1.4-1.8-3.5-2.7-6.3-2.7h-6.3v19.2h5.8
		c2.8,0,5-0.9,6.5-2.8C270,78.2,270.8,75.9,270.8,73.1z"/>
	<path id="XMLID_89_" class="st0" d="M274,83.3h-0.6V62.9h0.6V83.3z"/>
	<path id="XMLID_91_" class="st0" d="M294.7,73.1c0,3-0.8,5.5-2.3,7.4c-1.7,2.1-4,3.2-6.9,3.2s-5.2-1.1-6.9-3.2
		c-1.6-2-2.3-4.5-2.3-7.4c0-3,0.8-5.5,2.3-7.4c1.7-2.1,4-3.2,6.9-3.2s5.2,1.1,6.9,3.2C293.9,67.6,294.7,70.1,294.7,73.1z
		 M294.1,73.1c0-2.8-0.7-5.2-2.2-7.1c-1.6-2-3.8-3-6.5-3c-2.8,0-4.9,1-6.5,3c-1.4,1.9-2.2,4.2-2.2,7.1c0,2.8,0.7,5.2,2.2,7.1
		c1.6,2,3.8,3,6.5,3c2.8,0,4.9-1,6.5-3C293.4,78.3,294.1,75.9,294.1,73.1z"/>
</g>
<g id="XMLID_251_">
	<path id="XMLID_378_" class="st0" d="M294.9,55.6l-2.1,5.5h-0.4l-2.1-5.5h0.4l1.9,4.8c0.3-0.8,0.6-1.6,0.9-2.4
		c0.3-0.8,0.6-1.6,0.9-2.4H294.9z"/>
	<path id="XMLID_380_" class="st0" d="M293.9,61.1h-0.4v-1h0.4V61.1z"/>
	<path id="XMLID_382_" class="st0" d="M298,59.6c0,0.2,0,0.5-0.1,0.6c-0.1,0.2-0.2,0.4-0.4,0.5c-0.3,0.3-0.7,0.4-1.2,0.4
		c-0.6,0-1-0.1-1.4-0.4c-0.2-0.2-0.3-0.3-0.4-0.6c-0.1-0.2-0.1-0.5-0.1-0.7c0,0,0-0.1,0-0.2c0-0.1,0-0.1,0-0.1h0.4l0,0.3
		c0,0.4,0.1,0.7,0.4,1c0.1,0.1,0.3,0.2,0.5,0.2c0.2,0.1,0.4,0.1,0.6,0.1c0.4,0,0.7-0.1,0.9-0.3c0.3-0.2,0.4-0.5,0.4-0.8
		c0-0.4-0.2-0.7-0.5-0.9c-0.1-0.1-0.3-0.1-0.5-0.1c-0.2,0-0.5,0-0.8,0v-0.4c0.6,0,1,0,1.2-0.1c0.3-0.1,0.5-0.4,0.5-0.8
		c0-0.1,0-0.3-0.1-0.4c-0.1-0.1-0.2-0.2-0.3-0.3c-0.2-0.1-0.5-0.2-0.9-0.2c-0.4,0-0.8,0.1-1,0.4c-0.2,0.2-0.4,0.6-0.4,1.1h-0.4
		c0-0.6,0.2-1.1,0.5-1.4c0.3-0.3,0.8-0.5,1.3-0.5c0.2,0,0.4,0,0.6,0.1c0.2,0.1,0.4,0.1,0.5,0.2c0.2,0.1,0.3,0.3,0.4,0.4
		c0.1,0.2,0.1,0.4,0.1,0.6c0,0.3-0.1,0.5-0.2,0.7c-0.1,0.2-0.3,0.4-0.5,0.5c0.2,0.1,0.4,0.3,0.6,0.5C298,59,298,59.3,298,59.6z"/>
</g>
</svg>
