<svg version="1.1"
	 xmlns="http://www.w3.org/2000/svg" xmlns:xlink="http://www.w3.org/1999/xlink" xmlns:a="http://ns.adobe.com/AdobeSVGViewerExtensions/3.0/"
	 x="0px" y="0px" width="360.1px" height="60.1px" viewBox="0 0 360.1 60.1" style="enable-background:new 0 0 360.1 60.1;"
	 xml:space="preserve" id="logo">  
  
  
  <circle stroke-width="4" cx="30" cy="29.8" r="28.3"/>
 <!--  <path id="circle" d="M30.1,60.1c-0.5,0-1,0-1.5,0C12,59.2-0.8,45.1,0,28.5l0,0C0.9,12,15-0.8,31.5,0c8,0.4,15.4,3.9,20.8,9.8
    s8.1,13.6,7.7,21.7C59.2,47.6,45.9,60.1,30.1,60.1z M3.2,28.7C2.5,43.5,13.9,56.1,28.7,56.9c14.8,0.7,27.4-10.7,28.2-25.5
    c0.4-7.2-2.1-14-6.9-19.4c-4.8-5.3-11.4-8.4-18.6-8.8C16.6,2.5,3.9,13.9,3.2,28.7L3.2,28.7z"/>
 -->
  <g id="robot">
    <path d="M48.6,26.3v-0.8c0-1.3-0.3-2.6-1-3.9c-0.3-0.7-0.8-1.3-1.6-2.1c-1.7-1.8-4.1-2.7-7.1-2.7H38H22h-0.9
      c-3,0-5.4,0.9-7.1,2.7c-0.8,0.7-1.3,1.4-1.6,2.1c-0.7,1.3-1,2.6-1,3.9v0.8c0,1.9,0.8,3.8,2.5,5.7c1.1,1,2.1,1.7,2.9,2
      c-2.2,2.4-3.3,5.5-3.3,9.4h5.3V43c0-2.9,1-5.3,3.4-7c1.3-0.9,3.2-1.3,5.3-1.3h4.8c2.2,0,3.8,0.4,5.1,1.3c2.3,1.7,3.6,4.1,3.6,7
      v0.4h5.3c0-3.9-1.1-7-3.3-9.4c0.9-0.3,1.9-1,2.9-2C47.8,30.1,48.6,28.2,48.6,26.3z M43.2,26.7c-0.7,1.9-2,2.8-3.9,2.8H38H22h-1.2
      c-1.9,0-3.2-0.9-3.9-2.8c-0.1-0.4-0.1-0.7-0.1-1c0-1,0.4-2,1.3-2.8c0.7-0.6,1.5-0.9,2.4-0.9c0,0,0.3-0.1,0.8-0.1h16.9l0,0H39
      c0.5,0,0.8,0,0.8,0.1c0.8,0,1.6,0.3,2.4,0.9c0.9,0.8,1.3,1.8,1.3,2.8C43.3,26,43.3,26.3,43.2,26.7z"/>
    
    <g id="XMLID_6_">
      <path d="M20.1,24.6c-1.1-0.1-1.9,0-1.9,1.2s0.7,1.3,1.9,1.2c1.1,0.1,1.9,0,1.9-1.2C22,24.5,21.3,24.5,20.1,24.6z"
        />
    </g>
    
    <g id="XMLID_4_">
      <path d="M40,24.6c-1.1-0.1-1.9,0-1.9,1.2s0.7,1.3,1.9,1.2c1.1,0.1,1.9,0,1.9-1.2C41.9,24.5,41.2,24.5,40,24.6z"/>
    </g>
  </g>

<g id="rockandror-text" style="mask: url(#fake-mask-name)">
	<path d="M89.8,33.6l-3.9-9h-7.2v9H77V13.3h8.3c4.2,0,6.3,1.8,6.3,5.5c0,2.7-1.4,4.6-4.1,5.5c0.6,1.5,1.3,3.1,2,4.7
		c0.7,1.6,1.4,3.2,2,4.6H89.8z M90.1,18.7c0-2.5-1.5-3.8-4.6-3.8h-6.8v8.1h6.6c1.4,0,2.5-0.4,3.5-1.1l0,0
		C89.6,21.1,90.1,20.1,90.1,18.7z"/>
	<path d="M111.7,23.4c0,3-0.8,5.5-2.3,7.4c-1.8,2.2-4.1,3.2-7,3.2c-2.9,0-5.2-1.1-7-3.2c-1.5-1.9-2.3-4.4-2.3-7.4
		c0-3,0.8-5.4,2.3-7.4c1.8-2.2,4.1-3.2,7-3.2c2.9,0,5.2,1.1,7,3.2C110.9,18,111.7,20.5,111.7,23.4z M110.1,23.4
		c0-2.6-0.6-4.7-1.9-6.3c-1.4-1.8-3.3-2.7-5.7-2.7c-2.4,0-4.3,0.9-5.8,2.7c-1.3,1.6-1.9,3.8-1.9,6.3s0.6,4.7,1.9,6.4
		c1.4,1.8,3.3,2.7,5.8,2.7c2.4,0,4.3-0.9,5.7-2.7C109.4,28.1,110.1,26,110.1,23.4z"/>
	<path d="M131.2,25c-0.2,1.4-0.5,2.7-1,3.8c-0.5,1.1-1.1,2-1.8,2.8c-1.6,1.6-3.7,2.5-6.1,2.5c-2.8,0-5.1-1.1-6.8-3.2
		c-1.6-1.9-2.3-4.3-2.3-7.2c0-3,0.8-5.5,2.4-7.5c1.8-2.2,4.1-3.2,7.1-3.2c2,0,3.8,0.6,5.3,1.8c1.8,1.4,2.7,3.2,2.8,5.5h-1.6
		c-0.1-1.8-0.9-3.3-2.2-4.3c-1.3-0.9-2.7-1.4-4.3-1.4c-2.4,0-4.3,0.9-5.8,2.7c-1.4,1.7-2,3.9-2,6.4c0,2.4,0.7,4.5,2,6.2
		c1.4,1.8,3.2,2.7,5.5,2.7c2,0,3.7-0.7,5-2c0.6-0.6,1.1-1.4,1.5-2.3c0.4-0.9,0.7-2,0.8-3.2H131.2z"/>
	<path d="M149.5,33.6h-2.1l-9.2-10.5c-0.7,0.6-1.3,1.1-1.9,1.7c-0.6,0.5-1.2,1.1-1.9,1.7v7.1h-1.6V13.3h1.6v11.1
		c2.1-1.8,4.1-3.7,6.2-5.5c2.1-1.9,4.2-3.7,6.2-5.5h2.4l-9.8,8.8L149.5,33.6z"/>
	<path d="M172.7,33.6H171l-2.5-6.3h-8.9c-0.4,1-0.8,2.1-1.3,3.2c-0.4,1.1-0.9,2.2-1.2,3.2h-1.8l8.1-20.3h1.4L172.7,33.6
		z M167.9,25.7c-0.3-0.9-0.7-1.7-1-2.5s-0.6-1.6-0.9-2.3c-0.3-0.8-0.6-1.6-0.9-2.4c-0.3-0.8-0.6-1.7-1-2.6c-0.7,1.7-1.3,3.3-1.9,4.9
		c-0.6,1.6-1.3,3.2-2,5H167.9z"/>
	<path d="M189.2,33.6h-1.6l-12.2-17.5v17.5h-1.6V13.3h1.6l12.2,17.5V13.3h1.6V33.6z"/>
	<path d="M207,23.4c0,3-0.8,5.5-2.4,7.3c-1.7,1.9-4.1,2.9-7,2.9h-6.4V13.3h7.2c2.9,0,5.1,1,6.6,3
		C206.3,18.1,207,20.5,207,23.4z M205.4,23.4c0-2.6-0.6-4.7-1.7-6.2c-1.2-1.6-3-2.4-5.5-2.4h-5.4V32h4.9c1.2,0,2.3-0.2,3.3-0.6
		c1-0.4,1.8-1,2.5-1.8C204.7,28,205.4,26,205.4,23.4z"/>
	<path d="M227.1,33.6l-3.9-9H216v9h-1.6V13.3h8.3c4.2,0,6.3,1.8,6.3,5.5c0,2.7-1.4,4.6-4.1,5.5c0.6,1.5,1.3,3.1,2,4.7
		c0.7,1.6,1.4,3.2,2,4.6H227.1z M227.4,18.7c0-2.5-1.5-3.8-4.6-3.8H216v8.1h6.6c1.4,0,2.5-0.4,3.5-1.1l0,0
		C226.9,21.1,227.4,20.1,227.4,18.7z"/>
	<path d="M249,23.4c0,3-0.8,5.5-2.3,7.4c-1.8,2.2-4.1,3.2-7,3.2c-2.9,0-5.2-1.1-7-3.2c-1.5-1.9-2.3-4.4-2.3-7.4
		c0-3,0.8-5.4,2.3-7.4c1.8-2.2,4.1-3.2,7-3.2c2.9,0,5.2,1.1,7,3.2C248.2,18,249,20.5,249,23.4z M247.4,23.4c0-2.6-0.6-4.7-1.9-6.3
		c-1.4-1.8-3.3-2.7-5.7-2.7c-2.4,0-4.3,0.9-5.8,2.7c-1.3,1.6-1.9,3.8-1.9,6.3s0.6,4.7,1.9,6.4c1.4,1.8,3.3,2.7,5.8,2.7
		c2.4,0,4.3-0.9,5.7-2.7C246.7,28.1,247.4,26,247.4,23.4z"/>
	<path d="M263.5,33.6l-3.9-9h-7.2v9h-1.6V13.3h8.3c4.2,0,6.3,1.8,6.3,5.5c0,2.7-1.4,4.6-4.1,5.5c0.6,1.5,1.3,3.1,2,4.7
		c0.7,1.6,1.4,3.2,2,4.6H263.5z M263.8,18.7c0-2.5-1.5-3.8-4.6-3.8h-6.8v8.1h6.6c1.4,0,2.5-0.4,3.5-1.1l0,0
		C263.3,21.1,263.8,20.1,263.8,18.7z"/>
	<path d="M287.7,28.3c0,0.9-0.2,1.8-0.6,2.5c-0.4,0.7-1,1.4-1.8,1.9c-0.7,0.4-1.4,0.7-2.2,1c-0.8,0.2-1.7,0.3-2.6,0.3
		c-1.2,0-2.3-0.2-3.3-0.5s-1.8-0.7-2.5-1.3c-1.5-1.3-2.2-3.3-2.2-6.1h1.6c0,4.2,2.1,6.3,6.4,6.3c1.5,0,2.8-0.3,3.9-1
		c0.5-0.4,1-0.8,1.3-1.4c0.3-0.5,0.5-1.1,0.5-1.8c0-1.7-1-2.9-3-3.6h0c-0.2,0-0.3-0.1-0.5-0.1c-0.2-0.1-0.4-0.1-0.5-0.1
		c-0.9-0.2-1.7-0.5-2.7-0.7s-1.8-0.5-2.7-0.7c-2.4-0.9-3.6-2.4-3.6-4.7c0-1.9,0.8-3.3,2.3-4.3c1.2-0.8,2.8-1.2,4.7-1.2
		c4.7,0,7.1,2.3,7.3,6.9h-1.6c-0.1-3.5-2-5.3-5.7-5.3c-1.6,0-2.8,0.3-3.8,0.9c-1.1,0.7-1.7,1.7-1.7,3c0,1.6,1,2.7,3,3.4h0
		c0.5,0.2,1,0.3,1.6,0.4c0.5,0.1,1,0.3,1.6,0.4c0.5,0.1,1.1,0.3,1.6,0.4c0.6,0.1,1.1,0.3,1.6,0.4C286.5,24.2,287.7,25.9,287.7,28.3z
		"/>
	<path d="M303.5,14.9h-6.8v18.7h-1.6V14.9h-6.8v-1.6h15.3V14.9z"/>
	<path d="M319.3,25.9c0,1.3-0.1,2.4-0.4,3.4c-0.3,1-0.7,1.8-1.4,2.5c-1.3,1.5-3.2,2.3-5.7,2.3c-2.5,0-4.4-0.8-5.7-2.3
		c-1.2-1.4-1.8-3.4-1.8-5.9V13.3h1.6v12.6c0,4.4,2,6.6,5.9,6.6c3.9,0,5.9-2.2,5.9-6.6V13.3h1.6V25.9z"/>
	<path d="M336.9,23.4c0,3-0.8,5.5-2.4,7.3c-1.7,1.9-4.1,2.9-7,2.9h-6.4V13.3h7.2c2.9,0,5.1,1,6.6,3
		C336.3,18.1,336.9,20.5,336.9,23.4z M335.3,23.4c0-2.6-0.6-4.7-1.7-6.2c-1.2-1.6-3-2.4-5.5-2.4h-5.4V32h4.9c1.2,0,2.3-0.2,3.3-0.6
		c1-0.4,1.8-1,2.5-1.8C334.7,28,335.3,26,335.3,23.4z"/>
	<path d="M340,33.6h-1.6V13.3h1.6V33.6z"/>
	<path d="M360.1,23.4c0,3-0.8,5.5-2.3,7.4c-1.8,2.2-4.1,3.2-7,3.2c-2.9,0-5.2-1.1-7-3.2c-1.5-1.9-2.3-4.4-2.3-7.4
		c0-3,0.8-5.4,2.3-7.4c1.8-2.2,4.1-3.2,7-3.2c2.9,0,5.2,1.1,7,3.2C359.4,18,360.1,20.5,360.1,23.4z M358.5,23.4
		c0-2.6-0.6-4.7-1.9-6.3c-1.4-1.8-3.3-2.7-5.7-2.7c-2.4,0-4.3,0.9-5.8,2.7c-1.3,1.6-1.9,3.8-1.9,6.3s0.6,4.7,1.9,6.4
		c1.4,1.8,3.3,2.7,5.8,2.7c2.4,0,4.3-0.9,5.7-2.7C357.9,28.1,358.5,26,358.5,23.4z"/>

   <rect id="fake-mask-name" fill="white" x="70.4" y="7.7"  width="293" height="28"/> 
</g>

<g id="slogan">
  <path d="M84.8,44.7c-0.1,0.6-0.2,1.2-0.4,1.6c-0.2,0.5-0.5,0.9-0.8,1.2c-0.7,0.7-1.6,1-2.6,1
    c-1.2,0-2.2-0.5-2.9-1.4c-0.7-0.8-1-1.8-1-3.1s0.3-2.4,1-3.2c0.8-0.9,1.8-1.4,3-1.4c0.9,0,1.6,0.3,2.3,0.8c0.8,0.6,1.2,1.4,1.2,2.4
    h-0.7c-0.1-0.8-0.4-1.4-0.9-1.8c-0.5-0.4-1.2-0.6-1.8-0.6c-1,0-1.8,0.4-2.5,1.2c-0.6,0.7-0.9,1.6-0.9,2.7c0,1,0.3,1.9,0.9,2.6
    c0.6,0.8,1.4,1.1,2.4,1.1c0.9,0,1.6-0.3,2.1-0.8c0.3-0.3,0.5-0.6,0.6-1s0.3-0.8,0.3-1.4h0.7V44.7z"/>
  <path d="M95.5,48.4l-1.7-3.8h-3.1v3.8H90v-8.7h3.5c1.8,0,2.7,0.8,2.7,2.3c0,1.2-0.6,2-1.8,2.4
    c0.3,0.6,0.6,1.3,0.9,2s0.6,1.4,0.9,2H95.5z M95.7,42c0-1.1-0.7-1.6-2-1.6h-2.9v3.4h2.8c0.6,0,1.1-0.2,1.5-0.5l0,0
    C95.5,43.1,95.7,42.6,95.7,42z"/>
  <path d="M107.6,48.4h-5.9v-8.7h5.8v0.7h-5.2v3.1h4.9v0.7h-4.9v3.5h5.2L107.6,48.4L107.6,48.4z"/>
  <path d="M119.6,48.4h-0.7l-1.1-2.7H114c-0.2,0.4-0.4,0.9-0.6,1.4s-0.4,0.9-0.5,1.3h-0.8l3.5-8.7h0.6L119.6,48.4z
     M117.6,45c-0.1-0.4-0.3-0.7-0.4-1.1c-0.1-0.3-0.3-0.7-0.4-1s-0.3-0.7-0.4-1s-0.3-0.7-0.4-1.1c-0.3,0.7-0.6,1.4-0.8,2.1
    c-0.3,0.7-0.5,1.4-0.8,2.1H117.6z"/>
  <path d="M132.8,48.4h-0.7v-7.1c-0.5,1.2-1,2.4-1.5,3.5s-1,2.4-1.5,3.5h-0.6l-3.1-7v7h-0.7v-8.7h0.7l3.3,7.6
    c0.5-1.2,1.1-2.5,1.7-3.8c0.6-1.3,1.1-2.5,1.6-3.8h0.7v8.8H132.8z"/>
  <path d="M146.2,44.1c0,1.3-0.3,2.3-1,3.1c-0.8,0.9-1.7,1.4-3,1.4c-1.2,0-2.2-0.5-3-1.4c-0.7-0.8-1-1.9-1-3.1
    c0-1.3,0.3-2.3,1-3.1c0.8-0.9,1.7-1.4,3-1.4c1.2,0,2.2,0.5,3,1.4C145.9,41.7,146.2,42.8,146.2,44.1z M145.5,44.1
    c0-1.1-0.3-2-0.8-2.7c-0.6-0.8-1.4-1.1-2.4-1.1s-1.9,0.4-2.5,1.1c-0.6,0.7-0.8,1.6-0.8,2.7c0,1.1,0.3,2,0.8,2.7
    c0.6,0.8,1.4,1.1,2.5,1.1c1,0,1.8-0.4,2.4-1.1C145.3,46.1,145.5,45.2,145.5,44.1z"/>
  <path d="M158,46.1c0,0.4-0.1,0.8-0.3,1.1s-0.4,0.6-0.8,0.8c-0.3,0.2-0.6,0.3-0.9,0.4c-0.3,0.1-0.7,0.1-1.1,0.1
    c-0.5,0-1-0.1-1.4-0.2c-0.4-0.1-0.8-0.3-1.1-0.6c-0.6-0.6-1-1.4-1-2.6h0.7c0,1.8,0.9,2.7,2.7,2.7c0.7,0,1.2-0.1,1.7-0.4
    c0.2-0.2,0.4-0.4,0.5-0.6c0.1-0.2,0.2-0.5,0.2-0.8c0-0.7-0.4-1.2-1.3-1.5l0,0c-0.1,0-0.1,0-0.2-0.1s-0.2,0-0.2-0.1
    c-0.4-0.1-0.7-0.2-1.1-0.3c-0.4-0.1-0.8-0.2-1.2-0.3c-1-0.4-1.5-1-1.5-2c0-0.8,0.3-1.4,1-1.8c0.5-0.3,1.2-0.5,2-0.5
    c2,0,3,1,3.1,2.9h-0.7c0-1.5-0.9-2.3-2.4-2.3c-0.7,0-1.2,0.1-1.6,0.4c-0.5,0.3-0.7,0.7-0.7,1.3c0,0.7,0.4,1.2,1.3,1.4l0,0
    c0.2,0.1,0.4,0.1,0.7,0.2c0.2,0.1,0.4,0.1,0.7,0.2c0.2,0.1,0.5,0.1,0.7,0.2s0.5,0.1,0.7,0.2C157.5,44.4,158,45.1,158,46.1z"/>
  <path d="M180.9,39.7l-2.5,8.7h-0.6l-2.2-7.3c-0.4,1.2-0.7,2.4-1.1,3.7c-0.4,1.2-0.7,2.5-1.1,3.7h-0.6l-2.5-8.7h0.7
    l2.1,7.3c0.4-1.2,0.7-2.4,1.1-3.7c0.4-1.2,0.7-2.4,1.1-3.6h0.7l2.2,7.3c0.4-1.2,0.7-2.4,1-3.7c0.3-1.2,0.7-2.5,1-3.7H180.9z"/>
  <path d="M192.2,48.4h-5.9v-8.7h5.8v0.7H187v3.1h4.9v0.7H187v3.5h5.2V48.4z"/>
  <path d="M203.7,45.9c0,0.8-0.3,1.4-0.9,1.9c-0.5,0.4-1.2,0.6-2,0.6h-3.6v-8.7h3.7c0.7,0,1.3,0.2,1.8,0.6
    c0.5,0.4,0.7,1,0.7,1.7c0,0.3,0,0.5-0.1,0.8s-0.2,0.5-0.4,0.7c-0.1,0.1-0.2,0.2-0.3,0.2c-0.1,0.1-0.2,0.1-0.3,0.2
    c0.3,0.1,0.5,0.3,0.7,0.5l0,0C203.5,44.8,203.7,45.3,203.7,45.9z M202.7,42c0-0.2,0-0.5-0.1-0.7s-0.2-0.4-0.4-0.5
    c-0.4-0.3-0.8-0.4-1.3-0.4h-3v3.1h3c0.5,0,1-0.1,1.3-0.4C202.6,42.9,202.7,42.5,202.7,42z M203,45.9c0-0.6-0.2-1-0.6-1.3
    c-0.2-0.1-0.4-0.2-0.6-0.3c-0.2-0.1-0.5-0.1-0.8-0.1h-3v3.5h3c0.6,0,1.1-0.1,1.5-0.4C202.8,47,203,46.5,203,45.9z"/>
  <path d="M223.3,39.7l-3.5,5v3.6h-0.7v-3.6c-0.3-0.4-0.6-0.8-0.8-1.2c-0.3-0.4-0.6-0.9-0.9-1.3s-0.6-0.9-0.9-1.3
    c-0.3-0.4-0.6-0.8-0.8-1.2h0.8l3,4.3c0.5-0.7,1-1.5,1.5-2.2s1-1.4,1.5-2.2h0.8V39.7z"/>
  <path d="M242.4,48.4h-0.7l-1.1-2.7h-3.8c-0.2,0.4-0.4,0.9-0.6,1.4c-0.2,0.5-0.4,0.9-0.5,1.3h-0.8l3.5-8.7h0.6
    L242.4,48.4z M240.3,45c-0.1-0.4-0.3-0.7-0.4-1.1c-0.1-0.3-0.3-0.7-0.4-1s-0.3-0.7-0.4-1c-0.1-0.3-0.3-0.7-0.4-1.1
    c-0.3,0.7-0.6,1.4-0.8,2.1s-0.5,1.4-0.8,2.1H240.3z"/>
  <path d="M253.7,42.2c0,1-0.4,1.7-1.2,2.1l0,0c-0.4,0.3-1,0.4-1.5,0.4h-2.8v3.7h-0.7v-8.7h3.5c0.8,0,1.5,0.2,1.9,0.6
    C253.4,40.8,253.7,41.4,253.7,42.2z M253,42.2c0-1.2-0.7-1.8-2-1.8h-2.8V44h2.8c0.6,0,1.1-0.2,1.4-0.5
    C252.8,43.2,253,42.8,253,42.2z"/>
  <path d="M264.1,48.4h-5.4v-8.7h0.7v8h4.7L264.1,48.4L264.1,48.4z"/>
  <path d="M269.7,48.4H269v-8.7h0.7V48.4z"/>
  <path d="M282.7,44.7c-0.1,0.6-0.2,1.2-0.4,1.6c-0.2,0.5-0.5,0.9-0.8,1.2c-0.7,0.7-1.6,1-2.6,1
    c-1.2,0-2.2-0.5-2.9-1.4c-0.7-0.8-1-1.8-1-3.1s0.3-2.4,1-3.2c0.8-0.9,1.8-1.4,3-1.4c0.9,0,1.6,0.3,2.3,0.8c0.8,0.6,1.2,1.4,1.2,2.4
    h-0.7c-0.1-0.8-0.4-1.4-0.9-1.8c-0.5-0.4-1.2-0.6-1.8-0.6c-1,0-1.8,0.4-2.5,1.2c-0.6,0.7-0.9,1.6-0.9,2.7c0,1,0.3,1.9,0.9,2.6
    c0.6,0.8,1.4,1.1,2.4,1.1c0.9,0,1.6-0.3,2.1-0.8c0.3-0.3,0.5-0.6,0.6-1s0.3-0.8,0.3-1.4h0.7V44.7z"/>
  <path d="M295.1,48.4h-0.7l-1.1-2.7h-3.8c-0.2,0.4-0.4,0.9-0.6,1.4s-0.4,0.9-0.5,1.3h-0.8l3.5-8.7h0.6L295.1,48.4z
     M293,45c-0.1-0.4-0.3-0.7-0.4-1.1c-0.1-0.3-0.3-0.7-0.4-1s-0.3-0.7-0.4-1s-0.3-0.7-0.4-1.1c-0.3,0.7-0.6,1.4-0.8,2.1
    c-0.3,0.7-0.5,1.4-0.8,2.1H293z"/>
  <path d="M307.8,44.7c-0.1,0.6-0.2,1.2-0.4,1.6c-0.2,0.5-0.5,0.9-0.8,1.2c-0.7,0.7-1.6,1-2.6,1
    c-1.2,0-2.2-0.5-2.9-1.4c-0.7-0.8-1-1.8-1-3.1s0.3-2.4,1-3.2c0.8-0.9,1.8-1.4,3-1.4c0.9,0,1.6,0.3,2.3,0.8c0.8,0.6,1.2,1.4,1.2,2.4
    h-0.7c-0.1-0.8-0.4-1.4-0.9-1.8c-0.5-0.4-1.2-0.6-1.8-0.6c-1,0-1.8,0.4-2.5,1.2c-0.6,0.7-0.9,1.6-0.9,2.7c0,1,0.3,1.9,0.9,2.6
    c0.6,0.8,1.4,1.1,2.4,1.1c0.9,0,1.6-0.3,2.1-0.8c0.3-0.3,0.5-0.6,0.6-1s0.3-0.8,0.3-1.4h0.7V44.7z"/>
  <path d="M313.7,48.4H313v-8.7h0.7V48.4z"/>
  <path d="M326.9,44.1c0,1.3-0.3,2.3-1,3.1c-0.8,0.9-1.7,1.4-3,1.4c-1.2,0-2.2-0.5-3-1.4c-0.7-0.8-1-1.9-1-3.1
    c0-1.3,0.3-2.3,1-3.1c0.8-0.9,1.7-1.4,3-1.4c1.2,0,2.2,0.5,3,1.4C326.6,41.7,326.9,42.8,326.9,44.1z M326.2,44.1
    c0-1.1-0.3-2-0.8-2.7c-0.6-0.8-1.4-1.1-2.4-1.1s-1.9,0.4-2.5,1.1c-0.6,0.7-0.8,1.6-0.8,2.7c0,1.1,0.3,2,0.8,2.7
    c0.6,0.8,1.4,1.1,2.5,1.1c1,0,1.8-0.4,2.4-1.1C326,46.1,326.2,45.2,326.2,44.1z"/>
  <path d="M338.9,48.4h-0.7L333,41v7.4h-0.7v-8.7h0.7l5.2,7.4v-7.4h0.7L338.9,48.4L338.9,48.4z"/>
  <path d="M350.3,48.4h-5.9v-8.7h5.8v0.7H345v3.1h4.9v0.7H345v3.5h5.2v0.7H350.3z"/>
  <path d="M360.1,46.1c0,0.4-0.1,0.8-0.3,1.1c-0.2,0.3-0.4,0.6-0.8,0.8c-0.3,0.2-0.6,0.3-0.9,0.4
    c-0.3,0.1-0.7,0.1-1.1,0.1c-0.5,0-1-0.1-1.4-0.2c-0.4-0.1-0.8-0.3-1.1-0.6c-0.6-0.6-1-1.4-1-2.6h0.7c0,1.8,0.9,2.7,2.7,2.7
    c0.7,0,1.2-0.1,1.7-0.4c0.2-0.2,0.4-0.4,0.5-0.6c0.1-0.2,0.2-0.5,0.2-0.8c0-0.7-0.4-1.2-1.3-1.5l0,0c-0.1,0-0.1,0-0.2-0.1
    c-0.1,0-0.2,0-0.2-0.1c-0.4-0.1-0.7-0.2-1.1-0.3s-0.8-0.2-1.2-0.3c-1-0.4-1.5-1-1.5-2c0-0.8,0.3-1.4,1-1.8c0.5-0.3,1.2-0.5,2-0.5
    c2,0,3,1,3.1,2.9h-0.7c0-1.5-0.9-2.3-2.4-2.3c-0.7,0-1.2,0.1-1.6,0.4c-0.5,0.3-0.7,0.7-0.7,1.3c0,0.7,0.4,1.2,1.3,1.4l0,0
    c0.2,0.1,0.4,0.1,0.7,0.2s0.4,0.1,0.7,0.2c0.2,0.1,0.5,0.1,0.7,0.2s0.5,0.1,0.7,0.2C359.6,44.4,360.1,45.1,360.1,46.1z"/>
    <rect id="fake-mask-slogan" x="70.6" y="38.8" fill="white" width="292" height="12"/>
</g>

</svg>
