<?xml version="1.0" encoding="UTF-8" standalone="no"?>
<svg
   xmlns:dc="http://purl.org/dc/elements/1.1/"
   xmlns:cc="http://creativecommons.org/ns#"
   xmlns:rdf="http://www.w3.org/1999/02/22-rdf-syntax-ns#"
   xmlns:svg="http://www.w3.org/2000/svg"
   xmlns="http://www.w3.org/2000/svg"
   xmlns:sodipodi="http://sodipodi.sourceforge.net/DTD/sodipodi-0.dtd"
   xmlns:inkscape="http://www.inkscape.org/namespaces/inkscape"
   inkscape:version="1.0 (4035a4f, 2020-05-01)"
   sodipodi:docname="logo-static.svg"
   id="logo"
   xml:space="preserve"
   viewBox="0 0 360.1 60.1"
   height="51px"
   width="300px"
   y="0px"
   x="0px"
   version="1.1"><metadata
   id="metadata446"><rdf:RDF><cc:Work
       rdf:about=""><dc:format>image/svg+xml</dc:format><dc:type
         rdf:resource="http://purl.org/dc/dcmitype/StillImage" /><dc:title></dc:title></cc:Work></rdf:RDF></metadata><defs
   id="defs444" /><sodipodi:namedview
   inkscape:current-layer="logo"
   inkscape:window-maximized="1"
   inkscape:window-y="23"
   inkscape:window-x="0"
   inkscape:cy="25.5"
   inkscape:cx="97.308394"
   inkscape:zoom="3.6533333"
   inkscape:lockguides="false"
   inkscape:guide-bbox="true"
   showguides="true"
   showgrid="false"
   id="namedview442"
   inkscape:window-height="943"
   inkscape:window-width="1680"
   inkscape:pageshadow="2"
   inkscape:pageopacity="0"
   guidetolerance="10"
   gridtolerance="10"
   objecttolerance="10"
   borderopacity="1"
   bordercolor="#666666"
   pagecolor="#ffffff"><sodipodi:guide
     inkscape:locked="false"
     id="guide448"
     orientation="1,0"
     position="64.726004,121.38703" /></sodipodi:namedview>


  <circle
   style="fill-opacity:1;fill:none;stroke:#000000;stroke-opacity:1"
   r="28.299999"
   id="circle348"
   cy="29.799999"
   cx="30"
   stroke-width="4" />
 <!--  <path id="circle" d="M30.1,60.1c-0.5,0-1,0-1.5,0C12,59.2-0.8,45.1,0,28.5l0,0C0.9,12,15-0.8,31.5,0c8,0.4,15.4,3.9,20.8,9.8
    s8.1,13.6,7.7,21.7C59.2,47.6,45.9,60.1,30.1,60.1z M3.2,28.7C2.5,43.5,13.9,56.1,28.7,56.9c14.8,0.7,27.4-10.7,28.2-25.5
    c0.4-7.2-2.1-14-6.9-19.4c-4.8-5.3-11.4-8.4-18.6-8.8C16.6,2.5,3.9,13.9,3.2,28.7L3.2,28.7z"/>
 -->
  <g
   id="robot">
    <path
   id="path350"
   d="m 48.6,26.3 v -0.8 c 0,-1.3 -0.3,-2.6 -1,-3.9 C 47.3,20.9 46.8,20.3 46,19.5 44.3,17.7 41.9,16.8 38.9,16.8 H 38 22 21.1 c -3,0 -5.4,0.9 -7.1,2.7 -0.8,0.7 -1.3,1.4 -1.6,2.1 -0.7,1.3 -1,2.6 -1,3.9 v 0.8 c 0,1.9 0.8,3.8 2.5,5.7 1.1,1 2.1,1.7 2.9,2 -2.2,2.4 -3.3,5.5 -3.3,9.4 h 5.3 V 43 c 0,-2.9 1,-5.3 3.4,-7 1.3,-0.9 3.2,-1.3 5.3,-1.3 h 4.8 c 2.2,0 3.8,0.4 5.1,1.3 2.3,1.7 3.6,4.1 3.6,7 v 0.4 h 5.3 c 0,-3.9 -1.1,-7 -3.3,-9.4 0.9,-0.3 1.9,-1 2.9,-2 1.9,-1.9 2.7,-3.8 2.7,-5.7 z m -5.4,0.4 c -0.7,1.9 -2,2.8 -3.9,2.8 H 38 22 20.8 c -1.9,0 -3.2,-0.9 -3.9,-2.8 -0.1,-0.4 -0.1,-0.7 -0.1,-1 0,-1 0.4,-2 1.3,-2.8 0.7,-0.6 1.5,-0.9 2.4,-0.9 0,0 0.3,-0.1 0.8,-0.1 h 16.9 v 0 H 39 c 0.5,0 0.8,0 0.8,0.1 0.8,0 1.6,0.3 2.4,0.9 0.9,0.8 1.3,1.8 1.3,2.8 -0.2,0.3 -0.2,0.6 -0.3,1 z" />

    <g
   id="XMLID_6_">
      <path
   id="path352"
   d="m 20.1,24.6 c -1.1,-0.1 -1.9,0 -1.9,1.2 0,1.2 0.7,1.3 1.9,1.2 1.1,0.1 1.9,0 1.9,-1.2 0,-1.3 -0.7,-1.3 -1.9,-1.2 z" />
    </g>

    <g
   id="XMLID_4_">
      <path
   id="path355"
   d="m 40,24.6 c -1.1,-0.1 -1.9,0 -1.9,1.2 0,1.2 0.7,1.3 1.9,1.2 1.1,0.1 1.9,0 1.9,-1.2 0,-1.3 -0.7,-1.3 -1.9,-1.2 z" />
    </g>
  </g>

<g
   transform="translate(-9.4274353)"
   id="rockandror-text">
	<path
   id="path359"
   d="m 89.8,33.6 -3.9,-9 h -7.2 v 9 H 77 V 13.3 h 8.3 c 4.2,0 6.3,1.8 6.3,5.5 0,2.7 -1.4,4.6 -4.1,5.5 0.6,1.5 1.3,3.1 2,4.7 0.7,1.6 1.4,3.2 2,4.6 z m 0.3,-14.9 c 0,-2.5 -1.5,-3.8 -4.6,-3.8 H 78.7 V 23 h 6.6 c 1.4,0 2.5,-0.4 3.5,-1.1 v 0 c 0.8,-0.8 1.3,-1.8 1.3,-3.2 z" />
	<path
   id="path361"
   d="m 111.7,23.4 c 0,3 -0.8,5.5 -2.3,7.4 -1.8,2.2 -4.1,3.2 -7,3.2 -2.9,0 -5.2,-1.1 -7,-3.2 -1.5,-1.9 -2.3,-4.4 -2.3,-7.4 0,-3 0.8,-5.4 2.3,-7.4 1.8,-2.2 4.1,-3.2 7,-3.2 2.9,0 5.2,1.1 7,3.2 1.5,2 2.3,4.5 2.3,7.4 z m -1.6,0 c 0,-2.6 -0.6,-4.7 -1.9,-6.3 -1.4,-1.8 -3.3,-2.7 -5.7,-2.7 -2.4,0 -4.3,0.9 -5.8,2.7 -1.3,1.6 -1.9,3.8 -1.9,6.3 0,2.5 0.6,4.7 1.9,6.4 1.4,1.8 3.3,2.7 5.8,2.7 2.4,0 4.3,-0.9 5.7,-2.7 1.2,-1.7 1.9,-3.8 1.9,-6.4 z" />
	<path
   id="path363"
   d="m 131.2,25 c -0.2,1.4 -0.5,2.7 -1,3.8 -0.5,1.1 -1.1,2 -1.8,2.8 -1.6,1.6 -3.7,2.5 -6.1,2.5 -2.8,0 -5.1,-1.1 -6.8,-3.2 -1.6,-1.9 -2.3,-4.3 -2.3,-7.2 0,-3 0.8,-5.5 2.4,-7.5 1.8,-2.2 4.1,-3.2 7.1,-3.2 2,0 3.8,0.6 5.3,1.8 1.8,1.4 2.7,3.2 2.8,5.5 h -1.6 C 129.1,18.5 128.3,17 127,16 c -1.3,-0.9 -2.7,-1.4 -4.3,-1.4 -2.4,0 -4.3,0.9 -5.8,2.7 -1.4,1.7 -2,3.9 -2,6.4 0,2.4 0.7,4.5 2,6.2 1.4,1.8 3.2,2.7 5.5,2.7 2,0 3.7,-0.7 5,-2 0.6,-0.6 1.1,-1.4 1.5,-2.3 0.4,-0.9 0.7,-2 0.8,-3.2 h 1.5 z" />
	<path
   id="path365"
   d="m 149.5,33.6 h -2.1 l -9.2,-10.5 c -0.7,0.6 -1.3,1.1 -1.9,1.7 -0.6,0.5 -1.2,1.1 -1.9,1.7 v 7.1 h -1.6 V 13.3 h 1.6 v 11.1 c 2.1,-1.8 4.1,-3.7 6.2,-5.5 2.1,-1.9 4.2,-3.7 6.2,-5.5 h 2.4 l -9.8,8.8 z" />
	<path
   id="path367"
   d="M 172.7,33.6 H 171 l -2.5,-6.3 h -8.9 c -0.4,1 -0.8,2.1 -1.3,3.2 -0.4,1.1 -0.9,2.2 -1.2,3.2 h -1.8 l 8.1,-20.3 h 1.4 z m -4.8,-7.9 c -0.3,-0.9 -0.7,-1.7 -1,-2.5 -0.3,-0.8 -0.6,-1.6 -0.9,-2.3 -0.3,-0.8 -0.6,-1.6 -0.9,-2.4 -0.3,-0.8 -0.6,-1.7 -1,-2.6 -0.7,1.7 -1.3,3.3 -1.9,4.9 -0.6,1.6 -1.3,3.2 -2,5 h 7.7 z" />
	<path
   id="path369"
   d="m 189.2,33.6 h -1.6 L 175.4,16.1 v 17.5 h -1.6 V 13.3 h 1.6 l 12.2,17.5 V 13.3 h 1.6 z" />
	<path
   id="path371"
   d="m 207,23.4 c 0,3 -0.8,5.5 -2.4,7.3 -1.7,1.9 -4.1,2.9 -7,2.9 h -6.4 V 13.3 h 7.2 c 2.9,0 5.1,1 6.6,3 1.3,1.8 2,4.2 2,7.1 z m -1.6,0 c 0,-2.6 -0.6,-4.7 -1.7,-6.2 -1.2,-1.6 -3,-2.4 -5.5,-2.4 h -5.4 V 32 h 4.9 c 1.2,0 2.3,-0.2 3.3,-0.6 1,-0.4 1.8,-1 2.5,-1.8 1.2,-1.6 1.9,-3.6 1.9,-6.2 z" />
	<path
   id="path373"
   d="m 227.1,33.6 -3.9,-9 H 216 v 9 h -1.6 V 13.3 h 8.3 c 4.2,0 6.3,1.8 6.3,5.5 0,2.7 -1.4,4.6 -4.1,5.5 0.6,1.5 1.3,3.1 2,4.7 0.7,1.6 1.4,3.2 2,4.6 z m 0.3,-14.9 c 0,-2.5 -1.5,-3.8 -4.6,-3.8 H 216 V 23 h 6.6 c 1.4,0 2.5,-0.4 3.5,-1.1 v 0 c 0.8,-0.8 1.3,-1.8 1.3,-3.2 z" />
	<path
   id="path375"
   d="m 249,23.4 c 0,3 -0.8,5.5 -2.3,7.4 -1.8,2.2 -4.1,3.2 -7,3.2 -2.9,0 -5.2,-1.1 -7,-3.2 -1.5,-1.9 -2.3,-4.4 -2.3,-7.4 0,-3 0.8,-5.4 2.3,-7.4 1.8,-2.2 4.1,-3.2 7,-3.2 2.9,0 5.2,1.1 7,3.2 1.5,2 2.3,4.5 2.3,7.4 z m -1.6,0 c 0,-2.6 -0.6,-4.7 -1.9,-6.3 -1.4,-1.8 -3.3,-2.7 -5.7,-2.7 -2.4,0 -4.3,0.9 -5.8,2.7 -1.3,1.6 -1.9,3.8 -1.9,6.3 0,2.5 0.6,4.7 1.9,6.4 1.4,1.8 3.3,2.7 5.8,2.7 2.4,0 4.3,-0.9 5.7,-2.7 1.2,-1.7 1.9,-3.8 1.9,-6.4 z" />
	<path
   id="path377"
   d="m 263.5,33.6 -3.9,-9 h -7.2 v 9 h -1.6 V 13.3 h 8.3 c 4.2,0 6.3,1.8 6.3,5.5 0,2.7 -1.4,4.6 -4.1,5.5 0.6,1.5 1.3,3.1 2,4.7 0.7,1.6 1.4,3.2 2,4.6 z m 0.3,-14.9 c 0,-2.5 -1.5,-3.8 -4.6,-3.8 h -6.8 V 23 h 6.6 c 1.4,0 2.5,-0.4 3.5,-1.1 v 0 c 0.8,-0.8 1.3,-1.8 1.3,-3.2 z" />
	<path
   id="path379"
   d="m 287.7,28.3 c 0,0.9 -0.2,1.8 -0.6,2.5 -0.4,0.7 -1,1.4 -1.8,1.9 -0.7,0.4 -1.4,0.7 -2.2,1 -0.8,0.2 -1.7,0.3 -2.6,0.3 -1.2,0 -2.3,-0.2 -3.3,-0.5 -1,-0.3 -1.8,-0.7 -2.5,-1.3 -1.5,-1.3 -2.2,-3.3 -2.2,-6.1 h 1.6 c 0,4.2 2.1,6.3 6.4,6.3 1.5,0 2.8,-0.3 3.9,-1 0.5,-0.4 1,-0.8 1.3,-1.4 0.3,-0.5 0.5,-1.1 0.5,-1.8 0,-1.7 -1,-2.9 -3,-3.6 v 0 c -0.2,0 -0.3,-0.1 -0.5,-0.1 -0.2,-0.1 -0.4,-0.1 -0.5,-0.1 -0.9,-0.2 -1.7,-0.5 -2.7,-0.7 -1,-0.2 -1.8,-0.5 -2.7,-0.7 -2.4,-0.9 -3.6,-2.4 -3.6,-4.7 0,-1.9 0.8,-3.3 2.3,-4.3 1.2,-0.8 2.8,-1.2 4.7,-1.2 4.7,0 7.1,2.3 7.3,6.9 h -1.6 c -0.1,-3.5 -2,-5.3 -5.7,-5.3 -1.6,0 -2.8,0.3 -3.8,0.9 -1.1,0.7 -1.7,1.7 -1.7,3 0,1.6 1,2.7 3,3.4 v 0 c 0.5,0.2 1,0.3 1.6,0.4 0.5,0.1 1,0.3 1.6,0.4 0.5,0.1 1.1,0.3 1.6,0.4 0.6,0.1 1.1,0.3 1.6,0.4 2.4,0.9 3.6,2.6 3.6,5 z" />
	<path
   id="path381"
   d="m 303.5,14.9 h -6.8 v 18.7 h -1.6 V 14.9 h -6.8 v -1.6 h 15.3 v 1.6 z" />
	<path
   id="path383"
   d="m 319.3,25.9 c 0,1.3 -0.1,2.4 -0.4,3.4 -0.3,1 -0.7,1.8 -1.4,2.5 -1.3,1.5 -3.2,2.3 -5.7,2.3 -2.5,0 -4.4,-0.8 -5.7,-2.3 -1.2,-1.4 -1.8,-3.4 -1.8,-5.9 V 13.3 h 1.6 v 12.6 c 0,4.4 2,6.6 5.9,6.6 3.9,0 5.9,-2.2 5.9,-6.6 V 13.3 h 1.6 z" />
	<path
   id="path385"
   d="m 336.9,23.4 c 0,3 -0.8,5.5 -2.4,7.3 -1.7,1.9 -4.1,2.9 -7,2.9 h -6.4 V 13.3 h 7.2 c 2.9,0 5.1,1 6.6,3 1.4,1.8 2,4.2 2,7.1 z m -1.6,0 c 0,-2.6 -0.6,-4.7 -1.7,-6.2 -1.2,-1.6 -3,-2.4 -5.5,-2.4 h -5.4 V 32 h 4.9 c 1.2,0 2.3,-0.2 3.3,-0.6 1,-0.4 1.8,-1 2.5,-1.8 1.3,-1.6 1.9,-3.6 1.9,-6.2 z" />
	<path
   id="path387"
   d="m 340,33.6 h -1.6 V 13.3 h 1.6 z" />
	<path
   id="path389"
   d="m 360.1,23.4 c 0,3 -0.8,5.5 -2.3,7.4 -1.8,2.2 -4.1,3.2 -7,3.2 -2.9,0 -5.2,-1.1 -7,-3.2 -1.5,-1.9 -2.3,-4.4 -2.3,-7.4 0,-3 0.8,-5.4 2.3,-7.4 1.8,-2.2 4.1,-3.2 7,-3.2 2.9,0 5.2,1.1 7,3.2 1.6,2 2.3,4.5 2.3,7.4 z m -1.6,0 c 0,-2.6 -0.6,-4.7 -1.9,-6.3 -1.4,-1.8 -3.3,-2.7 -5.7,-2.7 -2.4,0 -4.3,0.9 -5.8,2.7 -1.3,1.6 -1.9,3.8 -1.9,6.3 0,2.5 0.6,4.7 1.9,6.4 1.4,1.8 3.3,2.7 5.8,2.7 2.4,0 4.3,-0.9 5.7,-2.7 1.3,-1.7 1.9,-3.8 1.9,-6.4 z" />

   
</g>

<g
   transform="translate(-9.7559943,-0.32855839)"
   style="opacity:1"
   id="slogan">
  <path
   id="path393"
   d="m 84.8,44.7 c -0.1,0.6 -0.2,1.2 -0.4,1.6 -0.2,0.5 -0.5,0.9 -0.8,1.2 -0.7,0.7 -1.6,1 -2.6,1 -1.2,0 -2.2,-0.5 -2.9,-1.4 -0.7,-0.8 -1,-1.8 -1,-3.1 0,-1.3 0.3,-2.4 1,-3.2 0.8,-0.9 1.8,-1.4 3,-1.4 0.9,0 1.6,0.3 2.3,0.8 0.8,0.6 1.2,1.4 1.2,2.4 h -0.7 c -0.1,-0.8 -0.4,-1.4 -0.9,-1.8 -0.5,-0.4 -1.2,-0.6 -1.8,-0.6 -1,0 -1.8,0.4 -2.5,1.2 -0.6,0.7 -0.9,1.6 -0.9,2.7 0,1 0.3,1.9 0.9,2.6 0.6,0.8 1.4,1.1 2.4,1.1 0.9,0 1.6,-0.3 2.1,-0.8 0.3,-0.3 0.5,-0.6 0.6,-1 0.1,-0.4 0.3,-0.8 0.3,-1.4 h 0.7 z" />
  <path
   id="path395"
   d="m 95.5,48.4 -1.7,-3.8 h -3.1 v 3.8 H 90 v -8.7 h 3.5 c 1.8,0 2.7,0.8 2.7,2.3 0,1.2 -0.6,2 -1.8,2.4 0.3,0.6 0.6,1.3 0.9,2 0.3,0.7 0.6,1.4 0.9,2 z M 95.7,42 c 0,-1.1 -0.7,-1.6 -2,-1.6 h -2.9 v 3.4 h 2.8 c 0.6,0 1.1,-0.2 1.5,-0.5 v 0 c 0.4,-0.2 0.6,-0.7 0.6,-1.3 z" />
  <path
   id="path397"
   d="m 107.6,48.4 h -5.9 v -8.7 h 5.8 v 0.7 h -5.2 v 3.1 h 4.9 v 0.7 h -4.9 v 3.5 h 5.2 z" />
  <path
   id="path399"
   d="m 119.6,48.4 h -0.7 l -1.1,-2.7 H 114 c -0.2,0.4 -0.4,0.9 -0.6,1.4 -0.2,0.5 -0.4,0.9 -0.5,1.3 h -0.8 l 3.5,-8.7 h 0.6 z m -2,-3.4 c -0.1,-0.4 -0.3,-0.7 -0.4,-1.1 -0.1,-0.3 -0.3,-0.7 -0.4,-1 -0.1,-0.3 -0.3,-0.7 -0.4,-1 -0.1,-0.3 -0.3,-0.7 -0.4,-1.1 -0.3,0.7 -0.6,1.4 -0.8,2.1 -0.3,0.7 -0.5,1.4 -0.8,2.1 z" />
  <path
   id="path401"
   d="m 132.8,48.4 h -0.7 v -7.1 c -0.5,1.2 -1,2.4 -1.5,3.5 -0.5,1.1 -1,2.4 -1.5,3.5 h -0.6 l -3.1,-7 v 7 h -0.7 v -8.7 h 0.7 l 3.3,7.6 c 0.5,-1.2 1.1,-2.5 1.7,-3.8 0.6,-1.3 1.1,-2.5 1.6,-3.8 h 0.7 v 8.8 z" />
  <path
   id="path403"
   d="m 146.2,44.1 c 0,1.3 -0.3,2.3 -1,3.1 -0.8,0.9 -1.7,1.4 -3,1.4 -1.2,0 -2.2,-0.5 -3,-1.4 -0.7,-0.8 -1,-1.9 -1,-3.1 0,-1.3 0.3,-2.3 1,-3.1 0.8,-0.9 1.7,-1.4 3,-1.4 1.2,0 2.2,0.5 3,1.4 0.7,0.7 1,1.8 1,3.1 z m -0.7,0 c 0,-1.1 -0.3,-2 -0.8,-2.7 -0.6,-0.8 -1.4,-1.1 -2.4,-1.1 -1,0 -1.9,0.4 -2.5,1.1 -0.6,0.7 -0.8,1.6 -0.8,2.7 0,1.1 0.3,2 0.8,2.7 0.6,0.8 1.4,1.1 2.5,1.1 1,0 1.8,-0.4 2.4,-1.1 0.6,-0.7 0.8,-1.6 0.8,-2.7 z" />
  <path
   id="path405"
   d="m 158,46.1 c 0,0.4 -0.1,0.8 -0.3,1.1 -0.2,0.3 -0.4,0.6 -0.8,0.8 -0.3,0.2 -0.6,0.3 -0.9,0.4 -0.3,0.1 -0.7,0.1 -1.1,0.1 -0.5,0 -1,-0.1 -1.4,-0.2 -0.4,-0.1 -0.8,-0.3 -1.1,-0.6 -0.6,-0.6 -1,-1.4 -1,-2.6 h 0.7 c 0,1.8 0.9,2.7 2.7,2.7 0.7,0 1.2,-0.1 1.7,-0.4 0.2,-0.2 0.4,-0.4 0.5,-0.6 0.1,-0.2 0.2,-0.5 0.2,-0.8 0,-0.7 -0.4,-1.2 -1.3,-1.5 v 0 c -0.1,0 -0.1,0 -0.2,-0.1 -0.1,-0.1 -0.2,0 -0.2,-0.1 -0.4,-0.1 -0.7,-0.2 -1.1,-0.3 -0.4,-0.1 -0.8,-0.2 -1.2,-0.3 -1,-0.4 -1.5,-1 -1.5,-2 0,-0.8 0.3,-1.4 1,-1.8 0.5,-0.3 1.2,-0.5 2,-0.5 2,0 3,1 3.1,2.9 h -0.7 c 0,-1.5 -0.9,-2.3 -2.4,-2.3 -0.7,0 -1.2,0.1 -1.6,0.4 -0.5,0.3 -0.7,0.7 -0.7,1.3 0,0.7 0.4,1.2 1.3,1.4 v 0 c 0.2,0.1 0.4,0.1 0.7,0.2 0.2,0.1 0.4,0.1 0.7,0.2 0.2,0.1 0.5,0.1 0.7,0.2 0.2,0.1 0.5,0.1 0.7,0.2 1,0.5 1.5,1.2 1.5,2.2 z" />
  <path
   id="path407"
   d="m 180.9,39.7 -2.5,8.7 h -0.6 l -2.2,-7.3 c -0.4,1.2 -0.7,2.4 -1.1,3.7 -0.4,1.2 -0.7,2.5 -1.1,3.7 h -0.6 l -2.5,-8.7 h 0.7 l 2.1,7.3 c 0.4,-1.2 0.7,-2.4 1.1,-3.7 0.4,-1.2 0.7,-2.4 1.1,-3.6 h 0.7 l 2.2,7.3 c 0.4,-1.2 0.7,-2.4 1,-3.7 0.3,-1.2 0.7,-2.5 1,-3.7 z" />
  <path
   id="path409"
   d="m 192.2,48.4 h -5.9 v -8.7 h 5.8 v 0.7 H 187 v 3.1 h 4.9 v 0.7 H 187 v 3.5 h 5.2 z" />
  <path
   id="path411"
   d="m 203.7,45.9 c 0,0.8 -0.3,1.4 -0.9,1.9 -0.5,0.4 -1.2,0.6 -2,0.6 h -3.6 v -8.7 h 3.7 c 0.7,0 1.3,0.2 1.8,0.6 0.5,0.4 0.7,1 0.7,1.7 0,0.3 0,0.5 -0.1,0.8 -0.1,0.3 -0.2,0.5 -0.4,0.7 -0.1,0.1 -0.2,0.2 -0.3,0.2 -0.1,0.1 -0.2,0.1 -0.3,0.2 0.3,0.1 0.5,0.3 0.7,0.5 v 0 c 0.5,0.4 0.7,0.9 0.7,1.5 z m -1,-3.9 c 0,-0.2 0,-0.5 -0.1,-0.7 -0.1,-0.2 -0.2,-0.4 -0.4,-0.5 -0.4,-0.3 -0.8,-0.4 -1.3,-0.4 h -3 v 3.1 h 3 c 0.5,0 1,-0.1 1.3,-0.4 0.4,-0.2 0.5,-0.6 0.5,-1.1 z m 0.3,3.9 c 0,-0.6 -0.2,-1 -0.6,-1.3 -0.2,-0.1 -0.4,-0.2 -0.6,-0.3 -0.2,-0.1 -0.5,-0.1 -0.8,-0.1 h -3 v 3.5 h 3 c 0.6,0 1.1,-0.1 1.5,-0.4 0.3,-0.3 0.5,-0.8 0.5,-1.4 z" />
  <path
   id="path413"
   d="m 223.3,39.7 -3.5,5 v 3.6 h -0.7 v -3.6 c -0.3,-0.4 -0.6,-0.8 -0.8,-1.2 -0.3,-0.4 -0.6,-0.9 -0.9,-1.3 -0.3,-0.4 -0.6,-0.9 -0.9,-1.3 -0.3,-0.4 -0.6,-0.8 -0.8,-1.2 h 0.8 l 3,4.3 c 0.5,-0.7 1,-1.5 1.5,-2.2 0.5,-0.7 1,-1.4 1.5,-2.2 h 0.8 z" />
  <path
   id="path415"
   d="m 242.4,48.4 h -0.7 l -1.1,-2.7 h -3.8 c -0.2,0.4 -0.4,0.9 -0.6,1.4 -0.2,0.5 -0.4,0.9 -0.5,1.3 h -0.8 l 3.5,-8.7 H 239 Z M 240.3,45 c -0.1,-0.4 -0.3,-0.7 -0.4,-1.1 -0.1,-0.3 -0.3,-0.7 -0.4,-1 -0.1,-0.3 -0.3,-0.7 -0.4,-1 -0.1,-0.3 -0.3,-0.7 -0.4,-1.1 -0.3,0.7 -0.6,1.4 -0.8,2.1 -0.2,0.7 -0.5,1.4 -0.8,2.1 z" />
  <path
   id="path417"
   d="m 253.7,42.2 c 0,1 -0.4,1.7 -1.2,2.1 v 0 c -0.4,0.3 -1,0.4 -1.5,0.4 h -2.8 v 3.7 h -0.7 v -8.7 h 3.5 c 0.8,0 1.5,0.2 1.9,0.6 0.5,0.5 0.8,1.1 0.8,1.9 z m -0.7,0 c 0,-1.2 -0.7,-1.8 -2,-1.8 h -2.8 V 44 h 2.8 c 0.6,0 1.1,-0.2 1.4,-0.5 0.4,-0.3 0.6,-0.7 0.6,-1.3 z" />
  <path
   id="path419"
   d="m 264.1,48.4 h -5.4 v -8.7 h 0.7 v 8 h 4.7 z" />
  <path
   id="path421"
   d="M 269.7,48.4 H 269 v -8.7 h 0.7 z" />
  <path
   id="path423"
   d="m 282.7,44.7 c -0.1,0.6 -0.2,1.2 -0.4,1.6 -0.2,0.5 -0.5,0.9 -0.8,1.2 -0.7,0.7 -1.6,1 -2.6,1 -1.2,0 -2.2,-0.5 -2.9,-1.4 -0.7,-0.8 -1,-1.8 -1,-3.1 0,-1.3 0.3,-2.4 1,-3.2 0.8,-0.9 1.8,-1.4 3,-1.4 0.9,0 1.6,0.3 2.3,0.8 0.8,0.6 1.2,1.4 1.2,2.4 h -0.7 c -0.1,-0.8 -0.4,-1.4 -0.9,-1.8 -0.5,-0.4 -1.2,-0.6 -1.8,-0.6 -1,0 -1.8,0.4 -2.5,1.2 -0.6,0.7 -0.9,1.6 -0.9,2.7 0,1 0.3,1.9 0.9,2.6 0.6,0.8 1.4,1.1 2.4,1.1 0.9,0 1.6,-0.3 2.1,-0.8 0.3,-0.3 0.5,-0.6 0.6,-1 0.1,-0.4 0.3,-0.8 0.3,-1.4 h 0.7 z" />
  <path
   id="path425"
   d="m 295.1,48.4 h -0.7 l -1.1,-2.7 h -3.8 c -0.2,0.4 -0.4,0.9 -0.6,1.4 -0.2,0.5 -0.4,0.9 -0.5,1.3 h -0.8 l 3.5,-8.7 h 0.6 z M 293,45 c -0.1,-0.4 -0.3,-0.7 -0.4,-1.1 -0.1,-0.3 -0.3,-0.7 -0.4,-1 -0.1,-0.3 -0.3,-0.7 -0.4,-1 -0.1,-0.3 -0.3,-0.7 -0.4,-1.1 -0.3,0.7 -0.6,1.4 -0.8,2.1 -0.3,0.7 -0.5,1.4 -0.8,2.1 z" />
  <path
   id="path427"
   d="m 307.8,44.7 c -0.1,0.6 -0.2,1.2 -0.4,1.6 -0.2,0.5 -0.5,0.9 -0.8,1.2 -0.7,0.7 -1.6,1 -2.6,1 -1.2,0 -2.2,-0.5 -2.9,-1.4 -0.7,-0.8 -1,-1.8 -1,-3.1 0,-1.3 0.3,-2.4 1,-3.2 0.8,-0.9 1.8,-1.4 3,-1.4 0.9,0 1.6,0.3 2.3,0.8 0.8,0.6 1.2,1.4 1.2,2.4 h -0.7 c -0.1,-0.8 -0.4,-1.4 -0.9,-1.8 -0.5,-0.4 -1.2,-0.6 -1.8,-0.6 -1,0 -1.8,0.4 -2.5,1.2 -0.6,0.7 -0.9,1.6 -0.9,2.7 0,1 0.3,1.9 0.9,2.6 0.6,0.8 1.4,1.1 2.4,1.1 0.9,0 1.6,-0.3 2.1,-0.8 0.3,-0.3 0.5,-0.6 0.6,-1 0.1,-0.4 0.3,-0.8 0.3,-1.4 h 0.7 z" />
  <path
   id="path429"
   d="M 313.7,48.4 H 313 v -8.7 h 0.7 z" />
  <path
   id="path431"
   d="m 326.9,44.1 c 0,1.3 -0.3,2.3 -1,3.1 -0.8,0.9 -1.7,1.4 -3,1.4 -1.2,0 -2.2,-0.5 -3,-1.4 -0.7,-0.8 -1,-1.9 -1,-3.1 0,-1.3 0.3,-2.3 1,-3.1 0.8,-0.9 1.7,-1.4 3,-1.4 1.2,0 2.2,0.5 3,1.4 0.7,0.7 1,1.8 1,3.1 z m -0.7,0 c 0,-1.1 -0.3,-2 -0.8,-2.7 -0.6,-0.8 -1.4,-1.1 -2.4,-1.1 -1,0 -1.9,0.4 -2.5,1.1 -0.6,0.7 -0.8,1.6 -0.8,2.7 0,1.1 0.3,2 0.8,2.7 0.6,0.8 1.4,1.1 2.5,1.1 1,0 1.8,-0.4 2.4,-1.1 0.6,-0.7 0.8,-1.6 0.8,-2.7 z" />
  <path
   id="path433"
   d="m 338.9,48.4 h -0.7 L 333,41 v 7.4 h -0.7 v -8.7 h 0.7 l 5.2,7.4 v -7.4 h 0.7 z" />
  <path
   id="path435"
   d="m 350.3,48.4 h -5.9 v -8.7 h 5.8 v 0.7 H 345 v 3.1 h 4.9 v 0.7 H 345 v 3.5 h 5.2 v 0.7 z" />
  <path
   id="path437"
   d="m 360.1,46.1 c 0,0.4 -0.1,0.8 -0.3,1.1 -0.2,0.3 -0.4,0.6 -0.8,0.8 -0.3,0.2 -0.6,0.3 -0.9,0.4 -0.3,0.1 -0.7,0.1 -1.1,0.1 -0.5,0 -1,-0.1 -1.4,-0.2 -0.4,-0.1 -0.8,-0.3 -1.1,-0.6 -0.6,-0.6 -1,-1.4 -1,-2.6 h 0.7 c 0,1.8 0.9,2.7 2.7,2.7 0.7,0 1.2,-0.1 1.7,-0.4 0.2,-0.2 0.4,-0.4 0.5,-0.6 0.1,-0.2 0.2,-0.5 0.2,-0.8 0,-0.7 -0.4,-1.2 -1.3,-1.5 v 0 c -0.1,0 -0.1,0 -0.2,-0.1 -0.1,0 -0.2,0 -0.2,-0.1 -0.4,-0.1 -0.7,-0.2 -1.1,-0.3 -0.4,-0.1 -0.8,-0.2 -1.2,-0.3 -1,-0.4 -1.5,-1 -1.5,-2 0,-0.8 0.3,-1.4 1,-1.8 0.5,-0.3 1.2,-0.5 2,-0.5 2,0 3,1 3.1,2.9 h -0.7 c 0,-1.5 -0.9,-2.3 -2.4,-2.3 -0.7,0 -1.2,0.1 -1.6,0.4 -0.5,0.3 -0.7,0.7 -0.7,1.3 0,0.7 0.4,1.2 1.3,1.4 v 0 c 0.2,0.1 0.4,0.1 0.7,0.2 0.3,0.1 0.4,0.1 0.7,0.2 0.2,0.1 0.5,0.1 0.7,0.2 0.2,0.1 0.5,0.1 0.7,0.2 1,0.5 1.5,1.2 1.5,2.2 z" />
    
</g>

</svg>
