<!-- Generator: Adobe Illustrator 19.0.0, SVG Export Plug-In  -->
<svg version="1.1"
	 xmlns="http://www.w3.org/2000/svg" xmlns:xlink="http://www.w3.org/1999/xlink" xmlns:a="http://ns.adobe.com/AdobeSVGViewerExtensions/3.0/"
	 x="0px" y="0px" width="368.3px" height="60.1px" viewBox="0 0 368.3 60.1" style="enable-background:new 0 0 368.3 60.1;"
	 xml:space="preserve">
<g id="XMLID_79_">
	<path id="XMLID_133_" class="st0" d="M84.8,44.7c-0.1,0.6-0.2,1.2-0.4,1.6c-0.2,0.5-0.5,0.9-0.8,1.2c-0.7,0.7-1.6,1-2.6,1
		c-1.2,0-2.2-0.5-2.9-1.4c-0.7-0.8-1-1.8-1-3.1c0-1.3,0.3-2.4,1-3.2c0.8-0.9,1.8-1.4,3-1.4c0.9,0,1.6,0.3,2.3,0.8
		c0.8,0.6,1.2,1.4,1.2,2.4h-0.7c-0.1-0.8-0.4-1.4-0.9-1.8c-0.5-0.4-1.2-0.6-1.8-0.6c-1,0-1.8,0.4-2.5,1.2c-0.6,0.7-0.9,1.6-0.9,2.7
		c0,1,0.3,1.9,0.9,2.6c0.6,0.8,1.4,1.1,2.4,1.1c0.9,0,1.6-0.3,2.1-0.8c0.3-0.3,0.5-0.6,0.6-1s0.3-0.8,0.3-1.4H84.8z"/>
	<path id="XMLID_130_" class="st0" d="M95.5,48.4l-1.7-3.8h-3.1v3.8h-0.7v-8.7h3.5c1.8,0,2.7,0.8,2.7,2.3c0,1.2-0.6,2-1.8,2.4
		c0.3,0.6,0.6,1.3,0.9,2c0.3,0.7,0.6,1.4,0.9,2H95.5z M95.7,42c0-1.1-0.7-1.6-2-1.6h-2.9v3.4h2.8c0.6,0,1.1-0.2,1.5-0.5l0,0
		C95.5,43.1,95.7,42.6,95.7,42z"/>
	<path id="XMLID_128_" class="st0" d="M107.6,48.4h-5.9v-8.7h5.8v0.7h-5.2v3.1h4.9v0.7h-4.9v3.5h5.2V48.4z"/>
	<path id="XMLID_125_" class="st0" d="M119.6,48.4h-0.7l-1.1-2.7H114c-0.2,0.4-0.4,0.9-0.6,1.4c-0.2,0.5-0.4,0.9-0.5,1.3h-0.8
		l3.5-8.7h0.6L119.6,48.4z M117.6,45c-0.1-0.4-0.3-0.7-0.4-1.1c-0.1-0.3-0.3-0.7-0.4-1s-0.3-0.7-0.4-1s-0.3-0.7-0.4-1.1
		c-0.3,0.7-0.6,1.4-0.8,2.1c-0.3,0.7-0.5,1.4-0.8,2.1H117.6z"/>
	<path id="XMLID_123_" class="st0" d="M132.8,48.4h-0.7l0-7.1c-0.5,1.2-1,2.4-1.5,3.5s-1,2.4-1.5,3.5h-0.6l-3.1-7v7h-0.7v-8.7h0.7
		l3.3,7.6c0.5-1.2,1.1-2.5,1.7-3.8c0.6-1.3,1.1-2.5,1.6-3.8h0.7V48.4z"/>
	<path id="XMLID_120_" class="st0" d="M146.2,44.1c0,1.3-0.3,2.3-1,3.1c-0.8,0.9-1.7,1.4-3,1.4c-1.2,0-2.2-0.5-3-1.4
		c-0.7-0.8-1-1.9-1-3.1c0-1.3,0.3-2.3,1-3.1c0.8-0.9,1.7-1.4,3-1.4c1.2,0,2.2,0.5,3,1.4C145.9,41.7,146.2,42.8,146.2,44.1z
		 M145.5,44.1c0-1.1-0.3-2-0.8-2.7c-0.6-0.8-1.4-1.1-2.4-1.1c-1,0-1.9,0.4-2.5,1.1c-0.6,0.7-0.8,1.6-0.8,2.7c0,1.1,0.3,2,0.8,2.7
		c0.6,0.8,1.4,1.1,2.5,1.1c1,0,1.8-0.4,2.4-1.1C145.3,46.1,145.5,45.2,145.5,44.1z"/>
	<path id="XMLID_118_" class="st0" d="M158,46.1c0,0.4-0.1,0.8-0.3,1.1c-0.2,0.3-0.4,0.6-0.8,0.8c-0.3,0.2-0.6,0.3-0.9,0.4
		c-0.3,0.1-0.7,0.1-1.1,0.1c-0.5,0-1-0.1-1.4-0.2c-0.4-0.1-0.8-0.3-1.1-0.6c-0.6-0.6-1-1.4-1-2.6h0.7c0,1.8,0.9,2.7,2.7,2.7
		c0.7,0,1.2-0.1,1.7-0.4c0.2-0.2,0.4-0.4,0.5-0.6c0.1-0.2,0.2-0.5,0.2-0.8c0-0.7-0.4-1.2-1.3-1.5h0c-0.1,0-0.1,0-0.2-0.1
		s-0.2,0-0.2-0.1c-0.4-0.1-0.7-0.2-1.1-0.3c-0.4-0.1-0.8-0.2-1.2-0.3c-1-0.4-1.5-1-1.5-2c0-0.8,0.3-1.4,1-1.8c0.5-0.3,1.2-0.5,2-0.5
		c2,0,3,1,3.1,2.9h-0.7c0-1.5-0.9-2.3-2.4-2.3c-0.7,0-1.2,0.1-1.6,0.4c-0.5,0.3-0.7,0.7-0.7,1.3c0,0.7,0.4,1.2,1.3,1.4h0
		c0.2,0.1,0.4,0.1,0.7,0.2c0.2,0.1,0.4,0.1,0.7,0.2c0.2,0.1,0.5,0.1,0.7,0.2s0.5,0.1,0.7,0.2C157.5,44.4,158,45.1,158,46.1z"/>
	<path id="XMLID_116_" class="st0" d="M180.9,39.7l-2.5,8.7h-0.6l-2.2-7.3c-0.4,1.2-0.7,2.4-1.1,3.7c-0.4,1.2-0.7,2.5-1.1,3.7h-0.6
		l-2.5-8.7h0.7l2.1,7.3c0.4-1.2,0.7-2.4,1.1-3.7c0.4-1.2,0.7-2.4,1.1-3.6h0.7l2.2,7.3c0.4-1.2,0.7-2.4,1-3.7c0.3-1.2,0.7-2.5,1-3.7
		H180.9z"/>
	<path id="XMLID_114_" class="st0" d="M192.2,48.4h-5.9v-8.7h5.8v0.7H187v3.1h4.9v0.7H187v3.5h5.2V48.4z"/>
	<path id="XMLID_110_" class="st0" d="M203.7,45.9c0,0.8-0.3,1.4-0.9,1.9c-0.5,0.4-1.2,0.6-2,0.6h-3.6v-8.7h3.7
		c0.7,0,1.3,0.2,1.8,0.6c0.5,0.4,0.7,1,0.7,1.7c0,0.3,0,0.5-0.1,0.8s-0.2,0.5-0.4,0.7c-0.1,0.1-0.2,0.2-0.3,0.2
		c-0.1,0.1-0.2,0.1-0.3,0.2c0.3,0.1,0.5,0.3,0.7,0.5h0C203.5,44.8,203.7,45.3,203.7,45.9z M202.7,42c0-0.2,0-0.5-0.1-0.7
		c-0.1-0.2-0.2-0.4-0.4-0.5c-0.4-0.3-0.8-0.4-1.3-0.4h-3v3.1h3c0.5,0,1-0.1,1.3-0.4C202.6,42.9,202.7,42.5,202.7,42z M203,45.9
		c0-0.6-0.2-1-0.6-1.3c-0.2-0.1-0.4-0.2-0.6-0.3c-0.2-0.1-0.5-0.1-0.8-0.1h-3v3.5h3c0.6,0,1.1-0.1,1.5-0.4
		C202.8,47,203,46.5,203,45.9z"/>
	<path id="XMLID_108_" class="st0" d="M223.3,39.7l-3.5,5v3.6h-0.7v-3.6c-0.3-0.4-0.6-0.8-0.8-1.2c-0.3-0.4-0.6-0.9-0.9-1.3
		s-0.6-0.9-0.9-1.3c-0.3-0.4-0.6-0.8-0.8-1.2h0.8l3,4.3c0.5-0.7,1-1.5,1.5-2.2c0.5-0.7,1-1.4,1.5-2.2H223.3z"/>
	<path id="XMLID_105_" class="st0" d="M242.4,48.4h-0.7l-1.1-2.7h-3.8c-0.2,0.4-0.4,0.9-0.6,1.4c-0.2,0.5-0.4,0.9-0.5,1.3h-0.8
		l3.5-8.7h0.6L242.4,48.4z M240.3,45c-0.1-0.4-0.3-0.7-0.4-1.1c-0.1-0.3-0.3-0.7-0.4-1s-0.3-0.7-0.4-1c-0.1-0.3-0.3-0.7-0.4-1.1
		c-0.3,0.7-0.6,1.4-0.8,2.1s-0.5,1.4-0.8,2.1H240.3z"/>
	<path id="XMLID_102_" class="st0" d="M253.7,42.2c0,1-0.4,1.7-1.2,2.1h0c-0.4,0.3-1,0.4-1.5,0.4h-2.8v3.7h-0.7v-8.7h3.5
		c0.8,0,1.5,0.2,1.9,0.6C253.4,40.8,253.7,41.4,253.7,42.2z M253,42.2c0-1.2-0.7-1.8-2-1.8h-2.8V44h2.8c0.6,0,1.1-0.2,1.4-0.5
		C252.8,43.2,253,42.8,253,42.2z"/>
	<path id="XMLID_100_" class="st0" d="M264.1,48.4h-5.4v-8.7h0.7v8h4.7V48.4z"/>
	<path id="XMLID_98_" class="st0" d="M269.7,48.4H269v-8.7h0.7V48.4z"/>
	<path id="XMLID_96_" class="st0" d="M282.7,44.7c-0.1,0.6-0.2,1.2-0.4,1.6c-0.2,0.5-0.5,0.9-0.8,1.2c-0.7,0.7-1.6,1-2.6,1
		c-1.2,0-2.2-0.5-2.9-1.4c-0.7-0.8-1-1.8-1-3.1c0-1.3,0.3-2.4,1-3.2c0.8-0.9,1.8-1.4,3-1.4c0.9,0,1.6,0.3,2.3,0.8
		c0.8,0.6,1.2,1.4,1.2,2.4h-0.7c-0.1-0.8-0.4-1.4-0.9-1.8c-0.5-0.4-1.2-0.6-1.8-0.6c-1,0-1.8,0.4-2.5,1.2c-0.6,0.7-0.9,1.6-0.9,2.7
		c0,1,0.3,1.9,0.9,2.6c0.6,0.8,1.4,1.1,2.4,1.1c0.9,0,1.6-0.3,2.1-0.8c0.3-0.3,0.5-0.6,0.6-1s0.3-0.8,0.3-1.4H282.7z"/>
	<path id="XMLID_93_" class="st0" d="M295.1,48.4h-0.7l-1.1-2.7h-3.8c-0.2,0.4-0.4,0.9-0.6,1.4c-0.2,0.5-0.4,0.9-0.5,1.3h-0.8
		l3.5-8.7h0.6L295.1,48.4z M293,45c-0.1-0.4-0.3-0.7-0.4-1.1c-0.1-0.3-0.3-0.7-0.4-1s-0.3-0.7-0.4-1s-0.3-0.7-0.4-1.1
		c-0.3,0.7-0.6,1.4-0.8,2.1c-0.3,0.7-0.5,1.4-0.8,2.1H293z"/>
	<path id="XMLID_91_" class="st0" d="M307.8,44.7c-0.1,0.6-0.2,1.2-0.4,1.6c-0.2,0.5-0.5,0.9-0.8,1.2c-0.7,0.7-1.6,1-2.6,1
		c-1.2,0-2.2-0.5-2.9-1.4c-0.7-0.8-1-1.8-1-3.1c0-1.3,0.3-2.4,1-3.2c0.8-0.9,1.8-1.4,3-1.4c0.9,0,1.6,0.3,2.3,0.8
		c0.8,0.6,1.2,1.4,1.2,2.4h-0.7c-0.1-0.8-0.4-1.4-0.9-1.8c-0.5-0.4-1.2-0.6-1.8-0.6c-1,0-1.8,0.4-2.5,1.2c-0.6,0.7-0.9,1.6-0.9,2.7
		c0,1,0.3,1.9,0.9,2.6c0.6,0.8,1.4,1.1,2.4,1.1c0.9,0,1.6-0.3,2.1-0.8c0.3-0.3,0.5-0.6,0.6-1s0.3-0.8,0.3-1.4H307.8z"/>
	<path id="XMLID_89_" class="st0" d="M313.7,48.4H313v-8.7h0.7V48.4z"/>
	<path id="XMLID_86_" class="st0" d="M326.9,44.1c0,1.3-0.3,2.3-1,3.1c-0.8,0.9-1.7,1.4-3,1.4c-1.2,0-2.2-0.5-3-1.4
		c-0.7-0.8-1-1.9-1-3.1c0-1.3,0.3-2.3,1-3.1c0.8-0.9,1.7-1.4,3-1.4c1.2,0,2.2,0.5,3,1.4C326.6,41.7,326.9,42.8,326.9,44.1z
		 M326.2,44.1c0-1.1-0.3-2-0.8-2.7c-0.6-0.8-1.4-1.1-2.4-1.1c-1,0-1.9,0.4-2.5,1.1c-0.6,0.7-0.8,1.6-0.8,2.7c0,1.1,0.3,2,0.8,2.7
		c0.6,0.8,1.4,1.1,2.5,1.1c1,0,1.8-0.4,2.4-1.1C326,46.1,326.2,45.2,326.2,44.1z"/>
	<path id="XMLID_84_" class="st0" d="M338.9,48.4h-0.7L333,41v7.4h-0.7v-8.7h0.7l5.2,7.4v-7.4h0.7V48.4z"/>
	<path id="XMLID_82_" class="st0" d="M350.3,48.4h-5.9v-8.7h5.8v0.7h-5.2v3.1h4.9v0.7h-4.9v3.5h5.2V48.4z"/>
	<path id="XMLID_80_" class="st0" d="M360.1,46.1c0,0.4-0.1,0.8-0.3,1.1c-0.2,0.3-0.4,0.6-0.8,0.8c-0.3,0.2-0.6,0.3-0.9,0.4
		c-0.3,0.1-0.7,0.1-1.1,0.1c-0.5,0-1-0.1-1.4-0.2c-0.4-0.1-0.8-0.3-1.1-0.6c-0.6-0.6-1-1.4-1-2.6h0.7c0,1.8,0.9,2.7,2.7,2.7
		c0.7,0,1.2-0.1,1.7-0.4c0.2-0.2,0.4-0.4,0.5-0.6c0.1-0.2,0.2-0.5,0.2-0.8c0-0.7-0.4-1.2-1.3-1.5h0c-0.1,0-0.1,0-0.2-0.1
		c-0.1,0-0.2,0-0.2-0.1c-0.4-0.1-0.7-0.2-1.1-0.3c-0.4-0.1-0.8-0.2-1.2-0.3c-1-0.4-1.5-1-1.5-2c0-0.8,0.3-1.4,1-1.8
		c0.5-0.3,1.2-0.5,2-0.5c2,0,3,1,3.1,2.9h-0.7c0-1.5-0.9-2.3-2.4-2.3c-0.7,0-1.2,0.1-1.6,0.4c-0.5,0.3-0.7,0.7-0.7,1.3
		c0,0.7,0.4,1.2,1.3,1.4h0c0.2,0.1,0.4,0.1,0.7,0.2s0.4,0.1,0.7,0.2c0.2,0.1,0.5,0.1,0.7,0.2s0.5,0.1,0.7,0.2
		C359.6,44.4,360.1,45.1,360.1,46.1z"/>
</g>
<g id="XMLID_64_">
	<g id="XMLID_73_">
		<g id="XMLID_74_">
			<g id="XMLID_75_">
				<path id="XMLID_76_" class="st0" d="M30.1,60.1c-0.5,0-1,0-1.5,0C12,59.2-0.8,45.1,0,28.5l0,0C0.9,12,15-0.8,31.5,0
					c8,0.4,15.4,3.9,20.8,9.8c5.4,5.9,8.1,13.6,7.7,21.7C59.2,47.6,45.9,60.1,30.1,60.1z M3.2,28.7C2.5,43.5,13.9,56.1,28.7,56.9
					c14.8,0.7,27.4-10.7,28.2-25.5c0.4-7.2-2.1-14-6.9-19.4c-4.8-5.3-11.4-8.4-18.6-8.8C16.6,2.5,3.9,13.9,3.2,28.7L3.2,28.7z"/>
			</g>
		</g>
	</g>
	<g id="XMLID_65_">
		<path id="XMLID_70_" class="st0" d="M48.6,26.3v-0.8c0-1.3-0.3-2.6-1-3.9c-0.3-0.7-0.8-1.3-1.6-2.1c-1.7-1.8-4.1-2.7-7.1-2.7h-0.9
			H22h-0.9c-3,0-5.4,0.9-7.1,2.7c-0.8,0.7-1.3,1.4-1.6,2.1c-0.7,1.3-1,2.6-1,3.9v0.8c0,1.9,0.8,3.8,2.5,5.7c1.1,1,2.1,1.7,2.9,2
			c-2.2,2.4-3.3,5.5-3.3,9.4h5.3v-0.4c0-2.9,1-5.3,3.4-7c1.3-0.9,3.2-1.3,5.3-1.3h4.8c2.2,0,3.8,0.4,5.1,1.3c2.3,1.7,3.6,4.1,3.6,7
			v0.4h5.3c0-3.9-1.1-7-3.3-9.4c0.9-0.3,1.9-1,2.9-2C47.8,30.1,48.6,28.2,48.6,26.3z M43.2,26.7c-0.7,1.9-2,2.8-3.9,2.8h-1.3H22
			h-1.2c-1.9,0-3.2-0.9-3.9-2.8c-0.1-0.4-0.1-0.7-0.1-1c0-1,0.4-2,1.3-2.8c0.7-0.6,1.5-0.9,2.4-0.9c0,0,0.3-0.1,0.8-0.1h16.9l0,0
			h0.8c0.5,0,0.8,0,0.8,0.1c0.8,0,1.6,0.3,2.4,0.9c0.9,0.8,1.3,1.8,1.3,2.8C43.3,26,43.3,26.3,43.2,26.7z"/>
		<g id="XMLID_68_">
			<path id="XMLID_69_" class="st0" d="M20.1,24.6c-1.1-0.1-1.9,0-1.9,1.2c0,1.2,0.7,1.3,1.9,1.2c1.1,0.1,1.9,0,1.9-1.2
				C22,24.5,21.3,24.5,20.1,24.6z"/>
		</g>
		<g id="XMLID_66_">
			<path id="XMLID_67_" class="st0" d="M40,24.6c-1.1-0.1-1.9,0-1.9,1.2c0,1.2,0.7,1.3,1.9,1.2c1.1,0.1,1.9,0,1.9-1.2
				C41.9,24.5,41.2,24.5,40,24.6z"/>
		</g>
	</g>
</g>
<g id="XMLID_22_">
	<path id="XMLID_61_" class="st1" d="M90.5,32.2l-3.9-9h-7.2v9h-1.6V11.9H86c4.2,0,6.4,1.8,6.4,5.5c0,2.7-1.4,4.6-4.1,5.5
		c0.6,1.5,1.3,3.1,2,4.7c0.7,1.6,1.4,3.2,2,4.6H90.5z M90.8,17.3c0-2.5-1.5-3.8-4.6-3.8h-6.9v8.1h6.6c1.4,0,2.6-0.4,3.5-1.1l0,0
		C90.3,19.8,90.8,18.7,90.8,17.3z"/>
	<path id="XMLID_58_" class="st1" d="M112.5,22.1c0,3-0.8,5.5-2.3,7.4c-1.8,2.2-4.1,3.2-7,3.2c-2.9,0-5.3-1.1-7-3.2
		c-1.5-1.9-2.3-4.4-2.3-7.4c0-3,0.8-5.4,2.3-7.4c1.8-2.2,4.1-3.2,7-3.2c2.9,0,5.2,1.1,7,3.2C111.7,16.6,112.5,19.1,112.5,22.1z
		 M110.9,22.1c0-2.6-0.6-4.7-1.9-6.3c-1.4-1.8-3.3-2.7-5.8-2.7c-2.4,0-4.4,0.9-5.8,2.7c-1.3,1.6-1.9,3.8-1.9,6.3s0.6,4.7,1.9,6.4
		c1.4,1.8,3.3,2.7,5.8,2.7c2.4,0,4.3-0.9,5.8-2.7C110.2,26.8,110.9,24.7,110.9,22.1z"/>
	<path id="XMLID_56_" class="st1" d="M132.2,23.6c-0.2,1.4-0.5,2.7-1,3.8s-1.1,2-1.8,2.8c-1.6,1.6-3.7,2.5-6.2,2.5
		c-2.8,0-5.1-1.1-6.8-3.2c-1.6-1.9-2.3-4.3-2.3-7.2c0-3,0.8-5.5,2.4-7.5c1.8-2.2,4.1-3.2,7.1-3.2c2,0,3.8,0.6,5.4,1.8
		c1.8,1.4,2.7,3.2,2.8,5.5h-1.6c-0.1-1.8-0.9-3.3-2.2-4.3c-1.3-0.9-2.7-1.4-4.3-1.4c-2.4,0-4.3,0.9-5.8,2.7
		c-1.4,1.7-2.1,3.9-2.1,6.4c0,2.4,0.7,4.5,2,6.2c1.4,1.8,3.2,2.7,5.6,2.7c2.1,0,3.7-0.7,5.1-2c0.6-0.6,1.1-1.4,1.5-2.3
		c0.4-0.9,0.7-2,0.8-3.2H132.2z"/>
	<path id="XMLID_54_" class="st1" d="M150.6,32.2h-2.1l-9.3-10.5c-0.7,0.6-1.3,1.1-1.9,1.7c-0.6,0.5-1.2,1.1-1.9,1.7v7.1h-1.6V11.9
		h1.6V23c2.1-1.8,4.2-3.7,6.2-5.5c2.1-1.9,4.2-3.7,6.2-5.5h2.4l-9.9,8.8L150.6,32.2z"/>
	<path id="XMLID_51_" class="st1" d="M173.9,32.2h-1.8l-2.5-6.3h-9c-0.4,1-0.8,2.1-1.3,3.2c-0.5,1.1-0.9,2.2-1.2,3.2h-1.8l8.2-20.3
		h1.4L173.9,32.2z M169,24.3c-0.3-0.9-0.7-1.7-1-2.5c-0.3-0.8-0.6-1.6-0.9-2.3c-0.3-0.8-0.6-1.6-0.9-2.4c-0.3-0.8-0.6-1.7-1-2.6
		c-0.7,1.7-1.3,3.3-2,4.9s-1.3,3.2-2,5H169z"/>
	<path id="XMLID_49_" class="st1" d="M190.5,32.2h-1.6l-12.3-17.5v17.5h-1.6V11.9h1.6l12.3,17.5V11.9h1.6V32.2z"/>
	<path id="XMLID_46_" class="st1" d="M208.3,22.1c0,3-0.8,5.5-2.4,7.3c-1.7,1.9-4.1,2.9-7.1,2.9h-6.4V11.9h7.2c2.9,0,5.1,1,6.7,3
		C207.7,16.7,208.3,19.1,208.3,22.1z M206.7,22.1c0-2.6-0.6-4.7-1.7-6.2c-1.2-1.6-3-2.4-5.5-2.4h-5.5v17.1h4.9
		c1.2,0,2.3-0.2,3.3-0.6c1-0.4,1.8-1,2.5-1.8C206.1,26.7,206.7,24.6,206.7,22.1z"/>
	<path id="XMLID_43_" class="st1" d="M228.6,32.2l-3.9-9h-7.3v9h-1.6V11.9h8.3c4.2,0,6.4,1.8,6.4,5.5c0,2.7-1.4,4.6-4.1,5.5
		c0.6,1.5,1.3,3.1,2,4.7c0.7,1.6,1.4,3.2,2,4.6H228.6z M228.9,17.3c0-2.5-1.5-3.8-4.6-3.8h-6.9v8.1h6.6c1.4,0,2.6-0.4,3.5-1.1l0,0
		C228.4,19.8,228.9,18.7,228.9,17.3z"/>
	<path id="XMLID_40_" class="st1" d="M250.6,22.1c0,3-0.8,5.5-2.3,7.4c-1.8,2.2-4.1,3.2-7,3.2c-2.9,0-5.3-1.1-7-3.2
		c-1.5-1.9-2.3-4.4-2.3-7.4c0-3,0.8-5.4,2.3-7.4c1.8-2.2,4.1-3.2,7-3.2c2.9,0,5.2,1.1,7,3.2C249.8,16.6,250.6,19.1,250.6,22.1z
		 M249,22.1c0-2.6-0.6-4.7-1.9-6.3c-1.4-1.8-3.3-2.7-5.8-2.7c-2.4,0-4.4,0.9-5.8,2.7c-1.3,1.6-1.9,3.8-1.9,6.3s0.6,4.7,1.9,6.4
		c1.4,1.8,3.3,2.7,5.8,2.7c2.4,0,4.3-0.9,5.8-2.7C248.3,26.8,249,24.7,249,22.1z"/>
	<path id="XMLID_37_" class="st1" d="M265.2,32.2l-3.9-9H254v9h-1.6V11.9h8.3c4.2,0,6.4,1.8,6.4,5.5c0,2.7-1.4,4.6-4.1,5.5
		c0.6,1.5,1.3,3.1,2,4.7c0.7,1.6,1.4,3.2,2,4.6H265.2z M265.5,17.3c0-2.5-1.5-3.8-4.6-3.8H254v8.1h6.6c1.4,0,2.6-0.4,3.5-1.1l0,0
		C265,19.8,265.5,18.7,265.5,17.3z"/>
	<path id="XMLID_35_" class="st0" d="M289.6,27.2c0,1.8-0.8,3.2-2.3,4.2c-1.3,0.9-2.9,1.3-4.8,1.3c-2.4,0-4.3-0.6-5.7-1.7
		c-1.4-1.2-2.2-3.1-2.2-5.5h0.6c0,4.4,2.4,6.7,7.3,6.7c1.7,0,3.2-0.4,4.4-1.1c1.4-0.9,2.1-2.2,2.1-3.8c0-2.1-1.2-3.5-3.6-4.4
		c-2.2-0.6-4.4-1.1-6.7-1.7c-2.4-0.8-3.6-2.4-3.6-4.5c0-1.8,0.7-3.2,2.2-4.1c1.2-0.8,2.8-1.1,4.7-1.1c4.6,0,6.9,2.1,7.1,6.2h-0.6
		c-0.1-3.7-2.3-5.6-6.5-5.6c-1.7,0-3.2,0.3-4.3,1c-1.4,0.8-2,2-2,3.7c0,2,1.2,3.3,3.6,4.1c2.2,0.6,4.4,1.1,6.7,1.7
		C288.4,23.4,289.6,25,289.6,27.2z"/>
	<path id="XMLID_33_" class="st0" d="M305.5,12.5h-7.2v19.8h-0.6V12.5h-7.2v-0.6h15.1V12.5z"/>
	<path id="XMLID_31_" class="st0" d="M321.3,24.7c0,2.5-0.6,4.5-1.8,5.9c-1.3,1.5-3.1,2.2-5.6,2.2c-2.5,0-4.4-0.7-5.6-2.2
		c-1.2-1.4-1.8-3.3-1.8-5.9V11.9h0.6v12.8c0,5,2.3,7.5,6.8,7.5c4.6,0,6.8-2.5,6.8-7.5V11.9h0.6V24.7z"/>
	<path id="XMLID_28_" class="st0" d="M339.1,22.1c0,3.1-0.8,5.5-2.4,7.3c-1.7,1.9-4,2.8-7.1,2.8h-6.2V11.9h7.1c2.9,0,5.1,1,6.6,3
		C338.4,16.6,339.1,19,339.1,22.1z M338.5,22.1c0-2.9-0.6-5.2-1.9-6.9c-1.4-1.8-3.5-2.7-6.3-2.7H324v19.2h5.8c2.8,0,5-0.9,6.5-2.8
		C337.8,27.2,338.5,24.9,338.5,22.1z"/>
	<path id="XMLID_26_" class="st0" d="M341.7,32.2h-0.6V11.9h0.6V32.2z"/>
	<path id="XMLID_23_" class="st0" d="M362.4,22.1c0,3-0.8,5.5-2.3,7.4c-1.7,2.1-4,3.2-6.9,3.2c-2.9,0-5.2-1.1-6.9-3.2
		c-1.6-2-2.3-4.5-2.3-7.4c0-3,0.8-5.5,2.3-7.4c1.7-2.1,4-3.2,6.9-3.2c2.9,0,5.2,1.1,6.9,3.2C361.6,16.6,362.4,19.1,362.4,22.1z
		 M361.8,22.1c0-2.8-0.7-5.2-2.2-7.1c-1.6-2-3.8-3-6.5-3c-2.8,0-4.9,1-6.5,3c-1.4,1.9-2.2,4.2-2.2,7.1s0.7,5.2,2.2,7.1
		c1.6,2,3.8,3,6.5,3c2.8,0,4.9-1,6.5-3C361.1,27.2,361.8,24.9,361.8,22.1z"/>
</g>
<g id="XMLID_15_">
	<path id="XMLID_20_" class="st0" d="M365.1,3.6L363,9.1h-0.4l-2.1-5.5h0.4l1.9,4.8c0.3-0.8,0.6-1.6,0.9-2.4
		c0.3-0.8,0.6-1.6,0.9-2.4H365.1z"/>
	<path id="XMLID_18_" class="st0" d="M364.2,9.1h-0.4v-1h0.4V9.1z"/>
	<path id="XMLID_16_" class="st0" d="M368.3,7.6c0,0.2,0,0.5-0.1,0.6c-0.1,0.2-0.2,0.4-0.4,0.5c-0.3,0.3-0.7,0.4-1.2,0.4
		c-0.6,0-1-0.1-1.4-0.4c-0.2-0.2-0.3-0.3-0.4-0.6c-0.1-0.2-0.1-0.5-0.1-0.7c0,0,0-0.1,0-0.2c0-0.1,0-0.1,0-0.1h0.4l0,0.3
		c0,0.4,0.1,0.7,0.4,1c0.1,0.1,0.3,0.2,0.5,0.2c0.2,0.1,0.4,0.1,0.6,0.1c0.4,0,0.7-0.1,0.9-0.3c0.3-0.2,0.4-0.5,0.4-0.8
		c0-0.4-0.2-0.7-0.5-0.9c-0.1-0.1-0.3-0.1-0.5-0.1c-0.2,0-0.5,0-0.8,0V6.1c0.6,0,1,0,1.2-0.1c0.3-0.1,0.5-0.4,0.5-0.8
		c0-0.1,0-0.3-0.1-0.4c-0.1-0.1-0.2-0.2-0.3-0.3c-0.2-0.1-0.5-0.2-0.9-0.2c-0.4,0-0.8,0.1-1,0.4c-0.2,0.2-0.4,0.6-0.4,1.1h-0.4
		c0-0.6,0.2-1.1,0.5-1.4c0.3-0.3,0.8-0.5,1.3-0.5c0.2,0,0.4,0,0.6,0.1c0.2,0.1,0.4,0.1,0.5,0.2c0.2,0.1,0.3,0.3,0.4,0.4
		c0.1,0.2,0.1,0.4,0.1,0.6c0,0.3-0.1,0.5-0.2,0.7c-0.1,0.2-0.3,0.4-0.5,0.5c0.2,0.1,0.4,0.3,0.6,0.5C368.2,7,368.3,7.3,368.3,7.6z"
		/>
</g>
</svg>
