<!-- Generator: Adobe Illustrator 19.0.0, SVG Export Plug-In  -->
<svg version="1.1"
   xmlns="http://www.w3.org/2000/svg" xmlns:xlink="http://www.w3.org/1999/xlink" xmlns:a="http://ns.adobe.com/AdobeSVGViewerExtensions/3.0/"
   x="0px" y="0px" width="137.9px" height="40.4px" viewBox="0 0 137.9 40.4" style="enable-background:new 0 0 137.9 40.4;"
   xml:space="preserve">
<defs>
</defs>
<g>
  <polygon class="st0" points="64.4,27.6 63,18.1 59.5,27.6 58.3,27.6 54.8,18.2 53.3,27.6 50.8,27.6 53,14.1 55.6,14.1 58.9,22.9 
    62.2,14.1 64.8,14.1 67,27.6 64.4,27.6   "/>
  <path class="st0" d="M74.4,16.8l-2,5.9h4L74.4,16.8L74.4,16.8z M78,27.6L77,24.8h-5.4l-0.9,2.7h-2.8l4.9-13.5h3l4.9,13.5H78
    L78,27.6z"/>
  <path class="st0" d="M87.4,16.2h-2.9v9.2h2.9c1.7,0,3.5-1.1,3.5-4.6C91,17.2,88.7,16.2,87.4,16.2L87.4,16.2z M87.9,27.6h-5.8V14.1
    h5.4c3.3,0,6.2,2.2,6.2,6.5C93.6,24.6,91.2,27.6,87.9,27.6L87.9,27.6z"/>
  <path class="st0" d="M100.2,16.2h-1.8v4.2h1.8c1.3,0,2.2-1,2.2-2.2C102.5,17.1,101.8,16.2,100.2,16.2L100.2,16.2z M103.5,27.6
    l-3.3-5.3h-1.8v5.3h-2.5V14.1h4.3c3.4,0,4.9,1.5,4.9,3.8c0,2-1.3,3-2.6,3.6l4.1,6.1H103.5L103.5,27.6z"/>
  <path class="st0" d="M119.2,16.2h-2.8v9.2h2.8c1.7,0,3.5-1.1,3.5-4.6C122.8,17.2,120.5,16.2,119.2,16.2L119.2,16.2z M119.7,27.6
    h-5.8V14.1h5.4c3.3,0,6.2,2.2,6.2,6.5C125.4,24.6,123,27.6,119.7,27.6L119.7,27.6z"/>
  <polygon class="st0" points="108.3,14.1 110.8,14.1 110.8,27.6 108.3,27.6 108.3,14.1   "/>
  <path class="st1" d="M2.2,32.4c-0.1,1.6,0.3,8,12.4,7.9c12,0.1,12.5-6.3,12.4-7.9l-1.1,0l-0.2,0.3l0.5,0.7l-0.8-0.1l-0.3,0.7
    l-0.3-0.7l-0.8,0.1l0.5-0.7L24,32.4h-1.1c-0.5,1.7-2.3,4-8.4,4c-6.1,0-7.9-2.3-8.4-4l-1.1,0l-0.2,0.3l0.5,0.7l-0.8-0.1l-0.3,0.7
    l-0.3-0.7L3,33.4l0.5-0.7l-0.2-0.3H2.2L2.2,32.4z M17.5,32.4l-1.3,0.3c0,0-0.3,0-0.5-0.3l-2.4,0c-0.3,0.2-0.5,0.3-0.5,0.3l-6.5,0
    c0.1,0.2,0.2,0.4,0.3,0.6h16.1c0.1-0.2,0.2-0.4,0.3-0.6l-2.1,0c0-0.1,0-0.2-0.1-0.2L17.5,32.4L17.5,32.4z"/>
  <g>
    <path class="st1" d="M130,31c-1.1,0-2.3-0.7-2.3-1.9c0-0.9,0.4-1.9,0.7-2.7c0.1-0.4,0.7-0.8,1.4-0.8c1.2,0,1.9,1.1,1.9,1.4
      c0,0.6,0.2,1.3,0.2,1.6C131.8,30.2,130.8,31,130,31L130,31z M134.5,13.3c-0.7,2.5-1.3,5.2-1.7,7.8c-0.2,1.6-0.9,3-2.1,3
      c-0.7,0-1.2-0.8-1.2-2.2c0-0.3,0-0.7,0.2-1.4c0.5-2,0.5-2.9,0.7-7.2c0.2-2.9,1.1-5.5,1.1-8.7c0-2.3,1.7-4.3,3.9-4.3
      c1.2,0,1.5,0.4,2,1.5c0.3,0.7,0.5,1.4,0.4,2.2C137.7,6.7,135.8,8.7,134.5,13.3L134.5,13.3z M46,27.1c-0.2,1.9-0.7,3.4-0.8,6
      c-0.1,2.2-0.4,2.8-0.8,4.4c-0.3,1.4-1.5,2-2.9,2c-1.7,0-2.7-1.8-2.8-3.7c0-0.5,0.2-1.5,0.3-2c1.3-4.5,3-9.5,4.7-14.8
      c0.6-2.1,0.9-4,2.4-4c1,0,1.3,1,1.3,1.8C47.3,20.2,46.4,23.4,46,27.1L46,27.1z M46.5,13.1c-0.3,0-0.2-0.2-0.6-0.2
      c-0.8,0-1.4-0.8-1.4-1.6c0-0.5,0.4-1.9,1-2.2C45.8,9,46.5,8.8,47,8.8c0.9,0,1.7,0.4,1.7,1.4C48.6,11.2,47.6,13.1,46.5,13.1
      L46.5,13.1z"/>
    <path class="st1" d="M1.9,8.4C1.9,8.4,1.9,8.4,1.9,8.4C1.9,8.8,2.1,9,2.4,9h1.3C4,9,4.3,8.8,4.3,8.4c0,0,0,0,0,0L1.9,8.4L1.9,8.4z
       M4.9,8.4C4.9,8.4,4.9,8.4,4.9,8.4c0,0.4,0.3,0.6,0.6,0.6c0.3,0,0.6-0.3,0.6-0.6c0,0,0,0,0,0L4.9,8.4L4.9,8.4z M6.8,8.4L6.8,8.4
      l1.8,0.7l1.8-0.6l-0.1,0H6.8L6.8,8.4z M11,8.4C11,8.4,11,8.4,11,8.4c0,0.4,0.3,0.6,0.6,0.6c0.3,0,0.6-0.3,0.6-0.6c0,0,0,0,0,0
      L11,8.4L11,8.4z M12.8,8.4C12.8,8.4,12.8,8.4,12.8,8.4C12.8,8.8,13,9,13.3,9h2.6c0.3,0,0.5-0.2,0.5-0.5c0,0,0,0,0,0L12.8,8.4
      L12.8,8.4z M16.9,8.4C16.9,8.4,16.9,8.4,16.9,8.4c0,0.4,0.3,0.6,0.6,0.6c0.3,0,0.6-0.3,0.6-0.6c0,0,0,0,0,0L16.9,8.4L16.9,8.4z
       M18.9,8.4L18.9,8.4l1.8,0.7l1.8-0.6l-0.1,0H18.9L18.9,8.4z M23,8.4C23,8.4,23,8.4,23,8.4c0,0.4,0.3,0.6,0.6,0.6
      c0.3,0,0.6-0.3,0.6-0.6c0,0,0,0,0,0L23,8.4L23,8.4z M24.9,8.4C24.9,8.4,24.9,8.4,24.9,8.4c0,0.3,0.2,0.6,0.5,0.6h1.3
      c0.3,0,0.5-0.2,0.5-0.5c0,0,0,0,0,0L24.9,8.4L24.9,8.4z M3.2,32.4L3,32.1l0.8,0.1l0.3-0.7l0.3,0.7l0.8-0.1L5,32.4h1.1
      c-0.3-1-0.2-1.8-0.2-1.8L6,14.6h17l0.1,16.1c0,0,0.1,0.8-0.2,1.8l1.1,0l-0.2-0.3l0.8,0.1l0.3-0.7l0.3,0.7l0.8-0.1l-0.2,0.3h1.1
      c0-0.2,0-0.4,0-0.4l-0.1-21.2H2.3L2.2,32.1c0,0,0,0.1,0,0.4L3.2,32.4L3.2,32.4z M13.3,32.4c0.2-0.2,0.3-0.4,0.4-0.8v-9.4
      c-2.6-0.3-4.5-1.7-4.5-3.4c0-1.9,2.4-3.4,5.4-3.4c3,0,5.4,1.5,5.4,3.4c0,1.7-2,3.2-4.6,3.4l0.4,2.8c0.1,0.6,0.3,0.9,0.6,0.8
      c0,0-0.1-0.9,0.1-1.5c0,0-0.5-0.4-0.4-1.2l0.7-0.7c0,0,0.4,0.6,0.6,0.6l0.7,0.2l0.5,0c0,0,0.7,0.3,0.4,1.1l-0.4,0.6l1,3l0.6,1
      c0,0,0.9,1.1,0,2.2l0.5,0.9c0,0,0.1,0.2,0.1,0.4l-3.2,0l0.1,0l0.5-0.2l-0.6-0.8c0,0-0.2-0.2-0.1-0.7c0,0-0.6-0.1-0.9-2.2l-1.1-1.4
      v4.5c0,0.4,0.2,0.6,0.4,0.8L13.3,32.4L13.3,32.4z M4.1,21.3l0.3,0.7L5.3,22l-0.5,0.7l0.5,0.7l-0.8-0.1L4.1,24l-0.3-0.7L3,23.3
      l0.5-0.7L3,22l0.8,0.1L4.1,21.3L4.1,21.3z M24.9,21.3l0.3,0.7l0.8-0.1l-0.5,0.7l0.5,0.7l-0.8-0.1l-0.3,0.7l-0.3-0.7l-0.8,0.1
      l0.5-0.7L23.8,22l0.8,0.1L24.9,21.3L24.9,21.3z M4.1,11.4l0.3,0.7L5.3,12l-0.5,0.7l0.5,0.7l-0.8-0.1L4.1,14l-0.3-0.7L3,13.4
      l0.5-0.7L3,12l0.8,0.1L4.1,11.4L4.1,11.4z M24.9,11.4l0.3,0.7l0.8-0.1l-0.5,0.7l0.5,0.7l-0.8-0.1L24.9,14l-0.3-0.7l-0.8,0.1
      l0.5-0.7L23.8,12l0.8,0.1L24.9,11.4L24.9,11.4z M14.5,11.4l0.3,0.7l0.8-0.1l-0.5,0.7l0.5,0.7l-0.8-0.1L14.5,14l-0.3-0.7l-0.8,0.1
      l0.5-0.7l-0.5-0.7l0.8,0.1L14.5,11.4L14.5,11.4z M26.7,10.5c0.3,0,0.6-0.3,0.6-0.6c0-0.3-0.3-0.6-0.6-0.6H2.5
      c-0.3,0-0.6,0.3-0.6,0.6c0,0.3,0.3,0.6,0.6,0.6H26.7L26.7,10.5z"/>
  </g>
  <path class="st1" d="M0.6,0.4c0.6,0.2,1.5,1,1.3,3.5c0,0,0,1.5,1.2,2c1.1,0.4,2.2-0.2,2.5-0.3c0.2,0.2,0.9,0.6,1.5,0.6
    c0.8,0,1.5-0.6,1.5-0.6s0.6,0.6,1.5,0.6c0.8,0,1.4-0.5,1.5-0.6c0.2,0.2,0.9,0.6,1.5,0.6c0.8,0,1.5-0.6,1.5-0.6s0.6,0.6,1.5,0.6
    c0.8,0,1.3-0.4,1.5-0.6c0.2,0.2,0.9,0.5,1.5,0.5c0.8,0,1.5-0.6,1.5-0.6s0.6,0.6,1.5,0.6c0.8,0,1.4-0.5,1.5-0.6
    c0.2,0.1,1.4,0.8,2.5,0.3c1.2-0.5,1.2-2,1.2-2c-0.2-2.5,0.6-3.3,1.3-3.5l-1.8,0c-0.2,0.2-0.3,0.3-0.5,0.6c-0.2,0-0.8-0.1-1.1,0.1
    c0,0,0.6,0.2,0.6,0.9c0,0-0.6,0-0.9-0.6c0,0-0.2,0.3-0.1,0.9c0,0-0.6,0.1-1,0.5c0.3,0.4,1,0.5,1,0.5c-0.1,0.6,0.1,0.9,0.1,0.9
    s0.4-0.6,1.2-0.7c0,0,0.1,1.1-0.6,1.4c-0.7,0.3-1.2-0.3-1.3-0.5c0.2-0.8-0.2-1.1-0.6-1.1c-0.4,0-0.7,0.3-0.7,0.7
    c0,0.2,0.1,0.3,0.2,0.4c0,0-0.3,0.6-0.9,0.6c-0.6,0-1.2-0.5-1-1.4c0,0,1.1,0.2,1.2,0.7c0,0,0.1-0.1,0.1-0.9c0,0,0.8-0.1,0.9-0.5
    c-0.1-0.4-1-0.6-1-0.6c0.1-0.4-0.1-0.9-0.1-0.9c-0.4,0.6-0.9,0.6-0.9,0.6c0-0.6,0.6-0.9,0.6-0.9C21.9,1,21.1,1,21.1,1
    c0-0.2-0.1-0.4-0.2-0.5l-0.7,0c-0.1,0.1-0.1,0.3-0.2,0.5c0,0-0.8,0-0.9,0.1c0,0,0.6,0.3,0.6,0.9c0,0-0.6,0-0.9-0.6
    c0,0-0.2,0.5-0.1,0.9c0,0-0.9,0.2-1,0.5c0.1,0.4,0.9,0.5,0.9,0.5c0,0.9,0.1,0.9,0.1,0.9C18.9,3.8,20,3.5,20,3.5
    c0.1,0.6,0,1.3-0.8,1.4c-0.6,0.1-0.9-0.3-1-0.6c0.2-0.8-0.2-1.1-0.6-1.1c-0.4,0-0.7,0.3-0.7,0.7c0,0.2,0.1,0.3,0.2,0.4
    C17,4.5,16.7,5,16.1,5c-0.6,0-1.2-0.5-1-1.4c0.1,0,1.1,0.2,1.2,0.7c0,0,0.1-0.1,0.1-0.9c0,0,0.8-0.1,0.9-0.5c-0.1-0.4-1-0.6-1-0.6
    c0.1-0.4-0.1-0.9-0.1-0.9c-0.4,0.6-0.9,0.6-0.9,0.6c0-0.6,0.6-0.9,0.6-0.9C15.9,1,15.1,1,15.1,1c0-0.2-0.1-0.4-0.2-0.5l-0.7,0
    c-0.1,0.1-0.1,0.3-0.2,0.5c0,0-0.8,0-0.9,0.1c0,0,0.6,0.3,0.6,0.9c0,0-0.6,0-0.9-0.6c0,0-0.2,0.5-0.1,0.9c0,0-0.9,0.2-1,0.5
    c0.1,0.4,0.9,0.5,0.9,0.5c0,0.9,0.1,0.9,0.1,0.9C13,3.8,14,3.5,14,3.5c0.1,0.6,0,1.3-0.8,1.4c-0.6,0.1-1-0.4-1.1-0.6
    c0.1-0.8-0.2-1.1-0.6-1.1c-0.4,0-0.7,0.3-0.7,0.7c0.1,0.4-0.2,1-0.8,1c-0.6,0-1.2-0.5-1-1.4c0,0,1.1,0.2,1.2,0.7
    c0,0,0.1-0.1,0.1-0.9c0,0,0.8-0.1,0.9-0.5c-0.1-0.4-1-0.6-1-0.6c0.1-0.4-0.1-0.9-0.1-0.9C10,2.1,9.4,2.1,9.4,2.1
    c0-0.6,0.6-0.9,0.6-0.9C9.9,1,9.1,1,9.1,1c0-0.2-0.1-0.4-0.2-0.5l-0.7,0C8.2,0.6,8.1,0.8,8.1,1c0,0-0.8,0-0.9,0.1
    c0,0,0.6,0.3,0.6,0.9c0,0-0.6,0-0.9-0.6c0,0-0.2,0.5-0.1,0.9c0,0-0.9,0.2-1,0.5c0.1,0.4,0.9,0.5,0.9,0.5c0,0.9,0.1,0.9,0.1,0.9
    C7,3.8,8,3.5,8,3.5C8.1,4.1,8,4.9,7.2,5C6.6,5.1,6.2,4.6,6.1,4.4C6.3,3.6,6,3.3,5.6,3.3C5.2,3.3,4.9,3.6,4.9,4
    c0,0.6-0.4,1.2-1.2,0.9C3,4.6,3.1,3.5,3.1,3.5c0.8,0.1,1.2,0.7,1.2,0.7S4.5,4,4.4,3.4c0,0,0.6-0.1,1-0.5c-0.3-0.4-1-0.5-1-0.5
    c0.1-0.6-0.1-0.9-0.1-0.9C4,2,3.4,2,3.4,2C3.4,1.4,4,1.1,4,1.1C3.7,0.9,3.2,1,2.9,1.1C2.8,0.8,2.6,0.6,2.4,0.4L0.6,0.4L0.6,0.4z
     M4.3,8.4c0-0.3-0.3-0.5-0.5-0.5H2.4c-0.3,0-0.5,0.2-0.5,0.5L4.3,8.4L4.3,8.4z M6.1,8.4c0-0.3-0.3-0.6-0.6-0.6
    c-0.3,0-0.6,0.3-0.6,0.6L6.1,8.4L6.1,8.4z M10.3,8.4L8.6,7.8L6.8,8.4H10.3L10.3,8.4z M12.2,8.4c0-0.3-0.3-0.6-0.6-0.6
    c-0.3,0-0.6,0.3-0.6,0.6L12.2,8.4L12.2,8.4z M16.4,8.4c0-0.3-0.3-0.5-0.5-0.5h-2.6c-0.3,0-0.5,0.2-0.5,0.5L16.4,8.4L16.4,8.4z
     M18.2,8.4c0-0.3-0.3-0.6-0.6-0.6c-0.3,0-0.6,0.3-0.6,0.6L18.2,8.4L18.2,8.4z M22.4,8.4l-1.8-0.6l-1.8,0.6H22.4L22.4,8.4z
     M24.2,8.4c0-0.3-0.3-0.6-0.6-0.6c-0.3,0-0.6,0.3-0.6,0.6L24.2,8.4L24.2,8.4z M27.3,8.4c0-0.3-0.3-0.5-0.5-0.5h-1.3
    c-0.3,0-0.5,0.2-0.5,0.5L27.3,8.4L27.3,8.4z M26.7,7.6c0.3,0,0.6-0.3,0.6-0.6c0-0.3-0.3-0.6-0.6-0.6H2.5C2.2,6.5,1.9,6.7,1.9,7
    c0,0.3,0.3,0.6,0.6,0.6H26.7L26.7,7.6z"/>
  <path class="st1" d="M2.4,0.4C1.3-0.5,0,0.4,0,0.4s0.3-0.1,0.6,0.1L2.4,0.4L2.4,0.4z M8.9,0.4C8.8,0.2,8.6,0,8.6,0S8.4,0.2,8.2,0.5
    L8.9,0.4L8.9,0.4z M14.9,0.4C14.8,0.2,14.6,0,14.6,0s-0.2,0.1-0.3,0.4L14.9,0.4L14.9,0.4z M20.9,0.4C20.8,0.2,20.6,0,20.6,0
    s-0.2,0.1-0.3,0.4L20.9,0.4L20.9,0.4z M28.5,0.4c0.4-0.1,0.6-0.1,0.6-0.1s-1.3-0.9-2.4,0.1L28.5,0.4L28.5,0.4z"/>
</g>
</svg>
