<!-- Generator: Adobe Illustrator 19.0.0, SVG Export Plug-In  -->
<svg version="1.1"
	 xmlns="http://www.w3.org/2000/svg" xmlns:xlink="http://www.w3.org/1999/xlink" xmlns:a="http://ns.adobe.com/AdobeSVGViewerExtensions/3.0/"
	 x="0px" y="0px" width="293.8px" height="115.9px" viewBox="0 0 293.8 115.9" style="enable-background:new 0 0 293.8 115.9;"
	 xml:space="preserve">
<g id="XMLID_348_">
	<g id="XMLID_360_">
		<g id="XMLID_361_">
			<g id="XMLID_362_">
				<g id="XMLID_363_">
					<path id="XMLID_364_"  d="M136,65.4c-0.5,0-1.1,0-1.6,0c-18-0.9-31.9-16.3-31-34.3l0,0c0.9-18,16.3-31.9,34.3-31
						c8.7,0.4,16.7,4.2,22.6,10.7c5.9,6.5,8.8,14.8,8.4,23.6C167.7,51.8,153.3,65.4,136,65.4z M106.8,31.2
						c-0.8,16.1,11.6,29.9,27.8,30.7c16.1,0.8,29.9-11.6,30.7-27.8c0.4-7.8-2.3-15.3-7.5-21.1c-5.2-5.8-12.4-9.2-20.2-9.6
						C121.3,2.7,107.6,15.1,106.8,31.2L106.8,31.2z"/>
				</g>
			</g>
		</g>
	</g>
	<g id="XMLID_349_">
		<g id="XMLID_356_">
			<path id="XMLID_357_"  d="M156.2,28.6v-0.8c0-1.4-0.4-2.8-1.1-4.2c-0.3-0.7-0.9-1.5-1.7-2.2c-1.9-2-4.4-2.9-7.7-2.9
				h-1h-17.5h-1c-3.3,0-5.8,1-7.7,2.9c-0.8,0.8-1.4,1.5-1.7,2.2c-0.7,1.4-1.1,2.8-1.1,4.2v0.8c0,2.1,0.9,4.2,2.7,6.2
				c1.2,1.1,2.2,1.8,3.2,2.2c-2.4,2.6-3.6,6-3.6,10.2h5.8v-0.4c0-3.1,1.1-5.8,3.7-7.6c1.5-1,3.5-1.4,5.8-1.4h5.2
				c2.3,0,4.1,0.4,5.6,1.4c2.5,1.9,3.9,4.5,3.9,7.6v0.4h5.8c0-4.2-1.2-7.7-3.6-10.2c1-0.3,2-1,3.2-2.2
				C155.3,32.7,156.2,30.7,156.2,28.6z M150.3,29.1c-0.7,2-2.1,3.1-4.2,3.1h-1.4h-17.5h-1.4c-2.1,0-3.5-1-4.2-3.1
				c-0.1-0.4-0.1-0.8-0.2-1c0-1.1,0.5-2.2,1.4-3.1c0.8-0.6,1.7-1,2.6-1c0-0.1,0.3-0.1,0.8-0.1h18.4l0,0h0.9c0.6,0,0.8,0,0.8,0.1
				c0.9,0,1.8,0.3,2.6,1c0.9,0.9,1.4,1.9,1.4,3.1C150.4,28.3,150.3,28.7,150.3,29.1z"/>
		</g>
		<g id="XMLID_353_">
			<g id="XMLID_354_">
				<path id="XMLID_355_"  d="M125.2,26.7c-1.2-0.1-2.1,0-2,1.3c0,1.3,0.8,1.4,2,1.3c1.2,0.1,2.1,0,2-1.3
					C127.2,26.7,126.4,26.6,125.2,26.7z"/>
			</g>
		</g>
		<g id="XMLID_350_">
			<g id="XMLID_351_">
				<path id="XMLID_352_"  d="M146.9,26.7c-1.2-0.1-2.1,0-2,1.3c0,1.3,0.8,1.4,2,1.3c1.2,0.1,2.1,0,2-1.3
					C148.9,26.7,148.1,26.6,146.9,26.7z"/>
			</g>
		</g>
	</g>
</g>
<g id="XMLID_215_">
	<g id="XMLID_324_">
		<path id="XMLID_345_"  d="M14.4,102.9l-3.9-9H3.2v9H1.6V82.5h8.3c4.2,0,6.4,1.8,6.4,5.5c0,2.7-1.4,4.6-4.1,5.5
			c0.6,1.5,1.3,3.1,2,4.7c0.7,1.6,1.4,3.2,2,4.6H14.4z M14.7,88c0-2.5-1.5-3.8-4.6-3.8H3.2v8.1h6.6c1.4,0,2.6-0.4,3.5-1.1l0,0
			C14.2,90.4,14.7,89.3,14.7,88z"/>
		<path id="XMLID_325_"  d="M17,103.4h-2.9l-3.9-9H3.7v9H1.1V82h8.8c5.7,0,6.9,3.2,6.9,6c0,2.8-1.3,4.8-4,5.8
			c0.6,1.3,1.2,2.7,1.8,4.2c0.7,1.6,1.4,3.2,2,4.6L17,103.4z M14.7,102.4h0.7c-0.5-1.2-1.1-2.6-1.7-3.9c-0.7-1.6-1.4-3.2-2-4.7
			l-0.2-0.5l0.5-0.2c2.6-0.9,3.8-2.5,3.8-5.1c0-3.3-1.9-5-5.9-5H2.1v19.3h0.6v-9h8.1L14.7,102.4z M9.8,92.7H2.7v-9.1h7.4
			c4.2,0,5.1,2.3,5.1,4.3c0,1.5-0.5,2.7-1.6,3.6l0,0C12.6,92.3,11.3,92.7,9.8,92.7z M3.7,91.7h6.1c1.3,0,2.3-0.3,3.2-1l0,0
			c0.8-0.7,1.2-1.6,1.2-2.8c0-1.4-0.4-3.3-4.1-3.3H3.7V91.7z"/>
	</g>
	<g id="XMLID_315_">
		<path id="XMLID_321_"  d="M36.4,92.7c0,3-0.8,5.5-2.3,7.4c-1.8,2.2-4.1,3.2-7,3.2c-2.9,0-5.3-1.1-7-3.2
			c-1.5-1.9-2.3-4.4-2.3-7.4c0-3,0.8-5.4,2.3-7.4c1.8-2.2,4.1-3.2,7-3.2c2.9,0,5.2,1.1,7,3.2C35.7,87.3,36.4,89.7,36.4,92.7z
			 M34.8,92.7c0-2.6-0.6-4.7-1.9-6.3c-1.4-1.8-3.3-2.7-5.8-2.7c-2.4,0-4.4,0.9-5.8,2.7c-1.3,1.6-1.9,3.8-1.9,6.3s0.6,4.7,1.9,6.4
			c1.4,1.8,3.3,2.7,5.8,2.7c2.4,0,4.3-0.9,5.8-2.7C34.2,97.4,34.8,95.3,34.8,92.7z"/>
		<path id="XMLID_316_"  d="M27.1,103.8c-3.1,0-5.6-1.2-7.4-3.4c-1.6-2-2.4-4.6-2.4-7.7c0-3.1,0.8-5.7,2.4-7.7
			c1.9-2.3,4.4-3.4,7.4-3.4c3,0,5.5,1.2,7.4,3.4c1.6,2,2.4,4.6,2.4,7.7c0,3.1-0.8,5.7-2.4,7.7C32.6,102.7,30.2,103.8,27.1,103.8z
			 M27.1,82.6c-2.8,0-5,1-6.6,3.1c-1.5,1.8-2.2,4.2-2.2,7c0,2.9,0.7,5.2,2.2,7.1c1.7,2.1,3.9,3.1,6.6,3.1c2.8,0,4.9-1,6.6-3.1
			c1.5-1.8,2.2-4.2,2.2-7.1c0-2.8-0.7-5.2-2.2-7.1C32,83.6,29.9,82.6,27.1,82.6z M27.1,102.2c-2.6,0-4.7-1-6.2-2.8
			c-1.4-1.7-2.1-4-2.1-6.7c0-2.7,0.7-4.9,2.1-6.7c1.5-1.9,3.6-2.8,6.2-2.8c2.6,0,4.6,1,6.1,2.8c1.4,1.7,2.1,4,2.1,6.7
			c0,2.7-0.7,4.9-2.1,6.7C31.8,101.3,29.7,102.2,27.1,102.2z M27.1,84.2c-2.3,0-4.1,0.8-5.4,2.5c-1.2,1.5-1.8,3.6-1.8,6
			s0.6,4.5,1.8,6.1c1.3,1.7,3.1,2.5,5.4,2.5c2.3,0,4-0.8,5.4-2.5c1.2-1.6,1.8-3.6,1.8-6.1s-0.6-4.5-1.8-6
			C31.1,85,29.4,84.2,27.1,84.2z"/>
	</g>
	<g id="XMLID_306_">
		<path id="XMLID_313_"  d="M56.1,94.2c-0.2,1.4-0.5,2.7-1,3.8s-1.1,2-1.8,2.8c-1.6,1.6-3.7,2.5-6.2,2.5
			c-2.8,0-5.1-1.1-6.8-3.2c-1.6-1.9-2.3-4.3-2.3-7.2c0-3,0.8-5.5,2.4-7.5c1.8-2.2,4.1-3.2,7.1-3.2c2,0,3.8,0.6,5.4,1.8
			c1.8,1.4,2.7,3.2,2.8,5.5H54c-0.1-1.8-0.9-3.3-2.2-4.3c-1.3-0.9-2.7-1.4-4.3-1.4c-2.4,0-4.3,0.9-5.8,2.7c-1.4,1.7-2.1,3.9-2.1,6.4
			c0,2.4,0.7,4.5,2,6.2c1.4,1.8,3.2,2.7,5.6,2.7c2,0,3.7-0.7,5-2c0.6-0.6,1.1-1.4,1.5-2.3c0.4-0.9,0.7-2,0.8-3.2H56.1z"/>
		<path id="XMLID_307_"  d="M47.1,103.8c-3,0-5.4-1.2-7.2-3.4c-1.6-2-2.5-4.5-2.5-7.5c0-3.1,0.8-5.8,2.5-7.8
			c1.9-2.3,4.4-3.4,7.5-3.4c2.1,0,4,0.6,5.7,1.9c1.9,1.4,2.9,3.4,3,5.9l0,0.5h-2.6l0-0.5c-0.1-1.7-0.8-3-2-3.9
			c-1.2-0.9-2.5-1.3-4-1.3c-2.3,0-4,0.8-5.5,2.6c-1.3,1.6-1.9,3.7-1.9,6.1c0,2.3,0.6,4.3,1.9,5.9c1.3,1.7,3,2.5,5.2,2.5
			c1.9,0,3.5-0.6,4.7-1.8c0.6-0.6,1-1.3,1.4-2.1c0.4-0.9,0.6-1.9,0.8-3.1l0.1-0.4h2.7l-0.1,0.6c-0.2,1.5-0.6,2.8-1,4
			c-0.5,1.2-1.1,2.2-1.9,3C51.9,103,49.7,103.8,47.1,103.8z M47.5,82.6c-2.8,0-5,1-6.7,3.1c-1.5,1.9-2.3,4.3-2.3,7.2
			c0,2.8,0.7,5.1,2.2,6.9c1.6,2.1,3.8,3.1,6.4,3.1c2.3,0,4.3-0.8,5.8-2.3c0.7-0.7,1.3-1.6,1.7-2.6c0.4-0.9,0.7-2,0.9-3.1h-0.6
			c-0.2,1.1-0.4,2.1-0.8,2.9c-0.4,1-1,1.8-1.6,2.4c-1.4,1.4-3.2,2.1-5.4,2.1c-2.5,0-4.5-1-6-2.9c-1.4-1.8-2.1-3.9-2.1-6.5
			c0-2.7,0.7-4.9,2.2-6.7c1.6-1.9,3.7-2.9,6.2-2.9c1.7,0,3.3,0.5,4.6,1.5c1.4,1,2.2,2.4,2.4,4.2h0.6c-0.2-1.9-1.1-3.5-2.6-4.6
			C51.1,83.2,49.4,82.6,47.5,82.6z"/>
	</g>
	<g id="XMLID_299_">
		<path id="XMLID_303_"  d="M74.5,102.9h-2.1l-9.3-10.5c-0.7,0.6-1.3,1.1-1.9,1.7c-0.6,0.5-1.2,1.1-1.9,1.7v7.1h-1.6
			V82.5h1.6v11.1c2.1-1.8,4.2-3.7,6.2-5.5c2.1-1.9,4.2-3.7,6.2-5.5h2.4l-9.9,8.8L74.5,102.9z"/>
		<path id="XMLID_300_"  d="M75.6,103.4h-3.5L63,93.1l-1.5,1.3c-0.6,0.5-1.1,1-1.7,1.6v7.4h-2.6V82h2.6v10.4
			c1.8-1.6,3.6-3.2,5.4-4.8l6.4-5.6h3.9L65,91.4L75.6,103.4z M72.6,102.4h0.8l-9.8-11.1l9.3-8.3H72l-6.1,5.4
			c-2.1,1.9-4.2,3.7-6.2,5.5l-0.8,0.7V83h-0.6v19.3h0.6v-6.9l0.2-0.1c0.7-0.6,1.3-1.2,1.9-1.7l2.3-2L72.6,102.4z"/>
	</g>
	<g id="XMLID_290_">
		<path id="XMLID_296_"  d="M97.8,102.9h-1.8l-2.5-6.3h-9c-0.4,1-0.8,2.1-1.3,3.2c-0.5,1.1-0.9,2.2-1.2,3.2h-1.8
			l8.2-20.3h1.4L97.8,102.9z M92.9,94.9c-0.3-0.9-0.7-1.7-1-2.5c-0.3-0.8-0.6-1.6-0.9-2.3c-0.3-0.8-0.6-1.6-0.9-2.4
			c-0.3-0.8-0.6-1.7-1-2.6c-0.7,1.7-1.3,3.3-2,4.9c-0.6,1.6-1.3,3.2-2,5H92.9z"/>
		<path id="XMLID_291_"  d="M98.6,103.4h-2.8L93.2,97h-8.3l-1.2,2.9c-0.4,1.1-0.9,2.2-1.2,3.1l-0.1,0.3h-2.9L88.1,82h2.1
			L98.6,103.4z M96.4,102.4h0.7L89.5,83h-0.8L81,102.4h0.7c0.3-0.9,0.7-1.9,1.1-2.8l1.4-3.5h9.6L96.4,102.4z M93.7,95.4h-9.2
			l0.3-0.7c0.7-1.8,1.4-3.4,2-5l2.4-6l0.5,1.2c0.4,0.9,0.7,1.8,1,2.6l0.9,2.4c0.3,0.8,0.6,1.5,0.9,2.3c0.3,0.8,0.6,1.6,1,2.5
			L93.7,95.4z M85.9,94.4h6.3c-0.2-0.6-0.5-1.3-0.7-1.8c-0.3-0.8-0.6-1.6-0.9-2.3l-0.9-2.4c-0.2-0.5-0.4-0.9-0.5-1.4l-1.5,3.7
			C87.1,91.5,86.5,92.9,85.9,94.4z"/>
	</g>
	<g id="XMLID_281_">
		<path id="XMLID_287_"  d="M114.4,102.9h-1.6l-12.3-17.5v17.5h-1.6V82.5h1.6l12.3,17.5V82.5h1.6V102.9z"/>
		<path id="XMLID_282_"  d="M114.9,103.4h-2.4L101,87v16.4h-2.6V82h2.4l11.5,16.4V82h2.6V103.4z M113,102.4h0.8V83h-0.6
			v18.5L100.2,83h-0.8v19.3h0.6V83.8L113,102.4z"/>
	</g>
	<g id="XMLID_269_">
		<path id="XMLID_277_"  d="M132.3,92.7c0,3-0.8,5.5-2.4,7.3c-1.7,1.9-4.1,2.9-7.1,2.9h-6.4V82.5h7.2c2.9,0,5.1,1,6.7,3
			C131.6,87.4,132.3,89.8,132.3,92.7z M130.7,92.7c0-2.6-0.6-4.7-1.7-6.2c-1.2-1.6-3-2.4-5.5-2.4H118v17.1h4.9
			c1.2,0,2.3-0.2,3.3-0.6c1-0.4,1.8-1,2.5-1.8C130,97.3,130.7,95.3,130.7,92.7z"/>
		<path id="XMLID_270_"  d="M122.8,103.4h-6.9V82h7.7c3.1,0,5.4,1.1,7.1,3.2c1.4,1.9,2.1,4.4,2.1,7.4
			c0,3.1-0.8,5.7-2.5,7.6C128.4,102.4,125.9,103.4,122.8,103.4z M116.9,102.4h5.9c2.8,0,5.1-0.9,6.7-2.7c1.5-1.7,2.3-4.1,2.3-7
			c0-2.8-0.6-5.1-1.9-6.8c-1.4-1.9-3.5-2.8-6.3-2.8h-6.7V102.4z M122.9,101.8h-5.4V83.6h6c2.7,0,4.7,0.9,5.9,2.6
			c1.2,1.6,1.8,3.7,1.8,6.5c0,2.7-0.7,4.9-2.1,6.5c-0.7,0.8-1.6,1.5-2.7,1.9C125.4,101.5,124.2,101.8,122.9,101.8z M118.5,100.8h4.4
			c1.2,0,2.2-0.2,3.1-0.6c0.9-0.4,1.7-1,2.3-1.7c1.2-1.4,1.8-3.4,1.8-5.8c0-2.5-0.5-4.5-1.6-5.9c-1.1-1.5-2.8-2.2-5.1-2.2h-5V100.8z
			"/>
	</g>
	<g id="XMLID_257_">
		<path id="XMLID_264_"  d="M152.5,102.9l-3.9-9h-7.3v9h-1.6V82.5h8.3c4.2,0,6.4,1.8,6.4,5.5c0,2.7-1.4,4.6-4.1,5.5
			c0.6,1.5,1.3,3.1,2,4.7c0.7,1.6,1.4,3.2,2,4.6H152.5z M152.8,88c0-2.5-1.5-3.8-4.6-3.8h-6.9v8.1h6.6c1.4,0,2.6-0.4,3.5-1.1l0,0
			C152.3,90.4,152.8,89.3,152.8,88z"/>
		<path id="XMLID_258_"  d="M155.1,103.4h-2.9l-3.9-9h-6.4v9h-2.6V82h8.8c5.7,0,6.9,3.2,6.9,6c0,2.8-1.3,4.8-4,5.8
			c0.6,1.3,1.2,2.7,1.8,4.2c0.7,1.6,1.4,3.2,2,4.6L155.1,103.4z M152.8,102.4h0.7c-0.5-1.2-1.1-2.6-1.7-3.9c-0.7-1.6-1.4-3.2-2-4.7
			l-0.2-0.5l0.5-0.2c2.6-0.9,3.8-2.5,3.8-5.1c0-3.3-1.9-5-5.9-5h-7.8v19.3h0.6v-9h8.1L152.8,102.4z M147.9,92.7h-7.1v-9.1h7.4
			c4.2,0,5.1,2.3,5.1,4.3c0,1.5-0.5,2.7-1.6,3.6l0,0C150.7,92.3,149.4,92.7,147.9,92.7z M141.8,91.7h6.1c1.3,0,2.3-0.3,3.2-1l0,0
			c0.8-0.7,1.2-1.6,1.2-2.8c0-1.4-0.4-3.3-4.1-3.3h-6.4V91.7z"/>
	</g>
	<g id="XMLID_247_">
		<path id="XMLID_254_"  d="M174.5,92.7c0,3-0.8,5.5-2.3,7.4c-1.8,2.2-4.1,3.2-7,3.2c-2.9,0-5.3-1.1-7-3.2
			c-1.5-1.9-2.3-4.4-2.3-7.4c0-3,0.8-5.4,2.3-7.4c1.8-2.2,4.1-3.2,7-3.2c2.9,0,5.2,1.1,7,3.2C173.8,87.3,174.5,89.7,174.5,92.7z
			 M172.9,92.7c0-2.6-0.6-4.7-1.9-6.3c-1.4-1.8-3.3-2.7-5.8-2.7c-2.4,0-4.4,0.9-5.8,2.7c-1.3,1.6-1.9,3.8-1.9,6.3s0.6,4.7,1.9,6.4
			c1.4,1.8,3.3,2.7,5.8,2.7c2.4,0,4.3-0.9,5.8-2.7C172.3,97.4,172.9,95.3,172.9,92.7z"/>
		<path id="XMLID_248_"  d="M165.2,103.8c-3.1,0-5.6-1.2-7.4-3.4c-1.6-2-2.4-4.6-2.4-7.7c0-3.1,0.8-5.7,2.4-7.7
			c1.9-2.3,4.4-3.4,7.4-3.4c3,0,5.5,1.2,7.4,3.4c1.6,2,2.4,4.6,2.4,7.7c0,3.1-0.8,5.7-2.4,7.7C170.7,102.7,168.3,103.8,165.2,103.8z
			 M165.2,82.6c-2.8,0-5,1-6.6,3.1c-1.5,1.8-2.2,4.2-2.2,7c0,2.9,0.7,5.2,2.2,7.1c1.7,2.1,3.9,3.1,6.6,3.1c2.8,0,4.9-1,6.6-3.1
			c1.5-1.8,2.2-4.2,2.2-7.1c0-2.8-0.7-5.2-2.2-7.1C170.1,83.6,168,82.6,165.2,82.6z M165.2,102.2c-2.6,0-4.7-1-6.2-2.8
			c-1.4-1.7-2.1-4-2.1-6.7c0-2.7,0.7-4.9,2.1-6.7c1.5-1.9,3.6-2.8,6.2-2.8c2.6,0,4.6,1,6.1,2.8c1.4,1.7,2.1,4,2.1,6.7
			c0,2.7-0.7,4.9-2.1,6.7C169.9,101.3,167.8,102.2,165.2,102.2z M165.2,84.2c-2.3,0-4.1,0.8-5.4,2.5c-1.2,1.5-1.8,3.6-1.8,6
			s0.6,4.5,1.8,6.1c1.3,1.7,3.1,2.5,5.4,2.5c2.3,0,4-0.8,5.4-2.5c1.2-1.6,1.8-3.6,1.8-6.1s-0.6-4.5-1.8-6
			C169.2,85,167.5,84.2,165.2,84.2z"/>
	</g>
	<g id="XMLID_238_">
		<path id="XMLID_244_"  d="M189.1,102.9l-3.9-9h-7.3v9h-1.6V82.5h8.3c4.2,0,6.4,1.8,6.4,5.5c0,2.7-1.4,4.6-4.1,5.5
			c0.6,1.5,1.3,3.1,2,4.7c0.7,1.6,1.4,3.2,2,4.6H189.1z M189.4,88c0-2.5-1.5-3.8-4.6-3.8h-6.9v8.1h6.6c1.4,0,2.6-0.4,3.5-1.1l0,0
			C189,90.4,189.4,89.3,189.4,88z"/>
		<path id="XMLID_239_"  d="M191.7,103.4h-2.9l-3.9-9h-6.4v9h-2.6V82h8.8c5.7,0,6.9,3.2,6.9,6c0,2.8-1.3,4.8-4,5.8
			c0.6,1.3,1.2,2.7,1.8,4.2c0.7,1.6,1.4,3.2,2,4.6L191.7,103.4z M189.4,102.4h0.7c-0.5-1.2-1.1-2.6-1.7-3.9c-0.7-1.6-1.4-3.2-2-4.7
			l-0.2-0.5l0.5-0.2c2.6-0.9,3.8-2.5,3.8-5.1c0-3.3-1.9-5-5.9-5h-7.8v19.3h0.6v-9h8.1L189.4,102.4z M184.5,92.7h-7.1v-9.1h7.4
			c4.2,0,5.1,2.3,5.1,4.3c0,1.5-0.5,2.7-1.6,3.6l0,0C187.3,92.3,186,92.7,184.5,92.7z M178.4,91.7h6.1c1.3,0,2.3-0.3,3.2-1l0,0
			c0.8-0.7,1.2-1.6,1.2-2.8c0-1.4-0.4-3.3-4.1-3.3h-6.4V91.7z"/>
	</g>
	<g id="XMLID_235_">
		<path id="XMLID_236_"  d="M213.5,97.9c0,1.8-0.8,3.2-2.3,4.2c-1.3,0.9-2.9,1.3-4.8,1.3c-2.4,0-4.3-0.6-5.7-1.7
			c-1.4-1.2-2.2-3.1-2.2-5.5h0.6c0,4.4,2.4,6.7,7.3,6.7c1.7,0,3.2-0.4,4.4-1.1c1.4-0.9,2.1-2.2,2.1-3.8c0-2.1-1.2-3.5-3.6-4.4
			c-2.2-0.6-4.4-1.1-6.7-1.7c-2.4-0.8-3.6-2.4-3.6-4.5c0-1.8,0.7-3.2,2.2-4.1c1.2-0.8,2.8-1.1,4.7-1.1c4.6,0,6.9,2.1,7.1,6.2h-0.6
			c-0.1-3.7-2.3-5.6-6.5-5.6c-1.7,0-3.2,0.3-4.3,1c-1.4,0.8-2,2-2,3.7c0,2,1.2,3.3,3.6,4.1c2.2,0.6,4.4,1.1,6.7,1.7
			C212.3,94,213.5,95.6,213.5,97.9z"/>
	</g>
	<g id="XMLID_232_">
		<path id="XMLID_233_"  d="M229.4,83.1h-7.2v19.8h-0.6V83.1h-7.2v-0.6h15.1V83.1z"/>
	</g>
	<g id="XMLID_227_">
		<path id="XMLID_229_"  d="M245.2,95.3c0,2.5-0.6,4.5-1.8,5.9c-1.3,1.5-3.1,2.2-5.6,2.2c-2.5,0-4.4-0.7-5.6-2.2
			c-1.2-1.4-1.8-3.3-1.8-5.9V82.5h0.6v12.8c0,5,2.3,7.5,6.8,7.5c4.6,0,6.8-2.5,6.8-7.5V82.5h0.6V95.3z"/>
	</g>
	<g id="XMLID_223_">
		<path id="XMLID_224_"  d="M263,92.7c0,3.1-0.8,5.5-2.4,7.3c-1.7,1.9-4,2.8-7.1,2.8h-6.2V82.5h7.1c2.9,0,5.1,1,6.6,3
			C262.3,87.3,263,89.7,263,92.7z M262.4,92.7c0-2.9-0.6-5.2-1.9-6.9c-1.4-1.8-3.5-2.7-6.3-2.7h-6.3v19.2h5.8c2.8,0,5-0.9,6.5-2.8
			C261.7,97.8,262.4,95.5,262.4,92.7z"/>
	</g>
	<g id="XMLID_220_">
		<path id="XMLID_221_"  d="M265.7,102.9h-0.6V82.5h0.6V102.9z"/>
	</g>
	<g id="XMLID_216_">
		<path id="XMLID_217_"  d="M286.3,92.7c0,3-0.8,5.5-2.3,7.4c-1.7,2.1-4,3.2-6.9,3.2c-2.9,0-5.2-1.1-6.9-3.2
			c-1.6-2-2.3-4.5-2.3-7.4c0-3,0.8-5.5,2.3-7.4c1.7-2.1,4-3.2,6.9-3.2c2.9,0,5.2,1.1,6.9,3.2C285.6,87.2,286.3,89.7,286.3,92.7z
			 M285.8,92.7c0-2.8-0.7-5.2-2.2-7.1c-1.6-2-3.8-3-6.5-3c-2.8,0-4.9,1-6.5,3c-1.4,1.9-2.2,4.2-2.2,7.1s0.7,5.2,2.2,7.1
			c1.6,2,3.8,3,6.5,3c2.8,0,4.9-1,6.5-3C285.1,97.9,285.8,95.5,285.8,92.7z"/>
	</g>
</g>
<g id="XMLID_204_">
	<g id="XMLID_212_">
		<path id="XMLID_213_"  d="M290.6,76.3l-2.1,5.5h-0.4l-2.1-5.5h0.4l1.9,4.8c0.3-0.8,0.6-1.6,0.9-2.4
			c0.3-0.8,0.6-1.6,0.9-2.4H290.6z"/>
	</g>
	<g id="XMLID_208_">
		<path id="XMLID_210_"  d="M289.7,81.8h-0.4v-1h0.4V81.8z"/>
	</g>
	<g id="XMLID_205_">
		<path id="XMLID_206_"  d="M293.8,80.3c0,0.2,0,0.5-0.1,0.6c-0.1,0.2-0.2,0.4-0.4,0.5c-0.3,0.3-0.7,0.4-1.2,0.4
			c-0.6,0-1-0.1-1.4-0.4c-0.2-0.2-0.3-0.3-0.4-0.6c-0.1-0.2-0.1-0.5-0.1-0.7c0,0,0-0.1,0-0.2c0-0.1,0-0.1,0-0.1h0.4l0,0.3
			c0,0.4,0.1,0.7,0.4,1c0.1,0.1,0.3,0.2,0.5,0.2s0.4,0.1,0.6,0.1c0.4,0,0.7-0.1,0.9-0.3c0.3-0.2,0.4-0.5,0.4-0.8
			c0-0.4-0.2-0.7-0.5-0.9c-0.1-0.1-0.3-0.1-0.5-0.1c-0.2,0-0.5,0-0.8,0v-0.4c0.6,0,1,0,1.2-0.1c0.3-0.1,0.5-0.4,0.5-0.8
			c0-0.1,0-0.3-0.1-0.4c-0.1-0.1-0.2-0.2-0.3-0.3c-0.2-0.1-0.5-0.2-0.9-0.2c-0.4,0-0.8,0.1-1,0.4c-0.2,0.2-0.4,0.6-0.4,1.1h-0.4
			c0-0.6,0.2-1.1,0.5-1.4c0.3-0.3,0.8-0.5,1.3-0.5c0.2,0,0.4,0,0.6,0.1c0.2,0.1,0.4,0.1,0.5,0.2c0.2,0.1,0.3,0.3,0.4,0.4
			c0.1,0.2,0.1,0.4,0.1,0.6c0,0.3-0.1,0.5-0.2,0.7c-0.1,0.2-0.3,0.4-0.5,0.5c0.2,0.1,0.4,0.3,0.6,0.5
			C293.8,79.7,293.8,80,293.8,80.3z"/>
	</g>
</g>
<g id="XMLID_16_">
	<path id="XMLID_202_"  d="M7.7,112c-0.1,0.6-0.2,1.2-0.4,1.6c-0.2,0.5-0.5,0.9-0.8,1.2c-0.7,0.7-1.6,1-2.6,1
		c-1.2,0-2.2-0.5-2.9-1.4c-0.7-0.8-1-1.8-1-3.1c0-1.3,0.3-2.4,1-3.2c0.8-0.9,1.8-1.4,3-1.4c0.9,0,1.6,0.3,2.3,0.8
		c0.8,0.6,1.2,1.4,1.2,2.4H6.8c-0.1-0.8-0.4-1.4-0.9-1.8c-0.5-0.4-1.2-0.6-1.8-0.6c-1,0-1.8,0.4-2.5,1.2c-0.6,0.7-0.9,1.6-0.9,2.7
		c0,1,0.3,1.9,0.9,2.6c0.6,0.8,1.4,1.1,2.4,1.1c0.9,0,1.6-0.3,2.1-0.8c0.3-0.3,0.5-0.6,0.6-1S7,112.5,7,112H7.7z"/>
	<path id="XMLID_199_"  d="M18.6,115.7l-1.7-3.8h-3.1v3.8h-0.7V107h3.5c1.8,0,2.7,0.8,2.7,2.3c0,1.2-0.6,2-1.8,2.4
		c0.3,0.6,0.6,1.3,0.9,2c0.3,0.7,0.6,1.4,0.9,2H18.6z M18.7,109.3c0-1.1-0.7-1.6-2-1.6h-2.9v3.4h2.8c0.6,0,1.1-0.2,1.5-0.5l0,0
		C18.5,110.4,18.7,109.9,18.7,109.3z"/>
	<path id="XMLID_74_"  d="M30.7,115.7h-5.9V107h5.8v0.7h-5.2v3.1h4.9v0.7h-4.9v3.5h5.2V115.7z"/>
	<path id="XMLID_71_"  d="M42.9,115.7h-0.7l-1.1-2.7h-3.8c-0.2,0.4-0.4,0.9-0.6,1.4s-0.4,0.9-0.5,1.3h-0.8l3.5-8.7h0.6
		L42.9,115.7z M40.8,112.3c-0.1-0.4-0.3-0.7-0.4-1.1c-0.1-0.3-0.3-0.7-0.4-1c-0.1-0.3-0.3-0.7-0.4-1c-0.1-0.3-0.3-0.7-0.4-1.1
		c-0.3,0.7-0.6,1.4-0.8,2.1s-0.5,1.4-0.8,2.1H40.8z"/>
	<path id="XMLID_69_"  d="M56.2,115.7h-0.7l0-7.1c-0.5,1.2-1,2.4-1.5,3.5c-0.5,1.2-1,2.4-1.5,3.5h-0.6l-3.1-7v7h-0.7V107
		h0.7l3.3,7.6c0.5-1.2,1.1-2.5,1.7-3.8c0.6-1.3,1.1-2.5,1.6-3.8h0.7V115.7z"/>
	<path id="XMLID_58_"  d="M69.6,111.4c0,1.3-0.3,2.3-1,3.1c-0.8,0.9-1.7,1.4-3,1.4c-1.2,0-2.2-0.5-3-1.4
		c-0.7-0.8-1-1.9-1-3.1c0-1.3,0.3-2.3,1-3.1c0.8-0.9,1.7-1.4,3-1.4c1.2,0,2.2,0.5,3,1.4C69.3,109.1,69.6,110.1,69.6,111.4z
		 M69,111.4c0-1.1-0.3-2-0.8-2.7c-0.6-0.8-1.4-1.1-2.4-1.1c-1,0-1.9,0.4-2.5,1.1c-0.6,0.7-0.8,1.6-0.8,2.7c0,1.1,0.3,2,0.8,2.7
		c0.6,0.8,1.4,1.1,2.5,1.1c1,0,1.8-0.4,2.4-1.1C68.7,113.4,69,112.5,69,111.4z"/>
	<path id="XMLID_56_"  d="M81.5,113.5c0,0.4-0.1,0.8-0.3,1.1c-0.2,0.3-0.4,0.6-0.8,0.8c-0.3,0.2-0.6,0.3-0.9,0.4
		c-0.3,0.1-0.7,0.1-1.1,0.1c-0.5,0-1-0.1-1.4-0.2c-0.4-0.1-0.8-0.3-1.1-0.6c-0.6-0.6-1-1.4-1-2.6h0.7c0,1.8,0.9,2.7,2.7,2.7
		c0.7,0,1.2-0.1,1.7-0.4c0.2-0.2,0.4-0.4,0.5-0.6c0.1-0.2,0.2-0.5,0.2-0.8c0-0.7-0.4-1.2-1.3-1.5h0c-0.1,0-0.1,0-0.2-0.1
		c-0.1,0-0.2,0-0.2-0.1c-0.4-0.1-0.7-0.2-1.1-0.3c-0.4-0.1-0.8-0.2-1.2-0.3c-1-0.4-1.5-1-1.5-2c0-0.8,0.3-1.4,1-1.8
		c0.5-0.3,1.2-0.5,2-0.5c2,0,3,1,3.1,2.9h-0.7c0-1.5-0.9-2.3-2.4-2.3c-0.7,0-1.2,0.1-1.6,0.4c-0.5,0.3-0.7,0.7-0.7,1.3
		c0,0.7,0.4,1.2,1.3,1.4h0c0.2,0.1,0.4,0.1,0.7,0.2c0.2,0.1,0.4,0.1,0.7,0.2c0.2,0.1,0.5,0.1,0.7,0.2c0.2,0.1,0.5,0.1,0.7,0.2
		C81,111.7,81.5,112.4,81.5,113.5z"/>
	<path id="XMLID_54_"  d="M104.6,107l-2.5,8.7h-0.6l-2.2-7.3c-0.4,1.2-0.7,2.4-1.1,3.7c-0.4,1.2-0.7,2.5-1.1,3.7h-0.6
		l-2.5-8.7h0.7l2.1,7.3c0.4-1.2,0.7-2.4,1.1-3.7c0.4-1.2,0.7-2.4,1.1-3.6h0.7l2.2,7.3c0.4-1.2,0.7-2.4,1-3.7c0.3-1.2,0.7-2.5,1-3.7
		H104.6z"/>
	<path id="XMLID_51_"  d="M116,115.7h-5.9V107h5.8v0.7h-5.2v3.1h4.9v0.7h-4.9v3.5h5.2V115.7z"/>
	<path id="XMLID_47_"  d="M127.6,113.2c0,0.8-0.3,1.4-0.9,1.9c-0.5,0.4-1.2,0.6-2,0.6h-3.6V107h3.7
		c0.7,0,1.3,0.2,1.8,0.6c0.5,0.4,0.7,1,0.7,1.7c0,0.3,0,0.5-0.1,0.8s-0.2,0.5-0.4,0.7c-0.1,0.1-0.2,0.2-0.3,0.2
		c-0.1,0.1-0.2,0.1-0.3,0.2c0.3,0.1,0.5,0.3,0.7,0.5h0C127.4,112.1,127.6,112.6,127.6,113.2z M126.6,109.3c0-0.2,0-0.5-0.1-0.7
		c-0.1-0.2-0.2-0.4-0.4-0.5c-0.4-0.3-0.8-0.4-1.3-0.4h-3v3.1h3c0.5,0,1-0.1,1.3-0.4C126.5,110.2,126.6,109.8,126.6,109.3z
		 M126.9,113.2c0-0.6-0.2-1-0.6-1.3c-0.2-0.1-0.4-0.2-0.6-0.3s-0.5-0.1-0.8-0.1h-3v3.5h3c0.6,0,1.1-0.1,1.5-0.4
		C126.7,114.3,126.9,113.8,126.9,113.2z"/>
	<path id="XMLID_45_"  d="M147.3,107l-3.5,5v3.6h-0.7v-3.6c-0.3-0.4-0.6-0.8-0.8-1.2s-0.6-0.9-0.9-1.3
		c-0.3-0.4-0.6-0.9-0.9-1.3c-0.3-0.4-0.6-0.8-0.8-1.2h0.8l3,4.3c0.5-0.7,1-1.5,1.5-2.2c0.5-0.7,1-1.4,1.5-2.2H147.3z"/>
	<path id="XMLID_42_"  d="M166.7,115.7h-0.7l-1.1-2.7H161c-0.2,0.4-0.4,0.9-0.6,1.4c-0.2,0.5-0.4,0.9-0.5,1.3h-0.8
		l3.5-8.7h0.6L166.7,115.7z M164.6,112.3c-0.1-0.4-0.3-0.7-0.4-1.1c-0.1-0.3-0.3-0.7-0.4-1c-0.1-0.3-0.3-0.7-0.4-1
		c-0.1-0.3-0.3-0.7-0.4-1.1c-0.3,0.7-0.6,1.4-0.8,2.1s-0.5,1.4-0.8,2.1H164.6z"/>
	<path id="XMLID_39_"  d="M178,109.5c0,1-0.4,1.7-1.2,2.1h0c-0.4,0.3-1,0.4-1.5,0.4h-2.8v3.7h-0.7V107h3.5
		c0.8,0,1.5,0.2,1.9,0.6C177.8,108.1,178,108.7,178,109.5z M177.4,109.5c0-1.2-0.7-1.8-2-1.8h-2.8v3.6h2.8c0.6,0,1.1-0.2,1.4-0.5
		C177.2,110.5,177.4,110.1,177.4,109.5z"/>
	<path id="XMLID_37_"  d="M188.6,115.7h-5.4V107h0.7v8h4.7V115.7z"/>
	<path id="XMLID_35_"  d="M194.2,115.7h-0.7V107h0.7V115.7z"/>
	<path id="XMLID_33_"  d="M207.4,112c-0.1,0.6-0.2,1.2-0.4,1.6c-0.2,0.5-0.5,0.9-0.8,1.2c-0.7,0.7-1.6,1-2.6,1
		c-1.2,0-2.2-0.5-2.9-1.4c-0.7-0.8-1-1.8-1-3.1c0-1.3,0.3-2.4,1-3.2c0.8-0.9,1.8-1.4,3-1.4c0.9,0,1.6,0.3,2.3,0.8
		c0.8,0.6,1.2,1.4,1.2,2.4h-0.7c-0.1-0.8-0.4-1.4-0.9-1.8c-0.5-0.4-1.2-0.6-1.8-0.6c-1,0-1.8,0.4-2.5,1.2c-0.6,0.7-0.9,1.6-0.9,2.7
		c0,1,0.3,1.9,0.9,2.6c0.6,0.8,1.4,1.1,2.4,1.1c0.9,0,1.6-0.3,2.1-0.8c0.3-0.3,0.5-0.6,0.6-1s0.3-0.8,0.3-1.4H207.4z"/>
	<path id="XMLID_30_"  d="M219.8,115.7h-0.7L218,113h-3.8c-0.2,0.4-0.4,0.9-0.6,1.4s-0.4,0.9-0.5,1.3h-0.8l3.5-8.7h0.6
		L219.8,115.7z M217.8,112.3c-0.1-0.4-0.3-0.7-0.4-1.1c-0.1-0.3-0.3-0.7-0.4-1c-0.1-0.3-0.3-0.7-0.4-1c-0.1-0.3-0.3-0.7-0.4-1.1
		c-0.3,0.7-0.6,1.4-0.8,2.1c-0.3,0.7-0.5,1.4-0.8,2.1H217.8z"/>
	<path id="XMLID_28_"  d="M232.6,112c-0.1,0.6-0.2,1.2-0.4,1.6c-0.2,0.5-0.5,0.9-0.8,1.2c-0.7,0.7-1.6,1-2.6,1
		c-1.2,0-2.2-0.5-2.9-1.4c-0.7-0.8-1-1.8-1-3.1c0-1.3,0.3-2.4,1-3.2c0.8-0.9,1.8-1.4,3-1.4c0.9,0,1.6,0.3,2.3,0.8
		c0.8,0.6,1.2,1.4,1.2,2.4h-0.7c-0.1-0.8-0.4-1.4-0.9-1.8c-0.5-0.4-1.2-0.6-1.8-0.6c-1,0-1.8,0.4-2.5,1.2c-0.6,0.7-0.9,1.6-0.9,2.7
		c0,1,0.3,1.9,0.9,2.6c0.6,0.8,1.4,1.1,2.4,1.1c0.9,0,1.6-0.3,2.1-0.8c0.3-0.3,0.5-0.6,0.6-1s0.3-0.8,0.3-1.4H232.6z"/>
	<path id="XMLID_26_"  d="M238.6,115.7h-0.7V107h0.7V115.7z"/>
	<path id="XMLID_23_"  d="M252,111.4c0,1.3-0.3,2.3-1,3.1c-0.8,0.9-1.7,1.4-3,1.4c-1.2,0-2.2-0.5-3-1.4
		c-0.7-0.8-1-1.9-1-3.1c0-1.3,0.3-2.3,1-3.1c0.8-0.9,1.7-1.4,3-1.4c1.2,0,2.2,0.5,3,1.4C251.6,109.1,252,110.1,252,111.4z
		 M251.3,111.4c0-1.1-0.3-2-0.8-2.7c-0.6-0.8-1.4-1.1-2.4-1.1c-1,0-1.9,0.4-2.5,1.1c-0.6,0.7-0.8,1.6-0.8,2.7c0,1.1,0.3,2,0.8,2.7
		c0.6,0.8,1.4,1.1,2.5,1.1c1,0,1.8-0.4,2.4-1.1C251,113.4,251.3,112.5,251.3,111.4z"/>
	<path id="XMLID_21_"  d="M264.1,115.7h-0.7l-5.2-7.4v7.4h-0.7V107h0.7l5.2,7.4V107h0.7V115.7z"/>
	<path id="XMLID_19_"  d="M275.5,115.7h-5.9V107h5.8v0.7h-5.2v3.1h4.9v0.7h-4.9v3.5h5.2V115.7z"/>
	<path id="XMLID_17_"  d="M285.4,113.5c0,0.4-0.1,0.8-0.3,1.1c-0.2,0.3-0.4,0.6-0.8,0.8c-0.3,0.2-0.6,0.3-0.9,0.4
		c-0.3,0.1-0.7,0.1-1.1,0.1c-0.5,0-1-0.1-1.4-0.2s-0.8-0.3-1.1-0.6c-0.6-0.6-1-1.4-1-2.6h0.7c0,1.8,0.9,2.7,2.7,2.7
		c0.7,0,1.2-0.1,1.7-0.4c0.2-0.2,0.4-0.4,0.5-0.6c0.1-0.2,0.2-0.5,0.2-0.8c0-0.7-0.4-1.2-1.3-1.5h0c-0.1,0-0.1,0-0.2-0.1
		c-0.1,0-0.2,0-0.2-0.1c-0.4-0.1-0.7-0.2-1.1-0.3c-0.4-0.1-0.8-0.2-1.2-0.3c-1-0.4-1.5-1-1.5-2c0-0.8,0.3-1.4,1-1.8
		c0.5-0.3,1.2-0.5,2-0.5c2,0,3,1,3.1,2.9h-0.7c0-1.5-0.9-2.3-2.4-2.3c-0.7,0-1.2,0.1-1.6,0.4c-0.5,0.3-0.7,0.7-0.7,1.3
		c0,0.7,0.4,1.2,1.3,1.4h0c0.2,0.1,0.4,0.1,0.7,0.2c0.2,0.1,0.4,0.1,0.7,0.2c0.2,0.1,0.5,0.1,0.7,0.2c0.2,0.1,0.5,0.1,0.7,0.2
		C284.9,111.7,285.4,112.4,285.4,113.5z"/>
</g>
</svg>
