<!-- Generator: Adobe Illustrator 19.0.0, SVG Export Plug-In  -->
<svg version="1.1"
	 xmlns="http://www.w3.org/2000/svg" xmlns:xlink="http://www.w3.org/1999/xlink" xmlns:a="http://ns.adobe.com/AdobeSVGViewerExtensions/3.0/"
	 x="0px" y="0px" width="285.4px" height="108.8px" viewBox="0 0 285.4 108.8" style="enable-background:new 0 0 285.4 108.8;"
	 xml:space="preserve">
<g>
	<g>
		<g>
			<g>
				<g>
					<path d="M142.7,65.3c-0.5,0-1.1,0-1.6,0c-18-0.9-31.9-16.3-31-34.3l0,0c0.9-18,16.3-31.9,34.3-31
						c8.7,0.4,16.7,4.2,22.6,10.7c5.9,6.5,8.8,14.8,8.4,23.6C174.4,51.7,160,65.3,142.7,65.3z M113.5,31.1
						c-0.8,16.1,11.6,29.9,27.8,30.7c16.1,0.8,29.9-11.6,30.7-27.8c0.4-7.8-2.3-15.3-7.5-21.1s-12.4-9.2-20.2-9.6
						C128,2.6,114.3,15,113.5,31.1L113.5,31.1z"/>
				</g>
			</g>
		</g>
	</g>
	<g>
		<g>
			<path d="M162.9,28.5v-0.8c0-1.4-0.4-2.8-1.1-4.2c-0.3-0.7-0.9-1.5-1.7-2.2c-1.9-2-4.4-2.9-7.7-2.9h-1h-17.5h-1
				c-3.3,0-5.8,1-7.7,2.9c-0.8,0.8-1.4,1.5-1.7,2.2c-0.7,1.4-1.1,2.8-1.1,4.2v0.8c0,2.1,0.9,4.2,2.7,6.2c1.2,1.1,2.2,1.8,3.2,2.2
				c-2.4,2.6-3.6,6-3.6,10.2h5.8v-0.4c0-3.1,1.1-5.8,3.7-7.6c1.5-1,3.5-1.4,5.8-1.4h5.2c2.3,0,4.1,0.4,5.6,1.4
				c2.5,1.9,3.9,4.5,3.9,7.6v0.4h5.8c0-4.2-1.2-7.7-3.6-10.2c1-0.3,2-1,3.2-2.2C162,32.6,162.9,30.6,162.9,28.5z M157,29
				c-0.7,2-2.1,3.1-4.2,3.1h-1.4h-17.5h-1.4c-2.1,0-3.5-1-4.2-3.1c-0.1-0.4-0.1-0.8-0.2-1c0-1.1,0.5-2.2,1.4-3.1
				c0.8-0.6,1.7-1,2.6-1c0-0.1,0.3-0.1,0.8-0.1h18.4l0,0h0.9c0.6,0,0.8,0,0.8,0.1c0.9,0,1.8,0.3,2.6,1c0.9,0.9,1.4,1.9,1.4,3.1
				C157.1,28.2,157,28.6,157,29z"/>
		</g>
		<g>
			<g>
				<path d="M131.9,26.6c-1.2-0.1-2.1,0-2,1.3c0,1.3,0.8,1.4,2,1.3c1.2,0.1,2.1,0,2-1.3
					C133.9,26.6,133.1,26.5,131.9,26.6z"/>
			</g>
		</g>
		<g>
			<g>
				<path d="M153.6,26.6c-1.2-0.1-2.1,0-2,1.3c0,1.3,0.8,1.4,2,1.3c1.2,0.1,2.1,0,2-1.3
					C155.6,26.6,154.8,26.5,153.6,26.6z"/>
			</g>
		</g>
	</g>
</g>
<g>
	<path d="M7.7,104.9c-0.1,0.6-0.2,1.2-0.4,1.6c-0.2,0.5-0.5,0.9-0.8,1.2c-0.7,0.7-1.6,1-2.6,1
		c-1.2,0-2.2-0.5-2.9-1.4c-0.7-0.8-1-1.8-1-3.1c0-1.3,0.3-2.4,1-3.2c0.8-0.9,1.8-1.4,3-1.4c0.9,0,1.6,0.3,2.3,0.8
		c0.8,0.6,1.2,1.4,1.2,2.4H6.8c-0.1-0.8-0.4-1.4-0.9-1.8s-1.2-0.6-1.8-0.6c-1,0-1.8,0.4-2.5,1.2c-0.6,0.7-0.9,1.6-0.9,2.7
		c0,1,0.3,1.9,0.9,2.6C2.2,107.7,3,108,4,108c0.9,0,1.6-0.3,2.1-0.8c0.3-0.3,0.5-0.6,0.6-1s0.3-0.8,0.3-1.3H7.7z"/>
	<path d="M18.6,108.6l-1.7-3.8h-3.1v3.8h-0.7v-8.7h3.5c1.8,0,2.7,0.8,2.7,2.3c0,1.2-0.6,2-1.8,2.4
		c0.3,0.6,0.6,1.3,0.9,2s0.6,1.4,0.9,2C19.3,108.6,18.6,108.6,18.6,108.6z M18.7,102.2c0-1.1-0.7-1.6-2-1.6h-2.9v3.4h2.8
		c0.6,0,1.1-0.2,1.5-0.5l0,0C18.5,103.3,18.7,102.8,18.7,102.2z"/>
	<path d="M30.7,108.6h-5.9v-8.7h5.8v0.7h-5.2v3.1h4.9v0.7h-4.9v3.5h5.2L30.7,108.6L30.7,108.6z"/>
	<path d="M42.9,108.6h-0.7l-1.1-2.7h-3.8c-0.2,0.4-0.4,0.9-0.6,1.4s-0.4,0.9-0.5,1.3h-0.8l3.5-8.7h0.6L42.9,108.6z
		 M40.8,105.2c-0.1-0.4-0.3-0.7-0.4-1.1c-0.1-0.3-0.3-0.7-0.4-1c-0.1-0.3-0.3-0.7-0.4-1c-0.1-0.3-0.3-0.7-0.4-1.1
		c-0.3,0.7-0.6,1.4-0.8,2.1s-0.5,1.4-0.8,2.1H40.8z"/>
	<path d="M56.2,108.6h-0.7v-7.1c-0.5,1.2-1,2.4-1.5,3.5c-0.5,1.2-1,2.4-1.5,3.5h-0.6l-3.1-7v7h-0.7v-8.6h0.7l3.3,7.6
		c0.5-1.2,1.1-2.5,1.7-3.8c0.6-1.3,1.1-2.5,1.6-3.8h0.7L56.2,108.6L56.2,108.6z"/>
	<path d="M69.6,104.3c0,1.3-0.3,2.3-1,3.1c-0.8,0.9-1.7,1.4-3,1.4c-1.2,0-2.2-0.5-3-1.4c-0.7-0.8-1-1.9-1-3.1
		c0-1.3,0.3-2.3,1-3.1c0.8-0.9,1.7-1.4,3-1.4c1.2,0,2.2,0.5,3,1.4C69.3,102,69.6,103,69.6,104.3z M69,104.3c0-1.1-0.3-2-0.8-2.7
		c-0.6-0.8-1.4-1.1-2.4-1.1s-1.9,0.4-2.5,1.1s-0.8,1.6-0.8,2.7s0.3,2,0.8,2.7c0.6,0.8,1.4,1.1,2.5,1.1c1,0,1.8-0.4,2.4-1.1
		C68.7,106.3,69,105.4,69,104.3z"/>
	<path d="M81.5,106.4c0,0.4-0.1,0.8-0.3,1.1c-0.2,0.3-0.4,0.6-0.8,0.8c-0.3,0.2-0.6,0.3-0.9,0.4s-0.7,0.1-1.1,0.1
		c-0.5,0-1-0.1-1.4-0.2s-0.8-0.3-1.1-0.6c-0.6-0.6-1-1.4-1-2.6h0.7c0,1.8,0.9,2.7,2.7,2.7c0.7,0,1.2-0.1,1.7-0.4
		c0.2-0.2,0.4-0.4,0.5-0.6s0.2-0.5,0.2-0.8c0-0.7-0.4-1.2-1.3-1.5l0,0c-0.1,0-0.1,0-0.2-0.1c-0.1,0-0.2,0-0.2-0.1
		c-0.4-0.1-0.7-0.2-1.1-0.3c-0.4-0.1-0.8-0.2-1.2-0.3c-1-0.4-1.5-1-1.5-2c0-0.8,0.3-1.4,1-1.8c0.5-0.3,1.2-0.5,2-0.5
		c2,0,3,1,3.1,2.9h-0.7c0-1.5-0.9-2.3-2.4-2.3c-0.7,0-1.2,0.1-1.6,0.4c-0.5,0.3-0.7,0.7-0.7,1.3c0,0.7,0.4,1.2,1.3,1.4l0,0
		c0.2,0.1,0.4,0.1,0.7,0.2c0.2,0.1,0.4,0.1,0.7,0.2c0.2,0.1,0.5,0.1,0.7,0.2s0.5,0.1,0.7,0.2C81,104.6,81.5,105.3,81.5,106.4z"/>
	<path d="M104.6,99.9l-2.5,8.7h-0.6l-2.2-7.3c-0.4,1.2-0.7,2.4-1.1,3.7c-0.4,1.2-0.7,2.5-1.1,3.7h-0.6L94,100h0.7
		l2.1,7.3c0.4-1.2,0.7-2.4,1.1-3.7c0.4-1.2,0.7-2.4,1.1-3.6h0.7l2.2,7.3c0.4-1.2,0.7-2.4,1-3.7c0.3-1.2,0.7-2.5,1-3.7
		C103.9,99.9,104.6,99.9,104.6,99.9z"/>
	<path d="M116,108.6h-5.9v-8.7h5.8v0.7h-5.2v3.1h4.9v0.7h-4.9v3.5h5.2L116,108.6L116,108.6z"/>
	<path d="M127.6,106.1c0,0.8-0.3,1.4-0.9,1.9c-0.5,0.4-1.2,0.6-2,0.6h-3.6v-8.7h3.7c0.7,0,1.3,0.2,1.8,0.6
		s0.7,1,0.7,1.7c0,0.3,0,0.5-0.1,0.8s-0.2,0.5-0.4,0.7c-0.1,0.1-0.2,0.2-0.3,0.2c-0.1,0.1-0.2,0.1-0.3,0.2c0.3,0.1,0.5,0.3,0.7,0.5
		l0,0C127.4,105,127.6,105.5,127.6,106.1z M126.6,102.2c0-0.2,0-0.5-0.1-0.7s-0.2-0.4-0.4-0.5c-0.4-0.3-0.8-0.4-1.3-0.4h-3v3.1h3
		c0.5,0,1-0.1,1.3-0.4C126.5,103.1,126.6,102.7,126.6,102.2z M126.9,106.1c0-0.6-0.2-1-0.6-1.3c-0.2-0.1-0.4-0.2-0.6-0.3
		s-0.5-0.1-0.8-0.1h-3v3.5h3c0.6,0,1.1-0.1,1.5-0.4C126.7,107.2,126.9,106.7,126.9,106.1z"/>
	<path d="M147.3,99.9l-3.5,5v3.6h-0.7v-3.6c-0.3-0.4-0.6-0.8-0.8-1.2s-0.6-0.9-0.9-1.3c-0.3-0.4-0.6-0.9-0.9-1.3
		c-0.3-0.4-0.6-0.8-0.8-1.2h0.8l3,4.3c0.5-0.7,1-1.5,1.5-2.2s1-1.4,1.5-2.2L147.3,99.9L147.3,99.9z"/>
	<path d="M166.7,108.6H166l-1.1-2.7H161c-0.2,0.4-0.4,0.9-0.6,1.4c-0.2,0.5-0.4,0.9-0.5,1.3h-0.8l3.5-8.7h0.6
		L166.7,108.6z M164.6,105.2c-0.1-0.4-0.3-0.7-0.4-1.1c-0.1-0.3-0.3-0.7-0.4-1c-0.1-0.3-0.3-0.7-0.4-1c-0.1-0.3-0.3-0.7-0.4-1.1
		c-0.3,0.7-0.6,1.4-0.8,2.1s-0.5,1.4-0.8,2.1H164.6z"/>
	<path d="M178,102.4c0,1-0.4,1.7-1.2,2.1l0,0c-0.4,0.3-1,0.4-1.5,0.4h-2.8v3.7h-0.7v-8.7h3.5c0.8,0,1.5,0.2,1.9,0.6
		C177.8,101,178,101.6,178,102.4z M177.4,102.4c0-1.2-0.7-1.8-2-1.8h-2.8v3.6h2.8c0.6,0,1.1-0.2,1.4-0.5
		C177.2,103.4,177.4,103,177.4,102.4z"/>
	<path d="M188.6,108.6h-5.4v-8.7h0.7v8h4.7V108.6z"/>
	<path d="M194.2,108.6h-0.7v-8.7h0.7V108.6z"/>
	<path d="M207.4,104.9c-0.1,0.6-0.2,1.2-0.4,1.6c-0.2,0.5-0.5,0.9-0.8,1.2c-0.7,0.7-1.6,1-2.6,1
		c-1.2,0-2.2-0.5-2.9-1.4c-0.7-0.8-1-1.8-1-3.1c0-1.3,0.3-2.4,1-3.2c0.8-0.9,1.8-1.4,3-1.4c0.9,0,1.6,0.3,2.3,0.8
		c0.8,0.6,1.2,1.4,1.2,2.4h-0.7c-0.1-0.8-0.4-1.4-0.9-1.8s-1.2-0.6-1.8-0.6c-1,0-1.8,0.4-2.5,1.2c-0.6,0.7-0.9,1.6-0.9,2.7
		c0,1,0.3,1.9,0.9,2.6c0.6,0.8,1.4,1.1,2.4,1.1c0.9,0,1.6-0.3,2.1-0.8c0.3-0.3,0.5-0.6,0.6-1s0.3-0.8,0.3-1.4h0.7V104.9z"/>
	<path d="M219.8,108.6h-0.7l-1.1-2.7h-3.8c-0.2,0.4-0.4,0.9-0.6,1.4s-0.4,0.9-0.5,1.3h-0.8l3.5-8.7h0.6L219.8,108.6z
		 M217.8,105.2c-0.1-0.4-0.3-0.7-0.4-1.1c-0.1-0.3-0.3-0.7-0.4-1c-0.1-0.3-0.3-0.7-0.4-1c-0.1-0.3-0.3-0.7-0.4-1.1
		c-0.3,0.7-0.6,1.4-0.8,2.1c-0.3,0.7-0.5,1.4-0.8,2.1H217.8z"/>
	<path d="M232.6,104.9c-0.1,0.6-0.2,1.2-0.4,1.6c-0.2,0.5-0.5,0.9-0.8,1.2c-0.7,0.7-1.6,1-2.6,1
		c-1.2,0-2.2-0.5-2.9-1.4c-0.7-0.8-1-1.8-1-3.1c0-1.3,0.3-2.4,1-3.2c0.8-0.9,1.8-1.4,3-1.4c0.9,0,1.6,0.3,2.3,0.8
		c0.8,0.6,1.2,1.4,1.2,2.4h-0.7c-0.1-0.8-0.4-1.4-0.9-1.8s-1.2-0.6-1.8-0.6c-1,0-1.8,0.4-2.5,1.2c-0.6,0.7-0.9,1.6-0.9,2.7
		c0,1,0.3,1.9,0.9,2.6c0.6,0.8,1.4,1.1,2.4,1.1c0.9,0,1.6-0.3,2.1-0.8c0.3-0.3,0.5-0.6,0.6-1s0.3-0.8,0.3-1.4h0.7V104.9z"/>
	<path d="M238.6,108.6h-0.7v-8.7h0.7V108.6z"/>
	<path d="M252,104.3c0,1.3-0.3,2.3-1,3.1c-0.8,0.9-1.7,1.4-3,1.4c-1.2,0-2.2-0.5-3-1.4c-0.7-0.8-1-1.9-1-3.1
		c0-1.3,0.3-2.3,1-3.1c0.8-0.9,1.7-1.4,3-1.4c1.2,0,2.2,0.5,3,1.4C251.6,102,252,103,252,104.3z M251.3,104.3c0-1.1-0.3-2-0.8-2.7
		c-0.6-0.8-1.4-1.1-2.4-1.1s-1.9,0.4-2.5,1.1s-0.8,1.6-0.8,2.7s0.3,2,0.8,2.7c0.6,0.8,1.4,1.1,2.5,1.1c1,0,1.8-0.4,2.4-1.1
		C251,106.3,251.3,105.4,251.3,104.3z"/>
	<path d="M264.1,108.6h-0.7l-5.2-7.4v7.4h-0.7v-8.7h0.7l5.2,7.4v-7.4h0.7V108.6z"/>
	<path d="M275.5,108.6h-5.9v-8.7h5.8v0.7h-5.2v3.1h4.9v0.7h-4.9v3.5h5.2v0.7H275.5z"/>
	<path d="M285.4,106.4c0,0.4-0.1,0.8-0.3,1.1c-0.2,0.3-0.4,0.6-0.8,0.8c-0.3,0.2-0.6,0.3-0.9,0.4s-0.7,0.1-1.1,0.1
		c-0.5,0-1-0.1-1.4-0.2s-0.8-0.3-1.1-0.6c-0.6-0.6-1-1.4-1-2.6h0.7c0,1.8,0.9,2.7,2.7,2.7c0.7,0,1.2-0.1,1.7-0.4
		c0.2-0.2,0.4-0.4,0.5-0.6s0.2-0.5,0.2-0.8c0-0.7-0.4-1.2-1.3-1.5l0,0c-0.1,0-0.1,0-0.2-0.1c-0.1,0-0.2,0-0.2-0.1
		c-0.4-0.1-0.7-0.2-1.1-0.3c-0.4-0.1-0.8-0.2-1.2-0.3c-1-0.4-1.5-1-1.5-2c0-0.8,0.3-1.4,1-1.8c0.5-0.3,1.2-0.5,2-0.5
		c2,0,3,1,3.1,2.9h-0.7c0-1.5-0.9-2.3-2.4-2.3c-0.7,0-1.2,0.1-1.6,0.4c-0.5,0.3-0.7,0.7-0.7,1.3c0,0.7,0.4,1.2,1.3,1.4l0,0
		c0.2,0.1,0.4,0.1,0.7,0.2c0.2,0.1,0.4,0.1,0.7,0.2c0.2,0.1,0.5,0.1,0.7,0.2s0.5,0.1,0.7,0.2C284.9,104.6,285.4,105.3,285.4,106.4z"
		/>
</g>
<g>
	<path d="M13.9,95.5l-3.9-9H2.8v9H1.2V75.2h8.3c4.2,0,6.3,1.8,6.3,5.5c0,2.7-1.4,4.6-4.1,5.5c0.6,1.5,1.3,3.1,2,4.7
		c0.7,1.6,1.4,3.2,2,4.6H13.9z M14.2,80.6c0-2.5-1.5-3.8-4.6-3.8H2.8v8.1h6.6c1.4,0,2.5-0.4,3.5-1.1l0,0C13.7,83,14.2,82,14.2,80.6z
		"/>
	<path d="M35.8,85.3c0,3-0.8,5.5-2.3,7.4c-1.8,2.2-4.1,3.2-7,3.2c-2.9,0-5.2-1.1-7-3.2c-1.5-1.9-2.3-4.4-2.3-7.4
		c0-3,0.8-5.4,2.3-7.4c1.8-2.2,4.1-3.2,7-3.2c2.9,0,5.2,1.1,7,3.2C35,79.9,35.8,82.4,35.8,85.3z M34.2,85.3c0-2.6-0.6-4.7-1.9-6.3
		c-1.4-1.8-3.3-2.7-5.7-2.7c-2.4,0-4.3,0.9-5.8,2.7c-1.3,1.6-1.9,3.8-1.9,6.3s0.6,4.7,1.9,6.4c1.4,1.8,3.3,2.7,5.8,2.7
		c2.4,0,4.3-0.9,5.7-2.7C33.5,90.1,34.2,87.9,34.2,85.3z"/>
	<path d="M55.4,86.9c-0.2,1.4-0.5,2.7-1,3.8c-0.5,1.1-1.1,2-1.8,2.8c-1.6,1.6-3.7,2.5-6.1,2.5c-2.8,0-5.1-1.1-6.8-3.2
		c-1.6-1.9-2.3-4.3-2.3-7.2c0-3,0.8-5.5,2.4-7.5c1.8-2.2,4.1-3.2,7.1-3.2c2,0,3.8,0.6,5.3,1.8c1.8,1.4,2.7,3.2,2.8,5.5h-1.6
		c-0.1-1.8-0.9-3.3-2.2-4.3c-1.3-0.9-2.7-1.4-4.3-1.4c-2.4,0-4.3,0.9-5.8,2.7c-1.4,1.7-2,3.9-2,6.4c0,2.4,0.7,4.5,2,6.2
		c1.4,1.8,3.2,2.7,5.5,2.7c2,0,3.7-0.7,5-2c0.6-0.6,1.1-1.4,1.5-2.3c0.4-0.9,0.7-2,0.8-3.2H55.4z"/>
	<path d="M73.6,95.5h-2.1L62.3,85c-0.7,0.6-1.3,1.1-1.9,1.7c-0.6,0.5-1.2,1.1-1.9,1.7v7.1h-1.6V75.2h1.6v11.1
		c2.1-1.8,4.1-3.7,6.2-5.5c2.1-1.9,4.2-3.7,6.2-5.5h2.4L63.5,84L73.6,95.5z"/>
	<path d="M96.8,95.5h-1.7l-2.5-6.3h-8.9c-0.4,1-0.8,2.1-1.3,3.2c-0.4,1.1-0.9,2.2-1.2,3.2h-1.8l8.1-20.3h1.4L96.8,95.5z
		 M92,87.6c-0.3-0.9-0.7-1.7-1-2.5s-0.6-1.6-0.9-2.3c-0.3-0.8-0.6-1.6-0.9-2.4c-0.3-0.8-0.6-1.7-1-2.6c-0.7,1.7-1.3,3.3-1.9,4.9
		c-0.6,1.6-1.3,3.2-2,5H92z"/>
	<path d="M113.3,95.5h-1.6L99.5,78.1v17.5h-1.6V75.2h1.6l12.2,17.5V75.2h1.6V95.5z"/>
	<path d="M131.1,85.3c0,3-0.8,5.5-2.4,7.3c-1.7,1.9-4.1,2.9-7,2.9h-6.4V75.2h7.2c2.9,0,5.1,1,6.6,3
		C130.4,80,131.1,82.4,131.1,85.3z M129.5,85.3c0-2.6-0.6-4.7-1.7-6.2c-1.2-1.6-3-2.4-5.5-2.4h-5.4v17.1h4.9c1.2,0,2.3-0.2,3.3-0.6
		c1-0.4,1.8-1,2.5-1.8C128.8,90,129.5,87.9,129.5,85.3z"/>
	<path d="M151.2,95.5l-3.9-9h-7.2v9h-1.6V75.2h8.3c4.2,0,6.3,1.8,6.3,5.5c0,2.7-1.4,4.6-4.1,5.5c0.6,1.5,1.3,3.1,2,4.7
		c0.7,1.6,1.4,3.2,2,4.6H151.2z M151.5,80.6c0-2.5-1.5-3.8-4.6-3.8h-6.8v8.1h6.6c1.4,0,2.5-0.4,3.5-1.1l0,0
		C151,83,151.5,82,151.5,80.6z"/>
	<path d="M173.1,85.3c0,3-0.8,5.5-2.3,7.4c-1.8,2.2-4.1,3.2-7,3.2c-2.9,0-5.2-1.1-7-3.2c-1.5-1.9-2.3-4.4-2.3-7.4
		c0-3,0.8-5.4,2.3-7.4c1.8-2.2,4.1-3.2,7-3.2c2.9,0,5.2,1.1,7,3.2C172.3,79.9,173.1,82.4,173.1,85.3z M171.5,85.3
		c0-2.6-0.6-4.7-1.9-6.3c-1.4-1.8-3.3-2.7-5.7-2.7c-2.4,0-4.3,0.9-5.8,2.7c-1.3,1.6-1.9,3.8-1.9,6.3s0.6,4.7,1.9,6.4
		c1.4,1.8,3.3,2.7,5.8,2.7c2.4,0,4.3-0.9,5.7-2.7C170.9,90.1,171.5,87.9,171.5,85.3z"/>
	<path d="M187.6,95.5l-3.9-9h-7.2v9h-1.6V75.2h8.3c4.2,0,6.3,1.8,6.3,5.5c0,2.7-1.4,4.6-4.1,5.5c0.6,1.5,1.3,3.1,2,4.7
		c0.7,1.6,1.4,3.2,2,4.6H187.6z M187.9,80.6c0-2.5-1.5-3.8-4.6-3.8h-6.8v8.1h6.6c1.4,0,2.5-0.4,3.5-1.1l0,0
		C187.4,83,187.9,82,187.9,80.6z"/>
	<path d="M211.8,90.2c0,0.9-0.2,1.8-0.6,2.5c-0.4,0.7-1,1.4-1.8,1.9c-0.7,0.4-1.4,0.7-2.2,1s-1.7,0.3-2.6,0.3
		c-1.2,0-2.3-0.2-3.3-0.5s-1.8-0.7-2.5-1.3c-1.5-1.3-2.2-3.3-2.2-6.1h1.6c0,4.2,2.1,6.3,6.4,6.3c1.5,0,2.8-0.3,3.9-1
		c0.5-0.4,1-0.8,1.3-1.4s0.5-1.1,0.5-1.8c0-1.7-1-2.9-3-3.6h0c-0.2,0-0.3-0.1-0.5-0.1c-0.2-0.1-0.4-0.1-0.5-0.1
		c-0.9-0.2-1.7-0.5-2.7-0.7c-0.9-0.2-1.8-0.5-2.7-0.7c-2.4-0.9-3.6-2.4-3.6-4.7c0-1.9,0.8-3.3,2.3-4.3c1.2-0.8,2.8-1.2,4.7-1.2
		c4.7,0,7.1,2.3,7.3,6.9h-1.6c-0.1-3.5-2-5.3-5.7-5.3c-1.6,0-2.8,0.3-3.8,0.9c-1.1,0.7-1.7,1.7-1.7,3c0,1.6,1,2.7,3,3.4h0
		c0.5,0.2,1,0.3,1.6,0.4c0.5,0.1,1,0.3,1.6,0.4c0.5,0.1,1.1,0.3,1.6,0.4c0.6,0.1,1.1,0.3,1.6,0.4C210.6,86.1,211.8,87.8,211.8,90.2z
		"/>
	<path d="M227.6,76.8h-6.8v18.7h-1.6V76.8h-6.8v-1.6h15.3V76.8z"/>
	<path d="M243.4,87.8c0,1.3-0.1,2.4-0.4,3.4c-0.3,1-0.7,1.8-1.4,2.5c-1.3,1.5-3.2,2.3-5.7,2.3c-2.5,0-4.4-0.8-5.7-2.3
		c-1.2-1.4-1.8-3.4-1.8-5.9V75.2h1.6v12.6c0,4.4,2,6.6,5.9,6.6c3.9,0,5.9-2.2,5.9-6.6V75.2h1.6V87.8z"/>
	<path d="M261,85.3c0,3-0.8,5.5-2.4,7.3c-1.7,1.9-4.1,2.9-7,2.9h-6.4V75.2h7.2c2.9,0,5.1,1,6.6,3
		C260.4,80,261,82.4,261,85.3z M259.4,85.3c0-2.6-0.6-4.7-1.7-6.2c-1.2-1.6-3-2.4-5.5-2.4h-5.4v17.1h4.9c1.2,0,2.3-0.2,3.3-0.6
		s1.8-1,2.5-1.8C258.8,90,259.4,87.9,259.4,85.3z"/>
	<path d="M264.1,95.5h-1.6V75.2h1.6V95.5z"/>
	<path d="M284.2,85.3c0,3-0.8,5.5-2.3,7.4c-1.8,2.2-4.1,3.2-7,3.2c-2.9,0-5.2-1.1-7-3.2c-1.5-1.9-2.3-4.4-2.3-7.4
		c0-3,0.8-5.4,2.3-7.4c1.8-2.2,4.1-3.2,7-3.2c2.9,0,5.2,1.1,7,3.2C283.5,79.9,284.2,82.4,284.2,85.3z M282.6,85.3
		c0-2.6-0.6-4.7-1.9-6.3c-1.4-1.8-3.3-2.7-5.7-2.7c-2.4,0-4.3,0.9-5.8,2.7c-1.3,1.6-1.9,3.8-1.9,6.3s0.6,4.7,1.9,6.4
		c1.4,1.8,3.3,2.7,5.8,2.7c2.4,0,4.3-0.9,5.7-2.7C282,90.1,282.6,87.9,282.6,85.3z"/>
</g>
</svg>
