<?xml version="1.0" encoding="utf-8"?>
<!-- Generator: Adobe Illustrator 19.0.0, SVG Export Plug-In . SVG Version: 6.00 Build 0)  -->
<svg version="1.1" id="Livello_1" xmlns="http://www.w3.org/2000/svg" xmlns:xlink="http://www.w3.org/1999/xlink" x="0px" y="0px"
	 width="137.9px" height="40.4px" viewBox="19 30.6 137.9 40.4" style="enable-background:new 19 30.6 137.9 40.4;"
	 xml:space="preserve">
<polygon points="83.4,58.2 82,48.7 78.5,58.2 77.3,58.2 73.8,48.8 72.3,58.2 69.8,58.2 72,44.7 74.6,44.7 77.9,53.5 81.2,44.7 
	83.8,44.7 86,58.2 "/>
<path d="M93.4,47.4l-2,5.9h4L93.4,47.4L93.4,47.4z M97,58.2l-1-2.8h-5.4l-0.9,2.7h-2.8l4.9-13.5h3l4.9,13.5L97,58.2L97,58.2z"/>
<path d="M106.4,46.8h-2.9V56h2.9c1.7,0,3.5-1.1,3.5-4.6C110,47.8,107.7,46.8,106.4,46.8L106.4,46.8z M106.9,58.2h-5.8V44.7h5.4
	c3.3,0,6.2,2.2,6.2,6.5C112.6,55.2,110.2,58.2,106.9,58.2L106.9,58.2z"/>
<path d="M119.2,46.8h-1.8V51h1.8c1.3,0,2.2-1,2.2-2.2C121.5,47.7,120.8,46.8,119.2,46.8L119.2,46.8z M122.5,58.2l-3.3-5.3h-1.8v5.3
	h-2.5V44.7h4.3c3.4,0,4.9,1.5,4.9,3.8c0,2-1.3,3-2.6,3.6l4.1,6.1H122.5L122.5,58.2z"/>
<path d="M138.2,46.8h-2.8V56h2.8c1.7,0,3.5-1.1,3.5-4.6C141.8,47.8,139.5,46.8,138.2,46.8L138.2,46.8z M138.7,58.2h-5.8V44.7h5.4
	c3.3,0,6.2,2.2,6.2,6.5C144.4,55.2,142,58.2,138.7,58.2L138.7,58.2z"/>
<polygon points="127.3,44.7 129.8,44.7 129.8,58.2 127.3,58.2 "/>
<path d="M21.2,63c-0.1,1.6,0.3,8,12.4,7.9C45.6,71,46.1,64.6,46,63h-1.1l-0.2,0.3l0.5,0.7l-0.8-0.1l-0.3,0.7l-0.3-0.7L43,64l0.5-0.7
	L43,63h-1.1c-0.5,1.7-2.3,4-8.4,4s-7.9-2.3-8.4-4H24l-0.2,0.3l0.5,0.7l-0.8-0.1l-0.3,0.7l-0.3-0.7L22,64l0.5-0.7L22.3,63H21.2
	L21.2,63z M36.5,63l-1.3,0.3c0,0-0.3,0-0.5-0.3h-2.4c-0.3,0.2-0.5,0.3-0.5,0.3h-6.5c0.1,0.2,0.2,0.4,0.3,0.6h16.1
	c0.1-0.2,0.2-0.4,0.3-0.6h-2.1c0-0.1,0-0.2-0.1-0.2L36.5,63L36.5,63z"/>
<g>
	<path d="M149,61.6c-1.1,0-2.3-0.7-2.3-1.9c0-0.9,0.4-1.9,0.7-2.7c0.1-0.4,0.7-0.8,1.4-0.8c1.2,0,1.9,1.1,1.9,1.4
		c0,0.6,0.2,1.3,0.2,1.6C150.8,60.8,149.8,61.6,149,61.6L149,61.6z M153.5,43.9c-0.7,2.5-1.3,5.2-1.7,7.8c-0.2,1.6-0.9,3-2.1,3
		c-0.7,0-1.2-0.8-1.2-2.2c0-0.3,0-0.7,0.2-1.4c0.5-2,0.5-2.9,0.7-7.2c0.2-2.9,1.1-5.5,1.1-8.7c0-2.3,1.7-4.3,3.9-4.3
		c1.2,0,1.5,0.4,2,1.5c0.3,0.7,0.5,1.4,0.4,2.2C156.7,37.3,154.8,39.3,153.5,43.9L153.5,43.9z M65,57.7c-0.2,1.9-0.7,3.4-0.8,6
		c-0.1,2.2-0.4,2.8-0.8,4.4c-0.3,1.4-1.5,2-2.9,2c-1.7,0-2.7-1.8-2.8-3.7c0-0.5,0.2-1.5,0.3-2c1.3-4.5,3-9.5,4.7-14.8
		c0.6-2.1,0.9-4,2.4-4c1,0,1.3,1,1.3,1.8C66.3,50.8,65.4,54,65,57.7L65,57.7z M65.5,43.7c-0.3,0-0.2-0.2-0.6-0.2
		c-0.8,0-1.4-0.8-1.4-1.6c0-0.5,0.4-1.9,1-2.2c0.3-0.1,1-0.3,1.5-0.3c0.9,0,1.7,0.4,1.7,1.4C67.6,41.8,66.6,43.7,65.5,43.7
		L65.5,43.7z"/>
	<path d="M20.9,39L20.9,39c0,0.4,0.2,0.6,0.5,0.6h1.3c0.3,0,0.6-0.2,0.6-0.6l0,0H20.9L20.9,39z M23.9,39L23.9,39
		c0,0.4,0.3,0.6,0.6,0.6s0.6-0.3,0.6-0.6l0,0H23.9L23.9,39z M25.8,39L25.8,39l1.8,0.7l1.8-0.6h-0.1L25.8,39L25.8,39z M30,39L30,39
		c0,0.4,0.3,0.6,0.6,0.6s0.6-0.3,0.6-0.6l0,0H30L30,39z M31.8,39L31.8,39c0,0.4,0.2,0.6,0.5,0.6h2.6c0.3,0,0.5-0.2,0.5-0.5l0,0
		L31.8,39L31.8,39z M35.9,39L35.9,39c0,0.4,0.3,0.6,0.6,0.6c0.3,0,0.6-0.3,0.6-0.6l0,0H35.9L35.9,39z M37.9,39L37.9,39l1.8,0.7
		l1.8-0.6h-0.1L37.9,39L37.9,39z M42,39L42,39c0,0.4,0.3,0.6,0.6,0.6c0.3,0,0.6-0.3,0.6-0.6l0,0H42L42,39z M43.9,39L43.9,39
		c0,0.3,0.2,0.6,0.5,0.6h1.3c0.3,0,0.5-0.2,0.5-0.5l0,0L43.9,39L43.9,39z M22.2,63L22,62.7l0.8,0.1l0.3-0.7l0.3,0.7l0.8-0.1L24,63
		h1.1c-0.3-1-0.2-1.8-0.2-1.8l0.1-16h17l0.1,16.1c0,0,0.1,0.8-0.2,1.8H43l-0.2-0.3l0.8,0.1l0.3-0.7l0.3,0.7l0.8-0.1l-0.2,0.3h1.1
		c0-0.2,0-0.4,0-0.4l-0.1-21.2H21.3l-0.1,21.2c0,0,0,0.1,0,0.4L22.2,63L22.2,63z M32.3,63c0.2-0.2,0.3-0.4,0.4-0.8v-9.4
		c-2.6-0.3-4.5-1.7-4.5-3.4c0-1.9,2.4-3.4,5.4-3.4s5.4,1.5,5.4,3.4c0,1.7-2,3.2-4.6,3.4l0.4,2.8c0.1,0.6,0.3,0.9,0.6,0.8
		c0,0-0.1-0.9,0.1-1.5c0,0-0.5-0.4-0.4-1.2l0.7-0.7c0,0,0.4,0.6,0.6,0.6l0.7,0.2h0.5c0,0,0.7,0.3,0.4,1.1l-0.4,0.6l1,3l0.6,1
		c0,0,0.9,1.1,0,2.2l0.5,0.9c0,0,0.1,0.2,0.1,0.4h-3.2h0.1l0.5-0.2L36.6,62c0,0-0.2-0.2-0.1-0.7c0,0-0.6-0.1-0.9-2.2l-1.1-1.4v4.5
		c0,0.4,0.2,0.6,0.4,0.8L32.3,63L32.3,63z M23.1,51.9l0.3,0.7h0.9l-0.5,0.7l0.5,0.7l-0.8-0.1l-0.4,0.7l-0.3-0.7H22l0.5-0.7L22,52.6
		l0.8,0.1L23.1,51.9L23.1,51.9z M43.9,51.9l0.3,0.7l0.8-0.1l-0.5,0.7l0.5,0.7l-0.8-0.1l-0.3,0.7l-0.3-0.7l-0.8,0.1l0.5-0.7l-0.5-0.6
		l0.8,0.1L43.9,51.9L43.9,51.9z M23.1,42l0.3,0.7l0.9-0.1l-0.5,0.7l0.5,0.7l-0.8-0.1l-0.4,0.7l-0.3-0.7L22,44l0.5-0.7L22,42.6
		l0.8,0.1L23.1,42L23.1,42z M43.9,42l0.3,0.7l0.8-0.1l-0.5,0.7L45,44l-0.8-0.1l-0.3,0.7l-0.3-0.7L42.8,44l0.5-0.7l-0.5-0.7l0.8,0.1
		L43.9,42L43.9,42z M33.5,42l0.3,0.7l0.8-0.1l-0.5,0.7l0.5,0.7l-0.8-0.1l-0.3,0.7l-0.3-0.7L32.4,44l0.5-0.7l-0.5-0.7l0.8,0.1
		L33.5,42L33.5,42z M45.7,41.1c0.3,0,0.6-0.3,0.6-0.6c0-0.3-0.3-0.6-0.6-0.6H21.5c-0.3,0-0.6,0.3-0.6,0.6c0,0.3,0.3,0.6,0.6,0.6
		H45.7L45.7,41.1z"/>
</g>
<path d="M19.6,31c0.6,0.2,1.5,1,1.3,3.5c0,0,0,1.5,1.2,2c1.1,0.4,2.2-0.2,2.5-0.3c0.2,0.2,0.9,0.6,1.5,0.6c0.8,0,1.5-0.6,1.5-0.6
	s0.6,0.6,1.5,0.6c0.8,0,1.4-0.5,1.5-0.6c0.2,0.2,0.9,0.6,1.5,0.6c0.8,0,1.5-0.6,1.5-0.6s0.6,0.6,1.5,0.6c0.8,0,1.3-0.4,1.5-0.6
	c0.2,0.2,0.9,0.5,1.5,0.5c0.8,0,1.5-0.6,1.5-0.6s0.6,0.6,1.5,0.6c0.8,0,1.4-0.5,1.5-0.6c0.2,0.1,1.4,0.8,2.5,0.3
	c1.2-0.5,1.2-2,1.2-2c-0.2-2.5,0.6-3.3,1.3-3.5h-1.8c-0.2,0.2-0.3,0.3-0.5,0.6c-0.2,0-0.8-0.1-1.1,0.1c0,0,0.6,0.2,0.6,0.9
	c0,0-0.6,0-0.9-0.6c0,0-0.2,0.3-0.1,0.9c0,0-0.6,0.1-1,0.5c0.3,0.4,1,0.5,1,0.5c-0.1,0.6,0.1,0.9,0.1,0.9s0.4-0.6,1.2-0.7
	c0,0,0.1,1.1-0.6,1.4c-0.7,0.3-1.2-0.3-1.3-0.5c0.2-0.8-0.2-1.1-0.6-1.1s-0.7,0.3-0.7,0.7c0,0.2,0.1,0.3,0.2,0.4
	c0,0-0.3,0.6-0.9,0.6c-0.6,0-1.2-0.5-1-1.4c0,0,1.1,0.2,1.2,0.7c0,0,0.1-0.1,0.1-0.9c0,0,0.8-0.1,0.9-0.5c-0.1-0.4-1-0.6-1-0.6
	c0.1-0.4-0.1-0.9-0.1-0.9c-0.4,0.6-0.9,0.6-0.9,0.6c0-0.6,0.6-0.9,0.6-0.9c-0.1,0-0.9,0-0.9,0c0-0.2-0.1-0.4-0.2-0.5h-0.7
	c-0.1,0.1-0.1,0.3-0.2,0.5c0,0-0.8,0-0.9,0.1c0,0,0.6,0.3,0.6,0.9c0,0-0.6,0-0.9-0.6c0,0-0.2,0.5-0.1,0.9c0,0-0.9,0.2-1,0.5
	c0.1,0.4,0.9,0.5,0.9,0.5c0,0.9,0.1,0.9,0.1,0.9c0.2-0.4,1.3-0.7,1.3-0.7c0.1,0.6,0,1.3-0.8,1.4c-0.6,0.1-0.9-0.3-1-0.6
	c0.2-0.8-0.2-1.1-0.6-1.1c-0.4,0-0.7,0.3-0.7,0.7c0,0.2,0.1,0.3,0.2,0.4c-0.1,0.2-0.4,0.7-1,0.7c-0.6,0-1.2-0.5-1-1.4
	c0.1,0,1.1,0.2,1.2,0.7c0,0,0.1-0.1,0.1-0.9c0,0,0.8-0.1,0.9-0.5c-0.1-0.4-1-0.6-1-0.6c0.1-0.4-0.1-0.9-0.1-0.9
	c-0.4,0.6-0.9,0.6-0.9,0.6c0-0.6,0.6-0.9,0.6-0.9c0-0.1-0.8-0.1-0.8-0.1c0-0.2-0.1-0.4-0.2-0.5h-0.7c-0.1,0.1-0.1,0.3-0.2,0.5
	c0,0-0.8,0-0.9,0.1c0,0,0.6,0.3,0.6,0.9c0,0-0.6,0-0.9-0.6c0,0-0.2,0.5-0.1,0.9c0,0-0.9,0.2-1,0.5c0.1,0.4,0.9,0.5,0.9,0.5
	c0,0.9,0.1,0.9,0.1,0.9c0.3-0.4,1.3-0.7,1.3-0.7c0.1,0.6,0,1.3-0.8,1.4c-0.6,0.1-1-0.4-1.1-0.6c0.1-0.8-0.2-1.1-0.6-1.1
	c-0.4,0-0.7,0.3-0.7,0.7c0.1,0.4-0.2,1-0.8,1c-0.6,0-1.2-0.5-1-1.4c0,0,1.1,0.2,1.2,0.7c0,0,0.1-0.1,0.1-0.9c0,0,0.8-0.1,0.9-0.5
	c-0.1-0.4-1-0.6-1-0.6c0.1-0.4-0.1-0.9-0.1-0.9c-0.1,0.8-0.7,0.8-0.7,0.8c0-0.6,0.6-0.9,0.6-0.9c-0.1-0.2-0.9-0.2-0.9-0.2
	c0-0.2-0.1-0.4-0.2-0.5h-0.7c0,0.1-0.1,0.3-0.1,0.5c0,0-0.8,0-0.9,0.1c0,0,0.6,0.3,0.6,0.9c0,0-0.6,0-0.9-0.6c0,0-0.2,0.5-0.1,0.9
	c0,0-0.9,0.2-1,0.5c0.1,0.4,0.9,0.5,0.9,0.5c0,0.9,0.1,0.9,0.1,0.9c0.2-0.4,1.2-0.7,1.2-0.7c0.1,0.6,0,1.4-0.8,1.5
	c-0.6,0.1-1-0.4-1.1-0.6c0.2-0.8-0.1-1.1-0.5-1.1s-0.7,0.3-0.7,0.7c0,0.6-0.4,1.2-1.2,0.9c-0.7-0.3-0.6-1.4-0.6-1.4
	c0.8,0.1,1.2,0.7,1.2,0.7s0.2-0.2,0.1-0.8c0,0,0.6-0.1,1-0.5c-0.3-0.4-1-0.5-1-0.5c0.1-0.6-0.1-0.9-0.1-0.9
	c-0.3,0.5-0.9,0.5-0.9,0.5c0-0.6,0.6-0.9,0.6-0.9c-0.3-0.2-0.8-0.1-1.1,0c-0.1-0.3-0.3-0.5-0.5-0.7H19.6L19.6,31z M23.3,39
	c0-0.3-0.3-0.5-0.5-0.5h-1.4c-0.3,0-0.5,0.2-0.5,0.5H23.3L23.3,39z M25.1,39c0-0.3-0.3-0.6-0.6-0.6s-0.6,0.3-0.6,0.6H25.1L25.1,39z
	 M29.3,39l-1.7-0.6L25.8,39H29.3L29.3,39z M31.2,39c0-0.3-0.3-0.6-0.6-0.6c-0.3,0-0.6,0.3-0.6,0.6H31.2L31.2,39z M35.4,39
	c0-0.3-0.3-0.5-0.5-0.5h-2.6c-0.3,0-0.5,0.2-0.5,0.5H35.4L35.4,39z M37.2,39c0-0.3-0.3-0.6-0.6-0.6c-0.3,0-0.6,0.3-0.6,0.6H37.2
	L37.2,39z M41.4,39l-1.8-0.6L37.8,39H41.4L41.4,39z M43.2,39c0-0.3-0.3-0.6-0.6-0.6c-0.3,0-0.6,0.3-0.6,0.6H43.2L43.2,39z M46.3,39
	c0-0.3-0.3-0.5-0.5-0.5h-1.3c-0.3,0-0.5,0.2-0.5,0.5H46.3L46.3,39z M45.7,38.2c0.3,0,0.6-0.3,0.6-0.6S46,37,45.7,37H21.5
	c-0.3,0.1-0.6,0.3-0.6,0.6s0.3,0.6,0.6,0.6H45.7L45.7,38.2z"/>
<path d="M21.4,31c-1.1-0.9-2.4,0-2.4,0s0.3-0.1,0.6,0.1L21.4,31L21.4,31z M27.9,31c-0.1-0.2-0.3-0.4-0.3-0.4s-0.2,0.2-0.4,0.5
	L27.9,31L27.9,31z M33.9,31c-0.1-0.2-0.3-0.4-0.3-0.4s-0.2,0.1-0.3,0.4H33.9L33.9,31z M39.9,31c-0.1-0.2-0.3-0.4-0.3-0.4
	s-0.2,0.1-0.3,0.4H39.9L39.9,31z M47.5,31c0.4-0.1,0.6-0.1,0.6-0.1S46.8,30,45.7,31H47.5L47.5,31z"/>
</svg>
