<?xml version="1.0" encoding="UTF-8" standalone="no"?>
<svg
   xmlns="http://www.w3.org/2000/svg"
   version="1.1"
   x="0px"
   y="0px"
   width="186"
   height="51"
   viewBox="0 0 223.26231 60.1"
   xml:space="preserve"
   id="logo"><metadata
   id="metadata446"></metadata><defs
   id="defs444" />
  <ellipse
   ry="28.02762"
   rx="28.027624"
   stroke-width="3.96151"
   cx="30.36549"
   cy="30.165487"
   id="circle348"
   style="fill:none;fill-opacity:1;stroke:#000000;stroke-opacity:1" />
 <!--  <path id="circle" d="M30.1,60.1c-0.5,0-1,0-1.5,0C12,59.2-0.8,45.1,0,28.5l0,0C0.9,12,15-0.8,31.5,0c8,0.4,15.4,3.9,20.8,9.8
    s8.1,13.6,7.7,21.7C59.2,47.6,45.9,60.1,30.1,60.1z M3.2,28.7C2.5,43.5,13.9,56.1,28.7,56.9c14.8,0.7,27.4-10.7,28.2-25.5
    c0.4-7.2-2.1-14-6.9-19.4c-4.8-5.3-11.4-8.4-18.6-8.8C16.6,2.5,3.9,13.9,3.2,28.7L3.2,28.7z"/>
 -->
  <g
   id="robot">
    <path
   d="m 48.6,26.3 v -0.8 c 0,-1.3 -0.3,-2.6 -1,-3.9 C 47.3,20.9 46.8,20.3 46,19.5 44.3,17.7 41.9,16.8 38.9,16.8 H 38 22 21.1 c -3,0 -5.4,0.9 -7.1,2.7 -0.8,0.7 -1.3,1.4 -1.6,2.1 -0.7,1.3 -1,2.6 -1,3.9 v 0.8 c 0,1.9 0.8,3.8 2.5,5.7 1.1,1 2.1,1.7 2.9,2 -2.2,2.4 -3.3,5.5 -3.3,9.4 h 5.3 V 43 c 0,-2.9 1,-5.3 3.4,-7 1.3,-0.9 3.2,-1.3 5.3,-1.3 h 4.8 c 2.2,0 3.8,0.4 5.1,1.3 2.3,1.7 3.6,4.1 3.6,7 v 0.4 h 5.3 c 0,-3.9 -1.1,-7 -3.3,-9.4 0.9,-0.3 1.9,-1 2.9,-2 1.9,-1.9 2.7,-3.8 2.7,-5.7 z m -5.4,0.4 c -0.7,1.9 -2,2.8 -3.9,2.8 H 38 22 20.8 c -1.9,0 -3.2,-0.9 -3.9,-2.8 -0.1,-0.4 -0.1,-0.7 -0.1,-1 0,-1 0.4,-2 1.3,-2.8 0.7,-0.6 1.5,-0.9 2.4,-0.9 0,0 0.3,-0.1 0.8,-0.1 h 16.9 v 0 H 39 c 0.5,0 0.8,0 0.8,0.1 0.8,0 1.6,0.3 2.4,0.9 0.9,0.8 1.3,1.8 1.3,2.8 -0.2,0.3 -0.2,0.6 -0.3,1 z"
   id="path350" />

    <g
   id="XMLID_6_">
      <path
   d="m 20.1,24.6 c -1.1,-0.1 -1.9,0 -1.9,1.2 0,1.2 0.7,1.3 1.9,1.2 1.1,0.1 1.9,0 1.9,-1.2 0,-1.3 -0.7,-1.3 -1.9,-1.2 z"
   id="path352" />
    </g>

    <g
   id="XMLID_4_">
      <path
   d="m 40,24.6 c -1.1,-0.1 -1.9,0 -1.9,1.2 0,1.2 0.7,1.3 1.9,1.2 1.1,0.1 1.9,0 1.9,-1.2 0,-1.3 -0.7,-1.3 -1.9,-1.2 z"
   id="path355" />
    </g>
  </g>

<g
   id="rockandror-text"
   transform="translate(-9.4274353,7.2020001)">
	
	
	
	
	
	
	
	
	
	
	
	
	
	
	
	

   
<text
   id="text860"
   y="33.966434"
   x="74.153442"
   style="font-style:normal;font-weight:normal;font-size:32.0089px;line-height:1.25;font-family:sans-serif;fill:#000000;fill-opacity:1;stroke:none;stroke-width:1.20034"
   xml:space="preserve"><tspan
     style="font-style:normal;font-variant:normal;font-weight:600;font-stretch:normal;font-size:32.0089px;font-family:'Titillium Web';-inkscape-font-specification:'Titillium Web Semi-Bold';stroke-width:1.20034"
     y="33.966434"
     x="74.153442"
     id="tspan858">ROCK&amp;ROR</tspan></text></g>



</svg>
