<?xml version="1.0" encoding="utf-8"?>
<!-- Generator: Adobe Illustrator 16.0.0, SVG Export Plug-In . SVG Version: 6.00 Build 0)  -->
<!DOCTYPE svg PUBLIC "-//W3C//DTD SVG 1.1//EN" "http://www.w3.org/Graphics/SVG/1.1/DTD/svg11.dtd">
<svg version="1.1" id="Livello_1" xmlns="http://www.w3.org/2000/svg" xmlns:xlink="http://www.w3.org/1999/xlink" x="0px" y="0px"
	 width="201.053px" height="91.579px" viewBox="0 0 201.053 91.579" enable-background="new 0 0 201.053 91.579"
	 xml:space="preserve">
<g>
	<path fill="#5FC3E6" d="M48.5,54.116c0,0,3.618-0.424,5.216-0.979c1.6-0.557,2.288-0.976,2.288-0.976s7.986,10.069,11.006,13.262
		c3.024,3.189,3.792,3.162,3.792,3.162s-8.239,4.659-11.14,5.43c-2.897,0.768-3.406-1.207-4.507-3.512
		C54.056,68.196,48.5,54.116,48.5,54.116"/>
	<path fill="#5FC3E6" d="M46.734,56.939c0,0,2.226,6.397,4.64,12.309c2.416,5.912,3.989,7.517,3.989,7.517s-5.482,1.07-9.738,0.52
		c-4.255-0.551-4.189-1.053-4.954-4.969c-0.766-3.916-0.641-10.771-0.617-12.933c0.027-2.16,0.232-2.77,0.232-2.77L46.734,56.939z"
		/>
	<path fill="#5FC3E6" d="M32.995,55.923c0,0-2.774,7.658-3.683,11.739c-0.911,4.081-0.965,5.474-0.965,5.474s3.621,2.506,6.886,3.82
		c3.266,1.312,3.923,1.144,3.923,1.144s-1.433-4.64-1.937-11.577c-0.498-6.935,0.169-9.14,0.169-9.14L32.995,55.923z"/>
	<path fill="#5FC3E6" d="M27.203,52.5l2.696,2.768c0,0-1.948,5.22-2.984,9.284c-1.036,4.064-1.587,8.32-1.587,8.32
		s-3.51-2.363-4.988-4.718c-1.477-2.355-2.268-4.11-2.268-4.11S22.032,57.048,27.203,52.5"/>
	<path fill="#5FC3E6" d="M11.566,52.384c0,0,2.44-3.119,7.222-4.663l4.782-1.544c0,0,0.086,1.285,0.677,2.632l0.588,1.348
		c0,0-6.402,7.188-8.293,9.998c-1.892,2.81-1.973,3.435-1.973,3.435s-2.535-4.019-3.615-7.467
		C9.874,52.673,11.566,52.384,11.566,52.384"/>
	<path fill="#5FC3E6" d="M8.151,39.47c-0.359,0.129-1.002,6.742-0.525,8.968l0.473,2.223c0,0,1.263-1.872,6.814-4.461
		c5.555-2.589,7.153-3.146,7.153-3.146l0.345-3.646C22.41,39.409,12.554,37.878,8.151,39.47"/>
	<path fill="#5FC3E6" d="M8.135,35.651c0,0,7.628-0.92,10.258-0.579c2.626,0.34,3.595,0.721,3.595,0.721l2.283-2.888
		c0,0,0.18-1.376-5.417-3.372c-5.595-2-7.362-2.1-7.362-2.1S9.111,31.069,8.135,35.651"/>
	<path fill="#5FC3E6" d="M12.984,22.791c0,0,4.272-3.519,5.279-4.407l1.004-0.886c0,0,4.415,3.244,6.56,6.32
		c2.147,3.079,2.194,3.721,2.194,3.721l-3.312,1.989C24.71,29.528,16.678,22.758,12.984,22.791"/>
	<path fill="#5FC3E6" d="M22.084,14.426c0,0,3.262-1.613,4.972-2.028c1.707-0.416,2.04-1.01,3.013,1.28
		c0.979,2.291,3.553,10.896,3.553,10.896s-1.508,0.823-2.556,1.071l-1.052,0.244C30.015,25.888,25.381,15.49,22.084,14.426"/>
	<path fill="#5FC3E6" d="M31.998,9.603c-0.34-0.163,5.26-0.337,6.932,0.515c1.67,0.853,2.661,3.018,2.038,5.864
		c-0.621,2.845-1.349,8.478-1.349,8.478l-3.508-0.454C36.111,24.006,36.435,11.704,31.998,9.603"/>
	<path fill="#5FC3E6" d="M43.577,10.595c0,0,0.891,6.859,0.094,10.065c-0.795,3.204-1.567,4.25-1.567,4.25l2.243,2.327
		c0,0,4.668-4.613,5.608-7.928c0.938-3.313,1.394-3.889,1.394-3.889S45.959,9.884,43.577,10.595"/>
	<path fill="#5FC3E6" d="M46.846,28.578c0,0,3.958-3.052,5.571-6.66c1.611-3.608,2.21-4.295,2.21-4.295s2.839,5.586,2.85,6.478
		c0.013,0.892-1.28,3.016-4.043,4.694c-2.763,1.678-5.537,2.464-5.537,2.464L46.846,28.578z"/>
	<path fill="#5FC3E6" d="M48.853,34.691c0,0,5.437-1.713,7.513-3.989c2.08-2.277,3.992-3.301,3.846-2.173
		c-0.145,1.125-1.271,7.852-1.271,7.852s-3.117,0.487-6.217,0.849c-3.103,0.362-4.447-0.068-4.447-0.068L48.853,34.691z"/>
	<path fill="#5FC3E6" d="M47.514,40.117l-1.197,1.373c0,0,4.95,3.059,6.276,3.613c1.33,0.554,2.174,0.918,2.174,0.918
		s2.384-1.727,3.428-3.882l1.044-2.155C59.239,39.983,53.487,41.146,47.514,40.117"/>
	<path fill="#5FC3E6" d="M43.133,43.493c0,0,1.345,3.356,2.729,5.444c1.384,2.089,1.949,1.653,1.949,1.653l5.238-2.122
		L43.133,43.493z"/>
	<path fill="#5FC3E6" d="M37.773,44.581l2.329,0.683c0,0,2.044,4.845,3.182,5.885c1.137,1.039,1.933,1.777,1.933,1.777
		s-1.849,0.523-3.993,0.373c-2.143-0.15-3.009-2.299-3.281-5.133C37.677,45.332,37.773,44.581,37.773,44.581"/>
	<path fill="#5FC3E6" d="M33.915,42.936l1.061,0.646c0,0-0.188,3.412,0.363,6.028c0.552,2.616,1,4.072,1,4.072
		s-3.294-2.08-4.59-2.883c-1.295-0.804-1.498-1.213-0.721-3.275C31.804,45.461,33.915,42.936,33.915,42.936"/>
	<path fill="#5FC3E6" d="M26.172,41.805c0,0,1.112,3.199,1.326,4.499c0.212,1.301,0.882,2.024,0.882,2.024s0.645-3.989,2.095-6.346
		c1.451-2.357,1.983-2.543,1.983-2.543L26.172,41.805z"/>
	<path fill="#5FC3E6" d="M25.309,38.639c0,0,0.623-2.845,1.585-4.375c0.961-1.53,1.271-0.981,2.458-0.319
		c1.186,0.663,4.467,1.853,4.467,1.853s-1.164,1.122-3.795,1.798C27.391,38.272,25.309,38.639,25.309,38.639"/>
	<path fill="#5FC3E6" d="M29.273,30.627c0,0,2.819-0.143,4.359,1.71c1.542,1.854,2.305,2.843,3.089,2.69
		c0.782-0.154,1.24-0.731,1.24-0.731l-3.14-5.242C34.821,29.056,32.02,29.075,29.273,30.627"/>
	<path fill="#5FC3E6" d="M38.145,27.959c0,0,2.235,4.362,2.192,6.646c-0.039,2.284-0.355,2.753-0.355,2.753s3.144-3.665,3.339-5.165
		C43.517,30.692,40.708,28.801,38.145,27.959"/>
	<path fill="#5FC3E6" d="M40.704,40.634c0,0,3.634-4.491,3.934-4.835c0.299-0.342,0.539,1.724-0.673,3.223
		C42.752,40.518,41.579,40.747,40.704,40.634"/>
	<path fill="#5FC3E6" d="M102.959,42.983c0-2.673-0.497-5.164-1.477-7.402c-0.979-2.239-2.346-4.201-4.064-5.835
		c-1.718-1.632-3.685-2.898-5.847-3.76c-2.161-0.862-4.447-1.3-6.793-1.3c-2.394,0-4.723,0.457-6.923,1.359
		c-2.2,0.902-4.186,2.194-5.902,3.84c-1.72,1.649-3.075,3.608-4.03,5.823c-0.957,2.218-1.442,4.617-1.442,7.136
		c0,3.28,0.815,6.354,2.424,9.137c1.609,2.783,3.844,5.025,6.643,6.665c2.798,1.64,5.92,2.472,9.277,2.472
		c3.343,0,6.433-0.832,9.184-2.473c2.753-1.641,4.957-3.875,6.549-6.642C102.151,49.236,102.959,46.202,102.959,42.983
		 M84.778,25.994c1.837,0,3.826,0.439,5.912,1.307c2.078,0.862,3.939,2.59,5.53,5.132c1.597,2.545,2.405,6.126,2.405,10.644
		c0,3.135-0.425,5.827-1.263,7.999c-0.834,2.168-1.937,3.909-3.275,5.17c-1.338,1.264-2.836,2.186-4.448,2.744
		c-3.419,1.184-6.836,1.079-9.929-0.068c-1.628-0.604-3.14-1.605-4.495-2.976c-1.356-1.37-2.435-3.165-3.208-5.333
		c-0.775-2.172-1.168-4.755-1.168-7.676c0-3.32,0.474-6.148,1.41-8.403c0.936-2.254,2.143-4.024,3.588-5.262
		c1.445-1.239,2.955-2.105,4.484-2.573C81.854,26.231,83.355,25.994,84.778,25.994"/>
	<path fill="#5FC3E6" d="M130.034,59.247c-0.419-0.168-0.868-0.59-1.333-1.25c-0.472-0.671-0.982-1.773-1.52-3.275l-10.266-29.375
		l-0.028-0.08h-2.685l-9.71,29.597c-0.505,1.544-1.103,2.708-1.778,3.46c-0.668,0.742-1.568,1.172-2.681,1.277l-0.108,0.01v0.6
		h8.291V59.6h-0.118c-0.856,0-1.524-0.153-1.983-0.458c-0.443-0.293-0.668-0.905-0.668-1.82c0-0.682,0.186-1.602,0.553-2.732
		l2.697-8.344h11.698l3.017,9.003c0.006,0.079,0.04,0.182,0.098,0.296c0.291,0.867,0.438,1.566,0.438,2.08
		c0,0.914-0.279,1.455-0.854,1.656c-0.604,0.213-1.482,0.319-2.611,0.319h-0.119v0.61h11.432v-0.6l-0.105-0.01
		C131.021,59.54,130.465,59.421,130.034,59.247 M119.756,44.772h-10.585l5.122-15.913L119.756,44.772z"/>
	<path fill="#5FC3E6" d="M145.376,42.111c-1.497-0.833-2.703-1.532-3.579-2.081c-0.875-0.543-1.643-1.138-2.286-1.765
		c-0.636-0.621-1.124-1.348-1.45-2.159c-0.326-0.811-0.492-1.754-0.492-2.806c0-1.356,0.279-2.575,0.824-3.623
		c0.547-1.045,1.331-1.883,2.332-2.49c0.998-0.607,2.161-0.915,3.453-0.915c1.973,0,3.584,0.619,4.791,1.84
		c1.209,1.225,1.93,2.67,2.142,4.296l0.014,0.104h0.597v-7.57h-0.584l-0.023,0.088c-0.172,0.646-0.476,0.959-0.932,0.959
		c-0.398,0-0.717-0.058-0.965-0.181c-1.586-0.514-3.158-0.774-4.668-0.774c-1.998,0-3.811,0.455-5.389,1.354
		c-1.58,0.898-2.816,2.108-3.676,3.593c-0.859,1.486-1.295,3.064-1.295,4.691c0,1.409,0.245,2.674,0.73,3.762
		c0.484,1.086,1.146,2.042,1.971,2.841c0.815,0.794,1.633,1.448,2.427,1.948c0.786,0.493,2.018,1.199,3.663,2.099
		c2.367,1.26,4.153,2.509,5.312,3.713c1.143,1.19,1.723,2.748,1.723,4.63c0,0.911-0.199,1.834-0.594,2.747
		c-0.395,0.904-1.111,1.685-2.131,2.32c-1.022,0.637-2.407,0.959-4.115,0.959c-2.274,0-4.231-0.641-5.814-1.906
		c-1.584-1.264-2.666-3.16-3.217-5.635l-0.021-0.094h-0.608v8.828h0.608l0.021-0.094c0.168-0.766,0.303-1.269,0.4-1.492
		c0.08-0.187,0.254-0.276,0.53-0.276c0.157,0,0.466,0.075,0.903,0.22c1.115,0.543,2.234,0.973,3.325,1.276
		c1.089,0.305,2.363,0.458,3.778,0.458c2.261,0,4.184-0.443,5.717-1.318c1.531-0.875,2.693-2.016,3.455-3.386
		c0.758-1.369,1.143-2.811,1.143-4.282c0-2.411-0.717-4.339-2.131-5.73C149.869,44.888,147.887,43.491,145.376,42.111"/>
	<path fill="#5FC3E6" d="M156.277,26.32h0.119c0.962,0,1.805,0.258,2.502,0.768c0.686,0.502,1.035,1.457,1.035,2.837v26.023
		c0,1.305-0.352,2.25-1.041,2.805c-0.695,0.561-1.534,0.848-2.496,0.848h-0.119v0.61h11.108v-0.61h-0.119
		c-0.899,0-1.728-0.294-2.464-0.871c-0.727-0.572-1.096-1.507-1.096-2.781V29.925c0-1.291,0.346-2.223,1.027-2.771
		c0.689-0.553,1.541-0.834,2.532-0.834h0.119v-0.634h-11.108V26.32z"/>
	<path fill="#5FC3E6" d="M188.019,46.261c-1.396-1.374-3.378-2.77-5.89-4.15c-1.498-0.833-2.701-1.532-3.581-2.081
		c-0.872-0.543-1.64-1.136-2.282-1.764c-0.637-0.621-1.126-1.347-1.454-2.159c-0.325-0.812-0.489-1.756-0.489-2.808
		c0-1.355,0.276-2.573,0.824-3.622c0.546-1.046,1.33-1.884,2.332-2.491c1-0.606,2.16-0.913,3.451-0.913
		c1.974,0,3.586,0.618,4.792,1.838c1.208,1.223,1.931,2.67,2.143,4.296l0.014,0.104h0.597v-7.57h-0.586l-0.021,0.088
		c-0.172,0.646-0.479,0.959-0.932,0.959c-0.398,0-0.719-0.059-0.965-0.181c-1.588-0.513-3.156-0.774-4.668-0.774
		c-1.998,0-3.811,0.455-5.389,1.354c-1.581,0.899-2.816,2.108-3.678,3.593c-0.859,1.486-1.295,3.065-1.295,4.693
		c0,1.406,0.246,2.671,0.732,3.76c0.484,1.087,1.146,2.043,1.969,2.842c0.816,0.794,1.635,1.449,2.43,1.948
		c0.789,0.496,2.02,1.202,3.661,2.099c2.366,1.261,4.153,2.51,5.312,3.714c1.145,1.19,1.725,2.748,1.725,4.63
		c0,0.911-0.199,1.835-0.596,2.746c-0.391,0.904-1.109,1.686-2.129,2.321c-1.023,0.637-2.408,0.959-4.117,0.959
		c-2.273,0-4.232-0.641-5.815-1.906c-1.581-1.264-2.665-3.16-3.216-5.635l-0.021-0.094h-0.61v8.828h0.61l0.021-0.094
		c0.17-0.766,0.305-1.269,0.4-1.491c0.082-0.187,0.256-0.277,0.529-0.277c0.11,0,0.356,0.04,0.904,0.221
		c1.117,0.542,2.236,0.974,3.326,1.275c1.092,0.305,2.364,0.458,3.779,0.458c2.261,0,4.184-0.443,5.715-1.318
		s2.695-2.014,3.455-3.386c0.76-1.37,1.144-2.811,1.144-4.282C190.149,49.579,189.432,47.652,188.019,46.261"/>
	<path fill="#5FC3E6" d="M159.068,74.202c0.07,0.064,0.147,0.096,0.238,0.096h0.074l3.58-0.9c0.1-0.031,0.18-0.101,0.236-0.213
		c0.057-0.109,0.072-0.229,0.048-0.355c-0.026-0.125-0.077-0.228-0.151-0.307c-0.076-0.08-0.164-0.104-0.266-0.07l-3.617,0.945
		c-0.102,0.033-0.182,0.095-0.238,0.189c-0.056,0.096-0.072,0.206-0.047,0.332C158.953,74.045,158.998,74.14,159.068,74.202"/>
	<path fill="#5FC3E6" d="M178.256,76.409c-0.049-0.072-0.126-0.115-0.226-0.131c-0.102-0.016-0.202,0.016-0.306,0.096
		c-0.072,0.047-0.266,0.164-0.575,0.354s-0.686,0.411-1.128,0.663c-0.441,0.253-0.92,0.513-1.438,0.781
		c-0.519,0.269-1.021,0.517-1.506,0.746c-0.486,0.228-0.928,0.418-1.326,0.567c-0.398,0.15-0.699,0.217-0.898,0.201
		c-0.053,0-0.056-0.082-0.011-0.249c0.046-0.165,0.121-0.382,0.229-0.651c0.105-0.268,0.229-0.566,0.367-0.898
		s0.277-0.67,0.417-1.018c0.139-0.346,0.206-0.631,0.199-0.853s-0.069-0.382-0.188-0.485c-0.121-0.102-0.292-0.146-0.514-0.13
		c-0.221,0.017-0.469,0.079-0.746,0.189c-0.227,0.11-0.506,0.272-0.834,0.485c-0.329,0.213-0.666,0.453-1.014,0.721
		c-0.347,0.27-0.687,0.553-1.013,0.854c-0.328,0.299-0.6,0.584-0.813,0.852c0.15-0.347,0.299-0.619,0.443-0.816
		c0.144-0.197,0.244-0.43,0.296-0.699c0.024-0.125-0.006-0.252-0.087-0.379c-0.08-0.125-0.187-0.227-0.312-0.307
		c-0.126-0.079-0.262-0.126-0.407-0.143c-0.146-0.016-0.269,0.023-0.37,0.119c-0.034,0.032-0.068,0.07-0.103,0.113
		c-0.04,0.004-0.08,0.011-0.122,0.029c-0.139,0.062-0.359,0.185-0.664,0.366c-0.303,0.182-0.656,0.388-1.061,0.616
		c-0.403,0.229-0.83,0.465-1.277,0.709s-0.878,0.466-1.289,0.663c-0.408,0.198-0.781,0.354-1.117,0.474
		c-0.332,0.118-0.583,0.17-0.746,0.153c-0.18-0.015-0.254-0.071-0.229-0.165c0.026-0.096,0.08-0.205,0.163-0.332
		c0.08-0.127,0.166-0.26,0.256-0.402c0.088-0.141,0.113-0.268,0.075-0.378c-0.026-0.11-0.075-0.225-0.151-0.344
		c-0.078-0.118-0.16-0.226-0.256-0.319c-0.096-0.095-0.197-0.161-0.305-0.201c-0.105-0.039-0.217-0.027-0.329,0.035
		c-0.114,0.063-0.323,0.213-0.625,0.449c-0.304,0.237-0.618,0.486-0.946,0.746c-0.33,0.261-0.632,0.485-0.91,0.674
		c-0.28,0.189-0.443,0.261-0.492,0.215c-0.039-0.032-0.035-0.154,0.008-0.367c0.045-0.215,0.13-0.461,0.256-0.746
		c0.127-0.284,0.294-0.576,0.501-0.876c0.21-0.3,0.468-0.545,0.777-0.733c0.312-0.189,0.667-0.297,1.071-0.32
		s0.857,0.092,1.363,0.344c0.138,0.079,0.26,0.098,0.359,0.06c0.102-0.04,0.174-0.099,0.218-0.178
		c0.045-0.079,0.053-0.173,0.028-0.284c-0.025-0.109-0.082-0.197-0.17-0.261c-0.115-0.062-0.291-0.149-0.53-0.26
		c-0.24-0.11-0.524-0.198-0.854-0.261c-0.327-0.062-0.68-0.092-1.06-0.082c-0.379,0.007-0.762,0.094-1.146,0.26
		c-0.356,0.154-0.7,0.386-1.03,0.688c-0.008,0.005-0.012,0.006-0.02,0.012c-0.078,0.047-0.238,0.134-0.484,0.26
		c-0.244,0.126-0.543,0.268-0.89,0.426c-0.349,0.158-0.716,0.318-1.108,0.484c-0.39,0.166-0.766,0.312-1.127,0.438
		c-0.359,0.126-0.686,0.229-0.984,0.308c-0.295,0.08-0.514,0.111-0.652,0.095c-0.063,0-0.098-0.052-0.104-0.153
		c-0.007-0.102,0.006-0.229,0.037-0.379c0.03-0.15,0.078-0.312,0.143-0.485c0.062-0.175,0.126-0.339,0.189-0.497
		c0.15-0.332,0.224-0.607,0.218-0.828c-0.007-0.221-0.071-0.387-0.19-0.497s-0.293-0.159-0.521-0.143
		c-0.225,0.017-0.479,0.079-0.756,0.189c-0.229,0.11-0.506,0.272-0.834,0.485s-0.664,0.453-1.014,0.721
		c-0.346,0.27-0.681,0.553-1.004,0.854c-0.32,0.299-0.594,0.584-0.82,0.852c0.138-0.347,0.284-0.619,0.443-0.816
		c0.156-0.197,0.268-0.43,0.33-0.699c0.014-0.125-0.021-0.252-0.103-0.379c-0.083-0.125-0.19-0.227-0.323-0.307
		c-0.131-0.079-0.271-0.126-0.416-0.143c-0.145-0.016-0.274,0.023-0.389,0.119c-0.032,0.03-0.066,0.07-0.102,0.112
		c-0.042,0.005-0.08,0.011-0.124,0.03c-0.14,0.062-0.362,0.185-0.664,0.366c-0.304,0.182-0.655,0.388-1.06,0.616
		s-0.83,0.465-1.278,0.709s-0.876,0.466-1.288,0.663c-0.411,0.198-0.785,0.354-1.117,0.474c-0.334,0.118-0.584,0.17-0.748,0.153
		c-0.178-0.015-0.252-0.071-0.227-0.165c0.025-0.096,0.078-0.205,0.162-0.332c0.08-0.127,0.164-0.26,0.255-0.402
		c0.089-0.141,0.112-0.268,0.075-0.378c-0.024-0.11-0.075-0.225-0.152-0.344c-0.074-0.118-0.16-0.226-0.254-0.319
		c-0.096-0.095-0.197-0.161-0.304-0.201c-0.108-0.039-0.219-0.027-0.332,0.035c-0.114,0.063-0.321,0.213-0.625,0.449
		c-0.304,0.237-0.619,0.486-0.946,0.746c-0.33,0.261-0.631,0.485-0.908,0.674c-0.278,0.189-0.441,0.261-0.492,0.215
		c-0.038-0.032-0.035-0.154,0.008-0.367c0.046-0.215,0.131-0.461,0.256-0.746c0.127-0.284,0.293-0.576,0.503-0.876
		c0.207-0.3,0.466-0.545,0.774-0.733c0.309-0.189,0.668-0.297,1.071-0.32s0.858,0.092,1.362,0.344
		c0.141,0.079,0.26,0.098,0.361,0.06c0.1-0.04,0.174-0.099,0.217-0.178c0.044-0.079,0.055-0.173,0.03-0.284
		c-0.026-0.109-0.083-0.197-0.172-0.261c-0.113-0.062-0.292-0.149-0.53-0.26c-0.24-0.11-0.525-0.198-0.852-0.261
		c-0.328-0.062-0.683-0.092-1.061-0.082c-0.379,0.007-0.761,0.094-1.145,0.26c-0.359,0.152-0.702,0.385-1.03,0.688
		c-0.009,0.005-0.015,0.005-0.022,0.012c-0.076,0.047-0.268,0.164-0.576,0.354c-0.312,0.189-0.686,0.411-1.129,0.663
		c-0.441,0.253-0.918,0.513-1.429,0.781c-0.512,0.269-1.011,0.517-1.495,0.746c-0.488,0.228-0.928,0.418-1.327,0.567
		c-0.397,0.15-0.697,0.217-0.897,0.201c-0.053,0-0.042-0.099,0.027-0.296c0.069-0.196,0.168-0.442,0.293-0.733
		c0.127-0.292,0.268-0.619,0.428-0.982c0.156-0.362,0.305-0.71,0.441-1.041c0.143-0.348,0.2-0.64,0.182-0.876
		c-0.02-0.237-0.092-0.411-0.219-0.521c-0.125-0.111-0.295-0.158-0.51-0.143s-0.447,0.104-0.701,0.26
		c-0.252,0.158-0.549,0.371-0.89,0.64c-0.34,0.269-0.702,0.56-1.088,0.876c-0.385,0.316-0.773,0.639-1.165,0.97
		c-0.393,0.332-0.764,0.64-1.117,0.924c0.076-0.222,0.158-0.435,0.246-0.639c0.062-0.175,0.139-0.367,0.227-0.581
		c0.088-0.213,0.178-0.413,0.266-0.604c0.152-0.346,0.225-0.631,0.218-0.852c-0.005-0.221-0.073-0.383-0.2-0.484
		c-0.124-0.104-0.299-0.15-0.52-0.143c-0.222,0.008-0.47,0.074-0.748,0.201c-0.227,0.109-0.508,0.269-0.843,0.473
		c-0.335,0.205-0.675,0.438-1.022,0.699c-0.347,0.26-0.682,0.536-1.003,0.828c-0.323,0.292-0.598,0.572-0.824,0.84
		c0.165-0.347,0.318-0.619,0.465-0.816c0.146-0.197,0.235-0.43,0.272-0.699c0.026-0.125,0-0.252-0.076-0.379
		c-0.073-0.125-0.18-0.227-0.311-0.307c-0.133-0.079-0.272-0.126-0.418-0.143c-0.145-0.016-0.273,0.023-0.388,0.119
		c-0.033,0.032-0.069,0.07-0.104,0.113c-0.037,0.004-0.077,0.011-0.123,0.029c-0.141,0.062-0.357,0.185-0.662,0.366
		c-0.303,0.182-0.658,0.388-1.061,0.616c-0.404,0.229-0.828,0.465-1.277,0.709c-0.447,0.244-0.877,0.466-1.289,0.663
		c-0.409,0.198-0.781,0.354-1.115,0.474c-0.337,0.118-0.584,0.17-0.75,0.153c-0.176-0.015-0.251-0.071-0.226-0.165
		c0.024-0.096,0.078-0.205,0.16-0.332c0.081-0.127,0.168-0.26,0.256-0.402c0.089-0.141,0.112-0.268,0.076-0.378
		c-0.026-0.11-0.076-0.225-0.152-0.344c-0.075-0.118-0.16-0.226-0.255-0.319c-0.096-0.095-0.195-0.161-0.303-0.201
		c-0.108-0.039-0.219-0.027-0.332,0.035c-0.113,0.063-0.322,0.213-0.624,0.449c-0.305,0.237-0.618,0.486-0.95,0.746
		c-0.324,0.261-0.629,0.485-0.906,0.674c-0.277,0.189-0.442,0.261-0.494,0.215c-0.036-0.032-0.033-0.154,0.012-0.367
		c0.043-0.215,0.129-0.461,0.256-0.746c0.126-0.284,0.293-0.576,0.501-0.876s0.468-0.545,0.776-0.733
		c0.311-0.189,0.666-0.297,1.07-0.32c0.403-0.023,0.857,0.092,1.363,0.344c0.139,0.079,0.259,0.098,0.359,0.06
		c0.102-0.04,0.174-0.099,0.219-0.178c0.043-0.079,0.055-0.173,0.028-0.284c-0.026-0.109-0.083-0.197-0.171-0.261
		c-0.114-0.062-0.291-0.149-0.53-0.26c-0.24-0.11-0.523-0.198-0.851-0.261c-0.331-0.062-0.683-0.092-1.061-0.082
		c-0.381,0.007-0.762,0.094-1.146,0.26c-0.346,0.147-0.678,0.369-0.993,0.654c-0.054,0.02-0.109,0.049-0.171,0.092
		c-0.104,0.062-0.278,0.169-0.531,0.319c-0.254,0.15-0.553,0.323-0.898,0.521c-0.348,0.197-0.729,0.406-1.137,0.627
		c-0.411,0.221-0.818,0.438-1.221,0.65c-0.406,0.214-0.793,0.407-1.166,0.58c-0.373,0.174-0.697,0.308-0.975,0.402
		c-0.417,0.143-0.783,0.229-1.101,0.262c-0.313,0.031-0.548-0.028-0.698-0.178c-0.152-0.15-0.213-0.41-0.18-0.781
		c0.029-0.371,0.18-0.896,0.443-1.575l0.474-1.159c0.984-0.82,1.868-1.72,2.653-2.697c0.428,0,0.842-0.005,1.239-0.014
		c0.397-0.007,0.756-0.012,1.077-0.012h0.815h0.446c0.176,0,0.309-0.039,0.396-0.117s0.133-0.17,0.133-0.273
		c0-0.102-0.045-0.192-0.133-0.271c-0.088-0.078-0.221-0.119-0.396-0.119c-0.139,0-0.492,0.014-1.061,0.037
		s-1.232,0.043-1.988,0.058c0.531-0.74,0.989-1.476,1.382-2.2c0.167-0.312,0.314-0.609,0.445-0.898h-0.78
		c-0.193,0.372-0.414,0.77-0.668,1.193c-0.393,0.655-0.828,1.299-1.308,1.93c-0.138,0.016-0.268,0.02-0.387,0.012
		c-0.121-0.008-0.251-0.003-0.391,0.012l0.284-0.567c0.329-0.711,0.626-1.369,0.893-1.977c0.264-0.607,0.516-1.134,0.756-1.574
		c0.24-0.442,0.473-0.79,0.701-1.041c0.228-0.253,0.467-0.38,0.72-0.38c0.177,0,0.229,0.17,0.161,0.51
		c-0.061,0.296-0.193,0.668-0.389,1.107c0.191,0.059,0.416,0.106,0.682,0.136c0.059-0.153,0.112-0.304,0.161-0.45
		c0.194-0.6,0.281-1.101,0.255-1.504c-0.025-0.402-0.189-0.643-0.492-0.721c-0.758-0.221-1.461-0.028-2.111,0.578
		c-0.649,0.608-1.328,1.622-2.035,3.043c-0.217,0.426-0.438,0.883-0.662,1.373c-0.229,0.488-0.461,1.002-0.701,1.538
		c-0.518,0.016-0.986,0.023-1.402,0.023h-0.984c-0.164-0.017-0.29,0.008-0.379,0.071c-0.087,0.063-0.134,0.139-0.143,0.225
		c-0.005,0.088,0.021,0.166,0.076,0.236c0.057,0.072,0.155,0.107,0.295,0.107c0.088,0,0.337-0.004,0.748-0.012
		c0.409-0.008,0.904-0.012,1.486-0.012c-0.266,0.583-0.516,1.162-0.749,1.74c-0.171,0.423-0.331,0.82-0.487,1.206
		c-0.045,0.003-0.093,0.013-0.146,0.036c-0.139,0.062-0.359,0.185-0.664,0.366c-0.301,0.182-0.655,0.388-1.059,0.616
		c-0.404,0.229-0.831,0.465-1.278,0.709c-0.449,0.244-0.877,0.466-1.288,0.663c-0.409,0.198-0.782,0.354-1.117,0.474
		c-0.333,0.118-0.584,0.17-0.749,0.153c-0.176-0.015-0.252-0.071-0.226-0.165c0.024-0.096,0.077-0.205,0.16-0.332
		c0.082-0.127,0.169-0.26,0.256-0.402c0.089-0.141,0.114-0.268,0.074-0.378c-0.023-0.11-0.074-0.225-0.15-0.344
		c-0.076-0.118-0.16-0.226-0.256-0.319c-0.094-0.095-0.194-0.161-0.303-0.201c-0.108-0.039-0.218-0.027-0.332,0.035
		c-0.112,0.063-0.322,0.213-0.625,0.449c-0.303,0.237-0.618,0.486-0.947,0.746c-0.328,0.261-0.631,0.485-0.908,0.674
		c-0.279,0.189-0.442,0.261-0.493,0.215c-0.038-0.032-0.034-0.154,0.009-0.367c0.045-0.215,0.129-0.461,0.256-0.746
		c0.126-0.284,0.295-0.576,0.501-0.876c0.208-0.3,0.469-0.545,0.777-0.733c0.31-0.189,0.665-0.297,1.069-0.32
		c0.404-0.023,0.86,0.092,1.362,0.344c0.141,0.079,0.261,0.098,0.362,0.06c0.102-0.04,0.174-0.099,0.217-0.178
		c0.044-0.079,0.053-0.173,0.029-0.284c-0.026-0.109-0.083-0.197-0.172-0.261c-0.113-0.062-0.292-0.149-0.529-0.26
		c-0.241-0.11-0.525-0.198-0.853-0.261c-0.328-0.062-0.682-0.092-1.06-0.082c-0.378,0.007-0.761,0.094-1.145,0.26
		c-0.353,0.15-0.691,0.379-1.018,0.675c-0.039,0.018-0.08,0.038-0.127,0.071c-0.102,0.062-0.289,0.174-0.56,0.33
		c-0.272,0.159-0.6,0.344-0.984,0.557c-0.386,0.213-0.811,0.438-1.277,0.675c-0.469,0.237-0.943,0.466-1.431,0.687
		c-0.486,0.221-0.962,0.422-1.429,0.604c-0.468,0.182-0.897,0.32-1.288,0.414c-0.822,0.189-1.438,0.265-1.855,0.225
		c-0.417-0.038-0.693-0.161-0.823-0.366c-0.134-0.206-0.152-0.474-0.058-0.806c0.096-0.33,0.25-0.686,0.463-1.064
		c0.304-0.521,0.609-0.884,0.92-1.09c0.307-0.203,0.604-0.314,0.89-0.33c0.283-0.016,0.539,0.027,0.767,0.13
		c0.226,0.103,0.402,0.186,0.529,0.249c0.127,0.062,0.239,0.074,0.34,0.036c0.102-0.04,0.182-0.104,0.237-0.19
		c0.056-0.087,0.08-0.178,0.068-0.271c-0.015-0.096-0.076-0.175-0.19-0.236c-0.671-0.363-1.281-0.562-1.837-0.593
		c-0.556-0.032-1.05,0.048-1.488,0.237c-0.434,0.189-0.816,0.457-1.145,0.805c-0.328,0.347-0.605,0.71-0.831,1.088
		c-0.191,0.331-0.351,0.688-0.484,1.064c-0.133,0.38-0.161,0.734-0.085,1.066c0.074,0.331,0.296,0.607,0.663,0.828
		c0.368,0.221,0.959,0.323,1.78,0.309c0.606-0.016,1.243-0.107,1.913-0.273c0.669-0.165,1.328-0.37,1.978-0.615
		c0.651-0.245,1.279-0.512,1.885-0.805c0.605-0.291,1.148-0.567,1.629-0.828c0.304-0.164,0.572-0.314,0.813-0.451
		c-0.008,0.013-0.014,0.023-0.019,0.036c-0.276,0.601-0.458,1.089-0.542,1.468c-0.081,0.379-0.1,0.675-0.055,0.888
		c0.043,0.213,0.138,0.355,0.283,0.426c0.145,0.071,0.316,0.095,0.51,0.071c0.198-0.023,0.399-0.082,0.607-0.178
		c0.209-0.094,0.401-0.196,0.579-0.307c0.251-0.158,0.516-0.335,0.794-0.533c0.278-0.197,0.537-0.383,0.776-0.557
		c0.241-0.173,0.439-0.32,0.596-0.438c0.16-0.118,0.25-0.185,0.275-0.201c-0.025,0.033-0.088,0.139-0.188,0.318
		c-0.102,0.182-0.175,0.388-0.219,0.617c-0.043,0.228-0.019,0.438,0.076,0.627c0.094,0.188,0.338,0.307,0.729,0.354
		c0.254,0.033,0.587-0.022,1.005-0.165c0.416-0.142,0.866-0.319,1.354-0.532c0.485-0.213,0.98-0.453,1.487-0.722
		c0.504-0.269,0.974-0.524,1.408-0.771c0.436-0.243,0.809-0.461,1.12-0.65c0.119-0.072,0.218-0.131,0.307-0.183
		c-0.125,0.347-0.235,0.686-0.316,1.012c-0.127,0.505-0.156,0.938-0.085,1.302c0.069,0.363,0.258,0.639,0.568,0.828
		c0.31,0.189,0.792,0.246,1.448,0.166c0.429-0.047,0.917-0.166,1.467-0.355c0.551-0.189,1.107-0.414,1.677-0.674
		c0.567-0.261,1.126-0.533,1.675-0.816s1.045-0.558,1.486-0.816c0.158-0.093,0.301-0.18,0.442-0.264
		c-0.016,0.029-0.03,0.055-0.044,0.085c-0.277,0.601-0.459,1.089-0.539,1.468c-0.084,0.379-0.103,0.675-0.058,0.888
		s0.138,0.355,0.283,0.426c0.144,0.071,0.316,0.095,0.511,0.071c0.197-0.023,0.398-0.082,0.608-0.178
		c0.207-0.094,0.399-0.196,0.577-0.307c0.252-0.158,0.516-0.335,0.794-0.533c0.278-0.197,0.537-0.383,0.776-0.557
		c0.24-0.173,0.439-0.32,0.598-0.438c0.158-0.118,0.249-0.185,0.273-0.201c-0.024,0.033-0.09,0.139-0.188,0.318
		c-0.103,0.182-0.175,0.388-0.218,0.617c-0.045,0.228-0.019,0.438,0.076,0.627c0.094,0.188,0.336,0.307,0.729,0.354
		c0.252,0.033,0.586-0.022,1.004-0.165c0.416-0.142,0.868-0.319,1.354-0.532c0.486-0.213,0.982-0.453,1.484-0.722
		c0.507-0.269,0.975-0.524,1.413-0.771c0.436-0.243,0.809-0.461,1.116-0.65c0.035-0.021,0.062-0.037,0.096-0.057
		c-0.057,0.138-0.121,0.27-0.17,0.412c-0.121,0.331-0.229,0.647-0.324,0.947c-0.092,0.3-0.162,0.529-0.197,0.687
		c-0.039,0.142-0.002,0.276,0.105,0.402c0.105,0.126,0.234,0.224,0.387,0.296c0.151,0.07,0.307,0.098,0.465,0.082
		c0.156-0.016,0.273-0.102,0.35-0.26c0.126-0.268,0.363-0.58,0.709-0.936c0.348-0.354,0.719-0.697,1.118-1.029
		c0.397-0.332,0.773-0.618,1.126-0.863c0.354-0.246,0.601-0.392,0.738-0.439c-0.102,0.238-0.211,0.483-0.32,0.734
		c-0.102,0.223-0.202,0.47-0.305,0.745c-0.102,0.277-0.201,0.558-0.302,0.841c-0.102,0.284-0.159,0.557-0.171,0.816
		c-0.012,0.261,0.022,0.471,0.104,0.628c0.083,0.158,0.209,0.24,0.379,0.249c0.172,0.008,0.383-0.107,0.635-0.344
		c0.34-0.316,0.724-0.654,1.146-1.018c0.422-0.362,0.848-0.714,1.276-1.054c0.43-0.339,0.841-0.663,1.233-0.97
		c0.389-0.309,0.73-0.564,1.021-0.77c-0.051,0.11-0.131,0.272-0.238,0.484c-0.106,0.215-0.221,0.455-0.34,0.723
		c-0.119,0.269-0.236,0.541-0.351,0.816c-0.112,0.277-0.202,0.524-0.265,0.745c-0.152,0.601-0.148,1.03,0.008,1.29
		c0.16,0.262,0.547,0.328,1.165,0.201c0.292-0.062,0.673-0.192,1.146-0.391c0.474-0.197,0.978-0.426,1.515-0.686
		c0.537-0.261,1.086-0.533,1.646-0.817c0.563-0.284,1.082-0.56,1.556-0.827c0.237-0.137,0.459-0.263,0.665-0.381
		c-0.005,0.008-0.01,0.016-0.013,0.024c-0.278,0.601-0.458,1.089-0.54,1.468s-0.102,0.675-0.057,0.888
		c0.044,0.213,0.139,0.355,0.284,0.426c0.146,0.071,0.315,0.095,0.511,0.071s0.398-0.082,0.605-0.178
		c0.21-0.094,0.401-0.196,0.578-0.307c0.254-0.158,0.518-0.335,0.796-0.533c0.278-0.197,0.536-0.383,0.774-0.557
		c0.24-0.173,0.439-0.32,0.598-0.438c0.159-0.118,0.25-0.185,0.274-0.201c-0.024,0.033-0.088,0.139-0.188,0.318
		c-0.104,0.182-0.175,0.388-0.22,0.617c-0.047,0.228-0.019,0.438,0.076,0.627c0.096,0.188,0.338,0.307,0.729,0.354
		c0.254,0.033,0.586-0.022,1.004-0.165c0.417-0.142,0.868-0.319,1.354-0.532c0.487-0.213,0.982-0.453,1.486-0.722
		c0.507-0.269,0.977-0.524,1.411-0.771c0.435-0.243,0.808-0.46,1.116-0.648c-0.108,0.226-0.215,0.457-0.32,0.697
		c-0.183,0.418-0.346,0.816-0.483,1.195c-0.138,0.378-0.226,0.646-0.265,0.805c-0.025,0.126,0.016,0.256,0.123,0.391
		s0.236,0.235,0.389,0.308c0.15,0.07,0.305,0.099,0.463,0.083s0.273-0.104,0.351-0.26c0.202-0.441,0.499-0.889,0.89-1.339
		c0.393-0.448,0.799-0.864,1.222-1.241c0.423-0.38,0.824-0.703,1.202-0.971c0.381-0.27,0.65-0.435,0.815-0.498
		c-0.152,0.332-0.281,0.655-0.39,0.971c-0.105,0.316-0.17,0.597-0.189,0.84c-0.018,0.245,0.016,0.451,0.104,0.616
		c0.09,0.166,0.255,0.257,0.494,0.271c0.264,0.048,0.605,0.032,1.023-0.046c0.415-0.08,0.865-0.194,1.343-0.345
		c0.479-0.149,0.968-0.322,1.468-0.52c0.498-0.198,0.963-0.386,1.393-0.569c0.201-0.084,0.388-0.168,0.564-0.25
		c-0.025,0.049-0.049,0.094-0.072,0.144c-0.279,0.601-0.459,1.089-0.542,1.468c-0.081,0.379-0.1,0.675-0.055,0.888
		c0.044,0.213,0.138,0.355,0.284,0.426c0.144,0.071,0.315,0.095,0.51,0.071c0.197-0.023,0.397-0.082,0.607-0.178
		c0.207-0.094,0.4-0.196,0.577-0.307c0.253-0.158,0.517-0.335,0.796-0.533c0.276-0.197,0.536-0.383,0.775-0.557
		c0.24-0.173,0.439-0.32,0.596-0.438c0.16-0.118,0.249-0.185,0.275-0.201c-0.026,0.033-0.088,0.139-0.188,0.318
		c-0.102,0.182-0.176,0.388-0.219,0.617c-0.045,0.228-0.019,0.438,0.074,0.627c0.095,0.188,0.339,0.307,0.729,0.354
		c0.254,0.033,0.588-0.022,1.006-0.165c0.416-0.142,0.867-0.319,1.354-0.532c0.484-0.213,0.98-0.453,1.487-0.722
		c0.503-0.269,0.974-0.524,1.409-0.771c0.437-0.243,0.808-0.461,1.116-0.65c0.026-0.015,0.046-0.025,0.069-0.04
		c-0.057,0.132-0.121,0.259-0.172,0.396c-0.126,0.331-0.234,0.647-0.322,0.947s-0.152,0.529-0.189,0.687
		c-0.038,0.142-0.004,0.276,0.104,0.402c0.109,0.126,0.236,0.224,0.389,0.296c0.15,0.07,0.308,0.098,0.465,0.082
		c0.156-0.016,0.274-0.102,0.35-0.26c0.127-0.268,0.361-0.584,0.711-0.947c0.347-0.362,0.72-0.709,1.117-1.041
		c0.396-0.332,0.771-0.627,1.127-0.888c0.352-0.26,0.598-0.414,0.738-0.462c-0.152,0.316-0.298,0.623-0.437,0.924
		c-0.127,0.269-0.251,0.56-0.37,0.875c-0.119,0.316-0.217,0.615-0.293,0.899c-0.151,0.601-0.145,1.03,0.02,1.29
		c0.164,0.262,0.549,0.328,1.155,0.201c0.29-0.062,0.672-0.192,1.145-0.391c0.474-0.197,0.979-0.426,1.517-0.686
		c0.535-0.261,1.084-0.533,1.645-0.817c0.563-0.284,1.084-0.56,1.564-0.827c0.479-0.27,0.889-0.506,1.23-0.711
		c0.34-0.204,0.568-0.347,0.682-0.426c0.164-0.127,0.266-0.249,0.303-0.367S178.307,76.479,178.256,76.409 M103.329,73.414h0.489
		c-0.163,0.189-0.327,0.374-0.489,0.556c-0.165,0.182-0.337,0.36-0.513,0.533L103.329,73.414z"/>
</g>
</svg>
