<?xml version="1.0" encoding="utf-8"?>
<!-- Generator: Adobe Illustrator 19.0.0, SVG Export Plug-In . SVG Version: 6.00 Build 0)  -->
<svg version="1.1" id="Layer_1" xmlns="http://www.w3.org/2000/svg" xmlns:xlink="http://www.w3.org/1999/xlink" x="0px" y="0px"
	 viewBox="-39 251 400 140" style="enable-background:new -39 251 400 140;" xml:space="preserve">
<style type="text/css">
	.st0{fill:#fff;}
</style>
<g>
	<path class="st0" d="M307.6,372.5v18.1c0,0,23.4,0,32.7,0c6.7,0,18.2-4.9,18.6-18.6c0-0.6,0-6.5,0-7c0-11.7-9.6-18.6-18.6-18.6
		c-4.2,0-16.3,0-16.3,0V338h32.3v-18.2c0,0-22.2,0-31,0c-8,0-18.7,6.6-18.7,18.9c0,1.2,0,5.2,0,6.3c0,12.3,10.6,18.6,18.7,18.6
		c22.5,0.1-5.4,0,15.4,0c0,8.8,0,8.8,0,8.8"/>
	<path class="st0" d="M132.4,368.1c0,0,17.5-1.5,17.5-24.1s-21.2-24.7-21.2-24.7H90.5v71.3h19.2v-17.2l16.6,17.2h28.4L132.4,368.1z
		 M125,353.5h-15.3v-16.3h15.4c0,0,4.3,1.6,4.3,8.1S125,353.5,125,353.5z"/>
	<path class="st0" d="M197.3,319.8c-4.9,0-5.6,0-19.5,0s-18.6,12.6-18.6,18.6c0,13,0,52.2,0,52.2h19.5v-12.5H197v12.5h18.9
		c0,0,0-38.5,0-52.2C215.9,323.2,202.1,319.8,197.3,319.8z M197,357.9h-18.4v-17.3c0,0,0-3.9,6.1-3.9c5.6,0,1,0,6.7,0
		c5.4,0,5.5,3.9,5.5,3.9L197,357.9L197,357.9z"/>
	<rect x="224.8" y="319.8" class="st0" width="20.3" height="70.8"/>
	<polygon class="st0" points="273.6,372.3 273.6,319.8 253.4,319.8 253.4,372.3 253.4,390.6 273.6,390.6 300.9,390.6 300.9,372.3
		"/>
	<path class="st0" d="M-30,390.6h79c0,0-15.1-68.9,34.9-96.8c10.9-5.3,45.6-25.1,102.4,16.9c1.8-1.5,3.5-2.7,3.5-2.7
		s-52-51.9-109.9-46.1C50.8,264.5,15,291-6,326S-30,390.6-30,390.6z"/>
	<path class="st0" d="M-30,390.6h79c0,0-15.1-68.9,34.9-96.8c10.9-5.3,45.6-25.1,102.4,16.9c1.8-1.5,3.5-2.7,3.5-2.7
		s-52-51.9-109.9-46.1C50.8,264.5,15,291-6,326S-30,390.6-30,390.6z"/>
	<path class="st0" d="M-30,390.6h79c0,0-15.1-68.9,34.9-96.8c10.9-5.3,45.6-25.1,102.4,16.9c1.8-1.5,3.5-2.7,3.5-2.7
		s-52-51.9-109.9-46.1c-29.2,2.6-65,29.1-86,64.1S-30,390.6-30,390.6z"/>
	<path class="st0" d="M134.6,267.5l0.4-6.7c-0.9-0.5-3.4-1.7-9.7-3.5l-0.4,6.6C128.2,265,131.4,266.2,134.6,267.5z"/>
	<path class="st0" d="M125.1,288.7l-0.4,6.3c3.3,0.1,6.6,0.5,9.9,1.2l0.4-6.2C131.6,289.3,128.3,288.9,125.1,288.7z"/>
	<path class="st0" d="M88.1,257.5c0.3,0,0.7,0,1,0l-2-6.1c-3.1,0-6.3,0.2-9.6,0.6l1.9,5.9C82.3,257.6,85.2,257.5,88.1,257.5z"/>
	<path class="st0" d="M92.9,294.3l2.3,6.9c2.9-1.4,5.8-2.6,8.7-3.5l-2.2-6.6C98.3,292.1,95.4,293.2,92.9,294.3z"/>
	<path class="st0" d="M47.5,268l-4.5-6.9c-2.5,1.3-5.1,2.7-7.8,4.3l4.6,7C42.4,270.8,44.9,269.3,47.5,268z"/>
	<path class="st0" d="M68,313l4.8,7.2c1.7-2.5,3.7-4.8,5.9-7.1l-4.5-6.8C71.9,308.4,69.8,310.7,68,313z"/>
	<path class="st0" d="M53.5,345.2l8.1,6.4c0.4-3.9,1.1-7.8,2.1-11.7l-7.2-5.7C55.2,337.9,54.3,341.6,53.5,345.2z"/>
	<path class="st0" d="M9.7,297.7l-7.1-6.2c-2.6,2.5-5.1,5-7.4,7.5l7.7,6.6C5,302.9,7.3,300.2,9.7,297.7z"/>
	<path class="st0" d="M-20.5,342.4l-11.5-4.2c-1.9,4.3-4,9.3-5,12l11.5,4.2C-24.2,351-22.1,346.1-20.5,342.4z"/>
	<path class="st0" d="M52,370.6c0.2,5.3,0.7,9.6,1.2,12.6l12,4.3c-0.9-3.9-1.8-8.3-2.4-13L52,370.6z"/>
</g>
</svg>
