<!-- Generator: Adobe Illustrator 19.0.0, SVG Export Plug-In  -->
<svg version="1.1"
   xmlns="http://www.w3.org/2000/svg" xmlns:xlink="http://www.w3.org/1999/xlink" xmlns:a="http://ns.adobe.com/AdobeSVGViewerExtensions/3.0/"
   x="0px" y="0px" width="848.6px" height="128.8px" viewBox="0 0 848.6 128.8" style="enable-background:new 0 0 848.6 128.8;"
   xml:space="preserve">
<style type="text/css">
  .st0{fill:#0D7D8E;}
</style>
<defs>
</defs>
<g>
  <g>
    <g>
      <path class="st0" d="M200.6,6L200.6,6C200.6,6.1,200.6,6.1,200.6,6L200.6,6l10.2,9.8v25.6h27.3V3.3h-27.3v4.5l-6.2-5.9l0,0
        c-0.2-0.1-1.4-0.5-3,1.2C200,4.7,200.5,5.8,200.6,6L200.6,6z M228.9,29.8h5.8V38h-5.8V29.8z M228.9,14.4h1.6h0.8h2.3h0.9h0.2
        v14.7h-5.8V14.4L228.9,14.4z M228.9,6.7h0.9v7h-0.9V6.7z M232,6.7h0.9v7H232V6.7z M234.7,13.7h-0.2h-0.9v-7h1.1L234.7,13.7
        L234.7,13.7z M231.3,13.7h-0.8v-7h0.8V13.7z M228.2,13.7h-0.8v-7h0.8V13.7z M225.8,6.7h0.9v7h-0.9V6.7z M214.2,6.7h10.9v7h-3.6
        v0.7h3.6h2.3h0.8v14.7v0.7V38h-4.5v-1.5h-1.4v1.6h-8.2V25.5h1.1v-1.4h-1.1v-5l0.6,0.6c0.2-0.7,0.7-1.7,1.4-2.5
        c0.8-1,1.8-1.6,2.5-1.8l-4.5-4.3L214.2,6.7L214.2,6.7z"/>
    </g>
    <g>
      <path class="st0" d="M216.5,17.3c-1,1.1-1.3,2.1-1.3,2.5c0,0.1,0.3,0.3,0.4,0.3l0,0l0.8,0.1l0.6,0.1l2.6,0.3l0,0
        c0-0.2,0.1-0.4,0.2-0.6c0.1-0.1,0.3-0.3,0.6-0.3l-0.8-2.6l-0.2-0.6l-0.2-0.7c0-0.2-0.2-0.3-0.2-0.3
        C218.5,15.6,217.5,16.2,216.5,17.3z M218.7,16.4l0.1,0.4l0.2,0.6l0.6,2c-0.1,0.1-0.2,0.2-0.3,0.3s-0.2,0.2-0.2,0.3l-2.1-0.2
        l-0.6-0.1l-0.5-0.1c0.1-0.4,0.5-1.1,1.1-1.8C217.7,17,218.3,16.6,218.7,16.4z"/>
    </g>
    <g>
      <path class="st0" d="M220,20.7L220,20.7l0.6,0.5c0,0,0.2,0.1,0.3,0.1s0.2,0,0.2-0.1c0.1-0.1,0-0.5-0.1-0.5l-0.6-0.5
        c0,0,0,0-0.1,0l0,0c-0.1,0-0.2,0.1-0.3,0.2C220,20.5,219.9,20.6,220,20.7z"/>
    </g>
    <g>
      <polygon class="st0" points="222.4,26.2 223.7,26.2 223.7,24 221.4,24 221.4,25.4 222.4,25.4      "/>
    </g>
    <g>
      <rect x="217.4" y="24" class="st0" width="2" height="1.4"/>
    </g>
    <g>
      <rect x="222.4" y="28.3" class="st0" width="1.4" height="2"/>
    </g>
    <g>
      <rect x="222.4" y="32.4" class="st0" width="1.4" height="2"/>
    </g>
  </g>
</g>
<g>
  <g>
    <path class="st0" d="M814.9,23.8c2.9-4.1,4.5-6.7,5.8-8.7c-4.7,0.4-9.2,6.2-9.2,6.2l3.1,3.1C814.6,24.2,814.7,24,814.9,23.8z"/>
  </g>
  <g>
    <path class="st0" d="M827,37l3.1,3.1c0,0,5.9-4.5,6.3-9.2c-2,1.2-4.6,2.9-8.7,5.7C827.4,36.7,827.2,36.9,827,37z"/>
  </g>
  <g>
    <path class="st0" d="M822.3,35.3c-0.5,0.2-1.1,0.4-1.6,0.6c-1.5,0.5-3,0.8-4.5,1c-0.6,0.1-1.3,0.2-1.9,0.2c0-0.1,0-0.2,0-0.2
      c0.1-1.6,0.4-3.1,0.8-4.6c0.2-0.7,0.4-1.4,0.7-2.1c0.2-0.4,0.4-0.9,0.6-1.3l-0.3-0.3c-0.8,0.5-1.4,1.2-2,1.9
      c-0.8,1.1-1.5,2.3-1.9,3.6c-0.5,1.4-0.8,2.8-0.8,4.3c0,0.2,0,0.4,0,0.6c0,0.3,0.2,0.5,0.3,0.7c0.2,0.2,0.4,0.4,0.6,0.4
      c0.2,0.1,0.4,0.1,0.6,0.1c1.3,0,2.7-0.2,3.9-0.6c2.3-0.7,4.7-2,6-4l-0.3-0.3C822.4,35.3,822.3,35.3,822.3,35.3z"/>
  </g>
  <g>
    <path class="st0" d="M848.2,3.4L848.2,3.4C848,3.2,847.6,3,847.3,3l0,0c-4.1,0.1-14.4,0.8-19.8,6.2c-2.5,2.5-3.3,3.7-5,6.6
      c-1.3,2-3,4.8-6.2,9.3c-0.4,0.5-0.3,1.2,0.1,1.6l8.3,8.3c0.2,0.2,0.6,0.4,0.9,0.4c0.3,0,0.5-0.1,0.7-0.2c4.6-3.2,7.3-4.9,9.4-6.1
      c2.8-1.8,4.1-2.5,6.6-5c5.5-5.4,6.2-15.6,6.3-19.8C848.5,4,848.4,3.7,848.2,3.4z M838.5,19.1c-1.7,1.7-4.4,1.7-6.1,0
      c-1.7-1.7-1.7-4.4,0-6.1c1.7-1.7,4.4-1.7,6.1,0C840.2,14.7,840.2,17.4,838.5,19.1z"/>
  </g>
</g>
<g>
  <g>
    <g>
      <path class="st0" d="M637.2,5.7h-5.1V4.8c0-1-0.8-1.8-1.8-1.8h-4.1c-1,0-1.8,0.8-1.8,1.8v0.9h-5.1c-2.3,0-4.2,1.9-4.2,4.2
        L615,37.2c0,2.3,1.9,4.2,4.2,4.2h18c2.3,0,4.2-1.9,4.2-4.2l0.1-27.3C641.4,7.6,639.5,5.7,637.2,5.7z M628.2,3.8
        c0.5,0,0.9,0.4,0.9,0.9s-0.4,0.9-0.9,0.9s-0.9-0.4-0.9-0.9C627.3,4.2,627.7,3.8,628.2,3.8z M623.3,8.3h9.8v3.8h-9.8V8.3z
         M637.1,39h-18c-1,0-1.8-0.8-1.8-1.8l0.1-27.3c0-1,0.8-1.8,1.8-1.8h1.7v4.3c0,1.2,0.9,2.1,2.1,2.1h10.4c1.1,0,2.1-0.9,2.1-2.1
        V8.1h1.7c1,0,1.8,0.8,1.8,1.8l-0.1,27.3l0,0C638.9,38.2,638.1,39,637.1,39z"/>
    </g>
    <g>
      <path class="st0" d="M624,18.5l-0.4,0.5c-0.1-0.4-0.5-0.6-0.9-0.6h-2.8c-0.5,0-1,0.4-1,1v3.1c0,0.5,0.4,1,1,1h2.8
        c0.5,0,1-0.4,1-1v-1.6l1.3-1.5c0.2-0.3,0.2-0.6-0.1-0.8C624.6,18.2,624.3,18.3,624,18.5z M623,22.4L623,22.4
        c0,0.2-0.1,0.3-0.3,0.3h-2.8c-0.2,0-0.3-0.1-0.3-0.3v-3.1c0-0.2,0.1-0.3,0.3-0.3h2.8c0.2,0,0.3,0.1,0.3,0.3v0.3l-0.8,1
        c-0.2,0.3-0.6,0.3-0.8,0l-0.5-0.5c-0.2-0.2-0.6-0.2-0.8,0s-0.2,0.6,0,0.9l1.4,1.3c0.1,0.1,0.3,0.2,0.4,0.2l0,0
        c0.2,0,0.3-0.1,0.4-0.2l0.7-0.8L623,22.4z"/>
    </g>
    <g>
      <path class="st0" d="M624,25l-0.5,0.6c-0.2-0.3-0.5-0.5-0.9-0.5h-2.8c-0.5,0-1,0.4-1,1v3.1c0,0.5,0.4,1,1,1h2.8c0.5,0,1-0.4,1-1
        v-1.8l1.3-1.5c0.2-0.3,0.2-0.6-0.1-0.8C624.6,24.7,624.2,24.8,624,25z M623,29.1L623,29.1c0,0.2-0.1,0.3-0.3,0.3h-2.8
        c-0.2,0-0.3-0.1-0.3-0.3V26c0-0.2,0.1-0.3,0.3-0.3h2.8c0.2,0,0.3,0.1,0.3,0.3v0.2l-0.8,1c-0.2,0.3-0.6,0.3-0.8,0l-0.5-0.5
        c-0.2-0.2-0.6-0.2-0.8,0s-0.2,0.6,0,0.8l1.4,1.3c0.1,0.1,0.3,0.2,0.4,0.2l0,0c0.2,0,0.3-0.1,0.4-0.2L623,28L623,29.1z"/>
    </g>
    <g>
      <path class="st0" d="M624,31.6l-0.5,0.6c-0.2-0.3-0.5-0.5-0.8-0.5h-2.8c-0.5,0-1,0.4-1,1v3.1c0,0.5,0.4,1,1,1h2.8
        c0.5,0,1-0.4,1-1V34l1.3-1.5c0.2-0.3,0.2-0.6-0.1-0.8C624.6,31.3,624.2,31.3,624,31.6z M623,35.7L623,35.7c0,0.2-0.1,0.3-0.3,0.3
        h-2.8c-0.2,0-0.3-0.1-0.3-0.3v-3.1c0-0.2,0.1-0.3,0.3-0.3h2.8c0.2,0,0.3,0.1,0.3,0.3v0.1l-0.8,1c-0.2,0.3-0.6,0.3-0.8,0l-0.5-0.5
        c-0.2-0.2-0.6-0.2-0.8,0s-0.2,0.6,0,0.8l1.4,1.3c0.1,0.1,0.3,0.2,0.4,0.2l0,0c0.2,0,0.3-0.1,0.4-0.2l0.7-0.8L623,35.7z"/>
    </g>
    <g>
      <path class="st0" d="M637,20.5h-9.7c-0.3,0-0.6,0.3-0.6,0.6s0.3,0.6,0.6,0.6h9.7c0.3,0,0.6-0.3,0.6-0.6
        C637.6,20.8,637.3,20.5,637,20.5z"/>
    </g>
    <g>
      <path class="st0" d="M637,26.4h-9.7c-0.3,0-0.6,0.3-0.6,0.6s0.3,0.6,0.6,0.6h9.7c0.3,0,0.6-0.3,0.6-0.6
        C637.6,26.7,637.3,26.4,637,26.4z"/>
    </g>
    <g>
      <path class="st0" d="M637,32.3h-9.7c-0.3,0-0.6,0.3-0.6,0.6c0,0.3,0.3,0.6,0.6,0.6h9.7c0.3,0,0.6-0.3,0.6-0.6
        C637.6,32.5,637.3,32.3,637,32.3z"/>
    </g>
  </g>
</g>
<g>
  <g>
    <g>
      <g>
        <path class="st0" d="M429.4,20.1l2.8-2.7l-2.8-2.8l-2.8,2.8c-1.2-0.8-2.5-1.3-3.9-1.6v-3.9h-4v3.9c-1.4,0.3-2.7,0.8-3.9,1.6
          l-2.8-2.8l-2.8,2.8l2.7,2.7c-0.8,1.2-1.3,2.5-1.6,3.9h-3.9v4h3.9c0.3,1.4,0.8,2.7,1.6,3.9l-2.7,2.8l2.8,2.8l2.8-2.8
          c1.1,0.8,2.5,1.3,3.9,1.6v3.9h4v-3.9c1.4-0.3,2.7-0.8,3.9-1.6l2.8,2.7l2.8-2.8l-2.8-2.8c0.8-1.2,1.3-2.5,1.6-3.9h3.9v-4H431
          C430.7,22.6,430.2,21.2,429.4,20.1z M420.7,30.3c-2.4,0-4.3-1.9-4.3-4.3s1.9-4.3,4.3-4.3c2.4,0,4.3,1.9,4.3,4.3
          C425,28.3,423.1,30.3,420.7,30.3z"/>
      </g>
      <g>
        <path class="st0" d="M433.2,6.7c-3.5-2.2-7.6-3.5-12-3.5c-12.3,0-22.3,10-22.3,22.3c0,5.2,1.8,9.9,4.7,13.7l2.8-2.8
          c-2.2-3-3.6-6.8-3.6-10.8c0-10.2,8.2-18.4,18.4-18.4c3.4,0,6.5,1,9.2,2.6l-2.2,2.3l8.7,0.8L436,3.8L433.2,6.7z"/>
      </g>
      <g>
        <polygon class="st0" points="450.3,26 444.8,20.5 444.8,23.6 437.6,23.6 437.6,28.4 444.8,28.4 444.8,31.5         "/>
      </g>
    </g>
  </g>
</g>
<g>
  <g>
    <path class="st0" d="M28.1,13.2l1.3,2.9l-1.6,0.2l-0.2-2.1L27,15.7l-2.4-1.1l-0.2-2.5c0,0,1.9-0.1,1.9,0.1c0,0.1,0.2,2.6,0.2,2.6
      l0.6-2.1L28.1,13.2z M24,14.1l-0.1-1.8l-1.7,2.9l0.6,1.4L24,14.1z M25.3,23.4L24,21.3l-0.1-2.6h-1l-0.4,1.8l-0.6-0.1l0.3-1.4
      l0.6-2.2L22.3,16L21,16.1l-0.7,1.4l-0.2,2.4l0.1,0.8l0.4,1h0.2l1.5,0.6l0.9-1l0.1,2.5l-1-1l0.1,1.3l0.7,1.6l-0.8,1.2l0.2,2.5h2.1
      l-0.3-2.7l-0.6-0.2l-0.3,1v-1.4l1.2,0.4l0.4,3.1l1.8-1.5l-1.7-2.2L25.3,23.4z M20.6,22.3l-0.5,0.8l0.4,3.4l1.5-0.2l-0.3-3.7
      L20.6,22.3z M27.5,22.5l-1.7,0.1l-0.2,0.8l1.6,1l2.8-0.2l0.1-2.2l-2.2-1.4L27.5,22.5z M27.4,25.1l-0.8-0.6l-1,0.1l0.1,1.2l1.7,2
      l1.8-2.3L28.7,25L27.4,25.1z M24.5,19l0.4,2.6l1.1,0.3l1.2-0.1l0.4-2.1l0.9,0.6l1.2,0.7l0.4-1.4l-0.2-2.8L27.6,17l-1,2.3l-0.3-0.6
      l0.5-2.3l-0.7-0.3l-0.3,0.6l-0.6-0.1l0.2-1.1l-1.2-0.6l-1,1.9l0.6,1.3l1.4,0.4L25,19L24.5,19z M11.5,16.5l0.2-2.1l0.6,1.5l2.4-1.1
      l0.2-2.5c0,0-1.9-0.1-1.9,0.1c0,0.1-0.2,2.6-0.2,2.6l-0.6-2.1l-1,0.5l-1.3,2.9L11.5,16.5z M18,11.8l0.9-1.9l0.1,1.6l2.6-0.2l1-2.3
      c0,0-1.8-0.7-1.8-0.6c-0.1,0.1-1.1,2.4-1.1,2.4l0.1-2.2l-1.1,0.2l-2.2,2.3L18,11.8z M17.1,15.4l-1.7-2.9l-0.1,1.8l1.2,2.5
      L17.1,15.4z M14.7,11.9l2.2-1.7l-1.5,0.1l-1.9,1.3L14.7,11.9z M24.5,11.9l1.2-0.4l-1.9-1.3l-1.5-0.1L24.5,11.9z M15.2,26.8
      l-0.3,2.7H17l0.2-2.5l-0.8-1.2l0.7-1.6l0.1-1.3l-1,1l0.1-2.5l0.9,1l1.5-0.6h-0.1l0.5-0.7l0.2-0.9l-0.2-2.5l-0.8-1.4L17,16.2
      L16.5,17l0.6,2.2l0.3,1.4l-0.6,0.1l-0.4-1.8h-1l-0.1,2.6L14,23.6l0.4,2.3l-1.7,2.2l1.8,1.5l0.4-3.1l1.2-0.4v1.4l-0.3-1L15.2,26.8z
       M18.7,22.5l-1,0.4l-0.3,3.7l1.5,0.1l0.6-3.8L18.7,22.5z M13.6,23.6l-0.2-0.8l-1.7-0.1l-0.4-1.9l-2.2,1.4l0.1,2.2l2.8,0.2
      L13.6,23.6z M18,14.4l0.7,1.6l0.5-0.5l-0.4-3.3l-2.2-0.4L16,12.6l1.2,2.6L18,14.4z M20.3,12.1l-0.4,3.3l0.5,0.5l0.7-1.6l0.6,0.7
      l1.2-2.6l-0.5-0.8L20.3,12.1z M13.7,24.8l-1-0.1l-0.8,0.6l-1.3-0.2l-0.5,0.5l1.8,2.3l1.7-2L13.7,24.8z M17.6,28.6l-0.2,1.1l-1,0.9
      v0.8h2.7L19,28.6l-0.7-0.9L17.6,28.6z M20.9,27.8l-0.7,0.9l-0.1,2.8h2.7v-0.8l-1-0.9l-0.2-1.1L20.9,27.8z M16.1,17l-1-1.9
      l-1.2,0.6l0.2,1.1l-0.6,0.1l-0.3-0.6l-0.7,0.3l0.5,2.3l-0.3,0.6l-1-2.3L9.4,17l-0.2,2.8l0.4,1.4l1.2-0.7l0.9-0.6l0.4,2.1l1.2,0.1
      l1.1-0.3l0.4-2.6h-0.4l-0.2-0.5l1.4-0.3L16.1,17z M21.9,33.1L21.9,33.1c-0.1,0-0.4,0-0.7,0l0,0l0.1-1h-0.7l-0.1,1.1l-0.9,0.1h-0.2
      l-0.2-1.2h-0.7l0.2,1.3l-0.8,0.1c-0.1,0-0.2,0-0.4,0v-1.3h-1.4v1.5c0,0.6,0.2,0.9,0.4,1.1v1l6.7-0.7v-0.8l0.3-0.2v-1.9h-1.4
      L21.9,33.1L21.9,33.1L21.9,33.1z M16.4,36.7L16.4,36.7c-0.1,0.3,0,0.6,0.1,0.8l0.1,0.3l6.2-0.7l0.3-0.1v-0.3c0-0.1,0-0.3,0-0.9
      v-0.3l-6.7,0.7L16.4,36.7L16.4,36.7z M17,38.9c0.6,0.7,1.5,1,2.8,1l0,0c2.1,0,2.9-0.9,3.1-1.7l0.1-0.5l-6.5,0.7L17,38.9z M20.3,0
      H19v6.9h1.3V0z M28.2,1.3L27,0.8l-2.6,6.4l1.2,0.5L28.2,1.3z M34.1,4.8l-4.9,4.9l0.9,0.9L35,5.7L34.1,4.8z M38.6,11.2l-6.5,2.4
      l0.4,1.2l6.5-2.4L38.6,11.2z M32.9,18.3l-0.3,1.3l6.8,1.4l0.3-1.3L32.9,18.3z M15.2,7.7l-2.6-6.4l-1.2,0.5L14,8.2L15.2,7.7z
       M10.4,10.1L5.5,5.2L4.6,6.1L9.5,11L10.4,10.1z M0.6,12.9l6.5,2.4l0.4-1.2L1,11.7L0.6,12.9z M0,20.2l0.3,1.3l6.8-1.4l-0.3-1.3
      L0,20.2z"/>
  </g>
</g>
<g id="XMLID_1_">
  <g id="XMLID_2_">
    <g id="XMLID_13_">
      <rect x="826.5" y="69.4" class="st0" width="1" height="6"/>
    </g>
    <g id="XMLID_12_">
      <g>
        <rect x="826.5" y="88.4" class="st0" width="1" height="6"/>
      </g>
      <g>
        <rect x="826.5" y="109.8" class="st0" width="1" height="6"/>
      </g>
    </g>
    <g id="XMLID_11_">
      <polygon class="st0" points="827.5,128.8 821,128.8 821,127.8 826.5,127.8 826.5,122.3 827.5,122.3      "/>
    </g>
    <g id="XMLID_10_">
      <g>
        <rect x="803.1" y="127.8" class="st0" width="6" height="1"/>
      </g>
      <g>
        <path class="st0" d="M790.9,128.8h-12.2v-1h12.2V128.8z M766.6,128.8h-12.2v-1h12.2V128.8z M742.2,128.8h-12.2v-1h12.2V128.8z
           M717.9,128.8h-12.2v-1h12.2V128.8z M693.6,128.8h-12.2v-1h12.2V128.8z M669.2,128.8H657v-1h12.2V128.8z M644.9,128.8h-12.2v-1
          h12.2V128.8z M620.5,128.8h-12.2v-1h12.2V128.8z M596.2,128.8H584v-1h12.2V128.8z M571.8,128.8h-12.2v-1h12.2V128.8z
           M547.5,128.8h-12.2v-1h12.2V128.8z M523.2,128.8H511v-1h12.2V128.8z M498.8,128.8h-12.2v-1h12.2V128.8z M474.5,128.8h-12.2v-1
          h12.2V128.8z M450.1,128.8H438v-1h12.2V128.8z M425.8,128.8h-12.2v-1h12.2V128.8z M401.4,128.8h-12.2v-1h12.2V128.8z
           M377.1,128.8h-12.2v-1h12.2V128.8z M352.8,128.8h-12.2v-1h12.2V128.8z M328.4,128.8h-12.2v-1h12.2V128.8z M304.1,128.8h-12.2
          v-1h12.2V128.8z M279.7,128.8h-12.2v-1h12.2V128.8z M255.4,128.8h-12.2v-1h12.2V128.8z M231,128.8h-12.2v-1H231V128.8z
           M206.7,128.8h-12.2v-1h12.2V128.8z M182.4,128.8h-12.2v-1h12.2V128.8z M158,128.8h-12.2v-1H158V128.8z M133.7,128.8h-12.2v-1
          h12.2V128.8z M109.3,128.8H97.2v-1h12.2V128.8z M85,128.8H72.8v-1H85V128.8z M60.6,128.8H48.5v-1h12.2V128.8z"/>
      </g>
      <g>
        <rect x="30.3" y="127.8" class="st0" width="6" height="1"/>
      </g>
    </g>
    <g id="XMLID_9_">
      <polygon class="st0" points="24.4,128.8 17.9,128.8 17.9,122.3 18.9,122.3 18.9,127.8 24.4,127.8      "/>
    </g>
    <g id="XMLID_8_">
      <g>
        <rect x="17.9" y="104.2" class="st0" width="1" height="6"/>
      </g>
      <g>
        <rect x="17.9" y="89.9" class="st0" width="1" height="6"/>
      </g>
    </g>
    <g id="XMLID_7_">
      <rect x="17.9" y="77.8" class="st0" width="1" height="6"/>
    </g>
    <g id="XMLID_5_">
      <g id="XMLID_6_">
        <path class="st0" d="M830.8,73.4h-7.6v-7.6h7.6V73.4z M824.2,72.4h5.6v-5.6h-5.6V72.4z"/>
      </g>
    </g>
    <g id="XMLID_3_">
      <g id="XMLID_4_">
        <polygon class="st0" points="26.5,79.3 18.8,79.3 18.8,78.3 23.1,78.3 18.4,75.3 13.6,78.3 17.9,78.3 17.9,79.3 10.2,79.3 
          18.4,74.1         "/>
      </g>
    </g>
  </g>
</g>
<g>
  <g>
    <rect x="59.8" y="22.5" class="st0" width="116.9" height="1"/>
  </g>
  <g>
    <g>
      <polygon class="st0" points="174.7,24.7 176.4,23 174.7,21.3 176.1,21.3 177.8,23 176.1,24.7      "/>
    </g>
  </g>
</g>
<g>
  <g>
    <rect x="261.1" y="22.5" class="st0" width="116.9" height="1"/>
  </g>
  <g>
    <g>
      <polygon class="st0" points="376,24.7 377.7,23 376,21.3 377.4,21.3 379.1,23 377.4,24.7      "/>
    </g>
  </g>
</g>
<g>
  <g>
    <rect x="472.5" y="22.5" class="st0" width="116.9" height="1"/>
  </g>
  <g>
    <g>
      <polygon class="st0" points="587.3,24.7 589,23 587.3,21.3 588.8,21.3 590.5,23 588.8,24.7      "/>
    </g>
  </g>
</g>
<g>
  <g>
    <rect x="657.1" y="22.5" class="st0" width="116.9" height="1"/>
  </g>
  <g>
    <g>
      <polygon class="st0" points="772,24.7 773.7,23 772,21.3 773.4,21.3 775.1,23 773.4,24.7      "/>
    </g>
  </g>
</g>
</svg>
