<svg version="1.1"
   xmlns="http://www.w3.org/2000/svg" xmlns:xlink="http://www.w3.org/1999/xlink"
   x="0px" y="0px" width="25px" height="20.3px" viewBox="0 0 25 20.3" style="enable-background:new 0 0 25 20.3;"
   xml:space="preserve">
<defs>
</defs>
<g>
  <path d="M22.4,5.1c0,0.2,0,0.4,0,0.7c0,6.8-5.2,14.6-14.6,14.6C5,20.3,2.3,19.5,0,18c0.4,0,0.8,0.1,1.2,0.1
    c2.4,0,4.6-0.8,6.4-2.2c-2.3,0-4.1-1.5-4.8-3.6c0.3,0,0.6,0.1,1,0.1c0.5,0,0.9-0.1,1.3-0.2C2.8,11.8,1,9.7,1,7.2c0,0,0,0,0-0.1
    c0.7,0.4,1.5,0.6,2.3,0.7C2,6.9,1,5.3,1,3.5c0-1,0.3-1.8,0.7-2.6C4.3,4,8.1,6.1,12.3,6.3c-0.1-0.4-0.1-0.8-0.1-1.2
    c0-2.8,2.3-5.1,5.1-5.1c1.5,0,2.8,0.6,3.7,1.6c1.2-0.2,2.3-0.6,3.3-1.2c-0.4,1.2-1.2,2.2-2.3,2.8c1-0.1,2-0.4,3-0.8
    C24.3,3.4,23.4,4.3,22.4,5.1z"/>
</g>
</svg>
