<!-- Generator: Adobe Illustrator 19.0.0, SVG Export Plug-In  -->
<svg version="1.1"
   xmlns="http://www.w3.org/2000/svg" xmlns:xlink="http://www.w3.org/1999/xlink" xmlns:a="http://ns.adobe.com/AdobeSVGViewerExtensions/3.0/"
   x="0px" y="0px" width="567.1px" height="504.7px" viewBox="0 0 567.1 504.7" style="enable-background:new 0 0 567.1 504.7;"
   xml:space="preserve">
<style type="text/css">
  .st0{fill:#BABABA;}
  .st1{font-family:'AlwaysForever';}
  .st2{font-size:92.6856px;}
  .st3{fill:url(#SVGID_1_);}
  .st4{opacity:0.51;fill:url(#SVGID_2_);}
  .st5{opacity:0.7;fill:url(#SVGID_3_);}
  .st6{letter-spacing:-1.3;}
  .st7{letter-spacing:-0.9;}
  .st8{letter-spacing:-2.2;}
  .st9{fill:url(#SVGID_4_);}
  .st10{opacity:0.51;fill:url(#SVGID_5_);}
  .st11{opacity:0.7;fill:url(#SVGID_6_);}
</style>
<defs>
</defs>
<g>
  <text transform="matrix(2.3186 0 0 1 123.75 476.1888)" class="st0 st1 st2">invitation</text>
  <g id="XMLID_2_">
    <g id="XMLID_3_">
      <path id="XMLID_22_" class="st0" d="M33.2,386.8l3.5,12.6H37l3.5-12.6l19-62h3.3l18.8,62l3.4,12.6h0.3l3.6-12.6l16.5-62h3.3
        L87.1,405h-3.4l-19.9-66.9l-2.6-8h-0.3l-2.5,8L38.3,405h-3.4l-21.7-80.2h3.3L33.2,386.8z"/>
      <path id="XMLID_20_" class="st0" d="M166.3,364.7h-40.2V402h45.8v3h-48.8v-80.2h48.8v3h-45.8v33.9h40.2V364.7z"/>
      <path id="XMLID_16_" class="st0" d="M187.4,405v-80.2h21.1c8.3,0,14.7,1.7,19.3,5.1c4.6,3.4,6.9,8.6,6.9,15.4
        c0,4.8-1.2,8.8-3.7,12.1c-2.5,3.3-5.9,5.3-10.4,6.1c5,0.7,9.2,2.8,12.6,6.6c3.4,3.7,5.1,8,5.1,12.8c0,7-2.3,12.5-6.8,16.3
        c-4.5,3.9-10.5,5.8-18,5.8H187.4z M190.3,362.4h19.2c7.3,0,12.8-1.4,16.5-4.3c3.7-2.8,5.6-7.2,5.6-13c0-5.7-2-10.1-5.9-13
        c-3.9-2.9-9.7-4.4-17.3-4.4h-18.1V362.4z M190.3,365.4V402h23.2c6.8,0,12.1-1.7,16-5c3.9-3.3,5.8-8,5.8-14
        c0-4.9-1.9-9.1-5.6-12.5c-3.7-3.4-9-5.1-15.7-5.1H190.3z"/>
      <path id="XMLID_13_" class="st0" d="M255.4,405v-80.2h22.2c9.2,0,17,3.3,23.5,9.9c6.4,6.6,9.6,15,9.6,25.3v9.8
        c0,10.3-3.2,18.7-9.6,25.3c-6.4,6.6-14.3,9.9-23.5,9.9H255.4z M258.4,327.8V402h19.2c8.3,0,15.4-3,21.3-9.1
        c5.9-6.1,8.8-13.8,8.8-23.1v-10c0-9.2-2.9-16.8-8.8-22.9c-5.9-6.1-13-9.1-21.3-9.1H258.4z"/>
      <path id="XMLID_11_" class="st0" d="M334.4,405h-3v-80.2h3V405z"/>
      <path id="XMLID_9_" class="st0" d="M416.4,405h-3L362,330.3l-0.3,0.1V405h-3v-80.2h3l51.5,74.5l0.3-0.1v-74.4h3V405z"/>
      <path id="XMLID_7_" class="st0" d="M495,396.4c-1.7,2.3-4.9,4.6-9.7,6.6c-4.8,2.1-10.7,3.1-17.7,3.1c-9.2,0-16.6-3.3-22.3-9.8
        c-5.7-6.5-8.6-15-8.6-25.5v-13.1c0-10.1,2.8-18.3,8.3-24.6c5.5-6.3,12.8-9.5,21.7-9.5c8.5,0,15.2,2.2,20.2,6.6
        c5,4.4,7.5,10.1,7.6,17l-0.1,0.3h-2.5c-0.3-6.2-2.6-11.2-6.9-15.1c-4.3-3.9-10.4-5.8-18.4-5.8c-8.1,0-14.6,2.9-19.6,8.7
        c-4.9,5.8-7.4,13.2-7.4,22.3v13.2c0,9.5,2.6,17.3,7.7,23.3c5.1,6,11.9,9,20.3,9c5.9,0,11.1-0.9,15.5-2.6c4.4-1.7,7.4-3.6,8.9-5.6
        v-23.4h-24.5v-3H495V396.4z"/>
      <path id="XMLID_4_" class="st0" d="M564.1,385.8c0-5-1.8-9.1-5.5-12.1c-3.7-3-10.1-5.8-19.2-8.3c-9.1-2.5-15.8-5.3-20.1-8.4
        c-4.2-3.1-6.4-7.7-6.4-13.7c0-6,2.5-10.8,7.5-14.3c5-3.6,11.4-5.3,19.1-5.3c7.8,0,14.2,2.2,19.2,6.6c5,4.4,7.4,10,7.2,16.9
        l-0.1,0.3h-2.5c0-6-2.2-10.9-6.6-14.9c-4.4-3.9-10.1-5.9-17.1-5.9c-7.3,0-13,1.6-17.3,4.9c-4.2,3.2-6.4,7.2-6.4,11.7
        c0,4.6,1.8,8.3,5.3,11.3c3.5,3,9.9,5.7,19,8c8.9,2.4,15.6,5.2,20.1,8.6c4.5,3.4,6.8,8.2,6.8,14.5c0,6.4-2.6,11.4-7.8,15
        c-5.2,3.7-11.7,5.5-19.5,5.5c-8,0-15-1.9-20.8-5.6c-5.8-3.8-8.6-9.7-8.4-17.8l0.1-0.3h2.5c0,7.3,2.7,12.6,8,15.8
        c5.4,3.3,11.5,4.9,18.6,4.9c7.1,0,12.8-1.6,17.4-4.8C561.8,395.1,564.1,390.9,564.1,385.8z"/>
    </g>
  </g>
</g>
<g id="XMLID_1_">
  <linearGradient id="SVGID_1_" gradientUnits="userSpaceOnUse" x1="272.6355" y1="229.8848" x2="272.6355" y2="6.821210e-09">
    <stop  offset="0" style="stop-color:#8D8D8D"/>
    <stop  offset="0.618" style="stop-color:#787878"/>
    <stop  offset="0.6292" style="stop-color:#858585"/>
    <stop  offset="0.9831" style="stop-color:#7F7F7F"/>
  </linearGradient>
  <path class="st3" d="M528.8,68.6c-8.6-13.9-19.3-26-32.4-36.3c-13-10.3-27.5-18.2-43.3-23.5C437.4,3.4,421,1.2,404,2.1
    c-17,0.9-33.5,5.4-49.6,13.7c-11,5.7-20.8,12.3-29.4,20.1c-8.6,7.7-87.2,92.5-101.5,109.8c-14.4,17.3-32.2,31.4-53.3,42.3
    c-11.8,6.1-24,11.2-36.5,15.3c-12.5,4.1-24.6,6.1-36.5,5.8c-11.8-0.3-23-3.2-33.4-8.8c-10.4-5.6-19.6-14.9-27.7-28.1
    c-7.6-12.4-11.7-24.9-12.2-37.5c-0.6-12.7,1.6-24.7,6.5-36.1C35.4,87,42.7,76.5,52.4,67c9.7-9.6,20.9-17.6,33.6-24.1
    c39.3-20.2,73.4-25.7,102.2-16.3c17.2,5.6,33.3,15.9,48.3,30.9c2.1-1.7,4.7-3,7.8-3.6c-4-4-8.2-7.8-12.6-11.5
    c-16-13.4-33.6-23.8-52.6-31.3C160,3.6,140.2-0.1,119.7,0C99.2,0.1,79,5.3,59.1,15.5c-14.4,7.4-26.3,16.7-35.8,27.9
    C13.8,54.7,7.2,66.8,3.6,79.9c-3.7,13.1-4.5,26.6-2.6,40.6c1.9,14,6.9,27.6,15,40.7c9.5,15.4,21.3,28.4,35.3,39
    c14,10.6,29.1,18.4,45.4,23.6c16.2,5.1,33,7.1,50.3,5.8c17.3-1.3,34.2-6.1,50.7-14.6c17.8-9.1,32.4-20.1,44-32.9
    c11.6-12.8,51.6-53.4,62.5-66.8c10.9-13.5,22.5-26.8,34.7-39.9C351,62.1,366.4,50.7,385,41.1c26.6-13.7,51.9-18.5,75.8-14.6
    c23.9,4,41.9,15.8,54,35.5c12.4,20.1,13.6,55,3.8,76.1c-9.9,21.1-28.7,38.8-56.6,53.1c-26.2,13.5-51.4,18.7-75.5,15.6
    c-24.2-3.1-46.4-14.9-66.8-35.4l-5,4.1c10.7,10.2,23,19.4,36.6,27.7c13.7,8.2,28,14.6,43,19c15,4.5,30.3,6.4,46.1,5.7
    c15.7-0.7,30.9-4.9,45.7-12.5c28.7-14.8,47.2-33.9,55.2-57.4C549.3,134.7,545.2,95.2,528.8,68.6z"/>
  <linearGradient id="SVGID_2_" gradientUnits="userSpaceOnUse" x1="272.6355" y1="229.8848" x2="272.6355" y2="6.821210e-09">
    <stop  offset="0" style="stop-color:#6D6D6D"/>
    <stop  offset="0.5" style="stop-color:#4A4A4A"/>
    <stop  offset="0.5378" style="stop-color:#505050"/>
    <stop  offset="0.6652" style="stop-color:#606060"/>
    <stop  offset="0.8086" style="stop-color:#6A6A6A"/>
    <stop  offset="1" style="stop-color:#6D6D6D"/>
  </linearGradient>
  <path class="st4" d="M528.8,68.6c-8.6-13.9-19.3-26-32.4-36.3c-13-10.3-27.5-18.2-43.3-23.5C437.4,3.4,421,1.2,404,2.1
    c-17,0.9-33.5,5.4-49.6,13.7c-11,5.7-20.8,12.3-29.4,20.1c-8.6,7.7-87.2,92.5-101.5,109.8c-14.4,17.3-32.2,31.4-53.3,42.3
    c-11.8,6.1-24,11.2-36.5,15.3c-12.5,4.1-24.6,6.1-36.5,5.8c-11.8-0.3-23-3.2-33.4-8.8c-10.4-5.6-19.6-14.9-27.7-28.1
    c-7.6-12.4-11.7-24.9-12.2-37.5c-0.6-12.7,1.6-24.7,6.5-36.1C35.4,87,42.7,76.5,52.4,67c9.7-9.6,20.9-17.6,33.6-24.1
    c39.3-20.2,73.4-25.7,102.2-16.3c17.2,5.6,33.3,15.9,48.3,30.9c2.1-1.7,4.7-3,7.8-3.6c-4-4-8.2-7.8-12.6-11.5
    c-16-13.4-33.6-23.8-52.6-31.3C160,3.6,140.2-0.1,119.7,0C99.2,0.1,79,5.3,59.1,15.5c-14.4,7.4-26.3,16.7-35.8,27.9
    C13.8,54.7,7.2,66.8,3.6,79.9c-3.7,13.1-4.5,26.6-2.6,40.6c1.9,14,6.9,27.6,15,40.7c9.5,15.4,21.3,28.4,35.3,39
    c14,10.6,29.1,18.4,45.4,23.6c16.2,5.1,33,7.1,50.3,5.8c17.3-1.3,34.2-6.1,50.7-14.6c17.8-9.1,32.4-20.1,44-32.9
    c11.6-12.8,51.6-53.4,62.5-66.8c10.9-13.5,22.5-26.8,34.7-39.9C351,62.1,366.4,50.7,385,41.1c26.6-13.7,51.9-18.5,75.8-14.6
    c23.9,4,41.9,15.8,54,35.5c12.4,20.1,13.6,55,3.8,76.1c-9.9,21.1-28.7,38.8-56.6,53.1c-26.2,13.5-51.4,18.7-75.5,15.6
    c-24.2-3.1-46.4-14.9-66.8-35.4l-5,4.1c10.7,10.2,23,19.4,36.6,27.7c13.7,8.2,28,14.6,43,19c15,4.5,30.3,6.4,46.1,5.7
    c15.7-0.7,30.9-4.9,45.7-12.5c28.7-14.8,47.2-33.9,55.2-57.4C549.3,134.7,545.2,95.2,528.8,68.6z"/>
  <linearGradient id="SVGID_3_" gradientUnits="userSpaceOnUse" x1="272.6355" y1="-6.820301e-09" x2="272.6355" y2="229.8848">
    <stop  offset="0" style="stop-color:#FFFFFF;stop-opacity:0.77"/>
    <stop  offset="0.2033" style="stop-color:#FFFFFF;stop-opacity:0.65"/>
    <stop  offset="0.3448" style="stop-color:#FFFFFF;stop-opacity:0.65"/>
    <stop  offset="0.3462" style="stop-color:#FFFFFF;stop-opacity:0.65"/>
    <stop  offset="0.511" style="stop-color:#FFFFFF;stop-opacity:0"/>
    <stop  offset="0.5247" style="stop-color:#E1E1E1;stop-opacity:4.472275e-03"/>
    <stop  offset="0.5464" style="stop-color:#B8B8B8;stop-opacity:1.158136e-02"/>
    <stop  offset="0.5708" style="stop-color:#929292;stop-opacity:1.957367e-02"/>
    <stop  offset="0.5974" style="stop-color:#727272;stop-opacity:2.826838e-02"/>
    <stop  offset="0.6268" style="stop-color:#565656;stop-opacity:3.787606e-02"/>
    <stop  offset="0.6599" style="stop-color:#404040;stop-opacity:4.872554e-02"/>
    <stop  offset="0.6986" style="stop-color:#2F2F2F;stop-opacity:6.138782e-02"/>
    <stop  offset="0.7465" style="stop-color:#242424;stop-opacity:7.705475e-02"/>
    <stop  offset="0.8136" style="stop-color:#1D1D1D;stop-opacity:9.902187e-02"/>
    <stop  offset="1" style="stop-color:#1B1B1B;stop-opacity:0.16"/>
  </linearGradient>
  <path class="st5" d="M528.8,68.6c-8.6-13.9-19.3-26-32.4-36.3c-13-10.3-27.5-18.2-43.3-23.5C437.4,3.4,421,1.2,404,2.1
    c-17,0.9-33.5,5.4-49.6,13.7c-11,5.7-20.8,12.3-29.4,20.1c-8.6,7.7-87.2,92.5-101.5,109.8c-14.4,17.3-32.2,31.4-53.3,42.3
    c-11.8,6.1-24,11.2-36.5,15.3c-12.5,4.1-24.6,6.1-36.5,5.8c-11.8-0.3-23-3.2-33.4-8.8c-10.4-5.6-19.6-14.9-27.7-28.1
    c-7.6-12.4-11.7-24.9-12.2-37.5c-0.6-12.7,1.6-24.7,6.5-36.1C35.4,87,42.7,76.5,52.4,67c9.7-9.6,20.9-17.6,33.6-24.1
    c39.3-20.2,73.4-25.7,102.2-16.3c17.2,5.6,33.3,15.9,48.3,30.9c2.1-1.7,4.7-3,7.8-3.6c-4-4-8.2-7.8-12.6-11.5
    c-16-13.4-33.6-23.8-52.6-31.3C160,3.6,140.2-0.1,119.7,0C99.2,0.1,79,5.3,59.1,15.5c-14.4,7.4-26.3,16.7-35.8,27.9
    C13.8,54.7,7.2,66.8,3.6,79.9c-3.7,13.1-4.5,26.6-2.6,40.6c1.9,14,6.9,27.6,15,40.7c9.5,15.4,21.3,28.4,35.3,39
    c14,10.6,29.1,18.4,45.4,23.6c16.2,5.1,33,7.1,50.3,5.8c17.3-1.3,34.2-6.1,50.7-14.6c17.8-9.1,32.4-20.1,44-32.9
    c11.6-12.8,51.6-53.4,62.5-66.8c10.9-13.5,22.5-26.8,34.7-39.9C351,62.1,366.4,50.7,385,41.1c26.6-13.7,51.9-18.5,75.8-14.6
    c23.9,4,41.9,15.8,54,35.5c12.4,20.1,13.6,55,3.8,76.1c-9.9,21.1-28.7,38.8-56.6,53.1c-26.2,13.5-51.4,18.7-75.5,15.6
    c-24.2-3.1-46.4-14.9-66.8-35.4l-5,4.1c10.7,10.2,23,19.4,36.6,27.7c13.7,8.2,28,14.6,43,19c15,4.5,30.3,6.4,46.1,5.7
    c15.7-0.7,30.9-4.9,45.7-12.5c28.7-14.8,47.2-33.9,55.2-57.4C549.3,134.7,545.2,95.2,528.8,68.6z"/>
</g>
</svg>
