<?xml version="1.0" encoding="utf-8"?>
<!-- Generator: Adobe Illustrator 19.0.0, SVG Export Plug-In . SVG Version: 6.00 Build 0)  -->
<svg version="1.1" id="Livello_1" xmlns="http://www.w3.org/2000/svg" xmlns:xlink="http://www.w3.org/1999/xlink" x="0px" y="0px"
	 width="567.1px" height="504.7px" viewBox="234 -202.7 567.1 504.7" style="enable-background:new 234 -202.7 567.1 504.7;"
	 xml:space="preserve">
<style type="text/css">
	.st0{enable-background:new    ;}
	.st1{fill:#BABABA;}
	.st2{fill:url(#SVGID_1_);}
	.st3{opacity:0.51;fill:url(#SVGID_2_);enable-background:new    ;}
	.st4{opacity:0.7;fill:url(#SVGID_3_);enable-background:new    ;}
</style>
<g>
	<g class="st0">
		<path class="st1" d="M358.9,243.7l1.7,0.6c-0.1,2.6-0.4,5.2-0.6,7.7c-0.3,2.6-0.4,5.1-0.4,7.7c0,2.2,0.5,4.5,1.5,6.9
			c1,2.3,1.5,4.4,1.5,6.2c0,0.4-0.4,0.7-1.1,0.8c-1.1,0-2-0.6-2.7-1.9c-0.6-1.3-1.1-2.7-1.5-4.4c-0.4-1.6-0.6-3.2-0.8-4.7
			c-0.1-1.5-0.2-2.5-0.2-3c0-2.6,0.2-5.2,0.5-7.7c0.4-2.5,0.5-5.1,0.5-7.7L358.9,243.7z M361.9,233.6l-2.6,1c-1.1-0.2-1.7-0.5-1.7-1
			c0.7-0.3,1.7-0.5,3-0.5L361.9,233.6z"/>
		<path class="st1" d="M373.5,248l1.5,0.6c1.3,3.5,2.1,7,2.5,10.6c0.4,3.5,1.7,7,4,10.5c0.6-0.7,1.1-1.8,1.6-3.4
			c0.5-1.6,1-3.3,1.5-5.3c0.5-1.9,1-4,1.6-6c0.6-2.1,1.3-4,2.3-5.7c0.9-1.7,2.1-3.1,3.4-4.2c1.4-1.1,3-1.7,5-1.7
			c2,0,3.5,0.6,4.6,1.9c1.1,1.3,1.9,2.9,2.6,4.9s1.1,4.2,1.5,6.6c0.4,2.4,0.8,4.8,1.4,7c0.6,2.3,1.3,4.3,2.3,6.2
			c0.9,1.8,2.3,3.2,4.2,4c1.3,0.6,2.6,1.2,3.9,1.8c1.3,0.6,2.6,1.1,4.1,1.6l-1.3,0.6c-4.3-0.6-7.6-1.7-9.9-3.4
			c-2.3-1.7-4-3.8-5.2-6.1c-1.1-2.3-1.9-4.8-2.3-7.4c-0.4-2.6-0.7-5-1-7.3c-0.3-2.3-0.8-4.2-1.5-5.8c-0.7-1.6-2-2.7-3.9-3.1
			c-1.4,0-2.6,0.5-3.5,1.6c-0.9,1.1-1.7,2.4-2.4,4c-0.6,1.6-1.2,3.5-1.7,5.5c-0.5,2-1,4.1-1.6,6.1c-0.6,2-1.2,3.9-1.8,5.7
			s-1.4,3.2-2.3,4.4l-0.6,0.1c-1.3,0-2.4-0.5-3.3-1.5c-0.9-1-1.8-2.3-2.5-3.8c-0.7-1.5-1.3-3.3-1.8-5.1c-0.5-1.9-0.9-3.7-1.3-5.5
			c-0.4-1.8-0.7-3.3-1-4.7c-0.3-1.4-0.5-2.4-0.6-2.9L373.5,248z"/>
		<path class="st1" d="M431.9,275.9c-1.7,0-3.2-0.9-4.5-2.8c-1.3-1.9-2.5-4-3.5-6.6c-1.1-2.5-2-5.1-2.8-7.7
			c-0.8-2.6-1.5-4.6-2.3-6.1c-0.3-0.7-0.8-1.4-1.4-2.1c-0.6-0.7-1-1.5-1-2.1c0-0.2,0.1-0.5,0.4-0.8c0.3-0.3,0.8-0.5,1.5-0.5
			c0.6,0,1.1,0.5,1.7,1.4c0.6,0.9,1.2,2.2,1.8,3.7c0.6,1.5,1.3,3.3,2,5.2c0.7,1.9,1.5,3.9,2.4,5.9c0.9,2,1.7,3.9,2.6,5.8
			c0.9,1.9,1.9,3.5,3,4.9c0.9-1,1.7-2.4,2.5-4.2c0.8-1.8,1.5-3.8,2-6c0.6-2.2,1-4.5,1.4-7c0.4-2.4,0.7-4.8,1-7
			c0.3-2.3,0.5-4.4,0.6-6.3c0.1-1.9,0.3-3.5,0.4-4.8l1.7-0.6l1.5,0.6c-0.1,1.9-0.3,4.1-0.5,6.6c-0.2,2.6-0.5,5.2-0.9,7.9
			c-0.4,2.7-0.8,5.4-1.3,8.2c-0.5,2.7-1.1,5.1-1.9,7.2c-0.8,2.1-1.7,3.8-2.8,5.1C434.6,275.2,433.4,275.9,431.9,275.9z"/>
		<path class="st1" d="M454.3,243.7l1.7,0.6c-0.1,2.6-0.4,5.2-0.6,7.7c-0.3,2.6-0.4,5.1-0.4,7.7c0,2.2,0.5,4.5,1.5,6.9
			c1,2.3,1.5,4.4,1.5,6.2c0,0.4-0.4,0.7-1.1,0.8c-1.1,0-2-0.6-2.7-1.9c-0.6-1.3-1.1-2.7-1.5-4.4c-0.4-1.6-0.6-3.2-0.8-4.7
			c-0.1-1.5-0.2-2.5-0.2-3c0-2.6,0.2-5.2,0.5-7.7c0.4-2.5,0.5-5.1,0.5-7.7L454.3,243.7z M457.3,233.6l-2.6,1c-1.1-0.2-1.7-0.5-1.7-1
			c0.7-0.3,1.7-0.5,3-0.5L457.3,233.6z"/>
		<path class="st1" d="M462.7,248.7c0-0.2,0.7-0.5,2-0.7c1.4-0.2,2.9-0.4,4.5-0.6c1.6-0.2,3.3-0.3,4.8-0.4c1.6-0.1,2.6-0.2,3.2-0.2
			c0.6-2.8,1.1-5.6,1.5-8.3c0.4-2.8,0.9-5.6,1.3-8.3l1.5-0.6l1.5,0.6c-0.3,2.8-0.7,5.5-1.2,8.2c-0.5,2.7-1,5.5-1.4,8.2l11.6-0.7
			l1.5,0.6c0,0.2-0.6,0.5-1.8,0.6c-1.2,0.2-2.6,0.3-4.1,0.4s-3,0.2-4.4,0.2c-1.4,0.1-2.4,0.1-3,0.2c-0.6,2.6-1,5.2-1.3,7.8
			c-0.3,2.6-0.4,5.2-0.4,7.8c0,2,0.2,4.1,0.6,6.1c0.4,2,1.4,4,2.8,6c0.6,0.7,1.4,1.4,2.5,2.2c1.1,0.8,1.7,1.5,1.8,2.2l-1.5,0.7
			l-1.3-0.5c-1.7-1.7-3.1-3.1-4.2-4.4c-1.1-1.3-1.9-2.5-2.4-3.7c-0.5-1.2-0.8-2.5-1-3.8c-0.1-1.3-0.2-2.9-0.2-4.7
			c0-2.6,0.1-5.2,0.2-7.8c0.1-2.6,0.4-5.2,0.9-7.8c-2.1,0.1-4.3,0.3-6.3,0.4c-2.1,0.2-4.1,0.4-6.1,0.6L462.7,248.7z"/>
		<path class="st1" d="M495.3,261.9c0-1.2,0.3-2.8,1-5c0.6-2.2,1.8-4.3,3.3-6.3c1.6-2.1,3.6-3.9,6.1-5.4c2.5-1.5,5.7-2.3,9.6-2.3
			c2.4,0,4.5,0.3,6.3,1c1.8,0.7,3.3,1.4,4.6,2.1c0-0.3,0.1-0.6,0.3-0.8s0.7-0.4,1.4-0.6l1.5,0.6c0,0.6,0,1.6,0,3.2
			c0,1.6,0.1,3.5,0.2,5.6c0.1,2.1,0.4,4.3,0.8,6.6c0.4,2.3,0.9,4.4,1.7,6.3c0.8,1.9,1.8,3.5,3.1,4.8c1.3,1.3,2.9,1.9,4.9,1.9
			l3.9-0.7l1.3,0.7c-0.3,0.4-1,0.7-2.3,1.1c-1.2,0.3-2.3,0.5-3.1,0.5c-2.6,0-4.7-0.7-6.2-2.1c-1.6-1.4-2.8-3.1-3.8-4.9
			c-0.9-1.9-1.6-3.7-2-5.5c-0.4-1.8-0.7-3.2-0.9-4c-0.4,1.1-1.3,2.4-2.5,4.2c-1.2,1.7-2.8,3.5-4.6,5.2c-1.9,1.7-4,3.2-6.6,4.4
			c-2.5,1.2-5.3,1.9-8.5,1.9c-2.1,0-3.9-0.5-5.2-1.6c-1.3-1.1-2.3-2.3-2.9-3.7s-1.1-2.8-1.3-4.2
			C495.5,263.4,495.3,262.4,495.3,261.9z M505.9,272.5c2,0,3.9-0.4,5.7-1.3c1.8-0.9,3.5-2,5-3.3c1.6-1.4,2.9-2.9,4.1-4.5
			c1.1-1.7,2.1-3.3,3-4.9c0.9-1.6,1.5-3,1.9-4.3s0.6-2.3,0.6-3v-3.8c-0.9,0-1.6-0.2-2.3-0.5c-0.6-0.3-1.3-0.7-2-1.1
			c-0.7-0.4-1.5-0.8-2.5-1.1c-0.9-0.3-2.1-0.5-3.5-0.5c-3.4,0-6.3,0.7-8.5,2.2c-2.2,1.5-4,3.2-5.3,5.2c-1.3,2-2.2,4-2.8,5.9
			c-0.6,2-0.9,3.5-0.9,4.5c0,0.5,0,1.3,0.1,2.5c0.1,1.1,0.3,2.3,0.8,3.5c0.4,1.2,1.1,2.3,2.1,3.2C502.6,272.1,504,272.5,505.9,272.5
			z"/>
		<path class="st1" d="M539.8,248.7c0-0.2,0.7-0.5,2-0.7c1.4-0.2,2.9-0.4,4.5-0.6c1.6-0.2,3.3-0.3,4.8-0.4c1.6-0.1,2.6-0.2,3.2-0.2
			c0.6-2.8,1.1-5.6,1.5-8.3c0.4-2.8,0.9-5.6,1.3-8.3l1.5-0.6l1.5,0.6c-0.3,2.8-0.7,5.5-1.2,8.2c-0.5,2.7-1,5.5-1.4,8.2l11.6-0.7
			l1.5,0.6c0,0.2-0.6,0.5-1.8,0.6c-1.2,0.2-2.6,0.3-4.1,0.4s-3,0.2-4.4,0.2c-1.4,0.1-2.4,0.1-3,0.2c-0.6,2.6-1,5.2-1.3,7.8
			c-0.3,2.6-0.4,5.2-0.4,7.8c0,2,0.2,4.1,0.6,6.1c0.4,2,1.4,4,2.8,6c0.6,0.7,1.4,1.4,2.5,2.2c1.1,0.8,1.7,1.5,1.8,2.2L562,281
			l-1.3-0.5c-1.7-1.7-3.1-3.1-4.2-4.4c-1.1-1.3-1.9-2.5-2.4-3.7c-0.5-1.2-0.8-2.5-1-3.8c-0.1-1.3-0.2-2.9-0.2-4.7
			c0-2.6,0.1-5.2,0.2-7.8c0.1-2.6,0.4-5.2,0.9-7.8c-2.1,0.1-4.3,0.3-6.3,0.4c-2.1,0.2-4.1,0.4-6.1,0.6L539.8,248.7z"/>
		<path class="st1" d="M581.5,243.7l1.7,0.6c-0.1,2.6-0.4,5.2-0.6,7.7c-0.3,2.6-0.4,5.1-0.4,7.7c0,2.2,0.5,4.5,1.5,6.9
			c1,2.3,1.5,4.4,1.5,6.2c0,0.4-0.4,0.7-1.1,0.8c-1.1,0-2-0.6-2.7-1.9c-0.6-1.3-1.1-2.7-1.5-4.4c-0.4-1.6-0.6-3.2-0.8-4.7
			c-0.1-1.5-0.2-2.5-0.2-3c0-2.6,0.2-5.2,0.5-7.7c0.4-2.5,0.5-5.1,0.5-7.7L581.5,243.7z M584.5,233.6l-2.6,1c-1.1-0.2-1.7-0.5-1.7-1
			c0.7-0.3,1.7-0.5,3-0.5L584.5,233.6z"/>
		<path class="st1" d="M595.5,255.8c0-1.3,0.1-2.7,0.3-4.1c0.2-1.5,0.8-2.8,1.7-4.1c0.9-1.3,2.3-2.3,4.1-3.2
			c1.8-0.8,4.3-1.3,7.4-1.3c4.3,0,7.8,0.6,10.4,1.9c2.6,1.3,4.7,2.8,6.1,4.6c1.4,1.8,2.4,3.7,2.9,5.6c0.5,1.9,0.8,3.6,0.8,4.9
			c0,1.1-0.3,2.4-0.9,4.1c-0.6,1.7-1.5,3.3-2.9,4.8c-1.4,1.5-3.2,2.9-5.5,4c-2.3,1.1-5.1,1.7-8.4,1.7c-3.3,0-6-0.6-8.2-1.9
			c-2.1-1.3-3.8-2.8-4.9-4.5c-1.1-1.8-1.9-3.5-2.4-5.3c-0.4-1.8-0.6-3.2-0.6-4.3V255.8z M626.4,259.3c0-1.1-0.3-2.5-0.9-4.2
			c-0.6-1.7-1.5-3.3-2.9-4.8c-1.4-1.5-3.2-2.9-5.5-4c-2.3-1.1-5.2-1.7-8.6-1.7c-2.4,0-4.4,0.5-5.8,1.6c-1.4,1.1-2.5,2.3-3.1,3.7
			c-0.6,1.4-1,2.8-1.2,4.2c-0.1,1.4-0.2,2.4-0.2,3.1c0,0.9,0.1,2.2,0.4,3.9c0.3,1.7,0.9,3.5,1.8,5.2c0.9,1.7,2.3,3.3,4,4.6
			c1.7,1.3,4.1,2,7.1,2c3.1,0,5.7-0.5,7.6-1.6c1.9-1,3.4-2.3,4.5-3.8c1.1-1.5,1.8-2.9,2.1-4.5C626.3,261.4,626.4,260.2,626.4,259.3z
			"/>
		<path class="st1" d="M636.1,248l1.5,0.6c1.3,3.5,2.1,7,2.5,10.6c0.4,3.5,1.7,7,4,10.5c0.6-0.7,1.1-1.8,1.6-3.4
			c0.5-1.6,1-3.3,1.5-5.3c0.5-1.9,1-4,1.6-6c0.6-2.1,1.3-4,2.3-5.7c0.9-1.7,2.1-3.1,3.4-4.2c1.4-1.1,3-1.7,5-1.7
			c2,0,3.5,0.6,4.6,1.9c1.1,1.3,1.9,2.9,2.6,4.9s1.1,4.2,1.5,6.6c0.4,2.4,0.8,4.8,1.4,7c0.6,2.3,1.3,4.3,2.3,6.2
			c0.9,1.8,2.3,3.2,4.2,4c1.3,0.6,2.6,1.2,3.9,1.8c1.3,0.6,2.6,1.1,4.1,1.6l-1.3,0.6c-4.3-0.6-7.6-1.7-9.9-3.4
			c-2.3-1.7-4-3.8-5.2-6.1c-1.1-2.3-1.9-4.8-2.3-7.4c-0.4-2.6-0.7-5-1-7.3c-0.3-2.3-0.8-4.2-1.5-5.8c-0.7-1.6-2-2.7-3.9-3.1
			c-1.4,0-2.6,0.5-3.5,1.6c-0.9,1.1-1.7,2.4-2.4,4c-0.6,1.6-1.2,3.5-1.7,5.5c-0.5,2-1,4.1-1.6,6.1c-0.6,2-1.2,3.9-1.8,5.7
			s-1.4,3.2-2.3,4.4l-0.6,0.1c-1.3,0-2.4-0.5-3.3-1.5c-0.9-1-1.8-2.3-2.5-3.8c-0.7-1.5-1.3-3.3-1.8-5.1c-0.5-1.9-0.9-3.7-1.3-5.5
			c-0.4-1.8-0.7-3.3-1-4.7c-0.3-1.4-0.5-2.4-0.6-2.9L636.1,248z"/>
	</g>
	<g id="XMLID_2_">
		<g id="XMLID_3_">
			<g id="XMLID_22_">
				<path class="st1" d="M260.6,186.2l3.5,12.6h0.3l3.5-12.6l19-62h3.3l18.8,62l3.4,12.6h0.3l3.6-12.6l16.5-62h3.3l-21.6,80.2h-3.4
					l-19.9-66.9l-2.6-8h-0.3l-2.5,8l-20.1,66.9h-3.4l-21.7-80.2h3.3L260.6,186.2z"/>
			</g>
			<g id="XMLID_20_">
				<path class="st1" d="M393.7,164.1h-40.2v37.3h45.8v3h-48.8v-80.2h48.8v3h-45.8v33.9h40.2V164.1z"/>
			</g>
			<g id="XMLID_16_">
				<path class="st1" d="M414.8,204.4v-80.2h21.1c8.3,0,14.7,1.7,19.3,5.1s6.9,8.6,6.9,15.4c0,4.8-1.2,8.8-3.7,12.1
					c-2.5,3.3-5.9,5.3-10.4,6.1c5,0.7,9.2,2.8,12.6,6.6c3.4,3.7,5.1,8,5.1,12.8c0,7-2.3,12.5-6.8,16.3c-4.5,3.9-10.5,5.8-18,5.8
					L414.8,204.4L414.8,204.4z M417.7,161.8h19.2c7.3,0,12.8-1.4,16.5-4.3c3.7-2.8,5.6-7.2,5.6-13c0-5.7-2-10.1-5.9-13
					s-9.7-4.4-17.3-4.4h-18.1V161.8z M417.7,164.8v36.6h23.2c6.8,0,12.1-1.7,16-5s5.8-8,5.8-14c0-4.9-1.9-9.1-5.6-12.5
					s-9-5.1-15.7-5.1H417.7z"/>
			</g>
			<g id="XMLID_13_">
				<path class="st1" d="M482.8,204.4v-80.2H505c9.2,0,17,3.3,23.5,9.9c6.4,6.6,9.6,15,9.6,25.3v9.8c0,10.3-3.2,18.7-9.6,25.3
					c-6.4,6.6-14.3,9.9-23.5,9.9L482.8,204.4L482.8,204.4z M485.8,127.2v74.2H505c8.3,0,15.4-3,21.3-9.1c5.9-6.1,8.8-13.8,8.8-23.1
					v-10c0-9.2-2.9-16.8-8.8-22.9c-5.9-6.1-13-9.1-21.3-9.1H485.8z"/>
			</g>
			<g id="XMLID_11_">
				<path class="st1" d="M561.8,204.4h-3v-80.2h3V204.4z"/>
			</g>
			<g id="XMLID_9_">
				<path class="st1" d="M643.8,204.4h-3l-51.4-74.7l-0.3,0.1v74.6h-3v-80.2h3l51.5,74.5l0.3-0.1v-74.4h3v80.2H643.8z"/>
			</g>
			<g id="XMLID_7_">
				<path class="st1" d="M722.4,195.8c-1.7,2.3-4.9,4.6-9.7,6.6c-4.8,2.1-10.7,3.1-17.7,3.1c-9.2,0-16.6-3.3-22.3-9.8
					c-5.7-6.5-8.6-15-8.6-25.5v-13.1c0-10.1,2.8-18.3,8.3-24.6c5.5-6.3,12.8-9.5,21.7-9.5c8.5,0,15.2,2.2,20.2,6.6s7.5,10.1,7.6,17
					l-0.1,0.3h-2.5c-0.3-6.2-2.6-11.2-6.9-15.1S702,126,694,126c-8.1,0-14.6,2.9-19.6,8.7c-4.9,5.8-7.4,13.2-7.4,22.3v13.2
					c0,9.5,2.6,17.3,7.7,23.3c5.1,6,11.9,9,20.3,9c5.9,0,11.1-0.9,15.5-2.6c4.4-1.7,7.4-3.6,8.9-5.6v-23.4h-24.5v-3h27.5V195.8z"/>
			</g>
			<g id="XMLID_4_">
				<path class="st1" d="M791.5,185.2c0-5-1.8-9.1-5.5-12.1s-10.1-5.8-19.2-8.3c-9.1-2.5-15.8-5.3-20.1-8.4
					c-4.2-3.1-6.4-7.7-6.4-13.7s2.5-10.8,7.5-14.3c5-3.6,11.4-5.3,19.1-5.3c7.8,0,14.2,2.2,19.2,6.6s7.4,10,7.2,16.9l-0.1,0.3h-2.5
					c0-6-2.2-10.9-6.6-14.9c-4.4-3.9-10.1-5.9-17.1-5.9c-7.3,0-13,1.6-17.3,4.9c-4.2,3.2-6.4,7.2-6.4,11.7c0,4.6,1.8,8.3,5.3,11.3
					s9.9,5.7,19,8c8.9,2.4,15.6,5.2,20.1,8.6s6.8,8.2,6.8,14.5c0,6.4-2.6,11.4-7.8,15c-5.2,3.7-11.7,5.5-19.5,5.5
					c-8,0-15-1.9-20.8-5.6c-5.8-3.8-8.6-9.7-8.4-17.8l0.1-0.3h2.5c0,7.3,2.7,12.6,8,15.8c5.4,3.3,11.5,4.9,18.6,4.9
					s12.8-1.6,17.4-4.8C789.2,194.5,791.5,190.3,791.5,185.2z"/>
			</g>
		</g>
	</g>
</g>
<g id="XMLID_1_">
	
		<linearGradient id="SVGID_1_" gradientUnits="userSpaceOnUse" x1="506.6328" y1="71.3143" x2="506.6328" y2="301.302" gradientTransform="matrix(1 0 0 -1 0 98.6)">
		<stop  offset="0" style="stop-color:#8D8D8D"/>
		<stop  offset="0.618" style="stop-color:#787878"/>
		<stop  offset="0.6292" style="stop-color:#858585"/>
		<stop  offset="0.9831" style="stop-color:#7F7F7F"/>
	</linearGradient>
	<path class="st2" d="M762.8-134.1c-8.6-13.9-19.3-26-32.4-36.3c-13-10.3-27.5-18.2-43.3-23.5c-15.7-5.4-32.1-7.6-49.1-6.7
		c-17,0.9-33.5,5.4-49.6,13.7c-11,5.7-20.8,12.3-29.4,20.1c-8.6,7.7-87.2,92.5-101.5,109.8c-14.4,17.3-32.2,31.4-53.3,42.3
		c-11.8,6.1-24,11.2-36.5,15.3s-24.6,6.1-36.5,5.8c-11.8-0.3-23-3.2-33.4-8.8c-10.4-5.6-19.6-14.9-27.7-28.1
		c-7.6-12.4-11.7-24.9-12.2-37.5c-0.6-12.7,1.6-24.7,6.5-36.1c5-11.6,12.3-22.1,22-31.6c9.7-9.6,20.9-17.6,33.6-24.1
		c39.3-20.2,73.4-25.7,102.2-16.3c17.2,5.6,33.3,15.9,48.3,30.9c2.1-1.7,4.7-3,7.8-3.6c-4-4-8.2-7.8-12.6-11.5
		c-16-13.4-33.6-23.8-52.6-31.3c-19.1-7.5-38.9-11.2-59.4-11.1s-40.7,5.3-60.6,15.5c-14.4,7.4-26.3,16.7-35.8,27.9
		c-9.5,11.3-16.1,23.4-19.7,36.5c-3.7,13.1-4.5,26.6-2.6,40.6s6.9,27.6,15,40.7c9.5,15.4,21.3,28.4,35.3,39s29.1,18.4,45.4,23.6
		c16.2,5.1,33,7.1,50.3,5.8s34.2-6.1,50.7-14.6c17.8-9.1,32.4-20.1,44-32.9c11.6-12.8,51.6-53.4,62.5-66.8
		c10.9-13.5,22.5-26.8,34.7-39.9c12.1-13.3,27.5-24.7,46.1-34.3c26.6-13.7,51.9-18.5,75.8-14.6c23.9,4,41.9,15.8,54,35.5
		c12.4,20.1,13.6,55,3.8,76.1c-9.9,21.1-28.7,38.8-56.6,53.1C669.8,2,644.6,7.2,620.5,4.1c-24.2-3.1-46.4-14.9-66.8-35.4l-5,4.1
		c10.7,10.2,23,19.4,36.6,27.7c13.7,8.2,28,14.6,43,19c15,4.5,30.3,6.4,46.1,5.7c15.7-0.7,30.9-4.9,45.7-12.5
		c28.7-14.8,47.2-33.9,55.2-57.4C783.3-68,779.2-107.5,762.8-134.1z"/>
	
		<linearGradient id="SVGID_2_" gradientUnits="userSpaceOnUse" x1="506.6328" y1="71.3143" x2="506.6328" y2="301.302" gradientTransform="matrix(1 0 0 -1 0 98.6)">
		<stop  offset="0" style="stop-color:#6D6D6D"/>
		<stop  offset="0.5" style="stop-color:#4A4A4A"/>
		<stop  offset="0.5378" style="stop-color:#505050"/>
		<stop  offset="0.6652" style="stop-color:#606060"/>
		<stop  offset="0.8086" style="stop-color:#6A6A6A"/>
		<stop  offset="1" style="stop-color:#6D6D6D"/>
	</linearGradient>
	<path class="st3" d="M762.8-134.1c-8.6-13.9-19.3-26-32.4-36.3c-13-10.3-27.5-18.2-43.3-23.5c-15.7-5.4-32.1-7.6-49.1-6.7
		c-17,0.9-33.5,5.4-49.6,13.7c-11,5.7-20.8,12.3-29.4,20.1c-8.6,7.7-87.2,92.5-101.5,109.8c-14.4,17.3-32.2,31.4-53.3,42.3
		c-11.8,6.1-24,11.2-36.5,15.3s-24.6,6.1-36.5,5.8c-11.8-0.3-23-3.2-33.4-8.8c-10.4-5.6-19.6-14.9-27.7-28.1
		c-7.6-12.4-11.7-24.9-12.2-37.5c-0.6-12.7,1.6-24.7,6.5-36.1c5-11.6,12.3-22.1,22-31.6c9.7-9.6,20.9-17.6,33.6-24.1
		c39.3-20.2,73.4-25.7,102.2-16.3c17.2,5.6,33.3,15.9,48.3,30.9c2.1-1.7,4.7-3,7.8-3.6c-4-4-8.2-7.8-12.6-11.5
		c-16-13.4-33.6-23.8-52.6-31.3c-19.1-7.5-38.9-11.2-59.4-11.1s-40.7,5.3-60.6,15.5c-14.4,7.4-26.3,16.7-35.8,27.9
		c-9.5,11.3-16.1,23.4-19.7,36.5c-3.7,13.1-4.5,26.6-2.6,40.6s6.9,27.6,15,40.7c9.5,15.4,21.3,28.4,35.3,39s29.1,18.4,45.4,23.6
		c16.2,5.1,33,7.1,50.3,5.8s34.2-6.1,50.7-14.6c17.8-9.1,32.4-20.1,44-32.9c11.6-12.8,51.6-53.4,62.5-66.8
		c10.9-13.5,22.5-26.8,34.7-39.9c12.1-13.3,27.5-24.7,46.1-34.3c26.6-13.7,51.9-18.5,75.8-14.6c23.9,4,41.9,15.8,54,35.5
		c12.4,20.1,13.6,55,3.8,76.1c-9.9,21.1-28.7,38.8-56.6,53.1C669.8,2,644.6,7.2,620.5,4.1c-24.2-3.1-46.4-14.9-66.8-35.4l-5,4.1
		c10.7,10.2,23,19.4,36.6,27.7c13.7,8.2,28,14.6,43,19c15,4.5,30.3,6.4,46.1,5.7c15.7-0.7,30.9-4.9,45.7-12.5
		c28.7-14.8,47.2-33.9,55.2-57.4C783.3-68,779.2-107.5,762.8-134.1z"/>
	
		<linearGradient id="SVGID_3_" gradientUnits="userSpaceOnUse" x1="506.6328" y1="301.302" x2="506.6328" y2="71.3143" gradientTransform="matrix(1 0 0 -1 0 98.6)">
		<stop  offset="0" style="stop-color:#FFFFFF;stop-opacity:0.77"/>
		<stop  offset="0.2033" style="stop-color:#FFFFFF;stop-opacity:0.65"/>
		<stop  offset="0.3448" style="stop-color:#FFFFFF;stop-opacity:0.65"/>
		<stop  offset="0.3462" style="stop-color:#FFFFFF;stop-opacity:0.65"/>
		<stop  offset="0.511" style="stop-color:#FFFFFF;stop-opacity:0"/>
		<stop  offset="0.5247" style="stop-color:#E1E1E1;stop-opacity:4.472275e-03"/>
		<stop  offset="0.5464" style="stop-color:#B8B8B8;stop-opacity:1.158136e-02"/>
		<stop  offset="0.5708" style="stop-color:#929292;stop-opacity:1.957367e-02"/>
		<stop  offset="0.5974" style="stop-color:#727272;stop-opacity:2.826838e-02"/>
		<stop  offset="0.6268" style="stop-color:#565656;stop-opacity:3.787606e-02"/>
		<stop  offset="0.6599" style="stop-color:#404040;stop-opacity:4.872554e-02"/>
		<stop  offset="0.6986" style="stop-color:#2F2F2F;stop-opacity:6.138782e-02"/>
		<stop  offset="0.7465" style="stop-color:#242424;stop-opacity:7.705475e-02"/>
		<stop  offset="0.8136" style="stop-color:#1D1D1D;stop-opacity:9.902187e-02"/>
		<stop  offset="1" style="stop-color:#1B1B1B;stop-opacity:0.16"/>
	</linearGradient>
	<path class="st4" d="M762.8-134.1c-8.6-13.9-19.3-26-32.4-36.3c-13-10.3-27.5-18.2-43.3-23.5c-15.7-5.4-32.1-7.6-49.1-6.7
		c-17,0.9-33.5,5.4-49.6,13.7c-11,5.7-20.8,12.3-29.4,20.1c-8.6,7.7-87.2,92.5-101.5,109.8c-14.4,17.3-32.2,31.4-53.3,42.3
		c-11.8,6.1-24,11.2-36.5,15.3s-24.6,6.1-36.5,5.8c-11.8-0.3-23-3.2-33.4-8.8c-10.4-5.6-19.6-14.9-27.7-28.1
		c-7.6-12.4-11.7-24.9-12.2-37.5c-0.6-12.7,1.6-24.7,6.5-36.1c5-11.6,12.3-22.1,22-31.6c9.7-9.6,20.9-17.6,33.6-24.1
		c39.3-20.2,73.4-25.7,102.2-16.3c17.2,5.6,33.3,15.9,48.3,30.9c2.1-1.7,4.7-3,7.8-3.6c-4-4-8.2-7.8-12.6-11.5
		c-16-13.4-33.6-23.8-52.6-31.3c-19.1-7.5-38.9-11.2-59.4-11.1s-40.7,5.3-60.6,15.5c-14.4,7.4-26.3,16.7-35.8,27.9
		c-9.5,11.3-16.1,23.4-19.7,36.5c-3.7,13.1-4.5,26.6-2.6,40.6s6.9,27.6,15,40.7c9.5,15.4,21.3,28.4,35.3,39s29.1,18.4,45.4,23.6
		c16.2,5.1,33,7.1,50.3,5.8s34.2-6.1,50.7-14.6c17.8-9.1,32.4-20.1,44-32.9c11.6-12.8,51.6-53.4,62.5-66.8
		c10.9-13.5,22.5-26.8,34.7-39.9c12.1-13.3,27.5-24.7,46.1-34.3c26.6-13.7,51.9-18.5,75.8-14.6c23.9,4,41.9,15.8,54,35.5
		c12.4,20.1,13.6,55,3.8,76.1c-9.9,21.1-28.7,38.8-56.6,53.1C669.8,2,644.6,7.2,620.5,4.1c-24.2-3.1-46.4-14.9-66.8-35.4l-5,4.1
		c10.7,10.2,23,19.4,36.6,27.7c13.7,8.2,28,14.6,43,19c15,4.5,30.3,6.4,46.1,5.7c15.7-0.7,30.9-4.9,45.7-12.5
		c28.7-14.8,47.2-33.9,55.2-57.4C783.3-68,779.2-107.5,762.8-134.1z"/>
</g>
</svg>
